<svg viewBox="0 0 611 250" fill="none" xmlns="http://www.w3.org/2000/svg">
    <g filter="url(#filter0_d_24_2)">
        <path d="M13 151.515C13 154.629 14.7461 157.48 17.5226 158.867L151.594 225.755C159.37 229.633 168.491 223.941 168.513 215.202L168.578 170.96C168.578 166.47 166.062 162.363 162.06 160.375L77.422 119.617L13 151.515Z" fill="#FF431B"/>
        <path d="M168.785 22.8303L168.72 67.0724C168.72 71.5622 166.171 75.6587 162.169 77.6469L78.9089 118.885L77.423 119.617L56.9577 109.763L13.0986 88.5271V88.2977C13.0986 83.808 15.6473 79.7115 19.6384 77.7342L151.91 12.2231C159.697 8.36693 168.807 14.0911 168.796 22.8303H168.785Z" fill="#FED330"/>
        <path d="M77.4112 119.617L13 151.515L13.0976 88.4619L56.9566 109.709L77.4112 119.617Z" fill="#FD932B"/>
    </g>
    <g filter="url(#filter1_d_24_2)">
        <path d="M206.429 84.1909V82.3447L227.74 82.3775L237.718 109.829L244.746 129.602L251.687 109.851L261.751 82.4321L283.063 82.4649V84.311L253.032 157.753L236.243 157.731L206.44 84.2018L206.429 84.1909Z" fill="white"/>
        <path d="M303.214 154.268C297.476 150.849 293.041 146.151 289.895 140.176C286.75 134.201 285.188 127.515 285.199 120.13C285.21 112.549 286.848 105.776 290.101 99.8119C293.355 93.8474 297.856 89.2156 303.593 85.9056C309.33 82.5957 315.783 80.9462 322.931 80.9571C332.334 80.968 340.424 84.0158 347.192 90.0895L347.908 82.552L365.401 82.5738L365.293 157.906L347.799 157.884L347.105 150.346C343.808 153.285 340.088 155.524 335.945 157.086C331.802 158.648 327.432 159.413 322.822 159.413C315.48 159.402 308.951 157.687 303.214 154.268V154.268ZM311.218 134.67C314.927 138.472 319.699 140.373 325.534 140.373C331.368 140.373 335.999 138.494 339.719 134.703C343.439 130.923 345.305 126.095 345.316 120.218C345.316 114.341 343.472 109.512 339.763 105.711C336.054 101.92 331.325 100.009 325.588 100.009C319.753 100.009 314.981 101.887 311.261 105.667C307.541 109.458 305.676 114.286 305.665 120.152C305.654 126.019 307.508 130.869 311.218 134.659V134.67Z" fill="white"/>
        <path d="M384.035 58.4434L404.218 58.4761L404.066 157.972L383.883 157.939L384.035 58.4434V58.4434Z" fill="white"/>
        <path d="M424.325 55.2422C426.635 52.97 429.574 51.8339 433.153 51.8448C436.635 51.8448 439.52 52.9918 441.83 55.264C444.129 57.5471 445.278 60.3874 445.278 63.7956C445.278 67.2039 444.118 70.0223 441.808 72.2508C439.498 74.4793 436.602 75.5826 433.121 75.5826C429.639 75.5826 426.603 74.4575 424.303 72.229C422.004 70.0005 420.854 67.1821 420.854 63.7629C420.854 60.3437 422.015 57.5144 424.325 55.2422V55.2422ZM422.948 82.6723L443.131 82.7051L443.023 158.037L422.839 158.004L422.948 82.6723Z" fill="white"/>
        <path d="M474.019 152.75C469.323 148.336 466.98 141.673 466.991 132.77L467.035 100.074L453.771 100.052L453.792 82.7159L467.056 82.7377L467.078 66.6794L487.261 64.582L487.24 82.7705L505.297 82.7923L505.276 100.129L487.218 100.107L487.175 130.519C487.175 134.408 488.129 137.183 490.059 138.843C491.979 140.504 494.972 141.334 499.018 141.345C501.556 141.345 503.952 141.159 506.219 140.788L506.197 158.124C501.968 158.976 497.912 159.391 494.061 159.38C485.407 159.369 478.726 157.152 474.03 152.739L474.019 152.75Z" fill="white"/>
        <path d="M527.91 179.339L540.513 150.784L513.236 84.7919V82.8037L534.689 82.8365L544.666 108.005L551.412 127.057L558.494 108.158L568.689 82.8693L590.001 82.902V84.8902L549.634 181.196L527.899 181.163V179.317L527.91 179.339Z" fill="white"/>
    </g>
    <defs>
        <filter id="filter0_d_24_2" x="0" y="-0.000976562" width="189.796" height="249.995" filterUnits="userSpaceOnUse" color-interpolation-filters="sRGB">
            <feFlood flood-opacity="0" result="BackgroundImageFix"/>
            <feColorMatrix in="SourceAlpha" type="matrix" values="0 0 0 0 0 0 0 0 0 0 0 0 0 0 0 0 0 0 127 0" result="hardAlpha"/>
            <feOffset dx="4" dy="6"/>
            <feGaussianBlur stdDeviation="8.5"/>
            <feComposite in2="hardAlpha" operator="out"/>
            <feColorMatrix type="matrix" values="0 0 0 0 0 0 0 0 0 0 0 0 0 0 0 0 0 0 0.1 0"/>
            <feBlend mode="normal" in2="BackgroundImageFix" result="effect1_dropShadow_24_2"/>
            <feBlend mode="normal" in="SourceGraphic" in2="effect1_dropShadow_24_2" result="shape"/>
        </filter>
        <filter id="filter1_d_24_2" x="193.429" y="40.8447" width="417.572" height="163.352" filterUnits="userSpaceOnUse" color-interpolation-filters="sRGB">
            <feFlood flood-opacity="0" result="BackgroundImageFix"/>
            <feColorMatrix in="SourceAlpha" type="matrix" values="0 0 0 0 0 0 0 0 0 0 0 0 0 0 0 0 0 0 127 0" result="hardAlpha"/>
            <feOffset dx="4" dy="6"/>
            <feGaussianBlur stdDeviation="8.5"/>
            <feComposite in2="hardAlpha" operator="out"/>
            <feColorMatrix type="matrix" values="0 0 0 0 0 0 0 0 0 0 0 0 0 0 0 0 0 0 0.1 0"/>
            <feBlend mode="normal" in2="BackgroundImageFix" result="effect1_dropShadow_24_2"/>
            <feBlend mode="normal" in="SourceGraphic" in2="effect1_dropShadow_24_2" result="shape"/>
        </filter>
    </defs>
</svg>
