<svg viewBox="0 0 18 21" fill="none" xmlns="http://www.w3.org/2000/svg">
    <path d="M14.9974 20.1575C13.8344 21.2656 12.5645 21.0907 11.3422 20.5657C10.0486 20.0291 8.86179 20.0058 7.49699 20.5657C5.78802 21.289 4.88607 21.079 3.86544 20.1575C-1.92605 14.2899 -1.07157 5.35432 5.5032 5.0277C7.10535 5.10935 8.22093 5.89092 9.15848 5.96091C10.5589 5.68095 11.8999 4.87605 13.3953 4.98104C15.1873 5.12102 16.5403 5.82093 17.4303 7.08077C13.7276 9.26216 14.6058 14.0566 18 15.3981C17.3235 17.1478 16.4453 18.886 14.9856 20.1691L14.9974 20.1575ZM9.0398 4.95771C8.86179 2.35637 11.0099 0.209973 13.4784 0C13.8225 3.00962 10.7013 5.24934 9.0398 4.95771Z" fill="#181818"/>
</svg>
