<svg width="1465" height="924" viewBox="0 0 1465 924" fill="none" xmlns="http://www.w3.org/2000/svg">
    <path d="M285.509 821.3C276.179 795.39 272.459 767.75 271.779 740.32C271.759 739.24 273.409 739.1 273.499 740.24C274.999 760.62 277.479 780.99 282.229 800.89C283.789 807.51 285.619 814.07 287.699 820.55C288.149 821.95 286.049 822.73 285.519 821.3H285.509Z" fill="#000C1F"/>
    <path d="M444.659 215.15C497.619 133.78 616.299 -12.27 723.709 1.26C785.929 10.36 810.559 76.47 817.079 131.55C823.249 180.09 818.639 229.23 811.789 277.44C786.089 437.98 719.199 591.31 624.569 723.14C571.749 795.16 471.559 907.84 375.039 902.69C350.249 901.09 326.829 888.41 311.379 869.07C310.999 868.61 311.059 867.93 311.529 867.55C311.989 867.17 312.659 867.23 313.039 867.68C334.529 893.38 366.379 903.65 399.119 898.08C486.899 882.26 568.619 788.6 619.309 719.31C726.519 570.91 835.159 317 812.949 132.06C802.119 39.99 750.729 -24.73 653.109 16.65C593.839 43.03 546.529 90.1 504.849 138.78C484.029 163.55 464.779 189.63 446.829 216.57C445.899 217.99 443.719 216.57 444.659 215.13V215.15Z" fill="#000C1F"/>
    <path d="M314.42 481.29C340.93 401.94 376.62 325.6 420.56 254.41C420.78 254.05 421.25 253.94 421.61 254.16C421.96 254.38 422.07 254.83 421.87 255.19C416.64 264.22 411.55 273.33 406.58 282.5C376.68 337.42 351.03 394.67 329.89 453.5C326.34 463.29 322.93 473.13 319.66 483.02C318.49 486.36 313.37 484.88 314.42 481.29Z" fill="#000C1F"/>
    <path d="M606.84 449.48C611.44 437.4 616.63 425.56 622.25 413.93C627.9 402.31 633.88 390.85 640.54 379.77C640.67 379.55 640.95 379.48 641.17 379.61C641.37 379.73 641.45 379.99 641.35 380.2C633.8 396.38 624.02 416.31 616.23 432.49C613.76 437.59 610.26 444.88 607.68 449.85C607.44 450.34 606.62 450.04 606.84 449.48Z" fill="#000C1F"/>
    <path d="M547.461 634C553.621 596.91 563.831 560.49 577.171 525.35C577.261 525.11 577.531 525 577.761 525.09C577.981 525.18 578.101 525.42 578.031 525.65C569.831 552.47 561.871 579.66 555.021 606.84C552.971 614.79 550.311 626.11 548.361 634.18C548.301 634.43 548.051 634.58 547.811 634.52C547.581 634.46 547.431 634.24 547.461 634Z" fill="#000C1F"/>
    <path d="M756.79 212.28C791.63 174.94 843.54 128.23 896.86 125.99C918.99 125.29 939.25 134.49 953.24 151.68C997.07 206.7 984.77 311.63 971.62 376.69C940.27 522.64 868.62 674.65 769.34 786.66C729.83 830.27 652.03 901.08 589.32 872.18C549.82 852.34 539.65 803.02 536.57 762.73C534.75 734.78 536.49 706.74 540.12 679.03C540.15 678.78 540.38 678.6 540.63 678.64C540.88 678.67 541.05 678.9 541.02 679.15C537.11 713.7 535.75 748.84 541 783.31C548.22 831.98 573.43 882.41 630.66 874.73C693.25 865.44 754.83 799.47 792.79 751.69C882.76 635.42 952.16 480.23 974.27 334.67C981.7 279.71 986.56 199.52 950.58 153.88C937.27 137.33 918.15 128.52 896.91 128.99C876.19 129.34 856.16 137.31 838.14 147.23C819.91 157.43 803.21 170.12 787.53 183.89C777.07 193.1 767.08 202.84 757.45 212.93C757.04 213.37 756.38 212.73 756.78 212.3L756.79 212.28Z" fill="#000C1F"/>
    <path d="M927.489 395.45C964.309 342.39 1049.02 243.38 1121.06 260.17C1164.24 271.49 1177.29 321.17 1181.26 360.35C1186.65 415.34 1176.41 470.59 1161.89 523.48C1150.64 563.16 1135.91 601.83 1118.4 639.15C1117.72 640.61 1115.98 641.24 1114.52 640.56C1113.07 639.88 1112.43 638.16 1113.1 636.7C1135.89 587.13 1154.25 535.43 1166.16 482.21C1177.52 429.17 1188.12 351.42 1164.18 301.42C1155.74 283.16 1140.54 267.1 1120.54 262.21C1093.69 255.6 1066.21 266.77 1043.48 280.57C997.149 309.79 961.149 352.7 930.099 397.27C929.599 397.99 928.609 398.18 927.889 397.68C927.159 397.18 926.979 396.18 927.489 395.45Z" fill="#000C1F"/>
    <path d="M809.479 668C819.979 612.78 838.819 559.21 863.409 508.72C867.039 501.56 870.609 494.37 874.299 487.25C874.489 486.88 874.949 486.74 875.319 486.93C875.679 487.12 875.829 487.56 875.649 487.93C872.429 495.27 869.089 502.54 865.819 509.84C849.399 546.26 835.459 583.84 824.039 622.12C821.749 629.77 819.589 637.47 817.569 645.2C815.439 652.91 813.629 660.69 811.719 668.46C811.579 669.07 810.959 669.46 810.339 669.31C809.749 669.17 809.389 668.59 809.499 668H809.479Z" fill="#000C1F"/>
    <path d="M1018.92 798.77C982.009 840.47 907.259 910.85 847.389 882.19C808.069 862.16 799.779 806.86 799.189 766.92C798.889 751.13 799.809 735.35 801.429 719.66C801.479 719.17 801.919 718.81 802.409 718.86C802.899 718.91 803.259 719.35 803.209 719.84C801.529 735.46 800.559 751.18 800.789 766.89C801.429 809.48 811.629 870.81 859.329 883.92C890.189 891.46 921.179 876.07 946.019 858.82C971.579 840.79 993.639 818.19 1013.58 794.18C1016.55 790.71 1022.01 795 1018.93 798.77H1018.92Z" fill="#000C1F"/>
    <path d="M368.35 628.92C347.58 709.79 247.82 756.66 178.93 701.15C141.57 671.05 124.1 619.29 133.8 572.52C151.38 486.72 253.4 448.68 323.32 501.08C362.35 529.6 381.09 582.28 368.35 628.91V628.92ZM366.87 628.53C381.42 574.39 350.94 515.96 300.59 493.09C233.08 461.53 153.18 500.53 136.25 573.07C119.09 643.88 170.38 720.81 245.64 721.07C300.44 721.59 353.21 681.82 366.87 628.53Z" fill="#000C1F"/>
    <path d="M289.43 485.52C383.43 506.59 424.49 609.43 363.5 686.32C335.55 721.75 291.53 736.94 247.49 728.41C239.07 726.79 230.79 724.56 222.76 721.65C222.63 721.6 222.57 721.46 222.61 721.34C222.65 721.22 222.78 721.15 222.9 721.19C283.93 738.87 342.48 719.07 373.76 662.51C404.38 608.14 386.77 541.33 335.55 506.59C321.6 496.98 305.77 490.15 289.29 486C289.16 485.97 289.08 485.84 289.11 485.7C289.14 485.57 289.27 485.49 289.4 485.52H289.43Z" fill="#000C1F"/>
    <path d="M616.35 328.65C582.52 278.79 604.82 202.49 667.72 191.7C701.84 185.86 738.18 201.13 758.84 228.7C796.82 279.18 768.71 352.52 706.99 365.32C672.93 372.81 635.49 357.79 616.35 328.64V328.65ZM617.27 328.03C642.97 366.89 699.32 375.39 736.72 348.66C775.29 322.42 784.61 267.55 757.38 229.77C727.28 186.68 661.16 177.7 625.08 218.26C598.68 247.69 594.94 295.18 617.26 328.03H617.27Z" fill="#000C1F"/>
    <path d="M731.601 354.44C689.561 385.3 629.501 379.04 600.941 333.39C576.351 293.71 582.671 244.74 620.251 215.78C625.151 212 630.311 208.58 635.711 205.63C635.801 205.58 635.901 205.61 635.951 205.7C635.991 205.78 635.971 205.88 635.891 205.93C633.341 207.63 630.821 209.38 628.371 211.21C588.601 240.03 578.511 289.58 603.381 331.89C622.481 364.24 662.221 378.7 698.161 369.31C710.021 366.35 721.271 361.06 731.391 354.15C731.561 354.01 731.781 354.32 731.591 354.44H731.601Z" fill="#000C1F"/>
    <path d="M1113.73 763.75C1138.89 736.22 1141.81 691.58 1121.23 660.67C1093.16 618.12 1030.49 617.57 996.72 653.57C974.53 676.4 968.35 712.66 981.72 741.51C1004.36 792.72 1075.74 805.65 1113.73 763.75ZM1114.5 764.45C1075.21 808.13 1002.58 796.69 978.71 742.86C965.04 712.91 971.881 675.34 995.501 652.39C1018.41 629.54 1054.24 620.24 1085.17 630.26C1142.18 648.75 1152.65 722.67 1114.5 764.46V764.45Z" fill="#000C1F"/>
    <path d="M1004.13 772.68C1038.85 805.58 1094.68 807.46 1126.11 769.21C1152.51 736.48 1153.03 691.79 1124.94 660.01C1123.08 657.83 1121.13 655.72 1119.11 653.68C1117.08 651.65 1114.97 649.69 1112.83 647.76C1112.76 647.7 1112.76 647.59 1112.82 647.53C1112.88 647.47 1112.97 647.46 1113.04 647.51C1117.67 650.98 1122 654.84 1126.05 659.02C1157.04 690.94 1156.37 737.43 1128.18 770.93C1105.12 798.74 1065.26 806.75 1032.59 792.17C1021.93 787.57 1012.26 780.9 1003.9 772.92C1003.74 772.78 1003.98 772.53 1004.13 772.68Z" fill="#000C1F"/>
    <path d="M1097.23 701.25C1100.63 690.67 1096.51 678.79 1088.19 671.67C1085.47 669.24 1082.35 667.3 1079.07 665.7C1078.71 665.53 1078.54 665.11 1078.67 664.75C1080.04 660.88 1081.37 657.01 1082.78 653.15L1083.21 654.03C1079.14 652.54 1073.41 650.44 1069.3 649.24L1070.22 648.79C1068.94 652.96 1068.02 657.26 1066.46 661.34C1066.24 661.88 1065.67 662.18 1065.12 662.08C1056.48 660.94 1046.93 662.49 1040.41 668.54C1034.34 674.3 1030.68 684.03 1033.38 692.15C1034.76 696.18 1037.66 699.61 1040.98 702.53C1047.86 708.63 1056.27 712.57 1063.16 718.91C1066.87 722.26 1070.06 727.64 1068.67 732.86C1066.77 736.93 1062.46 739.69 1058.07 740.1C1049.63 740.86 1041.12 736.71 1036.47 729.73C1034.18 726.23 1033.52 721.58 1035.16 717.69L1035.49 718.4C1030.4 716.79 1023.19 714.57 1018.11 713.11H1018.08C1018.06 713.11 1018.06 713.11 1018.12 713.12C1018.28 713.16 1018.47 713.16 1018.6 713.12C1018.86 713.04 1018.9 712.97 1018.93 712.96C1018.95 712.95 1018.93 712.96 1018.92 713C1017.16 717.89 1017.73 723.47 1018.21 728.59C1020.46 736.96 1028.59 745.25 1036.88 749.73C1037.28 749.93 1037.46 750.4 1037.31 750.8L1034.51 759.72C1034.51 759.72 1033.8 758.25 1033.79 758.25L1047.53 763.53L1046.67 763.95C1046.98 762.41 1047.37 760.89 1047.8 759.37C1048.04 758.55 1048.55 756.76 1048.81 756L1048.99 755.44C1049.03 755.25 1049.13 755.08 1049.56 755.01L1049.86 754.67C1050.04 754.46 1050.31 754.38 1050.56 754.43C1059.3 756.16 1068.97 755.57 1076.56 750.58C1083.97 745.42 1087.57 735.82 1086.29 726.97C1085.5 721.05 1082.53 715.41 1077.9 711.61C1075.2 708.43 1071.44 706.17 1067.96 703.84C1062.26 699.81 1050.22 693.75 1050.27 685.86C1050.47 682.32 1053.21 679.68 1055.98 677.81C1060.85 674.81 1067.12 675.89 1071.94 678.45C1077.95 681.45 1083.14 687.61 1082.31 694.7C1082.41 694.29 1082.12 693.48 1081.73 693.23C1081.86 693.3 1082.66 693.76 1082.93 693.89C1087.51 696.11 1092.16 698.79 1097 700.34C1097.21 700.4 1097.43 700.41 1097.55 700.47C1097.61 700.5 1097.66 700.59 1097.62 700.66C1097.49 700.81 1097.3 701.01 1097.26 701.24L1097.23 701.25ZM1099.11 701.71C1098.95 702.46 1098.08 702.92 1097.46 703.04C1095.4 702.98 1093.52 702.14 1091.63 701.5C1087.83 700.1 1084.14 698.43 1080.6 696.48C1080.32 696.3 1079.83 696.08 1079.51 695.77C1079.17 695.51 1078.85 694.72 1078.96 694.31C1079.19 692.5 1079.06 690.66 1078.51 688.9C1075.92 679.56 1061.83 673.24 1054.36 680.93C1045.06 689.57 1062.53 698.37 1068.62 702.78C1072.04 705.06 1076.28 707.79 1078.64 710.66C1083.52 714.64 1086.66 720.58 1087.51 726.78C1089.44 739.6 1081.64 752.55 1068.78 755.6C1062.72 757.28 1056.33 757.22 1050.2 756.15L1051.2 755.57C1051.5 755.88 1051.47 756.08 1051.38 756.26C1050.34 759 1049.18 761.92 1047.84 764.53C1047.69 764.81 1047.35 764.93 1047.06 764.79L1033 760.43C1032.38 760.24 1032.06 759.56 1032.29 758.95L1035.61 750.21C1035.61 750.21 1036.05 751.29 1036.04 751.28C1026.68 746.94 1018.11 739.19 1015.15 728.99C1014.74 725.95 1014.6 722.87 1014.83 719.78C1015.2 716.87 1015.29 713.64 1017.16 711.18C1017.44 710.84 1018.25 710.52 1018.81 710.76L1018.84 710.77L1018.91 710.79L1019.17 710.89C1024.77 712.94 1030.34 715.04 1035.84 717.36C1036.13 717.46 1036.28 717.79 1036.17 718.07C1033.34 725.8 1039.88 733.02 1046.69 735.8C1051.74 737.94 1057.98 738.72 1062.58 735.49C1063.99 734.48 1065.06 733.08 1065.77 731.48L1065.64 731.91C1065.98 729.94 1065.7 727.97 1064.82 726.15C1061.73 720.29 1055.6 716.89 1050.21 713.07C1042.59 707.81 1033.94 702.4 1030.63 693.08C1027.59 683.83 1031.64 673 1038.55 666.52C1045.75 659.92 1056.09 658.23 1065.45 659.52L1064.06 660.38C1065.36 656.26 1067.28 652.34 1068.84 648.31C1068.96 647.93 1069.38 647.71 1069.76 647.86C1072.04 648.76 1074.35 649.59 1076.67 650.4L1083.66 652.71C1084.02 652.83 1084.22 653.23 1084.09 653.59C1082.81 657.49 1081.45 661.36 1080.14 665.24L1079.74 664.29C1094.26 671.05 1102.4 685.83 1099.11 701.69V701.71Z" fill="#000C1F"/>
    <path d="M502.171 437.03C510.441 423.37 524.721 403.15 539.991 397.33C544.161 395.76 549.441 396.56 551.601 400.9C555.591 409.09 552.481 420.47 550.151 428.77C545.391 443.96 537.751 458.13 528.401 470.97C522.011 479.49 514.931 487.6 506.011 493.65C498.371 498.98 487.511 501.29 485.311 489.34C483.111 472.88 494.001 451 502.171 437.02V437.03ZM503.791 437.99C495.981 451.79 485.721 472.83 487.971 488.83C491.481 504.51 510.211 486.82 515.601 480.77C526.001 469.29 534.431 456.02 541.201 442.1C545.601 432.86 549.531 423.06 550.751 412.87C552.271 398.88 545.661 394.89 533.931 402.78C521.161 411.7 511.821 424.79 503.791 437.99Z" fill="#000C1F"/>
    <path d="M496.481 495.66C496.321 495.66 656.531 532.47 654.171 532.19C659.501 530.3 653.911 524.7 651.851 522.1C630.971 496.88 601.651 461.45 580.781 436.05L553.841 403.15C553.621 402.88 553.661 402.49 553.931 402.27C554.191 402.05 554.581 402.09 554.801 402.35L582.421 434.68C603.781 459.78 633.411 494.79 654.581 519.84C656.371 521.97 658.411 524.2 659.341 526.91C660.871 530.82 658.401 534.75 654.101 534.79L495.941 497.97C495.301 497.82 494.911 497.19 495.061 496.55C495.211 495.91 495.841 495.52 496.481 495.67V495.66Z" fill="#000C1F"/>
    <path d="M869.59 440.45C864.18 448.49 859.29 461.42 863.63 470.75C865.71 473.96 868.67 476.72 872.2 478.23C880.63 481.59 889.7 477.16 896.67 472.32C902.98 467.71 909.07 462.44 913.68 456.08C923.69 440.32 931.97 418.31 923.16 400.39C917.76 389.98 906.87 382.63 895.31 381.05C875.35 378.73 856.88 390.74 842.59 403.51C839.7 406.21 836.84 408.95 834.61 412.16C827.69 421.47 825.59 435.39 834.75 443.96C850.04 459.95 873.85 435.5 883.66 423.31C885.59 420.75 887.43 417.63 887.22 414.33C887.05 410.51 884.23 407.22 881.03 405.35C880.31 404.86 879.16 404.81 878.29 405.04C875.32 405.81 873.15 408.28 871.18 410.55C868.56 413.81 866.35 417.54 863.38 420.56C860.45 423.69 857.15 426.48 853.5 428.76C851.67 429.85 844.27 434.3 843.24 431C843.15 429.93 843.61 428.92 843.99 427.99C845.8 424.01 848.3 420.53 851.02 417.22C859.2 407.35 870.47 399.8 883.19 397.46C894.14 395.2 906.38 397.52 910.21 409.44C915.73 424.04 908.66 439.74 898.89 450.74C894.74 455.53 889.87 460.23 883.72 462.34C881.68 463.04 879.35 463.35 877.26 462.62C877.17 462.59 877.12 462.48 877.15 462.39C877.18 462.32 877.25 462.27 877.32 462.27C879.42 462.19 881.39 461.84 883.32 461.18C885.24 460.49 887.06 459.5 888.79 458.36C895.67 453.7 901.05 446.87 905.25 439.75C911.48 429.26 913.42 414.91 906.07 404.52C900.85 397.74 891.27 397.37 883.46 398.92C871.11 401.25 860.17 408.63 852.25 418.26C849.39 421.84 846.5 425.69 844.96 430.02C844.87 430.3 844.84 430.53 844.83 430.74C844.85 430.67 844.76 430.61 844.75 430.58C844.74 430.55 844.68 430.54 844.71 430.54C847.48 430.57 850.23 428.77 852.65 427.41C856.17 425.22 859.38 422.52 862.22 419.5C866.64 414.94 869.42 408.82 875 405.4C876.91 404.26 879.35 403.26 881.52 404.6C884.72 406.35 888.17 410.06 888.51 414.25C888.96 418.51 886.56 422.37 883.98 425.51C874.66 436.62 854.3 457.2 838.62 448.71C824.47 440.33 824.59 423.76 833.65 411.51C838.47 405.06 844.71 399.95 851.03 395.07C863.73 385.75 879.24 377.89 895.46 379.96C911.45 382.07 925.9 395.09 927.67 411.43C929.11 423.5 925.57 435.49 920.48 446.28C917.83 451.64 915.01 457.08 910.8 461.41C901.16 471.46 883.47 486.79 869.07 477.83C866.49 476.19 864.32 473.87 862.67 471.33C859.47 464.86 861.02 457.1 863.21 450.56C864.56 446.77 866.42 443.18 868.67 439.85C869.08 439.25 869.99 439.87 869.59 440.47V440.45Z" fill="#000C1F"/>
    <path d="M884.031 424.54C883.861 424.54 883.691 424.46 883.581 424.31C883.401 424.06 883.461 423.72 883.711 423.54C898.091 413.23 910.411 412.2 910.541 412.19C910.841 412.19 911.111 412.4 911.131 412.7C911.151 413 910.921 413.27 910.621 413.29C910.501 413.29 898.471 414.31 884.361 424.44C884.261 424.51 884.151 424.54 884.041 424.54H884.031Z" fill="#000C1F"/>
    <path d="M878.75 462.68C877 451.73 885.7 442.49 894.04 436.79C897.39 434.42 900.83 432.17 904.45 430.22C906.22 429.32 908.02 428.29 910.02 427.99C910.28 427.99 910.58 427.98 910.8 428.17C911.11 428.39 911.11 428.95 910.71 429.12C910.43 429.25 910.1 429.14 909.97 428.86C910.04 429.01 910.15 429.08 910.24 429.12C909.62 429.41 908.71 429.86 908.03 430.33C902.24 434.21 896.35 438.45 890.91 442.7C885.08 447.64 879.65 454.5 879.83 462.46C879.96 463.14 878.91 463.4 878.75 462.68Z" fill="#000C1F"/>
    <path d="M927.16 411.6C939.48 411.32 950.47 419.33 955.9 430.07C964.15 447.24 961.53 471.66 949.9 486.78C940.65 497.86 924.95 511.16 909.54 509C906.3 508.5 903.21 507.15 900.56 505.23C899.34 503.96 898.4 502.58 897.52 501.14C894.13 495.52 892.83 488.58 894.49 482.17C894.87 480.31 895.75 478.15 896.49 476.41C896.85 475.77 897.86 473.88 898.24 473.21C899.11 471.85 900.09 470.56 901.01 469.23C901.43 468.64 902.31 469.26 901.92 469.85C901.04 471.18 900.1 472.47 899.27 473.83C898.96 474.46 897.96 476.33 897.64 476.95C897.28 477.75 896.73 479.41 896.4 480.22C896.09 481.34 895.85 482.48 895.59 483.61C895.53 484.43 895.36 485.67 895.29 486.49C895.18 489.77 895.73 493.05 896.93 496.11C897.86 498.83 900.13 502.15 901.61 503.8C904.06 505.52 906.86 506.7 909.83 507.13C924.54 508.96 939.38 496.08 948.26 485.48C960.06 470.57 962.75 442.97 952.05 426.88C946.67 418.6 937.24 412.66 927.24 412.69C926.49 412.77 926.41 411.61 927.17 411.59L927.16 411.6Z" fill="#000C1F"/>
    <path d="M926.051 428.25C938.461 428.14 946.921 441.65 945.121 453.11C943.981 462.64 939.981 471.68 934.271 479.34C930.641 483.78 926.051 487.26 921.381 490.57C918.481 492.34 913.571 495.72 910.601 492.44C910.541 492.36 910.561 492.25 910.641 492.19C910.701 492.14 910.781 492.14 910.841 492.19C912.441 493.1 914.141 492.61 915.791 491.99C920.841 489.79 924.961 485.86 929.011 482.16C934.361 477.2 937.671 470.26 940.241 463.51C942.601 456.82 944.181 449.14 941.701 442.36C939.751 437.37 936.211 432.9 931.241 430.73C929.601 429.99 927.781 429.5 926.031 429.36C925.351 429.33 925.371 428.27 926.061 428.26L926.051 428.25Z" fill="#000C1F"/>
    <path d="M913.941 455.76C922.591 449.41 932.081 443.97 942.481 441.1C943.171 440.91 943.481 441.97 942.781 442.17C932.571 445.07 923.161 450.43 914.621 456.64C914.061 457.09 913.351 456.21 913.941 455.76Z" fill="#000C1F"/>
    <path d="M942.811 460.13C937.001 461.81 931.131 464.06 926.281 467.73C921.651 471.57 917.661 476.49 914.791 481.77C913.861 483.56 913.101 485.44 912.731 487.37C912.361 489.28 912.471 491.31 913.521 492.92C913.691 493.18 913.611 493.52 913.361 493.69C913.111 493.85 912.781 493.79 912.611 493.55C911.271 491.69 911.041 489.28 911.351 487.15C912.471 480.8 916.471 475.44 920.591 470.72C926.091 464.19 934.391 460.75 942.571 459.06C943.261 458.93 943.501 459.97 942.801 460.14L942.811 460.13Z" fill="#000C1F"/>
    <path d="M958.761 441.28C970.711 440.84 981.311 448.86 987.031 458.86C993.451 468.75 993.341 481.6 990.011 492.51C984.351 510.56 972.721 528.18 954.991 536.09C951.421 537.56 947.481 538.44 943.541 538.09C935.681 537.44 928.301 531.54 926.781 523.69C925.281 515.96 927.801 508.18 931.421 501.42C931.571 501.15 931.911 501.06 932.171 501.21C932.441 501.36 932.531 501.69 932.391 501.96C928.991 508.41 926.581 516.13 928.091 523.41C929.561 530.65 936.471 536 943.681 536.59C947.321 536.9 951.001 536.08 954.411 534.66C971.611 526.91 982.911 509.58 988.341 492.03C991.901 480.24 991.361 467.62 983.991 457.45C980.431 452.11 975.461 447.47 969.561 444.85C966.231 443.36 962.501 442.36 958.861 442.4C958.121 442.49 958.011 441.33 958.771 441.3L958.761 441.28Z" fill="#000C1F"/>
    <path d="M959.75 456.57C967.5 459.77 975.6 466.08 975.96 475.13C977.21 491.31 970.33 508.24 956.32 516.64C951.77 519.43 945.95 521.67 940.69 519.58C940.43 519.45 940.54 519.07 940.83 519.12C947.79 520.53 954.36 516.13 959.47 511.89C968.19 505.09 972.72 494.26 973.95 483.47C974.38 478.52 974.83 473.1 972.38 468.61C969.54 463.62 964.56 460.07 959.34 457.6C958.68 457.35 959.06 456.3 959.75 456.57Z" fill="#000C1F"/>
    <path d="M974.471 488.09C968.811 489.97 963.121 492.22 958.301 495.75C952.411 500.93 940.631 510.92 943.951 519.65C944.221 520.29 943.231 520.74 942.941 520.1C938.771 510.64 950.721 499.91 957.251 494.34C962.301 490.69 968.211 488.5 974.201 487.02C974.881 486.87 975.171 487.89 974.481 488.09H974.471Z" fill="#000C1F"/>
    <path d="M973.69 470.74C970.04 471.97 966.39 473.3 962.86 474.85C959.47 476.4 955.8 478.06 953.28 480.82C952.84 481.37 951.98 480.72 952.41 480.14C954.96 476.92 958.68 475.18 962.27 473.5C965.88 471.92 969.58 470.64 973.4 469.68C974.08 469.51 974.37 470.53 973.7 470.75L973.69 470.74Z" fill="#000C1F"/>
    <path d="M991.611 470.1C1003.58 471.49 1014.75 479.37 1019.4 490.59C1025.29 504.71 1024.42 522.22 1015.68 535.03C1012.09 540.74 1003.96 548.4 998.531 539.33C995.721 533.2 1001.2 525.25 1003.02 519.45C1006.23 510.47 1006.55 498.94 998.871 492.12C996.481 489.92 993.451 488.25 990.311 487.69C990.011 487.64 989.811 487.35 989.861 487.05C989.911 486.75 990.201 486.56 990.491 486.6C995.731 487.48 1000.2 490.76 1003.16 495.05C1008.07 502.36 1007.41 512.01 1004.71 520.03C1003.07 524.81 1000.62 529.18 999.781 534.09C999.301 536.86 1000.23 539.28 1002.52 540.77C1006.89 543.46 1011.69 537.07 1013.97 533.76C1022.06 521.86 1022.7 505.89 1017.88 492.56L1017.38 491.45C1016.17 488.47 1014.37 485.64 1012.36 483.15C1007.06 476.95 999.521 472.69 991.501 471.18C990.791 471.12 990.871 469.99 991.621 470.08L991.611 470.1Z" fill="#000C1F"/>
    <path d="M55.8192 278.53C58.4892 306.93 63.5892 364.1 66.0492 392.51L64.5692 391.81L159.949 326.45L160.069 327.87C134.029 315.69 81.7592 290.92 55.8292 278.53H55.8192ZM54.6992 276.93C81.1792 289.17 134.379 313.94 160.759 326.39C161.169 326.58 161.349 327.07 161.149 327.48C161.249 327.9 65.7692 393.08 65.6392 393.38C65.2092 393.68 64.6192 393.57 64.3292 393.14C61.4992 364.15 57.0892 306.01 54.7092 276.94L54.6992 276.93Z" fill="#000C1F"/>
    <path d="M112.19 357.57C110.67 341.35 108.68 318.78 107.53 302.73L108.77 303.33C107.22 304.68 104.65 306.3 102.94 307.49C92.2499 314.76 72.3899 328.26 61.4999 335.62L61.3399 333.72C76.1299 340.46 97.3099 350.47 112.18 357.57H112.19ZM113.47 359.39C97.7999 352.43 75.7499 342.83 60.4399 335.71C59.6699 335.38 59.5799 334.25 60.2799 333.81C72.6699 325.47 92.5899 312.04 104.82 303.87C105.84 303.19 106.87 302.51 107.97 301.96C108.46 301.7 109.08 302.05 109.12 302.6C110.63 318.95 112.28 342.74 113.47 359.39Z" fill="#000C1F"/>
    <path d="M108.55 300.44L120.6 271.5C120.84 270.92 121.5 270.65 122.08 270.89C122.66 271.13 122.93 271.79 122.69 272.37C122.69 272.37 109.29 300.75 109.29 300.77C109.08 301.23 108.35 300.92 108.55 300.44Z" fill="#000C1F"/>
    <path d="M58.5803 335.78L27.1003 339.25C26.4503 339.32 25.8603 338.85 25.7803 338.2C25.7103 337.55 26.1803 336.96 26.8303 336.88C26.8303 336.88 58.4704 334.91 58.4904 334.9C59.0404 334.87 59.1304 335.71 58.5704 335.78H58.5803Z" fill="#000C1F"/>
    <path d="M113.22 359.62L132.05 386.11C132.52 386.78 132.37 387.7 131.7 388.18C131.01 388.68 130.02 388.48 129.58 387.75L112.55 360.08C112.28 359.66 112.94 359.2 113.23 359.63L113.22 359.62Z" fill="#000C1F"/>
    <path d="M159.309 327.35C146.589 308.72 133.929 290.05 121.259 271.29L122.179 272.58L54.9194 278.02L55.8394 277.38L26.5894 338.32L26.5294 337.62L67.5394 392.17L65.7794 391.33L132.919 388.62L132.109 389.18C141.149 368.51 150.209 347.92 159.319 327.35C159.319 327.35 150.199 347.92 159.319 327.35H159.309ZM161.709 327.13C152.459 348.11 143.149 369.07 133.829 389.94C133.679 390.27 133.359 390.48 133.019 390.5L65.9994 395.37C65.2894 395.42 64.6294 395.08 64.2494 394.53L25.3994 338.43C25.2494 338.22 25.2294 337.95 25.3294 337.73L53.7994 276.42C53.9694 276.04 54.3294 275.81 54.7194 275.78L121.859 268.96C135.209 288.22 148.459 307.7 161.719 327.13H161.709Z" fill="#000C1F"/>
    <path d="M1230.07 423.58C1250.63 438.82 1271 453.93 1291.36 469.27L1290.35 469.69L1300.31 393.09L1301.07 393.66C1277.42 403.76 1253.84 413.65 1230.07 423.57C1230.07 423.57 1253.84 413.65 1230.07 423.57V423.58ZM1228.78 423.42C1252.63 413.12 1276.67 402.78 1300.65 392.66C1301.02 392.49 1301.47 392.83 1301.41 393.23L1291.62 469.85C1291.57 470.32 1290.98 470.57 1290.61 470.27C1269.93 454.76 1249.27 439.02 1228.79 423.41L1228.78 423.42Z" fill="#000C1F"/>
    <path d="M1294.53 430.74C1284.63 423.43 1274.91 416.15 1265.16 408.63L1266.01 408.28C1265.98 409.88 1265.67 411.45 1265.49 413.03C1264.35 421.59 1262.22 437.49 1261.03 446.19L1260.01 445.42C1271.46 440.39 1282.88 435.61 1294.53 430.74ZM1296.01 430.92C1284.35 436.22 1272.46 441.62 1260.6 446.77C1260.09 447.01 1259.49 446.55 1259.58 446C1260.8 437.23 1262.97 421.47 1264.19 412.86C1264.44 411.27 1264.56 409.65 1264.98 408.08C1265.05 407.79 1265.34 407.62 1265.63 407.7C1275.85 415.2 1285.99 423.15 1296.02 430.93L1296.01 430.92Z" fill="#000C1F"/>
    <path d="M1264.47 407.1L1255.43 388.21C1255.25 387.83 1255.41 387.38 1255.79 387.2C1256.18 387.01 1256.65 387.2 1256.81 387.59L1264.96 406.88C1265.1 407.19 1264.61 407.42 1264.47 407.1Z" fill="#000C1F"/>
    <path d="M1259.8 447.71L1247.5 464.93C1247.24 465.29 1246.75 465.37 1246.39 465.12C1246.02 464.86 1245.95 464.33 1246.23 463.98L1259.33 447.37C1259.55 447.08 1260.02 447.42 1259.8 447.72V447.71Z" fill="#000C1F"/>
    <path d="M1296.01 431.14L1317.58 433.57C1318.12 433.63 1318.52 434.12 1318.45 434.67C1318.39 435.24 1317.85 435.64 1317.29 435.53L1295.93 431.68C1295.6 431.63 1295.67 431.1 1296.01 431.14Z" fill="#000C1F"/>
    <path d="M1300.48 393.82L1255.62 387.79L1256.67 387.91L1229.41 423.82L1229.5 423.08L1246.8 464.79L1246.42 464.51L1291.84 468.4L1290.64 468.9L1319.2 434.27L1319.12 434.92L1300.47 393.83L1300.48 393.82ZM1301.44 392.53L1320.28 434.39C1320.38 434.61 1320.34 434.86 1320.2 435.04L1292.77 470.57C1292.48 470.95 1292.01 471.12 1291.57 471.07L1246.33 465.41C1246.16 465.39 1246.01 465.28 1245.95 465.13L1228.12 423.64C1228.01 423.39 1228.05 423.1 1228.21 422.9L1254.73 386.44C1254.73 386.44 1254.75 386.42 1254.77 386.42L1255.79 386.55L1301.44 392.51V392.53Z" fill="#000C1F"/>
    <path d="M1446.77 541.44C1431.78 540.1 1419.32 521.7 1405.69 516.32C1397.98 513.19 1393.86 519.32 1390.91 525.68C1384.46 538.3 1379.16 554.99 1366.54 562.89C1358.34 568 1348.03 565.99 1339.87 561.93C1334.56 558.42 1329.66 554.41 1324.76 550.48C1322.31 548.52 1319.85 546.57 1317.31 544.78C1313.56 542.22 1309.58 539.6 1305 539.37C1295.66 539.49 1292.05 552.32 1289.71 559.7C1284.53 583.61 1265.45 594.57 1242.76 584.13C1237.01 581.38 1231.9 577.41 1227.64 572.7C1222 567.96 1215.19 561.55 1207.05 562.93C1203.65 563.76 1199.89 562.86 1197.74 559.94C1195.16 556.65 1195.18 551.51 1198.26 548.55C1201.88 545.1 1208.49 544.25 1213.29 545.05C1228.51 548.49 1238.52 561.56 1251.24 569.32C1255.08 571.64 1260.01 573.35 1263.83 570.3C1267.56 567.38 1269.35 562.43 1271.51 558.26C1277.8 545.81 1283.55 527.57 1298.09 522.81C1307.86 519.96 1318.94 523.93 1326.81 529.83C1334.74 535.77 1341.18 543.8 1350.61 547.41C1358.27 549.23 1363.35 545.42 1366.49 538.03C1370.21 529.96 1371.22 520.17 1376.43 512.5C1381.6 504.68 1389.63 498.16 1399.43 498.17C1416.63 498.5 1430.79 512.01 1443.1 522.54C1447.24 525.62 1452.37 523.93 1457.37 524.88C1463.26 525.59 1467.54 533.84 1463.05 538.45C1458.62 542.55 1452.16 541.61 1446.75 541.44H1446.77ZM1446.84 540.36C1450.44 540.61 1454.09 540.21 1457.45 539.4C1459.08 539.01 1460.68 538.37 1461.93 537.27C1465.81 533.57 1462.2 526.49 1457.18 526.05C1452.75 525.31 1447.17 526.74 1442.9 524.07C1438.07 520.25 1433.61 515.98 1428.6 512.38C1420.03 506.14 1410.34 500.07 1399.48 500.12C1391.38 500.17 1384.38 505.14 1379.74 511.52C1373.43 519.44 1372.67 529.68 1368.37 538.88C1366.8 542.31 1364.68 545.71 1361.37 547.78C1352.73 552.99 1343.77 546.31 1337.32 540.67C1331.68 535.78 1326.51 530.31 1319.83 526.94C1291.22 513.87 1283.28 537.59 1273.53 559.21C1270.48 565.93 1266.46 575.71 1257.38 574.4C1249.57 573 1243.63 567.26 1237.63 562.74C1228.28 555.39 1218.21 546.64 1205.71 547.1C1203.33 547.32 1200.96 548.01 1199.38 549.65C1196.06 552.88 1197.55 559.1 1201.81 560.74C1203.25 561.42 1205.26 561.24 1206.81 560.99C1208.78 560.72 1210.8 560.91 1212.72 561.37C1216.47 562.39 1219.77 564.65 1222.67 567.09C1224.63 568.72 1226.5 570.4 1228.39 572.06C1236.64 581.18 1248.73 587.69 1261.24 586.85C1274.2 586.17 1283.78 575.92 1286.95 563.82C1289.46 555.32 1291.84 543.66 1300.08 538.79C1309.17 534.49 1319.09 543.96 1325.95 548.99C1330.69 552.77 1336.31 557.17 1340.87 560.14C1361.65 569.76 1371.88 558.42 1380.45 540.29C1383 535.02 1385.39 529.62 1387.99 524.26C1391.54 516.37 1397.22 509.65 1406.75 513.59C1420.6 519.47 1431.74 538.39 1446.84 540.38V540.36Z" fill="#000C1F"/>
    <path d="M466.63 321.5C455.51 309.76 454.8 287.11 451.74 271.81C449.03 257.6 445.87 241 427.44 247.1C409.05 253.3 391.43 263.21 371.86 265.71C351.03 268.31 338.12 256.96 330.62 238.46C328.75 231.39 327.56 224.19 326.4 217.03C324.58 206.51 323.57 195.7 319.38 185.88C310.87 165.59 287.24 180.17 274.57 188.19C268.53 192.12 262.24 195.75 255.43 198.35C250.18 200.15 244.09 202.58 238.81 199.33C233.43 195.17 236.41 187.43 239.54 182.84C242.58 178.14 246.65 174.42 250.62 170.59C253.21 168.03 255.85 165.47 258.88 163.42C277.71 150 305.2 139.63 326.22 154.25C338.22 162.8 346.11 177.04 348.37 191.39C350.67 205.26 349.85 220.85 356.02 233.17C362.77 243.55 372.5 243.87 383.01 239.09C395.08 233.89 405.64 224.21 418.81 220.79C439.71 215.27 457.67 221.07 468.06 240.75C475.69 255.17 478.3 271.5 480.25 287.48C480.86 291.33 480.7 295.38 481.81 299.12C484.61 306.77 493.68 309.96 496.62 317.65C499.1 324.29 494.83 333.67 487.25 334.14C478.39 334.36 472.25 327.25 466.61 321.49L466.63 321.5ZM467.76 320.39C469.58 322.31 471.64 324 473.76 325.55C477.85 328.37 482.14 331.89 487.19 332.11C491.98 332.29 495.27 327.26 495.51 322.83C495.77 320.03 494.81 317.33 493.03 315.1C489.18 310.15 482.19 306.46 479.78 299.88C478.5 295.97 478.62 291.8 477.93 287.79C475.8 272.19 472.99 256.18 465.42 242.23C455.47 223.89 439.12 218.79 419.47 223.66C406.53 226.78 396.29 235.84 383.82 240.97C372.4 246.1 361.64 245.27 354.34 234.18C346.07 217.79 349.2 198.6 342.95 181.74C336.48 165.64 323.22 151.42 304.91 151.16C283.5 150.8 264.91 163.71 248.28 176.08C236.79 187.09 232.3 204.61 254.92 196.98C268.55 192.1 279.27 181.82 292.77 176.55C311.53 168.86 320.54 177.16 324.84 195.39C328.09 209.12 329.54 224.57 333 237.48C340.08 254.53 352.1 265.5 371.46 262.55C388.47 260.01 403.85 251.34 419.78 244.96C423.74 243.32 428.1 241.56 432.88 241.14C450.08 239.44 454.21 257.89 455.8 271.21C458.12 286.52 457.23 308.57 467.76 320.42V320.39Z" fill="#000C1F"/>
    <path d="M439.36 796.15C417.98 799.13 393.33 776.51 372.54 773.25C360.28 771.29 356.56 781.38 354.37 791.36C348.38 814.21 345.58 850.37 319.62 859.44C310.97 862.35 301.73 861.49 293.05 859.58C284.24 856.29 275.9 852.01 267.57 847.93C258.18 843.61 246.21 836.64 235.75 838.32C220.79 841.53 220.8 866.98 219.94 879.21C216.71 925.99 169.52 934.94 135.61 910.69C126.84 906.13 116.04 899.68 105.47 902.47L104.23 902.81C103.82 902.93 103.43 903.12 103.03 903.27C100.3 904.48 97.2705 905.28 94.2605 904.62C83.1205 902.1 80.1705 887.61 89.9905 881.23C102.42 872.81 115.29 875.32 128.43 880.26C135.42 882.9 142.02 886.26 148.57 889.52C155.12 892.75 161.6 896.15 168.33 898.34C171.68 899.41 175.13 900.17 178.39 899.93C189.97 898.97 191.42 885.12 193.82 876.06C195.46 868.95 196.93 861.76 198.7 854.61C204.14 832.2 213.21 812.03 239.6 812.34C242.32 812.4 245.25 812.64 247.94 812.98C260.95 814.52 272.16 822.1 283.4 828.04C289.51 831.35 297.19 834.4 303.44 835.3C311.52 835.45 318.14 831.91 321.15 824.19C326.02 811.77 324.47 798.36 327.09 785.05C327.75 781.12 329.37 776.99 331.04 773.34C333.9 767.11 337.75 761.24 343.05 756.71C360.84 741.6 386.23 749.52 405.04 758.24C412.35 761.62 419.42 765.43 426.41 769.39C430.9 772.31 436.25 771.47 441.24 770.32C446.42 769.1 452.7 767.83 457.38 771.32C462.06 774.56 465.13 781.47 461.74 786.66C456.66 793.94 447.31 794.64 439.36 796.13V796.15ZM439.11 794.59C444.34 793.81 449.44 792.07 454 789.83C456.22 788.75 458.3 787.33 459.73 785.36C462.51 781.62 460.49 776.09 457.13 773.29C455.02 771.4 452.21 770.63 449.35 770.81C441.91 771.32 432.74 775.99 425.41 771.19C405.94 760.76 381.08 747.11 358.49 752.06C346.88 754.74 338.55 764.08 333.88 774.68C327.34 788.02 329.5 802.91 326.29 817.46C325.14 822.88 323.18 828.42 319.1 832.43C315.01 836.57 308.97 837.94 303.38 837.81C295.92 836.62 288.95 833.51 282.41 829.92C271.24 823.88 260.5 816.39 247.68 814.9C246.89 814.84 244.43 814.55 243.64 814.48C242.6 814.4 240.63 814.39 239.59 814.33C224.65 814.24 214.32 821.16 208.11 834.69C200.59 851.34 199.23 870.01 194.45 887.58C188.75 908.8 172.83 905.46 156.7 898.02C146.74 893.52 137.03 888.15 126.91 884.28C116.24 880.24 104.38 877.71 93.5905 881.99C87.9605 884.19 84.4805 890.35 87.4205 896.09C89.4905 900.6 94.7805 903.05 99.5205 901.46L102.03 900.57C114.28 896.01 126.08 903.95 136.46 909.54C143.91 914.82 152.34 918.76 161.24 920.8C178.72 925.06 199.44 920.34 209.65 904.64C214.71 897.16 217.17 888.11 217.68 879.08C218.09 869.94 218.44 860.48 221.19 851.42C226.82 832.5 240.49 833.09 256.13 839.68C268.57 844.88 281.89 852.31 293.72 856.66C311.81 860.53 327.08 857.23 335.93 839.67C343.57 824.38 345.59 806.85 349.75 790.25C350.75 786.09 351.82 781.49 354.29 777.39C362.91 762.45 380.13 769.95 391.91 776.25C405.87 783.19 423.24 796.37 439.14 794.59H439.11Z" fill="#000C1F"/>
    <path d="M1264.09 709.17C1246.96 699.56 1230.05 688.8 1216.53 674.37C1202.45 659.01 1207.14 649.88 1227.93 653.55C1247.34 657.21 1265.49 665.66 1282.8 674.92C1299.93 684.49 1316.84 695.21 1330.4 709.57C1344.5 724.86 1339.8 733.86 1319.1 730.32C1299.66 726.75 1281.46 718.37 1264.1 709.17H1264.09ZM1264.61 708.23C1281.83 717.48 1299.92 725.92 1319.21 729.61C1325.48 730.66 1339.78 732.34 1337.69 722.2C1334.75 712.41 1323.25 703.14 1315.46 696.78C1292.68 678.94 1247.13 653.58 1218.1 653.5C1202.68 654.36 1210.66 666.93 1217.15 673.8C1230.68 688.04 1247.53 698.72 1264.6 708.23H1264.61Z" fill="#000C1F"/>
    <path d="M1266.59 703.89C1256.23 698.19 1246.11 692.02 1236.5 685.11C1229.37 679.85 1222.19 674.41 1216.58 667.47C1206.56 654.3 1222.77 656.27 1231.05 658.67C1248.18 663.37 1264.29 671.18 1279.87 679.58C1295.35 688.17 1310.61 697.51 1323.82 709.39C1327.63 712.92 1339.4 724.27 1328.75 726.21C1312.26 727.3 1281.59 711.88 1266.59 703.9V703.89ZM1267.01 703.13C1281.83 711.11 1312.36 726.65 1328.68 725.71C1338.72 724.11 1326.85 712.88 1323.51 709.72C1310.35 697.86 1295.12 688.52 1279.68 679.93C1264.1 671.6 1248.01 663.84 1230.92 659.19C1223.48 657.14 1207.29 654.58 1217.09 667.07C1222.69 673.91 1229.85 679.28 1236.96 684.47C1246.56 691.33 1256.67 697.46 1267.02 703.12L1267.01 703.13Z" fill="#000C1F"/>
    <path d="M548.756 672.329C535.456 672.879 521.866 672.209 509.256 667.479C501.716 664.789 494.466 658.069 502.536 650.969C507.816 646.579 514.506 644.599 520.946 642.879C538.076 638.769 555.906 637.919 573.346 640.359C579.886 641.419 586.706 642.729 592.356 646.529C597.416 649.919 597.736 655.289 593.126 659.309C582.136 668.379 562.676 671.409 548.766 672.329H548.756ZM548.526 667.849C561.226 667.069 574.386 665.759 586.116 660.569C605.716 650.929 583.716 643.819 573.036 642.379C555.986 639.979 538.246 640.969 521.576 645.249C511.526 647.759 490.366 656.899 510.496 664.239C522.636 668.199 535.846 668.349 548.536 667.849H548.526Z" fill="#000C1F"/>
    <path d="M1088 202.63C1078.61 211.85 1067.94 220.27 1055.56 225.08C1043.24 229.79 1037.41 224.28 1042.48 211.85C1047.54 199.65 1056.16 189.29 1065.3 179.92C1074.68 170.8 1085.06 162.22 1097.26 157.18C1109.51 152.19 1115.07 157.8 1110.37 170.14C1105.58 182.52 1097.21 193.21 1088 202.62V202.63ZM1085.8 200.43C1094.77 191.25 1103.75 181.47 1109.07 169.65C1113.92 158.26 1109.09 153.43 1097.58 158.01C1085.57 163.07 1075.5 171.86 1066.28 180.91C1057.26 190.14 1048.5 200.24 1043.47 212.24C1038.98 223.57 1043.57 228.46 1054.99 223.62C1066.8 218.33 1076.61 209.39 1085.8 200.44V200.43Z" fill="#000C1F"/>
    <path d="M54.7801 793.29C41.5801 797.58 27.7101 800.85 13.7201 799.77C-0.389946 798.53 -3.37995 790.29 7.43005 780.8C18.0301 771.75 31.07 766.17 44.09 761.66C57.19 757.39 70.94 753.98 84.84 754.76C98.94 755.75 101.71 763.88 91.2501 773.43C80.8301 782.79 67.8501 788.65 54.7801 793.28V793.29ZM53.8901 790.65C66.66 786.21 79.6201 780.88 90.0501 772.11C99.7001 763.61 97.6001 757.21 84.73 756.06C71.05 755.07 57.3901 758.49 44.4401 762.68C31.6301 767.24 18.7201 772.85 8.47005 781.93C-0.849946 790.5 1.07006 796.77 13.9101 797.68C27.5001 798.38 41.0401 794.82 53.8901 790.64V790.65Z" fill="#000C1F"/>
    <path d="M269.32 353.79C291.31 349.79 307.47 373.98 295.23 392.81C287.57 404.73 270.57 407.89 259.14 399.51C240.96 386.33 247.36 357.95 269.32 353.79ZM269.47 354.6C256.76 356.81 248.13 369.87 251.01 382.36C255.29 401.95 280.89 407.23 292.56 390.98C304.69 374.08 290.06 350.88 269.47 354.61V354.6Z" fill="#000C1F"/>
    <path d="M726.489 693.58C726.439 697.92 725.839 702.26 724.269 706.33C722.559 711.26 717.599 717.89 711.799 714.29C701.609 707 701.699 680.28 711.869 672.97C717.599 669.42 722.459 676 724.189 680.85C725.779 684.9 726.409 689.24 726.479 693.58H726.489ZM724.319 693.58C724.249 687.54 723.509 681.01 719.949 675.98C718.289 673.57 715.079 672.1 712.449 673.89C703.469 680.52 703.769 702.9 710.369 711.18C713.099 714.84 717.189 714.85 719.859 711.12C723.429 706.12 724.219 699.62 724.319 693.59V693.58Z" fill="#000C1F"/>
    <path d="M883.5 672.04C885.91 672 888.06 673.53 889.4 675.39C894.43 682.64 894.27 691.96 893.71 700.4C893.21 704.71 892.13 709.06 889.46 712.64C888.1 714.49 885.91 716.04 883.5 715.94C883.1 715.93 882.78 715.59 882.79 715.19C882.8 714.83 883.08 714.53 883.43 714.49C885.33 714.31 886.84 713.05 887.87 711.47C888.96 709.88 889.76 708.01 890.34 706.08C892.79 698.34 892.89 689.66 890.44 681.87C889.29 678.4 887.51 673.94 883.44 673.5C882.52 673.44 882.58 672.03 883.5 672.03V672.04Z" fill="#000C1F"/>
    <path d="M714.519 671.56L882.869 671.69C883.469 671.69 883.959 672.18 883.959 672.78C883.959 673.38 883.469 673.87 882.869 673.87L714.519 673.18C714.079 673.18 713.719 672.82 713.719 672.37C713.719 671.93 714.079 671.57 714.529 671.57L714.519 671.56Z" fill="#000C1F"/>
    <path d="M716.42 713.72L884.77 714.47C885.18 714.47 885.51 714.8 885.51 715.21C885.51 715.62 885.18 715.95 884.77 715.95L716.42 715.89C715.09 715.88 714.9 713.77 716.42 713.72Z" fill="#000C1F"/>
    <path d="M265.889 519.87L181.389 553.72C179.789 554.52 179.489 557.55 181.819 558.28C182.329 558.45 183.689 558.68 184.289 558.82C217.879 565.86 263.229 575.35 296.919 582.73C304.919 584.43 322.219 588.25 330.089 589.87C332.349 590.16 333.629 587.33 332.359 585.85C332.359 585.85 269.639 520.66 269.639 520.65C268.769 519.54 267.149 519.19 265.899 519.86L265.889 519.87ZM265.609 519.26C267.069 518.45 269.189 518.98 270.099 520.22L333.499 584.73C334.979 586.39 334.719 589.23 332.949 590.61C331.249 592.11 329.169 591.41 327.249 591L317.009 588.85C275.519 580.22 225.299 569.5 183.929 560.5L182.649 560.22C182.199 560.11 181.859 560.07 181.289 559.89C177.829 558.88 177.429 553.71 180.739 552.2C180.719 552.18 265.599 519.27 265.599 519.26H265.609Z" fill="#000C1F"/>
    <path d="M308.369 685.15C308.109 685.15 307.839 685.12 307.569 685.07L164.589 654.62C163.589 654.41 162.729 653.82 162.179 652.96C161.619 652.1 161.439 651.08 161.649 650.08L163.899 639.53C164.339 637.47 166.379 636.15 168.439 636.59L311.419 667.04C312.419 667.25 313.279 667.84 313.829 668.7C314.389 669.56 314.579 670.58 314.359 671.58L312.109 682.13C311.729 683.92 310.139 685.16 308.369 685.16V685.15ZM308.019 682.99C308.939 683.18 309.839 682.6 310.039 681.68L312.289 671.13C312.379 670.69 312.299 670.23 312.049 669.85C311.799 669.47 311.419 669.21 310.979 669.11L167.999 638.66C167.089 638.47 166.179 639.05 165.979 639.97L163.729 650.52C163.639 650.96 163.719 651.42 163.969 651.8C164.219 652.18 164.599 652.44 165.039 652.54L308.019 682.99Z" fill="#000C1F"/>
    <path d="M200.16 562.6L182.99 640.77L181.91 640.54L198.08 562.15L200.16 562.6Z" fill="#000C1F"/>
    <path d="M218.339 566.47L202.189 644.86L200.109 644.42L217.299 566.25L218.339 566.47Z" fill="#000C1F"/>
    <path d="M293.199 582.41L276.959 660.78L274.879 660.34L291.989 582.15L293.199 582.41Z" fill="#000C1F"/>
    <path d="M312.33 586.48L295 664.62L294.24 664.46L310.25 586.04L312.33 586.48Z" fill="#000C1F"/>
    <path d="M273.01 552.16C270.92 562.29 257.17 564.64 251.72 555.94C248.34 550.83 250 543.37 255.2 540.17C263.47 534.67 275.1 542.29 273.01 552.16ZM270.93 551.72C272.92 542.84 263.51 536.03 255.74 541.01C251.06 543.94 249.68 550.72 252.83 555.23C257.76 562.65 269.09 560.34 270.93 551.73V551.72Z" fill="#000C1F"/>
    <path d="M268.22 608.89C270 600.68 263.92 592.89 256.29 590.46C256.08 590.39 255.97 590.17 256.02 589.96C256.56 587.77 257.06 585.57 257.62 583.38L257.9 583.83C255.28 583.17 252.67 582.49 250.02 581.99L250.5 581.69C248.39 593.29 250.65 587.24 241.25 590.29C234.36 592.34 229.9 600.79 232.77 607.49C234.91 611.92 239.74 614.23 243.95 616.52C248.24 618.89 254.73 621.65 254.42 627.57C251.76 635.18 240.63 633.2 236.57 627.89C235.12 626.1 234.5 623.6 235.17 621.37L235.39 621.74C232.18 621.11 228.98 620.42 225.77 619.85L225.62 619.82C225.62 619.82 225.53 619.8 225.58 619.82C225.67 619.84 225.78 619.82 225.83 619.8C226.08 619.68 226 619.67 226 619.71C225.31 622.49 225.94 625.5 226.49 628.28C228.17 632.7 233.11 636.83 237.89 638.8C238.12 638.89 238.25 639.13 238.19 639.36L237.16 644.4L236.69 643.63L244.51 645.75C244.51 645.75 244.06 646.03 244.07 646.03C244.2 644.74 244.42 643.46 244.67 642.19L244.79 641.56L244.85 641.24C244.86 641.13 244.91 641.03 245.14 640.97C245.21 640.74 245.42 640.57 245.66 640.6C250.54 641.04 255.8 640.18 259.67 637.03C263.44 633.79 264.87 628.34 263.67 623.56C262.7 619.07 259.2 615.86 255.41 613.58C251.49 611.01 242.29 608.23 241.66 603.08C241.59 601.07 242.92 599.55 244.33 598.35C249.52 594.58 258.9 598.85 259.63 605.23C259.67 605.5 259.66 605.81 259.68 606.09V606.12C259.71 605.92 259.53 605.49 259.33 605.39C261.73 606.29 265.21 607.79 268.03 608.38C268.19 608.42 268.38 608.35 268.39 608.52C268.39 608.55 268.24 608.67 268.22 608.86V608.89ZM269.27 609.04C268.85 610.64 266.26 609.52 265.16 609.35C262.72 608.66 260.39 608.05 258.13 606.83C257.92 606.68 257.79 606.24 257.82 606C257.88 602.79 255.68 599.99 252.73 598.66C250.69 597.75 248.29 597.47 246.22 598.23C244.35 598.98 242.38 600.97 242.41 603.07C243.27 608.54 254.8 611.21 258.62 615.14C267.74 621.12 266.57 636.48 255.7 640.26C252.48 641.53 248.97 641.85 245.56 641.6L246.08 641.23C246.26 641.38 246.25 641.49 246.22 641.6C245.79 643.16 245.36 644.72 244.78 646.23C244.73 646.42 244.54 646.59 244.33 646.51L236.39 644.91C236.04 644.84 235.82 644.49 235.92 644.14L237.25 639.17L237.55 639.73C232.17 637.86 227.08 634.16 224.87 628.71C224.2 625.82 223.85 622.76 224.53 619.82C224.68 619.2 225.13 618.23 226.06 618.58C229.24 619.39 232.41 620.22 235.55 621.18C235.71 621.22 235.81 621.39 235.77 621.55C235.25 623.61 235.89 625.78 237.27 627.35C240.85 631.6 250.38 633.54 252.72 627.23L252.67 627.47C252.74 626.37 252.48 625.31 251.9 624.36C251.32 623.41 250.47 622.58 249.53 621.85C243.59 617.31 234.92 615.45 231.33 608.19C229.15 603.19 230.73 597.23 234.17 593.21C235.95 591.21 238.29 589.78 240.78 588.94C243.27 588.09 245.91 587.79 248.5 587.86L247.79 588.41C248.2 586.33 249.16 583.59 249.73 581.54C249.78 581.33 249.99 581.18 250.21 581.24C252.81 581.98 255.45 582.55 258.08 583.12C258.28 583.16 258.4 583.36 258.36 583.56C257.89 585.77 257.36 587.97 256.85 590.17L256.58 589.67C264.78 592.41 270.27 600.35 269.28 609.05L269.27 609.04Z" fill="#000C1F"/>
    <path d="M727.4 278.31C713.43 284.16 690.95 293.73 677.19 299.52L676.35 299.87C674.93 300.56 672.98 300.15 672.03 298.84C671.48 298.07 670.59 296.77 670.04 295.98C663.21 286.19 654.07 272.93 647.23 263.07C646.09 261.34 646.86 258.77 648.77 257.97L652.15 256.54L658.85 253.72C677.46 246.19 700.95 236.31 719.18 228.47C719.99 228.09 720.95 227.99 721.79 228.31C723.08 228.73 723.97 230.05 724.02 231.38C724.07 231.91 724.3 233.53 724.36 234.08C725.26 241.28 727.12 255.72 728.03 262.92L728.95 270.13L729.41 273.73L729.53 274.65C729.71 276.16 728.81 277.71 727.4 278.3V278.31ZM726.3 275.7C726.96 275.45 726.69 274.61 726.65 274.08C725.89 267.58 724.47 255.44 723.7 248.82C723.64 248.01 721.78 232.74 721.79 232.58L721.68 231.68C721.63 231.45 721.66 231.26 721.58 231.08C721.34 230.49 720.65 230.32 720.11 230.64C699.24 239.19 674.11 250.21 653.26 259.14L649.95 260.55C649.56 260.7 649.4 261.25 649.64 261.59L657.89 273.47L674.33 297.17C674.63 297.41 674.89 297.48 675.27 297.28L676.11 296.93L679.46 295.52C691.52 290.43 714.03 280.89 726.31 275.71L726.3 275.7Z" fill="#000C1F"/>
    <path d="M617.81 257.79C623.93 254.86 630.08 252.15 636.35 249.54C639.33 248.56 642 250.27 643.46 252.69C645.22 255.11 646.98 257.52 648.65 260C649.34 261.03 647.87 262.17 647.05 261.23C644.68 258.57 642.31 255.46 640.05 252.8C639.29 252.13 638.18 251.9 637.22 252.23L635.26 253.04C629.74 255.34 624.21 257.6 618.59 259.66C617.41 260.08 616.67 258.37 617.81 257.8V257.79Z" fill="#000C1F"/>
    <path d="M698.709 317.75C702.229 325.09 694.569 332.88 687.179 329.48C682.939 327.6 680.959 322.21 682.959 318.13C685.649 311.77 695.759 311.29 698.709 317.75ZM696.639 318.63C695.519 315.11 691.229 312.64 687.619 314.31C681.779 316.77 682.069 325.38 688.059 327.3C693.189 329.18 698.589 323.74 696.639 318.63Z" fill="#000C1F"/>
    <path d="M742.431 299.27C745.831 306.65 738.241 314.39 730.801 311.1C726.441 309.26 724.311 303.77 726.301 299.55C729.131 292.78 739.411 292.5 742.431 299.27ZM740.231 300.2C739.081 296.79 734.821 294.65 731.431 296.22C725.841 298.52 726.061 306.84 731.751 308.77C736.881 310.74 742.281 305.33 740.231 300.2Z" fill="#000C1F"/>
    <path d="M737.24 291.16C719.3 298.14 698.17 306.67 680.3 313.93C677.58 315.19 674.37 315.84 671.52 314.54C666.66 312.28 664.46 304.9 668.51 300.91C669.54 299.72 674.76 295.88 675.61 298.55C675.87 299.33 675.4 300.17 674.6 300.37C673.12 300.83 671.53 301.7 670.43 302.77C666.8 306.14 670.01 313.2 674.67 313.59C676.37 313.82 678.16 313.22 679.69 312.5L684.83 310.35C691.39 307.62 708.9 300.22 715.66 297.36C722.51 294.47 729.32 291.48 736.15 288.54C737.86 287.84 739.01 290.4 737.23 291.16H737.24Z" fill="#000C1F"/>
    <path d="M712.76 233.51L719.16 279.6L718.26 279.74L710.66 233.83L712.76 233.51Z" fill="#000C1F"/>
    <path d="M696.74 238.4L708.24 284.53L707.17 284.81L694.68 238.94L696.74 238.4Z" fill="#000C1F"/>
    <path d="M661.601 254.1L686.081 293.43L685.341 293.91L659.811 255.24L661.601 254.1Z" fill="#000C1F"/>
    <path d="M653.301 268.69L720.631 241.48C720.741 241.44 720.861 241.48 720.901 241.59C720.941 241.69 720.901 241.81 720.791 241.86L654.121 270.65C652.841 271.18 651.981 269.25 653.301 268.69Z" fill="#000C1F"/>
    <path d="M660.29 279.69L721.63 254.48C721.86 254.38 722.05 254.76 721.79 254.86L661.13 281.65C659.85 282.19 658.98 280.27 660.3 279.69H660.29Z" fill="#000C1F"/>
    <path d="M668.291 289.69L722.631 267.48C722.741 267.44 722.861 267.48 722.901 267.59C722.941 267.69 722.901 267.81 722.791 267.86L669.131 291.65C667.841 292.2 666.981 290.26 668.301 289.69H668.291Z" fill="#000C1F"/>
    <path d="M678.68 247.23L697.22 289.44L696.19 289.9L676.74 248.11L678.68 247.23Z" fill="#000C1F"/>
</svg>
