<svg viewBox="0 0 232 150" fill="none" xmlns="http://www.w3.org/2000/svg">
    <g clip-path="url(#clip0_1418_1668)">
        <path d="M54.9695 126.988C53.824 123.687 53.1512 119.764 52.9438 115.356" stroke="#000C1F" stroke-linecap="round" stroke-linejoin="round"/>
        <path d="M78.0434 39.7212C92.8392 17.4996 110.328 4.87938 121.687 10.027C136.394 16.6904 135.257 50.6121 119.147 85.7943C103.037 120.976 78.055 144.095 63.3476 137.432C61.5569 136.621 60.0025 135.405 58.6801 133.835" stroke="#000C1F" stroke-linecap="round" stroke-linejoin="round"/>
        <path d="M59.3818 78.1284C61.1755 72.7399 63.3447 67.2173 65.888 61.663C68.5415 55.8663 71.4371 50.3986 74.4865 45.3361" stroke="#000C1F" stroke-linecap="round" stroke-linejoin="round"/>
        <path d="M101.462 73.4423C101.752 72.7832 102.05 72.1226 102.351 71.462C103.626 68.6798 104.961 65.9856 106.346 63.3923" stroke="#000C1F" stroke-linecap="round" stroke-linejoin="round"/>
        <path d="M92.858 100.041C93.8469 95.0813 95.2838 89.8111 97.163 84.3794" stroke="#000C1F" stroke-linecap="round" stroke-linejoin="round"/>
        <path d="M123.195 39.2495C132.315 29.5558 141.413 24.9101 147.859 27.8308C159.536 33.1212 158.093 61.2317 144.636 90.6188C131.18 120.006 110.806 139.539 99.1292 134.25C92.407 131.204 90.0334 120.594 91.7966 106.532" stroke="#000C1F" stroke-linecap="round" stroke-linejoin="round"/>
        <path d="M148.087 65.7534C158.159 51.3274 169.75 43.3082 177.381 46.7654C187.658 51.4212 186.863 75.1226 175.607 99.7053C175.47 100.002 175.334 100.298 175.196 100.592" stroke="#000C1F" stroke-linecap="round" stroke-linejoin="round"/>
        <path d="M130.947 104.965C131.044 104.502 131.147 104.037 131.253 103.569C132.742 97.0313 135.127 89.9756 138.391 82.8462C139.003 81.5092 139.634 80.1967 140.28 78.9116" stroke="#000C1F" stroke-linecap="round" stroke-linejoin="round"/>
        <path d="M160.766 123.464C152.08 133.582 142.976 138.666 136.618 135.786C130.722 133.115 128.47 124.175 129.747 112.399" stroke="#000C1F" stroke-linecap="round" stroke-linejoin="round"/>
        <path d="M66.7131 99.2684C64.3206 108.428 54.4504 114.772 45.24 112.392C36.0296 110.012 30.7415 99.7501 33.1354 90.59C35.5279 81.4299 44.9341 75.9333 54.143 78.3131C63.352 80.6929 69.1056 90.1083 66.7131 99.2684Z" stroke="#000C1F" stroke-linecap="round" stroke-linejoin="round"/>
        <path d="M55.3697 78.6477C66.3216 81.2698 71.8504 91.0876 69.5391 100.08C67.4511 108.208 59.0527 116.84 45.7214 112.637" stroke="#000C1F" stroke-linecap="round" stroke-linejoin="round"/>
        <path d="M102.847 55.9428C99.0089 50.2818 100.272 41.9423 105.965 38.1245C111.656 34.3068 119.761 36.3606 123.601 42.0231C127.439 47.6842 125.937 55.3702 120.246 59.188C114.554 63.0058 106.687 61.6053 102.848 55.9443L102.847 55.9428Z" stroke="#000C1F" stroke-linecap="round" stroke-linejoin="round"/>
        <path d="M119.477 59.6856C112.822 64.3255 104.844 62.612 101.056 57.075C97.6343 52.0716 96.9499 43.4308 105.601 38.2644" stroke="#000C1F" stroke-linecap="round" stroke-linejoin="round"/>
        <path d="M174.957 118.793C179.29 114.043 179.243 106.124 174.47 101.814C169.695 97.5044 161.884 98.3294 157.551 103.077C153.219 107.827 153.575 115.17 158.35 119.481C163.125 123.79 170.626 123.542 174.958 118.793H174.957Z" stroke="#000C1F" stroke-linecap="round" stroke-linejoin="round"/>
        <path d="M158.994 120.048C164.553 125.251 172.2 124.726 176.468 120.085C180.325 115.892 182.13 107.952 174.787 101.994" stroke="#000C1F" stroke-linecap="round" stroke-linejoin="round"/>
        <path d="M172.646 109.761C173.204 107.485 171.992 105.476 169.925 104.5L170.51 102.824L168.494 102.128L167.878 103.895C165.899 103.636 163.918 104.301 163.168 106.328C161.472 110.746 168.635 111.319 168.159 114.189C167.097 116.407 162.71 114.463 163.583 112.128C162.259 111.649 161.268 111.327 161.083 111.27C160.922 111.218 160.64 112.259 160.83 113.699C161.215 115.031 162.33 116.135 163.698 116.833L163.254 118.106L165.27 118.801L165.716 117.522C167.078 117.779 168.467 117.635 169.527 116.955C171.441 115.633 171.586 112.654 169.76 111.153C168.709 109.842 164.091 108.294 166.472 106.51C167.758 105.547 170.327 106.911 170.102 108.754C170.097 108.798 172.579 110.039 172.647 109.76L172.646 109.761Z" stroke="#000C1F" stroke-linecap="round" stroke-linejoin="round"/>
        <path d="M91.0606 74.469C93.3588 70.6052 94.1664 66.8518 92.8644 66.0856C91.5625 65.3194 88.644 67.8306 86.3458 71.6944C84.0477 75.5583 83.2401 79.3117 84.542 80.0779C85.8439 80.844 88.7624 78.3329 91.0606 74.469Z" stroke="#000C1F" stroke-linecap="round" stroke-linejoin="round"/>
        <path d="M85.3615 80.2414L108.301 85.5332C108.301 85.5332 109.459 85.3241 108.374 84.0188C107.29 82.7135 93.7889 66.675 93.7889 66.675" stroke="#000C1F" stroke-linecap="round" stroke-linejoin="round"/>
        <path d="M139.435 72.0678C138.128 73.989 138.127 75.9303 138.627 76.6183C140.985 79.8678 145.013 75.5481 145.693 74.775C146.314 74.0697 150.124 67.9847 146.003 64.6746C141.882 61.3645 136.79 65.4 134.927 67.3068C133.064 69.2135 132.861 71.8298 134.973 73.1611C137.086 74.4938 140.24 71.4707 141.635 69.7082C143.029 67.9472 141.189 66.988 141.189 66.988C141.189 66.988 140.502 66.4356 139.199 68.3222C137.894 70.2087 135.99 71.0063 135.808 70.7568C135.627 70.5072 137.358 67.3645 140.412 66.3116C140.412 66.3116 144.176 64.8246 145.248 67.5318C145.65 68.5472 145.648 69.5193 145.431 70.4034C145.068 71.8746 144.104 73.0976 143.402 73.8534C142.871 74.426 141.7 75.4558 140.62 75.2813" stroke="#000C1F" stroke-linecap="round" stroke-linejoin="round"/>
        <path d="M145.444 68.1158C145.444 68.1158 143.686 68.2457 141.595 69.7384" stroke="#000C1F" stroke-linecap="round" stroke-linejoin="round"/>
        <path d="M140.908 75.303C140.908 75.303 140.557 73.6198 142.942 71.9063C145.328 70.1929 145.431 70.4063 145.431 70.4063" stroke="#000C1F" stroke-linecap="round" stroke-linejoin="round"/>
        <path d="M147.855 68.0323C147.855 68.0323 150.142 67.8779 151.647 70.2159C153.152 72.5539 152.795 76.8 150.772 79.0125C148.75 81.225 146.057 82.7784 144.069 81.3548C144.069 81.3548 141.888 79.1813 144.12 76.314" stroke="#000C1F" stroke-linecap="round" stroke-linejoin="round"/>
        <path d="M147.69 70.4337C147.69 70.4337 149.289 70.389 150.091 72.2827C150.893 74.1765 149.288 77.2284 148.374 78.075C147.461 78.9217 146.044 80.1274 145.465 79.5938" stroke="#000C1F" stroke-linecap="round" stroke-linejoin="round"/>
        <path d="M145.982 74.3842C145.982 74.3842 148.006 72.8308 150.091 72.2827" stroke="#000C1F" stroke-linecap="round" stroke-linejoin="round"/>
        <path d="M150.101 74.8732C150.101 74.8732 148.381 75.2424 147.41 76.1395C146.438 77.0366 145.168 78.7977 145.805 79.7237" stroke="#000C1F" stroke-linecap="round" stroke-linejoin="round"/>
        <path d="M152.437 72.3116C152.437 72.3116 154.995 72.1039 156.607 75.1644C158.22 78.2236 155.917 82.1567 154.683 83.6135C153.448 85.0702 150.902 87.088 148.824 85.5404C146.746 83.9928 148.534 80.9467 148.534 80.9467" stroke="#000C1F" stroke-linecap="round" stroke-linejoin="round"/>
        <path d="M152.544 74.5111C152.544 74.5111 154.587 75.3231 154.776 76.8981C154.964 78.4731 154.502 81.0895 152.623 82.5318C152.623 82.5318 151.084 83.9178 149.823 83.4938" stroke="#000C1F" stroke-linecap="round" stroke-linejoin="round"/>
        <path d="M154.689 78.9072C154.689 78.9072 152.934 79.3601 152.021 80.2053C151.107 81.0519 149.692 82.3947 150.21 83.5688" stroke="#000C1F" stroke-linecap="round" stroke-linejoin="round"/>
        <path d="M154.574 76.4048C154.574 76.4048 152.214 77.0639 151.573 77.886" stroke="#000C1F" stroke-linecap="round" stroke-linejoin="round"/>
        <path d="M157.186 76.4683C157.186 76.4683 160.445 76.8159 161.344 80.1606C162.243 83.5053 160.561 85.6615 160.561 85.6615C160.561 85.6615 159.539 87.3 158.684 86.7014C157.828 86.1043 158.31 85.1885 158.861 83.8428C159.412 82.4971 159.465 80.9611 158.727 79.9601C157.991 78.9591 157.022 78.851 157.022 78.851" stroke="#000C1F" stroke-linecap="round" stroke-linejoin="round"/>
        <path d="M21.4238 48.6448L22.8506 65.2097L36.6705 55.7683L21.4238 48.6448Z" stroke="#000C1F" stroke-linecap="round" stroke-linejoin="round"/>
        <path d="M29.77 60.2899L29.1175 52.2404L22.2401 56.863L29.77 60.2899Z" stroke="#000C1F" stroke-linecap="round" stroke-linejoin="round"/>
        <path d="M29.2045 51.9418L31.0474 47.8096" stroke="#000C1F" stroke-linecap="round" stroke-linejoin="round"/>
        <path d="M21.9008 56.9539L17.326 57.3462" stroke="#000C1F" stroke-linecap="round" stroke-linejoin="round"/>
        <path d="M29.7787 60.4861L32.3785 64.3919" stroke="#000C1F" stroke-linecap="round" stroke-linejoin="round"/>
        <path d="M36.685 55.7841L31.104 47.6409L21.36 48.5236L17.1738 57.3404L22.9637 65.3192L32.6903 64.7726L36.685 55.7841Z" stroke="#000C1F" stroke-linecap="round" stroke-linejoin="round"/>
        <path d="M191.678 69.6692L200.603 76.3428L202.036 65.2947L191.678 69.6692Z" stroke="#000C1F" stroke-linecap="round" stroke-linejoin="round"/>
        <path d="M201.225 70.725L196.906 67.4625L196.155 72.9274L201.225 70.725Z" stroke="#000C1F" stroke-linecap="round" stroke-linejoin="round"/>
        <path d="M196.794 67.2866L195.548 64.5332" stroke="#000C1F" stroke-linecap="round" stroke-linejoin="round"/>
        <path d="M196.049 73.1351L194.207 75.5741" stroke="#000C1F" stroke-linecap="round" stroke-linejoin="round"/>
        <path d="M201.327 70.8086L204.44 71.2615" stroke="#000C1F" stroke-linecap="round" stroke-linejoin="round"/>
        <path d="M202.05 65.2933L195.488 64.4293L191.589 69.6476L194.136 75.6476L200.709 76.3356L204.769 71.276L202.05 65.2933Z" stroke="#000C1F" stroke-linecap="round" stroke-linejoin="round"/>
        <path d="M223.197 86.6006C220.278 86.4246 217.035 80.0943 215.051 83.964C213.389 87.2049 212.255 91.5909 207.775 89.5097C204.388 87.3145 201.817 83.3251 200.187 89.7361C198.962 94.3256 194.23 94.1857 191.475 91.1395C190.56 90.3664 189.609 89.4015 188.291 89.6554C186.901 89.915 186.297 87.8741 187.859 87.4371C191.796 86.3381 195.353 94.1424 197.478 90.0866C199.191 86.8198 200.09 82.4337 204.762 84.4703C206.438 85.2751 207.469 86.9842 209.207 87.6534C212.107 88.3457 211.92 84.2063 213.136 82.5707C215.911 78.4746 219.835 81.5784 222.514 83.964C223.435 84.7746 224.888 83.8054 225.561 84.9506C225.598 85.0097 226.605 86.8068 223.2 86.6006H223.197Z" stroke="#000C1F" stroke-linecap="round" stroke-linejoin="round"/>
        <path d="M81.155 54.877C78.1608 51.8236 80.9129 41.7664 74.9229 44.0236C69.9059 45.913 64.3263 49.5635 61.5249 42.9087C60.0242 37.2029 61.1871 30.3491 53.0598 35.713C47.1801 39.4933 46.5 36.1601 49.7698 33.4371C53.9342 29.9683 60.1924 27.688 63.2461 34.4813C64.2683 36.9981 63.6941 39.8669 64.9179 42.2986C67.3815 45.8957 71.2805 41.2169 74.2211 40.6327C81.2942 38.9077 82.4803 46.125 83.0226 51.3433C83.2184 53.126 85.7573 53.4996 85.3528 55.402C85.3354 55.5015 84.6466 58.4409 81.1536 54.8784L81.155 54.877Z" stroke="#000C1F" stroke-linecap="round" stroke-linejoin="round"/>
        <path d="M77.0994 123.303C72.8654 123.975 66.1925 115.94 64.5917 122.109C63.2505 127.277 63.0315 133.914 55.9497 132.353C50.3962 130.284 45.4401 125.386 45.1588 135.082C44.8732 142.04 38.0553 143.341 33.1354 139.852C31.5767 139.036 29.9077 137.954 28.101 138.736C26.1943 139.548 24.6761 136.816 26.7714 135.698C32.0566 132.877 39.6474 142.924 41.3917 136.444C42.7968 131.224 42.6793 124.659 50.0207 126.095C52.6785 126.715 54.7027 128.837 57.4055 129.245C61.7802 129.317 60.1866 123.452 61.4017 120.724C64.0639 113.981 70.6759 117.18 75.2739 119.748C76.85 120.616 78.6219 118.768 79.9516 120.195C80.0226 120.267 82.041 122.521 77.0994 123.306V123.303Z" stroke="#000C1F" stroke-linecap="round" stroke-linejoin="round"/>
        <path d="M207.355 113.421C208.089 112.085 204.523 108.742 199.392 105.955C194.261 103.167 189.506 101.99 188.773 103.326C188.039 104.662 191.604 108.005 196.736 110.793C201.867 113.58 206.622 114.757 207.355 113.421Z" stroke="#000C1F" stroke-linecap="round" stroke-linejoin="round"/>
        <path d="M93.3206 105.205C97.1098 105.01 100.131 103.888 100.069 102.701C100.007 101.513 96.8854 100.709 93.0963 100.904C89.3071 101.1 86.2856 102.221 86.3476 103.409C86.4095 104.597 89.5315 105.401 93.3206 105.205Z" stroke="#000C1F" stroke-linecap="round" stroke-linejoin="round"/>
        <path d="M171.011 37.6529C173.694 34.9842 175.183 32.1391 174.338 31.2981C173.493 30.4572 170.632 31.9389 167.949 34.6076C165.266 37.2763 163.777 40.1214 164.622 40.9624C165.468 41.8033 168.328 40.3216 171.011 37.6529Z" stroke="#000C1F" stroke-linecap="round" stroke-linejoin="round"/>
        <path d="M21.2977 122.807C25.0842 121.534 27.8272 119.541 27.4242 118.354C27.0212 117.168 23.6249 117.238 19.8384 118.511C16.0518 119.783 13.3089 121.777 13.7119 122.963C14.1149 124.149 17.5112 124.079 21.2977 122.807Z" stroke="#000C1F" stroke-linecap="round" stroke-linejoin="round"/>
        <path d="M53.1164 66.6318C55.0648 66.6318 56.6443 65.0607 56.6443 63.1227C56.6443 61.1846 55.0648 59.6135 53.1164 59.6135C51.168 59.6135 49.5886 61.1846 49.5886 63.1227C49.5886 65.0607 51.168 66.6318 53.1164 66.6318Z" stroke="#000C1F" stroke-linecap="round" stroke-linejoin="round"/>
        <path d="M117.108 111.661C117.929 111.661 118.594 110.301 118.594 108.623C118.594 106.946 117.929 105.586 117.108 105.586C116.287 105.586 115.622 106.946 115.622 108.623C115.622 110.301 116.287 111.661 117.108 111.661Z" stroke="#000C1F" stroke-linecap="round" stroke-linejoin="round"/>
        <path d="M141.518 105.62C142.339 105.62 142.913 107.003 142.913 108.681C142.913 110.358 142.339 111.741 141.518 111.741" stroke="#000C1F" stroke-linecap="round" stroke-linejoin="round"/>
        <path d="M117.016 105.562L141.427 105.62" stroke="#000C1F" stroke-linecap="round" stroke-linejoin="round"/>
        <path d="M117.29 111.684L141.701 111.743" stroke="#000C1F" stroke-linecap="round" stroke-linejoin="round"/>
        <path d="M51.9448 83.5241L39.6691 88.34C39.2631 88.5463 39.3428 89.1448 39.7894 89.24L61.2088 93.7775C61.654 93.8713 61.973 93.3578 61.6873 93.0044L52.5436 83.6511C52.4001 83.4737 52.1507 83.4203 51.9462 83.5241H51.9448Z" stroke="#000C1F" stroke-linecap="round" stroke-linejoin="round"/>
        <path d="M58.5384 104.942L37.8056 100.551C37.5894 100.505 37.3769 100.642 37.3308 100.857L37.005 102.379C36.959 102.594 37.0969 102.806 37.3131 102.851L58.0459 107.242C58.2621 107.288 58.4746 107.151 58.5207 106.936L58.8465 105.414C58.8925 105.199 58.7546 104.987 58.5384 104.942Z" stroke="#000C1F" stroke-linecap="round" stroke-linejoin="round"/>
        <path d="M42.2834 89.6986L39.8663 100.989" stroke="#000C1F" stroke-linecap="round" stroke-linejoin="round"/>
        <path d="M44.9949 90.2727L42.5778 101.563" stroke="#000C1F" stroke-linecap="round" stroke-linejoin="round"/>
        <path d="M55.8366 92.5688L53.4194 103.861" stroke="#000C1F" stroke-linecap="round" stroke-linejoin="round"/>
        <path d="M58.5481 93.1429L56.1309 104.435" stroke="#000C1F" stroke-linecap="round" stroke-linejoin="round"/>
        <path d="M51.3097 89.4304C52.1777 89.4304 52.8815 88.7304 52.8815 87.8669C52.8815 87.0035 52.1777 86.3035 51.3097 86.3035C50.4416 86.3035 49.7379 87.0035 49.7379 87.8669C49.7379 88.7304 50.4416 89.4304 51.3097 89.4304Z" stroke="#000C1F" stroke-linecap="round" stroke-linejoin="round"/>
        <path d="M52.8765 96.4846C52.8783 96.4715 52.8796 96.4585 52.8804 96.4456C53.0534 95.0732 52.3057 93.9573 51.1769 93.3945L51.3047 92.854C51.3353 92.7248 51.3132 92.5888 51.2434 92.4759C51.1735 92.363 51.0617 92.2825 50.9324 92.2522L49.7898 91.9839C49.5215 91.9209 49.2528 92.087 49.1891 92.3551L49.0402 92.9819C47.9379 93.068 46.8487 93.6409 46.5139 94.9395C46.3076 95.7063 46.4508 96.3298 46.8191 96.828C47.1624 97.2925 47.6757 97.6107 48.126 97.8593C48.2716 97.9397 48.409 98.0124 48.5385 98.0808C48.8453 98.2429 49.1072 98.3813 49.3258 98.5428C49.5727 98.7252 49.6571 98.8617 49.6721 98.9882C49.6156 99.0913 49.5238 99.1577 49.3885 99.1952C49.2099 99.2447 48.9671 99.2356 48.7182 99.1535C48.4698 99.0716 48.264 98.9329 48.143 98.7808C48.0308 98.6398 47.9959 98.4987 48.0365 98.3432C48.0702 98.2141 48.051 98.077 47.983 97.9622C47.9151 97.8474 47.8041 97.7645 47.6747 97.732C46.9158 97.541 46.3477 97.4198 46.2376 97.397L46.2366 97.3968C45.9164 97.331 45.732 97.5639 45.6924 97.6206C45.636 97.7013 45.6071 97.7855 45.5915 97.8385C45.5574 97.9546 45.5393 98.0932 45.5322 98.235C45.5175 98.526 45.545 98.9143 45.6483 99.3469C45.6542 99.3714 45.6618 99.3953 45.6713 99.4187C45.9709 100.158 46.5903 100.715 47.3 101.073L47.2243 101.393C47.1937 101.522 47.2157 101.658 47.2856 101.771C47.3554 101.884 47.4673 101.965 47.5965 101.995L48.7391 102.263C49.0074 102.326 49.2761 102.16 49.3398 101.892L49.4178 101.564C50.1256 101.553 50.835 101.362 51.3909 100.918L51.4038 100.908C52.617 99.8718 52.5177 97.8661 51.1961 96.9494C50.9677 96.735 50.6304 96.5532 50.3445 96.4045C50.2698 96.3657 50.1961 96.3279 50.1235 96.2908C49.869 96.1603 49.6296 96.0377 49.4202 95.9058C49.1321 95.7244 49.0287 95.6001 49.0068 95.5438C49.0058 95.5413 49.0053 95.5411 49.0052 95.5408C49.0052 95.5406 49.0057 95.5402 49.007 95.5364C49.0137 95.5168 49.0436 95.4532 49.1561 95.3494C49.2747 95.2402 49.5662 95.1831 49.9187 95.3426C50.2575 95.496 50.4358 95.7549 50.4313 95.998L50.4313 95.998V96.0072C50.4313 96.1525 50.4934 96.2529 50.5184 96.2895C50.5483 96.3335 50.5788 96.363 50.5943 96.3772C50.626 96.4063 50.6548 96.4251 50.6653 96.4318C50.6903 96.4478 50.7128 96.4593 50.7228 96.4643C50.7467 96.4764 50.7729 96.488 50.7953 96.4976C50.8428 96.518 50.9053 96.5431 50.9754 96.57C51.1166 96.6243 51.3035 96.6919 51.4917 96.7539C51.6763 96.8146 51.8776 96.8751 52.0418 96.9099C52.1183 96.9261 52.2181 96.9439 52.314 96.9436C52.3571 96.9435 52.4471 96.9405 52.5449 96.9019C52.6559 96.8581 52.8414 96.7353 52.8765 96.4846Z" stroke="#000C1F" stroke-linecap="round" stroke-linejoin="round"/>
        <path d="M118.804 48.5395L111.383 51.6592C111.248 51.7154 111.092 51.6707 111.008 51.551L107.442 46.4366C107.33 46.2765 107.394 46.0529 107.576 45.9779L117.791 41.6842C117.981 41.6048 118.194 41.7274 118.219 41.9308L118.991 48.2193C119.009 48.3563 118.932 48.4861 118.804 48.5409V48.5395Z" stroke="#000C1F" stroke-linecap="round" stroke-linejoin="round"/>
        <path d="M103.052 45.9015L105.696 44.7895C105.956 44.6799 106.256 44.7592 106.429 44.9813L107.351 46.1741" stroke="#000C1F" stroke-linecap="round" stroke-linejoin="round"/>
        <path d="M113.538 56.0309C114.159 56.0309 114.662 55.5304 114.662 54.9131C114.662 54.2957 114.159 53.7953 113.538 53.7953C112.917 53.7953 112.414 54.2957 112.414 54.9131C112.414 55.5304 112.917 56.0309 113.538 56.0309Z" stroke="#000C1F" stroke-linecap="round" stroke-linejoin="round"/>
        <path d="M119.869 53.3697C120.489 53.3697 120.992 52.8693 120.992 52.2519C120.992 51.6346 120.489 51.1342 119.869 51.1342C119.248 51.1342 118.745 51.6346 118.745 52.2519C118.745 52.8693 119.248 53.3697 119.869 53.3697Z" stroke="#000C1F" stroke-linecap="round" stroke-linejoin="round"/>
        <path d="M120.233 50.3914L111.801 53.8486C111.801 53.8486 110.767 54.2885 110.316 53.2269C109.835 52.0947 111.171 51.7125 111.171 51.7125" stroke="#000C1F" stroke-linecap="round" stroke-linejoin="round"/>
        <path d="M116.609 42.2886L117.624 48.9232" stroke="#000C1F" stroke-linecap="round" stroke-linejoin="round"/>
        <path d="M114.289 43.0096L116.029 49.6443" stroke="#000C1F" stroke-linecap="round" stroke-linejoin="round"/>
        <path d="M109.214 45.3174L112.839 50.9424" stroke="#000C1F" stroke-linecap="round" stroke-linejoin="round"/>
        <path d="M108.199 47.4808L117.914 43.4424" stroke="#000C1F" stroke-linecap="round" stroke-linejoin="round"/>
        <path d="M109.214 49.0674L118.059 45.3174" stroke="#000C1F" stroke-linecap="round" stroke-linejoin="round"/>
        <path d="M110.374 50.5097L118.204 47.1924" stroke="#000C1F" stroke-linecap="round" stroke-linejoin="round"/>
        <path d="M111.679 44.3077L114.434 50.3654" stroke="#000C1F" stroke-linecap="round" stroke-linejoin="round"/>
    </g>
    <defs>
        <clipPath id="clip0_1418_1668">
            <rect width="232" height="150" fill="white"/>
        </clipPath>
    </defs>
</svg>
