<svg viewBox="0 0 427 267" fill="none" xmlns="http://www.w3.org/2000/svg">
    <path d="M84.939 236.976C82.648 230.373 81.3024 222.527 80.8877 213.712" stroke="#000C1F" stroke-linecap="round" stroke-linejoin="round"/>
    <path d="M131.086 62.4423C160.678 17.999 195.655 -7.24136 218.374 3.05383C247.788 16.3808 245.515 84.224 213.293 154.588C181.074 224.953 131.11 271.19 101.695 257.863C98.1135 256.242 95.0047 253.811 92.3599 250.669" stroke="#000C1F" stroke-linecap="round" stroke-linejoin="round"/>
    <path d="M93.7637 139.257C97.351 128.48 101.689 117.435 106.776 106.326C112.083 94.7327 117.874 83.7971 123.973 73.6721" stroke="#000C1F" stroke-linecap="round" stroke-linejoin="round"/>
    <path d="M177.924 129.885C178.504 128.566 179.099 127.245 179.702 125.924C182.251 120.36 184.922 114.971 187.692 109.785" stroke="#000C1F" stroke-linecap="round" stroke-linejoin="round"/>
    <path d="M160.716 183.083C162.694 173.163 165.568 162.622 169.326 151.759" stroke="#000C1F" stroke-linecap="round" stroke-linejoin="round"/>
    <path d="M221.39 61.4991C239.631 42.1116 257.825 32.8202 270.719 38.6616C294.072 49.2423 291.187 105.463 264.272 164.238C237.36 223.012 196.612 262.078 173.258 251.5C159.814 245.408 155.067 224.188 158.593 196.063" stroke="#000C1F" stroke-linecap="round" stroke-linejoin="round"/>
    <path d="M271.174 114.507C291.318 85.6548 314.5 69.6163 329.763 76.5307C350.315 85.8422 348.726 133.245 326.213 182.411C325.941 183.005 325.668 183.596 325.393 184.185" stroke="#000C1F" stroke-linecap="round" stroke-linejoin="round"/>
    <path d="M236.893 192.931C237.087 192.005 237.293 191.073 237.505 190.138C240.483 177.062 245.254 162.951 251.782 148.692C253.005 146.018 254.267 143.393 255.56 140.823" stroke="#000C1F" stroke-linecap="round" stroke-linejoin="round"/>
    <path d="M296.532 229.929C279.161 250.164 260.952 260.333 248.235 254.572C236.444 249.23 231.94 231.351 234.495 207.798" stroke="#000C1F" stroke-linecap="round" stroke-linejoin="round"/>
    <path d="M108.426 181.536C103.641 199.857 83.9008 212.543 65.48 207.784C47.0592 203.024 36.4829 182.5 41.2708 164.18C46.0558 145.86 64.8681 134.866 83.286 139.626C101.704 144.386 113.211 163.216 108.426 181.536Z" stroke="#000C1F" stroke-linecap="round" stroke-linejoin="round"/>
    <path d="M85.7395 140.295C107.643 145.539 118.701 165.175 114.078 183.161C109.902 199.415 93.1055 216.68 66.4429 208.274" stroke="#000C1F" stroke-linecap="round" stroke-linejoin="round"/>
    <path d="M180.694 94.8855C173.018 83.5634 175.544 66.8845 186.929 59.249C198.312 51.6134 214.523 55.7211 222.202 67.0461C229.878 78.3682 226.874 93.7403 215.491 101.376C204.109 109.011 188.373 106.211 180.697 94.8884L180.694 94.8855Z" stroke="#000C1F" stroke-linecap="round" stroke-linejoin="round"/>
    <path d="M213.954 102.371C200.643 111.651 184.687 108.224 177.113 97.15C170.269 87.1432 168.9 69.8615 186.201 59.5288" stroke="#000C1F" stroke-linecap="round" stroke-linejoin="round"/>
    <path d="M324.914 220.586C333.579 211.086 333.486 195.247 323.939 186.628C314.39 178.009 298.767 179.659 290.102 189.155C281.437 198.654 282.15 213.339 291.7 221.961C301.25 230.581 316.251 230.085 324.917 220.586H324.914Z" stroke="#000C1F" stroke-linecap="round" stroke-linejoin="round"/>
    <path d="M292.988 223.095C304.106 233.503 319.401 232.453 327.936 223.17C335.65 214.785 339.26 198.905 324.575 186.988" stroke="#000C1F" stroke-linecap="round" stroke-linejoin="round"/>
    <path d="M320.291 202.522C321.407 197.97 318.983 193.952 314.851 191.999L316.019 188.647L311.988 187.257L310.756 190.79C306.797 190.271 302.836 191.601 301.337 195.657C297.944 204.492 312.27 205.637 311.318 211.378C309.193 215.814 300.42 211.926 302.166 207.256C299.518 206.298 297.535 205.655 297.166 205.539C296.844 205.436 296.279 207.518 296.659 210.397C297.43 213.062 299.66 215.269 302.395 216.665L301.508 219.212L305.539 220.603L306.432 218.044C309.155 218.558 311.933 218.269 314.053 216.911C317.881 214.265 318.171 208.309 314.52 205.306C312.417 202.684 303.181 199.588 307.943 196.02C310.515 194.093 315.654 196.822 315.204 200.509C315.193 200.595 320.158 203.079 320.294 202.519L320.291 202.522Z" stroke="#000C1F" stroke-linecap="round" stroke-linejoin="round"/>
    <path d="M157.121 131.938C161.717 124.21 163.333 116.703 160.729 115.171C158.125 113.639 152.288 118.661 147.692 126.389C143.095 134.116 141.48 141.623 144.084 143.156C146.688 144.688 152.525 139.666 157.121 131.938Z" stroke="#000C1F" stroke-linecap="round" stroke-linejoin="round"/>
    <path d="M145.723 143.483L191.601 154.066C191.601 154.066 193.918 153.648 191.749 151.037C189.579 148.427 162.577 116.35 162.577 116.35" stroke="#000C1F" stroke-linecap="round" stroke-linejoin="round"/>
    <path d="M253.87 127.136C251.257 130.978 251.254 134.861 252.254 136.236C256.97 142.736 265.026 134.096 266.386 132.55C267.627 131.139 275.249 118.969 267.007 112.349C258.765 105.729 248.58 113.8 244.854 117.613C241.127 121.427 240.721 126.66 244.946 129.322C249.172 131.987 255.479 125.941 258.269 122.416C261.059 118.894 257.379 116.976 257.379 116.976C257.379 116.976 256.004 115.871 253.397 119.644C250.787 123.417 246.979 125.012 246.617 124.513C246.254 124.014 249.717 117.729 255.824 115.623C255.824 115.623 263.353 112.649 265.496 118.063C266.299 120.094 266.296 122.038 265.861 123.807C265.136 126.749 263.208 129.195 261.804 130.707C260.743 131.852 258.4 133.911 256.239 133.562" stroke="#000C1F" stroke-linecap="round" stroke-linejoin="round"/>
    <path d="M265.888 119.232C265.888 119.232 262.373 119.491 258.191 122.477" stroke="#000C1F" stroke-linecap="round" stroke-linejoin="round"/>
    <path d="M256.816 133.606C256.816 133.606 256.114 130.239 260.885 126.813C265.655 123.386 265.861 123.813 265.861 123.813" stroke="#000C1F" stroke-linecap="round" stroke-linejoin="round"/>
    <path d="M270.71 119.064C270.71 119.064 275.283 118.756 278.294 123.432C281.304 128.108 280.59 136.6 276.545 141.025C272.499 145.45 267.114 148.557 263.138 145.71C263.138 145.71 258.777 141.362 263.24 135.628" stroke="#000C1F" stroke-linecap="round" stroke-linejoin="round"/>
    <path d="M270.379 123.867C270.379 123.867 273.578 123.778 275.182 127.565C276.785 131.353 273.575 137.457 271.748 139.15C269.921 140.843 267.088 143.255 265.931 142.187" stroke="#000C1F" stroke-linecap="round" stroke-linejoin="round"/>
    <path d="M266.963 131.768C266.963 131.768 271.012 128.661 275.182 127.565" stroke="#000C1F" stroke-linecap="round" stroke-linejoin="round"/>
    <path d="M275.202 132.746C275.202 132.746 271.763 133.485 269.82 135.279C267.877 137.073 265.336 140.595 266.61 142.447" stroke="#000C1F" stroke-linecap="round" stroke-linejoin="round"/>
    <path d="M279.874 127.623C279.874 127.623 284.989 127.208 288.214 133.329C291.439 139.447 286.834 147.313 284.366 150.227C281.895 153.14 276.803 157.176 272.647 154.081C268.491 150.986 272.067 144.893 272.067 144.893" stroke="#000C1F" stroke-linecap="round" stroke-linejoin="round"/>
    <path d="M280.089 132.022C280.089 132.022 284.175 133.646 284.552 136.796C284.929 139.946 284.004 145.179 280.245 148.063C280.245 148.063 277.169 150.836 274.646 149.987" stroke="#000C1F" stroke-linecap="round" stroke-linejoin="round"/>
    <path d="M284.378 140.814C284.378 140.814 280.869 141.72 279.042 143.41C277.215 145.104 274.384 147.789 275.42 150.137" stroke="#000C1F" stroke-linecap="round" stroke-linejoin="round"/>
    <path d="M284.149 135.81C284.149 135.81 279.427 137.128 278.146 138.772" stroke="#000C1F" stroke-linecap="round" stroke-linejoin="round"/>
    <path d="M289.372 135.937C289.372 135.937 295.891 136.632 297.689 143.321C299.487 150.011 296.123 154.323 296.123 154.323C296.123 154.323 294.078 157.6 292.367 156.403C290.656 155.209 291.619 153.377 292.721 150.686C293.823 147.994 293.93 144.922 292.454 142.92C290.981 140.918 289.044 140.702 289.044 140.702" stroke="#000C1F" stroke-linecap="round" stroke-linejoin="round"/>
    <path d="M17.8477 80.2894L20.7013 113.419L48.3412 94.5365L17.8477 80.2894Z" stroke="#000C1F" stroke-linecap="round" stroke-linejoin="round"/>
    <path d="M34.5402 103.58L33.2352 87.4808L19.4805 96.726L34.5402 103.58Z" stroke="#000C1F" stroke-linecap="round" stroke-linejoin="round"/>
    <path d="M33.4092 86.8837L37.0951 78.6193" stroke="#000C1F" stroke-linecap="round" stroke-linejoin="round"/>
    <path d="M18.8018 96.9077L9.65234 97.6923" stroke="#000C1F" stroke-linecap="round" stroke-linejoin="round"/>
    <path d="M34.5571 103.972L39.7568 111.784" stroke="#000C1F" stroke-linecap="round" stroke-linejoin="round"/>
    <path d="M48.3701 94.5683L37.208 78.2817L17.72 80.0471L9.34766 97.6808L20.9274 113.638L40.3806 112.545L48.3701 94.5683Z" stroke="#000C1F" stroke-linecap="round" stroke-linejoin="round"/>
    <path d="M358.356 122.338L376.206 135.686L379.071 113.589L358.356 122.338Z" stroke="#000C1F" stroke-linecap="round" stroke-linejoin="round"/>
    <path d="M377.45 124.45L368.811 117.925L367.309 128.855L377.45 124.45Z" stroke="#000C1F" stroke-linecap="round" stroke-linejoin="round"/>
    <path d="M368.588 117.573L366.097 112.066" stroke="#000C1F" stroke-linecap="round" stroke-linejoin="round"/>
    <path d="M367.097 129.27L363.414 134.148" stroke="#000C1F" stroke-linecap="round" stroke-linejoin="round"/>
    <path d="M377.653 124.617L383.88 125.523" stroke="#000C1F" stroke-linecap="round" stroke-linejoin="round"/>
    <path d="M379.1 113.587L365.975 111.859L358.177 122.295L363.272 134.295L376.418 135.671L384.538 125.552L379.1 113.587Z" stroke="#000C1F" stroke-linecap="round" stroke-linejoin="round"/>
    <path d="M421.394 156.201C415.556 155.849 409.069 143.188 405.102 150.928C401.778 157.41 399.511 166.182 390.55 162.019C383.775 157.629 378.633 149.65 375.374 162.472C372.923 171.651 363.461 171.371 357.951 165.279C356.121 163.733 354.218 161.803 351.582 162.311C348.801 162.83 347.595 158.748 350.718 157.874C358.591 155.676 365.705 171.285 369.957 163.173C373.382 156.639 375.18 147.867 384.523 151.94C387.876 153.55 389.938 156.968 393.415 158.307C399.215 159.691 398.841 151.413 401.271 148.141C406.821 139.949 414.669 146.157 420.028 150.928C421.869 152.549 424.775 150.611 426.121 152.901C426.196 153.019 428.209 156.613 421.4 156.201H421.394Z" stroke="#000C1F" stroke-linecap="round" stroke-linejoin="round"/>
    <path d="M137.31 92.7538C131.321 86.6471 136.826 66.5327 124.846 71.0471C114.812 74.8259 103.653 82.1269 98.0498 68.8173C95.0483 57.4057 97.3741 43.698 81.1196 54.4259C69.3601 61.9865 68 55.3201 74.5395 49.874C82.8683 42.9365 95.3847 38.3759 101.492 51.9625C103.537 56.9961 102.388 62.7336 104.836 67.5971C109.763 74.7913 117.561 65.4336 123.442 64.2653C137.588 60.8153 139.961 75.25 141.045 85.6865C141.437 89.2519 146.515 89.999 145.705 93.8038C145.671 94.0028 144.293 99.8817 137.307 92.7567L137.31 92.7538Z" stroke="#000C1F" stroke-linecap="round" stroke-linejoin="round"/>
    <path d="M129.199 229.606C120.731 230.95 107.385 214.88 104.183 227.217C101.501 237.553 101.063 250.828 86.8993 247.707C75.7923 243.567 65.8801 233.771 65.3175 253.164C64.7462 267.08 51.1104 269.682 41.2707 262.704C38.1532 261.071 34.8153 258.908 31.2019 260.471C27.3884 262.095 24.3521 256.632 28.5426 254.396C39.1131 248.754 54.2946 268.848 57.7833 255.888C60.5934 245.448 60.3585 232.317 75.0412 235.19C80.3569 236.431 84.4053 240.674 89.8109 241.49C98.5602 241.635 95.3731 229.903 97.8033 224.448C103.128 210.963 116.352 217.361 125.548 222.495C128.7 224.232 132.244 220.537 134.903 223.389C135.045 223.534 139.082 228.042 129.199 229.612V229.606Z" stroke="#000C1F" stroke-linecap="round" stroke-linejoin="round"/>
    <path d="M389.71 209.842C391.177 207.17 384.047 200.484 373.784 194.909C363.521 189.334 354.012 186.981 352.545 189.653C351.078 192.325 358.209 199.01 368.472 204.585C378.734 210.16 388.243 212.514 389.71 209.842Z" stroke="#000C1F" stroke-linecap="round" stroke-linejoin="round"/>
    <path d="M161.641 193.411C169.219 193.019 175.262 190.777 175.139 188.401C175.015 186.026 168.771 184.418 161.192 184.809C153.614 185.2 147.571 187.442 147.695 189.818C147.819 192.193 154.063 193.802 161.641 193.411Z" stroke="#000C1F" stroke-linecap="round" stroke-linejoin="round"/>
    <path d="M317.022 58.3057C322.387 52.9682 325.367 47.278 323.676 45.5961C321.985 43.9142 316.264 46.8776 310.898 52.215C305.533 57.5524 302.553 63.2427 304.244 64.9246C305.935 66.6065 311.656 63.6431 317.022 58.3057Z" stroke="#000C1F" stroke-linecap="round" stroke-linejoin="round"/>
    <path d="M17.5953 228.613C25.1684 226.068 30.6542 222.081 29.8482 219.709C29.0422 217.336 22.2497 217.476 14.6766 220.021C7.10354 222.567 1.61773 226.554 2.4237 228.926C3.22968 231.299 10.0222 231.159 17.5953 228.613Z" stroke="#000C1F" stroke-linecap="round" stroke-linejoin="round"/>
    <path d="M81.2325 116.263C85.1292 116.263 88.2882 113.121 88.2882 109.245C88.2882 105.369 85.1292 102.227 81.2325 102.227C77.3357 102.227 74.1768 105.369 74.1768 109.245C74.1768 113.121 77.3357 116.263 81.2325 116.263Z" stroke="#000C1F" stroke-linecap="round" stroke-linejoin="round"/>
    <path d="M209.216 206.321C210.857 206.321 212.188 203.601 212.188 200.246C212.188 196.891 210.857 194.171 209.216 194.171C207.574 194.171 206.243 196.891 206.243 200.246C206.243 203.601 207.574 206.321 209.216 206.321Z" stroke="#000C1F" stroke-linecap="round" stroke-linejoin="round"/>
    <path d="M258.037 194.24C259.679 194.24 260.827 197.007 260.827 200.362C260.827 203.716 259.679 206.483 258.037 206.483" stroke="#000C1F" stroke-linecap="round" stroke-linejoin="round"/>
    <path d="M209.033 194.125L257.855 194.24" stroke="#000C1F" stroke-linecap="round" stroke-linejoin="round"/>
    <path d="M209.581 206.367L258.403 206.486" stroke="#000C1F" stroke-linecap="round" stroke-linejoin="round"/>
    <path d="M78.8893 150.048L54.3379 159.68C53.5259 160.092 53.6854 161.289 54.5786 161.48L97.4174 170.555C98.3077 170.742 98.9457 169.715 98.3744 169.009L80.087 150.302C79.7999 149.947 79.3011 149.84 78.8922 150.048H78.8893Z" stroke="#000C1F" stroke-linecap="round" stroke-linejoin="round"/>
    <path d="M92.0766 192.883L50.611 184.101C50.1786 184.009 49.7535 184.284 49.6614 184.714L49.0098 187.758C48.9177 188.188 49.1936 188.611 49.626 188.702L91.0915 197.484C91.5239 197.576 91.949 197.302 92.0411 196.872L92.6927 193.827C92.7848 193.397 92.5089 192.974 92.0766 192.883Z" stroke="#000C1F" stroke-linecap="round" stroke-linejoin="round"/>
    <path d="M59.5667 162.397L54.7324 184.978" stroke="#000C1F" stroke-linecap="round" stroke-linejoin="round"/>
    <path d="M64.9896 163.545L60.1553 186.126" stroke="#000C1F" stroke-linecap="round" stroke-linejoin="round"/>
    <path d="M86.6732 168.137L81.8389 190.721" stroke="#000C1F" stroke-linecap="round" stroke-linejoin="round"/>
    <path d="M92.096 169.286L87.2617 191.869" stroke="#000C1F" stroke-linecap="round" stroke-linejoin="round"/>
    <path d="M77.6192 161.861C79.3553 161.861 80.7628 160.461 80.7628 158.734C80.7628 157.007 79.3553 155.607 77.6192 155.607C75.883 155.607 74.4756 157.007 74.4756 158.734C74.4756 160.461 75.883 161.861 77.6192 161.861Z" stroke="#000C1F" stroke-linecap="round" stroke-linejoin="round"/>
    <path d="M80.2573 175.9C80.2598 175.882 80.2613 175.865 80.2619 175.847C80.6038 173.2 79.078 171.056 76.7731 170.071L77.1225 168.593C77.1531 168.464 77.131 168.328 77.0612 168.215C76.9913 168.102 76.8795 168.021 76.7502 167.991L74.465 167.455C74.1967 167.392 73.928 167.558 73.8643 167.826L73.4801 169.443C71.2886 169.501 69.1439 170.546 68.5109 173.006C68.135 174.401 68.398 175.49 69.0399 176.359C69.6568 177.193 70.5974 177.786 71.4933 178.281C71.7609 178.429 72.0225 178.567 72.2749 178.7C72.9055 179.034 73.4792 179.337 73.9484 179.683C74.5598 180.135 74.854 180.563 74.849 181.077C74.6754 181.498 74.3445 181.752 73.9102 181.872C73.4375 182.003 72.849 181.97 72.2794 181.782C71.7104 181.594 71.2091 181.268 70.8944 180.873C70.5885 180.488 70.4617 180.047 70.5889 179.56C70.6226 179.431 70.6034 179.294 70.5354 179.179C70.4675 179.064 70.3565 178.981 70.2271 178.949C68.7171 178.569 67.5878 178.328 67.3733 178.283L67.3724 178.283C67.0407 178.215 66.8449 178.455 66.7942 178.528C66.7268 178.624 66.6874 178.733 66.6624 178.818C66.6093 178.998 66.5765 179.233 66.5633 179.495C66.5365 180.027 66.5865 180.756 66.7826 181.578C66.7885 181.602 66.7961 181.626 66.8056 181.649C67.3951 183.103 68.6869 184.201 70.1791 184.869L69.9347 185.901C69.9041 186.03 69.9262 186.166 69.996 186.279C70.0658 186.392 70.1777 186.473 70.307 186.503L72.5922 187.04C72.8604 187.103 73.1291 186.937 73.1929 186.669L73.4409 185.626C74.9047 185.674 76.3673 185.325 77.4697 184.446L77.4826 184.435C79.6684 182.569 79.4797 178.925 77.076 177.288C76.6828 176.908 76.0586 176.565 75.4579 176.253C75.3158 176.179 75.1731 176.106 75.0309 176.033C74.5183 175.77 74.0131 175.511 73.5736 175.235C72.9933 174.869 72.6554 174.547 72.5473 174.269C72.5021 174.153 72.4959 174.041 72.5407 173.911C72.5896 173.768 72.7101 173.574 72.9728 173.331C73.4161 172.923 74.2409 172.866 75.0432 173.23C75.8317 173.586 76.3761 174.251 76.3622 175.005L76.3622 175.005V175.014C76.3622 175.16 76.4244 175.26 76.4495 175.297C76.4796 175.342 76.5104 175.371 76.5262 175.386C76.5586 175.416 76.5884 175.435 76.6003 175.443C76.6279 175.46 76.6545 175.474 76.6697 175.482C76.7041 175.499 76.7457 175.518 76.7877 175.536C76.8742 175.573 76.9926 175.62 77.1298 175.673C77.4053 175.779 77.7714 175.911 78.1395 176.033C78.5039 176.153 78.8858 176.267 79.1869 176.331C79.3319 176.361 79.4893 176.387 79.6264 176.387C79.69 176.387 79.7964 176.382 79.906 176.339C80.0286 176.29 80.221 176.16 80.2573 175.9Z" stroke="#000C1F" stroke-linecap="round" stroke-linejoin="round"/>
    <path d="M212.608 80.0788L197.766 86.3182C197.497 86.4307 197.183 86.3413 197.015 86.1019L189.884 75.873C189.661 75.5528 189.788 75.1057 190.151 74.9557L210.581 66.3682C210.961 66.2096 211.388 66.4548 211.437 66.8615L212.983 79.4384C213.017 79.7125 212.864 79.9721 212.608 80.0817V80.0788Z" stroke="#000C1F" stroke-linecap="round" stroke-linejoin="round"/>
    <path d="M181.103 74.8029L186.393 72.5789C186.912 72.3596 187.512 72.5183 187.857 72.9625L189.702 75.3481" stroke="#000C1F" stroke-linecap="round" stroke-linejoin="round"/>
    <path d="M202.076 95.0615C203.317 95.0615 204.323 94.0606 204.323 92.8259C204.323 91.5912 203.317 90.5903 202.076 90.5903C200.834 90.5903 199.828 91.5912 199.828 92.8259C199.828 94.0606 200.834 95.0615 202.076 95.0615Z" stroke="#000C1F" stroke-linecap="round" stroke-linejoin="round"/>
    <path d="M214.737 89.7393C215.979 89.7393 216.985 88.7384 216.985 87.5038C216.985 86.2691 215.979 85.2682 214.737 85.2682C213.496 85.2682 212.49 86.2691 212.49 87.5038C212.49 88.7384 213.496 89.7393 214.737 89.7393Z" stroke="#000C1F" stroke-linecap="round" stroke-linejoin="round"/>
    <path d="M215.465 83.7827L198.602 90.6971C198.602 90.6971 196.534 91.5769 195.632 89.4539C194.669 87.1894 197.343 86.425 197.343 86.425" stroke="#000C1F" stroke-linecap="round" stroke-linejoin="round"/>
    <path d="M208.218 67.5769L210.248 80.8461" stroke="#000C1F" stroke-linecap="round" stroke-linejoin="round"/>
    <path d="M203.578 69.0193L207.058 82.2885" stroke="#000C1F" stroke-linecap="round" stroke-linejoin="round"/>
    <path d="M193.428 73.6346L200.678 84.8846" stroke="#000C1F" stroke-linecap="round" stroke-linejoin="round"/>
    <path d="M191.398 77.9616L210.828 69.8846" stroke="#000C1F" stroke-linecap="round" stroke-linejoin="round"/>
    <path d="M193.428 81.1346L211.118 73.6346" stroke="#000C1F" stroke-linecap="round" stroke-linejoin="round"/>
    <path d="M195.748 84.0193L211.408 77.3846" stroke="#000C1F" stroke-linecap="round" stroke-linejoin="round"/>
    <path d="M198.358 71.6154L203.868 83.7307" stroke="#000C1F" stroke-linecap="round" stroke-linejoin="round"/>
</svg>
