<svg width="256" height="256" viewBox="0 0 256 256" fill="none" xmlns="http://www.w3.org/2000/svg">
<g clip-path="url(#clip0_1128_1415)">
<path d="M124.86 201.82C96.2301 202.6 67.5101 202.7 38.8701 202.76L34.0901 202.77C21.6201 203.07 10.0701 193.22 8.41006 180.86C7.95006 178.09 8.18006 173.82 8.14006 170.97C8.21006 127.5 8.63006 80.82 8.88006 37.2C8.87006 33.99 8.87006 30.49 9.83006 27.33C12.4801 17.46 21.7101 9.9 31.8901 9.29C34.7301 9.16 38.6901 9.25 41.5401 9.24C47.5001 9.27 64.0101 9.32 70.2001 9.35C107.26 9.86 148.01 8.91 184.86 8.83C190.54 8.95 199 8.12 204.38 10.61C214.03 14.32 220.58 24.4 220.18 34.71C220.26 66.05 220.04 108.33 219.94 139.81C219.84 141.72 217.09 141.75 217.01 139.81C216.78 112.23 216.85 71.73 216.76 44.26C216.61 41.3 217.07 33.11 216.46 30.23C214.84 19.79 205 11.73 194.42 12.17C154.24 12.17 110.58 11.18 70.2101 11.64C64.0001 11.68 47.5801 11.71 41.5501 11.75C38.9701 11.83 34.6101 11.67 32.1001 11.86C23.0301 12.49 14.9301 19.31 12.6901 28.09C11.8401 31.09 11.9401 34.03 11.9701 37.18C12.2801 80.84 12.6001 127.43 12.7101 170.95C12.7601 172.72 12.6301 177.25 12.8401 179.07C13.7701 189.62 23.4901 198.27 34.0801 197.91C64.3101 197.97 94.6301 198.04 124.85 198.86C126.68 198.91 126.77 201.7 124.85 201.79L124.86 201.82Z" fill="#000C1F"/>
<path d="M252.381 196.74C252.441 199.98 249.431 202.77 246.241 202.55C235.701 202.39 230.501 215.24 238.051 222.53C240.641 225.09 240.19 229.01 237.4 231.26C236.64 232.06 232.211 236.35 231.34 237.24C229.73 238.87 227.101 239.3 225.061 238.28C224.471 238.03 223.741 237.42 223.351 236.99C221.911 235.5 220.121 234.45 218.161 233.84C214.231 232.7 209.701 233.68 206.721 236.56C204.431 238.63 203.051 241.68 202.911 244.76C202.871 245.35 202.931 245.98 202.801 246.62C202.401 249.15 199.941 251.09 197.411 250.97H196.561H194.861L188.051 250.92C185.511 250.93 183.21 248.88 182.931 246.36C182.931 243.89 182.631 241.49 181.411 239.34C178.411 233.65 170.741 231.33 165.101 234.45C163.571 235.18 162.481 236.4 161.191 237.49C159.481 238.74 157.01 238.75 155.291 237.51C154.42 236.89 153.491 235.77 152.711 235.04L147.901 230.22C146.911 229.25 146.351 227.84 146.401 226.45C146.411 225.1 147.101 223.7 148.071 222.81C149.611 221.32 150.671 219.46 151.281 217.45C152.441 213.41 151.391 208.77 148.441 205.75C146.311 203.43 143.231 202.04 140.091 201.92C139.501 201.89 138.901 201.95 138.271 201.84C135.331 201.35 133.651 198.68 133.941 195.78V194.08V187.27C133.871 184.75 135.881 182.41 138.391 182.1C140.861 182.06 143.251 181.74 145.391 180.52C153.041 176.02 153.521 166.35 147.131 160.5C145.331 157.99 146.061 154.81 148.371 152.89L149.571 151.68L154.361 146.84C156.181 144.93 159.411 144.69 161.501 146.32C163.261 148.02 165.131 149.47 167.481 150.1C173.461 151.89 180.251 148.22 181.951 142.22C182.811 139.95 181.921 137.31 183.361 135.23C184.361 133.62 186.321 132.62 188.201 132.66H189.051H190.751L197.561 132.62C200.331 132.56 202.881 134.78 203.221 137.53C203.271 139.96 203.551 142.26 204.751 144.35C208.231 150.77 217.351 152.25 222.62 147.18C223.62 146.13 224.75 145.2 226.23 144.93C228.171 144.49 230.331 145.18 231.691 146.61L232.29 147.21L233.501 148.41L238.331 153.2C240.411 155.21 240.641 158.72 238.861 160.99C237.191 162.73 235.761 164.5 235.131 166.81C233.381 172.57 236.911 179.13 242.691 180.83C243.741 181.15 244.841 181.33 245.941 181.35C247.241 181.29 248.651 181.58 249.741 182.33C251.751 183.61 252.581 185.95 252.391 188.26V189.96L252.37 196.77L252.381 196.74ZM248.971 196.74C248.931 194.54 249.011 188.94 248.891 186.83C248.691 185.65 247.58 184.78 246.37 184.85H245.941C244.491 184.85 243.04 184.62 241.65 184.2C230.86 180.98 227.561 167.04 235.601 159.25C236.701 158.33 236.8 156.7 235.811 155.71L231.021 150.88C230.651 150.46 229.591 149.47 229.221 149.07C228.431 148.16 227.001 147.98 226.021 148.68C218.931 156.15 207.01 154.9 201.951 145.88C200.76 143.65 200.1 141.07 200.15 138.58C200.15 138.02 200.151 137.88 200.001 137.43C199.651 136.41 198.641 135.67 197.561 135.68C196.311 135.64 190.181 135.68 189.061 135.64C188.691 135.63 187.941 135.62 187.621 135.68C185.731 136.04 185.271 137.63 185.371 139.36C185.211 143.13 183.521 146.83 180.721 149.36C174.921 154.98 165.221 154.32 159.921 148.4C158.831 147.54 157.15 147.64 156.181 148.65L151.351 153.44C150.951 153.82 149.931 154.86 149.541 155.24C148.771 155.95 148.441 156.98 148.641 158C148.811 158.96 149.501 159.54 150.161 160.24C151.001 161.15 151.701 162.18 152.281 163.27C155.921 169.93 153.151 178.93 146.461 182.43C144.301 183.58 141.821 184.21 139.401 184.16C138.451 184.12 137.691 184.38 137.011 185C136.381 185.58 136.021 186.41 136.031 187.28V194.08C136.031 194.96 135.961 196.44 136.061 197.3C136.261 198.57 137.341 199.64 138.621 199.84C140.331 199.92 142.141 199.97 143.791 200.53C151 202.62 155.371 210.85 153.161 217.99C152.431 220.58 150.831 222.85 148.961 224.7C148.001 225.92 148.121 227.82 149.251 228.9C150.891 230.48 154.751 234.5 156.401 235.94C158.161 237.13 159.961 236.34 161.231 234.84C163.901 232.35 167.581 230.94 171.241 231.09C179.191 231.19 185.371 238.28 185.021 246.1C185.201 247.58 186.581 248.8 188.081 248.77L194.881 248.73C195.451 248.73 196.881 248.71 197.431 248.72C198.51 248.76 199.511 248.24 200.101 247.36C200.661 246.55 200.581 245.65 200.601 244.69C200.721 240.98 202.34 237.33 205.061 234.8C210.44 229.4 220.021 229.6 225.26 235.11C225.881 235.77 226.491 236.07 227.351 236.12C228.121 236.14 228.87 235.85 229.4 235.3L234.18 230.47L235.381 229.26L235.98 228.66C236.97 227.76 237.161 226.17 236.361 225.1C228.871 218.27 230.051 206.16 238.941 201.14C241.161 199.92 243.751 199.24 246.251 199.26C247.731 199.38 249.011 198.23 248.991 196.78L248.971 196.74Z" fill="black"/>
<path d="M192.831 211.67C178.641 212 168.561 197.44 174.251 184.29C179.631 171.4 196.961 168.2 206.521 178.29C218.341 190.5 209.851 211.31 192.831 211.67ZM192.831 208.27C204.571 208.61 213.041 196.47 208.261 185.59C203.781 174.93 189.411 172.32 181.541 180.71C171.861 190.73 178.841 207.97 192.831 208.27Z" fill="black"/>
<path d="M115.4 65.04C109.57 65.04 104.83 60.34 104.83 54.56C104.83 48.78 109.57 44.08 115.4 44.08C121.23 44.08 125.97 48.78 125.97 54.56C125.97 60.34 121.23 65.04 115.4 65.04ZM115.4 46.49C110.9 46.49 107.25 50.11 107.25 54.56C107.25 59.01 110.91 62.63 115.4 62.63C119.89 62.63 123.55 59.01 123.55 54.56C123.55 50.11 119.89 46.49 115.4 46.49Z" fill="#000C1F"/>
<path d="M70.5311 161.64C69.8611 161.64 69.3211 161.1 69.3211 160.43V76.81C69.3211 76.14 69.8611 75.6 70.5311 75.6C71.2011 75.6 71.7411 76.14 71.7411 76.81V160.43C71.7411 161.1 71.2011 161.64 70.5311 161.64ZM55.5811 161.64C54.9111 161.64 54.3711 161.1 54.3711 160.43V75.96C54.3711 75.29 54.9111 74.75 55.5811 74.75C56.2511 74.75 56.7911 75.29 56.7911 75.96V160.43C56.7911 161.1 56.2511 161.64 55.5811 161.64Z" fill="#000C1F"/>
<path d="M144.67 172.98C112.96 173.37 75.5004 173.54 43.8604 173.51C39.5804 173.35 36.4204 168.71 37.8104 164.66C38.9704 161.16 42.1304 159.62 45.6504 159.91C65.6404 159.93 94.4104 160.06 114.48 160.2L141.34 160.47C141.71 160.47 142 160.77 142 161.14C142 161.5 141.7 161.79 141.34 161.8L114.48 162.07C94.3704 162.21 65.6704 162.33 45.6504 162.36C45.3504 162.37 44.3304 162.35 44.0404 162.38C38.7004 162.81 38.6504 170.54 44.0204 170.99C66.0304 171.06 95.6904 171.08 117.81 171.27L144.67 171.56C145.06 171.56 145.38 171.89 145.38 172.28C145.38 172.67 145.06 172.98 144.67 172.99V172.98Z" fill="#000C1F"/>
<path d="M175.211 140.58C174.541 140.58 174.001 140.04 174.001 139.37V76.81C174.001 76.14 174.541 75.6 175.211 75.6C175.881 75.6 176.421 76.14 176.421 76.81V139.37C176.421 140.04 175.881 140.58 175.211 140.58ZM160.261 139.3C159.591 139.3 159.051 138.76 159.051 138.09V76.81C159.051 76.14 159.591 75.6 160.261 75.6C160.931 75.6 161.471 76.14 161.471 76.81V138.09C161.471 138.76 160.931 139.3 160.261 139.3Z" fill="#000C1F"/>
<path d="M118.411 27.27C137.801 38.62 167.901 55.89 186.931 67.24L188.031 67.89L188.581 68.22C191.711 69.79 192.441 74.17 189.901 76.66C188.891 77.72 187.381 78.24 185.931 78.2C161.721 78.1 135.871 77.99 111.721 77.73C95.4312 77.57 61.1612 77.27 45.1912 77.21H43.9112H43.2712C38.6812 77.17 37.3112 70.99 41.5312 69C60.1012 58.14 80.1512 46.07 98.6212 34.84C100.241 33.84 108.121 29.1 109.561 28.21L110.651 27.55C112.861 26.03 116.061 25.85 118.401 27.28L118.411 27.27ZM116.691 30.17C114.801 29.02 113.021 29.79 111.221 30.98L109.011 32.27C87.3212 44.88 64.2612 58.24 42.8412 71.19C42.3112 71.49 41.8712 71.77 41.6612 72.32C41.3112 73.37 42.1012 74.64 43.2812 74.57C43.6712 74.57 44.7912 74.57 45.2012 74.57C48.2612 74.54 67.2612 74.45 70.7912 74.42C107.491 74.07 149.451 73.69 185.941 73.59H186.101H186.181H186.201C186.231 73.59 186.261 73.59 186.291 73.59C186.361 73.6 186.381 73.55 186.441 73.57C186.861 73.42 187.021 72.71 186.591 72.43C167.061 60.77 136.351 42.15 116.691 30.2V30.17Z" fill="#000C1F"/>
<path d="M134.02 109.9C134.35 101.56 126.69 95.48 118.9 94.68C118.53 94.64 118.25 94.31 118.27 93.94C118.35 91.69 118.38 89.44 118.49 87.2L119.12 87.86C117.78 87.79 116.43 87.72 115.09 87.67C113.75 87.63 112.4 87.64 111.06 87.71L111.75 87.05C111.85 89.42 112.29 91.8 112.13 94.17C112.13 94.76 111.73 95.28 111.14 95.33C104.08 96.51 97.8305 101.64 98.1105 109.25C98.1805 122.89 115.89 119.54 123.39 126.7C124.47 127.8 125.23 129.33 125.44 130.87C125.41 132.31 124.72 133.76 123.82 134.89C121.38 137.86 117.15 138.53 113.66 137.99C109.14 137.41 104.06 133.96 104.56 128.89L105.06 129.43L95.3005 129.85H95.1505H95.1105C95.0805 129.85 95.0605 129.85 95.1405 129.85C95.4805 129.84 95.7805 129.65 95.9305 129.39C96.0205 129.19 95.9405 129.45 95.9705 129.63C96.0205 131.95 97.6505 135.62 98.1905 136.98C101.04 141.31 106.1 143.77 111.11 144.97C111.5 145.02 111.79 145.35 111.81 145.74V145.81L111.96 150.94L110.9 149.83L118.95 150.46L118.3 151.08C118.03 149.79 117.93 148.51 117.87 147.21L117.85 146.57C117.87 146.21 117.68 146.1 118.22 145.93C118.29 145.53 118.53 145.16 118.95 145.12C123.73 144.6 128.62 142.7 131.69 138.91C136.76 132.39 133.66 121.67 125.96 118.74C121.92 116.46 117.08 116.09 112.75 114.39C110.49 113.48 107.87 112.44 107.04 109.82C106.46 107.13 108.1 104.61 110.16 103.12C115.12 100.03 124.43 102.3 126.03 108.43L126.1 108.69L126.13 108.82V108.85C126.09 108.39 125.6 107.8 125.12 107.68C125.49 107.74 126.25 107.88 126.63 107.93C129.07 108.26 131.61 108.85 134.05 108.93C134.26 108.93 134.35 108.89 134.25 109.15C134.13 109.34 133.98 109.64 134.01 109.9H134.02ZM135.83 109.77C135.9 110.38 135.37 110.97 134.96 111.25C133.81 111.63 132.63 111.53 131.47 111.54C129 111.45 126.32 111.3 123.95 110.59C123.57 110.46 123.07 109.83 123.05 109.43C122.54 106.47 120.2 104.16 117.12 103.42C114.52 102.85 111.53 103.28 109.75 105.29C108.85 106.4 107.92 108.09 108.31 109.47C109.75 113.61 119.28 114.7 123.17 116.26C124.13 116.56 125.87 117.3 126.38 117.69C129.66 118.97 132.34 121.58 133.86 124.72C137.1 131.09 135.12 139.52 128.88 143.26C125.96 145.19 122.58 146.27 119.16 146.77L119.89 145.96C120.24 146.07 120.28 146.18 120.25 146.29C120.13 148 119.95 149.7 119.51 151.37C119.44 151.63 119.18 151.78 118.93 151.72L110.86 152C110.24 152.02 109.76 151.5 109.8 150.89L110.17 145.77L110.86 146.61C104.42 145.95 96.9405 142.66 94.7205 136.03C94.0105 133.94 93.4905 131.79 93.5905 129.55C93.6205 129.2 93.6705 128.71 93.9005 128.3C94.1305 127.87 94.5905 127.54 95.1305 127.56C96.8305 127.66 98.5305 127.76 100.23 127.9C101.88 128.03 103.54 128.21 105.19 128.4C105.45 128.43 105.64 128.67 105.62 128.93C105.53 133.29 110.04 135.75 113.93 135.98C117.5 136.33 122.21 134.84 122.49 130.85V131.27C122.35 130.3 121.95 129.46 121.26 128.73C118.76 126.3 115.12 125.59 111.72 124.51C109.3 123.8 106.83 123.09 104.4 122.02C97.1805 119.07 94.1905 112.79 95.9705 105.19C97.5205 98.34 104.15 94 110.73 92.95L109.74 94.11C109.66 92.92 109.88 91.74 109.99 90.56C110.15 89.34 110.31 88.13 110.44 86.91C110.48 86.57 110.78 86.32 111.12 86.35C113.8 86.62 116.49 86.58 119.18 86.55C119.53 86.55 119.81 86.83 119.81 87.18C119.83 89.44 119.76 91.7 119.74 93.96L119.11 93.22C127.93 94.26 134.65 100.95 135.85 109.75L135.83 109.77Z" fill="black"/>
</g>
<defs>
<clipPath id="clip0_1128_1415">
<rect width="256" height="256" fill="white"/>
</clipPath>
</defs>
</svg>
