<svg viewBox="0 0 32 32" fill="none" xmlns="http://www.w3.org/2000/svg">
    <g clip-path="url(#clip0_1301_8808)">
        <path d="M15.6474 25.0538H4.27119C2.65494 25.0538 1.34619 23.7438 1.34619 22.1288V4.25129C1.34619 2.63504 2.65619 1.32629 4.27119 1.32629H24.4237C26.0399 1.32629 27.3487 2.63629 27.3487 4.25129V17.4875" stroke="#464646" stroke-linecap="round" stroke-linejoin="round"/>
        <path d="M31.3725 24.6026C31.3725 24.8888 31.14 25.1201 30.8537 25.1213H30.7825C29.875 25.1288 29.145 25.8713 29.1525 26.7788C29.1562 27.2051 29.325 27.6138 29.6237 27.9176L29.6737 27.9676C29.8762 28.1701 29.8762 28.4988 29.6737 28.7013L28.8337 29.5401C28.6312 29.7426 28.3037 29.7426 28.1012 29.5401L28.0512 29.4901C27.4025 28.8538 26.3612 28.8638 25.7262 29.5126C25.4287 29.8163 25.26 30.2238 25.255 30.6488V30.7201C25.255 31.0063 25.0225 31.2376 24.7362 31.2388H23.5487C23.2625 31.2388 23.0312 31.0063 23.03 30.7201V30.6488C23.025 29.7426 22.2875 29.0113 21.3812 29.0151C20.9512 29.0176 20.54 29.1876 20.2337 29.4901L20.1837 29.5401C19.9812 29.7413 19.6537 29.7413 19.4512 29.5401L18.6112 28.7013C18.4087 28.4988 18.4087 28.1701 18.6112 27.9676L18.6612 27.9176C19.2975 27.2701 19.29 26.2301 18.6425 25.5926C18.3387 25.2926 17.9287 25.1238 17.5025 25.1201H17.4312C17.145 25.1201 16.9137 24.8876 16.9125 24.6013V23.4138C16.9125 23.1276 17.145 22.8963 17.4312 22.8951H17.5025C18.41 22.8876 19.14 22.1451 19.1325 21.2376C19.1287 20.8113 18.96 20.4026 18.6612 20.0988L18.6112 20.0488C18.4087 19.8463 18.4087 19.5188 18.6112 19.3163L19.4512 18.4763C19.6537 18.2738 19.9812 18.2738 20.1837 18.4763L20.2337 18.5263C20.8812 19.1626 21.9225 19.1538 22.5587 18.5051C22.8575 18.2013 23.0262 17.7938 23.03 17.3676V17.2963C23.03 17.0101 23.2625 16.7788 23.5487 16.7776H24.7362C25.0225 16.7776 25.2537 17.0101 25.255 17.2963V17.3676C25.2625 18.2751 26.005 19.0051 26.9137 18.9963C27.34 18.9926 27.7475 18.8238 28.0512 18.5251L28.1012 18.4751C28.3037 18.2726 28.6312 18.2726 28.8337 18.4751L29.6737 19.3151C29.8762 19.5176 29.8762 19.8451 29.6737 20.0476L29.6237 20.0976C28.9875 20.7451 28.9962 21.7863 29.6437 22.4226C29.9475 22.7213 30.3562 22.8901 30.7825 22.8938H30.8537C31.14 22.8938 31.3712 23.1263 31.3725 23.4126V24.6001V24.6026Z" stroke="#464646" stroke-linecap="round" stroke-linejoin="round"/>
        <path d="M24.1425 26.2564C22.9013 26.2564 21.895 25.2501 21.895 24.0089C21.895 22.7676 22.9013 21.7614 24.1425 21.7614C25.3838 21.7614 26.39 22.7676 26.39 24.0089C26.3888 25.2489 25.3838 26.2551 24.1425 26.2564Z" stroke="#464646" stroke-linecap="round" stroke-linejoin="round"/>
        <path d="M15.6337 6.83124C15.6337 7.46999 15.1112 7.98998 14.4637 7.98998C13.8162 7.98998 13.2937 7.46874 13.2937 6.83124C13.2937 6.19374 13.8162 5.67249 14.4637 5.67249C15.1112 5.67249 15.6337 6.19374 15.6337 6.83124V6.83124Z" stroke="#464646" stroke-linecap="round" stroke-linejoin="round"/>
        <path d="M8.85746 9.61382V20.0651M6.98871 20.0651V9.50757" stroke="#464646" stroke-linecap="round" stroke-linejoin="round"/>
        <path d="M18.1237 21.5438H5.57873C5.19498 21.5438 4.88373 21.2326 4.88373 20.8488C4.88373 20.4651 5.19498 20.1538 5.57873 20.1538H17.7075" stroke="#464646" stroke-linecap="round" stroke-linejoin="round"/>
        <path d="M21.94 9.61377V17.4325M20.0712 17.2725V9.61377" stroke="#464646" stroke-linecap="round" stroke-linejoin="round"/>
        <path d="M14.7337 3.6025L23.5 8.8075C23.8237 9 23.6875 9.49751 23.3112 9.49751H5.44621C5.06871 9.49751 4.93246 9 5.25621 8.8075L14.0237 3.6025C14.2425 3.4725 14.515 3.4725 14.7337 3.6025Z" stroke="#464646" stroke-linecap="round" stroke-linejoin="round"/>
        <path d="M11.7525 17.5167C12.1376 18.089 12.7524 18.4528 13.4062 18.6373L13.4013 18.8681C13.3953 19.144 13.6141 19.3725 13.89 19.3787L14.8975 19.4012C15.0301 19.4042 15.1585 19.3543 15.2544 19.2625C15.3502 19.1708 15.4057 19.0447 15.4085 18.912L15.4136 18.6759C15.9983 18.5319 16.5525 18.2396 16.9406 17.7655L16.9512 17.7521C17.8091 16.6275 17.3564 14.9036 16.0421 14.3464C15.9384 14.2839 15.8192 14.2308 15.696 14.1847C15.7108 14.1871 15.7261 14.1896 15.7418 14.1922C15.8711 14.2129 16.0414 14.2368 16.212 14.2556C16.3787 14.2741 16.5619 14.2896 16.7103 14.2896C16.7787 14.2896 16.8724 14.2867 16.961 14.2675C17.0006 14.2589 17.0864 14.2377 17.1731 14.1796C17.2725 14.1129 17.4243 13.9547 17.4061 13.706C17.4047 13.6881 17.4025 13.6704 17.3993 13.6529C17.2905 12.4598 16.4679 11.6441 15.4228 11.3523L15.4323 10.9262C15.4384 10.6501 15.2196 10.4214 14.9436 10.4152L13.9361 10.3927C13.8034 10.3897 13.675 10.4396 13.5791 10.5314C13.4832 10.6232 13.4278 10.7493 13.425 10.882L13.4143 11.3889C12.504 11.6753 11.6915 12.3686 11.6442 13.5421C11.6078 14.2452 11.8473 14.7659 12.2623 15.1351C12.5099 15.3554 12.8063 15.5086 13.0993 15.6245C12.4741 15.6026 12.0171 15.6026 11.9274 15.6026C11.5988 15.6026 11.4674 15.8711 11.4418 15.9318C11.4047 16.0201 11.3948 16.1049 11.391 16.1551C11.3828 16.2663 11.3932 16.392 11.4131 16.5156C11.4541 16.7702 11.5488 17.099 11.7154 17.4513C11.7261 17.474 11.7385 17.4959 11.7525 17.5167ZM15.3258 14.065C15.2883 14.0542 15.2515 14.0438 15.2159 14.0339C15.1454 14.0142 15.0761 13.9954 15.0084 13.9769C14.7714 13.9123 14.552 13.8526 14.3554 13.7797C14.1278 13.6953 14.0274 13.6256 13.9911 13.5909C13.9992 13.5674 14.0187 13.5237 14.0652 13.4576L14.0652 13.4576C14.1218 13.3771 14.3198 13.2758 14.6295 13.3442C14.9241 13.4093 15.0921 13.5814 15.1253 13.7526L15.6162 13.6576L15.1247 13.7497C15.1527 13.8991 15.2386 13.9885 15.2706 14.0192C15.2904 14.0381 15.3095 14.0532 15.3258 14.065ZM13.5439 15.7888C13.5392 15.7837 13.5344 15.7787 13.5295 15.7738C13.5436 15.7782 13.5576 15.7825 13.5716 15.7868C13.712 15.8298 13.8425 15.8671 13.9643 15.9019C14.2486 15.9832 14.486 16.0511 14.6938 16.1462C14.9056 16.2431 14.9881 16.326 15.0214 16.4018C14.9957 16.4692 14.9457 16.5211 14.8625 16.5646C14.737 16.6302 14.5465 16.665 14.3332 16.6414C14.1206 16.6179 13.9364 16.5417 13.8196 16.4452C13.7135 16.3575 13.6706 16.2639 13.6757 16.1498C13.6816 16.0167 13.6341 15.8868 13.5439 15.7888Z" stroke="#464646" stroke-linecap="round" stroke-linejoin="round"/>
    </g>
    <defs>
        <clipPath id="clip0_1301_8808">
            <rect width="32" height="32" fill="white"/>
        </clipPath>
    </defs>
</svg>
