<svg viewBox="0 0 62 61" fill="none" xmlns="http://www.w3.org/2000/svg">
    <path d="M29.2949 48.1075H6.54238C3.30988 48.1075 0.692383 45.4875 0.692383 42.2575V6.50247C0.692383 3.26997 3.31238 0.652466 6.54238 0.652466H46.8474C50.0799 0.652466 52.6974 3.27247 52.6974 6.50247V32.975" stroke="#464646" stroke-linecap="round" stroke-linejoin="round"/>
    <path d="M60.7452 47.2049C60.7452 47.7774 60.2802 48.2399 59.7077 48.2424H59.5652C57.7502 48.2574 56.2902 49.7424 56.3052 51.5574C56.3127 52.4099 56.6502 53.2274 57.2477 53.8349L57.3477 53.9349C57.7527 54.3399 57.7527 54.9974 57.3477 55.4024L55.6677 57.0799C55.2627 57.4849 54.6077 57.4849 54.2027 57.0799L54.1027 56.9799C52.8052 55.7074 50.7227 55.7274 49.4527 57.0249C48.8577 57.6324 48.5202 58.4474 48.5102 59.2974V59.4399C48.5102 60.0124 48.0452 60.4749 47.4727 60.4774H45.0977C44.5252 60.4774 44.0627 60.0124 44.0602 59.4399V59.2974C44.0502 57.4849 42.5752 56.0224 40.7627 56.0299C39.9027 56.0349 39.0802 56.3749 38.4677 56.9799L38.3677 57.0799C37.9627 57.4824 37.3077 57.4824 36.9027 57.0799L35.2227 55.4024C34.8177 54.9974 34.8177 54.3399 35.2227 53.9349L35.3227 53.8349C36.5952 52.5399 36.5802 50.4599 35.2852 49.1849C34.6777 48.5849 33.8577 48.2474 33.0052 48.2399H32.8627C32.2902 48.2399 31.8277 47.7749 31.8252 47.2024V44.8274C31.8252 44.2549 32.2902 43.7924 32.8627 43.7899H33.0052C34.8202 43.7749 36.2802 42.2899 36.2652 40.4749C36.2577 39.6224 35.9202 38.8049 35.3227 38.1974L35.2227 38.0974C34.8177 37.6924 34.8177 37.0374 35.2227 36.6324L36.9027 34.9524C37.3077 34.5474 37.9627 34.5474 38.3677 34.9524L38.4677 35.0524C39.7627 36.3249 41.8452 36.3074 43.1177 35.0099C43.7152 34.4024 44.0527 33.5874 44.0602 32.7349V32.5924C44.0602 32.0199 44.5252 31.5574 45.0977 31.5549H47.4727C48.0452 31.5549 48.5077 32.0199 48.5102 32.5924V32.7349C48.5252 34.5499 50.0102 36.0099 51.8277 35.9924C52.6802 35.9849 53.4952 35.6474 54.1027 35.0499L54.2027 34.9499C54.6077 34.5449 55.2627 34.5449 55.6677 34.9499L57.3477 36.6299C57.7527 37.0349 57.7527 37.6899 57.3477 38.0949L57.2477 38.1949C55.9752 39.4899 55.9927 41.5724 57.2877 42.8449C57.8952 43.4424 58.7127 43.7799 59.5652 43.7874H59.7077C60.2802 43.7874 60.7427 44.2524 60.7452 44.8249V47.1999V47.2049Z" stroke="#464646" stroke-linecap="round" stroke-linejoin="round"/>
    <path d="M46.285 50.5125C43.8025 50.5125 41.79 48.5 41.79 46.0175C41.79 43.535 43.8025 41.5225 46.285 41.5225C48.7675 41.5225 50.78 43.535 50.78 46.0175C50.7775 48.4975 48.7675 50.51 46.285 50.5125Z" stroke="#464646" stroke-linecap="round" stroke-linejoin="round"/>
    <path d="M29.2674 11.6625C29.2674 12.94 28.2224 13.98 26.9274 13.98C25.6324 13.98 24.5874 12.9375 24.5874 11.6625C24.5874 10.3875 25.6324 9.34497 26.9274 9.34497C28.2224 9.34497 29.2674 10.3875 29.2674 11.6625V11.6625Z" stroke="#464646" stroke-linecap="round" stroke-linejoin="round"/>
    <path d="M15.715 17.2275V38.13M11.9775 38.13V17.015" stroke="#464646" stroke-linecap="round" stroke-linejoin="round"/>
    <path d="M34.2476 41.0875H9.15758C8.39008 41.0875 7.76758 40.465 7.76758 39.6975C7.76758 38.93 8.39008 38.3075 9.15758 38.3075H33.4151" stroke="#464646" stroke-linecap="round" stroke-linejoin="round"/>
    <path d="M41.8801 17.2275V32.865M38.1426 32.545V17.2275" stroke="#464646" stroke-linecap="round" stroke-linejoin="round"/>
    <path d="M27.4677 5.20501L45.0002 15.615C45.6477 16 45.3752 16.995 44.6227 16.995H8.89267C8.13767 16.995 7.86517 16 8.51267 15.615L26.0477 5.20501C26.4852 4.94501 27.0302 4.94501 27.4677 5.20501Z" stroke="#464646" stroke-linecap="round" stroke-linejoin="round"/>
    <path d="M25.3499 19.7744L25.3207 21.1576C23.4924 21.616 21.8756 22.8969 21.7878 25.107C21.7218 26.3709 22.1455 27.2635 22.8569 27.8964C23.5372 28.5017 24.447 28.8375 25.2895 29.0952C25.5441 29.1731 25.7905 29.2436 26.0273 29.3114C26.615 29.4794 27.144 29.6308 27.5956 29.8374C28.1757 30.1029 28.4767 30.3949 28.5627 30.7947C28.4943 31.1511 28.2789 31.4036 27.9566 31.572C27.5987 31.7591 27.1132 31.8351 26.6114 31.7795C26.1103 31.724 25.6439 31.5429 25.3205 31.2754C25.0078 31.0169 24.8336 30.6865 24.8518 30.2771C24.8577 30.144 24.8103 30.0141 24.7201 29.9161C24.6298 29.8182 24.5042 29.7603 24.3711 29.7553C23.0322 29.7049 22.0403 29.7049 21.8548 29.7049C21.5162 29.7049 21.3764 29.9814 21.3444 30.0573C21.3009 30.1608 21.2866 30.268 21.2807 30.347C21.2681 30.5159 21.2834 30.725 21.3199 30.9516C21.394 31.4119 21.5687 32.0245 21.8828 32.6887C21.8935 32.7114 21.9059 32.7332 21.9199 32.754C22.6771 33.8794 23.9553 34.5804 25.3209 34.8877L25.3024 35.7467C25.2965 36.0226 25.5152 36.2511 25.7911 36.2573L27.8061 36.3023C27.9388 36.3053 28.0672 36.2554 28.163 36.1636C28.2589 36.0719 28.3143 35.9458 28.3172 35.8131L28.3357 34.9466C29.5651 34.7159 30.7237 34.1556 31.4942 33.2141L31.5048 33.2007C33.03 31.2014 32.2092 28.111 29.8559 27.1391C29.447 26.8833 28.8534 26.7042 28.2974 26.5491C28.1643 26.512 28.0311 26.4757 27.8987 26.4397C27.4208 26.3095 26.9532 26.1822 26.537 26.028C25.9848 25.8233 25.6624 25.6176 25.5345 25.422C25.4837 25.3443 25.4624 25.2664 25.4746 25.1639C25.4882 25.0486 25.5484 24.8735 25.7214 24.6274L25.3123 24.3399L25.7214 24.6274C25.9967 24.2357 26.6428 24.04 27.3669 24.2C28.0759 24.3567 28.6245 24.8062 28.7414 25.41C28.77 25.5578 28.8551 25.6463 28.8871 25.677C28.9264 25.7147 28.9633 25.7376 28.9816 25.7483C29.0193 25.7705 29.0522 25.7831 29.0646 25.7878C29.0942 25.7989 29.1215 25.8063 29.1362 25.8101C29.1699 25.819 29.2095 25.8275 29.2484 25.8352C29.3287 25.8512 29.4375 25.8703 29.5627 25.8904C29.814 25.9306 30.1465 25.9773 30.4789 26.0141C30.8074 26.0504 31.152 26.0789 31.4207 26.0789C31.5493 26.079 31.6928 26.0729 31.816 26.0461C31.8728 26.0338 31.9721 26.0077 32.0677 25.9436C32.176 25.8709 32.3323 25.7055 32.3135 25.4483C32.3117 25.424 32.3081 25.4 32.3029 25.3766C32.1042 23.0778 30.4447 21.5343 28.3368 21.0946L28.3647 19.841C28.3708 19.565 28.152 19.3362 27.876 19.33L25.861 19.285C25.7283 19.2821 25.5999 19.332 25.504 19.4238C25.4081 19.5156 25.3527 19.6417 25.3499 19.7744Z" stroke="#464646" stroke-linecap="round" stroke-linejoin="round"/>
</svg>
