<svg viewBox="0 0 212 136" fill="none" xmlns="http://www.w3.org/2000/svg">
    <g clip-path="url(#clip0_1377_1679)">
        <path d="M57.1211 18.6921L58.9469 29.8507L67.9039 22.7525L57.1211 18.6921Z" stroke="#000C1F" stroke-linecap="round" stroke-linejoin="round"/>
        <path d="M63.4213 26.1656L62.5614 20.7426L58.1001 24.2224L63.4213 26.1656Z" stroke="#000C1F" stroke-linecap="round" stroke-linejoin="round"/>
        <path d="M62.6064 20.536L63.6532 17.6421" stroke="#000C1F" stroke-linecap="round" stroke-linejoin="round"/>
        <path d="M57.8735 24.3008L54.769 24.7978" stroke="#000C1F" stroke-linecap="round" stroke-linejoin="round"/>
        <path d="M63.4375 26.299L65.4144 28.815" stroke="#000C1F" stroke-linecap="round" stroke-linejoin="round"/>
        <path d="M67.9146 22.763L63.6825 17.5231L57.0708 18.6137L54.6646 24.8017L59.0304 29.9187L65.6462 29.0569L67.9146 22.763Z" stroke="#000C1F" stroke-linecap="round" stroke-linejoin="round"/>
        <path d="M137.346 113.202C137.168 113.22 137.012 113.331 136.939 113.495C136.865 113.658 136.885 113.849 136.99 113.994L141.797 120.606C141.901 120.749 142.073 120.826 142.249 120.809C142.426 120.792 142.58 120.684 142.655 120.523L146.117 113.11C146.193 112.947 146.176 112.756 146.072 112.61C145.969 112.463 145.794 112.383 145.616 112.401L137.346 113.202Z" stroke="#000C1F" stroke-linecap="round" stroke-linejoin="round"/>
        <path d="M143.939 117.016C144.116 116.998 144.27 116.886 144.342 116.723C144.415 116.561 144.396 116.372 144.292 116.227L141.973 113.004C141.87 112.86 141.698 112.782 141.522 112.798C141.346 112.814 141.192 112.921 141.116 113.081L139.373 116.737C139.295 116.901 139.312 117.093 139.417 117.241C139.521 117.389 139.698 117.469 139.878 117.449L143.939 117.016Z" stroke="#000C1F" stroke-linecap="round" stroke-linejoin="round"/>
        <path d="M141.529 113.149L141.262 110.952" stroke="#000C1F" stroke-linecap="round" stroke-linejoin="round"/>
        <path d="M139.704 117.075L137.865 118.379" stroke="#000C1F" stroke-linecap="round" stroke-linejoin="round"/>
        <path d="M143.939 116.599L146.032 117.594" stroke="#000C1F" stroke-linecap="round" stroke-linejoin="round"/>
        <path d="M146.17 112.841C146.148 112.669 146.04 112.52 145.882 112.448L141.451 110.412C141.288 110.337 141.097 110.355 140.951 110.46L137.045 113.258C136.9 113.362 136.821 113.535 136.839 113.713L137.301 118.464C137.319 118.646 137.434 118.803 137.602 118.875L142.081 120.788C142.236 120.855 142.414 120.838 142.554 120.745L146.537 118.093C146.695 117.988 146.78 117.803 146.757 117.616L146.17 112.841Z" stroke="#000C1F" stroke-linecap="round" stroke-linejoin="round"/>
        <path d="M71.7382 54.9074C69.3241 53.1799 70.0144 46.0216 66.1772 48.2538C62.9627 50.1238 59.5734 53.2571 56.8624 49.0581C55.1558 45.3534 55.1386 40.5581 50.207 45.152C46.6268 48.4081 42.6319 45.7339 41.9363 41.6434C41.5733 40.4887 41.2871 39.151 40.0124 38.6554C38.6728 38.1257 39.277 36.057 40.8604 36.5277C44.854 37.7164 43.6204 46.3027 47.6815 43.9868C50.9529 42.1221 54.1409 38.862 57.0413 43.1251C58.0417 44.7178 57.9887 46.7343 59.1163 48.246C61.2323 50.4037 63.3483 46.7683 65.2934 46.0268C69.9362 44.0287 71.6057 48.7978 72.5981 52.2828C72.944 53.4715 74.7287 53.4297 74.6784 54.7714C74.6784 54.8407 74.5552 56.9199 71.7382 54.9047V54.9074Z" stroke="#000C1F" stroke-linecap="round" stroke-linejoin="round"/>
        <path d="M134.486 28.5248C135.468 28.1127 135.189 25.2857 133.864 22.2105C132.539 19.1354 130.669 16.9766 129.687 17.3887C128.705 17.8008 128.983 20.6278 130.309 23.7029C131.634 26.7781 133.504 28.9369 134.486 28.5248Z" stroke="#000C1F" stroke-linecap="round" stroke-linejoin="round"/>
        <path d="M48.4981 92.9029C48.8178 91.8983 46.4584 90.272 43.2281 89.2705C39.9978 88.2689 37.1199 88.2714 36.8002 89.276C36.4804 90.2806 38.8399 91.9069 42.0701 92.9084C45.3004 93.9099 48.1783 93.9075 48.4981 92.9029Z" stroke="#000C1F" stroke-linecap="round" stroke-linejoin="round"/>
        <path d="M101.446 48.9456C100.651 46.7539 98.3789 35.4162 99.2071 23.5319C99.2071 23.5319 100.972 24.1047 101.963 25.143C102.414 25.6151 100.288 10.71 99.4482 10.7897C96.8777 11.0317 91.0901 22.1261 90.7734 23.0101L93.8024 22.6649C93.8024 22.6649 91.8295 25.0201 92.9398 50.2311C92.9438 50.3187 93.0882 50.3291 93.173 50.3069L101.336 49.2176C101.456 49.1862 101.487 49.0607 101.445 48.9469L101.446 48.9456Z" stroke="#000C1F" stroke-linecap="round" stroke-linejoin="round"/>
        <path d="M162.821 23.0067C163.761 21.9909 162.033 18.923 158.962 16.1544C155.891 13.3858 152.64 11.9649 151.699 12.9808C150.759 13.9966 152.487 17.0645 155.558 19.8331C158.629 22.6017 161.881 24.0226 162.821 23.0067Z" stroke="#000C1F" stroke-linecap="round" stroke-linejoin="round"/>
        <path d="M151.399 13.69L142.272 34.2796C142.272 34.2796 142.243 35.3493 143.631 34.6288C145.02 33.9069 162.115 23.7331 162.115 23.7331" stroke="#000C1F" stroke-linecap="round" stroke-linejoin="round"/>
        <path d="M100.769 61.4903L94.0895 61.812C94.0895 61.812 93.1117 69.53 87.8991 69.53C82.6866 69.53 80.5679 67.2794 80.5679 67.2794L75.68 72.1035C75.68 72.1035 80.4049 78.5348 77.1468 81.9112C73.8886 85.2877 69.9785 85.6094 69.9785 85.6094V92.5231C69.9785 92.5231 77.6357 94.7737 77.6357 98.6327C77.6357 102.492 75.5183 105.868 75.5183 105.868L79.9173 111.013C79.9173 111.013 84.8053 107.475 87.9005 108.923C90.9957 110.371 93.276 112.621 93.6019 116.641H101.112C101.112 116.641 100.607 111.656 104.354 110.049C108.101 108.44 111.197 108.44 114.292 111.175L119.667 106.03C119.667 106.03 115.105 101.367 117.713 97.3485C120.319 93.3287 124.881 93.007 124.881 93.007V84.9974C124.881 84.9974 118.039 84.9686 117.387 80.1445C116.735 75.3204 119.993 72.2657 119.993 72.2657L114.618 67.2808C114.618 67.2808 112.115 69.5051 109.138 69.7667C107.956 69.8713 106.698 69.666 105.494 68.8879C101.258 66.1548 100.769 61.4916 100.769 61.4916V61.4903Z" stroke="#000C1F" stroke-linecap="round" stroke-linejoin="round"/>
        <path d="M100.9 61.523L104.679 64.8668C104.679 64.8668 104.842 68.4499 105.82 69.0919" stroke="#000C1F" stroke-linecap="round" stroke-linejoin="round"/>
        <path d="M120.021 72.2631L123.331 75.4486C123.331 75.4486 119.747 81.1253 121.742 84.507" stroke="#000C1F" stroke-linecap="round" stroke-linejoin="round"/>
        <path d="M125.014 84.9268L129.279 88.3412V96.8987C129.279 96.8987 123.904 97.1851 122.437 100.079C120.97 102.973 120.482 104.903 123.741 109.404L118.039 115.353C118.039 115.353 111.686 111.011 108.265 114.227C104.843 117.443 104.843 120.497 104.843 120.497L97.4314 121.213L93.6035 116.61" stroke="#000C1F" stroke-linecap="round" stroke-linejoin="round"/>
        <path d="M69.9785 92.3492L73.0737 96.7012C73.0737 96.7012 77.3097 97.1838 77.4727 97.6663" stroke="#000C1F" stroke-linecap="round" stroke-linejoin="round"/>
        <path d="M92.7856 113.584C92.7856 113.584 89.2015 111.655 83.3371 115.031L79.7529 110.85" stroke="#000C1F" stroke-linecap="round" stroke-linejoin="round"/>
        <path d="M109.078 89.2252C109.078 95.3962 104.008 100.399 97.7556 100.399C94.9174 100.399 92.3231 99.369 90.3356 97.6664C87.944 95.6172 86.4321 92.5951 86.4321 89.2252C86.4321 83.0542 91.5016 78.051 97.7543 78.051C104.007 78.051 109.076 83.0542 109.076 89.2252H109.078Z" stroke="#000C1F" stroke-linecap="round" stroke-linejoin="round"/>
        <path d="M90.1686 97.563C89.7526 96.335 89.5273 95.0182 89.5273 93.6464C89.5273 86.9864 94.8512 81.5882 101.421 81.5882C103.551 81.5882 105.552 82.157 107.281 83.1522" stroke="#000C1F" stroke-linecap="round" stroke-linejoin="round"/>
        <path d="M112.075 66.4517C112.098 66.2071 112.111 65.9574 112.111 65.705C112.111 62.9588 106.661 61.3556 106.661 61.3556V56.4347C106.661 56.4347 109.444 56.2059 111.764 53.8024C114.082 51.3988 110.72 46.8206 110.72 46.8206L114.199 43.3866C114.199 43.3866 115.707 44.9885 119.417 44.9885C123.128 44.9885 123.824 39.4949 123.824 39.4949L128.578 39.2661C128.578 39.2661 128.926 42.585 131.941 44.5308C134.955 46.4767 138.435 43.3866 138.435 43.3866L142.261 46.9344C142.261 46.9344 139.942 49.1091 140.406 52.5417C140.87 55.9744 145.741 55.9967 145.741 55.9967V61.6982C145.741 61.6982 142.493 61.9271 140.638 64.7883C138.783 67.6495 142.029 70.9684 142.029 70.9684L138.203 74.6313C135.999 72.6854 133.796 72.6854 131.129 73.8297C128.461 74.9739 128.82 78.5217 128.82 78.5217L123.475 78.5007" stroke="#000C1F" stroke-linecap="round" stroke-linejoin="round"/>
        <path d="M128.671 39.2909L131.361 41.6709C131.361 41.6709 131.477 44.2209 132.173 44.6786" stroke="#000C1F" stroke-linecap="round" stroke-linejoin="round"/>
        <path d="M142.282 46.9357L144.638 49.2032C144.638 49.2032 142.087 53.244 143.508 55.6514" stroke="#000C1F" stroke-linecap="round" stroke-linejoin="round"/>
        <path d="M145.836 55.9496L148.872 58.3793V64.4705C148.872 64.4705 145.045 64.6745 144.001 66.7341C142.957 68.7937 142.61 70.1681 144.929 73.372L140.87 77.6063C140.87 77.6063 136.348 74.5162 133.913 76.8047C131.477 79.0931 131.477 81.2678 131.477 81.2678L126.201 81.7765L123.476 78.5007" stroke="#000C1F" stroke-linecap="round" stroke-linejoin="round"/>
        <path d="M106.661 61.2339L108.865 64.3319C108.865 64.3319 111.879 64.6758 111.996 65.0184" stroke="#000C1F" stroke-linecap="round" stroke-linejoin="round"/>
        <path d="M134.492 59.0096C134.492 63.4021 130.884 66.9643 126.432 66.9643C124.411 66.9643 122.565 66.2306 121.15 65.0184C119.447 63.5603 118.372 61.4092 118.372 59.0096C118.372 54.617 121.98 51.0549 126.432 51.0549C130.884 51.0549 134.492 54.6157 134.492 59.0096V59.0096Z" stroke="#000C1F" stroke-linecap="round" stroke-linejoin="round"/>
        <path d="M121.033 64.9439C120.738 64.0704 120.578 63.1327 120.578 62.1559C120.578 57.4155 124.367 53.5722 129.043 53.5722C130.56 53.5722 131.983 53.9763 133.214 54.685" stroke="#000C1F" stroke-linecap="round" stroke-linejoin="round"/>
        <path d="M65.3346 72.9483C62.6343 72.471 52.229 75.2146 44.0299 62.0984C44.0299 62.0984 45.6822 61.6499 47.4736 61.5296C48.6608 61.4498 35.5605 51.3047 35.0199 52.0423C33.365 54.298 36.8352 66.6086 37.3374 67.4678L39.6959 64.5686C39.6959 64.5686 42.8374 80.7814 66.2224 81.09C66.3191 81.09 65.532 72.9836 65.3359 72.9496L65.3346 72.9483Z" stroke="#000C1F" stroke-linecap="round" stroke-linejoin="round"/>
        <path d="M135.948 94.8822C138.773 94.3827 150.317 95.6838 158.893 81.9648C158.893 81.9648 156.502 81.4954 154.629 81.3712C153.387 81.2888 167.089 70.6768 167.655 71.4484C169.385 73.8075 165.756 86.683 165.23 87.5814L162.764 84.5488C162.764 84.5488 159.478 101.506 135.02 101.829C134.92 101.83 135.742 94.9202 135.948 94.8835V94.8822Z" stroke="#000C1F" stroke-linecap="round" stroke-linejoin="round"/>
        <path d="M78.4598 38.883C80.249 38.883 81.6995 37.4515 81.6995 35.6857C81.6995 33.9198 80.249 32.4883 78.4598 32.4883C76.6706 32.4883 75.2202 33.9198 75.2202 35.6857C75.2202 37.4515 76.6706 38.883 78.4598 38.883Z" stroke="#000C1F" stroke-linecap="round" stroke-linejoin="round"/>
        <path d="M64.5212 103.499C61.2684 103.57 57.0827 96.8986 55.2409 101.338C53.6986 105.056 52.848 109.986 47.6845 108.103C43.724 105.995 40.5029 101.839 39.2892 109.043C38.3551 114.205 36.1437 112.866 36.3173 109.676C36.5372 105.614 38.5035 101.017 43.8738 102.832C45.8069 103.564 47.1094 105.352 49.0996 105.931C52.3803 106.428 51.7893 101.891 52.9845 99.9796C55.6822 95.2196 60.3223 98.2769 63.5142 100.658C64.61 101.466 66.1324 100.267 66.9844 101.466C67.0308 101.528 68.3147 103.414 64.5186 103.497L64.5212 103.499Z" stroke="#000C1F" stroke-linecap="round" stroke-linejoin="round"/>
        <path d="M172.135 118.563C172.917 116.782 169.044 113.412 163.486 111.036C157.927 108.66 152.787 108.177 152.006 109.958C151.224 111.739 155.097 115.108 160.656 117.485C166.214 119.861 171.354 120.344 172.135 118.563Z" stroke="#000C1F" stroke-linecap="round" stroke-linejoin="round"/>
        <path d="M155.062 39.5065C155.022 37.4692 155.963 36.0385 156.668 35.7692C159.994 34.4968 160.891 39.5955 161.022 40.4886C161.141 41.3033 161.022 47.5999 156.358 48.0785C151.694 48.5571 149.868 43.1602 149.408 40.8692C148.95 38.5781 150.066 36.5538 152.281 36.5773C154.496 36.6009 155.372 40.3291 155.555 42.2906C155.738 44.2522 153.907 44.0822 153.907 44.0822C153.907 44.0822 153.129 44.1619 153.075 42.1507C153.02 40.1395 151.992 38.6461 151.736 38.7442C151.481 38.8422 151.243 41.9807 153.002 44.2103C153.002 44.2103 155.077 47.0977 157.183 45.6109C157.973 45.0538 158.443 44.3359 158.71 43.5826C159.154 42.3259 159.03 40.9659 158.875 40.0754C158.759 39.4006 158.388 38.0851 157.501 37.6993" stroke="#000C1F" stroke-linecap="round" stroke-linejoin="round"/>
        <path d="M157.609 45.2773C157.609 45.2773 156.367 44.345 155.537 42.2513" stroke="#000C1F" stroke-linecap="round" stroke-linejoin="round"/>
        <path d="M157.724 37.8235C157.724 37.8235 156.647 38.8971 157.589 41.2941C158.531 43.6911 158.709 43.5839 158.709 43.5839" stroke="#000C1F" stroke-linecap="round" stroke-linejoin="round"/>
        <path d="M159.359 46.4857C159.359 46.4857 160.982 47.6875 163.233 46.6805C165.484 45.6736 167.277 42.3756 166.846 39.7838C166.416 37.1906 165.169 34.7662 163.004 34.8682C163.004 34.8682 160.331 35.4318 160.599 38.6069" stroke="#000C1F" stroke-linecap="round" stroke-linejoin="round"/>
        <path d="M160.4 44.6379C160.4 44.6379 161.566 45.4317 163.08 44.4169C164.593 43.4022 164.88 40.3905 164.611 39.3326C164.342 38.2747 163.876 36.712 163.187 36.8297" stroke="#000C1F" stroke-linecap="round" stroke-linejoin="round"/>
        <path d="M161.046 40.9149C161.046 40.9149 161.796 43.0229 163.08 44.4182" stroke="#000C1F" stroke-linecap="round" stroke-linejoin="round"/>
        <path d="M164.343 42.5142C164.343 42.5142 163.244 41.4236 162.958 40.3003C162.672 39.177 162.582 37.2756 163.502 36.8964" stroke="#000C1F" stroke-linecap="round" stroke-linejoin="round"/>
        <path d="M164.836 45.5128C164.836 45.5128 166.634 46.8819 169.315 45.3951C171.995 43.9082 172.191 39.9145 171.981 38.2538C171.77 36.593 170.857 33.8952 168.564 34.0469C166.27 34.1986 166.123 37.2939 166.123 37.2939" stroke="#000C1F" stroke-linecap="round" stroke-linejoin="round"/>
        <path d="M165.981 43.9435C165.981 43.9435 167.892 44.3175 168.794 43.2465C169.697 42.1755 170.622 40.0283 169.925 38.0707C169.925 38.0707 169.454 36.3171 168.312 36.0294" stroke="#000C1F" stroke-linecap="round" stroke-linejoin="round"/>
        <path d="M169.705 41.7244C169.705 41.7244 168.621 40.5566 168.352 39.4987C168.083 38.4408 167.683 36.7774 168.637 36.1602" stroke="#000C1F" stroke-linecap="round" stroke-linejoin="round"/>
        <path d="M168.406 43.5146C168.406 43.5146 166.973 41.9048 166.895 40.9946" stroke="#000C1F" stroke-linecap="round" stroke-linejoin="round"/>
        <path d="M170.376 44.7085C170.376 44.7085 172.966 46.0031 175.254 43.9671C177.542 41.931 177.338 39.5418 177.338 39.5418C177.338 39.5418 177.372 37.8497 176.448 37.8824C175.523 37.9151 175.437 38.8187 175.194 40.0727C174.952 41.3268 174.247 42.4841 173.213 42.8699C172.18 43.2557 171.41 42.8764 171.41 42.8764" stroke="#000C1F" stroke-linecap="round" stroke-linejoin="round"/>
    </g>
    <defs>
        <clipPath id="clip0_1377_1679">
            <rect width="212" height="136" fill="white"/>
        </clipPath>
    </defs>
</svg>
