<svg viewBox="0 0 1081 849" fill="none" xmlns="http://www.w3.org/2000/svg">
    <path d="M172.209 63.1599C176.979 91.4799 181.699 119.56 186.229 147.8L185.089 147.36L252.749 93.1599L252.919 94.2099C225.939 83.9799 199.169 73.6199 172.219 63.1499C172.219 63.1499 199.169 73.6199 172.219 63.1499L172.209 63.1599ZM171.289 62.0299C198.599 72.2599 226.079 82.6099 253.349 93.0799C253.779 93.2399 253.879 93.8499 253.519 94.1299L185.979 148.48C185.579 148.82 184.899 148.57 184.839 148.04C180.179 119.4 175.719 90.5999 171.299 62.0299H171.289Z" fill="#000C1F"/>
    <path d="M218.779 119.1C216.459 105.48 214.269 92.0399 212.229 78.3599L213.189 78.7399C211.919 80.0099 210.449 81.0399 209.069 82.1799C201.489 88.2099 187.389 99.4199 179.659 105.53L179.439 104.12C192.609 108.96 205.569 113.98 218.789 119.11L218.779 119.1ZM219.839 120.39C206.279 115.61 192.459 110.72 178.869 105.65C178.279 105.45 178.149 104.61 178.649 104.23C186.459 98.0799 200.479 87.0199 208.169 81.0099C209.609 79.9199 210.969 78.7099 212.519 77.7599C212.799 77.5899 213.169 77.6699 213.339 77.9499C215.769 91.9599 217.789 106.29 219.849 120.38L219.839 120.39Z" fill="#000C1F"/>
    <path d="M212.859 76.5899L220.249 54.2799C220.399 53.8299 220.879 53.59 221.319 53.74C221.779 53.89 222.019 54.4 221.849 54.85L213.429 76.8C213.299 77.15 212.729 76.96 212.859 76.6V76.5899Z" fill="#000C1F"/>
    <path d="M177.48 105.81L154.14 110.17C153.65 110.26 153.19 109.94 153.1 109.46C153.01 108.96 153.35 108.48 153.86 108.41L177.38 105.17C177.79 105.11 177.9 105.75 177.49 105.82L177.48 105.81Z" fill="#000C1F"/>
    <path d="M219.659 120.57L235.219 139.32C235.609 139.79 235.549 140.49 235.069 140.89C234.579 141.3 233.829 141.21 233.459 140.69L219.179 120.95C218.949 120.65 219.419 120.27 219.659 120.58V120.57Z" fill="#000C1F"/>
    <path d="M252.319 93.8699L220.739 54.0899L221.499 55.0099L171.509 62.8399L172.159 62.3099L153.689 109.51L153.599 108.99L187.309 147.48L185.949 146.95L235.999 141.17L235.429 141.63L252.319 93.8799V93.8699ZM254.099 93.5699L236.759 142.09C236.669 142.35 236.439 142.52 236.189 142.55L186.359 149.94C185.829 150.02 185.319 149.8 184.999 149.41L152.809 109.64C152.689 109.49 152.659 109.29 152.719 109.12L170.579 61.6899C170.689 61.3999 170.939 61.2099 171.229 61.1599L221.049 52.3099C221.049 52.3099 221.079 52.3099 221.089 52.3299L221.809 53.2299L254.099 93.5699Z" fill="#000C1F"/>
    <path d="M778.069 789.34C790.239 806.06 802.299 822.64 814.289 839.38L813.409 839.46L839.609 782.81L840.049 783.43C819.379 785.5 798.799 787.43 778.069 789.33C778.069 789.33 798.799 787.43 778.069 789.33V789.34ZM777.109 788.91C797.989 786.73 819.029 784.57 839.959 782.57C840.289 782.53 840.549 782.9 840.399 783.19L814.329 839.9C814.179 840.25 813.659 840.3 813.449 839.98C801.249 823.02 789.119 805.89 777.109 788.9V788.91Z" fill="#000C1F"/>
    <path d="M826.039 810.43C820.169 802.4 814.439 794.44 808.739 786.28L809.479 786.21C809.069 787.44 808.449 788.57 807.919 789.75C804.959 796.07 799.479 807.82 796.469 814.24L795.869 813.4C805.919 812.29 815.879 811.36 826.039 810.42V810.43ZM827.139 810.92C816.859 812.19 806.389 813.48 795.999 814.58C795.549 814.64 795.199 814.14 795.399 813.74C798.469 807.28 803.959 795.65 806.969 789.3C807.549 788.13 808.029 786.92 808.729 785.8C808.859 785.6 809.119 785.54 809.319 785.66C815.389 793.91 821.289 802.49 827.139 810.91V810.92Z" fill="#000C1F"/>
    <path d="M808.569 784.93L806.159 768.18C806.109 767.85 806.339 767.54 806.679 767.49C807.019 767.44 807.339 767.69 807.379 768.04L808.999 784.89C809.029 785.16 808.599 785.22 808.569 784.94V784.93Z" fill="#000C1F"/>
    <path d="M795.159 815.13L781.519 825.43C781.239 825.64 780.829 825.59 780.619 825.3C780.399 825.01 780.469 824.59 780.769 824.38L794.889 814.74C795.129 814.57 795.409 814.95 795.169 815.13H795.159Z" fill="#000C1F"/>
    <path d="M827.08 811.1L843.13 818.19C843.53 818.37 843.72 818.84 843.54 819.25C843.36 819.67 842.84 819.85 842.44 819.64L826.9 811.51C826.66 811.39 826.84 811 827.09 811.11L827.08 811.1Z" fill="#000C1F"/>
    <path d="M839.549 783.4L806.419 767.91L807.209 768.26L777.509 789.36L777.759 788.81L781.019 825.15L780.799 824.84L814.879 838.82L813.829 838.92L844.219 819.12L843.999 819.6L839.549 783.41V783.4ZM840.599 782.64L845.009 819.47C845.029 819.67 844.939 819.85 844.789 819.95L815.049 840.72C814.729 840.94 814.329 840.96 813.999 840.82L780.489 825.52C780.359 825.46 780.279 825.34 780.269 825.21L776.549 788.91C776.529 788.69 776.629 788.48 776.799 788.36L806.059 766.66C806.059 766.66 806.079 766.66 806.089 766.66L806.839 767.01L840.599 782.64Z" fill="#000C1F"/>
    <path d="M281.718 340.02C267.318 329.83 266.728 295.69 254.058 288.14C248.788 285.49 243.078 288.97 238.548 291.72C215.168 306.29 188.578 327.48 168.768 295.29C165.868 288.8 163.658 282.09 161.398 275.45C160.268 272.13 159.118 268.83 157.798 265.62C155.808 260.96 153.618 256.11 149.438 253.15C139.408 246.93 126.148 260.47 118.928 266.65C108.128 276.43 92.3184 280.31 79.1784 272.75C66.5784 265.75 58.9884 252.09 56.6184 238.21C55.9384 235.96 54.9284 232.81 54.0584 230.35C52.2084 225.34 49.5284 220.28 44.8184 217.57L43.9684 217.09C43.6784 216.93 43.3684 216.82 43.0684 216.69L42.1584 216.29C37.2284 214.54 34.7284 208.53 36.7284 203.74C40.7684 193.64 53.5084 197.99 59.6484 203.58C76.0184 218.54 75.9084 259.24 92.1184 257.64C97.3784 257.13 102.028 253.53 106.558 250.9C111.268 247.96 115.918 244.88 120.728 241.98C134.498 233.53 150.398 227.08 163.928 239.78C169.128 244.56 173.298 250.6 175.678 257.24C179.588 267.59 180.848 279.01 187.558 288.05C189.758 290.28 193.718 292.93 197.468 292.71C208.788 292.01 217.778 279.67 227.248 273.65C229.718 271.9 232.818 270.55 235.678 269.49C244.418 266.08 254.888 265.69 263.038 270.91C279.138 281.44 284.428 303.45 289.818 320.68C292.198 325.55 297.808 327.17 301.618 330.78C306.738 334.97 305.828 345.31 298.838 346.96C292.208 348.16 286.688 343.41 281.698 340.01L281.718 340.02ZM282.428 339.04C285.668 341.43 289.338 343.24 292.998 344.49C294.768 345.1 296.658 345.46 298.488 345.17C304.358 344.01 305.198 335.18 300.728 331.75C297.198 328.54 291.468 326.67 288.868 322.04C288.328 321.17 287.928 320.02 287.648 319.06C283.708 305.67 279.338 291.71 270.668 280.62C260.758 268.13 247.818 266.46 233.728 272.78C220.628 277.92 206.948 300.95 191.178 293.17C189.258 292.14 187.608 290.75 186.138 289.25C184.428 286.9 183.058 284.33 181.898 281.7C176.968 270.25 176.378 256.95 168.488 246.94C166.868 244.88 164.918 242.62 162.938 240.89C145.428 224.44 123.648 242.97 107.898 252.97C96.4484 260.75 86.2384 265.72 78.2384 250.53C69.5384 233.91 68.5084 211.49 51.2784 200.93C46.6984 198.3 40.4684 198.73 38.5484 204.38C37.2384 207.92 38.7584 212.09 42.1684 213.79C43.3984 214.38 44.8384 214.99 45.9384 215.74C50.9484 218.84 53.6084 224.52 55.2884 229.91C56.1584 232.61 56.9184 235.33 57.6984 238.02C59.9684 251.56 67.4584 264.97 79.7784 271.63C92.4584 278.75 107.498 274.85 117.788 265.34C125.198 258.86 134.528 249.25 145.148 249.64C156.218 250.97 159.998 265.95 163.408 274.75C165.608 281.15 168.268 288.66 170.778 294.19C184.588 315.7 201.018 311.14 219.948 299.2C225.508 295.77 230.988 292.1 236.648 288.61C244.748 283.3 254.058 280.37 260.708 289.79C270.188 303.53 269.458 328.25 282.418 339.04H282.428Z" fill="#000C1F"/>
    <path d="M722.099 101.79C717.139 89.78 713.199 77.09 713.309 63.94C713.249 56.12 716.989 47.22 726.199 52.24C731.999 55.62 736.049 61.08 739.789 66.41C749.299 80.75 756.059 96.82 759.659 113.63C760.879 119.99 761.959 126.67 760.369 133.13C758.999 138.88 754.089 141.01 748.909 138.11C736.909 131.07 727.609 114.24 722.099 101.78V101.79ZM726.129 100.08C731.099 111.47 736.709 123.1 745.399 132.12C760.749 146.87 759.979 124.29 757.699 114.03C754.189 97.59 747.329 81.65 737.829 67.79C732.159 59.41 716.679 43.07 716.699 63.99C717.129 76.45 721.429 88.62 726.139 100.09L726.129 100.08Z" fill="#000C1F"/>
    <path d="M57.4994 632.23C45.1394 628.2 32.9294 622.97 22.9994 614.34C18.7194 610.73 13.3494 603.36 19.2994 598.68C25.6194 594.3 34.8394 595.21 42.0694 595.81C59.1494 597.89 75.7594 603.17 90.8894 611.35C96.5194 614.55 102.309 618.07 106.189 623.47C109.669 628.25 108.109 633.37 102.539 635.43C89.3194 639.99 70.6194 636.14 57.5094 632.24L57.4994 632.23ZM58.8094 628.05C70.6994 631.66 83.1894 634.94 95.6894 634.19C107.109 633.21 108.859 627.81 100.209 620.22C90.5894 612.04 78.5094 607.2 66.5794 603.31C54.5594 599.77 41.8794 596.95 29.3494 598.19C18.2794 599.53 16.5394 604.46 25.2194 611.79C34.9794 619.55 47.0294 624.18 58.8094 628.05Z" fill="#000C1F"/>
    <path d="M503.949 294.77C499.039 278.94 496.569 262.69 493.999 246.4C486.929 197.82 484.459 148.49 487.949 99.5C487.989 98.57 488.959 97.92 489.829 98.23C492.469 99 494.969 99.92 497.479 100.96C501.879 102.81 506.209 105.14 509.899 108.25C510.769 108.77 511.009 109.81 511.649 110.54C510.919 109.72 509.359 109.88 508.799 110.78C508.569 111.16 508.619 111.16 508.599 111.2C508.599 111.22 508.599 111.2 508.599 111.16C508.559 98.73 506.439 86.3 504.999 73.9C502.139 53.13 499.079 32.19 494.079 11.85C493.229 8.94997 492.569 5.70996 490.929 3.37997C490.899 3.34997 490.929 3.40996 491.129 3.44996C475.509 7.07996 450.019 52.84 441.299 68.12C436.319 77.26 431.149 86.51 426.969 96.03L425.599 94.31L448.459 91.76L449.529 93.73C447.639 97.44 446.919 101.83 446.069 105.95C445.279 110.29 444.679 114.68 444.189 119.09C443.179 127.9 442.559 136.77 442.089 145.65C439.759 194.51 441.209 243.57 443.129 292.43L443.409 299.1C443.459 300.63 443.559 302.17 443.859 303.68C443.889 303.44 443.719 303.01 443.529 302.84C443.349 302.59 443.129 302.6 443.179 302.45C443.219 302.4 443.329 302.32 443.299 302.28C444.019 302.08 444.749 301.99 445.479 301.89C446.579 301.75 450.069 301.22 451.249 301.06C465.089 299.05 491.019 295.53 505.129 293.58L504.819 293.64C504.689 293.67 504.489 293.76 504.309 293.93C504.129 294.09 504.029 294.29 503.979 294.43C503.899 294.72 503.949 294.77 503.949 294.78V294.77ZM508.609 293.1C508.879 293.9 509.019 294.83 508.689 295.93C508.349 297.13 507.049 298.32 505.789 298.45C495.599 299.8 469.429 303.3 459.569 304.57C457.119 304.85 450.399 305.75 448.009 306.03C446.949 306.13 445.229 306.45 444.149 306.46L444.419 306.41C443.539 306.54 442.869 306.45 442.049 306.13C441.229 305.83 440.269 304.85 440.329 303.84C440.499 302.3 440.479 300.77 440.399 299.24C440.219 295.29 439.809 283.38 439.649 279.2C438.189 234.66 437.249 190.05 439.529 145.51C440.029 136.6 440.679 127.69 441.719 118.81C442.879 110.19 443.719 101.26 447.109 93.14C447.219 92.93 447.329 92.7 447.469 92.48C447.529 92.4 447.549 92.34 447.669 92.19L448.739 94.16C448.739 94.16 425.899 96.89 425.889 96.89C425.179 96.99 424.519 96.48 424.439 95.77C424.639 94.18 425.619 92.81 426.169 91.43L427.919 87.86C436.249 71.36 445.329 55.25 455.219 39.63C462.289 29.01 478.379 2.89997 490.959 0.859968C494.229 0.319968 495.849 8.89997 496.659 11.15C501.929 31.68 505.009 52.54 508.309 73.43C509.849 83.88 511.349 94.3 512.339 104.89C512.479 107.31 512.879 109.73 512.469 112.19C512.169 113.74 510.299 114.57 508.999 113.53C508.289 112.77 507.339 112.71 506.649 111.89C501.539 107.19 495.369 103.66 488.939 100.94L490.819 99.67C490.339 107.8 489.979 115.93 489.809 124.07C489.039 164.76 492.069 205.52 498.379 245.7C501.049 261.58 503.709 277.76 508.609 293.07V293.1Z" fill="#000C1F"/>
    <path d="M941.068 42.56C952.868 53.57 969.848 71.79 972.458 88.09C973.408 95 969.268 99.61 962.258 99.39C954.008 99.1 946.418 95.39 939.308 91.63C925.288 83.79 912.878 73.33 902.128 61.44C895.038 53.37 888.488 44.71 884.358 34.66C878.198 19.63 885.378 11.49 901.018 16.63C916.258 21.87 929.258 31.9 941.068 42.55V42.56ZM939.788 43.97C927.808 33.42 909.088 18.92 892.858 17.86C876.648 18.09 890.258 40.23 895.118 46.8C904.308 59.44 915.668 70.5 928.008 80.05C936.228 86.3 945.088 92.2 954.898 95.51C968.398 99.89 973.698 94.19 968.328 80.98C962.158 66.53 951.158 54.61 939.788 43.96V43.97Z" fill="#000C1F"/>
    <path d="M884.379 24.8199C884.399 24.6899 815.059 183.97 815.739 181.82C816.599 187.58 823.349 183.03 826.469 181.39L831.219 178.67C865.569 158.66 928.969 121.05 963.839 100.58C964.139 100.4 964.519 100.5 964.699 100.8C964.869 101.1 964.779 101.48 964.489 101.65C923.879 126.72 873.919 157.32 832.989 181.7C830.169 183.28 826.139 185.92 823.129 187.12C820.139 188.49 815.339 188.72 813.709 185.15C813.149 183.91 812.839 182.58 813.179 181.23L882.199 23.8399C882.459 23.2399 883.169 22.9599 883.769 23.2299C884.369 23.4999 884.649 24.1999 884.379 24.7999V24.8199Z" fill="#000C1F"/>
    <path d="M499.7 391.59C483.28 392.76 467.16 393.82 450.88 394.59L453.02 392.61C449.49 416.36 437.91 447.83 411.46 453.15L409.12 453.49L407.95 453.65C407.56 453.68 407.17 453.69 406.78 453.71L404.43 453.81C390.15 453.75 375.68 451.65 362.55 445.76C356.96 443.2 351.49 440.02 347.07 435.67L350.33 435.73L313.44 472.62L313.67 469.69C324.59 486.67 335.62 509.09 332.6 529.77C331.41 536.72 328.05 543.33 322.93 548.2C321.45 549.69 319.59 551.56 317.98 552.93C305.45 564.06 290.04 572.09 273.65 575.72C272.12 576.04 270.66 576.34 268.99 576.55L271.07 574.29V627.16L269.45 624.99C274.95 627.03 280.2 629.26 285.44 631.66C295.88 636.55 306.07 642.1 314.84 649.7C321.4 655.34 327.98 662.91 328.72 672.13C329.42 689.68 324.36 707.04 316.76 722.71C315.46 725.32 314.12 727.85 312.53 730.41L312.34 727.76C320.17 737.99 328.34 747.93 336.8 757.64C339.64 760.86 342.52 764.04 345.54 767.11L342.47 766.74C356.91 756.92 374.94 747.4 392.87 747.78C399.14 747.82 405.15 750.38 410.51 753.42C415.82 756.28 420.92 759.61 425.58 763.53C440.09 775.34 447.96 792.97 449.34 811.41C449.34 811.42 447.08 809.33 447.08 809.33H503.76L501.51 811.82C501.1 805.66 501.55 799.74 502.64 793.73C504.78 781.85 510.54 769.81 520.85 762.89C524.59 760.23 528.9 758.6 533.09 756.89C551.69 749.5 572.05 747.39 590.14 757.48C595.51 760.35 600.42 763.93 604.98 767.85L601.42 767.92L642.97 729.59L642.94 731.29C638.65 727.17 634.98 722.6 631.65 717.7C620.4 701.32 615.01 679.56 626.83 661.98C635.89 648.1 649.78 637.72 665.57 632.78C671.25 630.99 677.02 629.74 683.05 629.51L681.79 630.87L680.88 569.62L683.14 571.89C656.62 569.98 626 558.86 625 528.03C623.38 508.06 630.46 487.77 643.16 472.39C643.65 471.8 644.13 471.25 644.71 470.63V473.92L604.15 435.81L607.22 435.84C596.63 444.93 584.21 451.88 570.48 454.74C558.24 457.26 544.43 455.48 534.71 447.12L530.97 444.44L530.04 443.77L529.17 443.02L527.43 441.52C526.5 440.72 524.85 439.35 524.01 438.44C511.12 425.87 502.42 409.01 499.13 391.34L499.03 390.75L499.01 390.6C499.05 390.95 499.37 391.46 499.72 391.61L499.7 391.59ZM502.65 388.15C503.55 389.13 503.48 390.48 503.7 391.71C506.46 408.25 514.5 424.08 526.52 435.81C528.21 437.53 530.45 439.31 532.26 440.91C534.95 442.75 537.48 445.06 540.52 446.19C545.75 448.45 551.03 450.47 556.76 450.77C568.31 451.57 579.66 447.71 589.73 442.21C594.8 439.41 599.82 436.09 604.23 432.4C605.12 431.65 606.41 431.7 607.24 432.48C607.28 432.52 647.82 470.6 647.85 470.63C648.74 471.47 648.78 472.87 647.95 473.76C647.47 474.22 646.88 474.74 646.37 475.29C644.87 476.77 643.55 478.41 642.22 480.05C630.55 494.99 625.43 513.29 627.74 532.1C630.14 552.1 648.06 562.28 666.28 565.71C671.8 566.75 677.59 567.42 683.16 567.33C684.41 567.32 685.44 568.34 685.42 569.6L684.51 630.85C684.49 631.57 683.94 632.14 683.24 632.21C662.76 635.99 643.28 647.62 631.88 665.26C621.25 680.77 626.27 700.34 635.1 715.55C637.89 720.46 641.11 725.23 644.66 729.61C645.1 730.09 645.09 730.85 644.63 731.31L605.04 771.67C604.1 772.63 602.59 772.68 601.58 771.83C582.66 754.44 562.68 751.29 538.67 759.45C533.42 761.28 527.82 763.25 523.22 766.37C509 776.09 504.89 795.11 506 811.4C506.12 812.71 505.06 813.87 503.74 813.86H447.06C445.87 813.86 444.89 812.94 444.8 811.77C444.29 806.03 443.28 800.36 441.54 794.91C435.72 775.43 419.14 761.22 400.72 753.6C392.7 750.87 384.01 752.28 375.94 754.71C364.93 758.19 354.37 763.89 344.95 770.5C344.01 771.17 342.71 770.95 342.04 770.02C339.53 766.52 336.87 763.15 334.18 759.81C326.03 749.84 317.6 740.12 308.84 730.67C308.15 729.91 308.1 728.83 308.65 728.02C309.98 725.69 311.26 723.14 312.45 720.64C318.86 706.79 323.58 691.81 324.16 676.49C324.49 672.54 324.11 668.6 322.58 664.86C317.3 651.89 303.94 644.05 291.86 638.05C284.26 634.47 276.21 631.41 268.12 629.34C267.12 629.09 266.46 628.16 266.5 627.17C266.5 627.17 266.5 574.3 266.5 574.29C266.5 573.11 267.42 572.13 268.58 572.04C269.89 571.94 271.39 571.74 272.8 571.5C277.12 570.75 281.37 569.61 285.53 568.2C297.99 563.88 309.63 556.75 319.07 547.53C337.33 532 328.93 505.42 319.29 487.31C316.51 482.13 313.41 477 309.97 472.34C309.31 471.43 309.43 470.18 310.2 469.41L347.09 432.52C347.97 431.64 349.38 431.64 350.27 432.5C352.15 434.36 354.64 436.08 356.92 437.5C371.95 446.42 390.13 449.38 407.44 448.67C407.89 448.62 409.95 448.28 410.48 448.22C411.66 447.92 413.31 447.59 414.42 447.15C419.67 445.48 424.31 442.29 428.2 438.41C440.03 426.05 445.63 408.57 448.49 392.01C448.64 390.91 449.55 390.1 450.63 390.04C467.95 389.17 485.44 388.59 502.63 388.12L502.65 388.15Z" fill="#000C1F"/>
    <path d="M503.089 389.08L532.199 414C532.649 414.38 532.899 414.91 532.939 415.45C532.969 418.25 533.049 421.13 533.239 423.97C533.799 430.86 534.349 438.04 537.229 444.39C537.839 445.61 538.589 446.76 539.619 447.54C540.169 447.95 539.579 448.84 538.979 448.46C536.379 446.76 535.079 443.91 533.899 441.2C530.739 433.05 529.409 424.44 528.419 415.78L529.169 417.36L501.229 391.14C499.959 389.93 501.689 387.91 503.089 389.07V389.08Z" fill="#000C1F"/>
    <path d="M648.06 470.63L672.5 495.54C673.02 496.03 673.11 496.82 672.72 497.4C666.56 507.68 661.51 518.92 658.44 530.54C655.53 541.91 654.4 554.83 660.38 565.35C660.67 565.86 660.5 566.51 659.99 566.8C659.49 567.09 658.84 566.92 658.55 566.42C649.14 549.62 655.12 529.03 661.89 512.39C664.31 506.71 667.01 501.2 670.19 495.83L670.41 497.69L644.89 473.88C642.73 471.77 645.84 468.5 648.05 470.64L648.06 470.63Z" fill="#000C1F"/>
    <path d="M685.099 567.93C685.099 567.93 717.129 594.23 717.139 594.24C717.439 594.49 717.599 594.85 717.599 595.21L717.739 660.65C717.739 661.39 717.159 662 716.419 662.04C710.899 662.67 705.309 663.7 699.909 665.11C689.429 667.88 678.519 672 670.989 679.9C667.219 683.86 665.189 689.11 662.929 693.98C658.299 704.09 656.649 715.11 660.059 725.82C663.279 736.52 669.299 746.3 675.409 755.66C675.719 756.08 675.669 756.65 675.319 757.02L633.159 803.34C632.389 804.19 631.119 804.29 630.219 803.65C621.129 797.54 610.969 792.42 600.489 789.08C590.179 785.87 578.679 784.25 568.429 788.21C563.289 790.1 559.079 793.71 555.349 797.64C551.449 801.61 547.879 805.9 544.739 810.5C538.609 819.59 533.729 830.12 532.899 841.13C532.899 841.64 532.509 842.07 532.009 842.12C531.999 842.12 476.149 848.44 476.139 848.44C475.499 848.51 474.899 848.24 474.519 847.77L445.309 812.83C443.499 810.46 446.779 807.69 448.789 809.92C448.809 809.95 477.369 845.37 477.389 845.41L475.769 844.74L531.799 840.13L530.899 841.12C531.529 829.54 536.339 818.65 542.549 809.02C545.689 804.23 549.289 799.74 553.219 795.58C557.149 791.26 561.689 787.31 567.209 785.16C583.879 778.62 602.229 784.44 617.689 791.53C622.889 794 627.879 796.7 632.779 799.91L629.839 800.22L673.739 755.55L673.649 756.9C665.019 745.42 656.619 732.83 654.429 718.28C653.129 709.43 655.329 700.22 658.809 692.24C661.229 686.8 663.469 681.17 667.649 676.83C678.139 666.04 693.189 661.99 707.569 659.98C710.449 659.61 713.289 659.34 716.239 659.27L714.919 660.66L715.059 595.22L715.519 596.19L683.169 570.28C682.519 569.76 682.419 568.82 682.939 568.17C683.459 567.52 684.419 567.42 685.059 567.95L685.099 567.93Z" fill="#000C1F"/>
    <path d="M270.65 624.55L293.23 658.38L292.31 657.83C298.02 658.61 303.68 659.5 309.33 660.57C311.41 661.02 328.7 663.96 325.72 667.17C325.3 667.38 324.92 667 324.63 666.76C323.86 665.96 322.52 665.6 321.45 665.22C311.88 662.56 301.86 661.59 292.01 660.45C291.62 660.41 291.29 660.2 291.09 659.9L266.95 627.17C265.22 624.69 268.87 622.06 270.66 624.57L270.65 624.55Z" fill="#000C1F"/>
    <path d="M439.97 789.99C435.5 787.39 430.15 786.12 425.03 785.49C413.61 784.17 401.78 786.28 391.1 790.43C383.89 793.16 377.11 796.94 370.75 801.26C369.79 801.82 368.52 801.72 367.88 800.77C361.76 792.26 355.17 784.11 348.25 776.24C345.91 773.65 343.49 771.13 340.83 768.81C339.88 767.98 339.78 766.53 340.61 765.58C341.59 764.42 343.52 764.58 344.29 765.89C346.14 768.9 348.23 771.7 350.39 774.44C357.01 782.56 363.96 790.41 371.34 797.86L368.47 797.37C371.4 796.12 374.25 794.76 377.12 793.44C378.62 792.84 382.27 791.37 383.7 790.77C396.16 785.98 409.42 782.75 422.86 783.06C429.32 783.29 435.82 784.1 441.88 786.5C444.44 787.73 442.45 791.5 439.97 790V789.99Z" fill="#000C1F"/>
    <path d="M566.14 601.96C566.21 636.63 543.76 669.43 511.86 682.68C454.47 707.3 390.28 664.17 390.2 601.96C389.92 539.32 454.43 495.99 512.27 520.26C544.59 533.43 566.79 567.1 566.14 601.96ZM561.61 601.96C561.4 543.43 500.81 503.38 446.86 525.75C416.5 537.9 395.44 569.24 395.74 601.96C395.57 661.13 455.7 701.08 510.4 679.16C541.28 667.14 562.31 634.99 561.61 601.96Z" fill="#000C1F"/>
    <path d="M420.07 666.09C396.76 598.82 454.18 528.69 525.1 544.34C534.15 546.43 542.86 549.95 550.77 554.74C551.2 555 551.33 555.55 551.08 555.98C550.83 556.4 550.29 556.54 549.86 556.3C534.06 547.4 515.57 543.56 497.66 545.49C479.74 547.33 462.56 554.91 449.08 566.83C428.57 584.54 417.08 611.7 417.84 638.73C418.01 647.75 419.51 656.75 422.28 665.36C422.48 665.97 422.14 666.63 421.53 666.83C420.93 667.03 420.28 666.7 420.07 666.1V666.09Z" fill="#000C1F"/>
    <path d="M584.899 427.66C585.009 426.3 585.059 423.34 585.149 422.05C585.129 419.12 584.199 416.31 582.669 413.77C575.109 402.02 558.059 394.78 545.139 390.45C544.419 390.22 543.959 389.56 543.959 388.84L543.989 351.21C543.989 350.34 544.659 349.63 545.509 349.56C549.509 349.1 553.639 347.95 557.479 346.59C565.269 343.77 572.619 339.42 578.819 333.92C583.499 330 587.459 325.27 588.419 319.06C590.479 304.72 583.229 289.96 575.349 278.36C575.009 277.89 575.069 277.26 575.469 276.87C577.659 274.68 579.789 272.44 581.949 270.22L588.399 263.54L594.869 256.89L601.379 250.27C602.029 249.6 603.119 249.62 603.749 250.31C613.789 259.25 630.499 262.36 643.679 262.6C658.919 262.03 667.359 246.58 671.049 233.5C672.169 229.56 673.109 225.48 673.649 221.49C673.749 220.74 674.369 220.18 675.109 220.14C687.059 219.17 699.089 219.93 710.989 218.35C711.839 218.28 712.569 218.93 712.639 219.76C713.269 223.76 714.299 227.9 715.669 231.76C718.699 240.64 723.819 249.07 731.079 255.12C735.009 258.5 739.459 261.53 744.509 262.87C754.619 265.73 765.289 262.32 774.149 257.27C777.749 255.23 781.269 252.82 784.319 250.16C784.989 249.57 785.979 249.6 786.619 250.18C793.359 256.38 801.479 264.33 808.089 270.73L815.119 277.71C815.589 278.16 815.609 278.9 815.149 279.37C805.059 289.29 799.919 304.05 801.379 318.09C801.709 323.94 803.789 329.74 807.809 334.06C816.209 342.74 828.799 346.42 840.619 347C841.079 347.01 841.439 347.4 841.439 347.85L841.389 369.65C841.369 376 841.339 385.17 841.359 391.45C841.359 391.86 841.039 392.2 840.639 392.23C836.679 392.67 832.679 393.71 828.889 395.1C819.429 398.56 810.749 404.62 804.899 412.87C792.729 428.14 802.399 448.52 813.429 461.51C813.889 461.97 813.899 462.76 813.399 463.2C806.129 469.69 798.439 477.2 791.539 484L784.479 491.17C784.069 491.59 783.409 491.61 782.969 491.25C769.179 479.52 754.719 477.23 737.759 483.07C734.039 484.37 730.039 485.77 726.769 487.96C716.599 494.84 713.549 508.39 714.149 520.01C714.219 520.75 713.619 521.4 712.869 521.38L672.529 521.01C671.939 521.01 671.469 520.52 671.469 519.94C671.469 519.36 671.949 518.89 672.529 518.88L712.869 518.83L711.599 520.23C710.729 507.55 713.979 493.02 724.999 485.39C728.509 482.96 732.719 481.44 736.699 479.98C748.729 475.58 762.939 474.98 774.219 481.81C777.969 483.93 781.319 486.62 784.439 489.49L782.879 489.52C790.009 482.82 797.909 475.64 804.679 468.66L811.729 461.48L811.699 463.17C798.349 449.34 789.459 428.31 803.229 411.64C812.069 399.9 825.939 392.33 840.509 390.67L839.789 391.45C839.819 387.82 839.789 384.18 839.789 380.55C839.769 373.7 839.739 354.96 839.719 347.85L840.569 348.7C822.929 348.32 801.019 341.94 798.909 321.44C797.209 305.61 802.919 289.5 813.529 277.71V279.39C804.019 271.07 793.459 261.28 784.269 252.66L786.569 252.68C783.139 255.58 779.549 257.97 775.699 260.09C764.359 266.45 749.539 269.08 737.899 262.04C726.789 255.17 718.109 244.74 712.999 232.75C711.339 228.7 709.999 224.57 709.459 220.07L711.109 221.48C699.109 221.07 687.209 223 675.229 223.19L676.689 221.84C674.049 237.48 666.469 257.67 650.159 263.24C648.709 263.71 646.929 264.18 645.409 264.37L644.599 264.5L643.789 264.56C629.079 265.58 612.519 262.81 601.309 252.51L603.679 252.55C597.819 258.38 589.669 266.24 583.729 271.98C581.509 274.14 579.269 276.27 577.079 278.46L577.199 276.97C585.909 290.35 596.449 310.01 589.459 326.04C587.109 331.14 582.639 334.86 578.469 338.44C572.499 343.17 565.759 347.05 558.579 349.63C554.389 351.11 550.249 352.28 545.769 352.8L547.289 351.15L547.319 388.78L546.119 387.17C560.799 392 585.779 402.54 588.269 419.87L588.399 421.99C588.279 423.92 588.219 426.13 588.109 427.91C588.069 428.8 587.309 429.48 586.419 429.44C585.479 429.39 584.779 428.55 584.899 427.61V427.66Z" fill="#000C1F"/>
    <path d="M712.408 219.37L733.128 237.11C733.478 237.41 733.648 237.81 733.658 238.24C733.658 240.2 733.738 242.22 733.868 244.21C734.148 248.17 734.568 252.19 735.668 256.01C736.238 257.8 736.918 259.79 738.398 260.98C738.578 261.11 738.618 261.37 738.478 261.55C738.348 261.71 738.128 261.75 737.948 261.65C736.988 261.05 736.308 260.18 735.738 259.29C732.208 252.91 731.348 245.51 730.428 238.39L730.958 239.52L711.068 220.86C710.158 220.01 711.418 218.55 712.388 219.39L712.408 219.37Z" fill="#000C1F"/>
    <path d="M815.609 277.41C815.609 277.41 833.009 295.15 833.039 295.18C833.389 295.53 833.429 296.07 833.169 296.47C828.789 303.79 825.189 311.79 823.009 320.06C820.939 328.16 820.139 337.35 824.389 344.84C824.599 345.2 824.469 345.66 824.109 345.87C823.749 346.08 823.289 345.95 823.079 345.6C816.379 333.57 820.629 319.04 825.459 307.14C827.179 303.09 829.099 299.17 831.369 295.35L831.529 296.67L813.359 279.72C811.809 278.24 814.049 275.88 815.609 277.41Z" fill="#000C1F"/>
    <path d="M841.968 346.67C841.968 346.67 864.768 365.39 864.768 365.4C864.978 365.58 865.088 365.83 865.098 366.09L865.198 412.67C865.198 413.2 864.778 413.63 864.258 413.66C860.328 414.11 856.348 414.85 852.508 415.84C845.048 417.8 837.258 420.73 831.918 426.36C829.248 429.2 827.798 432.93 826.178 436.39C822.848 443.58 821.738 451.44 824.148 459.06C826.438 466.68 830.718 473.64 835.078 480.3C835.298 480.6 835.258 481.01 835.008 481.26L804.998 514.23C804.468 514.81 803.608 514.9 802.978 514.49C799.758 512.3 796.248 510.29 792.698 508.53C782.428 503.6 770.118 499.33 758.938 503.45C755.278 504.8 752.288 507.36 749.628 510.17C746.848 513 744.308 516.05 742.078 519.32C737.718 525.79 734.248 533.29 733.648 541.13C733.648 541.5 733.368 541.8 733.008 541.84L693.248 546.34C692.798 546.39 692.358 546.19 692.098 545.86L671.848 520.55C671.538 520.16 671.598 519.58 671.988 519.27C672.378 518.96 672.938 519.02 673.258 519.39L694.138 544.18L692.988 543.7L732.868 540.42C732.868 540.42 732.228 541.13 732.228 541.12C732.398 536.91 733.498 532.97 734.918 529.14C737.838 521.51 742.528 514.63 748.118 508.72C750.918 505.64 754.148 502.84 758.078 501.3C773.298 495.39 791.778 503.67 804.758 511.8L802.668 512.02L833.918 480.22L833.848 481.18C828.948 474.7 824.298 467.82 821.628 459.84C818.688 451.89 819.878 442.74 823.308 435.16C825.018 431.28 826.608 427.27 829.598 424.19C838.608 415.11 851.948 412.41 864.168 411.68C864.168 411.68 863.228 412.67 863.238 412.67L863.338 366.09L863.668 366.78L840.648 348.34C840.188 347.97 840.108 347.3 840.478 346.84C840.848 346.38 841.528 346.3 841.988 346.68L841.968 346.67Z" fill="#000C1F"/>
    <path d="M546.96 386.98L563.03 411.06L562.37 410.67C566.43 411.22 570.46 411.86 574.49 412.62C576.01 412.96 588.39 415.02 586.12 417.39C585.8 417.52 585.48 417.33 585.37 417.03C584.99 416.56 583.79 416.15 583.1 415.93C576.29 414.04 569.16 413.35 562.14 412.53C561.86 412.5 561.63 412.35 561.48 412.14L544.3 388.84C543.06 387.09 545.68 385.19 546.94 386.99L546.96 386.98Z" fill="#000C1F"/>
    <path d="M757.298 370.9C757.528 395.61 741.308 418.91 718.658 428.36C678.028 445.89 632.528 414.88 632.828 370.9C632.608 346.36 648.408 322.84 671.178 313.74C711.598 296.99 757.308 326.91 757.288 370.9H757.298ZM754.068 370.9C754.318 328.64 711.138 299.2 671.978 315.66C650.068 324.54 634.918 347.25 635.238 370.9C635.478 413.32 678.458 441.45 717.618 425.85C739.658 417.31 754.388 394.38 754.068 370.9Z" fill="#000C1F"/>
    <path d="M653.32 416.55C636.66 368.81 677.72 318.64 728.08 329.88C734.53 331.36 740.7 333.9 746.35 337.28C747.02 337.73 746.48 338.78 745.7 338.39C734.46 332.04 721.29 329.34 708.54 330.7C682.74 333.11 660.41 353.09 653.99 378.03C650.68 390.4 650.93 403.76 654.87 416.02C655.01 416.46 654.77 416.92 654.34 417.06C653.91 417.2 653.45 416.97 653.3 416.54L653.32 416.55Z" fill="#000C1F"/>
    <path d="M233.339 479.74C225.609 478.73 217.599 479.56 209.759 479.35C168.029 479.94 129.469 464.23 100.649 433.94C89.3093 422.37 79.6193 409.34 71.1193 395.65C70.3493 394.46 71.0093 392.79 72.3793 392.44C75.2193 391.84 77.9893 391.45 80.7993 391C86.7393 390.09 92.6693 389.23 98.6693 388.85C98.9093 388.85 98.8693 388.8 98.6693 388.9C98.5293 388.96 98.3793 389.09 98.2793 389.29C98.1893 389.45 98.1793 389.62 98.1793 389.67C97.5793 388.49 96.0593 386.78 94.8793 385.56C79.0593 369.91 61.1993 356.28 43.4993 342.82C34.5393 336.17 25.4993 329.59 16.0893 323.68C13.7293 322.23 11.3393 320.8 8.90929 319.63C7.84929 319.12 6.74929 318.62 5.65929 318.54C5.63929 318.54 5.74928 318.53 5.89928 318.38C5.90928 318.37 5.93928 318.33 5.92928 318.34L5.89928 318.39C5.29928 319.27 4.84928 320.23 4.48928 321.25C-2.44072 342.21 15.1393 412.58 23.8293 434.78L21.1993 434.58C21.5593 433.35 22.4293 432.53 23.1393 431.58L25.3593 428.8C29.7193 423.41 34.3693 417.51 38.8293 412.27C39.7493 411.08 41.7693 411.6 42.0193 413.06C42.6693 416.12 43.5993 419.31 44.6093 422.39C72.6193 502.79 153.599 536.94 233.659 538.54L238.609 538.66L239.849 538.69H240.159L240.309 538.7H240.389C240.169 538.91 241.079 538.24 239.569 539.17C239.439 539.41 239.449 539.47 239.449 539.47C239.449 539.5 239.449 539.47 239.449 539.47V539.37C239.169 531.89 238.189 524.42 237.319 516.96C235.799 504.57 233.719 491.5 231.819 479.16C231.819 478.98 231.779 478.7 231.779 478.59C231.779 478.59 231.799 478.64 231.859 478.73C231.929 478.85 231.889 478.8 232.079 479.03C232.139 479.1 232.509 479.54 233.329 479.72L233.339 479.74ZM234.149 475.24C235.019 475.44 235.429 475.9 235.519 476.02C235.749 476.29 235.729 476.29 235.829 476.45C235.939 476.63 235.999 476.77 236.039 476.87L236.239 477.36C236.879 478.8 237.129 480.39 237.289 481.92C238.709 493.48 239.339 505.1 240.119 516.7L241.449 536.56C241.489 537.4 241.539 538.22 241.539 539.1V539.45L241.519 539.66L241.499 539.82C241.479 539.87 241.499 539.98 241.339 540.26C239.799 541.24 240.639 540.54 240.379 540.75H240.299H240.139H239.829L238.589 540.71L233.609 540.59C177.649 538.96 118.839 523.22 78.4993 482.39C59.7993 463.35 44.9193 439.81 38.4693 413.72L41.6593 414.51C37.4593 419.95 32.7893 425.89 28.4293 431.24L26.1993 434.01C25.4293 434.91 24.8193 435.94 23.6993 436.56L22.7393 437.08C22.1793 437.38 21.4793 437.18 21.1793 436.62C18.7493 431.27 17.3993 425.66 15.7293 420.06C9.8093 398.02 -5.91072 337.7 3.10928 318.33C3.29928 317.89 3.60928 317.5 3.85928 317.08C4.13928 316.58 4.70929 316.21 5.24929 316.14C6.99929 315.93 8.44929 316.81 9.93929 317.43C12.5393 318.69 14.9493 320.14 17.3493 321.63C36.2493 333.77 53.8593 347.59 71.3793 361.59C80.0693 368.74 88.7793 375.73 96.7693 383.72C98.1393 385.2 99.7293 386.71 100.629 388.62C100.839 389.11 100.989 389.85 100.649 390.5C100.369 391.21 99.2493 391.52 98.8593 391.49C95.7693 391.74 92.6693 392.08 89.5993 392.59C84.1393 393.43 78.6993 394.84 73.5293 396.56L74.7893 393.35C105.249 443.5 149.519 475.79 209.789 474.8C217.919 474.99 225.989 474.11 234.139 475.2L234.149 475.24Z" fill="#000C1F"/>
    <path d="M766.359 643.48C775.219 642.23 783.769 642.27 792.549 641.31C853.579 636.37 903.069 602.58 935.269 551.26C936.359 549.38 937.309 547.41 937.929 545.25C937.929 545.25 939.409 548.65 939.409 548.64C929.399 546.09 919.139 544.24 908.839 543.39L907.739 543.3C907.649 543.28 907.159 543.32 906.589 543C906.019 542.75 905.569 541.78 905.679 541.23C905.909 539.82 906.359 539.48 906.989 538.53C914.889 529.35 924.469 522.14 933.639 514.36C952.189 499.36 970.959 484.68 990.919 471.55C995.139 468.98 999.249 466.04 1004.07 464.58C1004.92 464.37 1006.39 464.28 1007.05 465.35L1007.14 465.48L1007.31 465.74C1018.89 484.55 998.239 563.03 990.899 585.77C990.309 587.34 989.969 588.63 989.129 590.21C989.009 590.84 988.399 591.24 987.779 591.12C987.659 591.1 987.549 591.06 987.449 591L986.379 590.42C985.199 589.78 984.569 588.7 983.759 587.76L981.429 584.87C976.829 579.27 971.999 573.06 967.599 567.38L970.939 566.55C969.809 572.2 968.389 577.56 966.649 582.94C961.539 599.07 952.289 613.57 941.749 626.68C913.459 661.87 871.419 683.22 827.859 692.47C805.339 697.41 782.079 699.21 759.209 699.79C758.279 699.48 758.099 698.7 758.049 697.89C758.219 689.39 759.779 680.97 760.709 672.53C761.889 663.83 763.029 655.12 764.669 646.49C764.739 645.81 764.629 645.17 765.009 644.51C765.239 644.02 765.809 643.58 766.369 643.49L766.359 643.48ZM766.979 646.95C767.379 646.9 767.879 646.58 768.049 646.24C768.069 646.19 768.049 646.2 768.039 646.22C767.479 646.92 767.179 647.89 767.059 648.8C766.409 652.2 765.909 655.64 765.419 659.07C763.649 671.97 762.299 685.1 761.149 698C761.019 697.46 760.749 697.1 760.129 696.86C759.649 696.76 759.499 696.8 759.719 696.79C793.219 696.79 827.009 691.15 858.309 679.11C908.899 659.33 944.739 623.98 964.789 573.5C965.699 571.01 966.669 568.39 967.199 565.83C967.389 564.25 969.629 563.72 970.539 565C976.009 571.45 981.649 578.58 986.939 585.2C987.679 586.19 988.599 587.05 988.969 588.33L986.219 588.54C987.399 586.07 988.299 583.15 989.169 580.51C996.049 558.91 1015.71 484.74 1005.05 466.91L1004.98 466.81C1004.96 466.78 1004.92 466.72 1004.98 466.79C1005.13 466.95 1005.26 466.97 1005.23 466.96C1003.33 467.17 1001.59 468.23 999.819 469.12C986.949 476.41 975.089 485.4 963.179 494.21C948.969 504.95 934.979 516.03 921.649 527.83C917.189 531.98 912.169 536.07 908.659 540.99C908.509 541.21 908.419 541.55 908.449 541.4C908.449 541.36 908.449 541.23 908.379 541.04C908.309 540.85 908.109 540.65 907.979 540.58C907.739 540.45 907.639 540.5 907.909 540.5C909.769 540.64 911.669 540.77 913.519 540.96C922.119 541.86 931.689 543.09 940.269 544.22L941.369 544.78C942.439 545.3 942.649 546.84 941.749 547.62C938.349 550.68 936.229 554.5 933.699 558.08C931.219 561.69 928.639 565.23 925.969 568.7C909.969 589.55 890.659 608.09 867.799 621.31C845.039 634.7 819.099 642.24 792.879 644.71C784.339 645.69 775.369 645.73 766.969 646.95H766.979Z" fill="#000C1F"/>
    <path d="M328.259 168.1C350.349 164.08 366.589 188.39 354.299 207.31C346.599 219.28 329.519 222.46 318.039 214.04C299.769 200.79 306.199 172.28 328.259 168.1ZM328.409 168.91C315.629 171.13 306.969 184.25 309.859 196.8C314.159 216.48 339.879 221.79 351.609 205.46C363.799 188.48 349.099 165.17 328.409 168.91Z" fill="#000C1F"/>
    <path d="M227.61 711.77C208.64 712.34 186.53 685.08 170.48 684.94C163.44 685.19 160.44 692.55 158.16 698.25C155.48 704.87 153.08 711.67 150.3 718.36C147.48 725.09 144.43 731.79 140.06 737.72C129.92 751.81 115.55 753.27 100.16 747.33C94.8096 744.46 89.7596 741.11 84.7596 737.76C77.3396 732.91 70.2096 727.4 61.8696 724.38C44.7796 718.06 40.1696 740.68 37.8996 752.9C36.8696 758.79 35.5096 764.67 33.2296 770.28C31.2696 775.62 25.9796 784.69 19.3196 779.52C12.5896 773.24 13.9196 761.35 13.5996 752.93C15.0196 732.49 24.2596 707.29 46.5396 702.31C58.6496 699.88 71.5296 703.1 81.6396 709.9C91.5396 716.41 99.9296 725.5 111.45 728.94C121.23 730.62 127.11 725.22 130.23 715.88C133.91 705.6 134.01 693.71 139.4 683.78C147.88 667.94 161.57 660.4 179.4 665.2C192.58 668.74 203.85 676.37 214.69 684.24C218.22 686.57 221.21 690.2 225.61 690.7C231.73 691.66 239.97 688.2 245.26 693.36C251.23 699.64 249.47 707.55 241.06 710.24C236.72 711.88 232.12 711.61 227.62 711.78L227.61 711.77ZM227.58 710.45C231.91 710.35 236.26 709.4 240.37 708.23C242.32 707.6 244.27 706.74 245.69 705.27C250.15 700.35 244.78 692.15 238.67 692.1C233.48 691.63 227.29 693.79 221.92 691.53C218.82 690.09 216.36 687.66 213.53 685.81C202.85 678.27 191.53 670.93 178.78 667.58C162.15 663.16 149.54 670.4 141.48 684.99C136.05 694.62 135.75 705.96 131.81 716.44C128.53 726.22 121.77 732.39 110.99 730.49C96.3496 726.23 86.4796 713.46 72.6896 707.71C31.6596 693.19 18.5296 727.76 15.6296 761.99C15.7796 775.19 23.9496 787.83 32.0796 769.8C36.8196 758.78 36.6696 746.42 41.1096 735.25C47.0096 719.55 57.2496 718.72 70.7096 726.44C81.1196 732.35 90.4996 739.79 101.03 745.38C127.01 754.88 138.7 740.63 147.28 717.17C149.79 710.48 152.02 703.64 154.58 696.85C155.82 693.52 157.24 689.87 159.69 686.75C168.37 675.35 181.94 683.27 190.91 689.85C201.63 697.17 214.25 710.07 227.57 710.45H227.58Z" fill="#000C1F"/>
    <path d="M952.809 818.59C931.579 809.12 900.039 792.42 888.579 771.68C885.689 766.23 885.509 759.42 891.229 755.74C901.989 749.24 919.049 752.08 930.889 754.22C965.179 761.62 1007.6 780.09 1032.11 805.6C1040.52 814.52 1046.95 828.42 1030.93 833.26C1007.97 839.09 974.259 827.56 952.799 818.59H952.809ZM953.349 817.34C974.279 826.18 996.549 833.73 1019.48 833.94C1041.39 833.73 1046.46 822.39 1031.59 806.08C1015.81 789.4 995.079 778.25 974.309 768.95C953.309 760.2 930.989 752.73 908.039 752.65C886.239 752.98 881.159 764.2 896.059 780.42C911.879 797 932.599 808.1 953.349 817.34Z" fill="#000C1F"/>
    <path d="M955.709 810.93C937.009 802.59 918.449 793.12 902.819 779.71C886.209 765.15 890.029 755.6 912.309 757.87C932.749 760.19 952.319 767.29 971.159 775.27C989.849 783.56 1008.41 793 1024.07 806.33C1040.69 820.81 1036.86 830.23 1014.67 828.09C994.199 825.87 974.589 818.84 955.709 810.93ZM956.149 809.92C974.899 817.89 994.409 824.99 1014.74 827.35C1036.09 829.51 1040 821.09 1023.68 806.76C1008.09 793.47 989.579 784.04 970.939 775.75C952.139 767.85 932.599 760.82 912.239 758.56C890.989 756.52 887.059 764.81 903.389 779.07C919.009 792.29 937.519 801.68 956.149 809.92Z" fill="#000C1F"/>
    <path d="M910.4 221.78C910.24 212.01 913.24 198.49 922.13 193.04C925.72 191.42 929.82 190.7 933.73 191.38C948.84 194.58 954.36 216.15 956.47 229.36C957.27 245.1 953.55 263.61 943.36 276.01C933.3 288.35 914.69 291.32 900.58 284.59C886.31 277.71 877.85 263.14 872.45 248.87C868.7 238.04 864.81 226.15 868.37 214.74C871.29 204.69 880.14 198.19 890.66 198.73C896.8 198.97 901.87 203.49 904.99 208.38C911.27 218.29 913.84 230.03 915.29 241.51C915.39 242.25 915.48 243.7 915.48 244.45C915.56 245.34 915.43 246.55 915.32 247.45C914.64 254.1 908.47 257.71 902.17 257.2C900.13 257.23 898.22 255.05 897.39 253.11C894.66 247.38 895.62 240.95 894.44 234.9C893.33 229.05 891.37 223.11 887.8 218.31C887.36 217.77 886.55 216.83 886.04 216.69C886.02 216.68 886.07 216.69 886.1 216.69C886.12 216.67 886.17 216.68 886.21 216.65C886.23 216.64 886.24 216.62 886.25 216.6C886.25 216.6 886.25 216.62 886.24 216.63C886.23 216.65 886.21 216.68 886.2 216.7C884.8 221.13 885.3 226.07 885.7 230.66C887.06 242.66 892.05 254.43 900.86 262.84C906.38 268.22 914.37 272.97 922.18 270.21C933.63 265.63 939.62 252.95 940.1 241.14C940.45 233.14 939.67 224.76 936.54 217.34C934.97 213.64 932.64 210.4 929.28 208.11C929.2 208.06 929.18 207.95 929.23 207.87C931.18 207.88 933.32 209.96 934.51 211.43C938.4 216.39 939.87 222.78 940.72 228.86C942.86 242.95 940.32 259.44 928.13 268.39C918.73 276.05 907.57 271.49 899.85 263.87C890.75 255.25 885.57 243.17 884.13 230.84C883.67 226.72 883.47 222.58 884.1 218.38C884.29 217.42 884.44 216.36 885.08 215.54C887.64 213.38 891.35 220.96 892.23 222.77C894 226.55 895.2 230.55 895.94 234.64C896.75 238.66 896.58 242.86 896.99 246.89C897.43 249.96 897.91 253.48 900.38 255.58C900.88 256 901.65 256.33 902.25 256.31C905.84 256.48 909.86 255.29 912.02 252.28C913.93 249.71 914.09 246.2 913.87 243.1C912.33 228.01 905.9 195.6 885.02 200.51C873.06 202.64 867.42 215.06 868.13 226.28C868.25 230.07 869.13 233.81 870.05 237.52C874.92 255.44 883.61 274.94 901.05 283.59C911.28 288.4 924.01 288.18 933.88 282.56C950.85 272.67 956.28 247.84 955.4 229.49C953.37 216.77 948.02 195.54 933.54 192.43C929.88 191.79 926.01 192.47 922.63 193.99C916.94 197.42 914.27 204.25 912.67 210.44C911.79 214.14 911.42 217.95 911.49 221.76C911.49 222.47 910.43 222.48 910.42 221.78H910.4Z" fill="#000C1F"/>
    <path d="M930.16 265.89C930.16 265.89 920.79 258.76 914.52 242.75" stroke="#000C1F" stroke-width="1.07" stroke-linecap="round" stroke-linejoin="round"/>
    <path d="M931.399 209.27C929.229 212.28 928.359 216.25 928.279 219.94C928.069 229.68 932.909 238.61 936.209 247.59C936.929 249.23 937.529 250.97 938.559 252.42C938.439 252.4 938.319 252.39 938.169 252.49C938.419 252.34 938.749 252.41 938.909 252.67C939.169 253.05 938.779 253.56 938.369 253.49C938.119 253.49 937.939 253.33 937.749 253.22C934.959 250.42 933.459 246.6 931.739 243.11C927.649 234.16 923.659 223.6 927.379 213.79C928.149 211.87 929.099 210.04 930.639 208.52C930.849 208.31 931.189 208.32 931.389 208.52C931.599 208.73 931.579 209.05 931.389 209.27H931.399Z" fill="#000C1F"/>
    <path d="M943.68 274.71C953.19 280.91 965.75 279.95 975.28 274.29C986.02 267.53 993.34 256.18 997.1 244.21C999.9 235.61 999.92 226.55 997.64 217.85C995.21 207.94 991.32 197.43 983.06 191.02C979.81 188.34 974.68 186.95 971.05 187.15C968.26 187.87 965.45 189.2 963.05 190.95C958.13 194.41 954.81 199.9 953.76 205.79C953.43 207.01 953.35 209.01 953.2 210.29C953.16 211.83 953.24 213.37 953.25 214.92C953.25 215.62 952.2 215.63 952.18 214.94C952.13 213.38 952.02 211.81 952.03 210.25C952.1 209.55 952.23 207.42 952.29 206.72C952.41 205.83 952.82 204.11 952.97 203.24C955.12 194.61 962.1 187.74 970.69 185.47C987.83 184.56 996.28 203.28 999.59 217.4C1002.01 226.33 1001.88 236.01 998.97 244.79C994.85 257.76 986.41 270.51 974.06 276.8C964.43 281.75 952.14 281.78 943.04 275.58C942.44 275.13 943.1 274.28 943.68 274.72V274.71Z" fill="#000C1F"/>
    <path d="M951.531 260.56C961.111 265.56 973.191 259.7 977.51 250.26C981.771 241.59 984.061 228.67 981.76 219.21C980.41 214.06 979.15 208.69 976.2 204.24C975.19 202.87 974.061 201.57 972.281 201.46C972.181 201.46 972.1 201.37 972.11 201.28C978.22 198.65 982.26 214.59 983.5 218.75C985.55 225.91 984.72 233.6 983.23 240.79C981.36 248.87 977.701 257.47 969.911 261.5C964.131 264.71 956.561 265.26 950.921 261.44C950.361 261.02 950.941 260.18 951.531 260.56Z" fill="#000C1F"/>
    <path d="M956.599 232.35C960.259 241.9 965.079 251.22 971.839 258.96C972.039 259.18 972.029 259.53 971.799 259.73C971.579 259.93 971.239 259.9 971.049 259.68C967.569 255.78 964.619 251.45 962.099 246.88C959.589 242.31 957.389 237.61 955.589 232.7C955.349 232.04 956.369 231.67 956.599 232.34V232.35Z" fill="#000C1F"/>
    <path d="M980.6 245.14C974.83 239.45 969.91 232.27 968.88 224.07C967.92 217.23 966.91 204.79 974.43 201.31C975.07 201.07 975.47 202.01 974.84 202.3C966.59 206.27 969.96 228.49 974.4 234.79C976.35 238.21 978.75 241.43 981.35 244.38C981.82 244.86 981.09 245.62 980.59 245.14H980.6Z" fill="#000C1F"/>
    <path d="M985.029 267.27C994.219 273.14 1006.45 272.04 1015.83 267.15C1025.86 262.6 1032.13 252.82 1035.17 242.48C1040.01 225.35 1039.97 205.3 1030.08 189.93C1028.06 186.98 1025.5 184.37 1022.38 182.7C1016.21 179.38 1007.77 180.08 1002.76 185.19C997.689 190.31 995.589 197.86 994.939 204.89C994.879 205.59 993.819 205.5 993.869 204.81C994.489 197.41 996.549 189.76 1001.85 184.27C1007.23 178.69 1016.34 177.79 1023.07 181.41C1026.46 183.21 1029.19 186 1031.32 189.08C1041.56 204.86 1041.71 225.31 1036.79 242.97C1032.37 257.91 1023.47 267.99 1008.07 271.93C1000.08 273.79 991.229 272.96 984.369 268.12C983.789 267.67 984.449 266.82 985.029 267.27Z" fill="#000C1F"/>
    <path d="M993.45 255.16C999.89 255.98 1007.07 255.63 1012.23 251.48C1015.15 248.89 1017.17 245.29 1018.97 241.84C1021.31 237.07 1023.02 231.96 1023.66 226.7C1024.38 221.44 1023.87 216.05 1022.17 211.03C1020.26 204.91 1017.24 197.91 1010.86 195.39C1010.6 195.31 1010.72 194.87 1010.99 194.94C1016.36 196.02 1019.91 200.91 1022.14 205.57C1027.81 217.23 1026.7 231.15 1020.62 242.67C1016.13 251.26 1011.7 256.25 1001.48 256.76C998.71 256.9 995.97 256.73 993.23 256.2C992.94 256.14 992.75 255.86 992.81 255.57C992.87 255.28 993.15 255.09 993.44 255.15L993.45 255.16Z" fill="#000C1F"/>
    <path d="M1021.04 239.08C1016.95 234.72 1013.31 229.82 1011.13 224.19C1008.77 216.18 1004.7 201.25 1013.09 195.71C1013.67 195.36 1014.24 196.21 1013.68 196.61C1007.39 201.44 1009.86 211.29 1011.22 218.02C1012.05 221.87 1013.17 225.43 1015.19 228.8C1017.1 232.15 1019.38 235.35 1021.83 238.36C1022.28 238.86 1021.52 239.59 1021.04 239.08Z" fill="#000C1F"/>
    <path d="M1011.24 252.76C1008.64 249.96 1006.31 246.97 1004.21 243.78C1002.18 240.52 1000.08 237.14 999.7 233.18C999.66 232.51 1000.68 232.4 1000.77 233.07C1001.83 238.49 1005.51 243.13 1008.63 247.58C1009.74 249.09 1010.89 250.59 1012.05 252.05C1012.47 252.57 1011.7 253.25 1011.24 252.75V252.76Z" fill="#000C1F"/>
    <path d="M1026.76 261.07C1036.96 265.27 1049.33 264.62 1058.48 258.25C1070.04 250.2 1078.27 236.37 1078.03 222.12C1077.93 218.19 1077.42 210.47 1072.43 210.33C1069.79 210.33 1067.73 211.81 1066.68 214.31C1064.78 218.74 1064.46 223.59 1063.27 228.34C1060.96 237.86 1054.43 247.81 1044 249.18C1040.67 249.66 1037.24 249.4 1034.08 248C1033.81 247.88 1033.69 247.57 1033.81 247.29C1033.93 247.02 1034.24 246.9 1034.51 247.01C1040.27 249.38 1047.52 248.09 1052.29 244.11C1057.21 240.06 1060.08 234.01 1061.59 227.91C1062.71 223.21 1063.02 218.1 1064.97 213.51C1066.26 210.07 1070.1 207.7 1073.85 208.47C1079.41 209.97 1079.97 217.63 1080.1 221.93C1080.49 237.66 1070.92 253.4 1057.55 261.35C1048.08 266.75 1036 266.81 1026.28 262.01C1025.66 261.68 1026.11 260.74 1026.76 261.05V261.07Z" fill="#000C1F"/>
</svg>
