<svg viewBox="0 0 136 108" fill="none" xmlns="http://www.w3.org/2000/svg">
    <path d="M21.8872 8.86755L23.6097 19.5338L32.0597 12.7488L21.8872 8.86755Z" stroke="#000C1F" stroke-linecap="round" stroke-linejoin="round"/>
    <path d="M27.831 16.0113L27.0198 10.8275L22.811 14.1538L27.831 16.0113Z" stroke="#000C1F" stroke-linecap="round" stroke-linejoin="round"/>
    <path d="M27.0625 10.63L28.05 7.86377" stroke="#000C1F" stroke-linecap="round" stroke-linejoin="round"/>
    <path d="M22.5972 14.2288L19.6685 14.7038" stroke="#000C1F" stroke-linecap="round" stroke-linejoin="round"/>
    <path d="M27.8462 16.1387L29.7112 18.5437" stroke="#000C1F" stroke-linecap="round" stroke-linejoin="round"/>
    <path d="M32.0698 12.7588L28.0773 7.75L21.8398 8.7925L19.5698 14.7075L23.6886 19.5987L29.9298 18.775L32.0698 12.7588Z" stroke="#000C1F" stroke-linecap="round" stroke-linejoin="round"/>
    <path d="M97.5688 99.1862C97.3909 99.2036 97.2359 99.3147 97.1622 99.4775C97.0885 99.6403 97.1072 99.8301 97.2114 99.9753L101.746 106.295C101.85 106.44 102.023 106.518 102.2 106.502C102.377 106.485 102.532 106.375 102.607 106.213L105.873 99.1268C105.948 98.9641 105.93 98.7737 105.826 98.6277C105.722 98.4817 105.548 98.4024 105.37 98.4199L97.5688 99.1862Z" stroke="#000C1F" stroke-linecap="round" stroke-linejoin="round"/>
    <path d="M103.795 102.876C103.971 102.857 104.125 102.746 104.197 102.584C104.27 102.422 104.252 102.234 104.149 102.089L101.962 99.0081C101.859 98.8632 101.687 98.7837 101.51 98.7995C101.332 98.8153 101.177 98.9239 101.101 99.0847L99.4577 102.58C99.3808 102.743 99.3981 102.936 99.503 103.083C99.608 103.23 99.7841 103.309 99.9638 103.29L103.795 102.876Z" stroke="#000C1F" stroke-linecap="round" stroke-linejoin="round"/>
    <path d="M101.517 99.1576L101.266 97.0576" stroke="#000C1F" stroke-linecap="round" stroke-linejoin="round"/>
    <path d="M99.796 102.91L98.061 104.156" stroke="#000C1F" stroke-linecap="round" stroke-linejoin="round"/>
    <path d="M103.791 102.455L105.766 103.406" stroke="#000C1F" stroke-linecap="round" stroke-linejoin="round"/>
    <path d="M105.924 98.8611C105.903 98.6896 105.795 98.5409 105.639 98.468L101.459 96.5218C101.294 96.4451 101.101 96.4637 100.954 96.5704L97.2688 99.2454C97.1254 99.3495 97.0479 99.5216 97.0648 99.6979L97.501 104.239C97.5185 104.42 97.633 104.578 97.8001 104.65L102.025 106.479C102.182 106.547 102.362 106.53 102.503 106.435L106.261 103.9C106.417 103.795 106.5 103.611 106.478 103.425L105.924 98.8611Z" stroke="#000C1F" stroke-linecap="round" stroke-linejoin="round"/>
    <path d="M35.6775 43.4851C33.4 41.8338 34.0512 34.9913 30.4312 37.125C27.3987 38.9125 24.2012 41.9075 21.6437 37.8938C20.0337 34.3525 20.0175 29.7688 15.365 34.16C11.9875 37.2725 8.21875 34.7163 7.5625 30.8063C7.22 29.7026 6.95 28.4238 5.7475 27.9501C4.48375 27.4438 5.05375 25.4663 6.5475 25.9163C10.315 27.0525 9.15125 35.26 12.9825 33.0463C16.0687 31.2638 19.0762 28.1475 21.8125 32.2225C22.7562 33.745 22.7062 35.6725 23.77 37.1175C25.7662 39.18 27.7625 35.705 29.5975 34.9963C33.9775 33.0863 35.5525 37.645 36.4887 40.9763C36.815 42.1125 38.4987 42.0725 38.4512 43.355C38.4512 43.4213 38.335 45.4088 35.6775 43.4825V43.4851Z" stroke="#000C1F" stroke-linecap="round" stroke-linejoin="round"/>
    <path d="M94.8733 18.2665C95.7995 17.8725 95.537 15.1703 94.2868 12.2308C93.0366 9.29132 91.2723 7.22775 90.3461 7.62168C89.4198 8.01561 89.6824 10.7179 90.9326 13.6574C92.1827 16.5968 93.947 18.6604 94.8733 18.2665Z" stroke="#000C1F" stroke-linecap="round" stroke-linejoin="round"/>
    <path d="M13.7524 79.8042C14.054 78.844 11.8282 77.2894 8.78072 76.3321C5.73328 75.3747 3.01829 75.3771 2.71663 76.3374C2.41496 77.2977 4.64085 78.8522 7.68829 79.8095C10.7357 80.7669 13.4507 80.7645 13.7524 79.8042Z" stroke="#000C1F" stroke-linecap="round" stroke-linejoin="round"/>
    <path d="M63.7035 37.7863C62.9535 35.6913 60.8098 24.8538 61.591 13.4938C61.591 13.4938 63.256 14.0413 64.191 15.0338C64.616 15.485 62.611 1.23753 61.8185 1.31378C59.3935 1.54503 53.9335 12.15 53.6348 12.995L56.4923 12.665C56.4923 12.665 54.631 14.9163 55.6785 39.015C55.6823 39.0988 55.8185 39.1088 55.8985 39.0875L63.5998 38.0463C63.7123 38.0163 63.7423 37.8963 63.7023 37.7875L63.7035 37.7863Z" stroke="#000C1F" stroke-linecap="round" stroke-linejoin="round"/>
    <path d="M121.604 12.9918C122.491 12.0207 120.861 9.08822 117.964 6.44176C115.067 3.79531 111.999 2.43708 111.112 3.40809C110.225 4.3791 111.855 7.31164 114.752 9.95809C117.649 12.6046 120.717 13.9628 121.604 12.9918Z" stroke="#000C1F" stroke-linecap="round" stroke-linejoin="round"/>
    <path d="M110.828 4.08606L102.218 23.7673C102.218 23.7673 102.191 24.7898 103.501 24.1011C104.811 23.4111 120.938 13.6861 120.938 13.6861" stroke="#000C1F" stroke-linecap="round" stroke-linejoin="round"/>
    <path d="M63.0646 49.7775L56.7633 50.085C56.7633 50.085 55.8408 57.4625 50.9233 57.4625C46.0058 57.4625 44.0071 55.3112 44.0071 55.3112L39.3958 59.9225C39.3958 59.9225 43.8533 66.07 40.7796 69.2975C37.7058 72.525 34.0171 72.8325 34.0171 72.8325V79.4412C34.0171 79.4412 41.2408 81.5925 41.2408 85.2812C41.2408 88.97 39.2433 92.1975 39.2433 92.1975L43.3933 97.115C43.3933 97.115 48.0046 93.7337 50.9246 95.1175C53.8446 96.5012 55.9958 98.6525 56.3033 102.495H63.3883C63.3883 102.495 62.9121 97.73 66.4471 96.1937C69.9821 94.6562 72.9021 94.6562 75.8221 97.27L80.8933 92.3525C80.8933 92.3525 76.5896 87.895 79.0496 84.0537C81.5083 80.2112 85.8121 79.9037 85.8121 79.9037V72.2475C85.8121 72.2475 79.3571 72.22 78.7421 67.6087C78.1271 62.9975 81.2008 60.0775 81.2008 60.0775L76.1296 55.3125C76.1296 55.3125 73.7683 57.4387 70.9596 57.6887C69.8446 57.7887 68.6583 57.5925 67.5221 56.8487C63.5258 54.2362 63.0646 49.7787 63.0646 49.7787V49.7775Z" stroke="#000C1F" stroke-linecap="round" stroke-linejoin="round"/>
    <path d="M63.1885 49.8087L66.7535 53.005C66.7535 53.005 66.9072 56.43 67.8297 57.0437" stroke="#000C1F" stroke-linecap="round" stroke-linejoin="round"/>
    <path d="M81.2271 60.075L84.3495 63.12C84.3495 63.12 80.9683 68.5462 82.8508 71.7787" stroke="#000C1F" stroke-linecap="round" stroke-linejoin="round"/>
    <path d="M85.9372 72.18L89.9609 75.4437V83.6237C89.9609 83.6237 84.8897 83.8975 83.5059 86.6637C82.1222 89.43 81.6622 91.275 84.7359 95.5775L79.3572 101.264C79.3572 101.264 73.3634 97.1137 70.1359 100.187C66.9084 103.261 66.9084 106.181 66.9084 106.181L59.9159 106.865L56.3047 102.465" stroke="#000C1F" stroke-linecap="round" stroke-linejoin="round"/>
    <path d="M34.0171 79.275L36.9371 83.435C36.9371 83.435 40.9333 83.8962 41.0871 84.3575" stroke="#000C1F" stroke-linecap="round" stroke-linejoin="round"/>
    <path d="M55.5333 99.5725C55.5333 99.5725 52.152 97.7287 46.6195 100.956L43.2383 96.96" stroke="#000C1F" stroke-linecap="round" stroke-linejoin="round"/>
    <path d="M70.9033 76.2887C70.9033 82.1875 66.1208 86.97 60.2221 86.97C57.5446 86.97 55.0971 85.985 53.2221 84.3575C50.9658 82.3987 49.5396 79.51 49.5396 76.2887C49.5396 70.39 54.3221 65.6075 60.2208 65.6075C66.1196 65.6075 70.902 70.39 70.902 76.2887H70.9033Z" stroke="#000C1F" stroke-linecap="round" stroke-linejoin="round"/>
    <path d="M53.0645 84.2587C52.672 83.085 52.4595 81.8262 52.4595 80.515C52.4595 74.1487 57.482 68.9887 63.6795 68.9887C65.6895 68.9887 67.577 69.5325 69.2082 70.4837" stroke="#000C1F" stroke-linecap="round" stroke-linejoin="round"/>
    <path d="M73.731 54.5199C73.7523 54.2862 73.7648 54.0474 73.7648 53.8062C73.7648 51.1812 68.6235 49.6487 68.6235 49.6487V44.9449C68.6235 44.9449 71.2485 44.7262 73.4373 42.4287C75.6248 40.1312 72.4523 35.7549 72.4523 35.7549L75.7348 32.4724C75.7348 32.4724 77.1573 34.0037 80.6573 34.0037C84.1585 34.0037 84.8148 28.7524 84.8148 28.7524L89.2998 28.5337C89.2998 28.5337 89.6285 31.7062 92.4723 33.5662C95.316 35.4262 98.5985 32.4724 98.5985 32.4724L102.209 35.8637C102.209 35.8637 100.021 37.9424 100.459 41.2237C100.896 44.5049 105.491 44.5262 105.491 44.5262V49.9762C105.491 49.9762 102.427 50.1949 100.677 52.9299C98.9273 55.6649 101.99 58.8374 101.99 58.8374L98.3798 62.3387C96.301 60.4787 94.2223 60.4787 91.706 61.5724C89.1898 62.6662 89.5285 66.0574 89.5285 66.0574L84.486 66.0374" stroke="#000C1F" stroke-linecap="round" stroke-linejoin="round"/>
    <path d="M89.3872 28.5574L91.9247 30.8324C91.9247 30.8324 92.0347 33.2699 92.691 33.7074" stroke="#000C1F" stroke-linecap="round" stroke-linejoin="round"/>
    <path d="M102.229 35.8649L104.451 38.0324C104.451 38.0324 102.045 41.8949 103.385 44.1962" stroke="#000C1F" stroke-linecap="round" stroke-linejoin="round"/>
    <path d="M105.581 44.4812L108.445 46.8037V52.6262C108.445 52.6262 104.835 52.8212 103.85 54.79C102.865 56.7587 102.537 58.0725 104.725 61.135L100.896 65.1825C100.896 65.1825 96.6296 62.2287 94.3321 64.4162C92.0346 66.6037 92.0346 68.6825 92.0346 68.6825L87.0571 69.1687L84.4858 66.0374" stroke="#000C1F" stroke-linecap="round" stroke-linejoin="round"/>
    <path d="M68.6235 49.5325L70.7023 52.4937C70.7023 52.4937 73.546 52.8225 73.656 53.15" stroke="#000C1F" stroke-linecap="round" stroke-linejoin="round"/>
    <path d="M94.8784 47.4062C94.8784 51.6049 91.4747 55.0099 87.2747 55.0099C85.3684 55.0099 83.6272 54.3087 82.2922 53.1499C80.6859 51.7562 79.6709 49.6999 79.6709 47.4062C79.6709 43.2074 83.0747 39.8024 87.2747 39.8024C91.4747 39.8024 94.8784 43.2062 94.8784 47.4062V47.4062Z" stroke="#000C1F" stroke-linecap="round" stroke-linejoin="round"/>
    <path d="M82.1824 53.0787C81.9037 52.2437 81.7524 51.3474 81.7524 50.4137C81.7524 45.8824 85.3274 42.2087 89.7387 42.2087C91.1699 42.2087 92.5124 42.5949 93.6737 43.2724" stroke="#000C1F" stroke-linecap="round" stroke-linejoin="round"/>
    <path d="M29.6361 60.7301C27.0886 60.2738 17.2723 62.8963 9.5373 50.3588C9.5373 50.3588 11.0961 49.9301 12.7861 49.8151C13.9061 49.7388 1.5473 40.0413 1.0373 40.7463C-0.523947 42.9026 2.74981 54.6701 3.22356 55.4913L5.44855 52.7201C5.44855 52.7201 8.4123 68.2176 30.4736 68.5126C30.5648 68.5126 29.8223 60.7638 29.6373 60.7313L29.6361 60.7301Z" stroke="#000C1F" stroke-linecap="round" stroke-linejoin="round"/>
    <path d="M96.2522 81.6963C98.9172 81.2188 109.808 82.4625 117.898 69.3488C117.898 69.3488 115.643 68.9 113.876 68.7813C112.705 68.7025 125.631 58.5588 126.165 59.2963C127.797 61.5513 124.373 73.8588 123.877 74.7175L121.551 71.8188C121.551 71.8188 118.451 88.0275 95.3772 88.3363C95.2822 88.3375 96.0584 81.7325 96.2522 81.6975V81.6963Z" stroke="#000C1F" stroke-linecap="round" stroke-linejoin="round"/>
    <path d="M42.0187 28.1676C43.7066 28.1676 45.0749 26.7992 45.0749 25.1113C45.0749 23.4234 43.7066 22.0551 42.0187 22.0551C40.3307 22.0551 38.9624 23.4234 38.9624 25.1113C38.9624 26.7992 40.3307 28.1676 42.0187 28.1676Z" stroke="#000C1F" stroke-linecap="round" stroke-linejoin="round"/>
    <path d="M28.8686 89.9325C25.7998 90.0013 21.8511 83.6238 20.1136 87.8675C18.6586 91.4213 17.8561 96.1338 12.9848 94.3338C9.24857 92.3188 6.20981 88.3463 5.06481 95.2325C4.18356 100.166 2.09732 98.8863 2.26107 95.8375C2.46857 91.955 4.32357 87.56 9.38981 89.295C11.2136 89.995 12.4423 91.7038 14.3198 92.2575C17.4148 92.7325 16.8573 88.3963 17.9848 86.5688C20.5298 82.0188 24.9073 84.9413 27.9186 87.2175C28.9523 87.99 30.3886 86.8438 31.1923 87.99C31.2361 88.0488 32.4473 89.8513 28.8661 89.9313L28.8686 89.9325Z" stroke="#000C1F" stroke-linecap="round" stroke-linejoin="round"/>
    <path d="M130.391 104.332C131.129 102.63 127.475 99.409 122.231 97.1376C116.987 94.8661 112.139 94.4046 111.401 96.1068C110.664 97.809 114.317 101.03 119.561 103.302C124.805 105.573 129.654 106.035 130.391 104.332Z" stroke="#000C1F" stroke-linecap="round" stroke-linejoin="round"/>
    <path d="M114.285 28.7637C114.247 26.8162 115.135 25.4487 115.8 25.1912C118.937 23.9749 119.783 28.8487 119.907 29.7024C120.02 30.4812 119.907 36.4999 115.507 36.9574C111.107 37.4149 109.385 32.2562 108.951 30.0662C108.518 27.8762 109.571 25.9412 111.661 25.9637C113.751 25.9862 114.577 29.5499 114.75 31.4249C114.922 33.2999 113.195 33.1374 113.195 33.1374C113.195 33.1374 112.461 33.2137 112.41 31.2912C112.358 29.3687 111.388 27.9412 111.147 28.0349C110.906 28.1287 110.682 31.1287 112.341 33.2599C112.341 33.2599 114.298 36.0199 116.286 34.5987C117.031 34.0662 117.475 33.3799 117.726 32.6599C118.145 31.4587 118.028 30.1587 117.882 29.3074C117.772 28.6624 117.422 27.4049 116.586 27.0362" stroke="#000C1F" stroke-linecap="round" stroke-linejoin="round"/>
    <path d="M116.687 34.2799C116.687 34.2799 115.516 33.3887 114.732 31.3875" stroke="#000C1F" stroke-linecap="round" stroke-linejoin="round"/>
    <path d="M116.796 27.1549C116.796 27.1549 115.779 28.1812 116.668 30.4724C117.557 32.7637 117.724 32.6612 117.724 32.6612" stroke="#000C1F" stroke-linecap="round" stroke-linejoin="round"/>
    <path d="M118.338 35.4349C118.338 35.4349 119.87 36.5836 121.993 35.6211C124.117 34.6586 125.808 31.5061 125.402 29.0286C124.996 26.5499 123.82 24.2324 121.777 24.3299C121.777 24.3299 119.256 24.8686 119.508 27.9036" stroke="#000C1F" stroke-linecap="round" stroke-linejoin="round"/>
    <path d="M119.321 33.6687C119.321 33.6687 120.421 34.4275 121.848 33.4575C123.276 32.4875 123.547 29.6087 123.293 28.5975C123.04 27.5862 122.6 26.0925 121.95 26.205" stroke="#000C1F" stroke-linecap="round" stroke-linejoin="round"/>
    <path d="M119.93 30.1099C119.93 30.1099 120.637 32.1249 121.848 33.4587" stroke="#000C1F" stroke-linecap="round" stroke-linejoin="round"/>
    <path d="M123.04 31.6387C123.04 31.6387 122.003 30.5962 121.733 29.5224C121.463 28.4487 121.378 26.6312 122.247 26.2687" stroke="#000C1F" stroke-linecap="round" stroke-linejoin="round"/>
    <path d="M123.506 34.5049C123.506 34.5049 125.202 35.8137 127.731 34.3924C130.26 32.9712 130.445 29.1537 130.246 27.5662C130.047 25.9787 129.186 23.3999 127.022 23.5449C124.858 23.6899 124.72 26.6487 124.72 26.6487" stroke="#000C1F" stroke-linecap="round" stroke-linejoin="round"/>
    <path d="M124.586 33.0049C124.586 33.0049 126.388 33.3624 127.24 32.3387C128.091 31.3149 128.963 29.2624 128.306 27.3912C128.306 27.3912 127.862 25.7149 126.785 25.4399" stroke="#000C1F" stroke-linecap="round" stroke-linejoin="round"/>
    <path d="M128.098 30.8837C128.098 30.8837 127.076 29.7674 126.822 28.7562C126.568 27.7449 126.191 26.1549 127.091 25.5649" stroke="#000C1F" stroke-linecap="round" stroke-linejoin="round"/>
    <path d="M126.874 32.5949C126.874 32.5949 125.521 31.0562 125.447 30.1862" stroke="#000C1F" stroke-linecap="round" stroke-linejoin="round"/>
    <path d="M128.732 33.7361C128.732 33.7361 131.174 34.9736 133.333 33.0274C135.492 31.0811 135.299 28.7974 135.299 28.7974C135.299 28.7974 135.332 27.1799 134.459 27.2111C133.587 27.2424 133.506 28.1061 133.277 29.3049C133.048 30.5036 132.383 31.6099 131.408 31.9786C130.433 32.3474 129.707 31.9849 129.707 31.9849" stroke="#000C1F" stroke-linecap="round" stroke-linejoin="round"/>
</svg>
