<svg viewBox="0 0 185 117" fill="none" xmlns="http://www.w3.org/2000/svg">
    <path d="M143.395 8.45428C143.959 7.16091 141.288 4.74736 137.428 3.06344C133.568 1.37952 129.981 1.06291 129.417 2.35627C128.853 3.64963 131.525 6.06321 135.384 7.74712C139.244 9.43104 142.831 9.74764 143.395 8.45428Z" stroke="#000C1F" stroke-linecap="round" stroke-linejoin="round"/>
    <path d="M129.355 3.13794L128.883 22.7367C128.883 22.7367 129.209 23.7854 130.302 22.6304C131.393 21.4767 142.949 9.38294 142.949 9.38294" stroke="#000C1F" stroke-linecap="round" stroke-linejoin="round"/>
    <path d="M55.2114 106.044L59.6052 115.603L65.7664 107.036L55.2114 106.044Z" stroke="#000C1F" stroke-linecap="round" stroke-linejoin="round"/>
    <path d="M62.6488 111.199L60.5376 106.545L57.4551 110.764L62.6488 111.199Z" stroke="#000C1F" stroke-linecap="round" stroke-linejoin="round"/>
    <path d="M60.5254 106.35L60.7316 103.496" stroke="#000C1F" stroke-linecap="round" stroke-linejoin="round"/>
    <path d="M57.2739 110.89L54.6489 112.098" stroke="#000C1F" stroke-linecap="round" stroke-linejoin="round"/>
    <path d="M62.6963 111.314L65.0725 113.085" stroke="#000C1F" stroke-linecap="round" stroke-linejoin="round"/>
    <path d="M65.7789 107.043L60.7289 103.384L55.1476 105.986L54.5576 112.128L59.6964 115.644L65.3389 113.245L65.7789 107.043Z" stroke="#000C1F" stroke-linecap="round" stroke-linejoin="round"/>
    <path d="M32.3864 98.369C31.8389 96.2015 32.4751 94.4403 33.1514 93.979C36.3439 91.8028 38.5576 97.0328 38.9176 97.9565C39.2451 98.7978 40.6851 105.559 35.8826 107.214C31.0801 108.87 27.8126 103.549 26.7589 101.212C25.7051 98.874 26.3801 96.4378 28.7226 95.919C31.0651 95.4003 32.9164 99.1715 33.5964 101.224C34.2764 103.277 32.3026 103.544 32.3026 103.544C32.3026 103.544 31.5026 103.82 30.9451 101.684C30.3876 99.5478 28.9326 98.204 28.6864 98.3703C28.4401 98.5365 28.9701 101.952 31.3801 103.903C31.3801 103.903 34.2876 106.48 36.1414 104.375C36.8364 103.585 37.1539 102.704 37.2476 101.832C37.4026 100.379 36.9351 98.9565 36.5514 98.0415C36.2614 97.349 35.5426 96.034 34.5101 95.8378" stroke="#000C1F" stroke-linecap="round" stroke-linejoin="round"/>
    <path d="M36.5076 103.913C36.5076 103.913 34.9651 103.22 33.5688 101.185" stroke="#000C1F" stroke-linecap="round" stroke-linejoin="round"/>
    <path d="M34.7751 95.9165C34.7751 95.9165 33.9064 97.329 35.4951 99.6603C37.0839 101.992 37.2464 101.833 37.2464 101.833" stroke="#000C1F" stroke-linecap="round" stroke-linejoin="round"/>
    <path d="M38.654 104.777C38.654 104.777 40.6653 105.663 42.7903 104.034C44.9153 102.405 45.9865 98.4403 44.8878 95.774C43.789 93.1078 41.8715 90.8215 39.6115 91.4615C39.6115 91.4615 36.9315 92.7203 38.0028 96.0478" stroke="#000C1F" stroke-linecap="round" stroke-linejoin="round"/>
    <path d="M39.2939 102.545C39.2939 102.545 40.7214 103.108 42.0664 101.653C43.4102 100.198 42.9652 96.9065 42.4189 95.8415C41.8727 94.7765 40.9914 93.2203 40.2939 93.5153" stroke="#000C1F" stroke-linecap="round" stroke-linejoin="round"/>
    <path d="M39.0488 98.4053C39.0488 98.4053 40.3638 100.474 42.0651 101.652" stroke="#000C1F" stroke-linecap="round" stroke-linejoin="round"/>
    <path d="M42.9256 99.3076C42.9256 99.3076 41.4968 98.4114 40.9143 97.2801C40.3331 96.1501 39.7643 94.1389 40.6431 93.5076" stroke="#000C1F" stroke-linecap="round" stroke-linejoin="round"/>
    <path d="M44.1915 102.393C44.1915 102.393 46.429 103.415 48.8877 101.168C51.3465 98.9203 50.5602 94.604 49.9252 92.8803C49.2902 91.1565 47.6552 88.4965 45.274 89.2215C42.8927 89.9465 43.5052 93.2915 43.5052 93.2915" stroke="#000C1F" stroke-linecap="round" stroke-linejoin="round"/>
    <path d="M45.0103 100.433C45.0103 100.433 47.119 100.364 47.8053 98.9977C48.4915 97.6315 48.934 95.1077 47.7115 93.1877C47.7115 93.1877 46.7803 91.429 45.5028 91.4015" stroke="#000C1F" stroke-linecap="round" stroke-linejoin="round"/>
    <path d="M48.3852 97.1477C48.3852 97.1477 46.9515 96.1652 46.4052 95.099C45.859 94.034 45.0227 92.354 45.8765 91.459" stroke="#000C1F" stroke-linecap="round" stroke-linejoin="round"/>
    <path d="M47.4615 99.379C47.4615 99.379 45.549 98.0103 45.2402 97.0565" stroke="#000C1F" stroke-linecap="round" stroke-linejoin="round"/>
    <path d="M49.8364 100.174C49.8364 100.174 52.8902 100.923 54.7989 98.1852C56.7064 95.4465 55.8977 92.9427 55.8977 92.9427C55.8977 92.9427 55.5139 91.124 54.5452 91.3865C53.5777 91.649 53.7114 92.6353 53.7664 94.0353C53.8214 95.4353 53.3652 96.8453 52.3727 97.5115C51.3789 98.179 50.4714 97.9602 50.4714 97.9602" stroke="#000C1F" stroke-linecap="round" stroke-linejoin="round"/>
    <path d="M145.963 44.0301C148.06 44.0301 149.759 42.3305 149.759 40.2339C149.759 38.1373 148.06 36.4376 145.963 36.4376C143.867 36.4376 142.167 38.1373 142.167 40.2339C142.167 42.3305 143.867 44.0301 145.963 44.0301Z" stroke="#000C1F" stroke-linecap="round" stroke-linejoin="round"/>
    <path d="M157.82 9.85991C160.812 8.13229 162.797 5.96747 162.252 5.02464C161.708 4.0818 158.841 4.71799 155.849 6.4456C152.856 8.17322 150.872 10.338 151.416 11.2809C151.961 12.2237 154.828 11.5875 157.82 9.85991Z" stroke="#000C1F" stroke-linecap="round" stroke-linejoin="round"/>
    <path d="M34.4506 55.3885C36.9054 53.9712 38.5333 52.1951 38.0867 51.4215C37.64 50.6479 35.2879 51.1696 32.8331 52.5869C30.3782 54.0042 28.7503 55.7804 29.1969 56.554C29.6436 57.3276 31.9957 56.8058 34.4506 55.3885Z" stroke="#000C1F" stroke-linecap="round" stroke-linejoin="round"/>
    <path d="M135.214 41.2802C137.279 41.1439 139.274 41.0414 141.215 40.9677" stroke="#000C1F" stroke-linecap="round" stroke-linejoin="round"/>
    <path d="M150.719 41.0264C160.995 41.3051 167.443 42.9189 167.994 45.8839C168.649 49.4101 160.829 54.1489 147.795 58.8739" stroke="#000C1F" stroke-linecap="round" stroke-linejoin="round"/>
    <path d="M51.7454 75.8002C39.3829 76.2364 31.4154 74.8739 30.6929 71.5977C30.0442 68.6527 35.1892 64.2752 44.7067 60.3902C46.1829 59.7877 50.7042 58.2177 50.7042 58.2177" stroke="#000C1F" stroke-linecap="round" stroke-linejoin="round"/>
    <path d="M181.359 16.3501C177.759 16.8326 172.279 9.85257 170.793 15.0701C169.548 19.4401 169.222 25.0876 163.259 23.6088C158.602 21.7301 154.507 17.4563 154.064 25.7051C153.676 31.6226 147.874 32.5851 143.782 29.5126C142.479 28.7851 141.089 27.8288 139.542 28.4563C137.909 29.1076 136.682 26.7501 138.481 25.8426C143.016 23.5526 149.231 32.2651 150.844 26.7851C152.144 22.3713 152.184 16.7801 158.371 18.1576C160.608 18.7413 162.277 20.5901 164.557 20.9938C168.259 21.1476 167.034 16.1201 168.121 13.8238C170.517 8.14007 176.048 11.0026 179.888 13.2851C181.204 14.0576 182.744 12.5226 183.839 13.7638C183.898 13.8263 185.559 15.7876 181.358 16.3513L181.359 16.3501Z" stroke="#000C1F" stroke-linecap="round" stroke-linejoin="round"/>
    <path d="M30.6128 85.8727C27.169 85.9489 22.7378 78.7927 20.7878 83.5552C19.1553 87.5439 18.254 92.8314 12.7878 90.8127C8.59527 88.5514 5.18526 84.0927 3.90026 91.8214C2.91151 97.3577 0.570265 95.9214 0.752765 92.5002C0.985265 88.1427 3.06776 83.2102 8.75401 85.1589C10.8015 85.9452 12.1803 87.8627 14.2878 88.4827C17.7615 89.0164 17.1353 84.1489 18.4003 82.0989C21.2565 76.9927 26.169 80.2727 29.549 82.8277C30.709 83.6939 32.3215 82.4089 33.2228 83.6939C33.2715 83.7589 34.6315 85.7827 30.6128 85.8727V85.8727Z" stroke="#000C1F" stroke-linecap="round" stroke-linejoin="round"/>
    <path d="M53.0954 54.0464C52.7979 56.1676 52.6392 58.4214 52.6392 60.8176C52.6392 101.831 89.1554 104.091 95.4117 104.091C99.6717 104.091 109.89 103.345 119.344 95.5239" stroke="#000C1F" stroke-linecap="round" stroke-linejoin="round"/>
    <path d="M136.614 54.7788C134.662 23.6551 101.31 20.7263 95.3267 20.7263C92.0167 20.7263 78.6479 21.8713 67.7417 29.5976" stroke="#000C1F" stroke-linecap="round" stroke-linejoin="round"/>
    <path d="M71.3667 36.8839C77.8779 38.7702 86.0142 39.8902 94.8404 39.8902C107.67 39.8902 119.043 37.5239 126.087 33.8789" stroke="#000C1F" stroke-linecap="round" stroke-linejoin="round"/>
    <path d="M113.973 85.2014C108.015 84.2452 101.083 83.6964 93.6825 83.6964C80.3438 83.6964 68.52 85.4777 61.1963 88.2214" stroke="#000C1F" stroke-linecap="round" stroke-linejoin="round"/>
    <path d="M53.8003 63.1339C53.8003 63.1339 78.0728 63.2489 86.1715 63.2452C93.1528 63.2427 110.342 63.1589 115.027 63.1389" stroke="#000C1F" stroke-linecap="round" stroke-linejoin="round"/>
    <path d="M94.8804 21.0801V63.1338V104.093" stroke="#000C1F" stroke-linecap="round" stroke-linejoin="round"/>
    <path d="M94.88 20.7263C82.9388 20.7263 73.2588 39.3263 73.2588 62.2701C73.2588 85.2138 82.9388 103.814 94.88 103.814" stroke="#000C1F" stroke-linecap="round" stroke-linejoin="round"/>
    <path d="M116.724 62.2701C116.724 39.3263 107.119 20.7263 95.269 20.7263" stroke="#000C1F" stroke-linecap="round" stroke-linejoin="round"/>
    <path d="M95.27 103.814C103.578 103.814 110.783 94.6713 114.346 81.2988" stroke="#000C1F" stroke-linecap="round" stroke-linejoin="round"/>
    <path d="M67.0176 40.459C65.9964 47.6803 59.0339 53.394 51.8139 52.3715C44.5926 51.3503 39.6689 43.954 40.6901 36.7328C41.7114 29.5115 48.3939 24.4865 55.6151 25.5078C62.8364 26.529 68.0401 33.2365 67.0176 40.4578V40.459Z" stroke="#000C1F" stroke-linecap="round" stroke-linejoin="round"/>
    <path d="M56.5767 25.6591C65.1454 26.7141 70.2142 33.7503 69.2404 40.8353C68.3604 47.2378 62.7204 54.5778 52.2017 52.5191" stroke="#000C1F" stroke-linecap="round" stroke-linejoin="round"/>
    <path d="M59.8653 37.5427C60.1415 35.0452 58.5815 33.0752 56.2603 32.3215L56.6465 30.4577L54.4178 29.9952L54.0103 31.959C51.8803 31.954 49.8765 32.934 49.364 35.1952C48.1803 40.1265 55.8365 39.7515 55.7303 42.869C54.9128 45.3752 50.0028 43.909 50.604 41.3052C49.1378 40.9777 48.044 40.7727 47.8403 40.7352C47.6628 40.7027 47.5078 41.849 47.9078 43.354C48.5003 44.719 49.8315 45.739 51.3753 46.2927L51.0815 47.709L53.3103 48.1715L53.6053 46.7502C55.0815 46.8365 56.5315 46.4915 57.5578 45.6227C59.399 43.954 59.1415 40.7665 57.0028 39.4202C55.709 38.1715 50.6103 37.159 52.8828 34.934C54.109 33.7327 57.0165 34.8302 57.034 36.8227C57.034 36.869 59.8315 37.8477 59.8653 37.5415V37.5427Z" stroke="#000C1F" stroke-linecap="round" stroke-linejoin="round"/>
    <path d="M128.873 102.12C109.498 92.5639 119.085 61.4564 119.48 61.3802C127.962 59.7489 137.288 56.6439 137.812 56.2164C138.219 56.6952 143.553 60.6752 145.397 62.0514C147.91 63.9289 149.983 64.8527 152.998 66.6339C149.358 100.853 128.873 102.12 128.873 102.12V102.12Z" stroke="#000C1F" stroke-linecap="round" stroke-linejoin="round"/>
    <path d="M129.34 98.894C112.934 90.7065 121.114 63.9327 121.449 63.8677C128.64 62.4502 136.55 59.7627 136.995 59.3952C137.339 59.8065 141.854 63.2202 143.414 64.4015C145.542 66.0115 147.297 66.804 149.848 68.3302C146.704 97.769 129.34 98.8952 129.34 98.8952V98.894Z" stroke="#000C1F" stroke-linecap="round" stroke-linejoin="round"/>
    <path d="M137.829 56.2939L142.664 57.8289C142.664 57.8289 152.083 65.2527 157.259 67.8889C157.259 67.8889 156.508 99.3214 133.582 103.679L128.872 102.12" stroke="#000C1F" stroke-linecap="round" stroke-linejoin="round"/>
    <path d="M152.997 66.6339L157.26 67.8889" stroke="#000C1F" stroke-linecap="round" stroke-linejoin="round"/>
    <path d="M131.01 81.6177C131.01 81.6177 127.533 76.2214 126.274 76.2202C124.747 76.2189 123.715 77.8702 124.558 78.8889C125.623 80.1777 129.284 85.6489 129.284 85.6489C129.284 85.6489 130.429 87.6752 132.239 86.0402C134.049 84.4064 144.895 75.8402 144.895 75.8402C144.895 75.8402 145.894 74.7314 144.709 73.3814C143.524 72.0314 142.518 72.0689 141.538 72.9614C140.558 73.8539 131.01 81.6177 131.01 81.6177V81.6177Z" stroke="#000C1F" stroke-linecap="round" stroke-linejoin="round"/>
</svg>
