<svg viewBox="0 0 451 267" fill="none" xmlns="http://www.w3.org/2000/svg">
    <path d="M17.167 182.505L43.1226 178.047L26.3504 157.78L17.167 182.505Z" stroke="#D9D9D9" stroke-linecap="round" stroke-linejoin="round"/>
    <path d="M34.4216 167.922L21.8042 170.028L30.0288 180.122L34.4216 167.922Z" stroke="#D9D9D9" stroke-linecap="round" stroke-linejoin="round"/>
    <path d="M21.3216 169.933L14.5488 167.618" stroke="#D9D9D9" stroke-linecap="round" stroke-linejoin="round"/>
    <path d="M30.2192 180.639L31.4568 187.716" stroke="#D9D9D9" stroke-linecap="round" stroke-linejoin="round"/>
    <path d="M34.7314 167.884L40.5454 163.304" stroke="#D9D9D9" stroke-linecap="round" stroke-linejoin="round"/>
    <path d="M26.374 157.753L14.2734 167.55L16.9866 182.62L31.4672 187.956L43.2822 177.854L41.1028 162.768L26.374 157.753Z" stroke="#D9D9D9" stroke-linecap="round" stroke-linejoin="round"/>
    <path d="M407.905 251.102C404.916 257.852 399.657 261.146 396.943 260.977C384.132 260.174 389.001 242.077 389.943 238.945C390.8 236.09 400.823 215.583 416.793 221C432.762 226.417 430.471 246.883 428.465 255.101C426.459 263.316 419.717 268.294 412.515 264.895C405.318 261.5 408.157 247.939 410.56 241.22C412.964 234.5 418.686 237.804 418.686 237.804C418.686 237.804 421.349 238.709 418.452 245.395C415.555 252.084 416.626 258.53 417.612 258.591C418.598 258.652 424.174 248.699 421.842 238.736C421.842 238.736 419.479 226.14 410.322 227.865C406.888 228.509 404.257 230.163 402.234 232.242C398.861 235.708 397.185 240.359 396.328 243.515C395.679 245.904 394.876 250.785 397.181 253.383" stroke="#D9D9D9" stroke-linecap="round" stroke-linejoin="round"/>
    <path d="M408.412 228.327C408.412 228.327 411.043 233.251 410.55 241.375" stroke="#D9D9D9" stroke-linecap="round" stroke-linejoin="round"/>
    <path d="M396.638 252.644C396.638 252.644 401.799 250.73 402.387 241.442C402.979 232.154 402.231 232.242 402.231 232.242" stroke="#D9D9D9" stroke-linecap="round" stroke-linejoin="round"/>
    <path d="M404.546 221.733C404.546 221.733 401.081 215.354 392.187 215.286C383.293 215.219 372.392 223.369 369.832 232.533C367.272 241.696 367.636 251.534 374.864 254.44C374.864 254.44 384.459 256.593 388.44 245.763" stroke="#D9D9D9" stroke-linecap="round" stroke-linejoin="round"/>
    <path d="M398.317 226.241C398.317 226.241 395.723 221.884 389.229 222.951C382.735 224.017 377.189 233.481 376.448 237.362C375.707 241.24 374.84 247.075 377.271 247.72" stroke="#D9D9D9" stroke-linecap="round" stroke-linejoin="round"/>
    <path d="M390.511 237.511C390.511 237.511 391.286 229.461 389.229 222.954" stroke="#D9D9D9" stroke-linecap="round" stroke-linejoin="round"/>
    <path d="M382.187 227.311C382.187 227.311 384.105 232.539 383.323 236.66C382.541 240.781 379.926 247.163 376.336 247.028" stroke="#D9D9D9" stroke-linecap="round" stroke-linejoin="round"/>
    <path d="M385.166 216.721C385.166 216.721 381.385 209.525 370.356 210.396C359.323 211.263 352.574 224.092 350.724 229.863C348.874 235.634 347.729 245.867 355.45 248.807C363.171 251.743 368.39 241.797 368.39 241.797" stroke="#D9D9D9" stroke-linecap="round" stroke-linejoin="round"/>
    <path d="M379.022 220.16C379.022 220.16 373.355 216.066 368.768 218.233C364.181 220.399 357.874 226.069 357.157 233.542C357.157 233.542 356.011 240.005 359.302 242.664" stroke="#D9D9D9" stroke-linecap="round" stroke-linejoin="round"/>
    <path d="M363.467 221.874C363.467 221.874 365.221 227.335 364.48 231.216C363.739 235.094 362.501 241.159 358.438 241.76" stroke="#D9D9D9" stroke-linecap="round" stroke-linejoin="round"/>
    <path d="M370.444 217.936C370.444 217.936 372.664 225.371 371.525 228.479" stroke="#D9D9D9" stroke-linecap="round" stroke-linejoin="round"/>
    <path d="M365.837 211.057C365.837 211.057 359.36 202.924 348.769 206.184C338.181 209.444 335.189 217.602 335.189 217.602C335.189 217.602 332.486 223.109 335.557 224.389C338.63 225.668 340.293 222.829 343.003 219.073C345.712 215.317 349.789 212.573 353.753 212.849C357.718 213.126 359.656 215.533 359.656 215.533" stroke="#D9D9D9" stroke-linecap="round" stroke-linejoin="round"/>
    <path d="M434.874 207.277C443.185 207.277 449.922 205.169 449.922 202.569C449.922 199.969 443.185 197.861 434.874 197.861C426.563 197.861 419.826 199.969 419.826 202.569C419.826 205.169 426.563 207.277 434.874 207.277Z" stroke="#D9D9D9" stroke-linecap="round" stroke-linejoin="round"/>
    <path d="M418.215 177.986C422.182 176.384 421.496 165.559 416.682 153.808C411.867 142.056 404.748 133.828 400.78 135.43C396.813 137.031 397.499 147.856 402.313 159.608C407.128 171.359 414.247 179.587 418.215 177.986Z" stroke="#D9D9D9" stroke-linecap="round" stroke-linejoin="round"/>
    <path d="M398.987 137.006L346.12 182.484C346.12 182.484 344.607 185.431 349.425 185.238C354.243 185.046 415.276 179.069 415.276 179.069" stroke="#D9D9D9" stroke-linecap="round" stroke-linejoin="round"/>
    <path d="M154.816 201.091C208.665 202.617 309.417 205.242 309.417 205.242C312.134 205.425 314.561 203.565 315.071 200.909L336.447 91.7174C337.066 88.5044 334.655 85.4973 331.361 85.3724L132.189 79.7935C129.523 79.6923 127.184 81.5418 126.691 84.1439L115.434 140.915" stroke="#D9D9D9" stroke-linecap="round" stroke-linejoin="round"/>
    <path d="M146.768 206.896C199.679 208.398 314.109 212.617 314.109 212.617C316.778 212.795 319.165 210.97 319.665 208.361L340.67 101.073C340.67 101.073 342.839 90.4719 335.903 87.1914" stroke="#D9D9D9" stroke-linecap="round" stroke-linejoin="round"/>
    <path d="M137.486 195.819C131.618 215.877 109.402 229.252 89.196 223.427C68.9898 217.602 57.9466 194.635 63.815 174.577C69.6834 154.519 90.8212 142.984 111.027 148.809C131.234 154.634 143.355 175.762 137.486 195.819V195.819Z" stroke="#D9D9D9" stroke-linecap="round" stroke-linejoin="round"/>
    <path d="M114.04 149.67C138.085 156.136 149.682 178.138 144.008 197.831C138.88 215.627 119.769 234.149 90.5698 224.045" stroke="#D9D9D9" stroke-linecap="round" stroke-linejoin="round"/>
    <path d="M131.574 85.3826L207.887 155.562L327.808 92.5983" stroke="#D9D9D9" stroke-linecap="round" stroke-linejoin="round"/>
    <path d="M240.265 145.724L306.996 197.864" stroke="#D9D9D9" stroke-linecap="round" stroke-linejoin="round"/>
    <path d="M185.093 144.084L145.449 168.678" stroke="#D9D9D9" stroke-linecap="round" stroke-linejoin="round"/>
    <path d="M104.407 65.9828C97.3694 57.9739 105.635 33.3331 90.3858 38.1222C77.612 42.1351 63.196 50.4477 57.1372 33.5018C54.1894 19.0973 58.0484 2.20882 37.0364 14.4331C21.852 23.0292 20.6212 14.6423 29.1518 8.31757C40.0182 0.261446 55.937 -4.5513 62.6044 12.7726C64.8042 19.1749 62.9716 26.2321 65.6814 32.4522C71.322 41.7402 81.6954 30.6364 89.1074 29.5868C106.981 26.2692 108.929 44.3896 109.558 57.4474C109.796 61.9092 116.076 63.1883 114.801 67.8661C114.743 68.1124 112.618 75.3316 104.404 65.9828H104.407Z" stroke="#D9D9D9" stroke-linecap="round" stroke-linejoin="round"/>
    <path d="M46.0768 137.241C50.304 136.092 50.9321 125.013 47.4798 112.495C44.0275 99.9769 37.8021 90.7601 33.5749 91.9088C29.3477 93.0576 28.7196 104.137 32.1719 116.655C35.6242 129.173 41.8496 138.39 46.0768 137.241Z" stroke="#D9D9D9" stroke-linecap="round" stroke-linejoin="round"/>
    <path d="M48.0765 135.896L96.3701 99.1155C96.3701 99.1155 98.2673 96.3041 93.3509 95.916C88.4345 95.5313 36.6797 91.1978 36.6797 91.1978" stroke="#D9D9D9" stroke-linecap="round" stroke-linejoin="round"/>
    <path d="M58.4452 68.4033C59.8489 64.4377 48.6186 56.9091 33.3617 51.5877C18.1048 46.2663 4.59866 45.1671 3.19495 49.1327C1.79125 53.0983 13.0215 60.6269 28.2784 65.9483C43.5353 71.2697 57.0414 72.3688 58.4452 68.4033Z" stroke="#D9D9D9" stroke-linecap="round" stroke-linejoin="round"/>
    <path d="M56.242 67.5722C57.2355 64.7655 46.6119 58.504 32.5136 53.5867C18.4153 48.6694 6.18102 46.9583 5.18754 49.765C4.19405 52.5717 14.8176 58.8332 28.9159 63.7505C43.0142 68.6678 55.2485 70.3788 56.242 67.5722Z" stroke="#D9D9D9" stroke-linecap="round" stroke-linejoin="round"/>
    <path d="M110.272 210.666L126.021 170.517C126.143 170.206 125.875 169.879 125.542 169.94L72.352 179.569C71.9508 179.643 71.8658 180.176 72.2262 180.368L83.1912 186.17C83.2932 186.224 83.4088 186.234 83.5176 186.2L111.275 177.868C111.738 177.729 112.044 178.333 111.659 178.62L93.1124 192.377C92.9084 192.529 92.8812 192.822 93.0546 193.011L109.558 210.801C109.776 211.034 110.16 210.963 110.279 210.666H110.272Z" stroke="#D9D9D9" stroke-linecap="round" stroke-linejoin="round"/>
    <path d="M99.1339 199.565L88.0329 205.809C87.7779 205.951 87.4582 205.809 87.397 205.526L83.3477 186.254" stroke="#D9D9D9" stroke-linecap="round" stroke-linejoin="round"/>
    <path d="M92.7283 192.66L87.5229 205.816" stroke="#D9D9D9" stroke-linecap="round" stroke-linejoin="round"/>
</svg>
