<svg viewBox="0 0 1471 917" fill="none" xmlns="http://www.w3.org/2000/svg">
    <path d="M1095.14 13.17C1110.86 20.21 1134.59 32.96 1142.8 48.54C1145.04 52.86 1144.89 58.54 1140.5 61.49C1132.31 66.85 1119.53 65.04 1110.37 63.63C1093.42 60.53 1077.18 54.21 1062.15 45.86C1052.15 40.12 1042.5 33.6 1034.82 24.82C1028.08 17.32 1024.16 5.95996 1036.71 2.00996C1054.01 -2.54004 1079.12 6.27996 1095.15 13.18L1095.14 13.17ZM1094.32 15.04C1078.89 8.64996 1062.39 3.19996 1045.58 3.49996C1017.97 4.98996 1037.86 25.18 1049.93 33.39C1059.04 39.86 1068.98 45.17 1079.21 49.67C1094.48 56.18 1110.79 61.99 1127.53 62.15C1142.76 61.92 1146.17 54.3 1136.14 42.74C1124.87 30.2 1109.56 21.91 1094.32 15.03V15.04Z" fill="#000C1F"/>
    <path d="M1031.41 14.7199C1031.41 14.5999 1027.84 173.1 1027.72 171.05C1028.17 171.95 1029.09 173.07 1030.11 173.15C1032.53 173.25 1034.97 170.64 1036.76 168.8L1040.26 165.18L1054.24 150.71C1068.15 136.28 1096.27 107.29 1110.25 92.9299L1138.38 64.1699C1138.64 63.8999 1139.07 63.8999 1139.33 64.1599C1139.59 64.4199 1139.6 64.8399 1139.35 65.0999L1111.92 94.5299C1098.21 109.18 1070.59 138.57 1056.81 153.15C1054.33 155.78 1041.78 169.09 1039.56 171.44C1037.74 173.36 1035.56 175.5 1032.82 176.4C1029.34 177.68 1025.8 175.43 1024.97 171.89C1024.6 171.64 1029.01 14.9899 1028.84 14.6499C1028.86 13.9399 1029.45 13.3799 1030.15 13.3999C1030.86 13.4199 1031.42 13.9999 1031.4 14.7099L1031.41 14.7199Z" fill="#000C1F"/>
    <path d="M437.558 838.35C449.408 863.68 461.148 888.8 472.758 914.12L471.568 914.01L520.928 845.53L521.358 846.47C493.378 843.9 465.558 841.16 437.548 838.35C437.548 838.35 465.558 841.16 437.548 838.35H437.558ZM436.398 837.53C464.678 840.01 493.168 842.56 521.478 845.29C521.928 845.32 522.178 845.87 521.908 846.23L472.698 914.82C472.408 915.24 471.708 915.18 471.508 914.71C459.678 889.05 447.988 863.19 436.398 837.54V837.53Z" fill="#000C1F"/>
    <path d="M495.82 878.71C490.1 866.53 484.54 854.5 479.06 842.19L480.06 842.29C479.2 843.82 478.09 845.16 477.09 846.59C471.55 854.23 461.24 868.41 455.58 876.16L455 874.89C468.62 876 482.09 877.34 495.82 878.7V878.71ZM497.15 879.65C483.18 878.69 468.94 877.7 454.87 876.49C454.26 876.45 453.92 875.7 454.29 875.22C460.02 867.42 470.29 853.39 475.94 845.75C477.01 844.35 477.97 842.86 479.18 841.56C479.4 841.32 479.77 841.31 480 841.53C485.93 854.04 491.55 866.96 497.16 879.65H497.15Z" fill="#000C1F"/>
    <path d="M479.2 840.36L480.32 817.5C480.34 817.04 480.73 816.69 481.19 816.71C481.66 816.73 482.02 817.15 481.97 817.62L479.79 840.4C479.76 840.77 479.18 840.73 479.2 840.36Z" fill="#000C1F"/>
    <path d="M453.609 876.99L432.849 887.16C432.419 887.37 431.899 887.19 431.689 886.76C431.469 886.32 431.669 885.77 432.129 885.58L453.349 876.41C453.709 876.25 453.989 876.82 453.619 876.99H453.609Z" fill="#000C1F"/>
    <path d="M497.029 879.86L516.509 893.4C516.999 893.74 517.119 894.42 516.779 894.91C516.429 895.42 515.699 895.53 515.219 895.14L496.679 880.34C496.389 880.12 496.729 879.64 497.029 879.86V879.86Z" fill="#000C1F"/>
    <path d="M520.719 846.3L480.719 817.2L481.669 817.86L436.809 838.23L437.279 837.56L432.249 886.65L432.029 886.18L473.689 913.51L472.279 913.37L517.729 894.91L517.309 895.49L520.719 846.29V846.3ZM522.309 845.56L518.679 895.6C518.659 895.87 518.489 896.09 518.259 896.18L473.429 916.1C472.949 916.31 472.409 916.24 472.019 915.96L431.459 887.02C431.299 886.91 431.219 886.73 431.239 886.55L435.639 837.4C435.669 837.1 435.849 836.85 436.109 836.73L480.549 815.45C480.549 815.45 480.579 815.45 480.589 815.45L481.499 816.11L522.299 845.55L522.309 845.56Z" fill="#000C1F"/>
    <path d="M253.78 776.69C251.05 765.89 250.93 749.81 259.42 741.49C263.01 738.75 267.41 736.88 271.96 736.62C289.61 736.21 301.53 759.01 307.27 773.19C312.25 790.47 312.9 812.37 304.73 828.77C296.68 845.19 276.64 853.34 259.11 849.49C236.9 844.25 221.92 824.49 211.61 805.38C205.18 793.9 201.52 778.81 208.99 766.91C212.68 761.06 219 757.34 225.71 756.05C232.64 754.72 239.48 758.46 244.24 763.13C253.83 772.58 259.76 785.04 264.37 797.51C268.44 807.57 264.99 816.43 253.77 818.46C251.49 819.02 248.8 817.09 247.36 815.13C242.82 809.43 242.22 801.98 239.33 795.54C237.5 791.3 235.17 787.26 232.31 783.64C230.52 781.44 228.63 779.27 226.25 777.78C225.82 777.55 225.52 777.38 225.19 777.36C225.17 777.35 225.23 777.36 225.25 777.34C225.26 777.31 225.32 777.31 225.36 777.27C225.39 777.25 225.4 777.17 225.39 777.24C224.91 780.27 225.79 783.41 226.42 786.42C230.3 802.08 239.69 816.8 253.75 825.11C261.34 829.69 271.45 832.93 279.52 827.81C291.14 819.71 294.54 803.97 292 790.64C290.31 781.6 287.26 772.43 281.83 764.94C280.45 763.1 278.92 761.37 277.18 759.92C275.41 758.49 273.48 757.38 271.31 756.5C271.21 756.46 271.15 756.34 271.19 756.24C271.22 756.16 271.3 756.11 271.38 756.11C273.84 756.14 276.15 757.35 278.03 758.85C283.66 763.39 286.98 770.15 289.51 776.73C295.56 791.93 297.01 811.04 285.71 824.22C269.97 843.55 242.2 822.72 232.89 806.51C228.04 798.33 224.39 789.27 223.46 779.74C223.46 778.49 223.14 776.48 224.43 775.72C226.03 775.11 227.52 776.46 228.69 777.3C235.96 783.61 240.6 792.46 243.32 801.57C244.79 806.59 246.62 815.46 252.08 817.38C252.61 817.51 253.18 817.55 253.61 817.43C255.67 817.05 257.76 816.25 259.53 815.09C263.19 812.76 264.84 808.51 264.25 804.29C264.04 802.15 263.37 800.14 262.66 798.09C259.74 789.83 256.03 781.8 251.29 774.45C245.64 765.99 237.22 755.86 225.97 757.58C208.84 760.74 203.16 777.25 207.66 792.71C210.12 801.08 214.75 808.8 219.41 816.15C228.98 830.45 242.02 844.36 259.37 848.25C272.06 850.98 286.24 847.41 295.83 838.57C312.21 823.19 311.86 793.82 306.1 773.62C300.58 759.98 288.94 737.5 272.01 737.85C267.75 738.09 263.6 739.85 260.21 742.43C254.74 747.75 253.52 756.08 253.35 763.42C253.33 767.78 253.9 772.15 254.97 776.38C255.16 777.17 253.98 777.46 253.78 776.68V776.69Z" fill="#000C1F"/>
    <path d="M287.35 820.89C287.35 820.89 275.01 815.35 263.84 799.07" stroke="#000C1F" stroke-width="1.23" stroke-linecap="round" stroke-linejoin="round"/>
    <path d="M274.01 757.24C272.36 761.17 272.43 765.83 273.29 769.98C275.58 780.93 283.32 789.65 289.35 798.84C290.58 800.48 291.7 802.27 293.24 803.63C293.1 803.63 292.97 803.66 292.82 803.81C293.06 803.57 293.45 803.57 293.69 803.81C294.07 804.16 293.77 804.84 293.3 804.87C292.86 804.94 292.44 804.69 292.08 804.48C286.79 800.46 283.03 794.77 279.15 789.47C273.79 781.98 269.41 772.81 270.68 763.33C271.04 760.98 271.63 758.69 272.96 756.59C273.14 756.3 273.52 756.22 273.81 756.4C274.1 756.58 274.17 756.95 274.01 757.24V757.24Z" fill="#000C1F"/>
    <path d="M304.769 827.23C317.069 831.69 330.769 827.36 339.999 818.54C341.729 816.74 343.529 814.75 344.969 812.73C345.909 811.62 346.929 809.66 347.779 808.46C349.209 805.93 350.579 803.09 351.719 800.4C356.769 787.41 358.699 772.47 354.309 759.06C349.049 744.64 338.359 725.5 322.309 721.86C319.269 721.08 314.999 721.54 312.609 722.17C309.669 723.68 306.879 725.93 304.639 728.49C297.459 736.37 296.649 747.95 299.909 757.77C300.149 758.54 298.989 758.89 298.739 758.15C295.109 747.96 295.769 735.64 303.239 727.28C305.699 724.45 308.499 722.04 311.889 720.33C318.909 718.19 326.699 719.87 332.649 723.98C344.119 731.86 351.849 745.46 356.519 758.33C361.039 772.38 359.019 787.71 353.719 801.21C351.089 807.26 347.729 813.19 343.159 817.99L341.309 819.92C340.149 820.87 338.429 822.49 337.159 823.29C327.849 830.15 315.189 832.59 304.259 828.36C303.479 828.02 303.979 826.89 304.759 827.23H304.769Z" fill="#000C1F"/>
    <path d="M309.86 809.37C321.88 812.48 333.84 802.77 336.23 791.09C338.75 780.48 337.9 765.06 332.91 755.26C330.07 749.85 327.25 744.18 322.8 739.97C321.31 738.7 319.71 737.54 317.7 737.88C317.59 737.9 317.49 737.83 317.47 737.72C323.51 733.12 332.34 750.02 334.75 754.3C338.9 761.79 339.97 770.58 340.18 779.02C340.18 788.53 338.34 799.12 330.68 805.66C325.03 810.73 316.72 813.33 309.41 810.52C308.67 810.2 309.11 809.11 309.86 809.37V809.37Z" fill="#000C1F"/>
    <path d="M308.199 776.5C313.099 783.85 318.829 790.73 325.309 796.75C327.479 798.75 329.779 800.59 332.169 802.3C332.459 802.49 332.529 802.89 332.329 803.17C332.129 803.45 331.749 803.51 331.469 803.31C326.569 799.86 322.139 795.77 318.139 791.32C314.139 786.86 310.459 782.17 307.169 777.16C306.739 776.49 307.769 775.8 308.209 776.5H308.199Z" fill="#000C1F"/>
    <path d="M338.359 784.56C332.399 780.87 326.849 776.28 322.949 770.36C318.539 762.83 314.859 752.13 316.329 743.35C316.809 741 317.959 738.57 320.069 737.14C320.349 736.95 320.729 737.02 320.929 737.3C321.119 737.57 321.049 737.94 320.789 738.14C319.089 739.42 318.199 741.5 317.869 743.64C316.989 750.32 319.149 757.09 321.599 763.29C323.309 767.52 325.569 771.32 328.749 774.59C331.819 777.91 335.339 780.89 339.009 783.51C339.659 783.93 339.039 784.97 338.359 784.55V784.56Z" fill="#000C1F"/>
    <path d="M349.069 808.16C360.869 812.33 374.269 807.92 383.489 800.02C393.529 792.33 397.989 779.76 398.699 767.4C399.659 746.98 394.409 724.57 379.349 709.95C376.319 707.18 372.779 704.92 368.849 703.87C361.089 701.76 351.829 704.74 347.549 711.76C343.209 718.8 342.819 727.79 343.929 735.83C344.049 736.63 342.839 736.8 342.709 736.02C341.479 727.58 341.799 718.49 346.289 710.97C350.859 703.33 360.809 699.96 369.279 702.25C373.539 703.38 377.319 705.79 380.499 708.68C396.059 723.67 401.539 746.5 400.629 767.53C399.979 780.2 395.229 793.69 384.769 801.6C383.419 802.89 381.079 804.3 379.559 805.4C370.449 811.07 358.769 813.44 348.539 809.28C347.769 808.93 348.289 807.81 349.049 808.16H349.069Z" fill="#000C1F"/>
    <path d="M355.34 792.43C362.75 791.68 370.7 789.42 375.39 783.42C377.98 779.77 379.3 775.21 380.43 770.89C383.22 759.13 382.59 746.08 376.04 735.68C372.3 729.31 367.1 722.22 359.28 721.06C358.97 721.04 358.99 720.52 359.31 720.53C365.6 720.34 370.84 724.88 374.55 729.52C383.97 741.24 386.29 756.79 382.5 771.4C379.61 782.32 376.21 788.78 364.76 792.14C361.7 793.01 358.59 793.54 355.39 793.66C355.05 793.67 354.77 793.41 354.75 793.07C354.74 792.73 355.01 792.44 355.35 792.43H355.34Z" fill="#000C1F"/>
    <path d="M382.02 767.27C376.31 763.46 370.96 758.92 367.06 753.2C362.36 744.96 353.89 729.07 361.85 720.84C362.41 720.31 363.26 721.1 362.74 721.69C358.26 726.91 360.6 734.4 362.82 740.16C365.4 746.27 368.15 752.48 372.81 757.29C375.82 760.55 379.2 763.53 382.72 766.26C383.35 766.7 382.69 767.71 382.02 767.28V767.27Z" fill="#000C1F"/>
    <path d="M374.619 785.12C370.989 782.67 367.599 779.93 364.429 776.91C361.309 773.79 358.079 770.56 356.629 766.23C356.529 765.9 356.709 765.56 357.039 765.46C357.359 765.36 357.699 765.54 357.799 765.85C360.399 771.62 365.709 775.86 370.359 780.02C371.999 781.41 373.669 782.8 375.349 784.13C375.949 784.61 375.269 785.56 374.629 785.12H374.619Z" fill="#000C1F"/>
    <path d="M394.129 790.38C408.489 792.83 424.079 787.03 432.309 774.79C440.719 763.09 444.929 747.61 441.339 733.48C440.529 730.1 439.259 726.42 437.029 723.75C435.659 722.14 433.919 721.24 432.009 721.75L430.829 722.14C426.509 723.76 426.179 728.99 426.169 733.06C426.139 736.75 426.479 740.44 426.449 744.28C426.239 753.69 423.279 764.03 415.379 769.82C410.659 773.19 404.739 774.92 398.919 773.86C398.589 773.8 398.369 773.48 398.429 773.14C398.489 772.81 398.809 772.59 399.149 772.65C402.659 773.27 406.479 772.63 409.769 771.26C420.389 767.03 424.409 754.86 424.459 744.25C424.459 740.61 424.079 736.85 424.069 733.06C424.089 729.16 424.199 724.74 427.289 721.75C430.769 718.62 435.749 718.36 438.799 722.21C453.579 742.88 440.679 781.77 416.399 790.17C409.159 792.77 401.289 793.28 393.839 791.55C393.059 791.33 393.329 790.18 394.129 790.35V790.38Z" fill="#000C1F"/>
    <path d="M1145.67 285.88C1168.88 270.34 1199.36 289.88 1194.81 317.57C1191.96 335.07 1174.19 347.11 1156.88 343.27C1129.47 337.22 1122.63 301.67 1145.67 285.88ZM1146.25 286.73C1128.89 298.42 1129.49 324.48 1147.23 335.38C1168.6 348.42 1195.25 330.37 1191.06 305.69C1187.52 285.18 1163.54 274.95 1146.25 286.74V286.73Z" fill="#000C1F"/>
    <path d="M1259.04 70.51C1246.85 77.43 1233.66 83.2901 1219.55 84.9101C1204.83 86.5201 1199.78 78.2401 1208.99 66.3201C1217.73 55.2701 1229.52 47.2001 1241.52 40.1801C1253.64 33.3901 1266.55 27.35 1280.46 25.34C1288.63 24.11 1298.34 26.5901 1294.52 36.9701C1288.58 50.7201 1271.63 63.0101 1259.03 70.5201L1259.04 70.51ZM1256.67 66.4101C1268.25 59.5801 1280 52.03 1288.54 41.52C1302.36 23.05 1278.24 26.9201 1267.5 30.6901C1250.31 36.6201 1234.09 46.0601 1220.45 58.09C1212.19 65.27 1196.68 84.0301 1219.14 81.2801C1232.48 79.2001 1244.95 72.9401 1256.66 66.4101H1256.67Z" fill="#000C1F"/>
    <path d="M271.86 434.37C261.81 440.03 251.06 444.87 239.46 446.18C227.42 447.53 223.24 440.66 230.8 430.93C237.97 421.87 247.64 415.24 257.49 409.48C267.43 403.91 278.03 398.95 289.44 397.31C301.33 395.72 305.18 402.41 298.1 412.08C291.23 421.47 281.74 428.45 271.87 434.38L271.86 434.37ZM269.92 431.01C279.44 425.44 289.05 419.19 296.07 410.59C307.41 395.49 287.6 398.58 278.81 401.7C264.7 406.56 251.4 414.31 240.21 424.18C233.44 430.07 220.71 445.47 239.13 443.2C250.06 441.48 260.32 436.39 269.91 431L269.92 431.01Z" fill="#000C1F"/>
    <path d="M1076.93 318.79C1092.93 317.66 1108.94 316.71 1124.96 315.96C1125.72 315.93 1126.36 316.52 1126.39 317.27C1126.42 318.02 1125.85 318.65 1125.11 318.7C1109.1 319.61 1093.1 320.33 1077.07 320.87C1075.73 320.93 1075.57 318.92 1076.93 318.8V318.79Z" fill="#000C1F"/>
    <path d="M1201.07 316.57C1231.27 317.1 1340.51 319.26 1341.82 359.71C1341.65 380.55 1313.62 397.95 1297.82 407.97C1272.8 423.19 1246.23 435.55 1219.16 446.62C1205.64 452.14 1192 457.36 1178.28 462.34C1176.06 463.08 1174.59 459.82 1177 458.81C1190.68 453.85 1204.28 448.67 1217.76 443.18C1247.26 430.91 1335.65 394.93 1337.23 359.76C1336.16 331.46 1266.69 324.43 1244.53 321.99C1230.07 320.54 1215.55 319.65 1201.01 319.01C1200.33 318.98 1199.81 318.41 1199.84 317.73C1199.87 317.07 1200.42 316.55 1201.08 316.56L1201.07 316.57Z" fill="#000C1F"/>
    <path d="M409.29 597.22C374.1 599.4 251.08 603.75 239.39 563.31C236.48 550.59 245.06 539.04 253.16 530.25C258.71 524.39 264.86 519.21 271.24 514.4C296.95 495.36 325.96 481.64 355.48 469.69C370.36 464.02 385.32 458.8 400.3 453.55C402.57 452.83 403.93 456.12 401.54 457.09C386.59 462.32 371.59 467.55 356.83 473.17C322.13 487.37 270.34 510.91 248.22 541.53C241.48 551.14 238.63 562.94 248.25 571.72C269.13 591.35 332.76 593.45 361.71 594.48C369.61 594.71 377.53 594.83 385.44 594.83C393.36 594.9 401.27 594.81 409.2 594.76C409.88 594.76 410.43 595.3 410.44 595.98C410.44 596.63 409.93 597.17 409.29 597.21V597.22Z" fill="#000C1F"/>
    <path d="M1446.27 121.16C1430.62 123.1 1412.28 110.07 1398.5 103.51C1385.76 97.27 1370.48 90.21 1364.66 108.43C1355.89 135.98 1352.97 183.98 1313.92 181.93C1309.46 181.69 1305.08 180.92 1300.81 179.83C1288.1 174.66 1276.54 167.48 1264.15 161.85C1240.79 150.94 1233.35 161.03 1229.99 183.92C1229.37 188.42 1229.16 192.85 1228.71 197.41C1227.86 206.55 1225.03 215.72 1219.54 223.24C1208.55 238.88 1187.31 243.04 1169.68 238.17C1160.79 235.9 1152.45 231.73 1145.12 226.26C1135.64 220.91 1123.47 213.55 1112.09 218.61C1101.06 223.3 1090.23 210.33 1096.86 200.28C1100.2 195.45 1106.05 193.34 1111.47 191.82C1120.75 189.81 1130.25 192.83 1138.8 196.2C1145.6 198.96 1152 202.43 1158.36 205.78C1164.72 209.11 1171 212.61 1177.56 214.93C1180.82 216.07 1184.19 216.89 1187.41 216.74C1198.81 216.08 1200.57 202.51 1203.15 193.67C1210.06 167.48 1214.66 130.79 1249.67 132.2C1253.15 132.37 1257.12 132.82 1260.53 133.56C1279.27 137.34 1293.1 153.1 1311.97 156.33C1323.52 156.69 1329.36 150 1331.82 138.65C1334.83 126.21 1333.55 112.08 1338.79 99.78C1347.02 80.14 1361.74 69.58 1383.46 72.87C1399.37 75.38 1413.64 82.77 1427.41 90.59C1430.82 92.36 1433.92 94.86 1437.53 96.16C1445.21 98.43 1453.04 93.15 1460.82 95.34C1467.54 97.27 1472.72 106.08 1468.49 112.41C1463.32 119.43 1454.12 119.89 1446.28 121.17L1446.27 121.16ZM1446.06 119.62C1451.22 118.98 1456.27 117.4 1460.8 115.31C1463 114.31 1465.09 112.96 1466.54 111.06C1469.36 107.45 1467.51 101.97 1464.28 99.14C1462.26 97.23 1459.51 96.41 1456.7 96.51C1449.38 96.83 1440.26 101.19 1433.18 96.3C1414.32 85.58 1390.23 71.56 1367.91 75.88C1356.47 78.2 1347.94 87.18 1343.16 97.48C1336.44 110.44 1338.21 125.12 1334.69 139.33C1333.43 144.62 1331.37 150.02 1327.26 153.86C1323.11 157.85 1317.07 159.07 1311.54 158.74C1297.06 156.02 1285.48 146.07 1272.61 139.8C1268.6 137.9 1264.51 136.12 1260.15 135.38C1258.76 135.09 1256.34 134.7 1254.9 134.55C1247.17 133.61 1238.77 134.08 1231.88 137.98C1213.87 148.31 1211.1 175.91 1206.23 194.44C1204.3 201.61 1203.29 209.19 1198.27 215.16C1189.83 224.99 1175.7 218.87 1166.14 214.31C1150.35 206.94 1134.88 195.98 1117.1 195.22C1110.61 195.06 1102.75 195.76 1098.72 201.51C1094.92 207 1098.76 215.38 1105.23 216.51C1106.76 216.79 1108.35 216.7 1109.88 216.29C1111.13 215.89 1112.59 215.37 1113.73 215.05C1117.87 214 1122.31 214.14 1126.38 215.35C1133.52 217.37 1139.61 221.56 1145.96 225.13C1153.15 230.5 1161.33 234.58 1170.02 236.8C1199.6 244.27 1224.18 228.05 1226.48 197.21C1227.57 184.82 1227.95 166.96 1238.1 158.17C1246.14 151.96 1256.97 155.91 1265.21 159.45C1277.31 164.85 1290.21 172.47 1301.72 177.04C1319.4 181.28 1334.47 178.42 1343.59 161.39C1351.47 146.56 1353.88 129.39 1358.37 113.19C1359.45 109.13 1360.62 104.64 1363.14 100.67C1371.97 86.21 1388.7 94 1400.12 100.47C1413.71 107.67 1430.31 120.91 1446.06 119.64V119.62Z" fill="#000C1F"/>
    <path d="M240.209 677.3C218.999 677.97 193.919 647.25 176.089 647.19C168.219 647.51 164.819 655.74 162.269 662.13C159.259 669.56 156.569 677.19 153.449 684.7C150.279 692.25 146.859 699.77 141.959 706.42C130.539 722.25 114.509 723.86 97.1793 717.2C91.1693 713.98 85.5093 710.22 79.8993 706.46C71.5793 701.02 63.5693 694.83 54.2093 691.45C34.9793 684.35 29.8893 709.73 27.2993 723.46C26.1393 730.07 24.6193 736.67 22.0593 742.96C19.9493 747.68 17.7393 753.38 12.1693 754.91C5.91934 755.93 2.51934 748.98 1.39934 743.93C0.129339 738.87 0.179338 733.73 0.089338 728.59C-0.010662 725.2 -0.0806614 721.77 0.449339 718.4C4.99934 684.39 25.1193 656.7 62.5493 668.47C80.5893 673.68 91.9793 691.2 109.839 696.56C120.909 698.44 127.409 692.36 130.909 681.9C135.039 670.37 135.149 657.02 141.199 645.87C150.679 628.15 166.139 619.55 186.099 624.99C200.879 629.01 213.529 637.55 225.689 646.39C228.699 648.43 231.359 651.11 234.609 652.72C241.599 655.67 249.539 651.52 256.649 654.41C262.749 656.94 266.429 665.81 261.929 671.27C256.449 677.44 247.699 677.12 240.189 677.29L240.209 677.3ZM240.179 675.82C245.039 675.72 249.919 674.65 254.539 673.35C256.769 672.6 258.969 671.65 260.509 670.02C263.669 666.87 262.339 661.43 259.469 658.46C257.729 656.5 255.269 655.44 252.619 655.24C246.799 654.72 239.839 657.14 233.829 654.6C230.349 652.99 227.589 650.26 224.409 648.18C212.419 639.72 199.729 631.46 185.409 627.74C166.639 622.85 152.679 630.79 143.549 647.25C137.449 658.05 137.119 670.79 132.689 682.55C128.969 693.56 121.479 700.42 109.319 698.32C92.8893 693.54 81.8093 679.21 66.3393 672.75C51.2593 666.93 33.1393 666.93 21.3193 679.24C7.46934 693.61 4.44934 714.47 2.30934 733.67C2.50934 748.49 11.5893 762.69 20.7793 742.43C26.1093 730.04 25.9293 716.2 30.9193 703.65C37.6093 685.98 48.9893 685.11 64.1393 693.77C75.5593 700.28 87.0193 709.11 98.0093 714.96C114.079 720.98 129.289 719.73 139.539 704.68C148.619 691.47 152.489 675.48 158.259 660.57C159.649 656.83 161.229 652.74 163.979 649.21C173.689 636.42 188.989 645.33 199.039 652.7C211.009 660.88 225.319 675.43 240.179 675.82V675.82Z" fill="#000C1F"/>
    <path d="M421.84 422.21C420.7 438.71 419.92 455.96 419.79 472.47C416.91 663.72 523.19 790.34 713.28 816.34C796.38 828.88 884.18 806.57 949.51 753.12C949.87 752.83 950.41 752.88 950.7 753.25C950.99 753.61 950.94 754.13 950.59 754.43C924.77 776.34 895.07 793.8 863.22 805.64C823.43 820.53 780.37 827.04 737.95 824.23C526.06 808.16 405.05 671.71 413.4 459.65C414.23 446.92 415.56 434.19 418.28 421.7C418.5 420.73 419.46 420.11 420.44 420.33C421.32 420.53 421.9 421.33 421.85 422.2L421.84 422.21Z" fill="#000C1F"/>
    <path d="M1086.4 427.93C1080.53 336.14 1035.2 258.73 954.98 212.73C897.97 179.7 832.14 162.62 766.55 158.99C744.62 158.14 722.79 160.97 701.16 164.54C672.23 169.47 643.72 176.99 616.22 187.26C588.71 197.5 562.22 210.66 537.71 227.05C537.32 227.31 536.79 227.21 536.53 226.82C536.28 226.44 536.37 225.94 536.73 225.67C560.54 207.97 586.91 193.73 614.43 182.65C642.03 171.57 670.79 163.5 700.04 158.16C722.02 154.41 744.46 151.27 766.84 152.2C862.29 158.03 962.45 190.25 1027.21 263.8C1056.84 297.55 1076.18 339.5 1084.65 383.48C1087.52 398.08 1089.21 412.89 1090.01 427.71C1090.06 428.7 1089.3 429.55 1088.31 429.61C1087.33 429.66 1086.49 428.92 1086.42 427.94L1086.4 427.93Z" fill="#000C1F"/>
    <path d="M566.61 283.31C680.53 312.02 824.35 312.26 938.17 282.89C960.51 276.95 982.55 269.55 1003.5 259.67C1004.03 259.42 1004.66 259.64 1004.91 260.17C1005.15 260.67 1004.95 261.27 1004.47 261.54C988.11 270.61 970.71 277.73 953 283.75C908.7 298.6 862.05 306.44 815.55 310.21C773.73 313.56 731.28 313.32 689.49 309.74C647.64 305.9 605.9 298.8 565.84 286C565.1 285.76 564.69 284.97 564.93 284.23C565.16 283.52 565.91 283.11 566.62 283.3L566.61 283.31Z" fill="#000C1F"/>
    <path d="M906.85 672.59C810.14 660.54 712.04 659.84 615.16 670.19C593.49 672.66 570.95 675.92 549.52 679.99C527.95 684.2 506.07 689.38 485.22 696.35C484.67 696.53 484.07 696.23 483.89 695.68C483.71 695.15 483.98 694.58 484.49 694.37C536.38 673.66 592.22 664.97 647.55 659.45C694.15 655.29 741.11 654.3 787.84 656.35C827.85 658.27 867.97 662.25 907.29 669.8C908.05 669.95 908.55 670.68 908.41 671.44C908.27 672.17 907.58 672.66 906.85 672.57V672.59Z" fill="#000C1F"/>
    <path d="M425.699 494C507.169 492.13 589.149 491.75 670.599 491.8C746.559 491.62 824.179 491.51 900.189 492.94L915.499 493.28C916.269 493.3 916.879 493.93 916.869 494.71C916.849 495.46 916.249 496.05 915.509 496.08L900.199 496.54C752.409 500.28 604.059 499.79 456.289 496.14C448.809 495.98 433.199 495.55 425.679 495.3C425.319 495.29 425.039 494.99 425.049 494.63C425.059 494.28 425.339 494.01 425.689 494H425.699Z" fill="#000C1F"/>
    <path d="M755.029 158.23C758.729 371.34 758.899 588.42 755.999 801.57L755.619 822.32C755.609 823.04 755.019 823.61 754.299 823.59C753.599 823.58 753.039 823.01 753.029 822.32L752.649 801.57C749.869 602.41 750.039 398.86 752.899 199.73C753.029 189.58 753.399 168.42 753.619 158.22C753.619 157.83 753.949 157.52 754.339 157.53C754.719 157.53 755.019 157.85 755.029 158.22V158.23Z" fill="#000C1F"/>
    <path d="M754.329 155.83C701.939 157.38 663.789 201.17 640.149 243.92C567.189 378.42 567.299 596.9 640.509 731.35C656.739 760.36 677.849 787.91 706.819 805.02C721.179 813.42 737.539 818.65 754.329 818.99C754.939 818.99 755.429 819.5 755.419 820.11C755.409 820.71 754.919 821.18 754.329 821.19C745.739 821.3 737.109 820.35 728.789 818.16C703.609 811.61 682.059 795.38 664.779 776.35C554.149 649.01 552.229 383.5 635.069 241.03C656.459 204.75 686.819 169.21 728.959 157.93C737.229 155.77 745.809 154.84 754.339 154.96C754.579 154.96 754.769 155.16 754.769 155.4C754.769 155.64 754.569 155.83 754.339 155.83H754.329Z" fill="#000C1F"/>
    <path d="M928.65 487.74C923.96 396.66 907.34 301.02 856.73 223.59C841.61 201.43 822.93 180.92 799.06 168.12C786.22 161.31 772.06 157.14 757.45 156.48C756.84 156.46 756.36 155.94 756.39 155.33C756.42 154.76 756.89 154.31 757.45 154.29C761.73 154.17 766.03 154.25 770.32 154.68C781.07 155.81 791.57 158.91 801.37 163.45C873.64 198.44 909.58 299.04 922.37 373.49C928.77 411.2 931.27 449.64 929.51 487.72C929.5 487.96 929.3 488.14 929.06 488.13C928.83 488.12 928.66 487.94 928.65 487.72V487.74Z" fill="#000C1F"/>
    <path d="M757.45 819.66C824.48 815.33 866.24 747.09 890.15 691.26C897.34 674.46 903.4 657.09 909 639.69C909.18 639.11 909.8 638.79 910.38 638.98C910.92 639.15 911.23 639.71 911.11 640.25C906.58 660.87 900.35 681.14 892.32 700.7C872.72 748.01 839.76 799.37 788.92 816.35C778.72 819.55 768 821.03 757.44 820.53C757.2 820.52 757.02 820.32 757.03 820.08C757.04 819.85 757.22 819.68 757.44 819.67L757.45 819.66Z" fill="#000C1F"/>
    <path d="M532.1 313.35C521.91 386.88 438.52 438.34 372.06 396.26C336.02 373.44 315.37 329.48 319.22 287.19C326.09 209.63 412.38 165.74 479.42 204.97C516.77 226.22 538.63 270.87 532.09 313.34L532.1 313.35ZM530.75 313.16C537.11 271.48 513.9 228.64 477.38 208.55C412.13 171.6 330.27 212.92 321.44 287.43C312.8 360.93 379.83 426.31 453.17 402.91C492.84 390.44 524.98 354.72 530.74 313.17L530.75 313.16Z" fill="#000C1F"/>
    <path d="M447.93 194.64C544.54 205.48 585.67 310.85 519.35 382.73C497.66 405.36 466.35 415.79 435.38 413.42C427.78 412.84 420.24 411.71 412.86 409.95C412.74 409.92 412.67 409.81 412.7 409.69C412.73 409.58 412.83 409.51 412.94 409.53C416.68 410.08 420.43 410.56 424.18 410.91C457.86 414.35 492.51 404.51 516.13 379.61C553.76 340.97 560.55 279.61 525.39 237.01C506.53 213.36 477.72 198.89 447.88 195.08C447.76 195.06 447.68 194.96 447.69 194.84C447.71 194.72 447.81 194.64 447.93 194.65V194.64Z" fill="#000C1F"/>
    <path d="M473.021 289.8C476.361 270.75 462.681 254.47 445.051 249.06C444.591 248.9 444.331 248.42 444.441 247.96C445.511 243 446.521 238.03 447.631 233.07L448.291 234.08C443.051 232.91 435.691 231.23 430.451 230.42L431.501 229.73C430.601 235.05 430.161 240.48 428.891 245.73C428.711 246.43 428.061 246.89 427.361 246.86C421.851 246.88 416.331 247.71 411.231 249.63C397.821 254.41 390.111 267.28 391.081 281.29C391.741 289.54 397.391 295.87 404.191 300.35C408.761 303.43 413.811 305.92 418.891 308.44C426.491 312.38 435.311 315.93 440.501 323.41C442.291 326.08 443.241 329.44 443.101 332.67C441.721 338.21 436.571 342.5 431.151 343.73C420.951 346.01 409.781 342.26 402.991 334.44C399.621 330.51 398.081 324.91 399.461 319.88C399.461 319.88 399.981 320.7 399.971 320.7C393.431 319.55 384.221 317.99 377.741 316.97C378.091 317.08 378.671 316.83 378.771 316.66C378.721 316.84 378.551 317.26 378.501 317.66C377.571 323.32 379.251 331.22 380.281 335.68C385.061 346.86 395.671 354.41 406.651 358.92C407.181 359.09 407.491 359.65 407.351 360.17L405.331 371.56L404.221 369.87L421.931 374.16L420.941 374.81C421.081 372.87 421.311 370.94 421.591 369.01C421.751 367.93 422.101 365.72 422.291 364.71L422.421 363.99C422.441 363.75 422.531 363.52 423.041 363.38C423.041 363.38 424.191 362.48 424.191 362.51C435.191 363.24 446.971 360.98 455.481 353.64C463.751 346.12 466.631 333.77 463.651 323.12C461.741 315.98 457.201 309.53 450.911 305.6C447.091 302.12 442.111 299.95 437.481 297.65C429.941 293.71 413.971 287.96 412.911 278.41C412.591 274.03 415.541 270.36 418.631 267.62C424.141 263.14 432.001 263.5 438.321 265.86C446.131 268.59 453.561 275.32 453.631 284.16C453.701 283.94 453.401 282.93 452.941 282.65C452.891 282.6 452.861 282.58 452.811 282.55L452.681 282.46C452.841 282.53 453.911 282.96 454.261 283.08C460.241 285.09 466.371 287.6 472.561 288.75C472.831 288.8 473.101 288.78 473.261 288.82C473.331 288.85 473.411 288.94 473.381 289.04C473.251 289.23 473.031 289.52 473.021 289.81V289.8ZM475.401 290.06C475.331 291 474.331 291.71 473.581 291.96C471.041 292.21 468.601 291.5 466.171 291.02C461.291 289.89 456.501 288.43 451.841 286.6C451.471 286.42 450.821 286.22 450.381 285.9C449.831 285.62 449.411 284.53 449.481 284.2C449.511 281.93 449.011 279.71 448.081 277.63C443.411 266.6 425.131 261.06 417.161 271.71C407.091 283.73 429.991 291.85 438.151 296.26C442.711 298.51 448.351 301.19 451.711 304.34C458.341 308.45 463.141 315.23 465.161 322.71C469.551 338.19 462.101 355.23 446.781 361.06C439.611 364.09 431.741 365.02 424.071 364.71L425.221 363.83C425.631 364.16 425.621 364.41 425.541 364.64C425.211 366.1 424.671 368.15 424.301 369.57C423.791 371.45 423.231 373.31 422.591 375.15C422.511 375.61 422.061 375.91 421.601 375.8C421.521 375.77 403.641 372.7 403.571 372.67C402.821 372.49 402.361 371.74 402.541 370.99L405.231 359.74L405.931 360.99C393.801 357.18 382.191 349.11 376.831 337.2C376.261 335.3 375.881 333.34 375.521 331.38C374.961 328.47 373.261 312.42 378.801 314.11C386.011 315.69 393.171 317.43 400.291 319.39C400.661 319.46 400.901 319.84 400.811 320.21C399.771 324.87 401.331 329.7 404.541 333.16C411.771 341.07 427.441 344.92 436.001 337.38C437.561 335.91 438.661 334.03 439.281 331.95L439.181 332.5C439.471 321.54 425.541 316.33 417.241 311.84C407.111 306.66 395.431 301.21 390.031 290.43C384.831 279.69 388.101 265.51 395.511 256.58C403.291 247.33 415.721 243.61 427.401 243.7C427.411 243.7 425.841 244.97 425.841 244.97C426.251 242.32 427.041 239.75 427.691 237.16C428.401 234.58 429.121 231.99 429.791 229.4C429.881 228.92 430.361 228.57 430.841 228.71C435.941 230.04 443.411 231.44 448.661 232.45C449.131 232.54 449.431 233 449.321 233.46C448.371 238.45 447.321 243.41 446.331 248.39L445.691 247.29C464.731 253.41 476.811 269.93 475.421 290.1L475.401 290.06Z" fill="#000C1F"/>
    <path d="M1025.94 808.15C909.99 751.48 916.18 590.89 948.22 484.64C948.81 483.1 949.24 481.42 950.24 479.98C950.27 479.91 950.67 479.61 950.92 479.58L951.17 479.53L952.16 479.33C980.48 473.69 1008.52 466.6 1036.21 458.41C1056.04 452.37 1076.04 446.52 1095.12 438.39C1095.66 438.13 1096.27 437.79 1096.44 437.68C1096.44 437.68 1097.37 437.37 1097.37 437.36C1098.12 437.11 1098.92 437.36 1099.4 437.94C1100.12 438.83 1101.34 439.93 1102.42 440.94C1110.47 448.04 1119.14 454.42 1127.66 460.96C1142.42 471.94 1156.79 483.57 1172.11 493.77C1187.57 503.84 1204.1 512 1220 521.43C1220.5 521.72 1220.75 522.27 1220.7 522.81C1216.92 557.22 1210.96 591.68 1200.78 624.84C1200.19 626.76 1198.86 631.32 1198.3 633.16C1197.03 636.81 1193.86 645.91 1192.58 649.56C1190.24 655.74 1187.55 662.28 1185.04 668.38C1183.3 672.07 1179.48 680.61 1177.71 684.14C1175.77 687.84 1172.91 693.29 1170.98 696.97C1169.02 700.4 1164.21 708.58 1162.07 711.91C1159.91 715.1 1156.99 719.59 1154.83 722.77C1152.72 725.67 1149.15 730.34 1147.02 733.24C1125.48 760.58 1097.91 783.68 1065.72 797.36C1056.81 801.04 1047.45 804.27 1038.02 806.3C1033.9 807.07 1030.24 808 1025.97 808.14L1025.94 808.15ZM1026.59 804.93C1041.23 803.11 1056.12 798.31 1069.65 792.04C1099.2 778.45 1124.43 756.7 1144.55 731.31C1146.69 728.46 1150.14 723.82 1152.27 720.98C1154.41 717.85 1157.3 713.4 1159.44 710.25C1161.6 707 1166.28 698.83 1168.27 695.48C1170.22 691.86 1173 686.42 1174.95 682.78C1176.71 679.34 1180.51 670.77 1182.24 667.17C1184.44 662.09 1186.59 656.35 1188.73 651.21C1190.22 647.56 1193.08 638.75 1194.48 634.96C1196.65 628.76 1199.23 619.3 1201.2 612.97C1209.26 583.37 1214.5 553.03 1217.84 522.51L1218.54 523.89C1202.74 514.41 1186.14 506.1 1170.58 496.12C1165.38 492.78 1160.31 489.18 1155.38 485.5C1138.11 472.71 1120.84 459.67 1103.73 446.64C1101.07 444.65 1098.79 443.02 1096.16 440.69C1096.14 440.7 1099.19 440.94 1099.1 440.97C1096.43 442.57 1093.92 443.39 1091.1 444.44C1083.47 447.19 1075.75 449.66 1068.02 452.05C1030.68 463.46 992.88 473.51 954.55 481.05L952.57 481.43L951.58 481.62L951.34 481.67C951.54 481.68 951.83 481.42 951.83 481.42C951.2 482.59 950.73 483.99 950.24 485.34C934.15 537.76 927.41 593.6 931.89 648.3C937.74 714.14 964.79 774.72 1026.59 804.93V804.93Z" fill="#000C1F"/>
    <path d="M1029.75 782C931.929 733.13 937.669 598.7 962.949 508.07C963.879 505.35 964.509 502.43 966.019 499.9C966.019 499.87 966.399 499.55 966.639 499.52L966.879 499.47L968.569 499.12C1001.17 492.36 1033.33 483.42 1064.87 472.77C1073.48 469.72 1082.33 466.88 1090.51 462.86C1091.35 462.53 1092.27 462.76 1092.86 463.38C1093.49 464.04 1094.53 464.96 1095.48 465.78C1098.44 468.3 1101.48 470.75 1104.53 473.19C1112.57 479.71 1133.11 495.53 1141.59 502.14C1149.79 508.59 1158.43 514.31 1167.43 519.58C1176.42 524.86 1185.58 529.96 1194.51 535.44C1194.83 535.62 1194.99 535.97 1194.95 536.32C1190.41 578.9 1181.45 621.5 1164.78 661.08C1162.38 666.27 1159.03 674.06 1156.31 679.02C1152.07 687.48 1146.61 696.88 1141.3 704.73C1122.15 733.69 1095.68 758.48 1063.66 772.51C1052.82 777.03 1041.49 780.97 1029.73 781.99L1029.75 782ZM1030.26 779.48C1042.88 777.89 1055.57 773.66 1067.15 768.2C1098.34 753.45 1123.74 728.28 1142.17 699.39C1144.02 696.76 1148.08 689.63 1149.79 686.75C1152.04 682.82 1154.53 677.71 1156.67 673.68C1158.08 670.73 1161.42 663.34 1162.85 660.26C1164.07 657.23 1167.18 649.48 1168.36 646.54C1181.54 611.09 1189.08 573.68 1193.18 536.14C1193.18 536.14 1193.64 537.04 1193.61 537.01C1180.11 529.04 1165.96 522.09 1152.73 513.6C1143.68 507.91 1123.51 492.3 1114.63 485.81C1106.2 479.28 1097.56 473.33 1089.63 466.13L1092.61 466.4C1091.76 467.02 1091.21 467.21 1090.63 467.5C1073.96 474.12 1056.64 478.91 1039.46 483.96C1016.18 490.49 992.729 496.53 968.999 501.19L967.299 501.52L967.119 501.56C967.299 501.57 967.619 501.28 967.569 501.31C967.569 501.31 967.579 501.31 967.589 501.29C966.459 503.62 965.749 506.18 964.929 508.69C939.779 598.27 933.579 730.97 1030.27 779.49L1030.26 779.48Z" fill="#000C1F"/>
    <path d="M1098.43 438.35L1137.07 450.77C1137.25 450.83 1137.41 450.92 1137.55 451.02C1156.23 465.47 1175.24 479.57 1194.57 493.14C1213.87 506.56 1233.48 519.98 1254.33 530.8C1255.08 531.18 1255.51 531.95 1255.49 532.74C1254.83 548.32 1253.01 563.67 1250.62 579.04C1234.02 685.66 1180.5 799 1064.18 820.22C1063.97 820.26 1063.75 820.25 1063.56 820.18L1025.71 808.22C1024.77 807.92 1024.26 806.93 1024.55 805.99C1024.85 805.04 1025.88 804.52 1026.83 804.85L1064.34 817.83L1063.72 817.79C1178.62 796.27 1230.72 683.85 1246.65 578.42C1248.94 563.28 1250.68 547.9 1251.25 532.64L1252.41 534.58C1231.33 523.41 1211.88 509.84 1192.47 496.11C1173.19 482.33 1154.29 468.06 1135.67 453.4L1136.15 453.65L1097.42 441.52C1096.54 441.24 1096.05 440.31 1096.33 439.43C1096.61 438.55 1097.55 438.06 1098.43 438.34V438.35Z" fill="#000C1F"/>
    <path d="M1219.59 521.54L1253.73 531.45C1255.35 531.95 1254.66 534.39 1253.01 533.94L1218.94 523.76C1217.51 523.31 1218.12 521.14 1219.59 521.54V521.54Z" fill="#000C1F"/>
    <path d="M1043.15 643.93C1042.32 643.76 1041.93 642.91 1041.45 642.33C1034.13 632.49 1026.77 621.81 1019.26 612.14C1017.26 609.63 1015.2 607.16 1012.96 604.91C1010.84 602.92 1008.33 600.36 1005.41 600.06C1002.31 600.04 999.18 600.92 996.58 602.65C990.76 606.28 987.44 614.99 992.49 620.54C1002.94 633.9 1020.28 660.19 1030.17 674.42C1036.68 684.28 1045.57 684.31 1053.6 676.07C1084.52 649 1120.63 619.87 1152.93 594.38L1152.63 594.66C1152.74 594.53 1153 594.21 1153.17 593.94C1156.34 589.37 1155.74 583.53 1152.37 579.05C1149.76 575.48 1146.47 572.1 1142.36 570.3C1135.59 567.48 1130.1 572.36 1125.34 576.64C1123.06 578.6 1108.71 590.39 1106.03 592.6C1087.34 607.86 1066.53 624.98 1048.1 640.4L1046.18 642.01C1045.35 642.74 1044.25 643.69 1043.14 643.92L1043.15 643.93ZM1043.6 641.12C1043.56 640.91 1043.45 640.82 1043.35 640.74L1043.46 640.65L1044.44 639.88C1047.95 637.13 1054.6 631.82 1058.16 628.98C1078.04 613.12 1100.59 594.62 1120.13 578.25C1122.3 576.42 1125.57 573.63 1127.72 571.72C1131.66 568.14 1137.34 565.77 1142.67 567.42C1146.13 568.36 1149.19 570.5 1151.82 572.87C1157.49 577.65 1161.75 585.19 1159.1 592.71C1158.36 594.73 1157.51 596.65 1155.96 598.22L1140.5 610.54C1123.17 624.2 1095.56 645.62 1078.21 659.26C1073.02 663.31 1067.84 667.39 1062.69 671.49C1060.14 673.56 1057.56 675.61 1055.07 677.74C1052.56 679.92 1049.72 682.16 1046.44 683.19C1039.47 685.79 1032.24 680.97 1028.97 675.16C1025.39 669.76 1021.8 664.36 1018.17 658.99C1014.52 653.63 1010.86 648.28 1007.15 642.97C1002.5 636.34 997.86 629.71 992.95 623.28L991.45 621.39C988.56 618.15 987.97 613.24 989.61 609.33C992.08 602.65 1001.01 596.84 1008.07 599.2C1013.33 601.74 1017.43 606.15 1021.45 610.24C1030.26 619.63 1037.82 630.09 1044.27 641.2L1044.42 641.47L1044.49 641.6C1044.38 641.38 1043.92 641.08 1043.59 641.1L1043.6 641.12Z" fill="#000C1F"/>
</svg>
