<svg viewBox="0 0 212 136" fill="none" xmlns="http://www.w3.org/2000/svg">
    <g clip-path="url(#clip0_1377_1564)">
        <path d="M158.359 15.1213C158.957 13.7682 156.126 11.2433 152.034 9.48164C147.943 7.72001 144.141 7.38878 143.543 8.74184C142.945 10.0949 145.777 12.6199 149.868 14.3815C153.96 16.1431 157.761 16.4743 158.359 15.1213Z" stroke="#000C1F" stroke-linecap="round" stroke-linejoin="round"/>
        <path d="M143.477 9.55957L142.977 30.0629C142.977 30.0629 143.322 31.16 144.48 29.9517C145.637 28.7447 157.887 16.0928 157.887 16.0928" stroke="#000C1F" stroke-linecap="round" stroke-linejoin="round"/>
        <path d="M64.8838 117.215L69.5412 127.215L76.0721 118.253L64.8838 117.215Z" stroke="#000C1F" stroke-linecap="round" stroke-linejoin="round"/>
        <path d="M72.7676 122.608L70.5297 117.739L67.2622 122.153L72.7676 122.608Z" stroke="#000C1F" stroke-linecap="round" stroke-linejoin="round"/>
        <path d="M70.5171 117.536L70.7357 114.55" stroke="#000C1F" stroke-linecap="round" stroke-linejoin="round"/>
        <path d="M67.0701 122.285L64.2876 123.548" stroke="#000C1F" stroke-linecap="round" stroke-linejoin="round"/>
        <path d="M72.8179 122.728L75.3367 124.581" stroke="#000C1F" stroke-linecap="round" stroke-linejoin="round"/>
        <path d="M76.0854 118.26L70.7324 114.432L64.8163 117.155L64.1909 123.58L69.638 127.258L75.619 124.749L76.0854 118.26Z" stroke="#000C1F" stroke-linecap="round" stroke-linejoin="round"/>
        <path d="M40.6896 109.186C40.1092 106.918 40.7836 105.076 41.5005 104.593C44.8845 102.317 47.2311 107.788 47.6127 108.754C47.9598 109.635 49.4862 116.708 44.3956 118.439C39.3049 120.172 35.8414 114.605 34.7244 112.16C33.6074 109.714 34.3229 107.166 36.806 106.623C39.289 106.08 41.2513 110.026 41.9721 112.173C42.6929 114.32 40.6008 114.6 40.6008 114.6C40.6008 114.6 39.7528 114.889 39.1618 112.654C38.5709 110.419 37.0286 109.013 36.7675 109.187C36.5065 109.361 37.0683 112.934 39.6229 114.975C39.6229 114.975 42.7049 117.672 44.6699 115.469C45.4066 114.643 45.7431 113.721 45.8425 112.808C46.0068 111.289 45.5112 109.801 45.1045 108.843C44.7971 108.119 44.0352 106.743 42.9407 106.538" stroke="#000C1F" stroke-linecap="round" stroke-linejoin="round"/>
        <path d="M45.0579 114.986C45.0579 114.986 43.4229 114.261 41.9429 112.132" stroke="#000C1F" stroke-linecap="round" stroke-linejoin="round"/>
        <path d="M43.2215 106.62C43.2215 106.62 42.3006 108.098 43.9847 110.537C45.6688 112.976 45.841 112.81 45.841 112.81" stroke="#000C1F" stroke-linecap="round" stroke-linejoin="round"/>
        <path d="M47.3333 115.889C47.3333 115.889 49.4652 116.816 51.7177 115.112C53.9702 113.409 55.1057 109.261 53.9411 106.471C52.7764 103.682 50.7438 101.29 48.3482 101.96C48.3482 101.96 45.5074 103.277 46.643 106.758" stroke="#000C1F" stroke-linecap="round" stroke-linejoin="round"/>
        <path d="M48.0117 113.555C48.0117 113.555 49.5249 114.144 50.9506 112.621C52.3749 111.099 51.9032 107.656 51.3242 106.542C50.7452 105.428 49.8111 103.8 49.0717 104.108" stroke="#000C1F" stroke-linecap="round" stroke-linejoin="round"/>
        <path d="M47.752 109.224C47.752 109.224 49.1458 111.388 50.9492 112.62" stroke="#000C1F" stroke-linecap="round" stroke-linejoin="round"/>
        <path d="M51.8612 110.168C51.8612 110.168 50.3468 109.23 49.7293 108.047C49.1132 106.865 48.5103 104.761 49.4418 104.1" stroke="#000C1F" stroke-linecap="round" stroke-linejoin="round"/>
        <path d="M53.2027 113.395C53.2027 113.395 55.5745 114.465 58.1808 112.114C60.787 109.763 59.9536 105.247 59.2805 103.444C58.6074 101.641 56.8743 98.8579 54.3502 99.6163C51.8261 100.375 52.4753 103.874 52.4753 103.874" stroke="#000C1F" stroke-linecap="round" stroke-linejoin="round"/>
        <path d="M54.0708 111.345C54.0708 111.345 56.3061 111.273 57.0335 109.844C57.7609 108.415 58.23 105.774 56.9341 103.766C56.9341 103.766 55.947 101.926 54.5929 101.897" stroke="#000C1F" stroke-linecap="round" stroke-linejoin="round"/>
        <path d="M57.648 107.908C57.648 107.908 56.1283 106.881 55.5492 105.765C54.9702 104.651 54.0838 102.893 54.9888 101.957" stroke="#000C1F" stroke-linecap="round" stroke-linejoin="round"/>
        <path d="M56.669 110.243C56.669 110.243 54.6417 108.811 54.3145 107.813" stroke="#000C1F" stroke-linecap="round" stroke-linejoin="round"/>
        <path d="M59.1865 111.074C59.1865 111.074 62.4235 111.858 64.4468 108.994C66.4687 106.129 65.6114 103.509 65.6114 103.509C65.6114 103.509 65.2047 101.607 64.1778 101.881C63.1522 102.156 63.294 103.188 63.3523 104.652C63.4106 106.117 62.927 107.592 61.8749 108.289C60.8216 108.987 59.8596 108.758 59.8596 108.758" stroke="#000C1F" stroke-linecap="round" stroke-linejoin="round"/>
        <path d="M161.082 52.3391C163.304 52.3391 165.106 50.561 165.106 48.3676C165.106 46.1743 163.304 44.3962 161.082 44.3962C158.859 44.3962 157.058 46.1743 157.058 48.3676C157.058 50.561 158.859 52.3391 161.082 52.3391Z" stroke="#000C1F" stroke-linecap="round" stroke-linejoin="round"/>
        <path d="M173.65 16.5919C176.821 14.7845 178.925 12.5198 178.348 11.5334C177.771 10.5471 174.732 11.2126 171.56 13.02C168.388 14.8273 166.285 17.0921 166.862 18.0784C167.439 19.0648 170.478 18.3992 173.65 16.5919Z" stroke="#000C1F" stroke-linecap="round" stroke-linejoin="round"/>
        <path d="M42.8778 64.2218C45.4799 62.7391 47.2055 60.881 46.7321 60.0717C46.2586 59.2623 43.7654 59.8082 41.1632 61.2909C38.5611 62.7736 36.8355 64.6317 37.3089 65.441C37.7824 66.2504 40.2757 65.7045 42.8778 64.2218Z" stroke="#000C1F" stroke-linecap="round" stroke-linejoin="round"/>
        <path d="M149.687 49.4622C151.876 49.3197 153.991 49.2125 156.048 49.1353" stroke="#000C1F" stroke-linecap="round" stroke-linejoin="round"/>
        <path d="M166.123 49.1967C177.015 49.4883 183.85 51.1766 184.434 54.2784C185.128 57.9674 176.839 62.9249 163.023 67.8679" stroke="#000C1F" stroke-linecap="round" stroke-linejoin="round"/>
        <path d="M61.2106 85.5755C48.1063 86.0318 39.6608 84.6065 38.8949 81.179C38.2073 78.0981 43.661 73.5185 53.7495 69.4542C55.3143 68.8239 60.1069 67.1815 60.1069 67.1815" stroke="#000C1F" stroke-linecap="round" stroke-linejoin="round"/>
        <path d="M198.602 23.3815C194.786 23.8863 188.977 16.5842 187.402 22.0425C186.082 26.6142 185.736 32.5223 179.416 30.9753C174.479 29.0099 170.138 24.5389 169.669 33.1683C169.257 39.3589 163.108 40.3659 158.77 37.1515C157.389 36.3905 155.916 35.3901 154.275 36.0465C152.545 36.7279 151.244 34.2615 153.15 33.3122C157.957 30.9165 164.545 40.0311 166.256 34.2982C167.634 29.6807 167.676 23.8314 174.234 25.2725C176.605 25.8832 178.374 27.8172 180.791 28.2396C184.716 28.4005 183.417 23.1409 184.569 20.7387C187.109 14.7926 192.972 17.7872 197.042 20.1751C198.437 20.9832 200.07 19.3774 201.231 20.6759C201.293 20.7413 203.054 22.7931 198.6 23.3829L198.602 23.3815Z" stroke="#000C1F" stroke-linecap="round" stroke-linejoin="round"/>
        <path d="M38.8098 96.1128C35.1594 96.1926 30.4623 88.706 28.3953 93.6884C26.6648 97.8612 25.7095 103.393 19.9153 101.281C15.4712 98.9152 11.8566 94.2507 10.4945 102.336C9.44643 108.128 6.96471 106.625 7.15816 103.046C7.40461 98.4876 9.61206 93.3274 15.6395 95.3661C17.8098 96.1887 19.2713 98.1947 21.5053 98.8433C25.1874 99.4017 24.5236 94.3095 25.8645 92.1649C28.8921 86.823 34.0994 90.2544 37.6822 92.9273C38.9118 93.8335 40.621 92.4892 41.5764 93.8335C41.628 93.9015 43.0696 96.0187 38.8098 96.1128V96.1128Z" stroke="#000C1F" stroke-linecap="round" stroke-linejoin="round"/>
        <path d="M62.6413 62.8177C62.326 65.0368 62.1577 67.3946 62.1577 69.9015C62.1577 112.808 100.865 115.172 107.497 115.172C112.012 115.172 122.844 114.392 132.865 106.21" stroke="#000C1F" stroke-linecap="round" stroke-linejoin="round"/>
        <path d="M151.171 63.5839C149.101 31.0237 113.749 27.9598 107.406 27.9598C103.898 27.9598 89.7266 29.1576 78.166 37.2405" stroke="#000C1F" stroke-linecap="round" stroke-linejoin="round"/>
        <path d="M82.0088 44.8631C88.9107 46.8364 97.5351 48.0081 106.891 48.0081C120.491 48.0081 132.546 45.5326 140.012 41.7194" stroke="#000C1F" stroke-linecap="round" stroke-linejoin="round"/>
        <path d="M127.171 95.4106C120.856 94.4103 113.508 93.8362 105.664 93.8362C91.5249 93.8362 78.9917 95.6996 71.2285 98.57" stroke="#000C1F" stroke-linecap="round" stroke-linejoin="round"/>
        <path d="M63.3887 72.3246C63.3887 72.3246 89.1175 72.4449 97.7022 72.441C105.102 72.4384 123.322 72.3507 128.288 72.3298" stroke="#000C1F" stroke-linecap="round" stroke-linejoin="round"/>
        <path d="M106.934 28.3299V72.3246V115.174" stroke="#000C1F" stroke-linecap="round" stroke-linejoin="round"/>
        <path d="M106.933 27.9598C94.2754 27.9598 84.0146 47.4183 84.0146 71.421C84.0146 95.4237 94.2754 114.882 106.933 114.882" stroke="#000C1F" stroke-linecap="round" stroke-linejoin="round"/>
        <path d="M130.088 71.421C130.088 47.4183 119.906 27.9598 107.345 27.9598" stroke="#000C1F" stroke-linecap="round" stroke-linejoin="round"/>
        <path d="M107.347 114.882C116.153 114.882 123.79 105.318 127.568 91.3279" stroke="#000C1F" stroke-linecap="round" stroke-linejoin="round"/>
        <path d="M77.3988 48.6033C76.3163 56.1578 68.936 62.1353 61.2828 61.0656C53.6283 59.9972 48.4091 52.2596 49.4916 44.705C50.5742 37.1505 57.6576 31.8936 65.3121 32.962C72.9667 34.0304 78.4826 41.0474 77.3988 48.602V48.6033Z" stroke="#000C1F" stroke-linecap="round" stroke-linejoin="round"/>
        <path d="M66.3313 33.1202C75.4142 34.2239 80.7871 41.5849 79.7549 48.9969C78.8221 55.6949 72.8437 63.3736 61.6938 61.2199" stroke="#000C1F" stroke-linecap="round" stroke-linejoin="round"/>
        <path d="M69.8175 45.5525C70.1104 42.9397 68.4568 40.8788 65.9962 40.0902L66.4057 38.1405L64.0432 37.6566L63.6112 39.711C61.3534 39.7058 59.2295 40.731 58.6862 43.0966C57.4314 48.2555 65.5471 47.8632 65.4344 51.1245C64.5679 53.7465 59.3633 52.2125 60.0006 49.4886C58.4464 49.146 57.287 48.9315 57.071 48.8923C56.8829 48.8583 56.7186 50.0575 57.1426 51.6319C57.7706 53.0599 59.1818 54.127 60.8181 54.7063L60.5068 56.1879L62.8692 56.6718L63.1819 55.1849C64.7468 55.2752 66.2838 54.9142 67.3716 54.0054C69.3233 52.2596 69.0504 48.925 66.7833 47.5166C65.4119 46.2102 60.0072 45.151 62.4161 42.8233C63.7159 41.5666 66.7979 42.7148 66.8164 44.7992C66.8164 44.8476 69.7818 45.8715 69.8175 45.5512V45.5525Z" stroke="#000C1F" stroke-linecap="round" stroke-linejoin="round"/>
        <path d="M142.966 113.11C122.428 103.113 132.591 70.5697 133.01 70.49C142 68.7834 151.886 65.5351 152.441 65.0879C152.873 65.5887 158.526 69.7524 160.481 71.1922C163.145 73.1563 165.342 74.1227 168.538 75.9862C164.68 111.784 142.966 113.11 142.966 113.11V113.11Z" stroke="#000C1F" stroke-linecap="round" stroke-linejoin="round"/>
        <path d="M143.461 109.735C126.07 101.17 134.741 73.1603 135.096 73.0923C142.719 71.6093 151.104 68.7978 151.575 68.4133C151.94 68.8436 156.726 72.4149 158.379 73.6506C160.634 75.335 162.495 76.164 165.199 77.7607C161.867 108.558 143.461 109.736 143.461 109.736V109.735Z" stroke="#000C1F" stroke-linecap="round" stroke-linejoin="round"/>
        <path d="M152.459 65.1689L157.584 66.7748C157.584 66.7748 167.568 74.5412 173.055 77.2991C173.055 77.2991 172.259 110.182 147.957 114.741L142.964 113.11" stroke="#000C1F" stroke-linecap="round" stroke-linejoin="round"/>
        <path d="M168.537 75.9862L173.057 77.2991" stroke="#000C1F" stroke-linecap="round" stroke-linejoin="round"/>
        <path d="M145.232 91.6615C145.232 91.6615 141.546 86.0162 140.211 86.0149C138.592 86.0136 137.499 87.741 138.392 88.8068C139.521 90.155 143.402 95.8788 143.402 95.8788C143.402 95.8788 144.616 97.9986 146.534 96.2881C148.453 94.5789 159.95 85.6173 159.95 85.6173C159.95 85.6173 161.008 84.4574 159.752 83.0451C158.496 81.6328 157.43 81.672 156.391 82.6057C155.352 83.5394 145.232 91.6615 145.232 91.6615V91.6615Z" stroke="#000C1F" stroke-linecap="round" stroke-linejoin="round"/>
    </g>
    <defs>
        <clipPath id="clip0_1377_1564">
            <rect width="212" height="136" fill="white"/>
        </clipPath>
    </defs>
</svg>
