<svg width="1600" height="1040" viewBox="0 0 1600 1040" fill="none" xmlns="http://www.w3.org/2000/svg">
<g clip-path="url(#clip0_1128_1131)">
<path d="M1149.14 74.17C1164.86 81.21 1188.59 93.96 1196.8 109.54C1199.04 113.86 1198.89 119.54 1194.5 122.49C1186.31 127.85 1173.53 126.04 1164.37 124.63C1147.42 121.53 1131.18 115.21 1116.15 106.86C1106.15 101.12 1096.5 94.6 1088.82 85.82C1082.08 78.32 1078.16 66.96 1090.71 63.01C1108.01 58.46 1133.12 67.28 1149.15 74.18L1149.14 74.17ZM1148.32 76.04C1132.89 69.65 1116.39 64.2 1099.58 64.5C1071.97 65.99 1091.86 86.18 1103.93 94.39C1113.04 100.86 1122.98 106.17 1133.21 110.67C1148.48 117.18 1164.79 122.99 1181.53 123.15C1196.76 122.92 1200.17 115.3 1190.14 103.74C1178.87 91.2 1163.56 82.91 1148.32 76.03V76.04Z" fill="#000C1F"/>
<path d="M1085.41 75.7199C1085.41 75.5999 1081.84 234.1 1081.72 232.05C1082.17 232.95 1083.09 234.07 1084.11 234.15C1086.53 234.25 1088.97 231.64 1090.76 229.8L1094.26 226.18L1108.24 211.71C1122.15 197.28 1150.27 168.29 1164.25 153.93L1192.38 125.17C1192.64 124.9 1193.07 124.9 1193.33 125.16C1193.59 125.42 1193.6 125.84 1193.35 126.1L1165.92 155.53C1152.21 170.18 1124.59 199.57 1110.81 214.15C1108.33 216.78 1095.78 230.09 1093.56 232.44C1091.74 234.36 1089.56 236.5 1086.82 237.4C1083.34 238.68 1079.8 236.43 1078.97 232.89C1078.6 232.64 1083.01 75.9899 1082.84 75.6499C1082.86 74.9399 1083.45 74.3799 1084.15 74.3999C1084.86 74.4199 1085.42 74.9999 1085.4 75.7099L1085.41 75.7199Z" fill="#000C1F"/>
<path d="M491.558 899.35C503.408 924.68 515.148 949.8 526.758 975.12L525.568 975.01L574.928 906.53L575.358 907.47C547.378 904.9 519.558 902.16 491.548 899.35C491.548 899.35 519.558 902.16 491.548 899.35H491.558ZM490.398 898.53C518.678 901.01 547.168 903.56 575.478 906.29C575.928 906.32 576.178 906.87 575.908 907.23L526.698 975.82C526.408 976.24 525.708 976.18 525.508 975.71C513.678 950.05 501.988 924.19 490.398 898.54V898.53Z" fill="#000C1F"/>
<path d="M549.82 939.71C544.1 927.53 538.54 915.5 533.06 903.19L534.06 903.29C533.2 904.82 532.09 906.16 531.09 907.59C525.55 915.23 515.24 929.41 509.58 937.16L509 935.89C522.62 937 536.09 938.34 549.82 939.7V939.71ZM551.15 940.65C537.18 939.69 522.94 938.7 508.87 937.49C508.26 937.45 507.92 936.7 508.29 936.22C514.02 928.42 524.29 914.39 529.94 906.75C531.01 905.35 531.97 903.86 533.18 902.56C533.4 902.32 533.77 902.31 534 902.53C539.93 915.04 545.55 927.96 551.16 940.65H551.15Z" fill="#000C1F"/>
<path d="M533.2 901.36L534.32 878.5C534.34 878.04 534.73 877.69 535.19 877.71C535.66 877.73 536.02 878.15 535.97 878.62L533.79 901.4C533.76 901.77 533.18 901.73 533.2 901.36Z" fill="#000C1F"/>
<path d="M507.609 937.99L486.849 948.16C486.419 948.37 485.899 948.19 485.689 947.76C485.469 947.32 485.669 946.77 486.129 946.58L507.349 937.41C507.709 937.25 507.989 937.82 507.619 937.99H507.609Z" fill="#000C1F"/>
<path d="M551.029 940.86L570.509 954.4C570.999 954.74 571.119 955.42 570.779 955.91C570.429 956.42 569.699 956.53 569.219 956.14L550.679 941.34C550.389 941.12 550.729 940.64 551.029 940.86Z" fill="#000C1F"/>
<path d="M574.719 907.3L534.719 878.2L535.669 878.86L490.809 899.23L491.279 898.56L486.249 947.65L486.029 947.18L527.689 974.51L526.279 974.37L571.729 955.91L571.309 956.49L574.719 907.29V907.3ZM576.309 906.56L572.679 956.6C572.659 956.87 572.489 957.09 572.259 957.18L527.429 977.1C526.949 977.31 526.409 977.24 526.019 976.96L485.459 948.02C485.299 947.91 485.219 947.73 485.239 947.55L489.639 898.4C489.669 898.1 489.849 897.85 490.109 897.73L534.549 876.45C534.549 876.45 534.579 876.45 534.589 876.45L535.499 877.11L576.299 906.55L576.309 906.56Z" fill="#000C1F"/>
<path d="M307.78 837.69C305.05 826.89 304.93 810.81 313.42 802.49C317.01 799.75 321.41 797.88 325.96 797.62C343.61 797.21 355.53 820.01 361.27 834.19C366.25 851.47 366.9 873.37 358.73 889.77C350.68 906.19 330.64 914.34 313.11 910.49C290.9 905.25 275.92 885.49 265.61 866.38C259.18 854.9 255.52 839.81 262.99 827.91C266.68 822.06 273 818.34 279.71 817.05C286.64 815.72 293.48 819.46 298.24 824.13C307.83 833.58 313.76 846.04 318.37 858.51C322.44 868.57 318.99 877.43 307.77 879.46C305.49 880.02 302.8 878.09 301.36 876.13C296.82 870.43 296.22 862.98 293.33 856.54C291.5 852.3 289.17 848.26 286.31 844.64C284.52 842.44 282.63 840.27 280.25 838.78C279.82 838.55 279.52 838.38 279.19 838.36C279.17 838.35 279.23 838.36 279.25 838.34C279.26 838.31 279.32 838.31 279.36 838.27C279.39 838.25 279.4 838.17 279.39 838.24C278.91 841.27 279.79 844.41 280.42 847.42C284.3 863.08 293.69 877.8 307.75 886.11C315.34 890.69 325.45 893.93 333.52 888.81C345.14 880.71 348.54 864.97 346 851.64C344.31 842.6 341.26 833.43 335.83 825.94C334.45 824.1 332.92 822.37 331.18 820.92C329.41 819.49 327.48 818.38 325.31 817.5C325.21 817.46 325.15 817.34 325.19 817.24C325.22 817.16 325.3 817.11 325.38 817.11C327.84 817.14 330.15 818.35 332.03 819.85C337.66 824.39 340.98 831.15 343.51 837.73C349.56 852.93 351.01 872.04 339.71 885.22C323.97 904.55 296.2 883.72 286.89 867.51C282.04 859.33 278.39 850.27 277.46 840.74C277.46 839.49 277.14 837.48 278.43 836.72C280.03 836.11 281.52 837.46 282.69 838.3C289.96 844.61 294.6 853.46 297.32 862.57C298.79 867.59 300.62 876.46 306.08 878.38C306.61 878.51 307.18 878.55 307.61 878.43C309.67 878.05 311.76 877.25 313.53 876.09C317.19 873.76 318.84 869.51 318.25 865.29C318.04 863.15 317.37 861.14 316.66 859.09C313.74 850.83 310.03 842.8 305.29 835.45C299.64 826.99 291.22 816.86 279.97 818.58C262.84 821.74 257.16 838.25 261.66 853.71C264.12 862.08 268.75 869.8 273.41 877.15C282.98 891.45 296.02 905.36 313.37 909.25C326.06 911.98 340.24 908.41 349.83 899.57C366.21 884.19 365.86 854.82 360.1 834.62C354.58 820.98 342.94 798.5 326.01 798.85C321.75 799.09 317.6 800.85 314.21 803.43C308.74 808.75 307.52 817.08 307.35 824.42C307.33 828.78 307.9 833.15 308.97 837.38C309.16 838.17 307.98 838.46 307.78 837.68V837.69Z" fill="#000C1F"/>
<path d="M341.35 881.89C341.35 881.89 329.01 876.35 317.84 860.07" stroke="#000C1F" stroke-width="1.23" stroke-linecap="round" stroke-linejoin="round"/>
<path d="M328.01 818.24C326.36 822.17 326.43 826.83 327.29 830.98C329.58 841.93 337.32 850.65 343.35 859.84C344.58 861.48 345.7 863.27 347.24 864.63C347.1 864.63 346.97 864.66 346.82 864.81C347.06 864.57 347.45 864.57 347.69 864.81C348.07 865.16 347.77 865.84 347.3 865.87C346.86 865.94 346.44 865.69 346.08 865.48C340.79 861.46 337.03 855.77 333.15 850.47C327.79 842.98 323.41 833.81 324.68 824.33C325.04 821.98 325.63 819.69 326.96 817.59C327.14 817.3 327.52 817.22 327.81 817.4C328.1 817.58 328.17 817.95 328.01 818.24Z" fill="#000C1F"/>
<path d="M358.769 888.23C371.069 892.69 384.769 888.36 393.999 879.54C395.729 877.74 397.529 875.75 398.969 873.73C399.909 872.62 400.929 870.66 401.779 869.46C403.209 866.93 404.579 864.09 405.719 861.4C410.769 848.41 412.699 833.47 408.309 820.06C403.049 805.64 392.359 786.5 376.309 782.86C373.269 782.08 368.999 782.54 366.609 783.17C363.669 784.68 360.879 786.93 358.639 789.49C351.459 797.37 350.649 808.95 353.909 818.77C354.149 819.54 352.989 819.89 352.739 819.15C349.109 808.96 349.769 796.64 357.239 788.28C359.699 785.45 362.499 783.04 365.889 781.33C372.909 779.19 380.699 780.87 386.649 784.98C398.119 792.86 405.849 806.46 410.519 819.33C415.039 833.38 413.019 848.71 407.719 862.21C405.089 868.26 401.729 874.19 397.159 878.99L395.309 880.92C394.149 881.87 392.429 883.49 391.159 884.29C381.849 891.15 369.189 893.59 358.259 889.36C357.479 889.02 357.979 887.89 358.759 888.23H358.769Z" fill="#000C1F"/>
<path d="M363.86 870.37C375.88 873.48 387.84 863.77 390.23 852.09C392.75 841.48 391.9 826.06 386.91 816.26C384.07 810.85 381.25 805.18 376.8 800.97C375.31 799.7 373.71 798.54 371.7 798.88C371.59 798.9 371.49 798.83 371.47 798.72C377.51 794.12 386.34 811.02 388.75 815.3C392.9 822.79 393.97 831.58 394.18 840.02C394.18 849.53 392.34 860.12 384.68 866.66C379.03 871.73 370.72 874.33 363.41 871.52C362.67 871.2 363.11 870.11 363.86 870.37Z" fill="#000C1F"/>
<path d="M362.199 837.5C367.099 844.85 372.829 851.73 379.309 857.75C381.479 859.75 383.779 861.59 386.169 863.3C386.459 863.49 386.529 863.89 386.329 864.17C386.129 864.45 385.749 864.51 385.469 864.31C380.569 860.86 376.139 856.77 372.139 852.32C368.139 847.86 364.459 843.17 361.169 838.16C360.739 837.49 361.769 836.8 362.209 837.5H362.199Z" fill="#000C1F"/>
<path d="M392.359 845.56C386.399 841.87 380.849 837.28 376.949 831.36C372.539 823.83 368.859 813.13 370.329 804.35C370.809 802 371.959 799.57 374.069 798.14C374.349 797.95 374.729 798.02 374.929 798.3C375.119 798.57 375.049 798.94 374.789 799.14C373.089 800.42 372.199 802.5 371.869 804.64C370.989 811.32 373.149 818.09 375.599 824.29C377.309 828.52 379.569 832.32 382.749 835.59C385.819 838.91 389.339 841.89 393.009 844.51C393.659 844.93 393.039 845.97 392.359 845.55V845.56Z" fill="#000C1F"/>
<path d="M403.069 869.16C414.869 873.33 428.269 868.92 437.489 861.02C447.529 853.33 451.989 840.76 452.699 828.4C453.659 807.98 448.409 785.57 433.349 770.95C430.319 768.18 426.779 765.92 422.849 764.87C415.089 762.76 405.829 765.74 401.549 772.76C397.209 779.8 396.819 788.79 397.929 796.83C398.049 797.63 396.839 797.8 396.709 797.02C395.479 788.58 395.799 779.49 400.289 771.97C404.859 764.33 414.809 760.96 423.279 763.25C427.539 764.38 431.319 766.79 434.499 769.68C450.059 784.67 455.539 807.5 454.629 828.53C453.979 841.2 449.229 854.69 438.769 862.6C437.419 863.89 435.079 865.3 433.559 866.4C424.449 872.07 412.769 874.44 402.539 870.28C401.769 869.93 402.289 868.81 403.049 869.16H403.069Z" fill="#000C1F"/>
<path d="M409.34 853.43C416.75 852.68 424.7 850.42 429.39 844.42C431.98 840.77 433.3 836.21 434.43 831.89C437.22 820.13 436.59 807.08 430.04 796.68C426.3 790.31 421.1 783.22 413.28 782.06C412.97 782.04 412.99 781.52 413.31 781.53C419.6 781.34 424.84 785.88 428.55 790.52C437.97 802.24 440.29 817.79 436.5 832.4C433.61 843.32 430.21 849.78 418.76 853.14C415.7 854.01 412.59 854.54 409.39 854.66C409.05 854.67 408.77 854.41 408.75 854.07C408.74 853.73 409.01 853.44 409.35 853.43H409.34Z" fill="#000C1F"/>
<path d="M436.02 828.27C430.31 824.46 424.96 819.92 421.06 814.2C416.36 805.96 407.89 790.07 415.85 781.84C416.41 781.31 417.26 782.1 416.74 782.69C412.26 787.91 414.6 795.4 416.82 801.16C419.4 807.27 422.15 813.48 426.81 818.29C429.82 821.55 433.2 824.53 436.72 827.26C437.35 827.7 436.69 828.71 436.02 828.28V828.27Z" fill="#000C1F"/>
<path d="M428.619 846.12C424.989 843.67 421.599 840.93 418.429 837.91C415.309 834.79 412.079 831.56 410.629 827.23C410.529 826.9 410.709 826.56 411.039 826.46C411.359 826.36 411.699 826.54 411.799 826.85C414.399 832.62 419.709 836.86 424.359 841.02C425.999 842.41 427.669 843.8 429.349 845.13C429.949 845.61 429.269 846.56 428.629 846.12H428.619Z" fill="#000C1F"/>
<path d="M448.129 851.38C462.489 853.83 478.079 848.03 486.309 835.79C494.719 824.09 498.929 808.61 495.339 794.48C494.529 791.1 493.259 787.42 491.029 784.75C489.659 783.14 487.919 782.24 486.009 782.75L484.829 783.14C480.509 784.76 480.179 789.99 480.169 794.06C480.139 797.75 480.479 801.44 480.449 805.28C480.239 814.69 477.279 825.03 469.379 830.82C464.659 834.19 458.739 835.92 452.919 834.86C452.589 834.8 452.369 834.48 452.429 834.14C452.489 833.81 452.809 833.59 453.149 833.65C456.659 834.27 460.479 833.63 463.769 832.26C474.389 828.03 478.409 815.86 478.459 805.25C478.459 801.61 478.079 797.85 478.069 794.06C478.089 790.16 478.199 785.74 481.289 782.75C484.769 779.62 489.749 779.36 492.799 783.21C507.579 803.88 494.679 842.77 470.399 851.17C463.159 853.77 455.289 854.28 447.839 852.55C447.059 852.33 447.329 851.18 448.129 851.35V851.38Z" fill="#000C1F"/>
<path d="M1199.67 346.88C1222.88 331.34 1253.36 350.88 1248.81 378.57C1245.96 396.07 1228.19 408.11 1210.88 404.27C1183.47 398.22 1176.63 362.67 1199.67 346.88ZM1200.25 347.73C1182.89 359.42 1183.49 385.48 1201.23 396.38C1222.6 409.42 1249.25 391.37 1245.06 366.69C1241.52 346.18 1217.54 335.95 1200.25 347.74V347.73Z" fill="#000C1F"/>
<path d="M1313.04 131.51C1300.85 138.43 1287.66 144.29 1273.55 145.91C1258.83 147.52 1253.78 139.24 1262.99 127.32C1271.73 116.27 1283.52 108.2 1295.52 101.18C1307.64 94.3901 1320.55 88.35 1334.46 86.34C1342.63 85.11 1352.34 87.5901 1348.52 97.9701C1342.58 111.72 1325.63 124.01 1313.03 131.52L1313.04 131.51ZM1310.67 127.41C1322.25 120.58 1334 113.03 1342.54 102.52C1356.36 84.05 1332.24 87.9201 1321.5 91.6901C1304.31 97.6201 1288.09 107.06 1274.45 119.09C1266.19 126.27 1250.68 145.03 1273.14 142.28C1286.48 140.2 1298.95 133.94 1310.66 127.41H1310.67Z" fill="#000C1F"/>
<path d="M325.86 495.37C315.81 501.03 305.06 505.87 293.46 507.18C281.42 508.53 277.24 501.66 284.8 491.93C291.97 482.87 301.64 476.24 311.49 470.48C321.43 464.91 332.03 459.95 343.44 458.31C355.33 456.72 359.18 463.41 352.1 473.08C345.23 482.47 335.74 489.45 325.87 495.38L325.86 495.37ZM323.92 492.01C333.44 486.44 343.05 480.19 350.07 471.59C361.41 456.49 341.6 459.58 332.81 462.7C318.7 467.56 305.4 475.31 294.21 485.18C287.44 491.07 274.71 506.47 293.13 504.2C304.06 502.48 314.32 497.39 323.91 492L323.92 492.01Z" fill="#000C1F"/>
<path d="M1130.93 379.79C1146.93 378.66 1162.94 377.71 1178.96 376.96C1179.72 376.93 1180.36 377.52 1180.39 378.27C1180.42 379.02 1179.85 379.65 1179.11 379.7C1163.1 380.61 1147.1 381.33 1131.07 381.87C1129.73 381.93 1129.57 379.92 1130.93 379.8V379.79Z" fill="#000C1F"/>
<path d="M1255.07 377.57C1285.27 378.1 1394.51 380.26 1395.82 420.71C1395.65 441.55 1367.62 458.95 1351.82 468.97C1326.8 484.19 1300.23 496.55 1273.16 507.62C1259.64 513.14 1246 518.36 1232.28 523.34C1230.06 524.08 1228.59 520.82 1231 519.81C1244.68 514.85 1258.28 509.67 1271.76 504.18C1301.26 491.91 1389.65 455.93 1391.23 420.76C1390.16 392.46 1320.69 385.43 1298.53 382.99C1284.07 381.54 1269.55 380.65 1255.01 380.01C1254.33 379.98 1253.81 379.41 1253.84 378.73C1253.87 378.07 1254.42 377.55 1255.08 377.56L1255.07 377.57Z" fill="#000C1F"/>
<path d="M463.29 658.22C428.1 660.4 305.08 664.75 293.39 624.31C290.48 611.59 299.06 600.04 307.16 591.25C312.71 585.39 318.86 580.21 325.24 575.4C350.95 556.36 379.96 542.64 409.48 530.69C424.36 525.02 439.32 519.8 454.3 514.55C456.57 513.83 457.93 517.12 455.54 518.09C440.59 523.32 425.59 528.55 410.83 534.17C376.13 548.37 324.34 571.91 302.22 602.53C295.48 612.14 292.63 623.94 302.25 632.72C323.13 652.35 386.76 654.45 415.71 655.48C423.61 655.71 431.53 655.83 439.44 655.83C447.36 655.9 455.27 655.81 463.2 655.76C463.88 655.76 464.43 656.3 464.44 656.98C464.44 657.63 463.93 658.17 463.29 658.21V658.22Z" fill="#000C1F"/>
<path d="M1500.27 182.16C1484.62 184.1 1466.28 171.07 1452.5 164.51C1439.76 158.27 1424.48 151.21 1418.66 169.43C1409.89 196.98 1406.97 244.98 1367.92 242.93C1363.46 242.69 1359.08 241.92 1354.81 240.83C1342.1 235.66 1330.54 228.48 1318.15 222.85C1294.79 211.94 1287.35 222.03 1283.99 244.92C1283.37 249.42 1283.16 253.85 1282.71 258.41C1281.86 267.55 1279.03 276.72 1273.54 284.24C1262.55 299.88 1241.31 304.04 1223.68 299.17C1214.79 296.9 1206.45 292.73 1199.12 287.26C1189.64 281.91 1177.47 274.55 1166.09 279.61C1155.06 284.3 1144.23 271.33 1150.86 261.28C1154.2 256.45 1160.05 254.34 1165.47 252.82C1174.75 250.81 1184.25 253.83 1192.8 257.2C1199.6 259.96 1206 263.43 1212.36 266.78C1218.72 270.11 1225 273.61 1231.56 275.93C1234.82 277.07 1238.19 277.89 1241.41 277.74C1252.81 277.08 1254.57 263.51 1257.15 254.67C1264.06 228.48 1268.66 191.79 1303.67 193.2C1307.15 193.37 1311.12 193.82 1314.53 194.56C1333.27 198.34 1347.1 214.1 1365.97 217.33C1377.52 217.69 1383.36 211 1385.82 199.65C1388.83 187.21 1387.55 173.08 1392.79 160.78C1401.02 141.14 1415.74 130.58 1437.46 133.87C1453.37 136.38 1467.64 143.77 1481.41 151.59C1484.82 153.36 1487.92 155.86 1491.53 157.16C1499.21 159.43 1507.04 154.15 1514.82 156.34C1521.54 158.27 1526.72 167.08 1522.49 173.41C1517.32 180.43 1508.12 180.89 1500.28 182.17L1500.27 182.16ZM1500.06 180.62C1505.22 179.98 1510.27 178.4 1514.8 176.31C1517 175.31 1519.09 173.96 1520.54 172.06C1523.36 168.45 1521.51 162.97 1518.28 160.14C1516.26 158.23 1513.51 157.41 1510.7 157.51C1503.38 157.83 1494.26 162.19 1487.18 157.3C1468.32 146.58 1444.23 132.56 1421.91 136.88C1410.47 139.2 1401.94 148.18 1397.16 158.48C1390.44 171.44 1392.21 186.12 1388.69 200.33C1387.43 205.62 1385.37 211.02 1381.26 214.86C1377.11 218.85 1371.07 220.07 1365.54 219.74C1351.06 217.02 1339.48 207.07 1326.61 200.8C1322.6 198.9 1318.51 197.12 1314.15 196.38C1312.76 196.09 1310.34 195.7 1308.9 195.55C1301.17 194.61 1292.77 195.08 1285.88 198.98C1267.87 209.31 1265.1 236.91 1260.23 255.44C1258.3 262.61 1257.29 270.19 1252.27 276.16C1243.83 285.99 1229.7 279.87 1220.14 275.31C1204.35 267.94 1188.88 256.98 1171.1 256.22C1164.61 256.06 1156.75 256.76 1152.72 262.51C1148.92 268 1152.76 276.38 1159.23 277.51C1160.76 277.79 1162.35 277.7 1163.88 277.29C1165.13 276.89 1166.59 276.37 1167.73 276.05C1171.87 275 1176.31 275.14 1180.38 276.35C1187.52 278.37 1193.61 282.56 1199.96 286.13C1207.15 291.5 1215.33 295.58 1224.02 297.8C1253.6 305.27 1278.18 289.05 1280.48 258.21C1281.57 245.82 1281.95 227.96 1292.1 219.17C1300.14 212.96 1310.97 216.91 1319.21 220.45C1331.31 225.85 1344.21 233.47 1355.72 238.04C1373.4 242.28 1388.47 239.42 1397.59 222.39C1405.47 207.56 1407.88 190.39 1412.37 174.19C1413.45 170.13 1414.62 165.64 1417.14 161.67C1425.97 147.21 1442.7 155 1454.12 161.47C1467.71 168.67 1484.31 181.91 1500.06 180.64V180.62Z" fill="#000C1F"/>
<path d="M294.209 738.3C272.999 738.97 247.919 708.25 230.089 708.19C222.219 708.51 218.819 716.74 216.269 723.13C213.259 730.56 210.569 738.19 207.449 745.7C204.279 753.25 200.859 760.77 195.959 767.42C184.539 783.25 168.509 784.86 151.179 778.2C145.169 774.98 139.509 771.22 133.899 767.46C125.579 762.02 117.569 755.83 108.209 752.45C88.9793 745.35 83.8893 770.73 81.2993 784.46C80.1393 791.07 78.6193 797.67 76.0593 803.96C73.9493 808.68 71.7393 814.38 66.1693 815.91C59.9193 816.93 56.5193 809.98 55.3993 804.93C54.1293 799.87 54.1793 794.73 54.0893 789.59C53.9893 786.2 53.9193 782.77 54.4493 779.4C58.9993 745.39 79.1193 717.7 116.549 729.47C134.589 734.68 145.979 752.2 163.839 757.56C174.909 759.44 181.409 753.36 184.909 742.9C189.039 731.37 189.149 718.02 195.199 706.87C204.679 689.15 220.139 680.55 240.099 685.99C254.879 690.01 267.529 698.55 279.689 707.39C282.699 709.43 285.359 712.11 288.609 713.72C295.599 716.67 303.539 712.52 310.649 715.41C316.749 717.94 320.429 726.81 315.929 732.27C310.449 738.44 301.699 738.12 294.189 738.29L294.209 738.3ZM294.179 736.82C299.039 736.72 303.919 735.65 308.539 734.35C310.769 733.6 312.969 732.65 314.509 731.02C317.669 727.87 316.339 722.43 313.469 719.46C311.729 717.5 309.269 716.44 306.619 716.24C300.799 715.72 293.839 718.14 287.829 715.6C284.349 713.99 281.589 711.26 278.409 709.18C266.419 700.72 253.729 692.46 239.409 688.74C220.639 683.85 206.679 691.79 197.549 708.25C191.449 719.05 191.119 731.79 186.689 743.55C182.969 754.56 175.479 761.42 163.319 759.32C146.889 754.54 135.809 740.21 120.339 733.75C105.259 727.93 87.1393 727.93 75.3193 740.24C61.4693 754.61 58.4493 775.47 56.3093 794.67C56.5093 809.49 65.5893 823.69 74.7793 803.43C80.1093 791.04 79.9293 777.2 84.9193 764.65C91.6093 746.98 102.989 746.11 118.139 754.77C129.559 761.28 141.019 770.11 152.009 775.96C168.079 781.98 183.289 780.73 193.539 765.68C202.619 752.47 206.489 736.48 212.259 721.57C213.649 717.83 215.229 713.74 217.979 710.21C227.689 697.42 242.989 706.33 253.039 713.7C265.009 721.88 279.319 736.43 294.179 736.82Z" fill="#000C1F"/>
<path d="M475.84 483.21C474.7 499.71 473.92 516.96 473.79 533.47C470.91 724.72 577.19 851.34 767.28 877.34C850.38 889.88 938.18 867.57 1003.51 814.12C1003.87 813.83 1004.41 813.88 1004.7 814.25C1004.99 814.61 1004.94 815.13 1004.59 815.43C978.77 837.34 949.07 854.8 917.22 866.64C877.43 881.53 834.37 888.04 791.95 885.23C580.06 869.16 459.05 732.71 467.4 520.65C468.23 507.92 469.56 495.19 472.28 482.7C472.5 481.73 473.46 481.11 474.44 481.33C475.32 481.53 475.9 482.33 475.85 483.2L475.84 483.21Z" fill="#000C1F"/>
<path d="M1140.4 488.93C1134.53 397.14 1089.2 319.73 1008.98 273.73C951.97 240.7 886.14 223.62 820.55 219.99C798.62 219.14 776.79 221.97 755.16 225.54C726.23 230.47 697.72 237.99 670.22 248.26C642.71 258.5 616.22 271.66 591.71 288.05C591.32 288.31 590.79 288.21 590.53 287.82C590.28 287.44 590.37 286.94 590.73 286.67C614.54 268.97 640.91 254.73 668.43 243.65C696.03 232.57 724.79 224.5 754.04 219.16C776.02 215.41 798.46 212.27 820.84 213.2C916.29 219.03 1016.45 251.25 1081.21 324.8C1110.84 358.55 1130.18 400.5 1138.65 444.48C1141.52 459.08 1143.21 473.89 1144.01 488.71C1144.06 489.7 1143.3 490.55 1142.31 490.61C1141.33 490.66 1140.49 489.92 1140.42 488.94L1140.4 488.93Z" fill="#000C1F"/>
<path d="M620.61 344.31C734.53 373.02 878.35 373.26 992.17 343.89C1014.51 337.95 1036.55 330.55 1057.5 320.67C1058.03 320.42 1058.66 320.64 1058.91 321.17C1059.15 321.67 1058.95 322.27 1058.47 322.54C1042.11 331.61 1024.71 338.73 1007 344.75C962.7 359.6 916.05 367.44 869.55 371.21C827.73 374.56 785.28 374.32 743.49 370.74C701.64 366.9 659.9 359.8 619.84 347C619.1 346.76 618.69 345.97 618.93 345.23C619.16 344.52 619.91 344.11 620.62 344.3L620.61 344.31Z" fill="#000C1F"/>
<path d="M960.85 733.59C864.14 721.54 766.04 720.84 669.16 731.19C647.49 733.66 624.95 736.92 603.52 740.99C581.95 745.2 560.07 750.38 539.22 757.35C538.67 757.53 538.07 757.23 537.89 756.68C537.71 756.15 537.98 755.58 538.49 755.37C590.38 734.66 646.22 725.97 701.55 720.45C748.15 716.29 795.11 715.3 841.84 717.35C881.85 719.27 921.97 723.25 961.29 730.8C962.05 730.95 962.55 731.68 962.41 732.44C962.27 733.17 961.58 733.66 960.85 733.57V733.59Z" fill="#000C1F"/>
<path d="M479.699 555C561.169 553.13 643.149 552.75 724.599 552.8C800.559 552.62 878.179 552.51 954.189 553.94L969.499 554.28C970.269 554.3 970.879 554.93 970.869 555.71C970.849 556.46 970.249 557.05 969.509 557.08L954.199 557.54C806.409 561.28 658.059 560.79 510.289 557.14C502.809 556.98 487.199 556.55 479.679 556.3C479.319 556.29 479.039 555.99 479.049 555.63C479.059 555.28 479.339 555.01 479.689 555H479.699Z" fill="#000C1F"/>
<path d="M809.029 219.23C812.729 432.34 812.899 649.42 809.999 862.57L809.619 883.32C809.609 884.04 809.019 884.61 808.299 884.59C807.599 884.58 807.039 884.01 807.029 883.32L806.649 862.57C803.869 663.41 804.039 459.86 806.899 260.73C807.029 250.58 807.399 229.42 807.619 219.22C807.619 218.83 807.949 218.52 808.339 218.53C808.719 218.53 809.019 218.85 809.029 219.22V219.23Z" fill="#000C1F"/>
<path d="M808.329 216.83C755.939 218.38 717.789 262.17 694.149 304.92C621.189 439.42 621.299 657.9 694.509 792.35C710.739 821.36 731.849 848.91 760.819 866.02C775.179 874.42 791.539 879.65 808.329 879.99C808.939 879.99 809.429 880.5 809.419 881.11C809.409 881.71 808.919 882.18 808.329 882.19C799.739 882.3 791.109 881.35 782.789 879.16C757.609 872.61 736.059 856.38 718.779 837.35C608.149 710.01 606.229 444.5 689.069 302.03C710.459 265.75 740.819 230.21 782.959 218.93C791.229 216.77 799.809 215.84 808.339 215.96C808.579 215.96 808.769 216.16 808.769 216.4C808.769 216.64 808.569 216.83 808.339 216.83H808.329Z" fill="#000C1F"/>
<path d="M982.65 548.74C977.96 457.66 961.34 362.02 910.73 284.59C895.61 262.43 876.93 241.92 853.06 229.12C840.22 222.31 826.06 218.14 811.45 217.48C810.84 217.46 810.36 216.94 810.39 216.33C810.42 215.76 810.89 215.31 811.45 215.29C815.73 215.17 820.03 215.25 824.32 215.68C835.07 216.81 845.57 219.91 855.37 224.45C927.64 259.44 963.58 360.04 976.37 434.49C982.77 472.2 985.27 510.64 983.51 548.72C983.5 548.96 983.3 549.14 983.06 549.13C982.83 549.12 982.66 548.94 982.65 548.72V548.74Z" fill="#000C1F"/>
<path d="M811.45 880.66C878.48 876.33 920.24 808.09 944.15 752.26C951.34 735.46 957.4 718.09 963 700.69C963.18 700.11 963.8 699.79 964.38 699.98C964.92 700.15 965.23 700.71 965.11 701.25C960.58 721.87 954.35 742.14 946.32 761.7C926.72 809.01 893.76 860.37 842.92 877.35C832.72 880.55 822 882.03 811.44 881.53C811.2 881.52 811.02 881.32 811.03 881.08C811.04 880.85 811.22 880.68 811.44 880.67L811.45 880.66Z" fill="#000C1F"/>
<path d="M586.1 374.35C575.91 447.88 492.52 499.34 426.06 457.26C390.02 434.44 369.37 390.48 373.22 348.19C380.09 270.63 466.38 226.74 533.42 265.97C570.77 287.22 592.63 331.87 586.09 374.34L586.1 374.35ZM584.75 374.16C591.11 332.48 567.9 289.64 531.38 269.55C466.13 232.6 384.27 273.92 375.44 348.43C366.8 421.93 433.83 487.31 507.17 463.91C546.84 451.44 578.98 415.72 584.74 374.17L584.75 374.16Z" fill="#000C1F"/>
<path d="M501.93 255.64C598.54 266.48 639.67 371.85 573.35 443.73C551.66 466.36 520.35 476.79 489.38 474.42C481.78 473.84 474.24 472.71 466.86 470.95C466.74 470.92 466.67 470.81 466.7 470.69C466.73 470.58 466.83 470.51 466.94 470.53C470.68 471.08 474.43 471.56 478.18 471.91C511.86 475.35 546.51 465.51 570.13 440.61C607.76 401.97 614.55 340.61 579.39 298.01C560.53 274.36 531.72 259.89 501.88 256.08C501.76 256.06 501.68 255.96 501.69 255.84C501.71 255.72 501.81 255.64 501.93 255.65V255.64Z" fill="#000C1F"/>
<path d="M527.021 350.8C530.361 331.75 516.681 315.47 499.051 310.06C498.591 309.9 498.331 309.42 498.441 308.96C499.511 304 500.521 299.03 501.631 294.07L502.291 295.08C497.051 293.91 489.691 292.23 484.451 291.42L485.501 290.73C484.601 296.05 484.161 301.48 482.891 306.73C482.711 307.43 482.061 307.89 481.361 307.86C475.851 307.88 470.331 308.71 465.231 310.63C451.821 315.41 444.111 328.28 445.081 342.29C445.741 350.54 451.391 356.87 458.191 361.35C462.761 364.43 467.811 366.92 472.891 369.44C480.491 373.38 489.311 376.93 494.501 384.41C496.291 387.08 497.241 390.44 497.101 393.67C495.721 399.21 490.571 403.5 485.151 404.73C474.951 407.01 463.781 403.26 456.991 395.44C453.621 391.51 452.081 385.91 453.461 380.88C453.461 380.88 453.981 381.7 453.971 381.7C447.431 380.55 438.221 378.99 431.741 377.97C432.091 378.08 432.671 377.83 432.771 377.66C432.721 377.84 432.551 378.26 432.501 378.66C431.571 384.32 433.251 392.22 434.281 396.68C439.061 407.86 449.671 415.41 460.651 419.92C461.181 420.09 461.491 420.65 461.351 421.17L459.331 432.56L458.221 430.87L475.931 435.16L474.941 435.81C475.081 433.87 475.311 431.94 475.591 430.01C475.751 428.93 476.101 426.72 476.291 425.71L476.421 424.99C476.441 424.75 476.531 424.52 477.041 424.38C477.041 424.38 478.191 423.48 478.191 423.51C489.191 424.24 500.971 421.98 509.481 414.64C517.751 407.12 520.631 394.77 517.651 384.12C515.741 376.98 511.201 370.53 504.911 366.6C501.091 363.12 496.111 360.95 491.481 358.65C483.941 354.71 467.971 348.96 466.911 339.41C466.591 335.03 469.541 331.36 472.631 328.62C478.141 324.14 486.001 324.5 492.321 326.86C500.131 329.59 507.561 336.32 507.631 345.16C507.701 344.94 507.401 343.93 506.941 343.65C506.891 343.6 506.861 343.58 506.811 343.55L506.681 343.46C506.841 343.53 507.911 343.96 508.261 344.08C514.241 346.09 520.371 348.6 526.561 349.75C526.831 349.8 527.101 349.78 527.261 349.82C527.331 349.85 527.411 349.94 527.381 350.04C527.251 350.23 527.031 350.52 527.021 350.81V350.8ZM529.401 351.06C529.331 352 528.331 352.71 527.581 352.96C525.041 353.21 522.601 352.5 520.171 352.02C515.291 350.89 510.501 349.43 505.841 347.6C505.471 347.42 504.821 347.22 504.381 346.9C503.831 346.62 503.411 345.53 503.481 345.2C503.511 342.93 503.011 340.71 502.081 338.63C497.411 327.6 479.131 322.06 471.161 332.71C461.091 344.73 483.991 352.85 492.151 357.26C496.711 359.51 502.351 362.19 505.711 365.34C512.341 369.45 517.141 376.23 519.161 383.71C523.551 399.19 516.101 416.23 500.781 422.06C493.611 425.09 485.741 426.02 478.071 425.71L479.221 424.83C479.631 425.16 479.621 425.41 479.541 425.64C479.211 427.1 478.671 429.15 478.301 430.57C477.791 432.45 477.231 434.31 476.591 436.15C476.511 436.61 476.061 436.91 475.601 436.8C475.521 436.77 457.641 433.7 457.571 433.67C456.821 433.49 456.361 432.74 456.541 431.99L459.231 420.74L459.931 421.99C447.801 418.18 436.191 410.11 430.831 398.2C430.261 396.3 429.881 394.34 429.521 392.38C428.961 389.47 427.261 373.42 432.801 375.11C440.011 376.69 447.171 378.43 454.291 380.39C454.661 380.46 454.901 380.84 454.811 381.21C453.771 385.87 455.331 390.7 458.541 394.16C465.771 402.07 481.441 405.92 490.001 398.38C491.561 396.91 492.661 395.03 493.281 392.95L493.181 393.5C493.471 382.54 479.541 377.33 471.241 372.84C461.111 367.66 449.431 362.21 444.031 351.43C438.831 340.69 442.101 326.51 449.511 317.58C457.291 308.33 469.721 304.61 481.401 304.7C481.411 304.7 479.841 305.97 479.841 305.97C480.251 303.32 481.041 300.75 481.691 298.16C482.401 295.58 483.121 292.99 483.791 290.4C483.881 289.92 484.361 289.57 484.841 289.71C489.941 291.04 497.411 292.44 502.661 293.45C503.131 293.54 503.431 294 503.321 294.46C502.371 299.45 501.321 304.41 500.331 309.39L499.691 308.29C518.731 314.41 530.811 330.93 529.421 351.1L529.401 351.06Z" fill="#000C1F"/>
<path d="M1079.94 869.15C963.99 812.48 970.18 651.89 1002.22 545.64C1002.81 544.1 1003.24 542.42 1004.24 540.98C1004.27 540.91 1004.67 540.61 1004.92 540.58L1005.17 540.53L1006.16 540.33C1034.48 534.69 1062.52 527.6 1090.21 519.41C1110.04 513.37 1130.04 507.52 1149.12 499.39C1149.66 499.13 1150.27 498.79 1150.44 498.68C1150.44 498.68 1151.37 498.37 1151.37 498.36C1152.12 498.11 1152.92 498.36 1153.4 498.94C1154.12 499.83 1155.34 500.93 1156.42 501.94C1164.47 509.04 1173.14 515.42 1181.66 521.96C1196.42 532.94 1210.79 544.57 1226.11 554.77C1241.57 564.84 1258.1 573 1274 582.43C1274.5 582.72 1274.75 583.27 1274.7 583.81C1270.92 618.22 1264.96 652.68 1254.78 685.84C1254.19 687.76 1252.86 692.32 1252.3 694.16C1251.03 697.81 1247.86 706.91 1246.58 710.56C1244.24 716.74 1241.55 723.28 1239.04 729.38C1237.3 733.07 1233.48 741.61 1231.71 745.14C1229.77 748.84 1226.91 754.29 1224.98 757.97C1223.02 761.4 1218.21 769.58 1216.07 772.91C1213.91 776.1 1210.99 780.59 1208.83 783.77C1206.72 786.67 1203.15 791.34 1201.02 794.24C1179.48 821.58 1151.91 844.68 1119.72 858.36C1110.81 862.04 1101.45 865.27 1092.02 867.3C1087.9 868.07 1084.24 869 1079.97 869.14L1079.94 869.15ZM1080.59 865.93C1095.23 864.11 1110.12 859.31 1123.65 853.04C1153.2 839.45 1178.43 817.7 1198.55 792.31C1200.69 789.46 1204.14 784.82 1206.27 781.98C1208.41 778.85 1211.3 774.4 1213.44 771.25C1215.6 768 1220.28 759.83 1222.27 756.48C1224.22 752.86 1227 747.42 1228.95 743.78C1230.71 740.34 1234.51 731.77 1236.24 728.17C1238.44 723.09 1240.59 717.35 1242.73 712.21C1244.22 708.56 1247.08 699.75 1248.48 695.96C1250.65 689.76 1253.23 680.3 1255.2 673.97C1263.26 644.37 1268.5 614.03 1271.84 583.51L1272.54 584.89C1256.74 575.41 1240.14 567.1 1224.58 557.12C1219.38 553.78 1214.31 550.18 1209.38 546.5C1192.11 533.71 1174.84 520.67 1157.73 507.64C1155.07 505.65 1152.79 504.02 1150.16 501.69C1150.14 501.7 1153.19 501.94 1153.1 501.97C1150.43 503.57 1147.92 504.39 1145.1 505.44C1137.47 508.19 1129.75 510.66 1122.02 513.05C1084.68 524.46 1046.88 534.51 1008.55 542.05L1006.57 542.43L1005.58 542.62L1005.34 542.67C1005.54 542.68 1005.83 542.42 1005.83 542.42C1005.2 543.59 1004.73 544.99 1004.24 546.34C988.15 598.76 981.41 654.6 985.89 709.3C991.74 775.14 1018.79 835.72 1080.59 865.93Z" fill="#000C1F"/>
<path d="M1083.75 843C985.929 794.13 991.669 659.7 1016.95 569.07C1017.88 566.35 1018.51 563.43 1020.02 560.9C1020.02 560.87 1020.4 560.55 1020.64 560.52L1020.88 560.47L1022.57 560.12C1055.17 553.36 1087.33 544.42 1118.87 533.77C1127.48 530.72 1136.33 527.88 1144.51 523.86C1145.35 523.53 1146.27 523.76 1146.86 524.38C1147.49 525.04 1148.53 525.96 1149.48 526.78C1152.44 529.3 1155.48 531.75 1158.53 534.19C1166.57 540.71 1187.11 556.53 1195.59 563.14C1203.79 569.59 1212.43 575.31 1221.43 580.58C1230.42 585.86 1239.58 590.96 1248.51 596.44C1248.83 596.62 1248.99 596.97 1248.95 597.32C1244.41 639.9 1235.45 682.5 1218.78 722.08C1216.38 727.27 1213.03 735.06 1210.31 740.02C1206.07 748.48 1200.61 757.88 1195.3 765.73C1176.15 794.69 1149.68 819.48 1117.66 833.51C1106.82 838.03 1095.49 841.97 1083.73 842.99L1083.75 843ZM1084.26 840.48C1096.88 838.89 1109.57 834.66 1121.15 829.2C1152.34 814.45 1177.74 789.28 1196.17 760.39C1198.02 757.76 1202.08 750.63 1203.79 747.75C1206.04 743.82 1208.53 738.71 1210.67 734.68C1212.08 731.73 1215.42 724.34 1216.85 721.26C1218.07 718.23 1221.18 710.48 1222.36 707.54C1235.54 672.09 1243.08 634.68 1247.18 597.14C1247.18 597.14 1247.64 598.04 1247.61 598.01C1234.11 590.04 1219.96 583.09 1206.73 574.6C1197.68 568.91 1177.51 553.3 1168.63 546.81C1160.2 540.28 1151.56 534.33 1143.63 527.13L1146.61 527.4C1145.76 528.02 1145.21 528.21 1144.63 528.5C1127.96 535.12 1110.64 539.91 1093.46 544.96C1070.18 551.49 1046.73 557.53 1023 562.19L1021.3 562.52L1021.12 562.56C1021.3 562.57 1021.62 562.28 1021.57 562.31C1021.57 562.31 1021.58 562.31 1021.59 562.29C1020.46 564.62 1019.75 567.18 1018.93 569.69C993.779 659.27 987.579 791.97 1084.27 840.49L1084.26 840.48Z" fill="#000C1F"/>
<path d="M1152.43 499.35L1191.07 511.77C1191.25 511.83 1191.41 511.92 1191.55 512.02C1210.23 526.47 1229.24 540.57 1248.57 554.14C1267.87 567.56 1287.48 580.98 1308.33 591.8C1309.08 592.18 1309.51 592.95 1309.49 593.74C1308.83 609.32 1307.01 624.67 1304.62 640.04C1288.02 746.66 1234.5 860 1118.18 881.22C1117.97 881.26 1117.75 881.25 1117.56 881.18L1079.71 869.22C1078.77 868.92 1078.26 867.93 1078.55 866.99C1078.85 866.04 1079.88 865.52 1080.83 865.85L1118.34 878.83L1117.72 878.79C1232.62 857.27 1284.72 744.85 1300.65 639.42C1302.94 624.28 1304.68 608.9 1305.25 593.64L1306.41 595.58C1285.33 584.41 1265.88 570.84 1246.47 557.11C1227.19 543.33 1208.29 529.06 1189.67 514.4L1190.15 514.65L1151.42 502.52C1150.54 502.24 1150.05 501.31 1150.33 500.43C1150.61 499.55 1151.55 499.06 1152.43 499.34V499.35Z" fill="#000C1F"/>
<path d="M1273.59 582.54L1307.73 592.45C1309.35 592.95 1308.66 595.39 1307.01 594.94L1272.94 584.76C1271.51 584.31 1272.12 582.14 1273.59 582.54Z" fill="#000C1F"/>
<path d="M1097.15 704.93C1096.32 704.76 1095.93 703.91 1095.45 703.33C1088.13 693.49 1080.77 682.81 1073.26 673.14C1071.26 670.63 1069.2 668.16 1066.96 665.91C1064.84 663.92 1062.33 661.36 1059.41 661.06C1056.31 661.04 1053.18 661.92 1050.58 663.65C1044.76 667.28 1041.44 675.99 1046.49 681.54C1056.94 694.9 1074.28 721.19 1084.17 735.42C1090.68 745.28 1099.57 745.31 1107.6 737.07C1138.52 710 1174.63 680.87 1206.93 655.38L1206.63 655.66C1206.74 655.53 1207 655.21 1207.17 654.94C1210.34 650.37 1209.74 644.53 1206.37 640.05C1203.76 636.48 1200.47 633.1 1196.36 631.3C1189.59 628.48 1184.1 633.36 1179.34 637.64C1177.06 639.6 1162.71 651.39 1160.03 653.6C1141.34 668.86 1120.53 685.98 1102.1 701.4L1100.18 703.01C1099.35 703.74 1098.25 704.69 1097.14 704.92L1097.15 704.93ZM1097.6 702.12C1097.56 701.91 1097.45 701.82 1097.35 701.74L1097.46 701.65L1098.44 700.88C1101.95 698.13 1108.6 692.82 1112.16 689.98C1132.04 674.12 1154.59 655.62 1174.13 639.25C1176.3 637.42 1179.57 634.63 1181.72 632.72C1185.66 629.14 1191.34 626.77 1196.67 628.42C1200.13 629.36 1203.19 631.5 1205.82 633.87C1211.49 638.65 1215.75 646.19 1213.1 653.71C1212.36 655.73 1211.51 657.65 1209.96 659.22L1194.5 671.54C1177.17 685.2 1149.56 706.62 1132.21 720.26C1127.02 724.31 1121.84 728.39 1116.69 732.49C1114.14 734.56 1111.56 736.61 1109.07 738.74C1106.56 740.92 1103.72 743.16 1100.44 744.19C1093.47 746.79 1086.24 741.97 1082.97 736.16C1079.39 730.76 1075.8 725.36 1072.17 719.99C1068.52 714.63 1064.86 709.28 1061.15 703.97C1056.5 697.34 1051.86 690.71 1046.95 684.28L1045.45 682.39C1042.56 679.15 1041.97 674.24 1043.61 670.33C1046.08 663.65 1055.01 657.84 1062.07 660.2C1067.33 662.74 1071.43 667.15 1075.45 671.24C1084.26 680.63 1091.82 691.09 1098.27 702.2L1098.42 702.47L1098.49 702.6C1098.38 702.38 1097.92 702.08 1097.59 702.1L1097.6 702.12Z" fill="#000C1F"/>
</g>
<defs>
<clipPath id="clip0_1128_1131">
<rect width="1600" height="1040" fill="white"/>
</clipPath>
</defs>
</svg>
