<svg viewBox="0 0 1317 789" fill="none" xmlns="http://www.w3.org/2000/svg">
    <path d="M42.7385 539.44C68.0785 534.88 93.1985 530.37 118.469 526.02L118.089 527.05L68.8285 466.95L69.7685 466.79C60.8685 491.08 51.8585 515.18 42.7385 539.44C42.7385 539.44 51.8585 515.18 42.7385 539.44V539.44ZM41.7285 540.281C50.6185 515.701 59.6185 490.96 68.7285 466.41C68.8685 466.02 69.4185 465.92 69.6685 466.25L119.069 526.24C119.379 526.6 119.159 527.2 118.689 527.27C93.0585 531.73 67.2885 536.03 41.7285 540.27V540.281Z" fill="white"/>
    <path d="M92.4087 497.14C80.2187 499.36 68.1987 501.46 55.9587 503.42L56.2887 502.55C57.4387 503.68 58.3787 504.99 59.4087 506.21C64.8887 512.95 75.0788 525.47 80.6388 532.34L79.3687 532.55C83.5787 520.69 87.9487 509.02 92.4087 497.13V497.14ZM93.5587 496.18C89.4087 508.38 85.1588 520.82 80.7588 533.06C80.5788 533.59 79.8287 533.72 79.4887 533.28C73.8987 526.34 63.8487 513.89 58.3787 507.06C57.3787 505.78 56.2887 504.58 55.4187 503.19C55.2587 502.94 55.3387 502.61 55.5887 502.45C68.1287 500.13 80.9487 498.18 93.5587 496.19V496.18Z" fill="white"/>
    <path d="M54.3691 502.87L34.2891 496.47C33.8891 496.34 33.6691 495.91 33.7991 495.51C33.9291 495.1 34.3891 494.87 34.7891 495.03L54.5491 502.36C54.8691 502.47 54.6991 502.98 54.3691 502.87Z" fill="white"/>
    <path d="M80.9086 534.29L85.0486 555.17C85.1386 555.6 84.8486 556.03 84.4186 556.11C83.9686 556.2 83.5386 555.89 83.4686 555.44L80.3286 534.39C80.2686 534.03 80.8486 533.92 80.9086 534.29V534.29Z" fill="white"/>
    <path d="M93.7297 496.33L110.38 482.2C110.8 481.84 111.43 481.9 111.79 482.32C112.16 482.76 112.09 483.43 111.62 483.77L94.0697 496.77C93.7997 496.98 93.4597 496.56 93.7297 496.34V496.33Z" fill="white"/>
    <path d="M69.4593 467.33L34.1193 496.04L34.9293 495.35L42.4493 540.08L41.9693 539.5L84.4593 555.58L83.9893 555.66L118.149 525.06L117.689 526.28L111.999 481.48L112.419 481.99L69.4493 467.33H69.4593ZM69.1793 465.74L112.849 480.79C113.079 480.87 113.239 481.07 113.269 481.3L120.399 525.9C120.479 526.38 120.279 526.84 119.939 527.12L84.6093 556.37C84.4793 556.48 84.2993 556.51 84.1393 556.45L41.4393 540.92C41.1793 540.82 40.9993 540.6 40.9593 540.34L32.5293 495.78C32.5293 495.78 32.5293 495.75 32.5393 495.74L33.3393 495.09L69.1793 465.74V465.74Z" fill="white"/>
    <path d="M1192.15 743.41C1186.75 755.73 1175.33 770.52 1161.38 773.01L1160.85 773.09H1160.31L1159.23 773.12C1158.88 773.09 1158.54 773.05 1158.2 773.01C1155.51 772.79 1152.65 772.2 1150.12 771.27C1129.6 763.31 1131.71 736.31 1135.06 718.51C1136.2 713.21 1137.26 707.76 1139.5 702.8C1144.01 692.9 1149.87 683.66 1156.85 675.33C1171.03 658.22 1191.46 645.86 1214.22 652.12C1250.3 661.63 1259.21 698.19 1256.42 731.28C1255.4 742.06 1254 753.01 1250.11 763.17C1244.07 778.84 1229.09 791.58 1211.52 787.26C1206.12 785.96 1200.72 783.47 1197.25 778.99C1185.05 762.94 1191.89 733.18 1197.56 715.4C1201.26 702.6 1211.06 696.72 1223.49 703.15C1226.11 704.32 1227.25 708.2 1227.17 711.17C1227.27 720.07 1222.26 727.7 1220.21 736.08C1218.79 741.54 1218.01 747.19 1218.05 752.81C1218.17 756.55 1218.26 760.45 1219.88 763.81C1220.01 764.01 1220.2 764.24 1220.19 764.2C1220.19 764.2 1220.09 764.15 1219.9 764.2C1220.5 763.71 1221.3 762.76 1221.82 761.95C1230.54 747.68 1234.4 729.77 1232.57 713.16C1230.55 698.03 1223.08 676.88 1205.67 674.82C1200.14 674.32 1194.49 675.86 1189.41 678.01C1178.96 682.48 1171.02 691.35 1165.75 701.28C1160.6 711.26 1156.65 722.39 1156.27 733.68C1156.09 739.32 1157.14 744.81 1160.08 749.7C1160.15 749.82 1160.11 749.97 1159.99 750.04C1159.9 750.09 1159.79 750.08 1159.71 750.02C1157.36 748.15 1156.04 745.24 1155.36 742.39C1153.33 733.78 1155.21 724.83 1157.71 716.55C1162.67 700.12 1172.28 683.46 1188.66 676.35C1196.65 672.85 1206.37 671.05 1214.36 675.55C1227.14 682.84 1232.66 699.13 1234.61 712.91C1236.04 724.48 1234.47 736.27 1230.91 747.32C1229.07 752.87 1226.88 758.27 1223.62 763.2C1222.71 764.38 1221.96 765.78 1220.41 766.34C1216.17 766.91 1215.89 755.67 1215.84 752.83C1215.83 744.07 1217.6 735.36 1220.86 727.25C1223.1 721.84 1229.32 708.21 1222.83 704.24C1213.47 699.44 1204.84 702.55 1200.97 712.38C1200.61 713.3 1199.93 715.16 1199.62 716.1C1194.1 733.09 1187.2 762.42 1198.75 777.77C1201.96 781.93 1206.93 784.2 1211.93 785.44C1222.29 788.17 1233.3 783.91 1240.27 776C1247.59 768.12 1251.02 757.55 1252.77 747.12C1257.12 721.44 1257.54 691.5 1240.44 670.23C1226.89 653.91 1202.21 646.86 1182.75 656.37C1168.21 663.25 1157.07 675.89 1148.52 689.3C1145.01 694.96 1141.66 700.84 1139.4 707.1C1138.24 710.94 1137.3 714.87 1136.52 718.8C1133.17 736.43 1131.02 764.08 1152.49 770.46C1154.29 771.01 1156.42 771.32 1158.31 771.5L1159.29 771.6C1159.65 771.59 1160.36 771.58 1160.7 771.58C1169.71 770.23 1177.04 763.37 1182.59 756.51C1185.88 752.32 1188.61 747.69 1190.75 742.8C1191.15 741.9 1192.52 742.51 1192.13 743.4L1192.15 743.41Z" fill="white"/>
    <path d="M1192.96 675.63C1192.96 675.63 1200.7 690.22 1199.25 714.29Z" fill="white"/>
    <path d="M1199.25 715.05C1199.25 715.05 1199.22 715.05 1199.2 715.05C1198.79 715.02 1198.47 714.67 1198.49 714.25C1199.91 690.7 1192.36 676.13 1192.29 675.98C1192.1 675.61 1192.24 675.16 1192.6 674.96C1192.97 674.77 1193.42 674.91 1193.62 675.27C1193.7 675.42 1201.44 690.33 1200 714.33C1199.98 714.73 1199.65 715.04 1199.25 715.04V715.05Z" fill="white"/>
    <path d="M1158.06 746.98C1162.61 744.38 1166.03 739.9 1168.31 735.24C1173.25 725.47 1173.28 714.39 1174.02 703.59C1174.22 698.36 1175 693.03 1174.33 687.84C1174.43 687.94 1174.69 688.02 1174.87 687.99C1173.89 688.1 1173.72 686.62 1174.7 686.5C1175.89 686.5 1176.15 688.11 1176.43 688.98C1177.98 696.57 1177.6 704.38 1177.29 712.06C1176.84 723.3 1174.17 735.42 1165.85 743.61C1163.76 745.63 1161.44 747.36 1158.59 748.39C1158.2 748.53 1157.77 748.33 1157.63 747.94C1157.49 747.55 1157.69 747.14 1158.06 746.98V746.98Z" fill="white"/>
    <path d="M1180.93 656.45C1174.27 645.8 1162.12 639.44 1149.77 638.34C1122.22 635.88 1091.16 659.62 1082 684.96C1077.14 700.41 1074.22 718.41 1079.13 734.18C1081.54 742.12 1087.52 748.99 1094.57 751.81C1102.72 753.29 1111.62 751.6 1118.57 747.03C1125.72 742.4 1130.55 734.92 1133.52 727.02C1133.86 726.1 1135.26 726.63 1134.93 727.54C1132.01 735.82 1127.11 743.72 1119.71 748.74C1112.29 753.84 1102.9 755.68 1094.04 754.17C1085.59 751.04 1079.28 743.49 1076.61 735.03C1071.44 718.86 1074.27 699.91 1079.33 684C1089.14 657.41 1121.02 633.26 1149.99 636.12C1162.97 637.45 1175.46 644.38 1182.26 655.73C1182.75 656.65 1181.42 657.35 1180.94 656.44L1180.93 656.45Z" fill="white"/>
    <path d="M1162.62 669.84C1156.66 661.92 1145.82 659.34 1136.38 661.33C1120.2 664.46 1104.04 687.56 1100.18 702.84C1099.06 708.39 1098.05 714.04 1097.75 719.65C1097.6 723.29 1097.6 727.08 1099.12 730.38C1099.61 731.42 1100.35 732.27 1101.45 732.87C1101.57 732.93 1101.61 733.08 1101.55 733.2C1092.29 733.12 1096.44 710.16 1097.33 704.25C1099.95 687.19 1117.93 661.38 1135.83 658.27C1146.22 656.33 1158.23 659.62 1163.93 669.08C1164.4 669.95 1163.16 670.67 1162.64 669.85L1162.62 669.84Z" fill="white"/>
    <path d="M1139.56 702.77C1140.36 692.01 1139.99 681.08 1138.26 670.42C1137.67 666.87 1136.83 663.37 1135.81 659.93C1135.68 659.53 1135.91 659.09 1136.31 658.97C1136.71 658.85 1137.13 659.08 1137.24 659.47C1139.38 666.48 1140.58 673.73 1141.1 681.02C1141.61 688.31 1141.64 695.6 1141.05 702.9C1140.96 703.88 1139.45 703.76 1139.55 702.76L1139.56 702.77Z" fill="white"/>
    <path d="M1116.54 672.37C1120.54 683 1122.59 695.05 1119.06 706.09C1116.61 714.25 1113.35 722.73 1106.86 728.62C1104.61 730.56 1101.65 732.03 1098.59 731.8C1098.18 731.77 1097.86 731.41 1097.89 731C1097.92 730.6 1098.25 730.3 1098.65 730.3C1101.24 730.32 1103.66 729.01 1105.6 727.19C1111.47 721.41 1114.46 713.26 1116.75 705.45C1118.28 700.15 1118.95 694.7 1118.34 689.19C1117.88 683.69 1116.7 678.18 1115.14 672.89C1114.83 672 1116.19 671.46 1116.55 672.38L1116.54 672.37Z" fill="white"/>
    <path d="M1123.92 641.59C1115.65 628.72 1099.46 622.91 1084.64 623.62C1069.2 623.51 1055.46 632.27 1045.51 643.64C1029.26 662.6 1017.52 688.14 1021.07 713.53C1021.91 718.47 1023.63 723.31 1026.62 727.27C1032.51 735.13 1043.68 739.2 1053.06 735.64C1062.51 732.11 1069.63 723.75 1074.59 715.19C1075.06 714.28 1076.39 715.01 1075.92 715.88C1070.77 724.94 1063.65 733.46 1053.68 737.34C1043.54 741.27 1031.42 737.06 1024.98 728.5C1021.72 724.22 1019.88 719.06 1018.99 713.88C1015.22 687.81 1027.1 661.6 1043.73 642.06C1053.86 630.34 1068.55 620.9 1084.57 621.12C1086.84 620.94 1090.15 621.25 1092.44 621.37C1105.47 622.75 1118.52 629.21 1125.25 640.9C1125.72 641.82 1124.39 642.5 1123.92 641.6V641.59Z" fill="white"/>
    <path d="M1106.07 652.05C1098.36 647.21 1089.01 643.43 1079.99 645.69C1074.75 647.27 1070.06 650.66 1065.74 653.99C1054.99 662.64 1046.13 674.64 1043.94 688.49C1042.7 696.22 1042.04 704.61 1044.93 712.07C1045.78 714.23 1047.04 716.21 1048.72 717.88C1048.85 718.01 1048.85 718.22 1048.72 718.35C1048.61 718.46 1048.43 718.48 1048.3 718.39C1046.25 716.98 1044.63 714.97 1043.46 712.75C1040.06 706.17 1039.91 697.75 1040.85 690.97C1042.45 675.36 1051.92 661.43 1064.12 651.95C1075.19 643.57 1083.11 639.93 1096.77 645.27C1100.38 646.72 1103.77 648.55 1106.95 650.83C1107.29 651.07 1107.36 651.54 1107.12 651.88C1106.87 652.22 1106.4 652.29 1106.07 652.05V652.05Z" fill="white"/>
    <path d="M1061.49 656.28C1064.25 664.57 1066.03 673.35 1065.27 682.14C1065.07 684.12 1064.34 687.4 1063.94 689.38C1062.09 697.44 1059.99 706.27 1053.87 712.37C1051.77 714.38 1049.01 715.85 1046.09 716.17C1045.68 716.22 1045.3 715.92 1045.26 715.51C1045.21 715.12 1045.49 714.76 1045.87 714.68C1048.43 714.21 1050.74 712.88 1052.54 711C1054.35 709.12 1055.77 706.85 1056.89 704.42C1059.68 698.37 1061.13 691.45 1062.38 684.84C1062.62 683.53 1062.86 682.19 1062.95 680.88C1063.38 675.52 1062.73 670.05 1061.79 664.74C1061.31 662.05 1060.73 659.35 1060.05 656.72C1059.81 655.83 1061.18 655.38 1061.49 656.29V656.28Z" fill="white"/>
    <path d="M1082.01 644.63C1083.68 649.72 1084.88 654.9 1085.67 660.19C1086.34 665.54 1087.03 671.07 1085.18 676.33C1085.03 676.72 1084.6 676.91 1084.21 676.76C1083.83 676.61 1083.64 676.19 1083.77 675.81C1085.59 668.3 1083.65 660.23 1082.3 652.73C1081.77 650.15 1081.18 647.58 1080.57 645.03C1080.35 644.12 1081.71 643.72 1082.01 644.61V644.63Z" fill="white"/>
    <path d="M1067.15 624.93C1055.04 611.73 1035.9 605.74 1018.65 611.31C1005.85 615.1 994.03 622.54 985.77 633.08C981.16 638.49 971.41 656.13 977.98 661.96C984.34 666.11 989.41 661.18 993.28 656.13C996.11 652.55 998.56 648.73 1001.43 645.11C1009.98 634.34 1024.15 625.53 1038.23 629.92C1042.78 631.28 1046.98 633.63 1050.16 637.25C1050.43 637.56 1050.39 638.04 1050.08 638.31C1049.77 638.58 1049.3 638.54 1049.03 638.24C1044.58 633.38 1037.75 630.8 1031.22 630.69C1019.93 630.6 1010.13 638.17 1003.33 646.63C998.12 652.84 992.52 665.21 983.73 666.19C973.42 666.49 971.47 658.34 973.89 649.9C976.97 638.72 984.11 628.8 993.22 621.27C1007.62 609.8 1027.38 602.42 1045.55 608.4C1054.48 611.33 1062.45 616.73 1068.33 623.99C1068.92 624.78 1067.79 625.7 1067.15 624.92V624.93Z" fill="white"/>
    <path d="M1270.78 615.35C1258.35 615.21 1245.7 613.94 1234.17 608.91C1229.23 606.84 1222.22 601.66 1226.3 595.68C1228.26 592.9 1231.36 591.3 1234.3 590.01C1238.19 588.37 1242.21 587.34 1246.26 586.53C1262.44 583.53 1279.12 583.59 1295.26 586.71C1301.31 588.02 1307.61 589.57 1312.69 593.39C1317.24 596.75 1317.28 601.87 1312.79 605.35C1302.03 613.3 1283.86 615.15 1270.78 615.35V615.35ZM1270.78 611.16C1282.67 611.05 1295.01 610.46 1306.2 606.19C1309.24 604.85 1313.58 602.82 1313.91 599.3C1313.7 595.75 1309.34 593.56 1306.33 592.14C1288.84 584.99 1265.12 585.14 1246.73 588.77C1237.23 590.62 1217.05 598.13 1235.47 605.95C1246.6 610.24 1258.92 611.01 1270.78 611.16V611.16Z" fill="white"/>
    <path d="M1218.33 454.49C1225.06 471.05 1236.96 508.61 1226.5 524.43C1215.52 537.71 1197.51 515.46 1191.17 506.64C1183.71 496.21 1177.78 484.79 1172.86 472.98C1165.83 455.12 1160.22 436.2 1161.09 416.78C1161.55 405.54 1167.27 393.42 1180.37 400.03C1197.65 409.77 1210.97 436.58 1218.32 454.49H1218.33ZM1216.22 455.35C1208.82 437.97 1195.75 412.26 1178.93 402.98C1161.33 394.84 1164.58 425.86 1166.48 435.42C1169.91 453.81 1176.5 471.61 1184.92 488.3C1190.59 499.29 1197.13 510.23 1206.03 518.85C1218.42 530.54 1226.99 527.14 1228.03 510.06C1228.8 491.26 1223.04 472.72 1216.23 455.35H1216.22Z" fill="white"/>
    <path d="M1166.18 406.13L1010.8 541.01L1011.18 540.53C1009.1 547.19 1018.92 545.75 1023 545.59C1033.87 544.79 1044.9 543.83 1055.75 542.89C1089.17 539.89 1178.56 531.99 1213.08 528.94C1213.49 528.9 1213.86 529.21 1213.9 529.62C1213.94 530.03 1213.64 530.39 1213.23 530.43C1187.09 533.3 1134.65 538.89 1108.51 541.56L1056.11 546.8C1045.26 547.85 1034.18 548.94 1023.3 549.85C1019.88 550.09 1016.14 550.49 1012.76 549.45C1007.74 548.14 1005.57 542.95 1008.7 538.6C1008.7 538.6 1164.32 403.98 1164.32 403.97C1164.92 403.45 1165.82 403.52 1166.34 404.12C1166.86 404.72 1166.79 405.62 1166.2 406.13H1166.18Z" fill="white"/>
    <path d="M447.13 593.36C598.49 595.17 749.8 602.77 901.16 604.86C907.6 605.5 913.9 601.64 915.73 595.29C934.92 496.2 959.02 369.59 978.61 270.43C980.11 263.44 975.12 255.95 968.02 254.8C966.44 254.5 964.14 254.5 962.08 254.38C958.51 254.19 947.01 253.73 943.18 253.52C849.49 248.9 685.83 245.82 590.13 242.8C561.25 241.71 518.42 241.18 489.23 240.59C457.28 240.27 413.67 239.2 382.02 238.4L380.45 238.36C379.15 238.34 377.85 238.46 376.6 238.8C372.42 239.88 368.87 243.18 367.57 247.32C367.29 248.14 367.14 248.95 366.92 250.05L365.69 256.24C355.41 308.49 343.6 364.97 332.39 416.83C332.26 417.44 331.66 417.82 331.05 417.69C330.46 417.56 330.08 416.98 330.18 416.39C339.98 360.82 351.09 301.04 362.23 245.58C364.89 237.07 373.43 231.82 382.22 232.71C431.07 233.97 490.66 236.76 539.8 238.52C662.77 241.92 833.86 248.25 955.95 249.41L962.26 249.49C964.4 249.56 966.32 249.42 968.9 249.78C978.88 251.18 986.07 261.59 983.99 271.46C965.05 369.65 940.51 495.4 921.12 593.36C920.42 598.07 918.16 602.6 914.37 605.57C910.66 608.65 905.73 609.95 900.97 609.56L875.76 608.74C732.94 603.06 589.88 602.71 447.07 596.5C446.2 596.46 445.53 595.73 445.57 594.86C445.61 594.01 446.32 593.35 447.16 593.36H447.13Z" fill="white"/>
    <path d="M423.46 610.59C551.8 614.43 682.24 618.33 810.71 622.45C830.27 623.28 874.79 624.62 893.65 626.24C898.25 626.58 902.86 626.9 907.46 627.19L914.38 627.64C916.67 627.84 918.65 627.87 920.81 627.25C926 625.82 930.07 621.23 930.91 615.89L931.58 612.5C941.98 558.45 958.1 469.05 968.7 415.33C974.56 384.95 985.51 330.29 991.72 299.99C993.15 293.43 993.5 286.53 992.65 279.89C991.62 271.15 987.46 262.34 979.22 258.43C978.67 258.16 978.44 257.5 978.71 256.95C978.97 256.41 979.63 256.18 980.17 256.43C989.23 260.41 994.26 270.06 995.57 279.46C996.63 286.51 996.39 293.67 995.03 300.64C994.63 302.78 984.36 358.09 983.63 361.85C969.48 437.69 948.83 536.91 933.76 612.91C933.39 614.51 932.9 618.21 932.1 619.84C929.81 625.63 924.09 629.84 917.86 630.37C915.41 630.56 909.84 630.29 907.34 630.34C893.5 630.21 879.65 630.37 865.82 629.9C795.38 627.39 714.83 624.72 644.61 621.25C570.89 617.85 497.1 616.48 423.37 613.66C422.52 613.63 421.85 612.91 421.88 612.06C421.91 611.22 422.62 610.56 423.45 610.57L423.46 610.59Z" fill="white"/>
    <path d="M396.81 579.52C375.06 655.2 279.77 696.71 216.31 642.54C181.9 613.16 166.81 563.9 177.21 520.08C196.08 439.67 293.27 406.54 357.78 457.81C393.81 485.74 410.06 535.9 396.81 579.52ZM395.419 579.12C410.589 528.47 383.42 472.58 336.57 449.67C273.77 418.11 197.41 452.74 179.51 520.66C161.44 586.95 207.72 660.85 278.66 663.1C330.3 665.05 381.119 628.98 395.419 579.12V579.12Z" fill="white"/>
    <path d="M327.21 442.36C427.02 468.25 454.39 585.07 373.95 650.59C347.77 671.09 313.34 677.34 281.17 670.2C273.27 668.45 265.53 666.13 258.04 663.17C257.92 663.12 257.86 662.99 257.91 662.87C257.95 662.76 258.08 662.7 258.19 662.73C262.04 663.87 265.9 664.93 269.79 665.87C304.64 674.54 342.5 669.41 371.04 646.82C416.35 611.9 432.7 548.49 402.18 498.48C385.93 470.81 357.85 451.29 327.09 442.81C326.97 442.78 326.9 442.65 326.93 442.53C326.96 442.41 327.09 442.34 327.21 442.37V442.36Z" fill="white"/>
    <path d="M379.66 251.09L605.09 457.96L601.86 457.54C603.23 457.93 955.6 270.32 956.77 273C957.03 273.49 956.84 274.1 956.35 274.36L604.48 462.51C603.4 463.09 602.1 462.88 601.25 462.09L377.78 253.1C377.23 252.58 377.2 251.72 377.72 251.16C378.23 250.61 379.09 250.58 379.65 251.09H379.66Z" fill="white"/>
    <path d="M699.25 429.8C765.98 479.25 831.26 531.67 895.3 584.57C895.73 584.93 895.79 585.57 895.43 586C895.08 586.41 894.48 586.48 894.05 586.16C831.74 539.52 769.59 491.46 709.54 441.96C705.53 438.65 701.52 435.32 697.55 431.95C696.97 431.46 696.9 430.59 697.39 430.02C697.86 429.47 698.67 429.38 699.24 429.8H699.25Z" fill="white"/>
    <path d="M536.859 427.18C508.829 447.06 479.359 464.96 449.879 482.59C440.009 488.42 430.109 494.2 420.069 499.75C419.579 500.02 418.959 499.84 418.689 499.35C418.439 498.89 418.579 498.33 418.989 498.03C428.379 491.43 437.909 485.06 447.479 478.75C466.559 466.22 486.039 453.8 505.579 442C515.419 436.12 525.289 430.3 535.399 424.86C536.839 424.09 538.259 426.16 536.849 427.18H536.859Z" fill="white"/>
    <path d="M298.191 195.17C287.081 182.1 287.631 157.86 285.301 141.46C283.231 126.16 280.931 108.38 260.921 113.75C241.001 119.25 221.671 128.75 200.731 130.25C178.431 131.78 165.371 118.96 158.501 98.8402C156.931 91.2102 156.091 83.4802 155.281 75.8102C153.971 64.5202 153.541 52.9702 149.661 42.2802C147.011 34.9802 141.501 30.0502 133.441 30.4002C122.101 30.9602 111.691 36.6602 101.881 42.0802C93.3605 47.0302 62.0405 63.7302 60.4005 45.6502C60.3805 41.3202 62.6005 37.6702 64.9605 34.3302C68.4705 29.5102 73.0205 25.7902 77.4705 21.9602C80.3705 19.3902 83.3405 16.8202 86.6805 14.8302C107.501 1.67023 137.331 -7.72978 158.821 9.06022C171.061 18.8402 178.631 34.4902 180.171 49.8602C181.801 64.7402 180.001 81.2702 185.831 94.7302C192.391 106.17 202.721 107.08 214.181 102.62C227.321 97.8002 239.121 88.1402 253.331 85.2802C285.151 78.8702 303.081 95.9002 310.151 125.81C312.861 136.97 314.011 148.4 314.711 159.82C315.041 163.64 314.881 167.57 315.441 171.34C317.441 180.24 327.571 184.22 330.331 192.86C332.581 200.07 327.481 209.79 319.391 209.84C309.961 209.55 303.851 201.63 298.201 195.17H298.191ZM299.461 194.06C301.281 196.21 303.371 198.13 305.531 199.9C309.721 203.15 314.061 207.13 319.431 207.67C324.881 208.15 328.751 202.33 328.911 197.32C329.121 188.26 319.831 184.4 315.381 177.09C314.371 175.51 313.571 173.71 313.141 171.86C312.461 167.92 312.591 163.96 312.191 160.01C310.851 143.3 308.811 126.11 301.591 110.82C292.101 90.7302 275.021 84.3402 253.841 88.3602C239.901 90.9102 228.481 99.9402 214.911 104.66C202.461 109.44 191.071 107.92 183.971 95.6902C175.331 76.1002 181.721 53.5002 172.941 34.0902C154.441 -7.77978 116.261 0.900221 84.1405 21.4902C77.4105 24.8802 71.3405 29.6202 67.2305 35.9202C65.2705 38.7802 63.6905 42.2602 63.5105 45.6502C63.2805 49.2502 66.1405 51.1702 69.5205 51.5402C76.9105 52.3102 84.3605 49.1302 91.0305 46.0802C108.281 37.8202 140.431 13.5602 151.781 41.4402C155.961 52.3302 156.481 64.1502 157.871 75.5402C158.611 82.8202 159.811 91.5402 161.101 97.9302C167.651 116.51 179.701 128.83 200.511 126.86C218.751 125.17 235.611 116.86 252.921 111.01C257.221 109.5 261.971 107.88 267.071 107.72C285.451 106.93 288.751 126.79 289.661 141.04C291.211 157.41 288.991 180.91 299.471 194.07L299.461 194.06Z" fill="white"/>
    <path d="M85.2191 345.08C80.3891 327.48 72.8791 287.78 85.4191 273.03C98.1791 260.88 113.779 285.66 119.149 295.4C128.539 312.68 134.549 331.64 137.909 350.99C140.209 366.02 142.189 385.91 135.709 400.08C131.909 408.02 124.449 410.11 117.169 405.02C100.829 393.06 90.5091 364.13 85.2291 345.08H85.2191ZM87.4691 344.46C92.8691 363.01 103.039 390.72 118.989 402.2C135.879 412.61 136.349 380.7 135.579 370.75C134.329 351.65 129.799 332.76 123.269 314.79C118.849 302.94 113.529 291.03 105.539 281.19C94.3791 267.81 85.2491 270.23 82.1191 287.45C79.0491 306.45 82.6491 325.99 87.4591 344.46H87.4691Z" fill="white"/>
    <path d="M132.259 400.6C132.169 400.68 275.549 290.3 273.829 291.87C276.429 286.47 269.249 285.75 265.349 285.44L259.629 284.92C210.109 280.5 149.119 274.93 99.5587 270.09C99.1387 270.05 98.8287 269.67 98.8687 269.25C98.9087 268.83 99.2787 268.53 99.6887 268.56C149.389 272.05 210.389 276.71 259.969 280.61C263.539 281.01 268.269 280.92 271.799 282.07C277.279 283.52 280.169 288.73 276.549 293.7C276.559 294.21 134.239 402.52 134.039 402.93C133.399 403.42 132.479 403.3 131.989 402.66C131.499 402.02 131.619 401.1 132.259 400.61V400.6Z" fill="white"/>
    <path d="M74.6999 195.08C52.9299 187.15 31.1899 177.84 12.7099 163.62C-6.61007 148.36 -2.92007 136.94 22.0199 137.22C45.3099 137.79 68.0499 144.17 89.9599 151.66C111.73 159.54 133.45 168.8 151.96 182.93C171.29 198.1 167.57 209.38 142.75 209.23C119.44 208.78 96.6599 202.48 74.6999 195.08V195.08ZM75.1199 193.88C96.9199 201.37 119.59 207.75 142.75 208.38C166.66 208.64 170.5 198.45 151.54 183.45C133.11 169.36 111.45 160.09 89.7499 152.22C67.8999 144.82 45.1899 138.52 22.0099 138.01C-1.78008 137.88 -5.65007 147.92 13.3199 162.84C31.7799 176.84 53.4299 186.06 75.1099 193.88H75.1199Z" fill="white"/>
    <path d="M76.6091 188.45C63.4591 183.78 50.5091 178.53 37.9991 172.31C28.6991 167.54 19.3091 162.57 11.4591 155.57C-2.71092 142.07 16.5091 141.4 26.6291 142.57C47.4691 144.78 67.6991 150.81 87.4491 157.61C107.099 164.67 126.649 172.63 144.279 183.95C149.349 187.3 165.279 198.39 153.219 202.59C134.389 207.01 95.4691 194.86 76.6191 188.45H76.6091ZM76.9491 187.48C95.5691 193.92 134.409 206.25 153.039 202.03C164.439 198.33 148.439 187.39 143.979 184.4C126.399 173.1 106.889 165.13 87.2791 158.07C67.5591 151.33 47.3491 145.36 26.5691 143.21C21.1491 142.76 2.05907 141.31 8.53907 151.21C20.3291 166.07 58.4791 180.88 76.9491 187.48V187.48Z" fill="white"/>
    <path d="M314.701 622.77C326.501 592.45 348.281 537.91 359.911 508.13L361.531 504.04C361.641 503.82 361.491 503.6 361.301 503.54C360.381 503.61 351.991 505.21 350.841 505.39L212.301 530.72C211.271 530.93 206.901 531.7 205.811 531.91L204.731 532.11C204.451 532.15 204.411 532.46 204.551 532.63C204.611 532.67 204.551 532.65 204.771 532.77L206.711 533.8C214.751 538.06 227.901 545.03 235.871 549.27L236.841 549.79C236.951 549.85 236.911 549.83 236.941 549.85C237.021 549.9 237.021 549.97 237.161 549.98C237.471 550.03 237.941 549.85 238.241 549.76C262.621 542.58 294.651 533.18 318.911 525.74C320.141 525.33 321.411 526.62 321.001 527.85C320.741 528.69 319.841 529.05 319.281 529.55L317.531 530.89C300.481 543.83 283.651 557.31 266.601 570.27L266.501 570.34C266.621 570.25 266.641 570.07 266.551 569.96C266.791 570.23 267.391 570.86 267.641 571.13C281.801 586.31 296.791 602.74 310.841 618.1L313.811 621.35L314.551 622.16C314.761 622.4 315.181 622.83 315.001 622.66C314.871 622.58 314.731 622.66 314.691 622.77H314.701ZM317.461 623.84C316.741 625.78 314.001 626.2 312.751 624.58L312.381 624.18C311.971 623.74 309.131 620.67 308.641 620.14C294.481 604.85 279.351 588.6 265.391 573.22L264.651 572.41C263.381 571.31 263.161 569.29 264.441 568.11C264.911 567.7 266.491 566.6 267.021 566.2L274.141 561.02C288.971 550.24 304.021 539.74 318.771 528.84L319.661 528.19C320.001 527.95 320.141 527.84 320.221 527.59C320.401 527.14 320.011 526.51 319.531 526.48C295.051 533.53 263.111 543.74 238.701 551.22L238.171 551.38C238.081 551.41 237.991 551.43 237.911 551.47C237.591 551.73 237.201 551.84 236.761 551.83C236.461 551.83 236.091 551.7 235.881 551.58L234.911 551.06L232.971 550.02C225.941 546.29 212.881 539.23 205.821 535.47L203.881 534.43C203.771 534.38 203.401 534.17 203.201 533.95C201.961 532.76 202.691 530.43 204.401 530.2C206.251 529.85 210.061 529.18 211.981 528.83L350.541 503.62L359.201 502.02L360.281 501.82L360.821 501.72C361.701 501.53 362.791 502.01 363.181 502.86C363.481 503.41 363.491 504.15 363.271 504.68L361.691 508.79C350.311 538.42 329.071 593.67 317.481 623.82L317.461 623.84Z" fill="white"/>
    <path d="M284.071 591.75C276.951 595.76 258.851 605.95 251.971 609.83L251.641 610.02L251.471 610.11C249.961 611.1 247.731 610.17 247.401 608.37C247.011 606.48 245.951 601.31 245.541 599.34L235.631 551.23C235.491 550.54 235.931 549.86 236.631 549.72C237.321 549.58 238.001 550.02 238.141 550.71C238.981 554.67 248.991 602.1 249.561 604.78L250.191 607.78C250.191 607.72 250.121 607.66 250.061 607.65C250.031 607.65 249.981 607.65 249.961 607.66L250.551 607.32C257.331 603.46 275.551 593.08 282.561 589.08C284.301 588.12 285.821 590.71 284.071 591.74V591.75Z" fill="white"/>
    <path d="M265.9 570.51L250.22 609.34C249.66 610.68 247.61 609.91 248.12 608.51L263.06 569.39C263.81 567.52 266.63 568.6 265.9 570.51V570.51Z" fill="white"/>
</svg>
