<svg viewBox="0 0 23 23" fill="none" xmlns="http://www.w3.org/2000/svg">
    <path d="M10.5476 14.113C11.566 14.1094 13.7926 14.1011 13.7669 12.6848C13.7422 11.2365 11.6036 11.3236 10.5613 11.3667C10.4449 11.3712 10.3413 11.3758 10.257 11.3767L10.3046 14.1149C10.3734 14.113 10.4559 14.113 10.5476 14.113ZM10.4394 10.1227C11.2892 10.1218 13.1436 10.12 13.1216 8.83204C13.0978 7.51477 11.3167 7.59269 10.4467 7.63119C10.3486 7.63577 10.2634 7.63944 10.1919 7.64036L10.235 10.1236L10.4394 10.1227Z" fill="#181818"/>
    <path fill-rule="evenodd" clip-rule="evenodd" d="M8.44869 21.7818C14.3429 23.2513 20.3123 19.6643 21.7818 13.7719C23.2512 7.87856 19.6633 1.90915 13.7691 0.440635C7.87852 -1.02972 1.90911 2.55816 0.440588 8.4524C-1.02885 14.3448 2.55812 20.3142 8.44961 21.7827L8.44869 21.7818ZM12.3739 6.17996C13.9818 6.29363 15.2614 6.7648 15.4292 8.23515C15.5539 9.31133 15.1139 9.96676 14.3998 10.3463C15.5915 10.6103 16.3477 11.3024 16.2285 12.8864C16.081 14.8527 14.6262 15.4054 12.538 15.5612L12.5728 17.6238L11.3298 17.6467L11.2941 15.6117C10.9723 15.6172 10.6423 15.6208 10.3004 15.619L10.337 17.6632L9.09403 17.6852L9.05737 15.619L8.70628 15.6217C8.52844 15.6227 8.34877 15.6236 8.16911 15.6272L6.55025 15.6547L6.77117 14.1661C6.77117 14.1661 7.69151 14.1642 7.67501 14.1505C8.02702 14.1431 8.11594 13.8892 8.13519 13.7297L8.07927 10.4691L8.16819 10.4673H8.21036C8.16654 10.4622 8.12245 10.4601 8.07835 10.4608L8.03802 8.13248C7.98577 7.88131 7.8171 7.59164 7.31384 7.60081C7.32759 7.58248 6.41 7.61639 6.41 7.61639L6.38617 6.28904L8.10219 6.25971V6.26613C8.35977 6.26154 8.62469 6.25238 8.89328 6.24229L8.85845 4.19902L10.1015 4.17793L10.1363 6.17996C10.4681 6.16804 10.8018 6.15521 11.1291 6.14971L11.0942 4.16052L12.3382 4.13852L12.3739 6.18179V6.17996Z" fill="#181818"/>
</svg>
