<svg viewBox="0 0 22 23" fill="none" xmlns="http://www.w3.org/2000/svg">
    <path d="M21.6242 3.29643C21.3907 2.65445 21.0194 2.07143 20.5364 1.5884C20.0533 1.10536 19.4703 0.734055 18.8283 0.500601C17.6275 0.115601 16.5367 0.115601 14.3183 0.115601H7.66333C5.46333 0.115601 4.35417 0.115601 3.17167 0.482267C2.52875 0.716694 1.94514 1.08941 1.46205 1.57408C0.978955 2.05876 0.608155 2.64359 0.375833 3.28727C0 4.47893 0 5.57893 0 7.77893V14.4431C0 16.6523 0 17.7431 0.366667 18.9348C0.600121 19.5767 0.97143 20.1598 1.45446 20.6428C1.9375 21.1258 2.52052 21.4971 3.1625 21.7306C4.35417 22.1064 5.45417 22.1064 7.65417 22.1064H14.3275C16.5367 22.1064 17.6367 22.1064 18.8192 21.7398C19.4638 21.5065 20.0492 21.1343 20.5339 20.6495C21.0187 20.1648 21.3909 19.5794 21.6242 18.9348C22 17.7431 22 16.6431 22 14.4431V7.79727C22 5.5881 22 4.4881 21.6242 3.29643ZM15.9683 7.5406L15.1158 8.3931C15.0328 8.47038 14.924 8.51409 14.8105 8.51579C14.6971 8.51748 14.587 8.47703 14.5017 8.40227C13.6761 7.70502 12.6306 7.32192 11.55 7.3206C10.6608 7.3206 9.77167 7.61393 9.77167 8.42977C9.77167 9.25477 10.725 9.52977 11.825 9.94227C13.75 10.5839 15.345 11.3906 15.345 13.2789C15.345 15.3323 13.75 16.7439 11.1467 16.8998L10.9083 17.9998C10.8873 18.1009 10.832 18.1916 10.7519 18.2567C10.6717 18.3218 10.5716 18.3573 10.4683 18.3573H8.8275L8.745 18.3481C8.62755 18.3218 8.52519 18.2503 8.46001 18.1491C8.39483 18.0479 8.37208 17.9251 8.39667 17.8073L8.65333 16.6431C7.66537 16.3954 6.75679 15.9001 6.01333 15.2039V15.1948C5.97231 15.1539 5.93977 15.1053 5.91756 15.0518C5.89535 14.9984 5.88392 14.941 5.88392 14.8831C5.88392 14.8252 5.89535 14.7678 5.91756 14.7144C5.93977 14.6609 5.97231 14.6123 6.01333 14.5714L6.93 13.6823C7.01324 13.6043 7.12302 13.5609 7.23708 13.5609C7.35114 13.5609 7.46093 13.6043 7.54417 13.6823C8.37833 14.4706 9.49667 14.9106 10.6517 14.8923C11.8433 14.8923 12.6408 14.3881 12.6408 13.5906C12.6408 12.7931 11.8342 12.5823 10.3125 12.0139C8.69917 11.4364 7.16833 10.6206 7.16833 8.71393C7.16833 6.4956 9.01083 5.41393 11.1925 5.3131L11.4217 4.1856C11.443 4.0854 11.4986 3.99577 11.5789 3.93218C11.6592 3.86859 11.7592 3.83502 11.8617 3.83727H13.4933L13.585 3.84643C13.8233 3.90143 13.9792 4.1306 13.9242 4.36893L13.6767 5.62477C14.5017 5.89977 15.2808 6.3306 15.95 6.89893L15.9683 6.91727C16.1425 7.1006 16.1425 7.3756 15.9683 7.5406Z" fill="#181818"/>
</svg>
