<svg viewBox="0 0 510 326" fill="none" xmlns="http://www.w3.org/2000/svg">
    <path d="M149.75 113.435C170.627 51.0328 246.396 44.5613 261.391 44.5613C277.834 44.5613 382.065 54.502 382.065 157.294C382.065 272.622 278.83 278.977 261.148 278.977C247.187 278.977 210.578 276.157 180.952 242.781" stroke="#D9D9D9" stroke-linecap="round" stroke-linejoin="round"/>
    <path d="M144.419 147.582C144.46 141.474 144.595 136.664 145.411 131.254" stroke="#D9D9D9" stroke-linecap="round" stroke-linejoin="round"/>
    <path d="M350.872 81.6572C330.944 91.8424 298.898 98.4455 262.765 98.4455C226.632 98.4455 194.343 91.7891 174.43 81.5413" stroke="#D9D9D9" stroke-linecap="round" stroke-linejoin="round"/>
    <path d="M199.85 227.424C218.496 223.777 241.349 221.63 266.035 221.63C303.746 221.63 337.169 226.638 357.873 234.354" stroke="#D9D9D9" stroke-linecap="round" stroke-linejoin="round"/>
    <path d="M378.781 163.806C378.781 163.806 310.161 164.129 287.268 164.12C264.712 164.11 197.115 163.806 197.115 163.806" stroke="#D9D9D9" stroke-linecap="round" stroke-linejoin="round"/>
    <path d="M262.651 45.5579V163.806V278.664" stroke="#D9D9D9" stroke-linecap="round" stroke-linejoin="round"/>
    <path d="M262.651 44.5613C296.408 44.5613 323.776 96.863 323.776 161.378C323.776 225.892 296.408 278.821 262.651 278.821" stroke="#D9D9D9" stroke-linecap="round" stroke-linejoin="round"/>
    <path d="M201.841 142.966C206.744 87.922 231.572 44.5613 261.548 44.5613" stroke="#D9D9D9" stroke-linecap="round" stroke-linejoin="round"/>
    <path d="M200.896 161.378C200.896 158.172 200.963 154.994 201.095 151.851" stroke="#D9D9D9" stroke-linecap="round" stroke-linejoin="round"/>
    <path d="M215.191 236.71C212.264 230.035 209.719 222.717 207.62 214.886" stroke="#D9D9D9" stroke-linecap="round" stroke-linejoin="round"/>
    <path d="M262.493 278.821C247.88 278.821 233.847 268.554 223.374 251.979" stroke="#D9D9D9" stroke-linecap="round" stroke-linejoin="round"/>
    <path d="M373.778 242.514C369.588 247.751 333.704 291.137 294.549 292.23C294.549 292.23 295.101 287.125 299.197 284.305C303.293 281.484 260.6 295.744 261.545 297.765C264.434 303.948 295.416 311.883 297.936 311.883L294.549 304.243C294.549 304.243 355.787 307.637 385.795 259.409C385.918 259.209 385.912 258.955 385.78 258.76L374.56 242.542C374.374 242.273 373.98 242.257 373.775 242.514H373.778Z" stroke="#D9D9D9" stroke-linecap="round" stroke-linejoin="round"/>
    <path d="M131.869 111.683C133.669 105.992 144.447 67.42 175.974 52.5277C175.974 52.5277 176.528 56.1599 176.311 60.024C176.166 62.5844 202.383 36.5793 200.884 35.2693C196.293 31.2611 167.848 36.1876 165.794 37.087L171.632 42.7311C171.632 42.7311 120.473 61.8668 113.444 111.921C113.416 112.128 131.74 112.097 131.873 111.683H131.869Z" stroke="#D9D9D9" stroke-linecap="round" stroke-linejoin="round"/>
    <path d="M462.583 78.0406C466.398 75.4543 463.2 64.179 455.44 52.8565C447.681 41.5339 438.298 34.4518 434.484 37.038C430.669 39.6243 433.867 50.8997 441.626 62.2222C449.386 73.5448 458.768 80.6269 462.583 78.0406Z" stroke="#D9D9D9" stroke-linecap="round" stroke-linejoin="round"/>
    <path d="M432.949 39.0769L397.525 92.2498C397.525 92.2498 396.605 95.7034 401.637 94.4154C406.669 93.1273 459.731 79.8176 459.731 79.8176" stroke="#D9D9D9" stroke-linecap="round" stroke-linejoin="round"/>
    <path d="M99.1565 310.995C100.803 309.202 97.778 303.787 92.3999 298.901C87.0217 294.014 81.3271 291.507 79.6805 293.3C78.034 295.092 81.0591 300.507 86.4372 305.393C91.8153 310.28 97.51 312.788 99.1565 310.995Z" stroke="#D9D9D9" stroke-linecap="round" stroke-linejoin="round"/>
    <path d="M99.6941 309.762C99.6941 309.762 108.737 286.655 111.415 278.112C111.598 277.529 111.465 276.223 109.033 277.498C106.601 278.77 80.9282 292.042 80.9282 292.042" stroke="#D9D9D9" stroke-linecap="round" stroke-linejoin="round"/>
    <path d="M20.8084 200.7C25.0796 189.987 25.6153 180.147 22.0049 178.723C18.3944 177.299 12.005 184.83 7.73379 195.544C3.46253 206.258 2.92684 216.097 6.53728 217.521C10.1477 218.945 16.5371 211.414 20.8084 200.7Z" stroke="#D9D9D9" stroke-linecap="round" stroke-linejoin="round"/>
    <path d="M7.75488 217.866C7.75488 217.866 48.7147 219.12 62.6284 217.725C63.602 217.628 65.4799 216.735 62.2062 213.855C58.9294 210.978 22.721 178.849 22.721 178.849" stroke="#D9D9D9" stroke-linecap="round" stroke-linejoin="round"/>
    <path d="M384.941 65.9139C389.432 61.4468 391.926 56.6845 390.51 55.2771C389.095 53.8696 384.308 56.35 379.816 60.8171C375.325 65.2842 372.832 70.0465 374.247 71.4539C375.662 72.8614 380.45 70.381 384.941 65.9139Z" stroke="#D9D9D9" stroke-linecap="round" stroke-linejoin="round"/>
    <path d="M203.479 296.317C204.813 294.834 202.059 290.217 197.326 286.003C192.593 281.79 187.675 279.577 186.34 281.06C185.006 282.543 187.76 287.161 192.493 291.374C197.226 295.587 202.144 297.801 203.479 296.317Z" stroke="#D9D9D9" stroke-linecap="round" stroke-linejoin="round"/>
    <path d="M493.037 87.049C498.943 84.7234 503.133 81.3379 502.396 79.4872C501.659 77.6366 496.275 78.0216 490.369 80.3472C484.464 82.6728 480.274 86.0584 481.011 87.909C481.747 89.7597 487.132 89.3746 493.037 87.049Z" stroke="#D9D9D9" stroke-linecap="round" stroke-linejoin="round"/>
    <path d="M340.74 40.1368C344.788 38.875 345.576 29.9365 342.499 20.1722C339.423 10.4079 333.647 3.51534 329.599 4.7772C325.551 6.03907 324.763 14.9775 327.839 24.7418C330.916 34.5061 336.691 41.3987 340.74 40.1368Z" stroke="#D9D9D9" stroke-linecap="round" stroke-linejoin="round"/>
    <path d="M340.612 38.1018C343.457 37.2151 343.563 29.5154 340.85 20.9039C338.137 12.2925 333.631 6.03024 330.787 6.91685C327.943 7.80347 327.836 15.5032 330.549 24.1147C333.263 32.7261 337.768 38.9884 340.612 38.1018Z" stroke="#D9D9D9" stroke-linecap="round" stroke-linejoin="round"/>
    <path d="M388.896 1.2915L363.444 28.9921L400.339 37.3533L388.896 1.2915Z" stroke="#D9D9D9" stroke-linecap="round" stroke-linejoin="round"/>
    <path d="M382.238 32.8842L394.668 19.4899L376.435 15.2122L382.238 32.8842Z" stroke="#D9D9D9" stroke-linecap="round" stroke-linejoin="round"/>
    <path d="M395.298 19.1767L405.012 15.8987" stroke="#D9D9D9" stroke-linecap="round" stroke-linejoin="round"/>
    <path d="M375.764 14.7892L368.11 7.84448" stroke="#D9D9D9" stroke-linecap="round" stroke-linejoin="round"/>
    <path d="M381.923 33.1978L379.387 43.4644" stroke="#D9D9D9" stroke-linecap="round" stroke-linejoin="round"/>
    <path d="M400.336 37.4034L405.381 15.7293L388.997 1L367.887 7.5812L363.435 29.3462L379.229 44.5613L400.336 37.4034Z" stroke="#D9D9D9" stroke-linecap="round" stroke-linejoin="round"/>
    <path d="M141.29 296.273L132.456 319.38L157.091 315.603L141.29 296.273Z" stroke="#D9D9D9" stroke-linecap="round" stroke-linejoin="round"/>
    <path d="M144.917 317.23L149.262 306.029L137.053 307.806L144.917 317.23Z" stroke="#D9D9D9" stroke-linecap="round" stroke-linejoin="round"/>
    <path d="M149.574 305.684L154.722 301.334" stroke="#D9D9D9" stroke-linecap="round" stroke-linejoin="round"/>
    <path d="M136.539 307.709L130.159 305.299" stroke="#D9D9D9" stroke-linecap="round" stroke-linejoin="round"/>
    <path d="M144.8 317.499L145.749 324.4" stroke="#D9D9D9" stroke-linecap="round" stroke-linejoin="round"/>
    <path d="M157.101 315.631L154.908 301.143L141.281 296.073L129.957 305.192L132.534 319.599L145.919 325.108L157.101 315.631Z" stroke="#D9D9D9" stroke-linecap="round" stroke-linejoin="round"/>
    <path d="M502.061 126.168C493.731 126.911 481.824 110.386 477.879 122.179C474.574 132.057 473.254 144.946 459.68 140.966C449.151 136.197 440.161 126.005 438.309 144.84C436.818 158.344 423.374 159.967 414.265 152.521C411.341 150.725 408.238 148.397 404.618 149.679C400.796 151.007 398.209 145.489 402.441 143.59C413.106 138.804 426.528 159.366 430.797 146.987C434.235 137.018 434.887 124.222 448.984 127.995C454.072 129.556 457.727 133.953 462.932 135.109C471.436 135.83 469.123 124.203 471.855 119.057C477.942 106.29 490.381 113.394 498.986 119.004C501.938 120.903 505.634 117.544 508.029 120.496C508.158 120.646 511.781 125.3 502.058 126.168H502.061Z" stroke="#D9D9D9" stroke-linecap="round" stroke-linejoin="round"/>
    <path d="M151.905 133.251L151.984 149.08" stroke="#D9D9D9" stroke-linecap="round" stroke-linejoin="round"/>
    <path d="M157.359 133.238L157.435 149.068" stroke="#D9D9D9" stroke-linecap="round" stroke-linejoin="round"/>
    <path d="M151.905 243.573L151.984 259.397" stroke="#D9D9D9" stroke-linecap="round" stroke-linejoin="round"/>
    <path d="M157.359 243.561L157.435 259.381" stroke="#D9D9D9" stroke-linecap="round" stroke-linejoin="round"/>
    <path d="M218.528 195.22L201.851 195.311C201.851 195.311 201.029 196.264 201.048 197.894C201.057 198.696 201.268 199.658 201.879 200.755L218.556 200.664" stroke="#D9D9D9" stroke-linecap="round" stroke-linejoin="round"/>
    <path d="M207.812 145.918C195.225 145.16 192.424 148.472 192.424 148.472L185.218 159.243C185.218 159.243 185.565 160.45 186.945 161.331C187.622 161.763 188.549 162.12 189.803 162.214C189.803 162.214 194.604 153.624 197.008 151.443C198.061 150.49 199.044 150.07 208.162 150.28" stroke="#D9D9D9" stroke-linecap="round" stroke-linejoin="round"/>
    <path d="M203.729 249.584C191.132 250.17 189.639 246.823 189.639 246.823L182.581 235.958C182.581 235.958 182.947 234.758 184.333 233.893C185.017 233.47 185.946 233.125 187.203 233.047C187.203 233.047 191.888 241.702 194.261 243.912C195.301 244.88 194.387 245.31 203.505 245.225" stroke="#D9D9D9" stroke-linecap="round" stroke-linejoin="round"/>
    <path d="M107.275 249.584C119.872 250.17 121.365 246.823 121.365 246.823L128.423 235.958C128.423 235.958 127.61 235.654 126.22 234.792C125.537 234.369 125.055 233.128 123.797 233.05C123.797 233.05 119.112 241.706 116.74 243.915C115.7 244.883 116.614 245.313 107.495 245.228" stroke="#D9D9D9" stroke-linecap="round" stroke-linejoin="round"/>
    <path d="M108.418 145.153C119.26 144.144 120.94 146.82 120.94 146.82L127.44 155.577C127.44 155.577 127.106 156.592 125.893 157.369C125.297 157.751 124.49 158.074 123.41 158.19C123.41 158.19 119.541 151.177 117.54 149.434C116.664 148.669 116.462 148.353 108.617 148.798" stroke="#D9D9D9" stroke-linecap="round" stroke-linejoin="round"/>
    <path d="M95.3652 200.786L106.572 200.664" stroke="#D9D9D9" stroke-linecap="round" stroke-linejoin="round"/>
    <path d="M95.3242 195.343L106.531 195.224" stroke="#D9D9D9" stroke-linecap="round" stroke-linejoin="round"/>
    <path d="M57.3793 176.655C61.0335 176.655 63.9959 173.709 63.9959 170.074C63.9959 166.439 61.0335 163.493 57.3793 163.493C53.725 163.493 50.7627 166.439 50.7627 170.074C50.7627 173.709 53.725 176.655 57.3793 176.655Z" stroke="#D9D9D9" stroke-linecap="round" stroke-linejoin="round"/>
    <path d="M154.58 133.376C159.87 133.376 164.159 129.111 164.159 123.849C164.159 118.587 159.87 114.322 154.58 114.322C149.29 114.322 145.002 118.587 145.002 123.849C145.002 129.111 149.29 133.376 154.58 133.376Z" stroke="#D9D9D9" stroke-linecap="round" stroke-linejoin="round"/>
    <path d="M217.28 156.88C222.57 156.88 226.859 152.615 226.859 147.353C226.859 142.092 222.57 137.826 217.28 137.826C211.99 137.826 207.702 142.092 207.702 147.353C207.702 152.615 211.99 156.88 217.28 156.88Z" stroke="#D9D9D9" stroke-linecap="round" stroke-linejoin="round"/>
    <path d="M212.869 257.165C218.159 257.165 222.448 252.9 222.448 247.638C222.448 242.377 218.159 238.111 212.869 238.111C207.579 238.111 203.291 242.377 203.291 247.638C203.291 252.9 207.579 257.165 212.869 257.165Z" stroke="#D9D9D9" stroke-linecap="round" stroke-linejoin="round"/>
    <path d="M227.993 207.336C233.283 207.336 237.571 203.071 237.571 197.809C237.571 192.547 233.283 188.282 227.993 188.282C222.703 188.282 218.415 192.547 218.415 197.809C218.415 203.071 222.703 207.336 227.993 207.336Z" stroke="#D9D9D9" stroke-linecap="round" stroke-linejoin="round"/>
    <path d="M87.2959 205.804C91.8237 205.804 95.4942 202.153 95.4942 197.649C95.4942 193.146 91.8237 189.495 87.2959 189.495C82.7681 189.495 79.0977 193.146 79.0977 197.649C79.0977 202.153 82.7681 205.804 87.2959 205.804Z" stroke="#D9D9D9" stroke-linecap="round" stroke-linejoin="round"/>
    <path d="M101.481 154.68C105.634 154.68 109.002 151.331 109.002 147.2C109.002 143.068 105.634 139.719 101.481 139.719C97.3272 139.719 93.96 143.068 93.96 147.2C93.96 151.331 97.3272 154.68 101.481 154.68Z" stroke="#D9D9D9" stroke-linecap="round" stroke-linejoin="round"/>
    <path d="M99.9051 254.338C104.059 254.338 107.426 250.989 107.426 246.858C107.426 242.726 104.059 239.377 99.9051 239.377C95.7515 239.377 92.3843 242.726 92.3843 246.858C92.3843 250.989 95.7515 254.338 99.9051 254.338Z" stroke="#D9D9D9" stroke-linecap="round" stroke-linejoin="round"/>
    <path d="M154.691 275.342C159.201 275.342 162.857 271.705 162.857 267.219C162.857 262.733 159.201 259.096 154.691 259.096C150.18 259.096 146.524 262.733 146.524 267.219C146.524 271.705 150.18 275.342 154.691 275.342Z" stroke="#D9D9D9" stroke-linecap="round" stroke-linejoin="round"/>
    <path d="M23.0098 86.1033C26.3197 82.4252 27.9254 78.4843 26.5964 77.3011C25.2674 76.1179 21.5068 78.1405 18.197 81.8187C14.8872 85.4968 13.2815 89.4377 14.6105 90.6208C15.9395 91.804 19.7 89.7814 23.0098 86.1033Z" stroke="#D9D9D9" stroke-linecap="round" stroke-linejoin="round"/>
    <path d="M76.0796 122.689C77.4092 123.874 75.6132 127.732 72.3018 131.408C68.9935 135.087 65.3355 137.287 64.0059 136.106" stroke="#D9D9D9" stroke-linecap="round" stroke-linejoin="round"/>
    <path d="M26.4927 77.1226L75.9312 122.558" stroke="#D9D9D9" stroke-linecap="round" stroke-linejoin="round"/>
    <path d="M14.8633 90.9338L64.3018 136.369" stroke="#D9D9D9" stroke-linecap="round" stroke-linejoin="round"/>
    <path d="M409.423 216.164C408.607 222.567 411.061 227.387 413.169 228.471C423.128 233.589 427.665 217.832 428.378 215.061C429.027 212.535 430.791 192.666 416.38 189.605C401.968 186.543 394.428 202.927 392.216 209.991C390.005 217.054 392.806 223.799 399.734 224.463C406.663 225.127 410.667 213.679 411.905 207.562C413.144 201.444 407.362 201.369 407.362 201.369C407.362 201.369 404.961 200.858 404.107 207.173C403.253 213.488 399.536 217.847 398.77 217.456C398.004 217.064 398.329 207.098 404.58 200.664C404.58 200.664 412.044 192.265 418.125 197.646C420.406 199.664 421.632 202.081 422.205 204.544C423.163 208.649 422.316 212.889 421.534 215.644C420.942 217.728 419.335 221.749 416.43 222.67" stroke="#D9D9D9" stroke-linecap="round" stroke-linejoin="round"/>
    <path d="M419.341 198.843C419.341 198.843 415.144 201.366 411.839 207.684" stroke="#D9D9D9" stroke-linecap="round" stroke-linejoin="round"/>
    <path d="M417.167 222.354C417.167 222.354 414.168 218.612 417.923 211.379C421.679 204.143 422.202 204.544 422.202 204.544" stroke="#D9D9D9" stroke-linecap="round" stroke-linejoin="round"/>
    <path d="M425.221 195.618C425.221 195.618 430.7 192.378 437.395 196.298C444.091 200.219 448.568 211.203 446.343 219.226C444.119 227.249 439.399 234.469 432.666 233.423C432.666 233.423 424.506 230.756 426.421 220.846" stroke="#D9D9D9" stroke-linecap="round" stroke-linejoin="round"/>
    <path d="M427.848 201.786C427.848 201.786 431.761 199.674 436.144 203.375C440.527 207.073 440.401 216.657 439.203 219.9C438.003 223.144 436.015 227.91 433.904 227.306" stroke="#D9D9D9" stroke-linecap="round" stroke-linejoin="round"/>
    <path d="M428.598 213.729C428.598 213.729 431.658 207.343 436.144 203.375" stroke="#D9D9D9" stroke-linecap="round" stroke-linejoin="round"/>
    <path d="M439.446 209.79C439.446 209.79 435.646 212.858 434.367 216.299C433.088 219.74 432.161 225.701 434.915 227.202" stroke="#D9D9D9" stroke-linecap="round" stroke-linejoin="round"/>
    <path d="M442.004 200.51C442.004 200.51 448.089 196.797 455.962 202.375C463.833 207.954 463.089 220.593 461.867 225.754C460.641 230.912 456.873 239.108 449.758 237.863C442.644 236.619 443.233 226.823 443.233 226.823" stroke="#D9D9D9" stroke-linecap="round" stroke-linejoin="round"/>
    <path d="M445.051 205.835C445.051 205.835 451.148 205.293 453.606 208.969C456.063 212.642 458.225 219.715 455.379 225.644C455.379 225.644 453.316 231.01 449.645 231.536" stroke="#D9D9D9" stroke-linecap="round" stroke-linejoin="round"/>
    <path d="M455.931 214.065C455.931 214.065 452.147 217.383 450.95 220.624C449.749 223.868 447.934 228.97 450.707 231.235" stroke="#D9D9D9" stroke-linecap="round" stroke-linejoin="round"/>
    <path d="M452.484 207.994C452.484 207.994 447.459 212.586 446.907 215.425" stroke="#D9D9D9" stroke-linecap="round" stroke-linejoin="round"/>
    <path d="M459.047 204.889C459.047 204.889 467.579 201.673 474.035 208.85C480.494 216.026 479.045 223.482 479.045 223.482C479.045 223.482 478.578 228.825 475.699 228.412C472.819 227.998 472.857 225.124 472.523 221.097C472.192 217.067 470.38 213.187 467.283 211.626C464.189 210.063 461.649 211.006 461.649 211.006" stroke="#D9D9D9" stroke-linecap="round" stroke-linejoin="round"/>
    <path d="M31.1181 281.87C33.5757 285.054 36.78 286.116 38.1884 285.677C44.8428 283.603 39.915 274.662 39.0076 273.129C38.1821 271.732 30.2202 262.179 22.5008 267.1C14.7815 272.02 18.66 282.547 20.7899 286.63C22.9199 290.717 27.1261 292.478 30.4817 289.755C33.8372 287.031 30.5699 280.228 28.4242 276.987C26.2786 273.744 23.6918 276.229 23.6918 276.229C23.6918 276.229 22.4063 277.05 24.8072 280.212C27.208 283.374 27.4821 286.922 26.9717 287.081C26.4613 287.241 22.2204 282.697 22.1511 277.131C22.1511 277.131 21.7541 270.168 26.811 269.901C28.7078 269.801 30.3115 270.334 31.6506 271.174C33.8813 272.571 35.3716 274.815 36.2381 276.373C36.8934 277.551 37.9521 280.03 37.073 281.701" stroke="#D9D9D9" stroke-linecap="round" stroke-linejoin="round"/>
    <path d="M27.8793 269.895C27.8793 269.895 27.1327 272.838 28.4527 277.069" stroke="#D9D9D9" stroke-linecap="round" stroke-linejoin="round"/>
    <path d="M37.2622 281.234C37.2622 281.234 34.291 280.886 32.766 276.053C31.2442 271.221 31.6475 271.171 31.6475 271.171" stroke="#D9D9D9" stroke-linecap="round" stroke-linejoin="round"/>
    <path d="M29.0576 265.912C29.0576 265.912 30.0533 262.092 34.7384 260.913C39.4236 259.732 46.2355 262.637 48.7813 267.153C51.3271 271.669 52.4205 276.915 48.983 279.381C48.983 279.381 44.2033 281.754 40.6902 276.542" stroke="#D9D9D9" stroke-linecap="round" stroke-linejoin="round"/>
    <path d="M32.9331 267.495C32.9331 267.495 33.7334 264.859 37.3001 264.583C40.8667 264.311 45.0257 268.601 45.9237 270.556C46.8216 272.512 48.0378 275.486 46.8405 276.138" stroke="#D9D9D9" stroke-linecap="round" stroke-linejoin="round"/>
    <path d="M38.5222 272.443C38.5222 272.443 37.0635 268.287 37.2998 264.58" stroke="#D9D9D9" stroke-linecap="round" stroke-linejoin="round"/>
    <path d="M41.5815 265.981C41.5815 265.981 41.2507 268.993 42.2022 271.07C43.1538 273.148 45.3656 276.185 47.2403 275.652" stroke="#D9D9D9" stroke-linecap="round" stroke-linejoin="round"/>
    <path d="M38.6294 260.766C38.6294 260.766 39.6849 256.476 45.6178 255.514C51.5506 254.552 56.784 260.465 58.5138 263.277C60.2436 266.091 62.1813 271.353 58.4917 273.9C54.7991 276.448 50.7503 271.86 50.7503 271.86" stroke="#D9D9D9" stroke-linecap="round" stroke-linejoin="round"/>
    <path d="M42.3188 261.794C42.3188 261.794 44.7764 258.901 47.4798 259.453C50.1831 260.008 54.2507 262.192 55.6024 266.05C55.6024 266.05 57.0486 269.319 55.6591 271.149" stroke="#D9D9D9" stroke-linecap="round" stroke-linejoin="round"/>
    <path d="M50.7507 260.694C50.7507 260.694 50.5396 263.806 51.4344 265.762C52.3324 267.717 53.7754 270.763 55.9967 270.556" stroke="#D9D9D9" stroke-linecap="round" stroke-linejoin="round"/>
    <path d="M46.5566 259.513C46.5566 259.513 46.3549 263.731 47.3599 265.226" stroke="#D9D9D9" stroke-linecap="round" stroke-linejoin="round"/>
    <path d="M48.0879 255.282C48.0879 255.282 50.4447 250.145 56.4563 250.509C62.4679 250.869 65.1114 254.796 65.1114 254.796C65.1114 254.796 67.2571 257.36 65.8014 258.431C64.3458 259.503 63.0981 258.215 61.1793 256.579C59.2605 254.943 56.7525 254.016 54.695 254.674C52.6407 255.332 51.9318 256.852 51.9318 256.852" stroke="#D9D9D9" stroke-linecap="round" stroke-linejoin="round"/>
    <path d="M199.006 195.145C199.006 220.502 177.71 243.564 152.217 243.564C126.724 243.564 106.059 220.502 106.059 195.145C106.059 169.789 126.724 149.234 152.217 149.234C177.71 149.234 199.006 169.789 199.006 195.145Z" stroke="#D9D9D9" stroke-linecap="round" stroke-linejoin="round"/>
    <path d="M182.738 238.403C174.606 242.721 164.294 245.006 151.587 244.194" stroke="#D9D9D9" stroke-linecap="round" stroke-linejoin="round"/>
    <path d="M206.687 202.09C205.071 214.199 199.57 225.961 189.484 233.99" stroke="#D9D9D9" stroke-linecap="round" stroke-linejoin="round"/>
    <path d="M191.627 160.929C201.552 169.41 207.198 181.532 207.198 194.362" stroke="#D9D9D9" stroke-linecap="round" stroke-linejoin="round"/>
    <path d="M151.587 149.234C164.792 148.124 176.22 150.951 185.218 156.332" stroke="#D9D9D9" stroke-linecap="round" stroke-linejoin="round"/>
    <path d="M172.82 188.589C172.552 179.858 166.188 173.835 157.785 172.371L158.21 165.768L150.27 165.26L149.819 172.221C142.443 173.243 135.988 177.592 135.323 185.625C133.64 203.178 159.959 198.157 161.115 208.944C159.514 217.97 141.801 215.315 142.607 206.058C137.371 205.644 133.486 205.472 132.764 205.443C132.134 205.418 132.159 209.439 134.28 214.425C136.999 218.835 142.11 221.699 147.721 222.855L147.396 227.873L155.336 228.38L155.661 223.344C160.812 222.921 165.661 221.028 168.79 217.537C174.348 210.893 171.89 200.047 163.831 196.455C158.739 192.786 140.597 191.783 147.374 183.017C151.032 178.285 161.632 180.648 162.665 187.496C162.69 187.655 172.851 189.664 172.817 188.592L172.82 188.589Z" stroke="#D9D9D9" stroke-linecap="round" stroke-linejoin="round"/>
</svg>
