<svg viewBox="0 0 1606 1037" fill="none" xmlns="http://www.w3.org/2000/svg">
    <path d="M463.971 360C510.461 213.05 669.411 144.92 813.231 138.52C828.461 138.08 843.691 139.53 858.771 141.31C958.411 154.19 1059.51 193.6 1126.62 270.93C1208.7 364.44 1218.04 500.07 1191.93 617.08C1169.02 718.92 1103.36 802.88 1008.55 847.19C935.651 881.13 851.871 897.73 771.801 887.13C691.361 876.29 615.991 834.88 563.281 773.25C563.111 773.05 563.131 772.75 563.331 772.57C617.361 831.8 691.891 873.55 772.321 883.35C851.071 893.26 934.821 876 1006.23 842.39C1121.09 788.23 1185.18 681.03 1196.44 556.54C1207.01 457.28 1190.48 351.32 1122.73 274.29C1056.51 197.9 956.721 158.54 858.251 145.46C838.341 142.88 818.391 141.56 798.321 143.26C699.361 151.39 596.761 184.56 526.771 257.82C499.091 286.94 478.081 322.28 465.261 360.41C465.141 360.77 464.751 360.96 464.401 360.84C464.051 360.72 463.861 360.34 463.971 359.98V360Z" fill="white"/>
    <path d="M445.98 469.16C445.25 460.43 445.13 451.67 445.48 442.91C445.91 434.1 446.5 425.24 449.65 416.88C450.1 415.65 451.99 415.93 452.05 417.24C452.61 425.87 451.6 434.61 451.14 443.19C450.67 450.85 450.18 461.62 449.41 469.17C449.19 471.22 446.16 471.21 445.98 469.15V469.16Z" fill="white"/>
    <path d="M1103.41 259.71C970.3 328.42 741.91 329.76 600.73 283.45L596.44 282.06L592.2 280.54L583.72 277.5C582.3 277.01 580.9 276.45 579.51 275.89C566.9 271.06 554.55 265.41 542.61 259.13C542.24 258.94 542.09 258.48 542.29 258.11C542.48 257.75 542.92 257.6 543.29 257.78C647.21 306.56 781.07 314.66 894.49 306.81C965.59 301 1037.6 288.71 1102.5 257.93C1103 257.67 1103.62 257.88 1103.87 258.39C1104.11 258.88 1103.91 259.48 1103.42 259.73L1103.41 259.71Z" fill="white"/>
    <path d="M623.431 722.95C762.151 693.58 959.231 694.62 1095.42 734.99C1100.04 736.3 1106.02 738.39 1110.54 739.85C1115.44 741.47 1120.67 743.62 1125.44 745.34C1125.83 745.49 1126.03 745.92 1125.88 746.31C1125.73 746.7 1125.3 746.9 1124.91 746.75C1064.98 726.36 1001.79 717.78 938.931 712.44C875.911 707.48 812.541 707.02 749.431 710.61C707.341 713.09 665.371 717.64 623.821 724.92C623.271 725.02 622.741 724.65 622.651 724.1C622.561 723.56 622.911 723.05 623.441 722.94L623.431 722.95Z" fill="white"/>
    <path d="M1191.53 521.44C1006.61 525.29 817.911 525.59 632.961 522.36L614.941 522C614.351 521.99 613.891 521.5 613.901 520.92C613.911 520.34 614.381 519.89 614.951 519.88L632.97 519.65C805.76 518.42 982.701 518.68 1155.49 520C1164.31 520.08 1182.67 520.3 1191.53 520.45C1191.8 520.45 1192.02 520.68 1192.02 520.95C1192.02 521.22 1191.8 521.43 1191.54 521.44H1191.53Z" fill="white"/>
    <path d="M823.5 143.62C826.33 381.89 826.51 626.87 824.26 865.17L823.96 888.45C823.96 889.01 823.49 889.46 822.94 889.45C822.39 889.45 821.95 889 821.94 888.45L821.64 865.17C819.47 642.68 819.68 412.67 821.83 190.17C821.93 178.79 822.22 155.06 822.39 143.62C822.39 143.32 822.64 143.07 822.95 143.08C823.25 143.08 823.49 143.33 823.49 143.62H823.5Z" fill="white"/>
    <path d="M822.951 140.17C847.01 139.78 870.411 148.46 890.041 162.05C917.681 181.18 938.76 208.35 955.45 237.21C1048.46 396.41 1045.97 710.12 912.431 846.37C898.631 859.65 882.81 871.15 865.01 878.41C851.74 883.94 837.32 886.79 822.94 886.66C822.55 886.66 822.23 886.34 822.23 885.95C822.23 885.56 822.55 885.24 822.94 885.24C861.38 884.92 895.4 861.93 919.7 833.62C1038.5 692.71 1040.52 396.21 952.26 239.02C933.76 206.36 909.76 175.25 876.91 156.14C860.57 146.74 841.961 140.95 822.951 140.73C822.791 140.73 822.67 140.6 822.67 140.45C822.67 140.3 822.801 140.17 822.951 140.17V140.17Z" fill="white"/>
    <path d="M629 454.36C634.87 372.26 654.68 288.83 699.55 218.92C717.84 191.33 741.07 165.61 771.14 150.74C786.16 143.48 802.8 139.25 819.44 139.74C819.83 139.75 820.14 140.08 820.13 140.47C820.12 140.85 819.81 141.15 819.44 141.16C803.09 141.61 787.07 146.13 772.7 153.81C691.63 198.74 653.37 319.41 637.94 405.72C635.02 421.9 632.78 438.2 630.89 454.54C630.83 455.06 630.36 455.44 629.84 455.38C629.34 455.32 628.97 454.88 629 454.38V454.36Z" fill="white"/>
    <path d="M625.871 513.2C624.251 503.13 623.901 492.84 624.871 482.69C625.311 479.46 629.991 479.57 630.281 482.8C630.671 487.9 630.441 492.97 630.101 498.06C629.681 503.16 629.151 508.22 628.021 513.24C627.781 514.38 626.071 514.34 625.881 513.2H625.871Z" fill="white"/>
    <path d="M671.731 753.82C665.401 743.16 660.551 731.74 656.311 720.12C652.221 708.46 648.731 696.56 646.731 684.34C646.441 682.47 649.131 681.72 649.821 683.52C655.731 699.44 661.991 719.53 667.371 735.72C669.271 741.54 671.171 747.37 672.891 753.32C673.101 754 672.101 754.48 671.731 753.83V753.82Z" fill="white"/>
    <path d="M819.45 886.45C791.68 888.35 764.18 876.7 743.03 859.15C734.31 851.98 726.11 843.76 719 834.99C710.76 824.98 703.49 814.24 697.23 802.97C696.89 802.36 697.11 801.59 697.72 801.25C698.29 800.93 699 801.1 699.37 801.63C706.84 812.01 714.55 822.13 722.95 831.62C731.28 841.04 740.36 850.02 750.33 857.69C757.07 863.01 764.4 867.82 772 871.84C773.42 872.54 776.89 874.27 778.33 874.99L782.67 876.81C794.29 881.61 806.7 884.53 819.46 885.45C819.74 885.47 819.95 885.71 819.93 885.98C819.91 886.23 819.71 886.43 819.46 886.45H819.45Z" fill="white"/>
    <path d="M1176.84 773.04C1144.47 812.52 1107.24 848.12 1065.67 877.82C1024.04 907.06 975.94 930.59 924.2 932.33C923.24 932.37 922.46 931.5 922.6 930.55C923.06 927.35 923.92 924.44 925.1 921.57C927.75 915.19 931.97 909.36 937.56 905.23C937.86 904.99 938.75 904.34 938.89 904.2C938.87 904.24 938.87 904.23 938.82 904.41C938.81 904.49 938.82 904.54 938.82 904.64C938.82 904.88 939.06 905.16 939.22 905.25C939.24 905.27 939.32 905.29 939.3 905.29C939.2 905.28 939.07 905.27 938.9 905.29C937.87 905.35 936.79 905.58 935.76 905.79C912.69 911.53 890.21 919.79 867.83 927.8C856.66 931.93 845.51 936.17 834.63 940.93C830.06 943.06 825.21 944.95 821.22 948C821.01 948.18 820.81 948.42 820.82 948.43C820.79 948.47 820.93 948.28 820.84 947.95C820.84 947.91 820.82 947.87 820.8 947.83C820.78 947.78 820.76 947.76 820.78 947.79C823.5 952.72 829.11 955.97 833.96 958.83C844.29 964.57 855.41 968.92 866.53 972.95C888.23 980.51 910.36 987.31 932.93 991.75C933.63 991.86 934.39 991.96 934.93 991.98L933.6 994.02L922.94 969.6C922.54 968.71 923.25 967.66 924.22 967.7C1004.33 968.49 1087.63 944.66 1150.44 893.96C1165.7 881.26 1179.93 867.2 1192.32 851.66C1198.69 843.43 1204.81 834.82 1210.38 826.02L1211.24 824.71L1211.35 824.55C1211.35 824.55 1211.38 824.5 1211.36 824.53L1211.34 824.57C1211.18 824.86 1211.2 825.23 1211.38 825.5L1210.98 824.92C1199.23 807.92 1188.41 790.02 1176.82 773.03L1176.84 773.04ZM1174.46 771.14C1175.09 770.31 1176.21 769.85 1177.25 769.99C1177.77 770.05 1178.28 770.25 1178.7 770.57C1179.13 770.86 1179.49 771.4 1179.57 771.53L1181.39 774.13C1185.02 779.33 1188.76 784.45 1192.51 789.56C1199.99 799.8 1207.56 809.98 1214.75 820.42L1215.66 821.72L1216.16 822.45C1217.06 823.84 1217.15 825.69 1216.38 827.16C1201.27 851.3 1182.7 873.3 1161.09 891.86C1102.73 942.06 1025.6 966.2 949.62 970.22C941.13 970.62 932.68 970.76 924.12 970.41L925.43 968.52C925.43 968.52 936.27 992.86 936.29 992.89C936.74 993.81 935.96 994.95 934.95 994.9C933.2 994.85 931.88 994.51 930.25 994.24C919.96 992.18 909.84 989.44 899.75 986.61C880.88 981.03 827.51 965.52 818.36 949.47L818.21 949.19L818.14 949.05C818.14 949.05 818.11 948.98 818.07 948.89C818.04 948.81 818.01 948.72 817.99 948.63C817.83 947.94 818.06 947.36 818.22 947.08C819.05 945.78 820.13 945.12 821.28 944.38C825.19 942.01 829.37 940.2 833.52 938.38C861.12 926.85 889.46 917.4 918 908.55C924.46 906.66 930.92 904.58 937.61 903.4C938.56 903.31 939.98 902.95 940.66 903.93C941.25 904.86 940.32 905.74 939.64 906.2C936.38 908.49 933.57 911.39 931.51 914.8C928.51 919.62 926.62 925.36 925.8 930.91L924.16 929.14C949.39 928.21 974.33 922.12 997.67 912.34C1067.91 882.52 1126.27 829.42 1174.47 771.15L1174.46 771.14Z" fill="white"/>
    <path d="M405.85 353.99C423.23 296.09 451.53 239.5 496.59 198.16C511.62 184.47 528.57 172.79 546.98 164.06C547.97 163.58 549.16 164 549.63 165C550.41 170.46 550.17 175.97 550.35 181.41C550.37 184.21 550.3 187.01 550.14 189.8C550.12 189.88 550.21 189.78 549.96 189.42C549.86 189.28 549.69 189.17 549.52 189.13C549.3 189.08 549.32 189.14 549.52 189.06C551.09 188.41 552.66 187.16 554.09 186.1C570.22 173.05 584.92 158.18 599.36 143.3C606.53 135.77 613.64 128.15 620.18 120.12C622.27 117.38 624.63 114.76 625.92 111.61C626 111.42 625.94 111.16 626.01 111.44L626.08 111.54C626.08 111.54 626.2 111.64 626.13 111.6C625.26 110.9 624.32 110.35 623.28 109.92C618.63 108.03 613.38 107.56 608.35 107.22C587.66 106.34 566.84 108.98 546.36 111.93C536.25 113.63 525.93 115.03 516.1 117.92L516.53 115.52C517.62 115.95 518.28 116.81 519.08 117.53L521.4 119.77C523.74 122.01 528.35 126.53 530.64 128.8L535.19 133.38C536.06 134.2 535.75 135.72 534.64 136.13C520.86 141.6 507.48 148.52 494.64 155.98C430.52 193.24 375.69 251.99 356.53 324.94C353.82 334.96 351.77 345.16 350.3 355.43C350.11 355.24 350.7 356.09 349.9 354.6C349.61 354.44 349.7 354.51 349.66 354.48C349.87 354.52 350.13 354.52 350.38 354.54C368.82 355.05 387.81 353.78 406.23 352.68L406.82 352.7H407C407 352.7 407 352.7 406.92 352.73C406.92 352.73 406.77 352.79 406.7 352.84C406.55 352.96 406.19 353.06 405.82 353.96L405.85 353.99ZM409.87 355.25C409.47 356.21 409.07 356.34 408.87 356.5C408.59 356.67 408.32 356.75 408.08 356.82L407.58 356.96L406.78 357.18C406.28 357.32 405.79 357.39 405.3 357.41C393.2 357.96 375.2 357.11 362.98 356.88C359.39 356.73 353.92 356.73 350.28 356.49C349.97 356.45 349.6 356.46 349.25 356.37C349.15 356.33 349.18 356.39 348.84 356.2C347.99 354.67 348.63 355.45 348.43 355.2L348.48 354.85C348.98 352.06 349.27 349.23 349.82 346.5C364.91 256.03 433.03 183.05 512.88 142.51C519.61 139.1 526.37 135.87 533.46 133.05C533.46 133.05 532.89 135.82 532.88 135.81C530.53 133.63 525.81 129.15 523.51 126.91L518.88 122.4L516.57 120.14C515.82 119.36 514.94 118.73 514.48 117.65L514.06 116.67C513.78 116.05 514.23 115.3 514.91 115.25C516.35 114.67 517.51 114.48 518.92 114.11C522.76 113.23 526.62 112.51 530.49 111.82C556.26 107.61 582.28 103.83 608.48 104.92C614.89 105.5 621.93 105.82 627.36 109.76L627.57 109.93C627.66 110.01 627.92 110.29 627.99 110.47C628.2 110.91 628.18 111.24 628.16 111.52C628.01 112.86 627.23 114.01 626.58 115.11C625.13 117.39 623.51 119.45 621.86 121.5C608.49 137.61 593.69 152.31 578.81 166.98C575.07 170.61 571.29 174.21 567.44 177.75C563.58 181.28 559.7 184.77 555.55 188.03C553.85 189.29 552.35 190.57 550.29 191.4C548.81 192 547.5 191.07 547.64 189.67L547.66 189.19C548.03 181.51 547.42 173.65 545.84 166.17L548.66 167.67C475.19 203.04 432.42 279.83 409.84 355.27L409.87 355.25Z" fill="white"/>
    <path d="M1435.93 166.17C1447.63 183.3 1470.38 223.21 1462.35 243.71C1453.21 261.49 1427.13 240.6 1417.82 232.13C1401.33 217.02 1387.86 198.86 1377.1 179.3C1369.09 164.05 1359.57 143.27 1361.32 125.71C1362.51 115.73 1369.66 110.79 1379.43 113.55C1401.35 120.3 1423.27 147.71 1435.93 166.18V166.17ZM1433.74 167.66C1421.1 149.74 1399.87 123.64 1378.5 117.23C1356.53 112.23 1367.78 146.8 1372.28 157.18C1380.68 177.25 1392.54 195.89 1406.2 212.79C1415.34 223.9 1425.46 234.73 1437.69 242.37C1454.7 252.66 1463.55 246.58 1460.55 226.99C1456.82 205.43 1445.73 185.75 1433.73 167.67L1433.74 167.66Z" fill="white"/>
    <path d="M1364.83 123.87C1364.9 123.75 1251.54 295.43 1252.82 293.1C1252.8 293.39 1252.79 293.9 1252.82 294.3C1253.11 299.87 1260.56 297.76 1264.32 296.89L1270.66 295.33C1325.53 281.78 1393.17 265.22 1448.24 252.11C1448.71 252 1449.18 252.29 1449.29 252.76C1449.4 253.22 1449.12 253.69 1448.66 253.81C1393.93 268.43 1326.63 285.97 1271.88 300.11C1267.97 300.99 1262.69 302.86 1258.62 302.91C1254.42 303.27 1249.29 301.01 1248.86 296.26C1248.68 294.66 1248.76 293.12 1249.46 291.62C1249.46 291.62 1362.07 122.05 1362.06 122.04C1362.57 121.28 1363.6 121.07 1364.36 121.57C1365.12 122.07 1365.34 123.11 1364.83 123.87V123.87Z" fill="white"/>
    <path d="M263.14 973.32C254.24 965.09 241.47 952.07 239.4 939.81C238.56 934.33 242.04 930.46 247.59 930.66C253.83 930.85 259.53 933.64 264.85 936.48C271.78 940.38 278.08 945.22 283.93 950.56C289.71 955.97 295.02 961.87 299.42 968.47C304.08 975.1 313.35 993.26 298.66 993.49C286.42 992.56 272.14 981.27 263.13 973.32H263.14ZM264.18 972.18C272.7 979.85 282.23 987.05 293.23 990.53C302.95 993.43 306.76 989.47 302.62 980.02C299.51 973.13 294.56 967.09 289.42 961.55C281.59 953.22 272.75 945.68 262.93 939.81C258.15 936.91 241.49 928.35 242.32 939.51C244.16 951.38 255.62 964.07 264.17 972.19L264.18 972.18Z" fill="white"/>
    <path d="M304.201 986.08C316.961 953.16 330.001 920.28 341.251 886.8C341.491 885.92 342.361 884.18 341.511 883.43C340.441 882.84 338.961 883.39 337.701 883.85C336.001 884.51 333.381 886.03 331.671 886.87C323.961 890.86 303.181 901.62 295.211 905.75L246.591 930.92C246.161 931.14 245.631 930.97 245.411 930.55C245.191 930.12 245.351 929.59 245.781 929.37L294.291 904.01C302.341 899.8 322.891 889.05 330.671 884.99C333.861 883.51 336.881 881.15 340.561 880.85C343.401 880.65 344.951 883.33 344.191 885.9L343.661 887.58C338.441 903.86 332.481 920.01 326.601 936.05C320.271 953.18 313.831 970.25 307.291 987.3C306.491 989.27 303.431 988.23 304.191 986.09L304.201 986.08Z" fill="white"/>
    <path d="M11.4406 621.25C18.6406 603.62 32.3006 577.4 49.4606 568.1C56.8806 564.28 63.6905 566.94 66.2805 574.97C69.1705 584.16 67.9605 593.95 66.5105 603.2C63.2105 621.58 56.8306 639.3 48.6006 656.03C42.9706 667.21 36.6306 678.13 27.6406 687.06C13.7306 700.71 1.68055 695.89 0.370548 676.49C-0.699453 657.43 4.68055 638.83 11.4406 621.25V621.25ZM16.3106 623.18C9.92055 639.69 1.23056 667.54 6.32056 684.7C12.6006 702.13 31.9606 678.42 37.2206 670.81C47.8206 655.72 55.4406 638.57 60.5506 620.88C63.7806 609.14 66.1606 596.8 65.3206 584.63C64.0706 568.37 55.9406 564.89 44.0206 576.44C31.2806 589.4 23.0706 606.47 16.3006 623.18H16.3106Z" fill="white"/>
    <path d="M14.0106 691.34C66.3106 692.94 118.701 694.61 171.021 692.96C174.751 692.82 178.481 692.62 182.201 692.37C185.721 691.94 190.451 692.45 191.411 689.93C191.851 688.55 190.921 686.95 190.061 685.76C189.031 684.36 187.741 683.07 186.381 681.85L177.981 674.42C167.331 665 138.551 639.54 127.531 629.8L60.2606 570.3C59.5206 569.64 59.4506 568.51 60.1006 567.77C60.7606 567.02 61.9006 566.96 62.6406 567.63C93.5506 595.49 149.191 645.31 179.551 672.65L187.911 680.16C191.351 683.12 197.151 689.93 191.071 693.27C188.331 694.55 185.281 694.25 182.371 694.64C178.631 694.94 174.881 695.18 171.131 695.37C148.681 696.48 126.191 696.63 103.721 696.67C73.7706 696.67 43.8306 696.27 13.8706 695.58C11.1806 695.46 11.0706 691.37 14.0006 691.35L14.0106 691.34Z" fill="white"/>
    <path d="M1213.08 210.58C1205.69 217.87 1197.24 224.27 1187.41 227.94C1176.95 231.88 1171.38 226.64 1175.75 216.1C1179.72 206.5 1186.4 198.39 1193.57 191.07C1200.93 183.97 1209.1 177.39 1218.69 173.49C1224.56 170.98 1232.15 171.12 1231.42 179.51C1229.87 190.67 1220.76 202.65 1213.08 210.58V210.58ZM1209.07 206.57C1215.86 199.66 1222.91 192.42 1227.1 183.61C1230.58 175.69 1227.72 172.79 1219.66 175.98C1213.64 178.48 1208.26 182.54 1203.3 186.78C1195.84 193.26 1188.94 200.54 1183.36 208.71C1180.95 212.07 1172.42 226.97 1181.67 225.69C1186.29 224.9 1190.43 222.14 1194.29 219.44C1199.58 215.62 1204.42 211.15 1209.07 206.57V206.57Z" fill="white"/>
    <path d="M74.9903 313.1C69.1803 318.81 62.4703 324 54.5903 326.53C47.0003 328.97 42.8103 324.88 45.4003 317.25C48.0603 309.46 53.3803 302.95 59.0203 297.14C64.8603 291.54 71.3903 286.26 79.1703 283.64C83.5703 282.09 88.9903 282.69 88.9503 288.5C88.3803 297.56 81.0703 306.77 74.9803 313.1H74.9903ZM73.2003 311.31C78.6603 305.72 84.0903 299.61 86.8503 292.21C89.1403 285.69 86.1203 282.67 79.5403 284.81C72.0503 287.43 65.7403 292.73 60.1503 298.26C56.4003 302.01 52.9703 306.12 50.2003 310.61C47.8303 314.38 42.2803 325.43 50.3703 325.55C58.8403 324.71 67.1903 317 73.1903 311.31H73.2003Z" fill="white"/>
    <path d="M206.41 403.47C208.7 405.72 208.04 409.36 207.15 412.05C204.35 419.86 198.69 426.12 193.01 431.91C187.28 437.65 181.03 443.38 173.18 446.13C170.48 447.01 166.79 447.65 164.58 445.31C164.27 444.96 164.29 444.43 164.64 444.11C164.97 443.81 165.46 443.82 165.78 444.11C167.6 445.55 170.35 444.74 172.42 443.97C184.28 438.65 194.42 429.01 201.53 418.21C203.55 414.92 207.84 408.24 205.2 404.69C204.44 403.91 205.62 402.73 206.41 403.48V403.47Z" fill="white"/>
    <path d="M598.87 929.58C591.28 922.68 584.33 914.72 580.08 905.25C575.65 895.37 580.27 889.92 590.68 893.55C600.42 896.96 608.79 903.23 616.48 909.9C623.95 916.81 630.99 924.52 635.41 933.82C638.14 939.23 638.52 946.67 630.43 946.34C619.26 945.3 607.15 936.77 598.87 929.58V929.58ZM601.68 926.45C609.02 932.89 616.8 939.43 625.96 943.05C634.39 946.13 637.35 942.81 633.61 934.65C630.78 928.72 626.43 923.53 621.92 918.76C615.03 911.62 607.35 905.05 598.82 899.99C592.14 895.79 575.59 889.23 582.68 904.08C587.23 912.78 594.52 919.84 601.69 926.46L601.68 926.45Z" fill="white"/>
    <path d="M1554.81 277.75C1545.24 281.42 1535.15 284.28 1524.78 283.93C1514.01 283.56 1511.23 276.97 1519.14 269.39C1526.62 262.35 1535.99 257.78 1545.4 254C1554.87 250.39 1564.83 247.41 1575.07 247.45C1585.74 247.6 1588.25 253.98 1580.76 261.56C1573.5 268.93 1564.24 273.83 1554.79 277.76L1554.81 277.75ZM1553.54 274.54C1562.63 270.88 1571.9 266.63 1579.19 259.98C1591.13 248.17 1573.31 248.32 1565.16 249.92C1552.12 252.36 1539.42 257.45 1528.3 264.67C1524.39 267.2 1510.61 277.71 1520.24 280.65C1524.88 281.86 1529.87 281.09 1534.59 280.24C1541.06 278.97 1547.4 276.95 1553.54 274.53V274.54Z" fill="white"/>
    <path d="M1028.19 77.6599C1023.26 61.1699 1020.08 43.2699 1024.28 26.2199C1028.29 11.0099 1039.77 7.31988 1051.67 17.7999C1064.55 29.5499 1071.86 46.0599 1077.15 62.3099C1082.01 78.6799 1085.33 96.3899 1081.45 113.35C1079.25 122.72 1072.41 130.78 1062.04 126.58C1045.05 118.98 1033.67 94.5199 1028.19 77.6499V77.6599ZM1031.48 76.6299C1036.51 92.2199 1043.72 108.99 1055.93 120.25C1066.58 129.7 1076.2 126.74 1079.77 112.92C1083.76 96.3799 1080.37 78.8799 1075.58 62.8099C1070.28 46.9199 1063 30.6799 1050.3 19.4199C1039.65 10.3099 1030.23 13.1799 1026.9 26.9199C1025.55 32.2699 1025.26 37.9199 1025.44 43.5099C1025.85 54.7499 1028.15 65.8999 1031.48 76.6299V76.6299Z" fill="white"/>
    <path d="M1036.8 75.6699C1032.58 61.6499 1029.52 46.9199 1031.31 32.2199C1033.21 17.4899 1042.39 14.4199 1052.3 25.7599C1061.83 36.9599 1067.48 50.8399 1071.93 64.6599C1076.09 78.5599 1079.28 93.1799 1077.83 107.78C1076.16 122.43 1067.2 125.26 1057.26 114.34C1047.39 103.34 1041.4 89.5399 1036.81 75.6699H1036.8ZM1040.09 74.6399C1044.44 88.1199 1049.76 101.87 1058.9 112.84C1067.58 122.74 1074.38 120.68 1076.1 107.56C1077.72 93.2699 1074.46 78.8099 1070.35 65.1499C1065.86 51.6199 1060.2 37.9499 1050.72 27.1799C1042.01 17.6699 1035.44 19.5499 1033.94 32.5599C1032.65 46.7499 1036.03 61.0899 1040.09 74.6299V74.6399Z" fill="white"/>
    <path d="M1223.4 3.35989C1203.6 25.3999 1163.54 69.5499 1143.57 91.4299L1143.06 89.8099L1260.13 116.62L1259.13 117.7C1250.09 89.2399 1232.2 31.8799 1223.4 3.35989V3.35989ZM1223.84 1.37988C1233.14 30.2199 1251.68 88.2899 1260.75 117.19C1260.89 117.64 1260.64 118.12 1260.2 118.26C1259.95 118.63 1142.95 91.6199 1142.62 91.7299C1142.09 91.6099 1141.76 91.0799 1141.88 90.5599C1162.03 67.9899 1203.31 23.6799 1223.84 1.38988V1.37988Z" fill="white"/>
    <path d="M1202.74 102.06C1215.54 87.8199 1228.24 73.8699 1241.33 59.8899L1241.75 61.2599C1239.63 61.0299 1236.58 60.2099 1234.47 59.7399C1221.39 56.6999 1197.1 51.0399 1183.8 47.9099L1185.14 46.4499C1190.41 62.4899 1197.68 85.7099 1202.73 102.07L1202.74 102.06ZM1202.25 104.32C1196.53 87.4499 1188.33 63.8499 1182.99 47.1499C1182.7 46.3299 1183.5 45.4699 1184.33 45.6899C1199.42 49.2799 1223.7 55.0399 1238.56 58.6199C1239.8 58.9199 1241.04 59.2299 1242.24 59.6899C1242.78 59.8799 1242.95 60.6099 1242.56 61.0199C1229.35 75.5399 1215.76 90.0799 1202.26 104.33L1202.25 104.32Z" fill="white"/>
    <path d="M1243.81 59.05L1274.39 47.87C1275 47.65 1275.68 47.96 1275.9 48.57C1276.12 49.18 1275.81 49.86 1275.2 50.08C1275.2 50.08 1244.09 59.84 1244.08 59.84C1243.58 60 1243.3 59.24 1243.81 59.05V59.05Z" fill="white"/>
    <path d="M1181.64 45.7897L1156.82 24.1997C1156.3 23.7497 1156.25 22.9697 1156.7 22.4497C1157.16 21.9197 1157.98 21.8797 1158.49 22.3697L1182.25 45.1197C1182.67 45.5097 1182.07 46.1897 1181.63 45.7897H1181.64Z" fill="white"/>
    <path d="M1201.91 104.29L1194.94 137.32C1194.76 138.15 1193.95 138.69 1193.11 138.51C1192.24 138.33 1191.7 137.44 1191.94 136.59L1201.08 104.1C1201.22 103.6 1202.01 103.77 1201.9 104.3L1201.91 104.29Z" fill="white"/>
    <path d="M1259.01 116.76C1264.28 93.9299 1269.62 71.1099 1275.02 48.2299L1274.68 49.8499L1223.16 2.31991L1224.3 2.56991L1157.17 23.1399L1157.66 22.5899L1144.88 92.3099L1144.28 90.3799L1193.63 139.74L1192.63 139.52C1214.78 131.87 1236.88 124.29 1259.01 116.76C1259.01 116.76 1236.88 124.28 1259.01 116.76V116.76ZM1260.86 118.44C1238.33 126.15 1215.77 133.8 1193.26 141.38C1192.9 141.5 1192.52 141.4 1192.26 141.16C1192.26 141.16 1141.35 93.4099 1141.34 93.4099C1140.8 92.8999 1140.6 92.1599 1140.75 91.4799L1156.23 22.3099C1156.29 22.0499 1156.48 21.8399 1156.72 21.7599L1223.59 0.329911C1224 0.199911 1224.43 0.309911 1224.73 0.579911L1277.21 47.0499C1271.9 70.8099 1266.36 94.6399 1260.86 118.44V118.44Z" fill="white"/>
    <path d="M437.871 944.29C428.721 968.85 419.631 993.2 410.321 1017.59L409.621 1016.72L487.831 1004.76L487.481 1005.67C470.821 985.27 454.391 964.87 437.871 944.3C437.871 944.3 454.391 964.87 437.871 944.3V944.29ZM437.661 942.97C454.571 963.51 471.581 984.23 488.351 1004.95C488.621 1005.27 488.421 1005.8 488.001 1005.86L409.821 1017.99C409.351 1018.08 408.931 1017.57 409.121 1017.12C418.511 992.36 428.121 967.56 437.661 942.97V942.97Z" fill="white"/>
    <path d="M449.151 1009.76C453.531 997.93 457.931 986.31 462.561 974.57L463.151 975.31C461.561 975.73 459.931 975.88 458.321 976.14C449.571 977.45 433.321 979.87 424.421 981.18L424.891 979.96C433.091 989.8 441.041 999.68 449.151 1009.76V1009.76ZM449.401 1011.26C440.871 1001.29 432.181 991.12 423.741 980.91C423.361 980.48 423.641 979.76 424.211 979.69C433.191 978.4 449.311 976.05 458.131 974.81C459.771 974.6 461.391 974.27 463.051 974.23C463.351 974.23 463.601 974.46 463.611 974.76C459.141 986.94 454.191 999.19 449.391 1011.27L449.401 1011.26Z" fill="white"/>
    <path d="M463.872 973.46L479.892 959.2C480.212 958.92 480.702 958.94 480.982 959.26C481.272 959.59 481.232 960.1 480.892 960.38L464.222 973.88C463.962 974.1 463.592 973.69 463.862 973.46H463.872Z" fill="white"/>
    <path d="M422.581 980.41L402.141 973.2C401.711 973.05 401.491 972.58 401.641 972.16C401.791 971.72 402.291 971.5 402.721 971.68L422.791 979.85C423.141 979.99 422.941 980.55 422.581 980.41Z" fill="white"/>
    <path d="M449.181 1011.32L452.921 1033.24C453.011 1033.79 452.641 1034.32 452.091 1034.41C451.511 1034.51 450.971 1034.09 450.911 1033.51L448.631 1011.39C448.591 1011.05 449.131 1010.97 449.181 1011.31V1011.32Z" fill="white"/>
    <path d="M487.171 1005.12L480.361 959.26L480.541 960.33L437.461 943.71L438.221 943.59L402.091 972.47L402.261 972.02L411.341 1017.82L410.511 1016.78L452.701 1035.05L452.041 1035.15L487.181 1005.12H487.171ZM488.711 1005.7L452.871 1036.14C452.681 1036.3 452.421 1036.33 452.201 1036.24L409.441 1019.34C408.981 1019.16 408.681 1018.75 408.611 1018.3L401.321 972.18C401.291 972 401.361 971.83 401.491 971.73L437.251 942.39C437.471 942.21 437.761 942.17 438.011 942.27L481.421 958.01C481.421 958.01 481.441 958.03 481.451 958.04L481.611 959.08L488.721 1005.7H488.711Z" fill="white"/>
    <path d="M1582.86 401.55C1563.53 402.96 1542.9 381.12 1524.42 376.93C1513.61 374.4 1509.58 383.26 1507.03 392.04C1500.26 412.13 1495.53 444.36 1471.71 450.88C1463.79 452.96 1455.56 451.61 1447.9 449.37C1440.21 445.87 1433 441.54 1425.79 437.37C1422.21 435.3 1418.63 433.25 1414.97 431.42C1409.59 428.82 1403.89 426.2 1397.88 426.8C1384.23 428.91 1382.79 451.46 1381.2 462.45C1375.48 504.11 1332.54 509.25 1303.73 485.45C1295.59 480.47 1285.28 473.37 1275 476.79L1273.89 477.14C1273.45 477.27 1273.02 477.42 1272.57 477.52C1262.69 480.05 1254.6 468.03 1260.72 459.8C1262.82 456.85 1266.15 455.32 1269.39 454.08C1275.86 451.41 1283.2 452.05 1289.72 454.12C1299.35 457.03 1308.11 462.28 1316.64 467.29C1324.86 471.82 1333.27 478 1342.71 478.45C1353.14 478.31 1355.29 465.99 1358 458.02C1359.91 451.75 1361.66 445.41 1363.69 439.11C1369.91 419.43 1379.33 401.83 1402.93 403.77C1405.26 403.98 1408.06 404.4 1410.36 404.86C1421.92 407.04 1431.49 414.52 1441.2 420.53C1446.47 423.87 1453.16 427.07 1458.7 428.26C1465.89 428.91 1472.12 426.1 1475.25 419.4C1480.38 408.58 1479.8 396.47 1483 384.71C1483.84 381.23 1485.55 377.64 1487.27 374.48C1490.23 369.09 1494.02 364.07 1499.03 360.33C1515.87 347.85 1538.14 356.54 1554.45 365.5C1558.68 367.82 1562.8 370.31 1566.86 372.88C1570.86 375.13 1574.37 378.83 1579.16 379.03C1586.17 379.56 1594.33 375.32 1600.53 380.43C1604.51 383.64 1606.85 390 1603.49 394.45C1598.53 400.66 1589.94 400.71 1582.86 401.56V401.55ZM1582.73 400.13C1587.47 399.75 1592.14 398.51 1596.36 396.79C1598.41 395.96 1600.37 394.82 1601.77 393.14C1604.49 389.96 1603.02 384.88 1600.18 382.17C1598.4 380.37 1595.94 379.48 1593.37 379.46C1586.68 379.46 1578.17 383.07 1571.91 378.33C1555.05 367.76 1533.77 354.05 1513.15 357.08C1502.62 358.74 1494.47 366.6 1489.69 375.81C1483.03 387.37 1484.06 400.84 1480.28 413.68C1478.91 418.46 1476.82 423.3 1472.92 426.65C1469 430.1 1463.51 430.96 1458.51 430.5C1451.9 428.98 1445.85 425.76 1440.21 422.14C1429.94 415.57 1420.02 407.69 1407.63 406.13C1400.61 404.96 1392.93 405.06 1386.48 408.34C1369.6 417.08 1366 442.11 1360.81 458.85C1358.76 465.32 1357.54 472.2 1352.71 477.45C1344.61 486.08 1331.95 479.94 1323.41 475.39C1309.29 468.03 1295.6 457.4 1279.41 456.01C1274.81 455.67 1269.87 455.82 1265.75 458.1C1261.67 460.15 1259.6 465.16 1261.47 469.4C1263.05 473.57 1267.63 476.09 1271.98 474.96C1273.14 474.65 1274.49 474.23 1275.55 473.98C1282.8 472.35 1290.12 475.36 1296.15 479.12C1299.02 480.85 1301.79 482.68 1304.58 484.46C1317.1 494.74 1334.15 500.87 1350.27 497.24C1367.11 493.71 1377.39 478.67 1379.2 462.19C1381.85 438.32 1386.38 413.87 1416.06 429.27C1426.89 434.69 1438.36 442.15 1448.68 446.79C1464.6 451.38 1478.57 449.33 1487.53 434.18C1495.31 420.95 1498.21 405.38 1502.95 390.77C1504.1 387.1 1505.35 383.05 1507.81 379.53C1516.45 366.68 1531.41 374.46 1541.57 380.82C1553.76 387.96 1568.22 400.65 1582.74 400.16L1582.73 400.13Z" fill="white"/>
    <path d="M472.881 423.44L472.691 473.95C472.671 475.2 470.771 475.25 470.731 473.95L470.051 423.44C470.051 421.58 472.861 421.54 472.881 423.43V423.44Z" fill="white"/>
    <path d="M490.182 423.4L490.002 473.91C489.982 475.18 488.062 475.23 488.022 473.91L487.352 423.4C487.352 421.54 490.162 421.5 490.182 423.39V423.4Z" fill="white"/>
    <path d="M472.881 775.47L472.691 825.96C472.671 827.21 470.771 827.26 470.731 825.96L470.051 775.48C470.051 773.62 472.861 773.58 472.881 775.47Z" fill="white"/>
    <path d="M490.182 775.43L490.002 825.92C489.982 827.19 488.062 827.24 488.022 825.92L487.352 775.44C487.352 773.58 490.162 773.54 490.182 775.43V775.43Z" fill="white"/>
    <path d="M682.911 622.6L629.981 622.73L630.921 622.29C627.461 626.96 628.291 633.41 631.071 638.28L630.051 637.68L682.981 637.56C683.531 637.56 683.971 638 683.971 638.55C683.971 639.1 683.531 639.54 682.991 639.54L630.061 640.01C629.621 640.01 629.241 639.77 629.041 639.41C625.761 633.84 624.861 626.1 629.021 620.67C629.261 620.37 629.611 620.23 629.961 620.23L682.891 619.77C684.731 619.78 684.801 622.56 682.911 622.6V622.6Z" fill="white"/>
    <path d="M648.851 464.57C636.421 463.97 623.561 463.9 611.481 467.22C607.771 468.25 603.281 470.01 600.671 472.43L577.831 506.81C577.831 506.81 577.931 506.16 577.931 506.17C580.141 511.61 586.191 514.35 591.841 514.45L590.491 515.17C596.951 503.86 603.401 492.49 611.891 482.53C613.991 479.92 617.381 477.81 620.751 477.47C627.301 476.51 633.761 476.84 640.311 476.98C643.551 477.11 646.781 477.29 650.011 477.47C650.181 477.47 650.311 477.63 650.301 477.8C650.301 477.96 650.151 478.09 649.991 478.09C643.541 478.2 637.071 478.26 630.631 478.59C626.061 478.99 621.001 478.81 617.001 481.09C615.831 481.85 614.741 482.99 613.721 484.15C609.651 488.95 606.251 494.49 602.821 499.91C601.121 502.64 599.471 505.41 597.831 508.18C596.181 510.95 594.551 513.74 592.971 516.53C592.711 517.04 592.161 517.32 591.621 517.25C588.421 516.9 585.191 515.97 582.431 514.17C579.671 512.33 577.461 509.8 576.431 506.57C576.361 506.35 576.401 506.12 576.521 505.93C576.521 505.93 599.431 471.58 599.421 471.57C602.631 468.44 606.891 467.04 611.071 465.78C621.331 462.96 632.031 462.62 642.601 462.86L648.931 463.14C649.841 463.21 649.821 464.59 648.841 464.55L648.851 464.57Z" fill="white"/>
    <path d="M635.961 795.21C624.181 796 597.391 797 589.951 786.4C586.861 781.77 576.511 765.86 573.161 760.64L567.621 751.93C566.931 750.71 568.161 749.34 568.641 748.37C571.751 743.39 577.791 740.92 583.411 740.75C583.861 740.72 584.271 740.97 584.471 741.34C590.281 751.71 596.121 762.27 603.121 771.87C604.231 773.34 605.391 774.76 606.701 776.02C607.451 776.74 608.111 777.79 608.921 778.26C611.271 779.53 614.561 779.57 617.291 779.82C622.511 780.21 629.941 780.31 635.231 780.49C635.371 780.49 635.471 780.61 635.471 780.74C635.471 780.87 635.361 780.97 635.241 780.98C629.241 781.23 623.251 781.44 617.221 781.3C614.061 781.08 611.031 781.28 608.011 779.79C606.851 779.13 606.261 778.18 605.391 777.38C603.981 776.08 602.711 774.57 601.561 773.09C594.231 763.45 588.311 752.99 582.511 742.41L583.571 743C578.001 743.35 572.171 746.15 570.181 751.57L570.011 750.39L575.671 759.02C579.241 764.49 588.751 779.39 592.381 785.08C594.321 788.05 598.111 789.43 601.421 790.63C612.501 794.04 624.381 794.2 635.921 794.09C636.231 794.09 636.491 794.33 636.491 794.64C636.491 794.94 636.261 795.19 635.971 795.21H635.961Z" fill="white"/>
    <path d="M329.84 794.09C340.76 794.21 366.5 794.24 373.37 785.09C379.64 775.22 389.36 760.04 395.74 750.4L396.43 752.5C394.91 751.86 393.64 751.16 392.31 750.41C391.16 749.73 389.98 749.05 388.88 748.27C386.5 746.34 385.31 743.27 382.18 743.01L383.24 742.42C377.44 753 371.52 763.46 364.19 773.1C363.03 774.58 361.76 776.08 360.36 777.39C359.49 778.19 358.9 779.15 357.74 779.8C354.72 781.29 351.69 781.1 348.53 781.31C342.5 781.45 336.51 781.25 330.51 780.99C330.37 780.99 330.27 780.87 330.28 780.73C330.28 780.6 330.39 780.5 330.52 780.5C335.87 780.31 343.23 780.22 348.46 779.83C351.18 779.57 354.48 779.54 356.83 778.27C357.64 777.8 358.3 776.75 359.05 776.03C360.36 774.77 361.52 773.35 362.63 771.88C369.63 762.28 375.47 751.73 381.28 741.35C381.5 740.95 381.92 740.74 382.34 740.76C385.74 740.76 388.1 743.95 390.09 745.95C391.14 746.77 392.47 747.4 393.63 748.06C394.88 748.72 396.23 749.38 397.44 749.85C398.17 750.13 398.55 750.94 398.27 751.68C398.23 751.78 398.19 751.87 398.13 751.95L392.59 760.66C389.05 766.21 378.74 781.92 375.5 786.93C366.96 797.01 342.07 795.99 329.79 795.22C329.11 795.14 329.08 794.12 329.84 794.1V794.09Z" fill="white"/>
    <path d="M333.371 460.72C344.441 459.44 365.301 457.64 374.011 465.6C376.841 469.45 381.521 475.8 384.491 479.98C387.421 484.14 391.651 490.04 394.431 494.22C394.581 494.42 394.631 494.7 394.541 494.92C394.041 496.38 393.281 497.55 392.361 498.67C389.601 502 385.351 503.83 381.161 504.42C380.571 504.51 380.021 504.2 379.761 503.69C374.601 494.83 369.541 485.49 363.111 477.56C361.491 475.73 359.971 474.13 357.361 473.81C352.361 473.09 347.021 473.29 341.911 473.29L334.081 473.36C333.911 473.36 333.771 473.23 333.771 473.05C333.771 472.89 333.891 472.76 334.051 472.74C339.251 472.21 344.461 471.73 349.711 471.52C353.001 471.45 356.491 471.22 359.801 472.13C364.321 473.86 367.071 478.56 369.891 482.2C374.441 488.65 378.451 495.42 382.251 502.34L380.851 501.61C385.731 501.37 390.931 499.02 393.061 494.44L393.171 495.14C391.341 492.89 389.571 490.6 387.771 488.33C382.801 481.94 376.891 474.04 372.061 467.55C366.401 461.96 351.511 461.82 343.701 461.8C340.291 461.8 336.881 461.99 333.471 462.12C332.621 462.16 332.451 460.83 333.361 460.71L333.371 460.72Z" fill="white"/>
    <path d="M291.991 637.52L327.561 637.57C328.821 637.59 328.861 639.48 327.581 639.53L292.021 640.35C290.141 640.36 290.101 637.55 291.991 637.52Z" fill="white"/>
    <path d="M291.86 620.16L327.43 620.2C327.98 620.2 328.42 620.64 328.42 621.19C328.42 621.73 327.99 622.17 327.45 622.18L291.89 622.99C290.01 623 289.97 620.19 291.86 620.16V620.16Z" fill="white"/>
    <path d="M192.801 540.95C192.731 560.22 169.671 570.15 155.601 556.79C146.701 548.46 146.701 533.44 155.601 525.11C169.671 511.75 192.731 521.68 192.801 540.95V540.95ZM192.091 540.95C192.011 522.89 170.011 514.13 157.591 527.09C150.211 534.52 150.211 547.38 157.591 554.81C170.021 567.77 192.011 559.01 192.091 540.95Z" fill="white"/>
    <path d="M455.291 374.59C472.391 352.31 508.111 361.2 512.591 389.11C515.531 406.97 502.301 424.26 484.291 426.1C456.181 429.07 438.251 396.93 455.281 374.59H455.291ZM456.311 375.37C446.471 388.05 449.311 407.12 462.531 416.22C474.741 425.1 493.001 422.25 501.841 410.2C511.151 398.51 509.121 380.14 497.361 370.68C485.121 360.3 465.971 362.55 456.311 375.37V375.37Z" fill="white"/>
    <path d="M647.92 467.32C648.99 439.25 683.27 425.85 703.07 446.03C715.79 458.9 715 480.66 701.37 492.57C680.16 511.25 646.94 495.39 647.92 467.32V467.32ZM649.2 467.37C648.5 483.4 661.85 497.32 677.9 497.1C692.99 497.28 706.24 484.4 706.5 469.46C707.34 454.54 695.06 440.72 679.99 439.81C664 438.42 649.67 451.33 649.2 467.37V467.37Z" fill="white"/>
    <path d="M638.921 771.52C654.281 748 690.561 754.15 697.161 781.63C701.451 799.21 689.571 817.46 671.761 820.67C643.961 825.77 623.641 795.09 638.921 771.52ZM640.001 772.22C631.151 785.61 635.441 804.41 649.311 812.48C662.161 820.4 680.151 816.17 688.051 803.49C696.441 791.13 693.031 772.97 680.571 764.43C667.571 755.01 648.651 758.71 639.991 772.23L640.001 772.22Z" fill="white"/>
    <path d="M729.88 603.43C753.4 618.79 747.25 655.07 719.77 661.67C702.19 665.96 683.94 654.08 680.73 636.27C675.63 608.47 706.31 588.15 729.88 603.43ZM729.18 604.51C715.79 595.66 696.99 599.95 688.92 613.82C681 626.67 685.23 644.66 697.91 652.56C710.27 660.95 728.43 657.54 736.97 645.08C746.39 632.08 742.69 613.16 729.17 604.5L729.18 604.51Z" fill="white"/>
    <path d="M239.751 627.96C240.661 603.79 270.171 592.16 287.301 609.49C298.371 620.58 297.681 639.58 285.831 649.84C267.491 665.88 238.891 652.13 239.751 627.96ZM241.031 628.01C240.431 650.11 266.681 661.51 282.381 646.14C297.051 631.62 287.901 606.45 267.271 604.67C253.711 603.36 241.401 614.39 241.031 628.01Z" fill="white"/>
    <path d="M285.93 467.03C287.24 444.73 314.48 435.14 330.37 450.34C341.03 460.25 340.46 477.94 329.51 487.42C312.27 502.62 284.88 490.13 285.93 467.03ZM289.2 467.15C288.76 482.53 304.6 493.88 318.89 488.04C336.06 481.03 337.13 456.27 320.74 447.6C306.32 440.14 289.36 451.25 289.21 467.15H289.2Z" fill="white"/>
    <path d="M288.03 769.16C299.91 755.94 322.09 758.85 330.11 774.86C340.71 796.12 319.63 819.19 297.51 810.55C280.84 804.02 275.93 782.18 288.03 769.16V769.16ZM289.56 770.56C276.23 785.36 287.63 808.59 307.38 807.22C318.71 806.56 328.05 796.34 327.68 785C327.26 765.2 303.09 755.95 289.56 770.56V770.56Z" fill="white"/>
    <path d="M456.74 838.65C465.33 821.73 489.12 818.6 501.83 832.89C515.5 847.99 508.39 872.5 488.83 878.07C465.46 884.64 445.62 860.03 456.75 838.65H456.74ZM457.88 839.24C447.88 858.86 466.61 880.34 487.31 873.24C499.14 869.33 506.17 855.86 502.61 843.91C496.59 822.87 468.25 819.81 457.89 839.24H457.88Z" fill="white"/>
    <path d="M87.3813 283.54L206.261 402.74C206.751 403.23 206.751 404.03 206.261 404.53C205.771 405.02 204.971 405.02 204.471 404.53L86.0513 284.86C85.6912 284.49 85.6912 283.9 86.0513 283.54C86.4213 283.18 87.0112 283.18 87.3712 283.54H87.3813Z" fill="white"/>
    <path d="M48.3199 325.27L166.69 444.99C167.02 445.33 167.02 445.87 166.69 446.21C166.35 446.54 165.81 446.54 165.47 446.21L46.5299 327.06C45.4199 325.93 47.0899 324.07 48.3199 325.28V325.27Z" fill="white"/>
    <path d="M1289.48 688.11C1287.89 700.15 1289.98 718.34 1300.21 726.17C1304.97 728.93 1310.68 730.45 1316.16 729.51C1333.48 726.12 1342.66 702.92 1347.3 687.77C1349.56 680.54 1349.61 672.84 1349.54 665.32C1348.98 645.69 1344.08 623.6 1327.48 611.35C1315.28 602.58 1298.59 600.5 1284.47 605.38C1274.96 608.66 1266.76 615.03 1260.03 622.48C1249.91 633.77 1242.63 647.43 1237.26 661.57C1235.52 666.29 1233.86 671.08 1233.14 676.07C1230.64 690.81 1236.27 707.7 1251.72 712.3C1262.33 715.82 1270.78 712.03 1277.56 703.52C1286.87 691.63 1291.83 676.82 1295.25 662.24C1297.06 654.93 1297.01 646.91 1289.43 642.99C1287.22 641.85 1284.71 641.23 1282.24 641.1C1281.03 640.95 1279.72 641.56 1278.74 642.4C1271.86 649.31 1273.33 660.17 1270.54 668.89C1269.1 674.16 1267.05 679.27 1264.28 684.03C1262.28 687.27 1260.14 690.8 1256.81 692.95C1254.86 694.02 1253.48 693.07 1253.12 690.87C1252.17 684.61 1253.18 678.34 1254.35 672.21C1256.92 660.06 1262.19 648.31 1270.48 638.94C1285.97 621.62 1308.25 612.04 1323.86 635.06C1333.54 648.97 1333.07 667.16 1328.96 682.91C1326.88 690.76 1324.1 698.95 1318.31 704.93C1316.38 706.91 1313.91 708.62 1311.1 708.99C1310.97 709.01 1310.86 708.92 1310.84 708.79C1310.83 708.69 1310.88 708.6 1310.96 708.55C1313.32 707.25 1315.36 705.71 1317.19 703.83C1318.98 701.93 1320.49 699.75 1321.82 697.46C1327.04 688.18 1329.05 677.2 1329.64 666.66C1330.1 656.16 1327.84 645.24 1321.5 636.75C1318.46 632.7 1314.65 628.8 1310.06 626.65C1297.68 621.23 1284.71 630.09 1276.02 638.58C1266.59 647.87 1260.53 660.1 1257.35 672.89C1256.04 678.75 1254.62 685.46 1255.7 691.2C1255.53 691.03 1255.38 691.03 1255.36 691.03C1256.25 690.78 1257.11 689.92 1257.85 689.24C1259.67 687.43 1261.25 685.27 1262.68 683.04C1265.52 678.55 1267.72 673.63 1269.32 668.53C1271.02 663.38 1271.43 657.99 1272.73 652.72C1274.06 648.11 1276.44 640.42 1282.33 640.53C1283.35 640.58 1284.93 640.76 1286.11 641.08C1292.89 642.44 1298.06 647.78 1298.17 654.88C1298.33 657.53 1297.87 660.21 1297.31 662.68C1295.08 672.68 1291.92 682.48 1287.41 691.74C1281.85 702.8 1272.86 716.05 1258.91 715.48C1244.98 714.77 1234.3 704.91 1231.83 691.29C1228.77 675.79 1235.59 660.71 1242.03 647.01C1251.12 629.03 1264.35 611.03 1284.03 604.02C1303.52 597.17 1327.56 603.67 1339.05 621.31C1347.68 634.26 1350.57 650.01 1351.01 665.28C1351.1 671.68 1350.97 678.13 1349.71 684.45C1348.77 688.19 1347.61 691.83 1346.33 695.46C1340.42 711.47 1329.03 734.32 1308.6 730.82C1306.1 730.33 1303.5 729.45 1301.22 728.31L1300.34 727.9L1299.47 727.36C1292.15 721.97 1289.29 711.93 1288.06 703.33C1287.41 698.22 1287.46 693.04 1288.11 687.94C1288.23 687.02 1289.63 687.2 1289.52 688.12L1289.48 688.11Z" fill="white"/>
    <path d="M1296.45 661.66C1296.34 661.66 1296.23 661.63 1296.12 661.58C1295.77 661.4 1295.64 660.97 1295.82 660.62C1306.28 640.51 1319.76 632.21 1319.9 632.13C1320.23 631.93 1320.67 632.04 1320.87 632.37C1321.07 632.7 1320.96 633.14 1320.63 633.34C1320.5 633.42 1307.34 641.54 1297.08 661.27C1296.95 661.51 1296.71 661.65 1296.45 661.65V661.66Z" fill="white"/>
    <path d="M1312.8 708.21C1304.45 696.73 1309.07 681.12 1315.29 669.78C1318.76 663.43 1322.24 656.92 1327.17 651.54C1327.76 650.99 1328.43 650.24 1329.31 650.21C1329.88 650.21 1330.29 650.9 1329.9 651.37C1329.66 651.68 1329.22 651.74 1328.91 651.5C1328.95 651.54 1329.01 651.57 1329.06 651.59C1329.16 651.64 1329.34 651.65 1329.41 651.64C1327.84 653.4 1326.82 655.6 1325.64 657.65C1320.04 668.99 1312.41 680.04 1311.32 692.87C1310.91 697.74 1311.5 703.02 1313.92 707.33C1314.47 708.03 1313.41 708.94 1312.81 708.21H1312.8Z" fill="white"/>
    <path d="M1338.55 621.85C1352.55 614.4 1369.57 617.18 1382.06 626.32L1384.44 628.26C1387.6 630.77 1390.34 633.97 1392.92 637.07C1393.97 638.57 1395.5 640.53 1396.44 642.06C1397.01 642.94 1398.3 645.11 1398.84 645.96C1408.95 664.28 1412.67 686.47 1404.67 706.28C1400.55 717.68 1394.85 729.06 1385.55 737.14C1379.33 742.66 1370.66 745.68 1362.35 744.21C1358.24 742.73 1354.69 740.36 1351.49 737.47C1341.77 728.92 1339.32 715.03 1342.04 702.83C1342.24 701.92 1343.59 702.2 1343.43 703.1C1341.09 714.81 1343.6 727.86 1352.92 735.9C1355.52 738.44 1360.05 740.96 1362.73 741.97C1368.43 742.84 1374.33 741.63 1379.24 738.61C1391.05 731.31 1397.58 718.07 1402.18 705.4C1409.86 686.07 1406.44 665.12 1396.68 647.17C1396.19 646.31 1394.91 644.24 1394.4 643.37C1393.56 641.84 1392 639.99 1391.05 638.51C1388.6 635.52 1386 632.39 1383 629.96L1380.75 628.08C1372.11 621.74 1361.17 618.15 1350.43 619.67C1346.6 620.23 1342.69 621.28 1339.28 623.07C1338.93 623.3 1338.46 623.18 1338.26 622.81C1338.08 622.46 1338.21 622.03 1338.55 621.85V621.85Z" fill="white"/>
    <path d="M1346.92 641.51C1356.12 637.08 1367.2 640.25 1374.5 646.8C1387.26 657.99 1389.33 687.03 1383.47 702.11C1381.01 708.05 1375.58 723.73 1368.33 724.23C1367.65 724.25 1366.98 724.08 1366.41 723.78C1366.3 723.72 1366.25 723.58 1366.31 723.47C1366.35 723.38 1366.44 723.34 1366.53 723.35C1367.71 723.37 1368.7 723.03 1369.6 722.44C1372.43 720.52 1374.32 717.49 1375.99 714.5C1378.25 710.35 1380.05 705.93 1381.73 701.46C1385.14 692.67 1384.95 682.78 1384.03 673.5C1382.37 658.92 1376.43 645.55 1361.14 641.59C1356.69 640.59 1351.72 640.84 1347.59 642.76C1346.76 643.24 1346.05 641.95 1346.91 641.51H1346.92Z" fill="white"/>
    <path d="M1349 679.94C1353.63 670.7 1359.18 661.94 1365.89 654.08C1368.13 651.46 1370.56 649 1373.12 646.68C1373.41 646.42 1373.86 646.44 1374.12 646.73C1374.39 647.02 1374.36 647.48 1374.06 647.74C1364.08 656.95 1356.44 668.52 1350.28 680.56C1349.89 681.4 1348.58 680.8 1349 679.95V679.94Z" fill="white"/>
    <path d="M1384.51 668.22C1377.97 674.39 1371.54 681.39 1368.6 690.03C1365.88 698.52 1363.74 707.94 1365.92 716.73C1366.61 719.13 1367.92 721.36 1370.03 722.61C1370.37 722.81 1370.48 723.24 1370.28 723.58C1370.09 723.9 1369.68 724.02 1369.34 723.85C1366.75 722.55 1365.08 719.93 1364.2 717.27C1361.29 707.63 1364.03 694.54 1367.98 685.48C1371.62 678.19 1377.31 672.15 1383.62 667.11C1384.33 666.57 1385.22 667.61 1384.51 668.21V668.22Z" fill="white"/>
    <path d="M1391.82 637.46C1405.21 630.03 1421.97 633.08 1434.29 641.18C1447.35 648.77 1454.65 663.51 1457.16 677.9C1461.14 701.8 1458.05 728.65 1442.37 747.95C1439.14 751.7 1435.16 754.98 1430.45 756.86C1421.09 760.66 1409.25 758.2 1402.97 750.11C1396.79 742.15 1395.16 731.8 1395.39 721.99C1395.41 721.6 1395.73 721.29 1396.13 721.31C1396.53 721.32 1396.84 721.68 1396.81 722.08C1396.67 731.4 1398.38 741.6 1404.31 749.04C1410.18 756.46 1421.17 758.58 1429.74 755.08C1434.08 753.33 1437.81 750.26 1440.88 746.67C1456.05 727.87 1458.92 701.53 1454.97 678.33C1452.15 662.68 1444.39 648.82 1429.98 641.34C1422.82 637.3 1414.46 634.88 1406.2 635.3C1401.54 635.52 1396.71 636.57 1392.56 638.69C1391.76 639.22 1390.98 637.96 1391.82 637.48V637.46Z" fill="white"/>
    <path d="M1401.8 654.35C1410.77 653.92 1420.79 655.37 1427.42 661.95C1431.17 666 1433.39 671.13 1435.43 676.17C1440.18 688.8 1441.44 703.34 1436.32 716.04C1433.49 723.08 1429.54 730.46 1422.96 734.9C1420.99 736.14 1418.79 737.03 1416.49 737.36C1416.32 737.38 1416.17 737.27 1416.14 737.1C1416.12 736.93 1416.23 736.78 1416.4 736.75C1425.38 734.77 1430.63 725.82 1434.03 717.96C1440.07 705.03 1439.05 689.79 1434.04 676.69C1431.73 671.14 1429.26 665.08 1424.4 661.31C1418.08 656.6 1409.7 655.42 1401.92 655.76C1401 655.87 1400.82 654.43 1401.79 654.35H1401.8Z" fill="white"/>
    <path d="M1436.85 681.85C1431.27 687.48 1425.84 693.62 1422.4 700.81C1421.7 702.41 1420.65 705.41 1420.04 707.09C1417.29 715.59 1412.7 728.52 1420.25 735.56C1420.54 735.82 1420.57 736.27 1420.32 736.56C1420.07 736.84 1419.65 736.88 1419.35 736.65C1417.14 734.97 1415.62 732.45 1414.9 729.81C1412.91 721.91 1415.48 713.76 1417.9 706.35C1418.54 704.55 1419.53 701.57 1420.33 699.86C1423.98 692.39 1429.67 686.16 1435.91 680.79C1436.59 680.22 1437.52 681.23 1436.85 681.85V681.85Z" fill="white"/>
    <path d="M1425.92 662.47C1422.46 665.99 1419.06 669.62 1415.92 673.43C1412.94 677.16 1409.71 681.18 1408.43 685.79C1408.25 686.67 1406.88 686.42 1407.04 685.52C1408.09 680.37 1411.33 676.23 1414.46 672.23C1417.67 668.34 1421.15 664.73 1424.96 661.42C1425.64 660.84 1426.57 661.83 1425.92 662.46V662.47Z" fill="white"/>
    <path d="M1500.12 727.88C1499.76 727.88 1499.4 727.85 1499.03 727.8C1490.09 726.51 1489.46 718.3 1488.59 706.94C1488.51 705.93 1488.43 704.88 1488.35 703.82C1487.22 690.04 1481 678.68 1472.11 674.17C1462.7 669.39 1454.87 672.19 1454.79 672.22C1454.42 672.36 1454.02 672.17 1453.88 671.8C1453.74 671.43 1453.93 671.03 1454.3 670.89C1454.64 670.76 1462.76 667.83 1472.75 672.9C1482.07 677.63 1488.59 689.43 1489.76 703.7C1489.85 704.77 1489.93 705.82 1490.01 706.83C1490.86 717.94 1491.42 725.28 1499.24 726.4C1500.86 726.63 1502.27 726.25 1503.55 725.24C1508.11 721.62 1509.05 711.41 1509.05 711.31C1509.11 711 1513.33 687.5 1493.33 665.15C1473.39 642.87 1446.8 652.6 1446.53 652.7C1446.16 652.84 1445.76 652.65 1445.62 652.29C1445.48 651.92 1445.67 651.51 1446.03 651.38C1446.31 651.28 1473.8 641.22 1494.38 664.21C1505.08 676.17 1508.88 688.37 1510.19 696.5C1511.61 705.33 1510.5 711.26 1510.45 711.51C1510.42 711.88 1509.46 722.36 1504.42 726.35C1503.13 727.37 1501.69 727.89 1500.12 727.89V727.88Z" fill="white"/>
    <path d="M88.0912 897.67C92.9612 903.54 102.301 910.85 110.311 909.21C117.381 907 120.901 901.54 120.531 894.17C120.241 887.99 118.111 881.97 115.521 876.37C113.061 870.61 109.231 865.68 104.671 861.4C98.0112 855.02 89.9512 849.4 80.8412 847.54C68.6912 844.82 55.7911 852.23 50.4311 863.21C47.7011 868.73 46.8612 875.06 47.1412 881.24C47.7112 892.14 51.2312 902.85 56.1712 912.55C56.8312 913.73 57.8312 915.38 58.6312 916.45C65.0112 925.47 76.7612 929.4 85.6712 921.52C95.0812 912.71 85.2812 892.5 79.7212 883.4C76.0812 877.17 70.7512 875.42 65.0312 880.42C62.6612 883.68 67.4012 889.75 69.4212 892.54C73.4012 898.17 76.3512 904.75 76.7012 911.74C76.6512 912.97 76.7512 914.48 75.4612 915.23C74.2812 915.74 73.1212 914.59 72.3112 913.92C62.6312 904.17 57.0812 889.98 58.9912 876.25C60.0712 867.31 65.1511 858.45 75.2311 858.64C80.4211 858.51 85.6212 860.07 89.9612 862.86C95.7412 866.56 100.141 872 103.571 877.86C105.281 880.77 106.831 883.84 107.731 887.14C108.591 890.36 109.151 894.26 107.131 897.17C107.091 897.23 107.011 897.24 106.951 897.2C108.831 890.7 106.311 883.9 102.821 878.31C97.7112 869.93 90.1512 862.14 80.1412 860.54C73.5512 859.39 66.9612 860.85 63.7112 867.23C56.5812 882.09 62.5312 901.08 73.7412 912.32C74.1212 912.66 74.5512 913.02 74.9612 913.22C74.8812 913.18 74.6512 913.24 74.5612 913.28C74.4912 913.3 74.4212 913.38 74.4112 913.38C74.3112 913.51 74.3912 913.38 74.4112 913.3C74.4512 913.17 74.4811 913.02 74.5111 912.85C74.8111 907.65 72.7811 902.45 70.4311 897.86C68.8911 894.85 66.7212 892.37 64.9512 889.45C63.3912 886.62 61.3512 882.71 63.3812 879.57C65.3912 877.27 69.7912 875.22 73.4412 876.32C76.7612 877.24 78.9512 880.04 80.7212 882.78C82.4512 885.45 84.0412 888.22 85.4812 891.07C90.9612 901.69 97.3312 919.53 83.1612 926.21C72.7012 931.8 61.2112 924.77 55.8112 915.5C47.4912 900.35 41.0012 878.93 48.8212 862.42C53.1412 853.65 61.7812 847.02 71.4612 845.48C84.6412 843.55 96.8812 851.34 106.001 860.04C110.721 864.44 114.741 869.59 117.231 875.58C120.961 884.16 124.901 894.75 120.021 903.67C118.041 907.14 114.431 909.31 110.711 910.45C102.091 912.06 92.7712 904.27 88.1012 897.67H88.0912Z" fill="white"/>
    <path d="M79.6304 883.4C79.1804 883.4 78.7704 883.11 78.6304 882.66C74.4004 869.04 76.7004 859.6 76.7904 859.2C76.9304 858.64 77.5004 858.3 78.0604 858.44C78.6204 858.58 78.9604 859.15 78.8204 859.71C78.8004 859.8 76.5804 869.01 80.6204 882.04C80.7904 882.59 80.4804 883.18 79.9304 883.35C79.8304 883.38 79.7204 883.4 79.6204 883.4H79.6304Z" fill="white"/>
    <path d="M107.552 896.05C96.9919 894.13 92.8319 882.43 90.5919 873.27C89.9019 870.16 88.9119 866.94 89.2319 863.72C89.2919 863.57 89.3319 863.36 89.4819 863.25C89.6619 863.05 90.1519 863.09 90.2019 863.48C90.2319 863.7 90.0719 863.91 89.8519 863.94C90.0319 863.9 90.0219 863.87 90.0519 863.86C90.1619 863.71 90.0819 863.94 90.1219 864.12C90.5519 867.07 91.6219 869.9 92.4519 872.76C95.0819 881.43 98.1119 892.17 107.672 895.25C108.182 895.32 108.112 896.12 107.572 896.06L107.552 896.05Z" fill="white"/>
    <path d="M81.0305 846.61C83.8905 837.2 92.8005 830.79 102.3 829.4C117.58 827.48 135.17 835.54 143.84 848.25C151.04 859.9 158.74 880.41 145.32 890.44C138.56 893.53 130.41 892.63 124.54 888.13C123.98 887.67 122.83 886.69 122.31 886.22C121.92 885.78 120.74 884.53 120.33 884.07C119.52 883.06 118.79 881.99 118.02 880.96C117.6 880.38 118.45 879.74 118.89 880.29C119.68 881.29 120.42 882.32 121.24 883.29C122.01 884 123.04 885.28 123.9 885.88C129.37 890.8 137.76 891.98 144.41 888.93C156.3 879.46 148.93 860.49 142.11 849.39C133.48 836.32 112.46 827.2 97.2505 832.35C90.4105 834.66 84.3905 839.96 82.0905 846.89C81.9205 847.62 80.8105 847.34 81.0205 846.61H81.0305Z" fill="white"/>
    <path d="M93.0504 851.56C96.3904 842.08 108.72 839.11 117.09 843.37C124.72 846.97 131.25 852.94 135.59 860.16C137.28 863.57 138.7 867.07 139.79 870.77C140.49 873.47 141.88 878.6 138.12 879.62C137.87 879.65 137.71 879.35 137.86 879.15C140.1 874.85 136.32 867.38 134.59 863.15C133.47 860.5 131.74 858.16 129.83 856.01C125.97 851.74 121.42 847.82 116.18 845.4C108.71 841.58 97.9904 843.94 94.6604 852.05C94.3504 853.14 92.7004 852.65 93.0504 851.56V851.56Z" fill="white"/>
    <path d="M110.662 867.93C109.102 861.64 107.892 855.36 107.242 848.93C107.012 846.79 106.872 844.64 106.732 842.45C106.702 841.9 107.112 841.42 107.672 841.39C108.312 841.34 108.842 841.95 108.712 842.58C107.662 848.83 108.782 855.27 110.472 861.32C111.042 863.35 111.722 865.39 112.552 867.3C113.072 868.6 111.052 869.3 110.672 867.93H110.662Z" fill="white"/>
    <path d="M121.952 847.05C121.792 853.43 122.312 860.05 125.662 865.64C128.222 869.99 133.342 878.16 139.102 877.22C139.882 877.03 140.212 878.2 139.452 878.46C132.682 880.21 126.832 871.63 123.872 866.65C120.282 860.82 119.762 853.57 120.672 846.92C120.792 846.12 122.002 846.24 121.952 847.06V847.05Z" fill="white"/>
    <path d="M111.331 830.18C114.951 817.76 128.961 811.27 141.161 812.36C153.681 813.89 163.871 822.45 171.601 831.83C178.691 840.66 185.601 854.89 181.071 866.2C178.541 872.07 172.121 876.21 165.711 875.36C159.421 874.52 154.171 870.64 149.941 866.15C149.711 865.9 149.731 865.5 149.981 865.27C150.241 865.03 150.651 865.06 150.871 865.33C152.871 867.46 155.221 869.37 157.731 870.91C160.241 872.43 163.011 873.58 165.871 873.87C171.611 874.56 177.291 870.72 179.501 865.52C183.621 854.82 176.781 841.41 170.071 833.07C162.681 824.13 152.771 815.82 140.951 814.42C129.621 813.48 116.611 819.32 112.541 830.48C112.351 831.3 111.121 831 111.331 830.18V830.18Z" fill="white"/>
    <path d="M122.852 832.94C127.422 827.81 134.422 823.24 141.522 825.34C154.052 828.51 165.342 838.29 168.022 850.99C169.012 855.19 169.232 860.2 166.342 863.74C166.182 863.93 165.892 863.96 165.702 863.8C165.522 863.65 165.492 863.39 165.622 863.2C168.422 858.43 166.802 852.41 164.882 847.6C161.102 836.91 149.042 828.36 137.932 827.07C132.672 827.09 127.992 830.5 124.442 834.28C123.552 835.34 121.942 834 122.852 832.93V832.94Z" fill="white"/>
    <path d="M151.05 830.15C151.14 834.86 151.42 839.7 152.88 844.18C155.36 849.92 159.66 861.03 167 860.94C167.79 860.9 167.91 862.11 167.12 862.22C159.03 862.88 154.83 853.24 151.86 847.19C149.45 841.86 149.24 835.79 149.77 830.06C149.86 829.27 151.07 829.33 151.05 830.15Z" fill="white"/>
    <path d="M137.871 826.37C138.251 832.25 137.851 838.71 140.311 844.16C140.781 844.99 139.561 845.77 139.001 845C137.081 842.21 136.681 838.94 136.301 835.73C136.011 832.58 135.991 829.45 136.321 826.3C136.371 825.87 136.751 825.57 137.181 825.62C137.571 825.66 137.861 826 137.871 826.38V826.37Z" fill="white"/>
    <path d="M194.751 825.19C191.411 825.19 188.141 822.36 184.301 819.03C183.821 818.62 183.331 818.19 182.831 817.76C176.461 812.3 168.961 810.05 163.251 811.88C157.231 813.81 155.131 818.23 155.111 818.28C154.871 818.8 154.251 819.03 153.721 818.79C153.201 818.55 152.971 817.93 153.211 817.41C153.311 817.19 155.731 812.11 162.611 809.9C169.001 807.85 177.271 810.25 184.191 816.18C184.701 816.62 185.191 817.04 185.671 817.46C191.301 822.34 194.151 824.57 197.561 822.04C198.241 821.54 198.611 820.89 198.721 820.05C199.051 817.29 196.291 813.26 195.191 811.94C195.171 811.91 195.151 811.88 195.131 811.86C195.051 811.74 186.771 799.74 168.471 798.64C150.361 797.52 143.211 812.63 142.921 813.27C142.681 813.79 142.061 814.02 141.541 813.78C141.021 813.54 140.791 812.92 141.021 812.4C141.101 812.23 149.021 795.4 168.591 796.56C187.581 797.71 196.161 809.68 196.831 810.65C197.281 811.2 201.281 816.23 200.791 820.3C200.621 821.72 199.951 822.86 198.811 823.72C197.421 824.75 196.081 825.19 194.761 825.19H194.751Z" fill="white"/>
    <path d="M623.431 620.95C624.121 700.58 556.831 776.53 475.861 778.24C393.941 781.13 325.101 706.22 323.111 626.45C319.581 518.4 428.131 443.71 528.171 483.24C583.781 504.6 623.941 561.02 623.431 620.96V620.95ZM618.461 620.95C619.311 562.81 580.581 507.88 526.731 486.81C430.291 447.43 324.561 522.38 328.991 626.23C330.931 702.64 397.201 775.15 475.711 772.56C553.811 771.12 618.911 697.73 618.451 620.94L618.461 620.95Z" fill="white"/>
    <path d="M569.56 759.41C547.72 773.17 521.56 778.78 495.97 779.25C487.42 779.38 478.88 779.03 470.41 778.09C470.06 778.05 469.8 777.73 469.84 777.38C469.88 777.05 470.16 776.81 470.49 776.81C478.97 776.91 487.43 776.81 495.84 776.22C511.58 775.26 527.21 772.57 542.36 768.23C551.46 765.6 560.35 762.37 569.08 758.53C569.33 758.42 569.63 758.53 569.74 758.79C569.84 759.02 569.75 759.28 569.55 759.41H569.56Z" fill="white"/>
    <path d="M646.01 643.2C642.73 682.62 623.75 722.13 591.12 745.39C590.83 745.59 590.43 745.52 590.23 745.23C590.04 744.96 590.09 744.6 590.32 744.39C612.21 724.77 628.48 699.46 637.39 671.48C640.5 662.22 642.79 652.68 644.63 643.01C644.7 642.63 645.07 642.38 645.45 642.45C645.8 642.52 646.04 642.84 646.02 643.19L646.01 643.2Z" fill="white"/>
    <path d="M598.481 510.65C630.161 537.34 649.711 576.65 647.591 618.45C647.571 618.8 647.271 619.08 646.921 619.06C646.591 619.04 646.331 618.78 646.311 618.45C645.771 608.39 644.431 598.42 642.011 588.73L640.061 581.5L637.721 574.4L635.091 567.4C630.311 555.97 624.341 544.78 616.911 534.84C610.931 526.84 604.091 519.48 596.551 512.89C595.151 511.66 596.951 509.41 598.471 510.66L598.481 510.65Z" fill="white"/>
    <path d="M470.32 472.98C498.09 470.36 526.8 473.1 552.78 483.65C561.42 487.17 569.76 491.42 577.51 496.55C577.81 496.75 577.89 497.14 577.69 497.44C577.51 497.72 577.14 497.8 576.85 497.65C568.74 493.28 560.36 489.47 551.73 486.42C545.34 484.09 538.61 482.14 531.99 480.58C530.33 480.16 526.97 479.43 525.28 479.13C523.61 478.77 520.22 478.15 518.53 477.91C502.7 475.31 486.57 474.81 470.56 475.93C468.69 476.04 468.37 473.23 470.31 473L470.32 472.98Z" fill="white"/>
    <path d="M536.181 600.08C536.951 573.06 515.301 553.72 489.851 549.58C489.191 549.46 488.741 548.85 488.791 548.19C489.291 541.17 489.721 534.14 490.281 527.13L491.391 528.39C487.191 528.05 483.001 527.69 478.801 527.4C474.601 527.12 470.401 526.92 466.181 526.83L467.491 525.68C467.291 533.04 467.731 540.83 467.011 548.17C466.891 549.16 466.091 549.91 465.131 550C450.321 552.07 435.221 559 427.211 571.99C419.881 583.83 418.231 602.46 426.381 614.26C440.201 633.05 468.131 634.35 487.891 644.9C495.501 648.72 502.701 655.67 503.411 664.74C501.921 677.12 490.071 684.11 478.501 684.65C467.831 685.26 456.761 682.2 448.671 675C443.281 670.26 440.071 662.87 441.001 655.69C441.001 655.69 441.881 656.72 441.861 656.71C432.751 656.4 419.831 656.06 410.821 655.91H410.701H410.641H410.611H410.721C411.201 655.96 411.881 655.5 411.971 655.28C411.701 656.68 411.761 658.6 411.951 660.19C412.541 666.94 415.821 676.23 417.741 681.1C426.461 695.53 442.511 703.84 458.471 707.88C459.231 708.01 459.761 708.71 459.671 709.46L459.121 725.5L457.261 723.39C457.261 723.39 482.411 725.83 482.411 725.84L481.181 726.92C481.001 724.23 480.941 721.53 480.951 718.83C480.951 716.93 481.001 714.7 481.071 712.79L481.101 711.78C481.091 711.44 481.161 711.11 481.841 710.82C481.841 710.82 483.241 709.37 483.241 709.4C496.041 708.43 508.931 704.57 518.981 696.44C537.911 681.89 537.621 651.35 521.341 634.88C517.751 631.11 513.391 628.15 508.681 625.96C502.821 621.97 495.601 620.01 488.871 617.77C481.941 615.56 474.931 613.48 468.131 610.63C456.821 606.03 445.841 597.98 453.811 584.82C459.541 573.95 472.701 571.36 483.851 573.95C495.101 576.2 506.541 583.92 508.411 596.01C507.941 594.48 507.341 594.21 506.761 593.93C507.261 594.07 508.491 594.36 509.091 594.48C510.841 594.83 515.211 595.72 517.001 596.05C523.061 597.12 529.181 598.58 535.311 598.72C535.691 598.72 536.051 598.65 536.281 598.68C536.391 598.71 536.511 598.82 536.491 598.96C536.371 599.24 536.101 599.7 536.151 600.08H536.181ZM539.491 599.98C539.571 600.8 538.971 601.72 538.431 602.18C536.871 603.71 534.551 603.26 532.651 603.38C523.791 603.13 515.071 601.83 506.481 599.81C505.791 599.61 504.871 599.46 504.091 598.98C504.001 598.86 503.241 598.69 502.781 596.96V596.89L502.731 596.6C501.241 586.7 493.011 579.23 483.241 576.66C473.341 574 461.051 576.38 455.981 586.09C448.681 597.67 459.371 604.43 469.061 608.53C479.031 612.79 489.751 615.42 499.941 619.3C503.081 620.47 507.611 622.54 509.751 624.17C514.661 626.39 519.161 629.52 522.901 633.4C541.341 652.21 539.981 685.87 517.391 700.83C507.451 707.76 495.491 711.29 483.521 712.43C483.501 712.46 484.921 711.01 484.921 711.01C485.551 711.39 485.581 711.72 485.531 712.06L485.431 713.06L485.241 715.06C484.811 719.08 484.311 723.09 483.521 727.05C483.501 727.67 482.991 728.16 482.371 728.14C482.151 728.06 457.131 727.41 456.921 727.34C455.861 727.24 455.081 726.3 455.181 725.24L456.681 709.26L457.881 710.84C453.541 710.14 449.251 709.03 445.061 707.62C436.651 704.68 428.641 700.35 422.041 694.24C418.651 691.09 415.511 687.52 413.121 683.48C409.571 674.92 406.921 665.75 407.461 656.37C407.601 654.56 408.281 651.63 410.821 651.7C416.161 652.11 421.481 652.55 426.801 653.08C431.891 653.58 436.971 654.17 442.041 654.82C442.551 654.85 442.941 655.28 442.921 655.79C442.381 662.41 445.451 668.76 450.551 672.89C460.471 680.91 475.751 683.12 487.361 678.06C493.011 675.55 497.181 670.63 498.011 664.49L497.981 665.26C497.631 661.84 496.271 658.71 493.991 656.11C486.211 647.84 474.511 645 463.841 641.15C452.611 637.33 440.701 633.5 431.001 626.1C424.311 621.1 419.091 613.7 417.261 605.45C414.711 593.29 416.661 580.09 423.251 569.49C432.131 555.27 448.481 547.76 464.541 545.6L462.641 547.65C462.651 545.79 462.841 543.95 463.021 542.1C463.621 536.8 464.421 530.79 465.041 525.5C465.071 524.82 465.661 524.26 466.351 524.34C470.541 524.79 474.731 525.12 478.941 525.38C483.141 525.62 487.351 525.81 491.551 526.01C492.191 526.04 492.691 526.59 492.661 527.23V527.27C492.331 534.3 491.851 541.32 491.451 548.35L490.351 546.96C517.711 551.68 537.441 571.99 539.491 599.97V599.98Z" fill="white"/>
</svg>
