<svg viewBox="0 0 272 212" fill="none" xmlns="http://www.w3.org/2000/svg">
    <path d="M62.7334 108.863L78.0625 104.322L66.5256 93.1497L62.7334 108.863Z" stroke="#B3B3B3" stroke-linecap="round" stroke-linejoin="round"/>
    <path d="M72.1047 98.7645L64.6489 100.934L70.3174 106.509L72.1047 98.7645Z" stroke="#B3B3B3" stroke-linecap="round" stroke-linejoin="round"/>
    <path d="M64.3509 100.91L60.1074 99.9745" stroke="#B3B3B3" stroke-linecap="round" stroke-linejoin="round"/>
    <path d="M70.4692 106.811L71.7142 111.035" stroke="#B3B3B3" stroke-linecap="round" stroke-linejoin="round"/>
    <path d="M72.29 98.7187L75.4707 95.52" stroke="#B3B3B3" stroke-linecap="round" stroke-linejoin="round"/>
    <path d="M66.5382 93.1339L59.9375 99.9546L62.6352 108.947L71.7376 111.18L78.1464 104.194L75.7673 95.1525L66.5382 93.1339Z" stroke="#B3B3B3" stroke-linecap="round" stroke-linejoin="round"/>
    <path d="M202.626 184.465C203.761 183.618 202.509 180 199.83 176.386C197.151 172.771 194.059 170.528 192.924 171.375C191.789 172.223 193.041 175.84 195.72 179.455C198.399 183.07 201.491 185.313 202.626 184.465Z" stroke="#B3B3B3" stroke-linecap="round" stroke-linejoin="round"/>
    <path d="M61.5649 39.4966C66.148 35.1262 68.6805 30.3334 67.2215 28.7916C65.7625 27.2498 60.8644 29.5429 56.2813 33.9134C51.6982 38.2838 49.1657 43.0766 50.6247 44.6183C52.0837 46.1601 56.9818 43.867 61.5649 39.4966Z" stroke="#B3B3B3" stroke-linecap="round" stroke-linejoin="round"/>
    <path d="M51.666 45.1661L82.3084 61.305C82.3084 61.305 83.9491 61.4659 82.9912 59.2745C82.0332 57.083 68.242 29.9571 68.242 29.9571" stroke="#B3B3B3" stroke-linecap="round" stroke-linejoin="round"/>
    <path d="M206.059 162.973C205.109 166.577 206.134 169.523 207.249 170.304C212.511 173.991 216.284 165.311 216.897 163.779C217.457 162.382 219.971 151.139 212.026 148.29C204.082 145.441 198.558 154.252 196.765 158.129C194.972 162.005 196.048 166.08 199.929 166.988C203.811 167.896 206.954 161.643 208.119 158.234C209.287 154.825 206.012 154.342 206.012 154.342C206.012 154.342 204.688 153.867 203.724 157.417C202.76 160.968 200.317 163.183 199.912 162.899C199.508 162.615 200.448 156.935 204.486 153.724C204.486 153.724 209.36 149.48 212.401 153.025C213.541 154.354 214.053 155.83 214.192 157.284C214.423 159.708 213.62 162.073 212.967 163.588C212.472 164.737 211.255 166.918 209.537 167.224" stroke="#B3B3B3" stroke-linecap="round" stroke-linejoin="round"/>
    <path d="M213.004 153.805C213.004 153.805 210.431 154.93 208.074 158.298" stroke="#B3B3B3" stroke-linecap="round" stroke-linejoin="round"/>
    <path d="M209.982 167.105C209.982 167.105 208.565 164.735 211.247 160.879C213.929 157.02 214.194 157.288 214.194 157.288" stroke="#B3B3B3" stroke-linecap="round" stroke-linejoin="round"/>
    <path d="M216.585 152.407C216.585 152.407 219.942 150.966 223.441 153.72C226.94 156.474 228.648 163.104 226.774 167.528C224.902 171.953 221.673 175.73 217.935 174.619C217.935 174.619 213.507 172.472 215.348 166.944" stroke="#B3B3B3" stroke-linecap="round" stroke-linejoin="round"/>
    <path d="M217.606 156.138C217.606 156.138 219.987 155.226 222.194 157.678C224.401 160.129 223.599 165.607 222.673 167.373C221.747 169.14 220.254 171.717 219.102 171.212" stroke="#B3B3B3" stroke-linecap="round" stroke-linejoin="round"/>
    <path d="M217.125 163.034C217.125 163.034 219.348 159.609 222.194 157.678" stroke="#B3B3B3" stroke-linecap="round" stroke-linejoin="round"/>
    <path d="M223.579 161.602C223.579 161.602 221.188 163.07 220.203 164.943C219.217 166.817 218.235 170.159 219.684 171.228" stroke="#B3B3B3" stroke-linecap="round" stroke-linejoin="round"/>
    <path d="M225.737 156.482C225.737 156.482 229.472 154.817 233.514 158.61C237.555 162.4 236.172 169.583 235.085 172.446C233.998 175.307 231.235 179.713 227.295 178.462C223.352 177.21 224.433 171.645 224.433 171.645" stroke="#B3B3B3" stroke-linecap="round" stroke-linejoin="round"/>
    <path d="M227.061 159.764C227.061 159.764 230.562 159.917 231.677 162.208C232.791 164.498 233.48 168.713 231.415 171.891C231.415 171.891 229.836 174.806 227.714 174.83" stroke="#B3B3B3" stroke-linecap="round" stroke-linejoin="round"/>
    <path d="M232.606 165.301C232.606 165.301 230.208 166.914 229.281 168.679C228.355 170.445 226.936 173.23 228.337 174.736" stroke="#B3B3B3" stroke-linecap="round" stroke-linejoin="round"/>
    <path d="M231.112 161.564C231.112 161.564 227.91 163.811 227.381 165.395" stroke="#B3B3B3" stroke-linecap="round" stroke-linejoin="round"/>
    <path d="M235.073 160.282C235.073 160.282 240.159 159.09 243.277 163.69C246.396 168.289 245.006 172.45 245.006 172.45C245.006 172.45 244.336 175.474 242.732 175.019C241.129 174.564 241.369 172.921 241.487 170.588C241.606 168.256 240.872 165.897 239.235 164.767C237.598 163.636 236.086 163.984 236.086 163.984" stroke="#B3B3B3" stroke-linecap="round" stroke-linejoin="round"/>
    <path d="M156.003 157.896L98.2608 150.467C96.5745 150.217 94.9971 149.688 93.5681 148.935C88.1608 146.09 84.8753 140.036 85.8214 133.631L94.9812 71.6443C96.1767 63.5481 103.686 57.9572 111.751 59.1592L169.493 66.5879C171.193 66.8402 172.781 67.3747 174.219 68.1376C179.607 70.9907 182.877 77.0326 181.933 83.4241L172.773 145.411C171.577 153.507 164.068 159.098 156.003 157.896V157.896Z" stroke="#B3B3B3" stroke-linecap="round" stroke-linejoin="round"/>
    <path d="M96.1851 151.145C96.1851 151.145 102.36 156.628 109.717 157.502C112.239 157.802 162.39 163.566 163.554 163.671C164.718 163.779 182.228 166.95 185.476 150.558C188.33 136.154 194.784 98.7345 196.306 89.8713C196.555 88.417 196.51 86.9269 196.164 85.4924C195.506 82.7645 194.03 78.5405 190.992 76.8517C186.337 74.2669 172.842 67.4958 172.842 67.4958" stroke="#B3B3B3" stroke-linecap="round" stroke-linejoin="round"/>
    <path d="M78.2355 80.1382C72.2127 80.2734 64.464 67.7107 61.0538 76.0712C58.1978 83.0728 56.6243 92.3551 47.0647 88.8107C39.7316 84.841 33.7702 77.015 31.5218 90.5829C29.7939 100.302 25.6989 97.7791 26.0176 91.775C26.4253 84.1258 30.0651 75.4673 40.0087 78.8866C43.5891 80.2654 45.9998 83.6311 49.6851 84.7218C55.7594 85.6596 54.6649 77.1143 56.8776 73.5162C61.8732 64.5537 70.463 70.3095 76.373 74.7957C78.4017 76.3176 81.2221 74.0606 82.7976 76.3176C82.8847 76.4328 85.2597 79.9853 78.2335 80.1422L78.2355 80.1382Z" stroke="#B3B3B3" stroke-linecap="round" stroke-linejoin="round"/>
    <path d="M244.418 136.085C245.292 135.929 245.65 133.825 245.217 131.385C244.784 128.946 243.725 127.095 242.851 127.252C241.977 127.408 241.619 129.512 242.052 131.951C242.485 134.39 243.544 136.241 244.418 136.085Z" stroke="#B3B3B3" stroke-linecap="round" stroke-linejoin="round"/>
    <path d="M208.529 141.688C207.654 141.845 206.689 139.944 206.255 137.504C205.822 135.064 206.077 132.944 206.952 132.789" stroke="#B3B3B3" stroke-linecap="round" stroke-linejoin="round"/>
    <path d="M244.517 136.121L208.627 141.672" stroke="#B3B3B3" stroke-linecap="round" stroke-linejoin="round"/>
    <path d="M242.646 127.274L206.757 132.825" stroke="#B3B3B3" stroke-linecap="round" stroke-linejoin="round"/>
    <path d="M110.711 131.791C110.6 131.885 110.658 132.063 110.8 132.075C113.383 132.308 116.059 132.548 118.737 132.787C119.441 132.85 120.146 132.904 120.851 132.979C122.634 133.166 123.707 134.497 123.525 136.283C123.362 137.859 122.018 138.96 120.358 138.819C116.716 138.509 113.076 138.171 109.436 137.845C106.97 137.625 104.504 137.408 102.038 137.18C100.506 137.036 99.8155 136.228 99.95 134.712C100.49 128.577 101.035 122.443 101.591 116.308C101.739 114.681 102.982 113.527 104.579 113.475C105.985 113.429 107.364 115.122 107.226 116.779C106.955 119.996 106.658 123.208 106.373 126.423C106.345 126.745 106.315 127.067 106.264 127.651C121.69 114.697 142.238 98.1148 157.635 85.1867C157.207 85.1231 156.936 85.0714 156.663 85.0456C153.375 84.7476 150.086 84.4674 146.8 84.1495C145.292 84.0045 144.249 82.8541 144.206 81.3839C144.16 79.8401 145.161 78.5626 146.62 78.3421C146.965 78.2904 147.325 78.3182 147.675 78.35C153.635 78.8805 159.594 79.415 165.553 79.9514C167.317 80.1104 167.936 80.8475 167.778 82.6336C167.246 88.6795 166.707 94.7253 166.163 100.771C165.989 102.704 164.7 103.869 163.016 103.738C161.482 103.616 160.168 101.773 160.338 100.161C160.692 96.8055 160.952 93.4379 161.247 90.0762C161.175 90.098 125.884 119.074 110.711 131.793V131.791Z" stroke="#B3B3B3" stroke-linecap="round" stroke-linejoin="round"/>
    <path d="M155.655 69.6755L166.598 71.0842C167.954 71.2868 169.22 71.712 170.368 72.32C174.665 74.5949 177.274 79.4149 176.52 84.513L175.356 92.3927" stroke="#B3B3B3" stroke-linecap="round" stroke-linejoin="round"/>
    <path d="M111.654 147.211L100.711 145.802C99.3555 145.599 98.0888 145.174 96.9409 144.566C92.644 142.291 90.0354 137.471 90.7894 132.373L91.9532 124.494" stroke="#B3B3B3" stroke-linecap="round" stroke-linejoin="round"/>
</svg>
