<svg width="1600" height="1040" viewBox="0 0 1600 1040" fill="none" xmlns="http://www.w3.org/2000/svg">
<g clip-path="url(#clip0_1128_1286)">
<path d="M424.11 507.98C449.79 500.21 475.26 492.52 500.9 484.98L500.63 486.09L442.4 429.8L443.36 429.52C437.07 455.74 430.64 481.77 424.12 507.98C424.12 507.98 430.64 481.77 424.12 507.98H424.11ZM423.17 508.97C429.42 482.45 435.76 455.76 442.24 429.25C442.33 428.83 442.89 428.66 443.2 428.97L501.56 485.14C501.92 485.47 501.77 486.13 501.29 486.25C475.3 493.95 449.13 501.5 423.18 508.97H423.17Z" fill="white"/>
<path d="M470.45 458.21C458.1 461.97 445.91 465.6 433.47 469.1L433.709 468.16C435.039 469.19 436.17 470.43 437.38 471.57C443.87 477.88 455.92 489.62 462.5 496.07L461.209 496.44C464.139 483.66 467.26 471.05 470.45 458.2V458.21ZM471.519 457.08C468.689 470.21 465.789 483.6 462.709 496.8C462.589 497.37 461.829 497.59 461.429 497.18C454.809 490.67 442.9 478.98 436.42 472.57C435.24 471.36 433.96 470.25 432.89 468.92C432.7 468.68 432.73 468.33 432.97 468.13C445.67 464.22 458.709 460.66 471.529 457.08H471.519Z" fill="white"/>
<path d="M431.748 468.71L410.198 464.5C409.768 464.42 409.488 464 409.568 463.57C409.658 463.13 410.098 462.84 410.538 462.95L431.868 468.16C432.208 468.24 432.098 468.79 431.748 468.71Z" fill="white"/>
<path d="M463.01 498.05L469.81 519.17C469.95 519.61 469.71 520.08 469.27 520.22C468.82 520.37 468.33 520.1 468.21 519.64L462.42 498.22C462.31 497.85 462.9 497.67 463.01 498.05Z" fill="white"/>
<path d="M471.71 457.21L487.25 440.57C487.64 440.15 488.3 440.13 488.72 440.52C489.16 440.93 489.16 441.63 488.72 442.04L472.12 457.61C471.87 457.86 471.47 457.47 471.72 457.21H471.71Z" fill="white"/>
<path d="M443.099 430.1L409.959 464.08L410.719 463.27L423.889 508.67L423.319 508.13L469.249 519.66L468.779 519.8L500.469 484.01L500.139 485.33L488.859 439.63L489.359 440.11L443.109 430.11L443.099 430.1ZM442.609 428.49L489.629 438.82C489.879 438.88 490.069 439.07 490.129 439.3L502.869 484.61C503.009 485.09 502.869 485.59 502.539 485.93L469.489 520.46C469.369 520.59 469.179 520.64 469.019 520.6L422.949 509.66C422.669 509.59 422.459 509.38 422.379 509.12L408.289 464C408.289 464 408.289 463.97 408.289 463.96L409.039 463.19L442.609 428.49Z" fill="white"/>
<path d="M1093.99 864.87C1087.21 855.54 1081.15 845.42 1078.5 834.06C1075.76 822.25 1082.1 817.31 1092.64 823.69C1102.47 829.76 1110.18 838.6 1117.04 847.72C1123.72 856.95 1129.87 866.9 1132.83 878.04C1135.78 889.67 1129.59 894.26 1119.17 888.35C1109.05 882.62 1101.02 873.99 1093.99 864.88V864.87ZM1097.11 862.55C1103.74 871.36 1111.06 880.18 1120.42 886.16C1136.74 895.68 1131.36 876.36 1127.25 867.98C1120.78 854.53 1111.55 842.21 1100.45 832.25C1093.81 826.2 1077.05 815.35 1081.43 833.38C1084.4 844.04 1090.65 853.64 1097.11 862.54V862.55Z" fill="white"/>
<path d="M390.37 130.54C402.4 119.36 422.1 103.44 438.84 101.96C445.93 101.49 450.3 106.03 449.57 113.12C448.68 121.47 444.37 128.91 440.05 135.85C431.09 149.51 419.58 161.35 406.74 171.41C398.04 178.03 388.78 184.05 378.28 187.51C362.59 192.68 354.84 184.81 361.19 169.31C367.6 154.22 378.72 141.75 390.37 130.54ZM391.7 131.94C380.16 143.32 364.05 161.33 361.83 177.68C360.9 194.15 384.34 181.93 391.36 177.47C404.85 169.05 416.89 158.32 427.47 146.48C434.4 138.59 441.03 130.02 445.1 120.31C450.52 106.93 445.11 101.14 431.32 105.63C416.21 110.85 403.33 121.16 391.7 131.93V131.94Z" fill="white"/>
<path d="M368.28 186.79C368.15 186.75 524.8 268.59 522.67 267.74C528.59 267.28 524.44 260.11 523.01 256.82L520.6 251.8C499.3 208.32 472.38 155.08 450.89 111.61C450.73 111.29 450.86 110.91 451.18 110.75C451.49 110.59 451.87 110.72 452.03 111.03L472.74 150.69C488.6 181.54 510.87 224.37 526.28 255.27C527.54 257.9 529.01 260.73 529.23 263.73C529.73 268.09 526.3 271.46 521.89 270.3L367.14 188.94C366.55 188.63 366.32 187.89 366.63 187.3C366.94 186.71 367.67 186.48 368.27 186.79H368.28Z" fill="white"/>
<path d="M1148.41 780.97C1145.54 791.75 1145.19 808.23 1153.52 816.64C1157.05 819.38 1161.37 821.28 1165.84 821.58C1183.55 822.17 1196.08 798.67 1202.01 784.46C1207.3 766.76 1208.23 744.09 1200.03 727.2C1192.04 710.4 1171.69 701.93 1153.86 705.65C1130.98 710.79 1115.27 731.13 1104.44 750.7C1097.79 762.29 1093.94 777.51 1101.37 789.59C1104.96 795.36 1111.21 799.07 1117.78 800.36C1129.56 802.29 1138.51 791.77 1144.54 782.96C1149.6 775.31 1153.58 766.92 1156.74 758.29C1160.74 748.68 1158.42 740.24 1147.49 737.91C1140.92 737.17 1137.93 749.55 1136.5 754.42C1134.35 761.61 1130.88 768.41 1126.19 774.29C1124.57 776.22 1118.48 783.55 1115.89 780.92C1115.14 779.72 1115.39 778.38 1115.41 777.1C1115.87 772.02 1117.29 767.22 1119.01 762.54C1120.77 757.87 1122.96 753.37 1125.6 749.14C1135.51 732.25 1164.97 710.72 1181.2 731.17C1192.92 745.17 1191.16 765.1 1184.64 781.02C1181.91 787.9 1178.36 794.95 1172.4 799.64C1170.42 801.19 1167.98 802.44 1165.4 802.44C1165.28 802.44 1165.19 802.35 1165.19 802.23C1165.19 802.14 1165.25 802.06 1165.33 802.03C1167.62 801.14 1169.65 799.99 1171.52 798.51C1173.37 797.01 1174.99 795.22 1176.45 793.3C1182.23 785.51 1185.53 775.93 1187.41 766.47C1190.23 752.52 1186.84 735.97 1174.75 727.34C1166.35 721.88 1155.71 725.17 1147.69 729.88C1132.84 738.43 1122.83 753.76 1118.58 770.15C1117.87 773.27 1116.98 776.51 1117.36 779.68C1117.38 779.76 1117.42 779.84 1117.38 779.78C1117.27 779.64 1117.18 779.63 1117.18 779.63C1117.15 779.65 1117.41 779.6 1117.6 779.53C1117.82 779.44 1118.06 779.33 1118.29 779.2C1120.8 777.67 1122.81 775.42 1124.71 773.13C1127.74 769.37 1130.24 765.16 1132.21 760.73C1135.32 754 1136.03 746.2 1140.86 740.27C1142.39 738.24 1145.24 736.22 1147.63 736.85C1159.38 739.13 1162.88 748.42 1158.5 758.95C1153.53 771.97 1147.17 784.97 1137 794.77C1131.95 799.61 1124.73 803.45 1117.48 801.98C1110.46 800.56 1103.87 796.58 1100.07 790.4C1092.38 777.82 1096.39 762.04 1103.27 750.08C1114.29 730.15 1130.24 709.6 1153.59 704.36C1172.02 700.52 1192.95 709.3 1201.2 726.61C1207.43 739.35 1208.15 753.92 1206.7 767.77C1205.84 774.69 1204.83 781.78 1201.86 788.16C1195.14 802.92 1181.48 826.67 1162.22 822.32C1158.79 821.52 1155.43 819.78 1152.67 817.62C1146.67 811.78 1145.35 802.54 1145.26 794.54C1145.29 789.85 1145.96 785.17 1147.16 780.64C1147.38 779.82 1148.62 780.16 1148.41 780.97Z" fill="white"/>
<path d="M1182.88 734.67C1182.88 734.67 1169.88 740.33 1157.97 757.28" stroke="white" stroke-width="1.29" stroke-linecap="round" stroke-linejoin="round"/>
<path d="M1167.05 801.94C1160.91 790.56 1166.93 777.03 1173.92 767.53C1178.05 762.01 1182.06 756.09 1187.65 751.93C1188.03 751.72 1188.46 751.46 1188.93 751.54C1189.43 751.6 1189.74 752.27 1189.33 752.66C1189.08 752.91 1188.67 752.91 1188.42 752.66C1188.55 752.8 1188.71 752.83 1188.82 752.85C1188.25 753.41 1187.42 754.26 1186.85 755.04C1181.96 761.54 1177.11 768.48 1172.75 775.26C1168.23 782.94 1164.89 792.6 1168.16 801.29C1168.56 801.99 1167.51 802.68 1167.05 801.96V801.94Z" fill="white"/>
<path d="M1200.71 727.03C1214.22 721.99 1229.31 726.55 1239.47 736.3C1241.36 738.28 1243.34 740.45 1244.92 742.66C1245.94 743.87 1247.05 746 1247.98 747.31C1249.54 750.06 1251.02 753.13 1252.26 756.05C1257.66 770.28 1259.6 786.38 1254.7 801.06C1249.69 814.46 1241.35 828.72 1229.27 836.81C1222.99 841.05 1214.79 842.73 1207.46 840.4C1203.92 838.57 1201.01 836 1198.46 833.01C1190.72 824.15 1190.16 811.23 1194.09 800.58C1194.38 799.78 1195.56 800.2 1195.31 800.99C1191.78 811.25 1192.49 823.41 1199.94 831.76C1201.99 834.36 1205.77 837.19 1208.07 838.42C1213.12 839.89 1218.59 839.51 1223.39 837.38C1237.53 831.07 1247.14 814.25 1252.4 800.28C1257.15 786.27 1255.3 770.57 1250.15 756.89C1248.98 754.06 1247.58 751.07 1246.11 748.39C1244.26 745.4 1242.28 742.26 1239.87 739.7L1238.07 737.73C1231.03 730.96 1221.58 726.4 1211.7 726.48C1208.15 726.52 1204.51 727.02 1201.22 728.21C1200.43 728.59 1199.88 727.34 1200.71 727.02V727.03Z" fill="white"/>
<path d="M1205.9 745.8C1214.78 742.5 1224.61 746.72 1230.56 753.57C1240.93 765.34 1239.21 792.07 1231.83 805.05C1228.97 809.82 1220.42 826.4 1213.6 822.45C1213.51 822.38 1213.48 822.25 1213.55 822.16C1213.6 822.09 1213.69 822.06 1213.76 822.08C1215.87 822.46 1217.56 821.27 1219.14 819.95C1223.86 815.58 1226.87 809.66 1229.92 804.02C1233.91 796.46 1234.89 787.6 1235.1 779.15C1235.3 765.94 1231.6 753.46 1218.61 747.92C1214.77 746.44 1210.34 745.96 1206.35 747C1205.57 747.29 1205.1 746.1 1205.89 745.79L1205.9 745.8Z" fill="white"/>
<path d="M1203.15 780.76C1208.44 772.98 1214.51 765.73 1221.52 759.43C1223.86 757.34 1226.35 755.41 1228.94 753.61C1229.23 753.41 1229.64 753.48 1229.84 753.77C1230.05 754.07 1229.97 754.48 1229.66 754.68C1219.54 761.8 1211.24 771.33 1204.23 781.46C1203.78 782.17 1202.67 781.48 1203.15 780.76Z" fill="white"/>
<path d="M1236.64 774.46C1230.88 778.54 1225.29 783.29 1221.35 789.19C1217.73 795.2 1215.24 802.17 1214.11 809.08C1213.78 811.41 1213.65 813.77 1214 816.04C1214.33 818.29 1215.25 820.47 1217 821.85C1217.28 822.07 1217.33 822.48 1217.11 822.76C1216.9 823.03 1216.51 823.08 1216.23 822.89C1214.05 821.4 1212.86 818.84 1212.38 816.33C1210.93 807.18 1214.94 795.86 1219.63 788.07C1223.8 781.92 1229.66 777.16 1235.96 773.36C1236.67 772.95 1237.34 774 1236.63 774.46H1236.64Z" fill="white"/>
<path d="M1246.95 747.55C1259.94 742.45 1274.71 747.23 1284.86 756.02C1295.74 764.45 1300.56 778.64 1301.1 791.94C1301.81 814.01 1295.79 837.89 1279.31 853.43C1275.94 856.43 1271.95 858.91 1267.47 860.04C1258.56 862.35 1248.16 858.7 1243.46 850.63C1238.83 842.69 1238.61 833.15 1240 824.32C1240.06 823.97 1240.39 823.73 1240.75 823.79C1241.1 823.85 1241.33 824.18 1241.28 824.53C1240.02 832.94 1240.33 842.38 1244.8 849.82C1249.21 857.23 1258.88 860.46 1267.05 858.34C1271.18 857.28 1274.92 854.96 1278.13 852.08C1294.09 836.92 1299.86 813.48 1299.09 792.05C1298.45 777.63 1293.05 764.06 1280.97 755.63C1274.99 751.12 1267.73 747.93 1260.22 747.31C1255.98 746.95 1251.49 747.31 1247.49 748.73C1246.7 749.11 1246.15 747.88 1246.97 747.55H1246.95Z" fill="white"/>
<path d="M1253.92 764.01C1261.37 764.49 1269.15 766.54 1274.69 771.83C1278.92 776.05 1280.57 782.07 1282.1 787.66C1285.29 800.44 1284.01 815.34 1276.91 826.24C1272.64 833.23 1266.08 840.91 1257.19 840.75C1257.04 840.75 1256.92 840.61 1256.92 840.45C1256.92 840.31 1257.04 840.2 1257.18 840.18C1265.36 839.04 1270.89 831.7 1274.88 825.09C1281.88 814.25 1282.72 800.52 1279.91 788.16C1278.47 782.54 1276.89 776.39 1272.45 772.39C1267.41 767.99 1260.54 765.99 1253.85 765.28C1253.02 765.25 1253.04 763.95 1253.91 763.99L1253.92 764.01Z" fill="white"/>
<path d="M1282.28 793.07C1274.85 798.72 1267.9 805.18 1264.05 813.84C1261.05 820.02 1257.81 826.59 1258.3 833.55C1258.5 835.78 1259.34 837.9 1260.81 839.59C1261.04 839.86 1261.02 840.27 1260.75 840.5C1260.49 840.72 1260.1 840.71 1259.87 840.47C1258.08 838.69 1257.01 836.22 1256.68 833.75C1255.83 826.38 1259.14 819.32 1262.21 812.92C1266.06 804.03 1273.52 797.16 1281.56 792C1282.25 791.57 1282.96 792.59 1282.28 793.07Z" fill="white"/>
<path d="M1274.74 774.25C1271.19 777.01 1267.68 779.88 1264.39 782.95C1261.25 785.96 1257.85 789.2 1256.13 793.21C1255.86 793.99 1254.65 793.6 1254.91 792.8C1256.48 788.27 1259.9 784.92 1263.21 781.69C1266.57 778.56 1270.16 775.72 1274 773.19C1274.68 772.75 1275.4 773.76 1274.74 774.25Z" fill="white"/>
<path d="M1294.23 766.64C1321.12 761.1 1340.54 779.9 1346.16 804.99C1347.81 812.7 1347.86 821.58 1345.78 828.78C1344.41 833.72 1342.62 839.15 1338 842.01C1334.93 843.8 1330.97 842.51 1328.5 840.25C1325.29 837.08 1325.23 832.44 1325.25 828.35C1325.31 824.38 1325.75 820.44 1325.79 816.62C1325.87 805.5 1321.76 792.66 1310.69 788.12C1307.25 786.64 1303.25 785.93 1299.56 786.54C1299.21 786.6 1298.88 786.37 1298.81 786.02C1298.75 785.67 1298.98 785.34 1299.33 785.27C1305.45 784.22 1311.63 786.11 1316.54 789.7C1324.77 795.86 1327.75 806.74 1327.86 816.62C1327.86 820.64 1327.45 824.51 1327.44 828.38C1327.4 832.66 1327.69 838.15 1332.2 839.89L1333.44 840.31C1335.44 840.87 1337.28 839.95 1338.73 838.27C1342.26 833.91 1343.62 828.1 1344.46 822.6C1346.69 804.46 1337.97 782.73 1322.08 773.04C1313.89 768.18 1303.88 766.49 1294.49 767.89C1293.69 768.09 1293.34 766.83 1294.2 766.63L1294.23 766.64Z" fill="white"/>
<path d="M894.56 757.6C808.24 746.33 692.8 731.48 606.9 720.15C579.93 717.71 555.12 699.85 544.43 674.95C538.95 662.64 536.91 648.86 538.46 635.49C545.37 587.47 572.3 406.87 578.87 361.5C580.19 353.31 583.36 330.4 584.63 322.36C587.42 300.02 600.66 279.24 619.86 267.44C635.07 257.82 653.77 253.94 671.55 256.61L880.87 282.99C899.81 285.43 944.1 290.91 962.64 293.28C979.52 295.48 995.53 303.6 1007.35 315.84C1025 333.69 1032.58 360.24 1027.73 384.78C1012.61 486.36 996.56 589.5 981.42 691.17C976.32 733.08 936.61 764.12 894.56 757.6ZM895.21 752.91C934.79 759.16 973.45 730.75 978.26 690.7C993.25 588.99 1007.88 485.69 1022.88 384.06C1029.4 351.98 1013.05 318.34 983.31 304.33C975.62 300.6 967.23 298.38 958.73 297.48C905.36 290.52 727.28 267.3 671.08 259.98C654.03 257.43 636.23 261.1 621.68 270.34C603.3 281.7 590.82 301.49 588.09 322.88C586.98 330.87 583.43 353.65 582.24 362C575.63 406.68 548.36 588.51 541.5 635.84C540 648.66 542.06 661.89 547.36 673.65C557.76 697.49 581.51 714.42 607.4 716.62C693.21 727.54 809.02 741.82 895.22 752.92L895.21 752.91Z" fill="white"/>
<path d="M593.011 720.87C608.911 733.38 627.151 743.45 646.671 748.86C654.821 751.38 668.141 752.36 676.751 753.36L707.271 756.74C770.311 763.35 872.271 775.18 934.291 781.84C968.511 786.79 1009.57 780.02 1029.15 748.59C1035.12 739.24 1038.93 728.46 1041.06 717.5C1041.53 715.27 1042.79 708.57 1043.28 706.22C1061.19 612.48 1078.91 513.32 1095.64 419.32L1096.96 411.79C1098.13 404.41 1097.7 396.89 1095.75 389.64C1091.61 374.29 1085.35 357.67 1071.29 349.05C1040.99 332.55 1010.03 317.23 979.181 301.78C978.341 301.36 978.001 300.34 978.411 299.5C978.831 298.66 979.861 298.31 980.701 298.74C1008.11 312.61 1035.54 326.42 1062.74 340.71C1067.27 343.23 1072.06 345.37 1076.28 348.43C1088.95 358.19 1095 373.96 1098.98 388.82C1101.03 396.4 1101.53 404.53 1100.28 412.32C1083.68 509.99 1067.17 610.08 1048.78 707.3C1048.32 709.51 1047.04 716.41 1046.59 718.62C1044.29 730.21 1040.26 741.55 1033.8 751.61C1012.97 784.87 969.831 792.42 933.581 787.05C852.551 777.91 742.331 764.59 661.071 754.94C640.461 752.32 621.211 743.12 604.351 731.27C600.161 728.28 596.071 725.17 592.241 721.7C592.021 721.5 592.001 721.15 592.201 720.93C592.401 720.71 592.741 720.69 592.961 720.88L593.011 720.87Z" fill="white"/>
<path d="M501.98 364.71C485.33 364.84 467.79 349.48 454.13 341.03C441.53 333.1 426.82 323.82 418.47 341.98C410.23 360.17 405.32 380.4 393.47 396.88C380.8 414.38 363.2 416.14 344.02 408.79C337.39 405.23 331.13 401.08 324.93 396.93C315.74 390.92 306.9 384.09 296.56 380.35C275.29 372.53 269.73 400.52 266.85 415.7C265.57 423 263.89 430.29 261.07 437.24C258.55 443.97 252.15 455.06 243.83 448.7C240.6 446.03 239.27 442.13 238.25 438.31C236.84 432.72 236.91 427.04 236.81 421.37C236.5 415.73 236.99 410.09 238.13 404.55C245.25 365.33 270.74 340.92 311.2 356.87C328.23 364.32 340.09 380.59 358.03 385.99C370.25 388.06 377.43 381.35 381.3 369.8C385.86 357.06 385.98 342.32 392.66 330.01C407.6 302.42 431.33 299.66 457.91 312.92C467.87 317.82 477.07 324.04 485.98 330.59C489.02 332.71 491.84 335.26 494.98 337.17C502.83 341.19 512.05 336.13 520.17 339.44C526.91 342.23 530.97 352.03 526 358.06C519.95 364.88 510.29 364.52 501.99 364.71H501.98ZM501.94 363.08C504.67 363.06 507.38 362.69 510.03 362.18C515.03 361.08 520.68 360.32 524.39 356.67C528.12 352.92 526.19 346.44 522.57 343.22C520.72 341.46 518.28 340.55 515.68 340.34C508.94 339.75 500.68 342.69 493.91 339.17C490.57 337.24 487.7 334.69 484.52 332.54C475.64 326.21 466.46 320.2 456.61 315.54C431.35 303.42 409.66 305.62 395.22 331.52C388.48 343.45 388.12 357.52 383.23 370.5C379.08 382.7 370.9 390.21 357.42 387.92C337.54 382.19 324.7 363.51 304.86 358.01C262.35 345.77 245.15 379.55 240.56 416.11C238.91 423.2 238.67 430.64 240.81 437.59C242.03 441.57 244.81 448.15 249.67 447.77C257.46 445.96 261.18 433.18 263.07 426.21C267.62 408.28 269.48 369.43 297.22 378.25C307.89 381.89 316.99 388.82 326.3 394.83C332.16 398.78 339.38 403.29 344.92 406.29C362.72 412.93 379.41 411.59 390.79 394.94C400.82 380.35 405.09 362.69 411.46 346.23C413 342.1 414.74 337.58 417.77 333.69C428.56 319.55 445.35 329.4 456.49 337.55C469.64 346.55 485.62 362.7 501.92 363.09L501.94 363.08Z" fill="white"/>
<path d="M1328.62 624.95C1327.44 618.56 1326.73 611.84 1328.51 605.42C1329.62 601.3 1333.21 597.79 1337.38 600.89C1340.15 603.03 1341.67 606.25 1342.95 609.32C1345.94 617.38 1347.4 626.05 1346.9 634.64C1346.53 638.43 1346.04 644.85 1341.63 646.08C1334.37 646.72 1329.68 630.61 1328.6 624.95H1328.62ZM1330.59 624.6C1331.62 630.71 1333.21 637.01 1336.8 642.13C1342.93 650.13 1345.79 640.23 1345.97 634.58C1346.27 626.25 1344.66 617.66 1341.07 610.16C1330.44 589.76 1328.63 615.37 1330.59 624.61V624.6Z" fill="white"/>
<path d="M1160.45 674.68C1155.42 675.45 1152.48 669.14 1150.71 665.45C1147.37 657.35 1146.39 648.6 1146.76 639.93C1146.98 636.65 1146.96 633.07 1148.87 630.14C1149.58 629.1 1150.83 628.14 1152.17 628.22C1152.55 628.25 1152.84 628.57 1152.81 628.95C1152.79 629.22 1152.63 629.42 1152.4 629.54C1150.9 630.52 1150.28 632.27 1149.72 633.98C1147.87 639.91 1149.01 646.37 1150.19 652.36C1151.23 657.01 1154.9 672.29 1160.14 672.67C1161.35 672.61 1161.61 674.39 1160.44 674.68H1160.45Z" fill="white"/>
<path d="M1342.2 646.39L1160.92 674.58C1160.37 674.66 1159.86 674.29 1159.78 673.75C1159.7 673.2 1160.07 672.69 1160.62 672.61L1341.99 644.93C1342.4 644.87 1342.77 645.15 1342.84 645.55C1342.91 645.95 1342.63 646.33 1342.22 646.39H1342.2Z" fill="white"/>
<path d="M1332.9 602.89L1151.45 630C1150.93 630.08 1150.45 629.72 1150.37 629.2C1150.29 628.68 1150.65 628.2 1151.16 628.12L1332.36 599.36C1334.63 599.04 1335.3 602.46 1332.9 602.89Z" fill="white"/>
<path d="M667.971 626.18C668.481 625.79 668.841 624.94 668.741 624.26C668.721 623.28 667.591 622.31 666.811 622.31L667.201 622.35C669.501 622.54 675.061 623.12 677.461 623.33C685.291 624.05 707.201 626.18 715.361 626.95C717.351 627.11 719.891 627.38 722.191 628.22C729.551 630.56 734.081 638.18 733.381 645.73C733.161 653.99 726.301 661.06 718.051 661.67C716.381 661.86 714.501 661.67 712.861 661.51C689.761 659.3 647.241 655.31 624.481 653.15C616.551 652.82 609.811 649.88 609.721 640.76C609.721 638.35 610.031 636.36 610.201 634.23C610.991 626.49 612.971 604.45 613.781 596.36L618.551 545.86C619.021 538.97 624.121 532.55 630.931 530.91C640.571 527.76 649.241 536.9 649.831 546.08C649.951 548.09 649.641 550.62 649.481 552.61L645.191 603.16L642.521 601.76C728.611 529.99 816.191 460.04 902.281 388.28C902.291 388.26 902.931 390.58 902.941 390.57C899.521 389.96 893.951 389.47 890.411 389.16C880.681 388.28 859.291 386.3 849.371 385.4C834.831 384.88 829.031 367.7 838.971 357.72C842.241 354.49 847.041 353.07 851.551 353.56C867.991 355.12 911.361 359.06 927.331 360.52L939.961 361.63C946.911 362.09 954.471 362.91 955.451 371.54C955.981 375.61 954.511 386.45 954.291 390.73L952.231 416.01L948.081 466.56C947.891 470.85 946.641 475.72 943.471 479.31C940.351 482.96 935.371 484.88 930.631 484.58C923.261 484.2 917.741 477.84 915.761 471.17C915.091 468.96 914.841 466.54 915.101 464.22L916.131 451.59C916.551 445.32 917.631 432.59 918.071 426.32L918.561 420L918.801 416.84C918.921 415.79 918.861 414.72 919.211 413.69L921.991 415.97C921.581 416.45 921.191 416.86 920.741 417.24C919.611 418.18 916.041 421.2 914.841 422.21C840.841 484.44 758.551 551.68 683.831 612.92C681.921 614.48 673.911 621.12 671.881 622.78L669.891 624.42C669.201 624.94 668.611 625.58 667.981 626.17L667.971 626.18ZM664.101 621.55C745.141 553.89 829.051 484.12 911.851 418.58C914.071 416.89 918.291 413.35 920.751 411.8C921.621 411.24 922.781 411.5 923.341 412.37C923.681 412.91 923.701 413.51 923.521 414.08C923.681 415.8 923.141 418.64 923.031 420.41C922.151 429.44 920.661 442.89 919.751 451.96L918.501 464.58C917.651 471.67 923.511 480.29 930.811 480.72C939.491 481.24 944.201 474.31 944.571 466.23C946.121 449.8 950.371 406.47 951.911 390.51L953.101 377.89C953.531 374.03 953.871 369.63 951.071 366.76C948.271 364.06 943.481 363.99 939.751 363.62C932.001 362.96 909.961 360.93 901.861 360.26L851.351 355.94C847.451 355.52 843.431 356.68 840.621 359.46C834.931 364.77 835.031 375.33 841.391 380.07C844.601 382.74 848.651 382.84 852.731 383.19C860.861 383.96 882.691 385.83 890.611 386.57C892.321 386.83 898.301 387.13 900.101 387.51L903.281 387.96C904.361 388.11 904.811 389.57 903.931 390.26C817.981 462.19 730.531 532.32 644.591 604.24C643.561 605.17 641.711 604.24 641.921 602.84C642.221 599.41 647.211 547.77 647.001 546.24C646.541 539.92 641.401 532.61 634.491 533.07C627.581 533.36 621.751 539.17 621.331 546.1C619.971 562.57 616.241 605.91 614.921 621.91L613.851 634.54C612.841 642.95 613.111 648.52 623.271 649.1C647.431 651.16 690.281 654.75 714.861 656.77C717.941 657 721.191 656.29 723.651 654.4C729.381 650.4 729.791 640.54 724.841 635.89C722.081 633.24 718.771 632.6 714.821 632.34L689.581 630.22C685.771 629.8 674.411 629.03 670.631 628.64L667.471 628.38L666.681 628.31L666.291 628.28C666.291 628.28 665.891 628.24 665.631 628.18C662.661 627.46 661.711 623.43 664.111 621.54L664.101 621.55Z" fill="white"/>
<path d="M893.35 309.36C908.61 312.29 924.82 314 940.25 315.78C942.41 316.01 947.03 316.43 949.11 316.67C954.15 317.41 959.06 318.78 963.77 320.73C991.32 332.28 1006.6 361.63 1000.63 390.87C998.93 402.59 997.14 414.28 994.52 425.85C994.29 426.87 993.27 427.51 992.25 427.27C991.33 427.06 990.72 426.21 990.78 425.29C991.62 413.46 993.31 401.75 995.08 390.04C1001.89 358.62 983.28 327.52 951.41 320.64C943.85 319.22 935.85 318.03 928.14 317.12C916.83 315.41 904.26 313.82 892.88 313.1C890.32 312.87 890.68 308.96 893.36 309.35L893.35 309.36Z" fill="white"/>
<path d="M670.57 703.35C655.31 700.41 639.1 698.71 623.67 696.93C621.51 696.7 616.89 696.28 614.81 696.04C609.77 695.3 604.86 693.93 600.15 691.98C572.6 680.43 557.32 651.08 563.29 621.84C564.99 610.12 566.78 598.43 569.4 586.86C569.63 585.84 570.65 585.2 571.67 585.44C572.59 585.65 573.2 586.5 573.14 587.42C572.3 599.25 570.61 610.96 568.84 622.67C562.03 654.09 580.64 685.18 612.51 692.07C620.07 693.49 628.07 694.68 635.78 695.59C647.09 697.3 659.66 698.89 671.04 699.61C673.6 699.84 673.24 703.75 670.56 703.36L670.57 703.35Z" fill="white"/>
</g>
<defs>
<clipPath id="clip0_1128_1286">
<rect width="1600" height="1040" fill="white"/>
</clipPath>
</defs>
</svg>
