<svg viewBox="0 0 221 160" fill="none" xmlns="http://www.w3.org/2000/svg">
    <path d="M37.7334 82.8634L53.0625 78.3216L41.5256 67.1497L37.7334 82.8634Z" stroke="#B3B3B3" stroke-linecap="round" stroke-linejoin="round"/>
    <path d="M47.1047 72.7645L39.6489 74.9341L45.3174 80.5091L47.1047 72.7645Z" stroke="#B3B3B3" stroke-linecap="round" stroke-linejoin="round"/>
    <path d="M39.3509 74.9103L35.1074 73.9745" stroke="#B3B3B3" stroke-linecap="round" stroke-linejoin="round"/>
    <path d="M45.4692 80.811L46.7142 85.0349" stroke="#B3B3B3" stroke-linecap="round" stroke-linejoin="round"/>
    <path d="M47.29 72.7187L50.4707 69.52" stroke="#B3B3B3" stroke-linecap="round" stroke-linejoin="round"/>
    <path d="M41.5382 67.1339L34.9375 73.9546L37.6352 82.9469L46.7376 85.18L53.1464 78.1944L50.7673 69.1525L41.5382 67.1339Z" stroke="#B3B3B3" stroke-linecap="round" stroke-linejoin="round"/>
    <path d="M177.626 158.465C178.761 157.618 177.509 154 174.83 150.386C172.151 146.771 169.059 144.528 167.924 145.375C166.789 146.223 168.041 149.84 170.72 153.455C173.399 157.07 176.491 159.313 177.626 158.465Z" stroke="#B3B3B3" stroke-linecap="round" stroke-linejoin="round"/>
    <path d="M36.5649 13.4966C41.148 9.12617 43.6805 4.33337 42.2215 2.7916C40.7625 1.24983 35.8644 3.54292 31.2813 7.91335C26.6982 12.2838 24.1657 17.0766 25.6247 18.6183C27.0837 20.1601 31.9818 17.867 36.5649 13.4966Z" stroke="#B3B3B3" stroke-linecap="round" stroke-linejoin="round"/>
    <path d="M26.666 19.1661L57.3084 35.305C57.3084 35.305 58.9491 35.4659 57.9912 33.2745C57.0332 31.083 43.242 3.95709 43.242 3.95709" stroke="#B3B3B3" stroke-linecap="round" stroke-linejoin="round"/>
    <path d="M181.059 136.973C180.109 140.577 181.134 143.523 182.249 144.304C187.511 147.991 191.284 139.311 191.897 137.779C192.457 136.382 194.971 125.139 187.026 122.29C179.082 119.441 173.558 128.252 171.765 132.129C169.972 136.005 171.048 140.08 174.929 140.988C178.811 141.896 181.954 135.643 183.119 132.234C184.287 128.825 181.012 128.342 181.012 128.342C181.012 128.342 179.688 127.867 178.724 131.417C177.76 134.968 175.317 137.183 174.912 136.899C174.508 136.615 175.448 130.935 179.486 127.724C179.486 127.724 184.36 123.48 187.401 127.025C188.541 128.354 189.053 129.83 189.192 131.284C189.423 133.708 188.62 136.073 187.967 137.588C187.472 138.737 186.255 140.918 184.537 141.224" stroke="#B3B3B3" stroke-linecap="round" stroke-linejoin="round"/>
    <path d="M188.004 127.805C188.004 127.805 185.431 128.93 183.074 132.298" stroke="#B3B3B3" stroke-linecap="round" stroke-linejoin="round"/>
    <path d="M184.982 141.105C184.982 141.105 183.565 138.735 186.247 134.879C188.929 131.02 189.194 131.288 189.194 131.288" stroke="#B3B3B3" stroke-linecap="round" stroke-linejoin="round"/>
    <path d="M191.585 126.407C191.585 126.407 194.942 124.966 198.441 127.72C201.94 130.474 203.648 137.104 201.774 141.528C199.902 145.953 196.673 149.73 192.935 148.619C192.935 148.619 188.507 146.472 190.348 140.944" stroke="#B3B3B3" stroke-linecap="round" stroke-linejoin="round"/>
    <path d="M192.606 130.138C192.606 130.138 194.987 129.226 197.194 131.678C199.401 134.129 198.599 139.607 197.673 141.373C196.747 143.14 195.254 145.717 194.102 145.212" stroke="#B3B3B3" stroke-linecap="round" stroke-linejoin="round"/>
    <path d="M192.125 137.034C192.125 137.034 194.348 133.609 197.194 131.678" stroke="#B3B3B3" stroke-linecap="round" stroke-linejoin="round"/>
    <path d="M198.579 135.602C198.579 135.602 196.188 137.07 195.203 138.943C194.217 140.817 193.235 144.159 194.684 145.228" stroke="#B3B3B3" stroke-linecap="round" stroke-linejoin="round"/>
    <path d="M200.737 130.482C200.737 130.482 204.472 128.817 208.514 132.61C212.555 136.4 211.172 143.583 210.085 146.446C208.998 149.307 206.235 153.713 202.295 152.462C198.352 151.21 199.433 145.645 199.433 145.645" stroke="#B3B3B3" stroke-linecap="round" stroke-linejoin="round"/>
    <path d="M202.061 133.764C202.061 133.764 205.562 133.917 206.677 136.208C207.791 138.498 208.48 142.713 206.415 145.891C206.415 145.891 204.836 148.806 202.714 148.83" stroke="#B3B3B3" stroke-linecap="round" stroke-linejoin="round"/>
    <path d="M207.606 139.301C207.606 139.301 205.208 140.914 204.281 142.679C203.355 144.445 201.936 147.23 203.337 148.736" stroke="#B3B3B3" stroke-linecap="round" stroke-linejoin="round"/>
    <path d="M206.112 135.564C206.112 135.564 202.91 137.811 202.381 139.395" stroke="#B3B3B3" stroke-linecap="round" stroke-linejoin="round"/>
    <path d="M210.073 134.282C210.073 134.282 215.159 133.09 218.277 137.69C221.396 142.289 220.006 146.45 220.006 146.45C220.006 146.45 219.336 149.474 217.732 149.019C216.129 148.564 216.369 146.921 216.487 144.588C216.606 142.256 215.872 139.897 214.235 138.767C212.598 137.636 211.086 137.984 211.086 137.984" stroke="#B3B3B3" stroke-linecap="round" stroke-linejoin="round"/>
    <path d="M131.003 131.896L73.2608 124.467C71.5745 124.217 69.9971 123.688 68.5681 122.935C63.1608 120.09 59.8753 114.036 60.8214 107.631L69.9812 45.6443C71.1767 37.5481 78.6859 31.9572 86.7512 33.1592L144.493 40.5879C146.193 40.8402 147.781 41.3747 149.219 42.1376C154.607 44.9907 157.877 51.0326 156.933 57.4241L147.773 119.411C146.577 127.507 139.068 133.098 131.003 131.896V131.896Z" stroke="#B3B3B3" stroke-linecap="round" stroke-linejoin="round"/>
    <path d="M71.1851 125.145C71.1851 125.145 77.3602 130.628 84.717 131.502C87.2385 131.802 137.39 137.566 138.554 137.671C139.718 137.779 157.228 140.95 160.476 124.558C163.33 110.154 169.784 72.7345 171.306 63.8713C171.555 62.417 171.51 60.9269 171.164 59.4924C170.506 56.7645 169.03 52.5405 165.992 50.8517C161.337 48.2669 147.842 41.4958 147.842 41.4958" stroke="#B3B3B3" stroke-linecap="round" stroke-linejoin="round"/>
    <path d="M53.2355 54.1382C47.2127 54.2734 39.464 41.7107 36.0538 50.0712C33.1978 57.0728 31.6243 66.3551 22.0647 62.8107C14.7316 58.841 8.77021 51.015 6.52181 64.5829C4.79395 74.3024 0.698932 71.7791 1.01759 65.775C1.42531 58.1258 5.0651 49.4673 15.0087 52.8866C18.5891 54.2654 20.9998 57.6311 24.6851 58.7218C30.7594 59.6596 29.6649 51.1143 31.8776 47.5162C36.8732 38.5537 45.463 44.3095 51.373 48.7957C53.4017 50.3176 56.2221 48.0606 57.7976 50.3176C57.8847 50.4328 60.2597 53.9853 53.2335 54.1422L53.2355 54.1382Z" stroke="#B3B3B3" stroke-linecap="round" stroke-linejoin="round"/>
    <path d="M219.418 110.085C220.292 109.929 220.65 107.825 220.217 105.385C219.784 102.946 218.725 101.095 217.851 101.251C216.977 101.408 216.619 103.512 217.052 105.951C217.485 108.39 218.544 110.241 219.418 110.085Z" stroke="#B3B3B3" stroke-linecap="round" stroke-linejoin="round"/>
    <path d="M183.529 115.688C182.654 115.845 181.689 113.944 181.255 111.504C180.822 109.064 181.077 106.944 181.952 106.789" stroke="#B3B3B3" stroke-linecap="round" stroke-linejoin="round"/>
    <path d="M219.517 110.121L183.627 115.672" stroke="#B3B3B3" stroke-linecap="round" stroke-linejoin="round"/>
    <path d="M217.646 101.274L181.757 106.825" stroke="#B3B3B3" stroke-linecap="round" stroke-linejoin="round"/>
    <path d="M85.7111 105.791C85.6003 105.885 85.6577 106.063 85.8002 106.075C88.383 106.308 91.059 106.548 93.7369 106.787C94.4415 106.85 95.1461 106.904 95.8507 106.979C97.6339 107.166 98.7067 108.497 98.5246 110.283C98.3623 111.859 97.0184 112.96 95.3578 112.819C91.7161 112.509 88.0763 112.171 84.4365 111.845C81.9704 111.625 79.5042 111.408 77.0381 111.18C75.5062 111.036 74.8155 110.228 74.95 108.712C75.4904 102.577 76.0347 96.4433 76.5908 90.3081C76.7393 88.6809 77.9822 87.5265 79.5795 87.4749C80.9847 87.4292 82.3642 89.1219 82.2257 90.7789C81.9545 93.9956 81.6576 97.2083 81.3726 100.423C81.3449 100.745 81.3152 101.067 81.2638 101.651C96.6899 88.6968 117.238 72.1148 132.635 59.1867C132.207 59.1231 131.936 59.0714 131.663 59.0456C128.375 58.7476 125.086 58.4674 121.8 58.1495C120.292 58.0045 119.249 56.8541 119.206 55.3839C119.16 53.8401 120.161 52.5626 121.62 52.3421C121.965 52.2904 122.325 52.3182 122.675 52.35C128.635 52.8805 134.594 53.415 140.553 53.9514C142.317 54.1104 142.936 54.8475 142.778 56.6336C142.246 62.6795 141.707 68.7253 141.163 74.7712C140.989 76.7044 139.7 77.8686 138.016 77.7375C136.482 77.6163 135.168 75.7726 135.338 74.1612C135.692 70.8055 135.952 67.4379 136.247 64.0762C136.175 64.098 100.884 93.0737 85.7111 105.793V105.791Z" stroke="#B3B3B3" stroke-linecap="round" stroke-linejoin="round"/>
    <path d="M130.655 43.6755L141.598 45.0841C142.954 45.2868 144.22 45.712 145.368 46.3199C149.665 48.5948 152.274 53.4148 151.52 58.513L150.356 66.3927" stroke="#B3B3B3" stroke-linecap="round" stroke-linejoin="round"/>
    <path d="M86.6544 121.211L75.7113 119.802C74.3555 119.599 73.0888 119.174 71.9409 118.566C67.644 116.291 65.0354 111.471 65.7894 106.373L66.9532 98.4936" stroke="#B3B3B3" stroke-linecap="round" stroke-linejoin="round"/>
</svg>
