<svg viewBox="0 0 1112 790" fill="none" xmlns="http://www.w3.org/2000/svg">
    <path d="M188.11 406.98C213.79 399.21 239.26 391.52 264.9 383.98L264.63 385.09L206.4 328.8L207.36 328.52C201.07 354.74 194.64 380.77 188.12 406.98C188.12 406.98 194.64 380.77 188.12 406.98H188.11ZM187.17 407.97C193.42 381.45 199.76 354.76 206.24 328.25C206.33 327.83 206.89 327.66 207.2 327.97L265.56 384.14C265.92 384.47 265.77 385.13 265.29 385.25C239.3 392.95 213.13 400.5 187.18 407.97H187.17Z" fill="white"/>
    <path d="M234.45 357.21C222.1 360.97 209.91 364.6 197.47 368.1L197.709 367.16C199.039 368.19 200.17 369.43 201.38 370.57C207.87 376.88 219.92 388.62 226.5 395.07L225.209 395.44C228.139 382.66 231.26 370.05 234.45 357.2V357.21ZM235.519 356.08C232.689 369.21 229.789 382.6 226.709 395.8C226.589 396.37 225.829 396.59 225.429 396.18C218.809 389.67 206.9 377.98 200.42 371.57C199.24 370.36 197.96 369.25 196.89 367.92C196.7 367.68 196.73 367.33 196.97 367.13C209.67 363.22 222.709 359.66 235.529 356.08H235.519Z" fill="white"/>
    <path d="M195.748 367.71L174.198 363.5C173.768 363.42 173.488 363 173.568 362.57C173.658 362.13 174.098 361.84 174.538 361.95L195.868 367.16C196.208 367.24 196.098 367.79 195.748 367.71Z" fill="white"/>
    <path d="M227.01 397.05L233.81 418.17C233.95 418.61 233.71 419.08 233.27 419.22C232.82 419.37 232.33 419.1 232.21 418.64L226.42 397.22C226.31 396.85 226.9 396.67 227.01 397.05V397.05Z" fill="white"/>
    <path d="M235.71 356.21L251.25 339.57C251.64 339.15 252.3 339.13 252.72 339.52C253.16 339.93 253.16 340.63 252.72 341.04L236.12 356.61C235.87 356.86 235.47 356.47 235.72 356.21H235.71Z" fill="white"/>
    <path d="M207.099 329.1L173.959 363.08L174.719 362.27L187.889 407.67L187.319 407.13L233.249 418.66L232.779 418.8L264.469 383.01L264.139 384.33L252.859 338.63L253.359 339.11L207.109 329.11L207.099 329.1ZM206.609 327.49L253.629 337.82C253.879 337.88 254.069 338.07 254.129 338.3L266.869 383.61C267.009 384.09 266.869 384.59 266.539 384.93L233.489 419.46C233.369 419.59 233.179 419.64 233.019 419.6L186.949 408.66C186.669 408.59 186.459 408.38 186.379 408.12L172.289 363C172.289 363 172.289 362.97 172.289 362.96L173.039 362.19L206.609 327.49Z" fill="white"/>
    <path d="M857.989 763.87C851.209 754.54 845.149 744.42 842.499 733.06C839.759 721.25 846.099 716.31 856.639 722.69C866.469 728.76 874.179 737.6 881.039 746.72C887.719 755.95 893.869 765.9 896.829 777.04C899.779 788.67 893.589 793.26 883.169 787.35C873.049 781.62 865.019 772.99 857.989 763.88V763.87ZM861.109 761.55C867.739 770.36 875.059 779.18 884.419 785.16C900.739 794.68 895.359 775.36 891.249 766.98C884.779 753.53 875.549 741.21 864.449 731.25C857.809 725.2 841.049 714.35 845.429 732.38C848.399 743.04 854.649 752.64 861.109 761.54V761.55Z" fill="white"/>
    <path d="M154.37 29.5401C166.4 18.3601 186.1 2.44009 202.84 0.960085C209.93 0.490085 214.3 5.03009 213.57 12.1201C212.68 20.4701 208.37 27.9101 204.05 34.8501C195.09 48.5101 183.58 60.3501 170.74 70.4101C162.04 77.0301 152.78 83.0501 142.28 86.5101C126.59 91.6801 118.84 83.8101 125.19 68.3101C131.6 53.2201 142.72 40.7501 154.37 29.5401V29.5401ZM155.7 30.9401C144.16 42.3201 128.05 60.3301 125.83 76.6801C124.9 93.1501 148.34 80.9301 155.36 76.4701C168.85 68.0501 180.89 57.3201 191.47 45.4801C198.4 37.5901 205.03 29.0201 209.1 19.3101C214.52 5.93008 209.11 0.140083 195.32 4.63008C180.21 9.85008 167.33 20.1601 155.7 30.9301V30.9401Z" fill="white"/>
    <path d="M132.28 85.7901C132.15 85.7501 288.8 167.59 286.67 166.74C292.59 166.28 288.44 159.11 287.01 155.82L284.6 150.8C263.3 107.32 236.38 54.0801 214.89 10.6101C214.73 10.2901 214.86 9.91012 215.18 9.75012C215.49 9.59012 215.87 9.72011 216.03 10.0301L236.74 49.6901C252.6 80.5401 274.87 123.37 290.28 154.27C291.54 156.9 293.01 159.73 293.23 162.73C293.73 167.09 290.3 170.46 285.89 169.3L131.14 87.9401C130.55 87.6301 130.32 86.8901 130.63 86.3001C130.94 85.7101 131.67 85.4801 132.27 85.7901H132.28Z" fill="white"/>
    <path d="M912.41 679.97C909.54 690.75 909.19 707.23 917.52 715.64C921.05 718.38 925.37 720.28 929.84 720.58C947.55 721.17 960.08 697.67 966.01 683.46C971.3 665.76 972.23 643.09 964.03 626.2C956.04 609.4 935.69 600.93 917.86 604.65C894.98 609.79 879.27 630.13 868.44 649.7C861.79 661.29 857.94 676.51 865.37 688.59C868.96 694.36 875.21 698.07 881.78 699.36C893.56 701.29 902.51 690.77 908.54 681.96C913.6 674.31 917.58 665.92 920.74 657.29C924.74 647.68 922.42 639.24 911.49 636.91C904.92 636.17 901.93 648.55 900.5 653.42C898.35 660.61 894.88 667.41 890.19 673.29C888.57 675.22 882.48 682.55 879.89 679.92C879.14 678.72 879.39 677.38 879.41 676.1C879.87 671.02 881.29 666.22 883.01 661.54C884.77 656.87 886.96 652.37 889.6 648.14C899.51 631.25 928.97 609.72 945.2 630.17C956.92 644.17 955.16 664.1 948.64 680.02C945.91 686.9 942.36 693.95 936.4 698.64C934.42 700.19 931.98 701.44 929.4 701.44C929.28 701.44 929.19 701.35 929.19 701.23C929.19 701.14 929.25 701.06 929.33 701.03C931.62 700.14 933.65 698.99 935.52 697.51C937.37 696.01 938.99 694.22 940.45 692.3C946.23 684.51 949.53 674.93 951.41 665.47C954.23 651.52 950.84 634.97 938.75 626.34C930.35 620.88 919.71 624.17 911.69 628.88C896.84 637.43 886.83 652.76 882.58 669.15C881.87 672.27 880.98 675.51 881.36 678.68C881.38 678.76 881.42 678.84 881.38 678.78C881.27 678.64 881.18 678.63 881.18 678.63C881.15 678.65 881.41 678.6 881.6 678.53C881.82 678.44 882.06 678.33 882.29 678.2C884.8 676.67 886.81 674.42 888.71 672.13C891.74 668.37 894.24 664.16 896.21 659.73C899.32 653 900.03 645.2 904.86 639.27C906.39 637.24 909.24 635.22 911.63 635.85C923.38 638.13 926.88 647.42 922.5 657.95C917.53 670.97 911.17 683.97 901 693.77C895.95 698.61 888.73 702.45 881.48 700.98C874.46 699.56 867.87 695.58 864.07 689.4C856.38 676.82 860.39 661.04 867.27 649.08C878.29 629.15 894.24 608.6 917.59 603.36C936.02 599.52 956.95 608.3 965.2 625.61C971.43 638.35 972.15 652.92 970.7 666.77C969.84 673.69 968.83 680.78 965.86 687.16C959.14 701.92 945.48 725.67 926.22 721.32C922.79 720.52 919.43 718.78 916.67 716.62C910.67 710.78 909.35 701.54 909.26 693.54C909.29 688.85 909.96 684.17 911.16 679.64C911.38 678.82 912.62 679.16 912.41 679.97V679.97Z" fill="white"/>
    <path d="M946.881 633.67C946.881 633.67 933.881 639.33 921.971 656.28" stroke="white" stroke-width="1.29" stroke-linecap="round" stroke-linejoin="round"/>
    <path d="M931.051 700.94C924.911 689.56 930.931 676.03 937.921 666.53C942.051 661.01 946.061 655.09 951.651 650.93C952.031 650.72 952.461 650.46 952.931 650.54C953.431 650.6 953.741 651.27 953.331 651.66C953.081 651.91 952.671 651.91 952.421 651.66C952.551 651.8 952.711 651.83 952.821 651.85C952.251 652.41 951.421 653.26 950.851 654.04C945.961 660.54 941.111 667.48 936.751 674.26C932.231 681.94 928.891 691.6 932.161 700.29C932.561 700.99 931.511 701.68 931.051 700.96V700.94Z" fill="white"/>
    <path d="M964.709 626.03C978.219 620.99 993.309 625.55 1003.47 635.3C1005.36 637.28 1007.34 639.45 1008.92 641.66C1009.94 642.87 1011.05 645 1011.98 646.31C1013.54 649.06 1015.02 652.13 1016.26 655.05C1021.66 669.28 1023.6 685.38 1018.7 700.06C1013.69 713.46 1005.35 727.72 993.269 735.81C986.989 740.05 978.789 741.73 971.459 739.4C967.919 737.57 965.009 735 962.459 732.01C954.719 723.15 954.159 710.23 958.089 699.58C958.379 698.78 959.559 699.2 959.309 699.99C955.779 710.25 956.489 722.41 963.939 730.76C965.989 733.36 969.769 736.19 972.069 737.42C977.119 738.89 982.589 738.51 987.389 736.38C1001.53 730.07 1011.14 713.25 1016.4 699.28C1021.15 685.27 1019.3 669.57 1014.15 655.89C1012.98 653.06 1011.58 650.07 1010.11 647.39C1008.26 644.4 1006.28 641.26 1003.87 638.7L1002.07 636.73C995.029 629.96 985.579 625.4 975.699 625.48C972.149 625.52 968.509 626.02 965.219 627.21C964.429 627.59 963.879 626.34 964.709 626.02V626.03Z" fill="white"/>
    <path d="M969.9 644.8C978.78 641.5 988.61 645.72 994.56 652.57C1004.93 664.34 1003.21 691.07 995.83 704.05C992.97 708.82 984.42 725.4 977.6 721.45C977.51 721.38 977.48 721.25 977.55 721.16C977.6 721.09 977.69 721.06 977.76 721.08C979.87 721.46 981.56 720.27 983.14 718.95C987.86 714.58 990.87 708.66 993.92 703.02C997.91 695.46 998.89 686.6 999.1 678.15C999.3 664.94 995.6 652.46 982.61 646.92C978.77 645.44 974.34 644.96 970.35 646C969.57 646.29 969.1 645.1 969.89 644.79L969.9 644.8Z" fill="white"/>
    <path d="M967.149 679.76C972.439 671.98 978.509 664.73 985.519 658.43C987.859 656.34 990.349 654.41 992.939 652.61C993.229 652.41 993.639 652.48 993.839 652.77C994.049 653.07 993.969 653.48 993.659 653.68C983.539 660.8 975.239 670.33 968.229 680.46C967.779 681.17 966.669 680.48 967.149 679.76V679.76Z" fill="white"/>
    <path d="M1000.64 673.46C994.879 677.54 989.289 682.29 985.349 688.19C981.729 694.2 979.239 701.17 978.109 708.08C977.779 710.41 977.649 712.77 977.999 715.04C978.329 717.29 979.249 719.47 980.999 720.85C981.279 721.07 981.329 721.48 981.109 721.76C980.899 722.03 980.509 722.08 980.229 721.89C978.049 720.4 976.859 717.84 976.379 715.33C974.929 706.18 978.939 694.86 983.629 687.07C987.799 680.92 993.659 676.16 999.959 672.36C1000.67 671.95 1001.34 673 1000.63 673.46H1000.64Z" fill="white"/>
    <path d="M1010.95 646.55C1023.94 641.45 1038.71 646.23 1048.86 655.02C1059.74 663.45 1064.56 677.64 1065.1 690.94C1065.81 713.01 1059.79 736.89 1043.31 752.43C1039.94 755.43 1035.95 757.91 1031.47 759.04C1022.56 761.35 1012.16 757.7 1007.46 749.63C1002.83 741.69 1002.61 732.15 1004 723.32C1004.06 722.97 1004.39 722.73 1004.75 722.79C1005.1 722.85 1005.33 723.18 1005.28 723.53C1004.02 731.94 1004.33 741.38 1008.8 748.82C1013.21 756.23 1022.88 759.46 1031.05 757.34C1035.18 756.28 1038.92 753.96 1042.13 751.08C1058.09 735.92 1063.86 712.48 1063.09 691.05C1062.45 676.63 1057.05 663.06 1044.97 654.63C1038.99 650.12 1031.73 646.93 1024.22 646.31C1019.98 645.95 1015.49 646.31 1011.49 647.73C1010.7 648.11 1010.15 646.88 1010.97 646.55H1010.95Z" fill="white"/>
    <path d="M1017.92 663.01C1025.37 663.49 1033.15 665.54 1038.69 670.83C1042.92 675.05 1044.57 681.07 1046.1 686.66C1049.29 699.44 1048.01 714.34 1040.91 725.24C1036.64 732.23 1030.08 739.91 1021.19 739.75C1021.04 739.75 1020.92 739.61 1020.92 739.45C1020.92 739.31 1021.04 739.2 1021.18 739.18C1029.36 738.04 1034.89 730.7 1038.88 724.09C1045.88 713.25 1046.72 699.52 1043.91 687.16C1042.47 681.54 1040.89 675.39 1036.45 671.39C1031.41 666.99 1024.54 664.99 1017.85 664.28C1017.02 664.25 1017.04 662.95 1017.91 662.99L1017.92 663.01Z" fill="white"/>
    <path d="M1046.28 692.07C1038.85 697.72 1031.9 704.18 1028.05 712.84C1025.05 719.02 1021.81 725.59 1022.3 732.55C1022.5 734.78 1023.34 736.9 1024.81 738.59C1025.04 738.86 1025.02 739.27 1024.75 739.5C1024.49 739.72 1024.1 739.71 1023.87 739.47C1022.08 737.69 1021.01 735.22 1020.68 732.75C1019.83 725.38 1023.14 718.32 1026.21 711.92C1030.06 703.03 1037.52 696.16 1045.56 691C1046.25 690.57 1046.96 691.59 1046.28 692.07V692.07Z" fill="white"/>
    <path d="M1038.74 673.25C1035.19 676.01 1031.68 678.88 1028.39 681.95C1025.25 684.96 1021.85 688.2 1020.13 692.21C1019.86 692.99 1018.65 692.6 1018.91 691.8C1020.48 687.27 1023.9 683.92 1027.21 680.69C1030.57 677.56 1034.16 674.72 1038 672.19C1038.68 671.75 1039.4 672.76 1038.74 673.25Z" fill="white"/>
    <path d="M1058.23 665.64C1085.12 660.1 1104.54 678.9 1110.16 703.99C1111.81 711.7 1111.86 720.58 1109.78 727.78C1108.41 732.72 1106.62 738.15 1102 741.01C1098.93 742.8 1094.97 741.51 1092.5 739.25C1089.29 736.08 1089.23 731.44 1089.25 727.35C1089.31 723.38 1089.75 719.44 1089.79 715.62C1089.87 704.5 1085.76 691.66 1074.69 687.12C1071.25 685.64 1067.25 684.93 1063.56 685.54C1063.21 685.6 1062.88 685.37 1062.81 685.02C1062.75 684.67 1062.98 684.34 1063.33 684.27C1069.45 683.22 1075.63 685.11 1080.54 688.7C1088.77 694.86 1091.75 705.74 1091.86 715.62C1091.86 719.64 1091.45 723.51 1091.44 727.38C1091.4 731.66 1091.69 737.15 1096.2 738.89L1097.44 739.31C1099.44 739.87 1101.28 738.95 1102.73 737.27C1106.26 732.91 1107.62 727.1 1108.46 721.6C1110.69 703.46 1101.97 681.73 1086.08 672.04C1077.89 667.18 1067.88 665.49 1058.49 666.89C1057.69 667.09 1057.34 665.83 1058.2 665.63L1058.23 665.64Z" fill="white"/>
    <path d="M658.56 656.6C572.24 645.33 456.8 630.48 370.9 619.15C343.93 616.71 319.12 598.85 308.43 573.95C302.95 561.64 300.91 547.86 302.46 534.49C309.37 486.47 336.3 305.87 342.87 260.5C344.19 252.31 347.36 229.4 348.63 221.36C351.42 199.02 364.66 178.24 383.86 166.44C399.07 156.82 417.77 152.94 435.55 155.61L644.87 181.99C663.81 184.43 708.1 189.91 726.64 192.28C743.52 194.48 759.53 202.6 771.35 214.84C789 232.69 796.58 259.24 791.73 283.78C776.61 385.36 760.56 488.5 745.42 590.17C740.32 632.08 700.61 663.12 658.56 656.6V656.6ZM659.21 651.91C698.79 658.16 737.45 629.75 742.26 589.7C757.25 487.99 771.88 384.69 786.88 283.06C793.4 250.98 777.05 217.34 747.31 203.33C739.62 199.6 731.23 197.38 722.73 196.48C669.36 189.52 491.28 166.3 435.08 158.98C418.03 156.43 400.23 160.1 385.68 169.34C367.3 180.7 354.82 200.49 352.09 221.88C350.98 229.87 347.43 252.65 346.24 261C339.63 305.68 312.36 487.51 305.5 534.84C304 547.66 306.06 560.89 311.36 572.65C321.76 596.49 345.51 613.42 371.4 615.62C457.21 626.54 573.02 640.82 659.22 651.92L659.21 651.91Z" fill="white"/>
    <path d="M357.011 619.87C372.911 632.38 391.151 642.45 410.671 647.86C418.821 650.38 432.141 651.36 440.751 652.36L471.271 655.74C534.311 662.35 636.271 674.18 698.291 680.84C732.511 685.79 773.571 679.02 793.151 647.59C799.121 638.24 802.931 627.46 805.061 616.5C805.531 614.27 806.791 607.57 807.281 605.22C825.191 511.48 842.911 412.32 859.641 318.32L860.961 310.79C862.131 303.41 861.701 295.89 859.751 288.64C855.611 273.29 849.351 256.67 835.291 248.05C804.991 231.55 774.031 216.23 743.181 200.78C742.341 200.36 742.001 199.34 742.411 198.5C742.831 197.66 743.861 197.31 744.701 197.74C772.111 211.61 799.541 225.42 826.741 239.71C831.271 242.23 836.061 244.37 840.281 247.43C852.951 257.19 859.001 272.96 862.981 287.82C865.031 295.4 865.531 303.53 864.281 311.32C847.681 408.99 831.171 509.08 812.781 606.3C812.321 608.51 811.041 615.41 810.591 617.62C808.291 629.21 804.261 640.55 797.801 650.61C776.971 683.87 733.831 691.42 697.581 686.05C616.551 676.91 506.331 663.59 425.071 653.94C404.461 651.32 385.211 642.12 368.351 630.27C364.161 627.28 360.071 624.17 356.241 620.7C356.021 620.5 356.001 620.15 356.201 619.93C356.401 619.71 356.741 619.69 356.961 619.88L357.011 619.87Z" fill="white"/>
    <path d="M265.98 263.71C249.33 263.84 231.79 248.48 218.13 240.03C205.53 232.1 190.82 222.82 182.47 240.98C174.23 259.17 169.32 279.4 157.47 295.88C144.8 313.38 127.2 315.14 108.02 307.79C101.39 304.23 95.13 300.08 88.93 295.93C79.74 289.92 70.9 283.09 60.56 279.35C39.29 271.53 33.73 299.52 30.85 314.7C29.57 322 27.89 329.29 25.07 336.24C22.55 342.97 16.15 354.06 7.82997 347.7C4.59997 345.03 3.26997 341.13 2.24997 337.31C0.839967 331.72 0.909965 326.04 0.809965 320.37C0.499965 314.73 0.989972 309.09 2.12997 303.55C9.24997 264.33 34.74 239.92 75.2 255.87C92.23 263.32 104.09 279.59 122.03 284.99C134.25 287.06 141.43 280.35 145.3 268.8C149.86 256.06 149.98 241.32 156.66 229.01C171.6 201.42 195.33 198.66 221.91 211.92C231.87 216.82 241.07 223.04 249.98 229.59C253.02 231.71 255.84 234.26 258.98 236.17C266.83 240.19 276.05 235.13 284.17 238.44C290.91 241.23 294.97 251.03 290 257.06C283.95 263.88 274.29 263.52 265.99 263.71H265.98ZM265.94 262.08C268.67 262.06 271.38 261.69 274.03 261.18C279.03 260.08 284.68 259.32 288.39 255.67C292.12 251.92 290.19 245.44 286.57 242.22C284.72 240.46 282.28 239.55 279.68 239.34C272.94 238.75 264.68 241.69 257.91 238.17C254.57 236.24 251.7 233.69 248.52 231.54C239.64 225.21 230.46 219.2 220.61 214.54C195.35 202.42 173.66 204.62 159.22 230.52C152.48 242.45 152.12 256.52 147.23 269.5C143.08 281.7 134.9 289.21 121.42 286.92C101.54 281.19 88.7 262.51 68.86 257.01C26.35 244.77 9.14997 278.55 4.55996 315.11C2.90996 322.2 2.66996 329.64 4.80996 336.59C6.02996 340.57 8.80997 347.15 13.67 346.77C21.46 344.96 25.18 332.18 27.07 325.21C31.62 307.28 33.48 268.43 61.22 277.25C71.89 280.89 80.99 287.82 90.3 293.83C96.16 297.78 103.38 302.29 108.92 305.29C126.72 311.93 143.41 310.59 154.79 293.94C164.82 279.35 169.09 261.69 175.46 245.23C177 241.1 178.74 236.58 181.77 232.69C192.56 218.55 209.35 228.4 220.49 236.55C233.64 245.55 249.62 261.7 265.92 262.09L265.94 262.08Z" fill="white"/>
    <path d="M1092.62 523.95C1091.44 517.56 1090.73 510.84 1092.51 504.42C1093.62 500.3 1097.21 496.79 1101.38 499.89C1104.15 502.03 1105.67 505.25 1106.95 508.32C1109.94 516.38 1111.4 525.05 1110.9 533.64C1110.53 537.43 1110.04 543.85 1105.63 545.08C1098.37 545.72 1093.68 529.61 1092.6 523.95H1092.62ZM1094.59 523.6C1095.62 529.71 1097.21 536.01 1100.8 541.13C1106.93 549.13 1109.79 539.23 1109.97 533.58C1110.27 525.25 1108.66 516.66 1105.07 509.16C1094.44 488.76 1092.63 514.37 1094.59 523.61V523.6Z" fill="white"/>
    <path d="M924.449 573.68C919.419 574.45 916.479 568.14 914.709 564.45C911.369 556.35 910.389 547.6 910.759 538.93C910.979 535.65 910.959 532.07 912.869 529.14C913.579 528.1 914.829 527.14 916.169 527.22C916.549 527.25 916.839 527.57 916.809 527.95C916.789 528.22 916.629 528.42 916.399 528.54C914.899 529.52 914.279 531.27 913.719 532.98C911.869 538.91 913.009 545.37 914.189 551.36C915.229 556.01 918.899 571.29 924.139 571.67C925.349 571.61 925.609 573.39 924.439 573.68H924.449Z" fill="white"/>
    <path d="M1106.2 545.39L924.918 573.58C924.368 573.66 923.858 573.29 923.778 572.75C923.698 572.2 924.068 571.69 924.618 571.61L1105.99 543.93C1106.4 543.87 1106.77 544.15 1106.84 544.55C1106.91 544.95 1106.63 545.33 1106.22 545.39H1106.2Z" fill="white"/>
    <path d="M1096.9 501.89L915.449 529C914.929 529.08 914.449 528.72 914.369 528.2C914.289 527.68 914.649 527.2 915.159 527.12L1096.36 498.36C1098.63 498.04 1099.3 501.46 1096.9 501.89Z" fill="white"/>
    <path d="M431.971 525.18C432.481 524.79 432.841 523.94 432.741 523.26C432.721 522.28 431.591 521.31 430.811 521.31L431.201 521.35C433.501 521.54 439.061 522.12 441.461 522.33C449.291 523.05 471.201 525.18 479.361 525.95C481.351 526.11 483.891 526.38 486.191 527.22C493.551 529.56 498.081 537.18 497.381 544.73C497.161 552.99 490.301 560.06 482.051 560.67C480.381 560.86 478.501 560.67 476.861 560.51C453.761 558.3 411.241 554.31 388.481 552.15C380.551 551.82 373.811 548.88 373.721 539.76C373.721 537.35 374.031 535.36 374.201 533.23C374.991 525.49 376.971 503.45 377.781 495.36L382.551 444.86C383.021 437.97 388.121 431.55 394.931 429.91C404.571 426.76 413.241 435.9 413.831 445.08C413.951 447.09 413.641 449.62 413.481 451.61L409.191 502.16L406.521 500.76C492.611 428.99 580.191 359.04 666.281 287.28C666.291 287.26 666.931 289.58 666.941 289.57C663.521 288.96 657.951 288.47 654.411 288.16C644.681 287.28 623.291 285.3 613.371 284.4C598.831 283.88 593.031 266.7 602.971 256.72C606.241 253.49 611.041 252.07 615.551 252.56C631.991 254.12 675.361 258.06 691.331 259.52L703.961 260.63C710.911 261.09 718.471 261.91 719.451 270.54C719.981 274.61 718.511 285.45 718.291 289.73L716.231 315.01L712.081 365.56C711.891 369.85 710.641 374.72 707.471 378.31C704.351 381.96 699.371 383.88 694.631 383.58C687.261 383.2 681.741 376.84 679.761 370.17C679.091 367.96 678.841 365.54 679.101 363.22L680.131 350.59C680.551 344.32 681.631 331.59 682.071 325.32L682.561 319L682.801 315.84C682.921 314.79 682.861 313.72 683.211 312.69L685.991 314.97C685.581 315.45 685.191 315.86 684.741 316.24C683.611 317.18 680.041 320.2 678.841 321.21C604.841 383.44 522.551 450.68 447.831 511.92C445.921 513.48 437.911 520.12 435.881 521.78L433.891 523.42C433.201 523.94 432.611 524.58 431.981 525.17L431.971 525.18ZM428.101 520.55C509.141 452.89 593.051 383.12 675.851 317.58C678.071 315.89 682.291 312.35 684.751 310.8C685.621 310.24 686.781 310.5 687.341 311.37C687.681 311.91 687.701 312.51 687.521 313.08C687.681 314.8 687.141 317.64 687.031 319.41C686.151 328.44 684.661 341.89 683.751 350.96L682.501 363.58C681.651 370.67 687.511 379.29 694.811 379.72C703.491 380.24 708.201 373.31 708.571 365.23C710.121 348.8 714.371 305.47 715.911 289.51L717.101 276.89C717.531 273.03 717.871 268.63 715.071 265.76C712.271 263.06 707.481 262.99 703.751 262.62C696.001 261.96 673.961 259.93 665.861 259.26L615.351 254.94C611.451 254.52 607.431 255.68 604.621 258.46C598.931 263.77 599.031 274.33 605.391 279.07C608.601 281.74 612.651 281.84 616.731 282.19C624.861 282.96 646.691 284.83 654.611 285.57C656.321 285.83 662.301 286.13 664.101 286.51L667.281 286.96C668.361 287.11 668.811 288.57 667.931 289.26C581.981 361.19 494.531 431.32 408.591 503.24C407.561 504.17 405.711 503.24 405.921 501.84C406.221 498.41 411.211 446.77 411.001 445.24C410.541 438.92 405.401 431.61 398.491 432.07C391.581 432.36 385.751 438.17 385.331 445.1C383.971 461.57 380.241 504.91 378.921 520.91L377.851 533.54C376.841 541.95 377.111 547.52 387.271 548.1C411.431 550.16 454.281 553.75 478.861 555.77C481.941 556 485.191 555.29 487.651 553.4C493.381 549.4 493.791 539.54 488.841 534.89C486.081 532.24 482.771 531.6 478.821 531.34L453.581 529.22C449.771 528.8 438.411 528.03 434.631 527.64L431.471 527.38L430.681 527.31L430.291 527.28C430.291 527.28 429.891 527.24 429.631 527.18C426.661 526.46 425.711 522.43 428.111 520.54L428.101 520.55Z" fill="white"/>
    <path d="M657.35 208.36C672.61 211.29 688.82 213 704.25 214.78C706.41 215.01 711.03 215.43 713.11 215.67C718.15 216.41 723.06 217.78 727.77 219.73C755.32 231.28 770.6 260.63 764.63 289.87C762.93 301.59 761.14 313.28 758.52 324.85C758.29 325.87 757.27 326.51 756.25 326.27C755.33 326.06 754.72 325.21 754.78 324.29C755.62 312.46 757.31 300.75 759.08 289.04C765.89 257.62 747.28 226.52 715.41 219.64C707.85 218.22 699.85 217.03 692.14 216.12C680.83 214.41 668.26 212.82 656.88 212.1C654.32 211.87 654.68 207.96 657.36 208.35L657.35 208.36Z" fill="white"/>
    <path d="M434.57 602.35C419.31 599.41 403.1 597.71 387.67 595.93C385.51 595.7 380.89 595.28 378.81 595.04C373.77 594.3 368.86 592.93 364.15 590.98C336.6 579.43 321.32 550.08 327.29 520.84C328.99 509.12 330.78 497.43 333.4 485.86C333.63 484.84 334.65 484.2 335.67 484.44C336.59 484.65 337.2 485.5 337.14 486.42C336.3 498.25 334.61 509.96 332.84 521.67C326.03 553.09 344.64 584.18 376.51 591.07C384.07 592.49 392.07 593.68 399.78 594.59C411.09 596.3 423.66 597.89 435.04 598.61C437.6 598.84 437.24 602.75 434.56 602.36L434.57 602.35Z" fill="white"/>
</svg>
