<svg viewBox="0 0 136 106" fill="none" xmlns="http://www.w3.org/2000/svg">
    <path d="M31.3666 54.4317L39.0311 52.1608L33.2627 46.5749L31.3666 54.4317Z" stroke="#B3B3B3" stroke-linecap="round" stroke-linejoin="round"/>
    <path d="M36.0523 49.3823L32.3244 50.4671L35.1586 53.2546L36.0523 49.3823Z" stroke="#B3B3B3" stroke-linecap="round" stroke-linejoin="round"/>
    <path d="M32.1754 50.4552L30.0536 49.9873" stroke="#B3B3B3" stroke-linecap="round" stroke-linejoin="round"/>
    <path d="M35.2346 53.4055L35.857 55.5174" stroke="#B3B3B3" stroke-linecap="round" stroke-linejoin="round"/>
    <path d="M36.145 49.3594L37.7353 47.76" stroke="#B3B3B3" stroke-linecap="round" stroke-linejoin="round"/>
    <path d="M33.269 46.5669L29.9687 49.9773L31.3175 54.4734L35.8688 55.59L39.0731 52.0972L37.8836 47.5762L33.269 46.5669Z" stroke="#B3B3B3" stroke-linecap="round" stroke-linejoin="round"/>
    <path d="M101.313 92.2327C101.88 91.8089 101.254 90.0002 99.9148 88.1928C98.5752 86.3855 97.0293 85.2639 96.4619 85.6877C95.8945 86.1114 96.5204 87.9201 97.86 89.7275C99.1996 91.5348 100.746 92.6565 101.313 92.2327Z" stroke="#B3B3B3" stroke-linecap="round" stroke-linejoin="round"/>
    <path d="M30.7823 19.7483C33.0738 17.5631 34.3401 15.1667 33.6106 14.3958C32.8811 13.6249 30.432 14.7715 28.1405 16.9567C25.8489 19.1419 24.5827 21.5383 25.3122 22.3092C26.0417 23.0801 28.4907 21.9335 30.7823 19.7483Z" stroke="#B3B3B3" stroke-linecap="round" stroke-linejoin="round"/>
    <path d="M25.8328 22.583L41.154 30.6525C41.154 30.6525 41.9744 30.7329 41.4954 29.6372C41.0164 28.5415 34.1208 14.9785 34.1208 14.9785" stroke="#B3B3B3" stroke-linecap="round" stroke-linejoin="round"/>
    <path d="M103.029 81.4863C102.554 83.2883 103.067 84.7615 103.624 85.1519C106.256 86.9957 108.142 82.6555 108.449 81.8896C108.729 81.1912 109.985 75.5696 106.013 74.145C102.041 72.7205 99.2789 77.1262 98.3823 79.0643C97.4857 81.0025 98.024 83.04 99.9647 83.4939C101.905 83.9479 103.477 80.8217 104.06 79.117C104.644 77.4123 103.006 77.1709 103.006 77.1709C103.006 77.1709 102.344 76.9335 101.862 78.7087C101.38 80.4839 100.159 81.5916 99.9558 81.4495C99.7539 81.3075 100.224 78.4673 102.243 76.862C102.243 76.862 104.68 74.7401 106.2 76.5123C106.77 77.1769 107.027 77.915 107.096 78.6422C107.212 79.8541 106.81 81.0363 106.483 81.7942C106.236 82.3684 105.627 83.4592 104.768 83.6122" stroke="#B3B3B3" stroke-linecap="round" stroke-linejoin="round"/>
    <path d="M106.502 76.9027C106.502 76.9027 105.215 77.465 104.037 79.1488" stroke="#B3B3B3" stroke-linecap="round" stroke-linejoin="round"/>
    <path d="M104.991 83.5526C104.991 83.5526 104.282 82.3675 105.623 80.4393C106.964 78.5101 107.097 78.6442 107.097 78.6442" stroke="#B3B3B3" stroke-linecap="round" stroke-linejoin="round"/>
    <path d="M108.292 76.2034C108.292 76.2034 109.971 75.4832 111.72 76.86C113.47 78.2369 114.324 81.5519 113.387 83.7642C112.451 85.9765 110.837 87.865 108.967 87.3097C108.967 87.3097 106.754 86.2358 107.674 83.4721" stroke="#B3B3B3" stroke-linecap="round" stroke-linejoin="round"/>
    <path d="M108.803 78.069C108.803 78.069 109.993 77.613 111.097 78.8389C112.2 80.0647 111.799 82.8036 111.336 83.6867C110.873 84.5698 110.127 85.8583 109.551 85.606" stroke="#B3B3B3" stroke-linecap="round" stroke-linejoin="round"/>
    <path d="M108.563 81.5171C108.563 81.5171 109.674 79.8045 111.097 78.8389" stroke="#B3B3B3" stroke-linecap="round" stroke-linejoin="round"/>
    <path d="M111.79 80.8008C111.79 80.8008 110.594 81.535 110.101 82.4717C109.608 83.4085 109.118 85.0794 109.842 85.6139" stroke="#B3B3B3" stroke-linecap="round" stroke-linejoin="round"/>
    <path d="M112.869 78.2408C112.869 78.2408 114.736 77.4084 116.757 79.3048C118.777 81.2002 118.086 84.7914 117.542 86.2229C116.999 87.6534 115.618 89.8567 113.647 89.2309C111.676 88.605 112.216 85.8225 112.216 85.8225" stroke="#B3B3B3" stroke-linecap="round" stroke-linejoin="round"/>
    <path d="M113.53 79.882C113.53 79.882 115.281 79.9584 115.838 81.1038C116.395 82.2492 116.74 84.3563 115.708 85.9457C115.708 85.9457 114.918 87.403 113.857 87.4149" stroke="#B3B3B3" stroke-linecap="round" stroke-linejoin="round"/>
    <path d="M116.303 82.6505C116.303 82.6505 115.104 83.4572 114.641 84.3393C114.177 85.2225 113.468 86.6152 114.169 87.3682" stroke="#B3B3B3" stroke-linecap="round" stroke-linejoin="round"/>
    <path d="M115.556 80.7821C115.556 80.7821 113.955 81.9056 113.691 82.6974" stroke="#B3B3B3" stroke-linecap="round" stroke-linejoin="round"/>
    <path d="M117.536 80.1412C117.536 80.1412 120.08 79.5452 121.638 81.8449C123.198 84.1446 122.503 86.2248 122.503 86.2248C122.503 86.2248 122.168 87.7368 121.366 87.5093C120.565 87.2818 120.684 86.4603 120.744 85.294C120.803 84.1278 120.436 82.9486 119.617 82.3833C118.799 81.8181 118.043 81.9919 118.043 81.9919" stroke="#B3B3B3" stroke-linecap="round" stroke-linejoin="round"/>
    <path d="M78.0013 78.9479L49.1303 75.2335C48.2872 75.1084 47.4985 74.8441 46.784 74.4676C44.0804 73.0451 42.4376 70.0182 42.9106 66.8154L47.4906 35.8222C48.0883 31.774 51.8429 28.9786 55.8755 29.5796L84.7465 33.2939C85.5966 33.4201 86.3902 33.6873 87.1097 34.0688C89.8034 35.4953 91.4382 38.5163 90.9662 41.7121L86.3863 72.7053C85.7885 76.7534 82.034 79.5489 78.0013 78.9479V78.9479Z" stroke="#B3B3B3" stroke-linecap="round" stroke-linejoin="round"/>
    <path d="M48.0925 75.5723C48.0925 75.5723 51.1801 78.3141 54.8584 78.7512C56.1192 78.9012 81.195 81.783 81.7769 81.8357C82.3588 81.8893 91.1139 83.4748 92.7378 75.2792C94.1648 68.077 97.392 49.3672 98.153 44.9357C98.2777 44.2085 98.2549 43.4634 98.0817 42.7462C97.7532 41.3822 97.0149 39.2703 95.4959 38.4259C93.1683 37.1334 86.4211 33.7479 86.4211 33.7479" stroke="#B3B3B3" stroke-linecap="round" stroke-linejoin="round"/>
    <path d="M39.1177 40.0691C36.1063 40.1367 32.2319 33.8554 30.5268 38.0356C29.0988 41.5364 28.3121 46.1776 23.5323 44.4053C19.8658 42.4205 16.885 38.5075 15.7608 45.2915C14.8969 50.1512 12.8494 48.8896 13.0087 45.8875C13.2126 42.0629 15.0325 37.7336 20.0043 39.4433C21.7945 40.1327 22.9999 41.8155 24.8425 42.3609C27.8796 42.8298 27.3324 38.5572 28.4388 36.7581C30.9365 32.2769 35.2315 35.1547 38.1864 37.3979C39.2008 38.1588 40.611 37.0303 41.3987 38.1588C41.4423 38.2164 42.6298 39.9926 39.1167 40.0711L39.1177 40.0691Z" stroke="#B3B3B3" stroke-linecap="round" stroke-linejoin="round"/>
    <path d="M122.209 68.0424C122.646 67.9643 122.825 66.9123 122.608 65.6926C122.392 64.473 121.862 63.5476 121.425 63.6257C120.988 63.7038 120.81 64.7559 121.026 65.9755C121.243 67.1952 121.772 68.1205 122.209 68.0424Z" stroke="#B3B3B3" stroke-linecap="round" stroke-linejoin="round"/>
    <path d="M104.265 70.844C103.827 70.9225 103.344 69.9718 103.128 68.7519C102.911 67.532 103.038 66.472 103.476 66.3945" stroke="#B3B3B3" stroke-linecap="round" stroke-linejoin="round"/>
    <path d="M122.258 68.0604L104.314 70.836" stroke="#B3B3B3" stroke-linecap="round" stroke-linejoin="round"/>
    <path d="M121.323 63.6368L103.378 66.4124" stroke="#B3B3B3" stroke-linecap="round" stroke-linejoin="round"/>
    <path d="M55.3555 65.8956C55.3001 65.9423 55.3288 66.0317 55.4 66.0377C56.6915 66.1539 58.0294 66.2741 59.3684 66.3933C59.7207 66.4251 60.073 66.4519 60.4253 66.4897C61.3169 66.5831 61.8533 67.2487 61.7622 68.1417C61.6811 68.9295 61.0091 69.4798 60.1789 69.4093C58.358 69.2543 56.5381 69.0855 54.7182 68.9225C53.4851 68.8123 52.2521 68.704 51.019 68.5898C50.253 68.5182 49.9077 68.1139 49.975 67.3559C50.2451 64.2883 50.5173 61.2217 50.7954 58.154C50.8696 57.3404 51.491 56.7633 52.2897 56.7374C52.9923 56.7146 53.682 57.561 53.6128 58.3895C53.4772 59.9978 53.3288 61.6041 53.1863 63.2115C53.1724 63.3724 53.1576 63.5333 53.1318 63.8254C60.8449 57.3484 71.119 49.0574 78.8172 42.5933C78.6035 42.5615 78.4679 42.5357 78.3313 42.5228C76.6876 42.3738 75.0428 42.2337 73.4001 42.0748C72.646 42.0023 72.1245 41.4271 72.1027 40.6919C72.0799 39.9201 72.5807 39.2813 73.31 39.171C73.4822 39.1452 73.6623 39.1591 73.8375 39.175C76.8172 39.4403 79.7969 39.7075 82.7767 39.9757C83.6584 40.0552 83.9681 40.4237 83.889 41.3168C83.6228 44.3397 83.3536 47.3627 83.0815 50.3856C82.9944 51.3522 82.3501 51.9343 81.508 51.8688C80.741 51.8082 80.0839 50.8863 80.169 50.0806C80.3462 48.4028 80.4758 46.7189 80.6233 45.0381C80.5876 45.049 62.9419 59.5368 55.3555 65.8966V65.8956Z" stroke="#B3B3B3" stroke-linecap="round" stroke-linejoin="round"/>
    <path d="M77.8273 34.8378L83.2989 35.5421C83.9768 35.6434 84.6101 35.856 85.1841 36.16C87.3326 37.2974 88.6369 39.7074 88.2598 42.2565L87.6779 46.1964" stroke="#B3B3B3" stroke-linecap="round" stroke-linejoin="round"/>
    <path d="M55.8272 73.6054L50.3556 72.9011C49.6777 72.7997 49.0443 72.5872 48.4704 72.2832C46.3219 71.1457 45.0176 68.7357 45.3947 66.1866L45.9766 62.2468" stroke="#B3B3B3" stroke-linecap="round" stroke-linejoin="round"/>
</svg>
