<svg viewBox="0 0 165 122" fill="none" xmlns="http://www.w3.org/2000/svg">
    <path d="M103.706 31.7473L144.551 33.321C145.716 33.3648 146.568 34.4277 146.349 35.5635L142.197 57.345" stroke="#B3B3B3" stroke-linecap="round" stroke-linejoin="round"/>
    <path d="M87.6489 49.2216L90.6984 32.8845C90.8736 31.965 91.7002 31.3108 92.6431 31.3466L93.9191 31.4223" stroke="#B3B3B3" stroke-linecap="round" stroke-linejoin="round"/>
    <path d="M120.288 71.8788L110.052 71.1304" stroke="#B3B3B3" stroke-linecap="round" stroke-linejoin="round"/>
    <path d="M140.99 42.4861L120.138 41.0876C119.678 41.057 119.348 40.6338 119.433 40.1826L119.978 37.0152C120.049 36.6437 120.383 36.3783 120.764 36.3929L141.759 37.1904C142.23 37.2076 142.575 37.6376 142.487 38.098L141.799 41.8678C141.726 42.2473 141.379 42.5127 140.99 42.4875V42.4861Z" stroke="#B3B3B3" stroke-linecap="round" stroke-linejoin="round"/>
    <path d="M101.963 42.2964L103.577 42.3442C103.799 42.3521 103.963 42.5551 103.921 42.7728L102.608 49.5998C102.573 49.7789 102.41 49.905 102.225 49.8917L100.462 49.7736" stroke="#B3B3B3" stroke-linecap="round" stroke-linejoin="round"/>
    <path d="M105.11 30.9791L108.405 13.7742C108.58 12.8546 109.406 12.2004 110.349 12.2363L162.258 14.2081C163.423 14.2519 164.275 15.3147 164.055 16.4506L157.183 52.1806C157.003 53.1188 156.144 53.7756 155.184 53.7119L143.748 52.8879" stroke="#B3B3B3" stroke-linecap="round" stroke-linejoin="round"/>
    <path d="M158.696 23.3746L137.844 21.976C137.384 21.9455 137.054 21.5222 137.14 21.071L137.684 17.9037C137.755 17.5321 138.089 17.2667 138.47 17.2813L159.465 18.0788C159.936 18.0961 160.281 18.526 160.193 18.9864L159.505 22.7562C159.432 23.1357 159.085 23.4011 158.696 23.3759V23.3746Z" stroke="#B3B3B3" stroke-linecap="round" stroke-linejoin="round"/>
    <path d="M117.949 30.9221L110.269 30.4072C110.051 30.3926 109.896 30.1923 109.936 29.98L111.181 23.4369C111.215 23.2618 111.372 23.1357 111.553 23.1437L119.3 23.3746C119.522 23.3825 119.685 23.5855 119.644 23.8031L118.33 30.6302C118.295 30.8093 118.132 30.9354 117.948 30.9221H117.949Z" stroke="#B3B3B3" stroke-linecap="round" stroke-linejoin="round"/>
    <path d="M60.0897 7.46037C62.8137 5.61821 64.5175 3.39048 63.895 2.48459C63.2726 1.5787 60.5598 2.33769 57.8357 4.17985C55.1116 6.02201 53.4079 8.24975 54.0303 9.15564C54.6527 10.0615 57.3656 9.30253 60.0897 7.46037Z" stroke="#B3B3B3" stroke-linecap="round" stroke-linejoin="round"/>
    <path d="M54.5195 9.52156L67.3141 17.9316C67.3141 17.9316 68.1446 18.1505 67.8343 16.955C67.524 15.7594 64.3221 3.16162 64.3221 3.16162" stroke="#B3B3B3" stroke-linecap="round" stroke-linejoin="round"/>
    <path d="M146.907 80.0906C149.043 79.5314 149.411 73.9525 147.73 67.6297C146.049 61.3069 142.954 56.6346 140.817 57.1938C138.681 57.753 138.312 63.3319 139.994 69.6547C141.675 75.9774 144.77 80.6497 146.907 80.0906Z" stroke="#B3B3B3" stroke-linecap="round" stroke-linejoin="round"/>
    <path d="M139.798 57.8733L115.283 76.1795C115.283 76.1795 114.313 77.5874 116.791 77.805C119.268 78.0226 145.334 80.4443 145.334 80.4443" stroke="#B3B3B3" stroke-linecap="round" stroke-linejoin="round"/>
    <path d="M108.129 106.894L104.248 117.017L115.068 115.362L108.129 106.894Z" stroke="#B3B3B3" stroke-linecap="round" stroke-linejoin="round"/>
    <path d="M109.721 116.076L111.631 111.168L106.266 111.947L109.721 116.076Z" stroke="#B3B3B3" stroke-linecap="round" stroke-linejoin="round"/>
    <path d="M111.766 111.018L114.029 109.111" stroke="#B3B3B3" stroke-linecap="round" stroke-linejoin="round"/>
    <path d="M106.041 111.904L103.238 110.848" stroke="#B3B3B3" stroke-linecap="round" stroke-linejoin="round"/>
    <path d="M109.67 116.193L110.086 119.215" stroke="#B3B3B3" stroke-linecap="round" stroke-linejoin="round"/>
    <path d="M115.072 115.375L114.109 109.027L108.125 106.806L103.151 110.802L104.282 117.112L110.161 119.527L115.072 115.375Z" stroke="#B3B3B3" stroke-linecap="round" stroke-linejoin="round"/>
    <path d="M8.05443 71.7701L1.45654 81.1913L13.0072 82.2356L8.05443 71.7701Z" stroke="#B3B3B3" stroke-linecap="round" stroke-linejoin="round"/>
    <path d="M7.32564 81.6119L10.553 77.0513L4.83789 76.4913L7.32564 81.6119Z" stroke="#B3B3B3" stroke-linecap="round" stroke-linejoin="round"/>
    <path d="M10.7319 76.9305L13.5487 75.5452" stroke="#B3B3B3" stroke-linecap="round" stroke-linejoin="round"/>
    <path d="M4.61727 76.3905L2.00781 74.5939" stroke="#B3B3B3" stroke-linecap="round" stroke-linejoin="round"/>
    <path d="M7.24252 81.7194L6.89209 84.9332" stroke="#B3B3B3" stroke-linecap="round" stroke-linejoin="round"/>
    <path d="M13.0086 82.2502L13.6532 75.4789L8.0732 71.6772L1.93006 74.5248L1.46729 81.2988L6.88817 85.2716L13.0086 82.2502Z" stroke="#B3B3B3" stroke-linecap="round" stroke-linejoin="round"/>
    <path d="M152.918 109.785C149.716 107.707 150.156 98.4399 145.376 101.551C141.373 104.158 137.224 108.401 133.487 103.156C131.068 98.4863 130.747 92.3081 124.711 98.5288C120.326 102.943 115.037 99.7402 113.892 94.5135C113.356 93.0472 112.905 91.3421 111.24 90.7809C109.489 90.1811 110.135 87.4768 112.195 87.9877C117.387 89.2761 116.341 100.413 121.402 97.1833C125.479 94.5812 129.362 90.1864 133.346 95.502C134.726 97.4924 134.785 100.096 136.325 101.973C139.171 104.625 141.657 99.8119 144.105 98.7384C149.931 95.8802 152.369 101.924 153.858 106.354C154.376 107.865 156.66 107.702 156.679 109.432C156.683 109.522 156.655 112.208 152.919 109.784L152.918 109.785Z" stroke="#B3B3B3" stroke-linecap="round" stroke-linejoin="round"/>
    <path d="M37.6839 98.278C36.5043 96.5981 34.8912 95.9824 34.161 96.1735C30.7129 97.0758 33.0201 101.745 33.4467 102.548C33.8346 103.279 37.6772 108.331 41.7366 106.003C45.7945 103.676 44.0611 98.2236 43.07 96.0925C42.0776 93.9615 39.9711 92.9663 38.1935 94.276C36.416 95.5856 37.9247 99.1272 38.9439 100.83C39.963 102.532 41.3433 101.326 41.3433 101.326C41.3433 101.326 42.0201 100.938 40.8672 99.2705C39.7156 97.6039 39.6581 95.79 39.9229 95.721C40.1877 95.652 42.2475 98.0657 42.1512 100.903C42.1512 100.903 42.19 104.459 39.6006 104.479C38.6295 104.485 37.823 104.176 37.1583 103.718C36.0522 102.954 35.3433 101.777 34.9381 100.964C34.6318 100.348 34.1489 99.0609 34.6358 98.2302" stroke="#B3B3B3" stroke-linecap="round" stroke-linejoin="round"/>
    <path d="M39.0565 104.453C39.0565 104.453 39.5073 102.971 38.9321 100.785" stroke="#B3B3B3" stroke-linecap="round" stroke-linejoin="round"/>
    <path d="M34.5288 98.4585C34.5288 98.4585 36.0388 98.704 36.7022 101.203C37.367 103.7 37.1583 103.717 37.1583 103.717" stroke="#B3B3B3" stroke-linecap="round" stroke-linejoin="round"/>
    <path d="M38.3595 106.456C38.3595 106.456 37.7603 108.379 35.3407 108.871C32.9199 109.363 29.5079 107.726 28.3135 105.366C27.1191 103.007 26.6858 100.308 28.4981 99.1312C28.4981 99.1312 30.9965 98.0325 32.6684 100.771" stroke="#B3B3B3" stroke-linecap="round" stroke-linejoin="round"/>
    <path d="M36.4177 105.56C36.4177 105.56 35.9469 106.884 34.1185 106.941C32.2915 106.999 30.2665 104.715 29.8545 103.698C29.4426 102.682 28.8902 101.139 29.5175 100.834" stroke="#B3B3B3" stroke-linecap="round" stroke-linejoin="round"/>
    <path d="M33.6797 102.908C33.6797 102.908 34.327 105.059 34.1184 106.941" stroke="#B3B3B3" stroke-linecap="round" stroke-linejoin="round"/>
    <path d="M31.9637 106.129C31.9637 106.129 32.2032 104.603 31.7671 103.522C31.3311 102.442 30.2718 100.842 29.3008 101.071" stroke="#B3B3B3" stroke-linecap="round" stroke-linejoin="round"/>
    <path d="M33.3491 108.855C33.3491 108.855 32.7084 111.016 29.6549 111.368C26.6014 111.72 24.0669 108.587 23.2496 107.113C22.4324 105.638 21.5657 102.913 23.5118 101.7C25.4579 100.487 27.4186 102.92 27.4186 102.92" stroke="#B3B3B3" stroke-linecap="round" stroke-linejoin="round"/>
    <path d="M31.489 108.246C31.489 108.246 30.1662 109.663 28.798 109.318C27.4311 108.973 25.4047 107.764 24.8042 105.767C24.8042 105.767 24.1421 104.067 24.8952 103.168" stroke="#B3B3B3" stroke-linecap="round" stroke-linejoin="round"/>
    <path d="M27.1566 108.609C27.1566 108.609 27.3385 107.028 26.9266 106.011C26.5146 104.995 25.8485 103.409 24.709 103.462" stroke="#B3B3B3" stroke-linecap="round" stroke-linejoin="round"/>
    <path d="M29.2715 109.31C29.2715 109.31 29.4735 107.166 28.9946 106.38" stroke="#B3B3B3" stroke-linecap="round" stroke-linejoin="round"/>
    <path d="M28.3885 111.429C28.3885 111.429 27.0631 113.99 24.0015 113.668C20.9387 113.344 19.6828 111.283 19.6828 111.283C19.6828 111.283 18.6475 109.927 19.4153 109.415C20.183 108.903 20.7902 109.587 21.7331 110.466C22.6747 111.344 23.9347 111.874 24.9993 111.587C26.064 111.3 26.4625 110.541 26.4625 110.541" stroke="#B3B3B3" stroke-linecap="round" stroke-linejoin="round"/>
    <path d="M38.0881 56.7812C40.2 56.7812 41.912 55.0827 41.912 52.9875C41.912 50.8923 40.2 49.1938 38.0881 49.1938C35.9762 49.1938 34.2642 50.8923 34.2642 52.9875C34.2642 55.0827 35.9762 56.7812 38.0881 56.7812Z" stroke="#B3B3B3" stroke-linecap="round" stroke-linejoin="round"/>
    <path d="M39.5806 82.2077C40.1972 82.0484 40.906 82.9959 41.2444 84.2816C41.5828 85.5674 41.4277 86.7378 40.8111 86.897" stroke="#B3B3B3" stroke-linecap="round" stroke-linejoin="round"/>
    <path d="M3.08558 96.1834C3.70251 96.024 3.9293 94.8531 3.59213 93.568C3.25497 92.283 2.48152 91.3703 1.8646 91.5297C1.24767 91.689 1.02089 92.8599 1.35805 94.145C1.69522 95.43 2.46866 96.3427 3.08558 96.1834Z" stroke="#B3B3B3" stroke-linecap="round" stroke-linejoin="round"/>
    <path d="M1.79102 91.5306L39.5125 82.2262" stroke="#B3B3B3" stroke-linecap="round" stroke-linejoin="round"/>
    <path d="M3.22754 96.1655L40.9491 86.8611" stroke="#B3B3B3" stroke-linecap="round" stroke-linejoin="round"/>
    <path d="M133.124 119.853C133.574 119.08 131.934 117.306 129.461 115.889C126.989 114.473 124.62 113.952 124.17 114.725C123.72 115.498 125.36 117.273 127.832 118.689C130.305 120.105 132.674 120.626 133.124 119.853Z" stroke="#B3B3B3" stroke-linecap="round" stroke-linejoin="round"/>
    <path d="M20.4821 72.8353C20.7894 72.4579 20.0598 71.3676 18.8525 70.4001C17.6452 69.4326 16.4174 68.9543 16.1101 69.3317C15.8028 69.7091 16.5324 70.7993 17.7397 71.7668C18.947 72.7343 20.1748 73.2127 20.4821 72.8353Z" stroke="#B3B3B3" stroke-linecap="round" stroke-linejoin="round"/>
    <path d="M48.6873 107.816C49.5428 106.967 50.0179 106.062 49.7484 105.795C49.4789 105.527 48.5668 105.999 47.7113 106.848C46.8557 107.696 46.3806 108.601 46.6501 108.869C46.9196 109.136 47.8317 108.665 48.6873 107.816Z" stroke="#B3B3B3" stroke-linecap="round" stroke-linejoin="round"/>
    <path d="M42.9568 71.9486C43.9071 70.2223 35.9701 64.1052 25.229 58.2856C14.488 52.466 5.01027 49.1478 4.05999 50.874C3.10971 52.6003 11.0467 58.7174 21.7878 64.537C32.5289 70.3566 42.0066 73.6748 42.9568 71.9486Z" stroke="#B3B3B3" stroke-linecap="round" stroke-linejoin="round"/>
    <path d="M41.4012 71.0744C42.0739 69.8524 34.573 64.5022 24.6475 59.1245C14.722 53.7468 6.13048 50.378 5.45778 51.6001C4.78508 52.8221 12.286 58.1722 22.2115 63.5499C32.137 68.9276 40.7285 72.2964 41.4012 71.0744Z" stroke="#B3B3B3" stroke-linecap="round" stroke-linejoin="round"/>
    <path d="M52.8648 61.5966C48.669 59.6235 44.9133 57.7154 41.4438 55.8179" stroke="#B3B3B3" stroke-linecap="round" stroke-linejoin="round"/>
    <path d="M139.519 80.3088C140.242 81.4434 140.478 82.4332 140.17 83.2466C138.732 87.0602 126.455 86.2004 108.344 81.5137" stroke="#B3B3B3" stroke-linecap="round" stroke-linejoin="round"/>
    <path d="M34.185 51.423C26.4355 46.508 22.2358 42.3295 23.1814 39.823C24.86 35.3712 42.2635 37.5075 65.195 44.369" stroke="#B3B3B3" stroke-linecap="round" stroke-linejoin="round"/>
    <path d="M86.504 104.605L56.7487 100.226C55.7429 100.077 54.8026 99.7669 53.9506 99.3237C50.7259 97.6464 48.7665 94.0783 49.3309 90.3032L54.7932 53.7677C55.5061 48.9948 59.9841 45.7001 64.7951 46.4086L94.5504 50.7875C95.5642 50.9361 96.5112 51.2519 97.3685 51.7004C100.581 53.3816 102.531 56.9431 101.968 60.7102L96.5058 97.2457C95.793 102.019 91.315 105.313 86.504 104.605V104.605Z" stroke="#B3B3B3" stroke-linecap="round" stroke-linejoin="round"/>
    <path d="M55.5103 100.627C55.5103 100.627 59.1924 103.859 63.5807 104.374C65.0841 104.55 90.3133 107.947 91.0075 108.01C91.7017 108.072 102.144 109.942 104.082 100.282C105.784 91.792 109.632 69.7359 110.54 64.5118C110.69 63.6546 110.662 62.7762 110.456 61.9309C110.064 60.3227 109.184 57.8334 107.372 56.8382C104.595 55.3149 96.5474 51.3235 96.5474 51.3235" stroke="#B3B3B3" stroke-linecap="round" stroke-linejoin="round"/>
    <path d="M81.7575 68.4954C82.2952 65.263 80.091 62.211 76.8328 61.6763C73.5747 61.1429 70.4984 63.3296 69.9594 66.562C69.514 69.2358 70.9465 71.7848 73.2991 72.8888L66.7842 86.1368L78.4178 88.0436L76.5439 73.4196C79.1293 73.125 81.3121 71.1678 81.7575 68.494V68.4954Z" stroke="#B3B3B3" stroke-linecap="round" stroke-linejoin="round"/>
    <path d="M22.8621 28.2497L25.6495 26.0191L22.4194 24.4414L23.5697 22.4404L26.5202 24.3379L27.0271 20.864L29.3022 21.3284L28.3807 24.7413L31.9424 24.1508L32.2032 26.4397L28.6067 26.6229L30.2799 29.765L28.1827 30.7257L26.9027 27.4057L24.4056 29.9548L22.8608 28.251L22.8621 28.2497Z" stroke="#B3B3B3" stroke-linecap="round" stroke-linejoin="round"/>
    <path d="M36.1766 28.2497L38.9639 26.0191L35.7339 24.4414L36.8841 22.4404L39.8347 24.3379L40.3416 20.864L42.6167 21.3284L41.6951 24.7413L45.2569 24.1508L45.5177 26.4397L41.9212 26.6229L43.5944 29.765L41.4972 30.7257L40.2172 27.4057L37.7201 29.9548L36.1753 28.251L36.1766 28.2497Z" stroke="#B3B3B3" stroke-linecap="round" stroke-linejoin="round"/>
    <path d="M48.9246 28.2497L51.712 26.0191L48.4819 24.4414L49.6322 22.4404L52.5827 24.3379L53.0896 20.864L55.3647 21.3284L54.4432 24.7413L58.0049 24.1508L58.2657 26.4397L54.6692 26.6229L56.3424 29.765L54.2452 30.7257L52.9652 27.4057L50.4681 29.9548L48.9233 28.251L48.9246 28.2497Z" stroke="#B3B3B3" stroke-linecap="round" stroke-linejoin="round"/>
    <path d="M72.2412 46.8466C73.6603 39.2805 78.1075 22.2123 89.0429 24.7295C89.0429 24.7295 96.1009 24.9922 94.33 35.6793C93.1905 42.554 92.1098 47.3482 91.4838 49.8919" stroke="#B3B3B3" stroke-linecap="round" stroke-linejoin="round"/>
    <path d="M65.5806 45.9907C66.8913 40.2331 69.5757 29.4041 71.9003 26.1731C75.5811 21.0551 81.4634 15.6161 90.4621 16.7201C99.4621 17.8254 104.502 26.9599 102.417 36.9079C100.872 44.271 99.7778 49.5866 99.3859 51.7044" stroke="#B3B3B3" stroke-linecap="round" stroke-linejoin="round"/>
</svg>
