<svg viewBox="0 0 212 136" fill="none" xmlns="http://www.w3.org/2000/svg">
    <g clip-path="url(#clip0_1377_1273)">
        <path d="M123.541 38.186L164.005 39.737C165.159 39.7801 166.003 40.8276 165.785 41.947L161.673 63.4127" stroke="#B3B3B3" stroke-linecap="round" stroke-linejoin="round"/>
        <path d="M107.634 55.4071L110.655 39.3068C110.828 38.4006 111.647 37.7559 112.581 37.7912L113.845 37.8657" stroke="#B3B3B3" stroke-linecap="round" stroke-linejoin="round"/>
        <path d="M139.968 77.736L129.828 76.9984" stroke="#B3B3B3" stroke-linecap="round" stroke-linejoin="round"/>
        <path d="M160.476 48.7692L139.82 47.3909C139.364 47.3608 139.037 46.9436 139.121 46.499L139.661 43.3775C139.731 43.0114 140.062 42.7499 140.44 42.7642L161.238 43.5502C161.705 43.5672 162.046 43.9909 161.959 44.4446L161.278 48.1598C161.205 48.5338 160.862 48.7953 160.476 48.7705V48.7692Z" stroke="#B3B3B3" stroke-linecap="round" stroke-linejoin="round"/>
        <path d="M121.814 48.5823L123.413 48.6294C123.633 48.6372 123.795 48.8373 123.754 49.0517L122.452 55.7798C122.418 55.9563 122.256 56.0806 122.073 56.0675L120.327 55.9511" stroke="#B3B3B3" stroke-linecap="round" stroke-linejoin="round"/>
        <path d="M124.932 37.4288L128.195 20.4733C128.369 19.5671 129.188 18.9224 130.122 18.9577L181.545 20.9009C182.699 20.9441 183.543 21.9915 183.326 23.1109L176.518 58.3231C176.339 59.2477 175.488 59.895 174.537 59.8322L163.208 59.0201" stroke="#B3B3B3" stroke-linecap="round" stroke-linejoin="round"/>
        <path d="M178.016 29.9344L157.36 28.5561C156.904 28.5261 156.577 28.1089 156.661 27.6643L157.201 24.5428C157.271 24.1767 157.602 23.9151 157.98 23.9295L178.778 24.7154C179.245 24.7324 179.587 25.1561 179.499 25.6099L178.818 29.3251C178.745 29.6991 178.402 29.9606 178.016 29.9358V29.9344Z" stroke="#B3B3B3" stroke-linecap="round" stroke-linejoin="round"/>
        <path d="M137.65 37.3726L130.042 36.8652C129.826 36.8508 129.673 36.6534 129.712 36.4441L130.946 29.9959C130.979 29.8233 131.135 29.699 131.314 29.7069L138.989 29.9344C139.209 29.9423 139.37 30.1424 139.329 30.3568L138.028 37.0849C137.994 37.2614 137.832 37.3857 137.649 37.3726H137.65Z" stroke="#B3B3B3" stroke-linecap="round" stroke-linejoin="round"/>
        <path d="M80.3316 14.251C83.0302 12.4355 84.718 10.2401 84.1014 9.34729C83.4848 8.45453 80.7973 9.20253 78.0987 11.018C75.4001 12.8335 73.7123 15.0289 74.3289 15.9217C74.9455 16.8144 77.633 16.0664 80.3316 14.251Z" stroke="#B3B3B3" stroke-linecap="round" stroke-linejoin="round"/>
        <path d="M74.8135 16.2822L87.4884 24.5703C87.4884 24.5703 88.3113 24.7861 88.0039 23.6079C87.6965 22.4296 84.5244 10.0144 84.5244 10.0144" stroke="#B3B3B3" stroke-linecap="round" stroke-linejoin="round"/>
        <path d="M166.337 85.8286C168.454 85.2775 168.819 79.7794 167.153 73.5483C165.487 67.3172 162.421 62.7126 160.305 63.2637C158.189 63.8147 157.824 69.3128 159.489 75.5439C161.155 81.7751 164.221 86.3797 166.337 85.8286Z" stroke="#B3B3B3" stroke-linecap="round" stroke-linejoin="round"/>
        <path d="M159.295 63.9332L135.009 81.9741C135.009 81.9741 134.049 83.3616 136.503 83.5761C138.957 83.7905 164.78 86.1771 164.78 86.1771" stroke="#B3B3B3" stroke-linecap="round" stroke-linejoin="round"/>
        <path d="M127.922 112.243L124.077 122.22L134.796 120.589L127.922 112.243Z" stroke="#B3B3B3" stroke-linecap="round" stroke-linejoin="round"/>
        <path d="M129.499 121.292L131.391 116.455L126.077 117.223L129.499 121.292Z" stroke="#B3B3B3" stroke-linecap="round" stroke-linejoin="round"/>
        <path d="M131.525 116.308L133.767 114.428" stroke="#B3B3B3" stroke-linecap="round" stroke-linejoin="round"/>
        <path d="M125.854 117.181L123.077 116.14" stroke="#B3B3B3" stroke-linecap="round" stroke-linejoin="round"/>
        <path d="M129.449 121.408L129.861 124.387" stroke="#B3B3B3" stroke-linecap="round" stroke-linejoin="round"/>
        <path d="M134.8 120.602L133.846 114.346L127.918 112.157L122.991 116.094L124.112 122.314L129.935 124.694L134.8 120.602Z" stroke="#B3B3B3" stroke-linecap="round" stroke-linejoin="round"/>
        <path d="M28.7833 77.6287L22.2471 86.9133L33.6898 87.9424L28.7833 77.6287Z" stroke="#B3B3B3" stroke-linecap="round" stroke-linejoin="round"/>
        <path d="M28.0612 87.3278L31.2584 82.8332L25.5967 82.2814L28.0612 87.3278Z" stroke="#B3B3B3" stroke-linecap="round" stroke-linejoin="round"/>
        <path d="M31.436 82.7142L34.2265 81.349" stroke="#B3B3B3" stroke-linecap="round" stroke-linejoin="round"/>
        <path d="M25.378 82.182L22.793 80.4114" stroke="#B3B3B3" stroke-linecap="round" stroke-linejoin="round"/>
        <path d="M27.979 87.4337L27.6318 90.601" stroke="#B3B3B3" stroke-linecap="round" stroke-linejoin="round"/>
        <path d="M33.6912 87.9568L34.3299 81.2837L28.802 77.5371L22.7163 80.3434L22.2578 87.0192L27.628 90.9344L33.6912 87.9568Z" stroke="#B3B3B3" stroke-linecap="round" stroke-linejoin="round"/>
        <path d="M172.292 115.093C169.12 113.045 169.556 103.912 164.821 106.979C160.855 109.547 156.745 113.729 153.043 108.559C150.647 103.958 150.329 97.8691 144.349 104C140.005 108.35 134.766 105.194 133.631 100.043C133.1 98.5975 132.654 96.9171 131.004 96.364C129.27 95.7729 129.91 93.1078 131.95 93.6113C137.094 94.881 136.058 105.857 141.071 102.674C145.11 100.109 148.956 95.7781 152.904 101.017C154.271 102.978 154.329 105.544 155.854 107.394C158.674 110.007 161.137 105.264 163.562 104.206C169.334 101.389 171.749 107.346 173.224 111.711C173.737 113.201 176 113.04 176.018 114.745C176.022 114.834 175.994 117.481 172.294 115.091L172.292 115.093Z" stroke="#B3B3B3" stroke-linecap="round" stroke-linejoin="round"/>
        <path d="M58.1355 103.752C56.9669 102.097 55.3689 101.49 54.6455 101.678C51.2296 102.568 53.5153 107.169 53.9379 107.961C54.3222 108.681 58.1289 113.66 62.1503 111.366C66.1703 109.072 64.4531 103.699 63.4713 101.599C62.4882 99.4985 60.4013 98.5178 58.6404 99.8085C56.8794 101.099 58.374 104.589 59.3837 106.267C60.3933 107.945 61.7607 106.756 61.7607 106.756C61.7607 106.756 62.4312 106.374 61.289 104.731C60.1482 103.088 60.0912 101.301 60.3536 101.233C60.6159 101.165 62.6564 103.543 62.561 106.339C62.561 106.339 62.5995 109.844 60.0343 109.863C59.0723 109.87 58.2733 109.565 57.6148 109.114C56.519 108.361 55.8168 107.201 55.4153 106.399C55.1119 105.792 54.6336 104.524 55.1159 103.705" stroke="#B3B3B3" stroke-linecap="round" stroke-linejoin="round"/>
        <path d="M59.4953 109.838C59.4953 109.838 59.9418 108.378 59.3721 106.223" stroke="#B3B3B3" stroke-linecap="round" stroke-linejoin="round"/>
        <path d="M55.0103 103.93C55.0103 103.93 56.5062 104.172 57.1634 106.635C57.8219 109.096 57.6152 109.113 57.6152 109.113" stroke="#B3B3B3" stroke-linecap="round" stroke-linejoin="round"/>
        <path d="M58.8047 111.812C58.8047 111.812 58.2111 113.707 55.8142 114.192C53.4159 114.677 50.0359 113.063 48.8526 110.738C47.6694 108.413 47.2401 105.753 49.0355 104.593C49.0355 104.593 51.5106 103.511 53.1668 106.21" stroke="#B3B3B3" stroke-linecap="round" stroke-linejoin="round"/>
        <path d="M56.8808 110.929C56.8808 110.929 56.4144 112.234 54.6031 112.29C52.7932 112.347 50.7871 110.096 50.379 109.094C49.9709 108.093 49.4237 106.572 50.0451 106.271" stroke="#B3B3B3" stroke-linecap="round" stroke-linejoin="round"/>
        <path d="M54.1689 108.315C54.1689 108.315 54.8102 110.435 54.6035 112.29" stroke="#B3B3B3" stroke-linecap="round" stroke-linejoin="round"/>
        <path d="M52.4686 111.49C52.4686 111.49 52.7058 109.986 52.2739 108.92C51.8419 107.856 50.7925 106.279 49.8306 106.505" stroke="#B3B3B3" stroke-linecap="round" stroke-linejoin="round"/>
        <path d="M53.8414 114.176C53.8414 114.176 53.2067 116.306 50.1817 116.653C47.1567 116.999 44.6459 113.912 43.8363 112.459C43.0267 111.006 42.1681 108.32 44.096 107.125C46.0239 105.93 47.9663 108.327 47.9663 108.327" stroke="#B3B3B3" stroke-linecap="round" stroke-linejoin="round"/>
        <path d="M51.9983 113.576C51.9983 113.576 50.6878 114.972 49.3324 114.632C47.9782 114.292 45.9708 113.101 45.3759 111.133C45.3759 111.133 44.72 109.458 45.466 108.571" stroke="#B3B3B3" stroke-linecap="round" stroke-linejoin="round"/>
        <path d="M47.7065 113.934C47.7065 113.934 47.8867 112.375 47.4786 111.374C47.0705 110.372 46.4106 108.809 45.2817 108.862" stroke="#B3B3B3" stroke-linecap="round" stroke-linejoin="round"/>
        <path d="M49.8016 114.625C49.8016 114.625 50.0017 112.511 49.5273 111.737" stroke="#B3B3B3" stroke-linecap="round" stroke-linejoin="round"/>
        <path d="M48.927 116.713C48.927 116.713 47.614 119.237 44.581 118.919C41.5468 118.6 40.3026 116.569 40.3026 116.569C40.3026 116.569 39.2771 115.233 40.0376 114.728C40.7982 114.223 41.3997 114.898 42.3338 115.764C43.2666 116.629 44.5148 117.151 45.5695 116.869C46.6242 116.586 47.019 115.838 47.019 115.838" stroke="#B3B3B3" stroke-linecap="round" stroke-linejoin="round"/>
        <path d="M58.5357 62.857C60.6279 62.857 62.3239 61.1832 62.3239 59.1183C62.3239 57.0535 60.6279 55.3796 58.5357 55.3796C56.4436 55.3796 54.7476 57.0535 54.7476 59.1183C54.7476 61.1832 56.4436 62.857 58.5357 62.857Z" stroke="#B3B3B3" stroke-linecap="round" stroke-linejoin="round"/>
        <path d="M60.0146 87.9149C60.6255 87.758 61.3277 88.6917 61.6629 89.9589C61.9982 91.226 61.8445 92.3794 61.2337 92.5363" stroke="#B3B3B3" stroke-linecap="round" stroke-linejoin="round"/>
        <path d="M23.8606 101.688C24.4718 101.531 24.6964 100.377 24.3624 99.1107C24.0284 97.8442 23.2622 96.9448 22.651 97.1018C22.0399 97.2588 21.8152 98.4128 22.1492 99.6792C22.4832 100.946 23.2495 101.845 23.8606 101.688Z" stroke="#B3B3B3" stroke-linecap="round" stroke-linejoin="round"/>
        <path d="M22.5781 97.1028L59.9471 87.9332" stroke="#B3B3B3" stroke-linecap="round" stroke-linejoin="round"/>
        <path d="M24.001 101.671L61.37 92.501" stroke="#B3B3B3" stroke-linecap="round" stroke-linejoin="round"/>
        <path d="M152.683 125.015C153.129 124.253 151.505 122.504 149.055 121.109C146.606 119.713 144.259 119.199 143.813 119.961C143.368 120.723 144.992 122.472 147.441 123.867C149.891 125.263 152.238 125.777 152.683 125.015Z" stroke="#B3B3B3" stroke-linecap="round" stroke-linejoin="round"/>
        <path d="M41.0947 78.6785C41.3991 78.3065 40.6763 77.2321 39.4803 76.2786C38.2843 75.3251 37.068 74.8537 36.7636 75.2256C36.4592 75.5975 37.182 76.672 38.378 77.6255C39.574 78.5789 40.7903 79.0504 41.0947 78.6785Z" stroke="#B3B3B3" stroke-linecap="round" stroke-linejoin="round"/>
        <path d="M69.0362 113.152C69.8838 112.316 70.3545 111.424 70.0875 111.16C69.8205 110.897 68.9169 111.361 68.0693 112.198C67.2218 113.034 66.7511 113.926 67.0181 114.19C67.2851 114.453 68.1887 113.989 69.0362 113.152Z" stroke="#B3B3B3" stroke-linecap="round" stroke-linejoin="round"/>
        <path d="M63.3595 77.8046C64.3009 76.1034 56.438 70.0749 45.7973 64.3397C35.1567 58.6045 25.7675 55.3343 24.8261 57.0356C23.8847 58.7368 31.7476 64.7653 42.3882 70.5005C53.0289 76.2357 62.4181 79.5059 63.3595 77.8046Z" stroke="#B3B3B3" stroke-linecap="round" stroke-linejoin="round"/>
        <path d="M61.8181 76.943C62.4845 75.7387 55.0537 70.4661 45.221 65.1663C35.3882 59.8666 26.877 56.5466 26.2106 57.7509C25.5441 58.9552 32.9749 64.2278 42.8077 69.5276C52.6404 74.8273 61.1517 78.1473 61.8181 76.943Z" stroke="#B3B3B3" stroke-linecap="round" stroke-linejoin="round"/>
        <path d="M73.1745 67.6026C69.018 65.6581 65.2974 63.7776 61.8604 61.9076" stroke="#B3B3B3" stroke-linecap="round" stroke-linejoin="round"/>
        <path d="M159.019 86.0437C159.736 87.1618 159.969 88.1373 159.664 88.9389C158.24 92.6972 146.078 91.8499 128.136 87.2311" stroke="#B3B3B3" stroke-linecap="round" stroke-linejoin="round"/>
        <path d="M54.6698 57.5765C46.9928 52.7328 42.8323 48.6149 43.769 46.1446C45.4319 41.7573 62.6728 43.8627 85.39 50.6248" stroke="#B3B3B3" stroke-linecap="round" stroke-linejoin="round"/>
        <path d="M106.499 109.988L77.0222 105.672C76.0258 105.526 75.0943 105.22 74.2503 104.783C71.0557 103.13 69.1146 99.6136 69.6737 95.8932L75.085 59.8872C75.7912 55.1835 80.2274 51.9365 84.9934 52.6348L114.471 56.9502C115.475 57.0966 116.413 57.4079 117.262 57.8499C120.445 59.5067 122.377 63.0166 121.819 66.7291L116.408 102.735C115.702 107.439 111.265 110.686 106.499 109.988V109.988Z" stroke="#B3B3B3" stroke-linecap="round" stroke-linejoin="round"/>
        <path d="M75.7954 106.067C75.7954 106.067 79.4431 109.253 83.7905 109.76C85.2798 109.934 110.273 113.282 110.961 113.343C111.649 113.405 121.993 115.247 123.913 105.727C125.6 97.3605 129.412 75.6241 130.311 70.4757C130.46 69.6309 130.432 68.7652 130.228 67.9322C129.84 66.3473 128.968 63.8941 127.172 62.9133C124.422 61.4121 116.449 57.4785 116.449 57.4785" stroke="#B3B3B3" stroke-linecap="round" stroke-linejoin="round"/>
        <path d="M101.797 74.4012C102.33 71.2157 100.146 68.208 96.9186 67.681C93.6909 67.1553 90.6434 69.3104 90.1094 72.4959C89.6682 75.1309 91.0873 77.643 93.4179 78.731L86.9639 91.787L98.4887 93.6662L96.6324 79.2541C99.1936 78.9638 101.356 77.0349 101.797 74.3999V74.4012Z" stroke="#B3B3B3" stroke-linecap="round" stroke-linejoin="round"/>
        <path d="M43.4522 34.7391L46.2135 32.5408L43.0137 30.986L44.1532 29.014L47.0761 30.884L47.5783 27.4604L49.8321 27.9181L48.9192 31.2815L52.4477 30.6996L52.706 32.9554L49.1431 33.1358L50.8007 36.2324L48.7231 37.1792L47.4551 33.9074L44.9813 36.4194L43.4509 34.7404L43.4522 34.7391Z" stroke="#B3B3B3" stroke-linecap="round" stroke-linejoin="round"/>
        <path d="M56.6427 34.7391L59.404 32.5408L56.2041 30.986L57.3436 29.014L60.2666 30.884L60.7687 27.4604L63.0226 27.9181L62.1096 31.2815L65.6381 30.6996L65.8965 32.9554L62.3336 33.1358L63.9911 36.2324L61.9135 37.1792L60.6455 33.9074L58.1717 36.4194L56.6414 34.7404L56.6427 34.7391Z" stroke="#B3B3B3" stroke-linecap="round" stroke-linejoin="round"/>
        <path d="M69.2711 34.7391L72.0324 32.5408L68.8325 30.986L69.972 29.014L72.895 30.884L73.3971 27.4604L75.651 27.9181L74.738 31.2815L78.2665 30.6996L78.5249 32.9554L74.962 33.1358L76.6195 36.2324L74.5419 37.1792L73.2739 33.9074L70.8001 36.4194L69.2698 34.7404L69.2711 34.7391Z" stroke="#B3B3B3" stroke-linecap="round" stroke-linejoin="round"/>
        <path d="M92.3701 53.0662C93.7759 45.6097 98.1816 28.7889 109.015 31.2695C109.015 31.2695 116.007 31.5285 114.252 42.0606C113.124 48.8358 112.053 53.5605 111.433 56.0673" stroke="#B3B3B3" stroke-linecap="round" stroke-linejoin="round"/>
        <path d="M85.7715 52.2228C87.07 46.5487 89.7293 35.8766 92.0321 32.6924C95.6785 27.6486 101.506 22.2884 110.42 23.3764C119.336 24.4657 124.329 33.4679 122.263 43.2716C120.733 50.528 119.649 55.7666 119.261 57.8537" stroke="#B3B3B3" stroke-linecap="round" stroke-linejoin="round"/>
    </g>
    <defs>
        <clipPath id="clip0_1377_1273">
            <rect width="212" height="136" fill="white"/>
        </clipPath>
    </defs>
</svg>
