<svg viewBox="0 0 1222 893" fill="none" xmlns="http://www.w3.org/2000/svg">
    <path d="M767.061 223.19C861.831 225.99 967.461 229.81 1062.09 233.54L1069.85 233.84C1075.89 233.64 1081.9 235.75 1085.53 240.91C1088.26 244.62 1089.34 249.52 1088.45 254.04L1087.72 257.85C1079.75 299.44 1070.64 346.01 1062.08 387.41C1059.97 397.55 1057.89 407.7 1055.7 417.83C1055.59 418.33 1055.1 418.65 1054.6 418.54C1054.12 418.44 1053.81 417.97 1053.88 417.49C1055.54 407.26 1057.31 397.05 1059.05 386.84C1065.74 347.96 1073.8 303.39 1081.07 264.5C1081.51 262.04 1082.77 255.44 1083.2 253.04C1084.31 247.81 1081.28 242.16 1076.33 240.17C1074.15 239.21 1072.14 239.27 1069.64 239.17L1061.88 238.87C988.861 236.07 902.161 232.53 829.021 229.23L766.941 226.32C766.081 226.28 765.421 225.55 765.461 224.69C765.501 223.84 766.221 223.18 767.061 223.21V223.19Z" fill="white"/>
    <path d="M646.95 357.37C646.89 357.37 646.84 357.37 646.78 357.35C646.28 357.26 645.95 356.78 646.04 356.27L668.84 233.15C670.22 225.83 676.9 220.55 684.32 220.81L693.88 221.38C694.39 221.41 694.78 221.85 694.75 222.36C694.72 222.87 694.29 223.27 693.77 223.23L684.23 222.66C677.72 222.38 671.87 227.07 670.66 233.5L647.86 356.61C647.78 357.06 647.39 357.37 646.95 357.37V357.37Z" fill="white"/>
    <path d="M890.911 528.12C866.371 526.73 838.871 524.71 814.391 522.48C813.231 522.37 813.311 520.59 814.531 520.64C832.061 521.58 854.371 523.23 871.941 524.63C876.691 525.01 886.301 525.84 891.051 526.29C892.211 526.4 892.131 528.18 890.911 528.13V528.12Z" fill="white"/>
    <path d="M1045.65 307.26L945.24 300.21C942.89 300.06 891.41 296.48 890.33 296.42C886.14 296.51 882.49 292.37 883.36 288.19L883.49 287.4L884.02 284.3C884.69 280.39 886.53 269.75 887.22 265.7C887.39 264.64 887.6 263.28 888.13 262.34C890.12 258.56 893.71 258.33 897.48 258.68C930.82 259.91 1016.13 263.05 1048.36 264.17C1050.33 264.25 1053.5 264.11 1055.23 265.44C1058.04 267.17 1059.13 270.85 1058.25 273.92L1057.97 275.47C1057.62 277.39 1056.67 282.76 1056.31 284.76L1054.1 297.15C1053.87 298.4 1053.51 300.66 1053.21 301.93C1052.34 305.21 1049.02 307.57 1045.63 307.28L1045.65 307.26ZM1045.86 304.1C1047.78 304.26 1049.66 302.91 1050.15 301.05C1050.37 300.22 1050.8 297.48 1051 296.55C1052.08 290.41 1054.43 278.06 1055.5 271.93C1055.79 269.56 1053.81 267.29 1051.39 267.26L1048.25 267.13C1014.5 265.73 929.06 262.31 894.3 260.96C892.2 260.92 890.23 262.53 889.85 264.59L889.59 266.12L887.49 278.53L886.44 284.73L885.92 287.83C885.8 288.67 885.6 289.6 885.85 290.44C886.23 292.04 887.55 293.4 889.16 293.76C889.86 293.93 891.06 293.94 892.07 294.03C925.9 296.3 1011.04 301.84 1045.87 304.1H1045.86Z" fill="white"/>
    <path d="M754.001 303.33C757.601 303.28 761.201 303.32 764.791 303.39L766.171 303.43C768.161 303.51 769.861 305.25 769.891 307.25C769.921 307.78 769.771 308.35 769.681 308.84C769.521 309.64 769.081 311.97 768.911 312.81C766.601 324.69 762.481 345.95 760.181 357.81L759.921 359.13C759.721 360.97 758.121 362.53 756.241 362.54C755.341 362.52 754.321 362.4 753.451 362.35L742.691 361.53C742.181 361.49 741.801 361.05 741.841 360.54C741.881 360.04 742.311 359.66 742.821 359.69L753.591 360.32C754.051 360.36 755.171 360.4 755.611 360.44C756.411 360.56 757.131 360.32 757.541 359.65C757.701 359.4 757.761 359.03 757.811 358.73C758.231 356.46 762.021 336.32 762.541 333.55C763.071 330.72 766.821 310.73 767.271 308.37L767.391 307.71C767.431 307.5 767.431 307.44 767.441 307.3C767.441 306.82 767.171 306.32 766.741 306.06C766.531 305.93 766.291 305.85 766.041 305.83C762.011 305.67 757.971 305.48 753.951 305.18C752.791 305.1 752.841 303.35 754.011 303.33H754.001Z" fill="white"/>
    <path d="M775.57 218.59C777.05 210.42 799.31 91.7801 800.14 87.7401C801.96 80.3401 809.29 74.9401 816.9 75.3801C817.18 75.3801 819.28 75.47 819.67 75.48C910.61 78.75 1104.78 86.0101 1196.18 89.5501L1203.56 89.84C1204.69 89.88 1206.25 89.92 1207.67 90.23C1214.93 91.65 1220.71 98.24 1221.11 105.65C1221.3 108.01 1220.64 111.3 1220.15 113.64L1218.76 120.9C1205.67 189.32 1183.28 306.4 1170.18 374.86L1169.49 378.49C1169.43 378.8 1169.39 379.07 1169.3 379.42L1169.04 380.48C1167.1 387.95 1159.59 393.35 1151.89 392.78C1151.53 392.77 1151.26 392.74 1150.94 392.72L1147.26 392.44C1120.38 390.26 1093.1 387.93 1066.32 385.01C1065.81 384.96 1065.44 384.5 1065.5 383.99C1065.55 383.5 1065.97 383.15 1066.45 383.16C1090.89 384.1 1115.8 385.44 1140.23 387.04L1147.6 387.51L1151.28 387.76C1151.57 387.78 1151.92 387.81 1152.17 387.81H1152.93C1155.47 387.81 1157.97 386.9 1159.98 385.36C1162.43 383.44 1164 380.61 1164.44 377.53C1165.11 375.68 1187.42 255.63 1188.62 250.53C1191.68 234.94 1212.33 125.65 1214.87 112.64L1215.56 109.01C1216.59 104.06 1213.94 98.69 1209.38 96.48C1207.32 95.53 1205.75 95.23 1203.33 95.22L1195.95 94.9401C1108.44 91.6401 914.04 84.01 826.85 80.48L819.47 80.18L817.62 80.1001L816.7 80.06C811.22 79.72 805.89 83.5601 804.56 88.9101C803.93 91.9901 780.8 211.96 779.4 219.32C779.2 220.38 778.17 221.08 777.11 220.87C776.05 220.67 775.36 219.64 775.56 218.59H775.57Z" fill="white"/>
    <path d="M1178.02 163.47L1077.62 156.38C1075.27 156.23 1023.79 152.64 1022.71 152.58C1017.93 152.58 1014.46 148.01 1015.71 143.35C1016.81 137.02 1018.61 126.48 1019.73 120.08C1020.35 116.84 1023.39 114.33 1026.69 114.37C1027.85 114.39 1028.82 114.44 1029.89 114.48C1063.23 115.7 1148.54 118.81 1180.77 119.92C1182.8 120 1185.97 119.86 1187.76 121.23C1190.65 123.01 1191.79 126.79 1190.88 129.94C1190.72 130.87 1190.22 133.6 1190.05 134.59C1189.36 138.49 1187.46 149.13 1186.74 153.17C1186.5 154.45 1186.16 156.66 1185.85 157.97C1184.95 161.36 1181.52 163.79 1178.02 163.49V163.47ZM1178.27 159.84C1179.71 159.95 1181.16 159.18 1181.89 157.94C1182.54 157 1182.83 153.81 1183.15 152.48C1184.23 146.35 1186.58 134.01 1187.66 127.88C1187.93 125.64 1186.06 123.49 1183.78 123.46L1180.64 123.33C1146.9 121.92 1061.45 118.47 1026.7 117.1C1024.68 117.06 1022.79 118.61 1022.42 120.59L1022.16 122.12L1020.06 134.53C1019.64 137.28 1018.64 142.48 1018.3 145.2C1018.19 147.19 1019.65 149.14 1021.6 149.56C1022.26 149.73 1023.48 149.74 1024.48 149.82C1058.32 152.09 1143.45 157.59 1178.28 159.83L1178.27 159.84Z" fill="white"/>
    <path d="M873.38 220.09C859.84 219 835.39 217.3 822.08 216.25L818.42 215.98C817.81 215.9 816.24 215.86 815.54 215.74C813.81 215.43 812.45 213.84 812.41 212.08C812.41 211.3 813.1 208.13 813.24 207.32C814.13 202.79 816.53 190.38 817.44 185.68C818.35 180.91 820.69 168.64 821.58 164.03C821.89 162.82 821.89 161.05 822.93 160.12C823.74 159.24 824.98 158.89 826.15 159.01L827.07 159.04C836.82 159.32 861.72 160.01 871.15 160.21C873.5 160.28 879.88 160.41 882.17 160.47C882.68 160.51 883.62 160.45 884.17 160.56C886.37 160.87 887.87 163.33 887.28 165.41L887.11 166.31C884.95 178.16 881.99 194.15 879.81 206.06C879.57 207.3 878.37 213.97 878.15 215.09L877.98 215.99L877.9 216.44C877.61 218.6 875.53 220.29 873.36 220.09H873.38ZM873.59 216.98C874.12 217.02 874.63 216.65 874.77 216.15L875.46 212.7C877.52 202.36 880.53 187.04 882.6 176.66L884.03 169.45L884.74 165.85C884.92 164.75 885.27 164.14 884.64 163.37C884.25 162.87 883.61 162.8 883.01 162.81L882.09 162.78C879.83 162.7 873.44 162.46 871.07 162.38C861.2 162 836.25 161.19 826.09 160.87C825.24 160.75 824.28 161.05 823.93 161.9C821.64 173.25 818.86 189.06 816.71 200.5L815.39 207.73L814.73 211.34C814.49 212.2 814.77 212.88 815.46 213.32C815.89 213.64 817.92 213.58 818.57 213.67L822.24 213.89C835.47 214.69 860.12 216.18 873.59 216.99V216.98Z" fill="white"/>
    <path d="M423.619 16.39C434.379 9.27996 450.899 -0.240045 464.089 0.629955C473.359 1.68996 472.129 10.31 468.369 16.44C461.869 27.36 451.999 35.76 441.749 42.99C431.299 49.95 419.909 56.17 407.349 58.3C394.789 60.32 389.809 53.28 396.589 42.32C403.349 31.62 413.359 23.5 423.629 16.4L423.619 16.39ZM424.459 17.63C414.109 25.01 399.899 36.4 396.029 48.77C393.329 61.23 412.609 54.79 418.549 52.28C429.869 47.54 440.369 40.86 449.899 33.15C456.159 28 462.269 22.29 466.569 15.4C472.369 5.91996 468.919 0.76996 457.899 2.50996C445.739 4.60996 434.649 10.86 424.449 17.63H424.459Z" fill="white"/>
    <path d="M399.769 56.4699L495.489 119.76L495.179 119.62C495.909 119.69 496.969 119.56 497.419 118.96C498.419 117.5 497.749 114.97 497.319 113.14L496.439 109.57L492.919 95.2799C489.399 81.0399 482.389 52.3399 478.939 38.0899L472.069 9.45992C472.009 9.18992 472.169 8.92992 472.429 8.86992C472.689 8.80992 472.949 8.96992 473.019 9.21992C476.809 23.4199 484.339 51.9299 488.039 66.1499C490.489 75.5999 496.759 99.7599 499.119 108.89C500.109 112.87 503.029 120.62 496.949 121.87C496.049 121.97 495.159 121.92 494.319 121.53L398.719 58.0499C398.289 57.7599 398.169 57.1799 398.459 56.7499C398.749 56.3199 399.329 56.1999 399.759 56.4899L399.769 56.4699Z" fill="white"/>
    <path d="M1097.6 494.84C1103.58 517.34 1112.72 568.53 1096.49 587.16C1080.08 602.61 1060.24 570.6 1053.54 558.1C1041.71 535.84 1034.23 511.48 1030.16 486.65C1027.39 467.49 1025.11 441.7 1033.56 423.77C1038.58 413.61 1048.03 411.06 1057.37 417.66C1078.06 432.99 1091.13 470.53 1097.59 494.84H1097.6ZM1094.71 495.6C1088.08 471.91 1075.21 435.98 1055 421.24C1033.58 407.64 1032.46 448.63 1033.36 461.34C1034.74 485.83 1040.32 510.09 1048.48 533.19C1054.01 548.43 1060.68 563.75 1070.8 576.46C1081.19 589.26 1093.48 593.93 1099.44 574.58C1106.14 548.98 1100.92 520.91 1094.71 495.6V495.6Z" fill="white"/>
    <path d="M1037.98 423.15C1038.08 423.05 853.08 562.79 855.3 560.8C851.91 567.84 861.27 568.66 866.09 569.14C911.19 573.61 974.54 579.91 1019.81 584.6L1078.34 590.77C1078.88 590.83 1079.27 591.31 1079.22 591.85C1079.16 592.38 1078.69 592.77 1078.16 592.73C1014.51 587.67 936.42 580.98 872.92 575.4C868.42 574.87 862.1 574.86 857.78 573.39C850.73 571.43 847.14 564.8 851.84 558.43C851.87 557.77 1035.45 420.68 1035.73 420.15C1036.56 419.53 1037.73 419.7 1038.35 420.52C1038.97 421.34 1038.81 422.52 1037.98 423.14V423.15Z" fill="white"/>
    <path d="M800.181 791.76C790.711 817.17 781.311 842.36 771.681 867.6L770.951 866.7L851.871 854.32L851.511 855.26C834.271 834.15 817.271 813.05 800.181 791.76C800.181 791.76 817.271 813.05 800.181 791.76V791.76ZM799.961 790.4C817.461 811.66 835.051 833.1 852.411 854.53C852.691 854.86 852.481 855.41 852.051 855.47L771.161 868.03C770.671 868.12 770.241 867.59 770.431 867.13C780.141 841.51 790.091 815.85 799.961 790.4Z" fill="white"/>
    <path d="M811.84 859.49C816.37 847.25 820.92 835.23 825.72 823.08L826.33 823.84C824.69 824.28 823 824.43 821.34 824.7C812.29 826.05 795.47 828.56 786.26 829.91L786.74 828.65C795.23 838.83 803.45 849.06 811.84 859.49V859.49ZM812.09 861.05C803.26 850.73 794.27 840.21 785.54 829.65C785.15 829.2 785.44 828.46 786.02 828.39C795.31 827.05 812 824.63 821.12 823.34C822.82 823.13 824.49 822.78 826.22 822.73C826.53 822.73 826.79 822.97 826.8 823.28C822.17 835.89 817.06 848.55 812.09 861.05V861.05Z" fill="white"/>
    <path d="M827.081 821.93L843.661 807.17C843.991 806.88 844.501 806.9 844.791 807.24C845.091 807.58 845.051 808.11 844.701 808.4L827.451 822.37C827.181 822.6 826.801 822.17 827.081 821.94V821.93Z" fill="white"/>
    <path d="M784.35 829.12L763.21 821.66C762.77 821.5 762.54 821.02 762.69 820.58C762.85 820.13 763.36 819.9 763.8 820.08L784.57 828.53C784.93 828.67 784.72 829.25 784.35 829.11V829.12Z" fill="white"/>
    <path d="M811.871 861.12L815.741 883.8C815.841 884.37 815.451 884.91 814.881 885.01C814.281 885.11 813.721 884.68 813.661 884.08L811.301 861.19C811.261 860.84 811.821 860.75 811.871 861.11V861.12Z" fill="white"/>
    <path d="M851.19 854.7L844.15 807.25L844.34 808.36L799.77 791.16L800.55 791.03L763.16 820.91L763.34 820.44L772.73 867.83L771.87 866.76L815.53 885.66L814.84 885.77L851.2 854.69L851.19 854.7ZM852.79 855.3L815.7 886.79C815.5 886.96 815.24 886.99 815.01 886.9L770.77 869.42C770.3 869.24 769.98 868.81 769.91 868.35L762.37 820.63C762.34 820.45 762.41 820.27 762.55 820.16L799.55 789.81C799.78 789.62 800.08 789.59 800.33 789.68L845.25 805.96C845.25 805.96 845.27 805.98 845.28 805.99L845.44 807.07L852.8 855.31L852.79 855.3Z" fill="white"/>
    <path d="M51.79 527.1C35.56 550.8 19.45 574.3 3.09997 597.78L2.57997 596.67L88.93 604.63L88.32 605.5C76 579.39 63.91 553.35 51.79 527.09C51.79 527.09 63.92 553.34 51.79 527.09V527.1ZM51.91 525.64C64.47 551.97 77.07 578.51 89.43 604.98C89.63 605.39 89.28 605.91 88.82 605.85L2.44997 598.08C1.91997 598.05 1.61996 597.39 1.92996 596.97C18.47 573.12 35.25 549.28 51.91 525.64V525.64Z" fill="white"/>
    <path d="M46.4702 599.71C54.2602 588.29 62.0102 577.09 70.0502 565.83L70.4802 566.77C68.6802 566.8 66.9102 566.52 65.1302 566.38C55.4802 565.46 37.5502 563.73 27.7402 562.77L28.5602 561.6C34.6802 574.24 40.5302 586.85 46.4802 599.72L46.4702 599.71ZM46.3302 601.37C39.8902 588.51 33.3402 575.39 27.0602 562.3C26.7702 561.74 27.2602 561.05 27.8802 561.13C37.7702 562.13 55.5502 563.9 65.2602 564.91C67.0602 565.12 68.8702 565.2 70.6502 565.59C70.9702 565.66 71.1802 565.98 71.1102 566.3C63.1302 578.08 54.6302 589.79 46.3302 601.37V601.37Z" fill="white"/>
    <path d="M71.7313 565L92.5513 554.06C92.9713 553.84 93.4813 554 93.7013 554.42C93.9313 554.85 93.7513 555.38 93.3113 555.59L72.0113 565.54C71.6713 565.71 71.3913 565.17 71.7413 565H71.7313Z" fill="white"/>
    <path d="M25.9606 561.46L6.13061 548.39C5.72061 548.12 5.60061 547.56 5.88061 547.15C6.16061 546.72 6.7406 546.62 7.1506 546.92L26.3406 560.92C26.6806 561.16 26.3106 561.7 25.9606 561.46V561.46Z" fill="white"/>
    <path d="M46.0801 601.39L44.2601 625.69C44.2101 626.3 43.6801 626.76 43.0701 626.72C42.4301 626.67 41.9601 626.09 42.0501 625.45L45.4701 601.32C45.5201 600.95 46.1101 601 46.0801 601.39Z" fill="white"/>
    <path d="M88.1407 604.84L93.0307 554.26L92.9408 555.45L51.5107 526.37L52.3508 526.44L6.28075 547.6L6.58075 547.16L4.12075 598.28L3.51075 596.96L43.5607 627.55L42.8308 627.49L88.1507 604.84H88.1407ZM89.6308 605.86L43.4507 628.76C43.2007 628.88 42.9208 628.85 42.7108 628.7L1.70075 599.41C1.26075 599.1 1.05075 598.58 1.09075 598.09L5.54074 547.1C5.56074 546.91 5.67075 546.74 5.84075 546.66L51.6408 524.91C51.9208 524.78 52.2407 524.81 52.4807 524.98L94.4907 553.2C94.4907 553.2 94.5108 553.23 94.5108 553.24L94.4007 554.39L89.6308 605.86Z" fill="white"/>
    <path d="M1134.52 813.5C1121.63 804.9 1116.32 783.34 1110.29 769.6C1104.82 756.74 1097.98 741.65 1081.91 751.48C1057.65 766.36 1024.55 800.24 996.779 773.57C993.609 770.52 990.839 767.13 988.359 763.57C982.219 751.54 978.229 738.74 972.619 726.57C962.239 703.4 950.199 706.14 932.959 721.02C929.599 723.98 926.599 727.14 923.329 730.25C916.809 736.51 908.799 741.52 899.869 743.59C881.669 748.18 863.069 737.57 853.109 722.61C847.949 715.2 844.419 706.72 842.469 697.92C838.789 687.8 834.589 674.56 822.789 670.96C808.649 665.89 813.849 644.86 828.969 647.14C834.489 648.07 839.929 650.09 844.229 653.75C855.169 663.56 860.279 677.96 865.519 691.18C868.109 697.76 870.539 704.4 873.929 710.35C875.629 713.3 877.609 716.08 880.099 718.04C889.009 724.89 899.059 715.91 906.679 710.98C928.679 695.92 955.739 671.55 980.919 695.13C983.409 697.5 986.069 700.39 988.139 703.14C999.659 718.02 999.819 738.67 1011.81 753.22C1020.18 760.92 1028.84 759.7 1037.99 752.82C1048.24 745.49 1056.39 734.13 1068.21 728.35C1086.98 719.01 1104.75 720.62 1118.82 737.05C1129.06 749.16 1134.93 763.86 1140.16 778.55C1142.03 783.12 1142.53 788.6 1146.45 791.97C1151.15 796.33 1158.28 797.99 1161.99 803.6C1165.75 809.36 1163.94 819.27 1156.72 821.25C1148.38 823.18 1141.07 817.49 1134.53 813.47L1134.52 813.5ZM1135.36 812.22C1139.62 815.06 1144.39 817.14 1149.11 818.5C1153.46 819.91 1159.1 819.68 1161.14 814.84C1162.12 812.68 1162.49 810.15 1161.97 807.8C1160 799.79 1150.81 798.69 1145.17 793.39C1143.64 792.03 1142.34 790.34 1141.49 788.45C1134.01 767.78 1125.33 740.85 1105.3 729.32C1095.28 723.69 1083.15 724.88 1072.95 729.48C1059.6 734.8 1051.46 746.88 1039.69 755.21C1035.34 758.34 1030.34 761.04 1024.8 761.25C1019.14 761.55 1013.86 758.57 1009.94 754.76C1000.91 743.41 998.679 728.54 993.129 715.58C991.369 711.58 989.459 707.62 986.689 704.27C985.859 703.18 984.269 701.28 983.309 700.27C978.159 694.59 971.599 689.53 963.949 688.01C943.849 684.12 924.069 702.88 908.489 713.56C902.429 717.66 896.809 722.66 889.219 723.88C876.599 725.77 870.009 712.11 865.829 702.56C858.809 686.91 854.339 668.77 841.579 656.77C836.849 652.47 830.539 647.94 823.829 649.62C817.469 651.27 814.929 659.98 819.019 664.99C819.979 666.19 821.219 667.14 822.629 667.82C823.759 668.31 825.289 668.89 826.299 669.38C830.059 671.26 833.279 674.22 835.529 677.75C839.529 683.86 841.419 690.89 843.829 697.64C845.729 706.27 849.199 714.58 854.239 721.82C871.399 746.4 900.289 750.17 921.789 728.67C930.599 720.12 942.339 707.09 955.579 707.06C965.569 707.6 971.089 717.52 974.959 725.46C980.489 737.27 985.209 751.25 990.839 762.07C1001.28 776.61 1014.36 784.18 1032.12 777.36C1047.54 771.38 1060.39 760.14 1074.16 750.96C1077.58 748.63 1081.34 746.03 1085.78 744.7C1101.67 739.61 1109.12 756.19 1113.46 768.35C1118.93 782.42 1122.83 803.07 1135.34 812.21L1135.36 812.22Z" fill="white"/>
    <path d="M272.941 726.44C267.601 718.83 257.711 709.99 247.861 710.67C244.261 711.43 240.781 713.13 238.211 715.77C232.291 722.16 233.141 731.81 235.071 739.71C237.031 746.95 239.641 754.22 243.751 760.54C254.421 774.93 271.271 789.93 290.351 788.21C301.531 786.96 311.871 779.74 317.261 769.94C326.211 752.86 321.821 732.19 315.311 714.99C313.891 711.47 312.421 707.97 310.311 704.86C304.351 695.46 292.621 688.78 281.791 694.03C262.201 702.24 275.891 731.94 283.441 744.94C285.071 747.55 287.231 750.27 290.261 751.22C293.741 752.38 297.661 750.99 300.431 748.77C300.921 748.44 301.351 747.73 301.511 747.1C302.271 743.98 300.601 740.88 299.171 738.16C297.151 734.69 294.581 731.42 292.891 727.73C290.251 722.15 288.321 716.1 288.381 709.85C288.431 708.41 288.751 705.37 290.921 706.26C295.071 709.08 297.641 713.67 300.141 717.82C306.161 728.54 309.041 741.23 306.751 753.44C305.001 764.02 298.711 774.19 286.721 773.51C271.751 773.42 260.121 761.68 253.631 749.15C250.771 743.78 248.241 737.8 248.471 731.57C248.551 729.5 249.071 727.31 250.441 725.69C250.501 725.62 250.611 725.61 250.691 725.67C250.751 725.72 250.761 725.8 250.741 725.86C250.081 727.77 249.721 729.65 249.651 731.61C249.611 733.57 249.871 735.54 250.291 737.48C252.101 745.25 256.351 752.42 261.281 758.63C268.531 767.82 280.711 774.5 292.551 771.51C300.421 769.17 304.051 760.72 305.351 753.2C307.521 741.34 304.681 729 298.791 718.59C296.571 714.79 294.121 710.88 290.771 708.01C290.551 707.84 290.361 707.73 290.171 707.64C290.221 707.68 290.311 707.62 290.341 707.62C289.491 709.85 290.031 713.2 290.461 715.78C291.201 719.68 292.521 723.49 294.251 727.08C296.821 732.61 301.331 737.21 302.481 743.39C302.931 745.43 302.691 748.29 301.021 749.45C293.121 755.61 285.881 752.9 281.381 744.5C275.861 734.46 271.101 723.55 270.361 711.96C270.021 706.22 271.451 699.65 276.231 695.89C280.861 692.25 286.861 690.24 292.751 691.14C300.581 692.34 307.051 697.79 311.251 704.25C321.541 721.87 328.631 751.73 318.211 770.47C310.811 784.06 294.171 792.52 278.931 788.47C267.631 785.6 258.111 778.3 250.201 770.02C246.321 765.8 242.411 761.4 239.991 756.14C234.311 744.05 226.681 722.92 239.661 713.12C242.021 711.38 244.841 710.23 247.691 709.63C254.591 708.99 261.001 713.05 266.101 717.27C269.031 719.79 271.611 722.69 273.811 725.85C274.211 726.43 273.341 727.02 272.941 726.46V726.44Z" fill="white"/>
    <path d="M283.641 773.22C283.591 773.22 283.541 773.22 283.491 773.2C283.211 773.12 283.051 772.82 283.131 772.54C283.161 772.43 286.401 761.31 282.201 745.18C282.131 744.9 282.301 744.61 282.581 744.53C282.861 744.46 283.151 744.63 283.231 744.91C287.511 761.34 284.191 772.73 284.151 772.84C284.081 773.07 283.871 773.22 283.641 773.22Z" fill="white"/>
    <path d="M249.881 726.98C254.011 727.7 257.451 730.28 260.141 733.35C265.521 739.47 267.501 747.64 269.121 755.35C269.771 759.14 270.791 763.08 270.181 766.95C270.091 767.18 270.001 767.46 269.751 767.59C269.451 767.79 268.951 767.59 268.931 767.18C268.911 766.89 269.131 766.63 269.421 766.61C269.261 766.61 269.161 766.7 269.091 766.76C269.041 766.81 269.071 766.74 269.071 766.7C269.071 766.6 269.071 766.52 269.071 766.41C268.671 762.85 267.561 759.39 266.701 755.91C264.001 745.35 260.981 732.32 249.711 728.03C249.061 727.91 249.191 726.88 249.881 726.98V726.98Z" fill="white"/>
    <path d="M278.941 787.93C274.951 799.05 263.981 806.14 252.501 807.3C239.501 808.34 226.561 803.45 216.191 795.79C208.751 790.44 203.021 782.77 199.761 774.2C194.191 760.96 190.081 741.03 204.351 731.8C212.531 728.62 222.161 730.08 228.891 735.74C229.541 736.33 230.861 737.55 231.461 738.14C231.901 738.69 233.251 740.24 233.721 740.81C234.641 742.06 235.461 743.38 236.331 744.66C236.711 745.24 235.861 745.81 235.461 745.27C234.571 744.03 233.741 742.74 232.811 741.53C232.351 741.04 231.031 739.49 230.581 739C229.981 738.4 228.691 737.34 228.081 736.76C221.731 731.63 212.601 730.35 205.051 733.37C192.361 741.97 196.211 760.99 201.601 773.45C204.831 781.75 210.111 789 217.361 794.26C227.331 801.66 239.811 806.5 252.351 805.68C260.341 804.87 268.231 801.37 273.441 795.13C275.311 792.89 276.931 790.33 277.931 787.64C278.121 786.94 279.191 787.26 278.941 787.95V787.93Z" fill="white"/>
    <path d="M264.41 781.2C261.76 788.51 253.88 792.47 246.42 792.5C233.41 792.74 217.78 777.53 213.46 765.94C211.99 761.56 206.14 747.51 212.25 745.25C212.34 745.22 212.44 745.28 212.46 745.37C212.48 745.44 212.46 745.51 212.4 745.55C211.04 746.67 210.89 748.36 210.88 750.05C211.11 755.33 213.22 760.37 215.13 765.28C217.77 771.8 222.79 777.12 227.97 781.75C233.14 786.18 239.48 790.21 246.4 790.33C251.54 790.33 256.77 788.68 260.42 784.98C261.65 783.77 262.72 782.31 263.44 780.79C263.7 780.2 264.65 780.58 264.42 781.19L264.41 781.2Z" fill="white"/>
    <path d="M243.95 760.88C246.66 770.82 248.26 781.19 247.25 791.49C247.22 791.78 246.96 792 246.67 791.97C246.38 791.94 246.16 791.68 246.19 791.39C247.11 781.25 245.55 770.97 242.93 761.19C242.73 760.53 243.75 760.2 243.95 760.89V760.88Z" fill="white"/>
    <path d="M230.092 785.23C230.582 779.45 230.602 773.41 228.982 767.81C227.142 762.34 224.102 757.08 220.362 752.69C219.082 751.24 217.662 749.91 216.062 748.92C214.472 747.93 212.622 747.33 210.822 747.71C210.532 747.77 210.252 747.59 210.192 747.3C210.132 747.02 210.302 746.75 210.572 746.68C212.702 746.12 214.942 746.74 216.732 747.76C222.032 750.95 225.452 756.38 228.262 761.7C232.212 768.87 232.442 777.49 231.132 785.4C231.012 786.06 229.992 785.92 230.082 785.24L230.092 785.23Z" fill="white"/>
    <path d="M241.48 806.01C237.76 816.86 226.92 823.59 216 825.27C204.93 827.61 193.46 823.08 184.84 816.34C170.63 805.05 158.85 788.57 157.88 769.96C157.79 766.25 158.36 762.43 160.03 759.02C163.32 752.21 171.14 747.63 178.7 748.97C186.14 750.29 192.24 755.23 197.04 760.8C197.48 761.35 196.68 762 196.23 761.49C191.62 756.23 185.54 751.4 178.5 750.25C171.51 749.07 164.34 753.42 161.33 759.67C159.8 762.82 159.27 766.41 159.36 769.95C160.37 788.02 172 804.11 185.85 815.03C194.99 822.22 206.87 826.17 218.32 823.04C224.33 821.69 230.19 818.84 234.58 814.46C237.06 811.99 239.24 809 240.46 805.73C240.64 805.03 241.71 805.34 241.48 806.03V806.01Z" fill="white"/>
    <path d="M227.451 801.63C221.911 807.47 213.471 812.54 205.241 809.75C190.351 805.32 177.511 793.28 174.831 777.86C173.901 772.82 173.901 766.84 177.581 762.85C177.771 762.66 178.091 762.9 177.941 763.13C174.281 768.88 175.961 776.28 178.001 782.31C181.081 792.46 189.231 800.24 198.461 805.07C202.751 807.16 207.451 809.44 212.311 808.78C217.751 807.96 222.651 804.72 226.661 800.9C227.111 800.39 227.931 801.11 227.441 801.62L227.451 801.63Z" fill="white"/>
    <path d="M194.141 803.94C194.401 798.23 194.351 792.35 192.851 786.82C190.231 779.74 185.351 765.77 176.401 765.73C175.731 765.75 175.671 764.71 176.351 764.67C186.291 764.22 191.721 778.56 194.491 786.36C196.021 792.14 195.951 798.19 195.201 804.06C195.101 804.72 194.091 804.63 194.141 803.94V803.94Z" fill="white"/>
    <path d="M209.951 809.23C210.101 805.54 210.171 801.81 210.001 798.11C209.781 794.54 209.561 790.68 207.961 787.47C207.621 786.89 208.501 786.34 208.871 786.92C210.871 790.31 211.151 794.24 211.421 798.04C211.591 801.81 211.471 805.57 211.011 809.32C210.931 809.98 209.911 809.9 209.951 809.22V809.23Z" fill="white"/>
    <path d="M204.351 825.49C198.981 835.73 188.081 843.02 176.421 843.31C161.721 843.71 146.391 836.92 137.901 824.67C135.831 821.67 133.051 817.12 133.801 812.84C134.891 807.92 141.301 806.54 145.131 809.12C149.361 811.66 152.581 815.58 156.211 818.7C160.971 822.71 166.791 825.88 173.091 826.27C179.231 826.68 185.791 823.5 189.031 818.25C189.371 817.67 190.301 818.19 189.941 818.79C187.341 823.18 182.871 826.06 178.011 827.23C169.761 829.12 161.361 825.19 155.111 820.01C151.391 816.9 148.321 813.19 144.221 810.75C141.931 809.36 139.401 809.37 137.291 810.9C133.361 813.96 137.461 820.38 139.661 823.61C147.541 834.92 161.601 840.99 175.181 841.26L176.351 841.2C179.441 841.14 182.591 840.5 185.511 839.57C192.891 836.96 199.301 831.67 203.421 825.01C203.721 824.39 204.701 824.86 204.361 825.49H204.351Z" fill="white"/>
    <path d="M271.09 356.24C296.97 351.58 315.9 379.92 301.54 402.1C292.48 416.12 272.62 419.82 259.13 409.98C237.77 394.49 245.29 361.14 271.09 356.25V356.24ZM271.27 357.19C251.89 360.73 242.59 383.44 253.78 399.53C267.3 418.83 297.09 413.3 302.78 390.43C307.45 371.4 290.62 353.54 271.26 357.19H271.27Z" fill="white"/>
    <path d="M287.399 604.43C294.879 603.02 299.259 614.81 300.709 620.48C302.199 626.53 303.689 634.03 299.559 639.43C298.989 640.04 296.629 641.81 296.169 640.51C296.099 640.21 296.269 639.91 296.549 639.8C298.079 639.24 299.029 637.84 299.519 636.31C301.759 627.98 299.569 618.51 295.199 611.19C293.519 608.57 291.139 605.18 287.679 605.66C286.909 605.81 286.649 604.63 287.409 604.44L287.399 604.43Z" fill="white"/>
    <path d="M19.3691 690.42C20.6691 695.8 21.1691 701.68 18.9591 706.9C17.9191 709.7 14.8491 711.9 11.8391 710.76C1.97914 706.73 -3.67085 684.73 2.95915 676.4C5.00915 673.98 8.67914 674.39 10.9191 676.3C15.3891 679.75 17.8591 685.11 19.3691 690.41V690.42ZM17.5791 690.89C16.2191 685.9 14.2291 680.65 10.2491 677.19C8.38914 675.52 5.40914 674.94 3.63914 677.03C-2.19086 684.55 2.87914 702.92 10.0191 708.47C13.0491 710.99 16.4191 710.12 17.7791 706.39C19.5791 701.45 18.8091 695.91 17.5891 690.89H17.5791Z" fill="white"/>
    <path d="M4.84824 674.63L286.818 604.28C287.318 604.16 287.818 604.46 287.938 604.95C288.058 605.45 287.758 605.95 287.268 606.07L5.17823 675.96C4.80823 676.05 4.43824 675.83 4.34824 675.46C4.25824 675.09 4.47824 674.72 4.84824 674.63V674.63Z" fill="white"/>
    <path d="M15.5287 709.33L297.629 639.5C297.969 639.42 298.309 639.62 298.389 639.96C298.469 640.3 298.269 640.64 297.929 640.72L15.9687 711.13C15.4687 711.25 14.9687 710.95 14.8487 710.46C14.7287 709.96 15.0287 709.46 15.5187 709.34L15.5287 709.33Z" fill="white"/>
    <path d="M946.47 881.54C937.13 876.01 928.12 869.52 921.59 860.69C918.75 857 915.74 849.94 921.41 847.24C924.1 845.99 927.15 846.14 929.94 846.44C933.59 846.9 937.09 847.87 940.5 849.03C954.05 853.82 966.63 861.15 977.48 870.57C981.49 874.2 985.57 878.12 987.75 883.23C989.72 887.76 987.51 891.65 982.6 892.32C970.83 893.62 956.6 887.11 946.46 881.54H946.47ZM948.3 878.37C957.32 883.51 966.94 888.41 977.26 890.08C994.91 892.22 983.06 877.53 976.38 871.82C971.11 867.16 965.24 863.14 959.13 859.61C952.99 856.13 946.56 853.12 939.88 850.94C931.89 848.19 913.35 845.06 923.86 859.02C930.41 867.12 939.39 873.09 948.29 878.38L948.3 878.37Z" fill="white"/>
    <path d="M123.64 527.13C119.67 524 108.01 512.94 111.56 507.58C114.45 504.68 120.18 507.72 123.19 509.17C131.06 513.41 142.97 522.8 145.67 531.52C146.71 535.95 142.43 536.55 139.11 535.55C133.37 534 128.27 530.74 123.64 527.13V527.13ZM124.89 525.58C128.42 528.45 140.12 537.29 144.35 534.07C145.96 531.31 142.19 526.66 140.52 524.44C134.34 517.33 126.49 510.93 117.42 508.07C112.56 506.77 110.95 508.63 113.43 513.12C116.25 518.03 120.57 521.99 124.9 525.58H124.89Z" fill="white"/>
    <path d="M356.2 798.57C353.36 801.42 344.03 809.48 340.05 806.33C338.04 803.8 340.87 799.68 342.23 797.43C346.35 791.56 354.25 783.36 361.42 781.86C363.42 781.5 364.89 782.93 364.57 784.96C363.6 790.33 359.8 794.7 356.2 798.57ZM355.1 797.47C357.65 794.88 365.38 786.75 363.28 783.09C361.19 781.63 357.42 784.15 355.5 785.27C349.67 789.28 341.89 796.79 340.4 803.89C339.99 806.64 342.82 806.09 344.5 805.34C348.54 803.56 351.95 800.54 355.1 797.48V797.47Z" fill="white"/>
    <path d="M154.059 472.74C116.549 451.92 79.5194 429.68 46.2694 402.41C40.7894 397.79 35.4194 393.01 30.5094 387.74C26.8994 383.73 23.1494 379.53 21.2794 374.34C17.6794 362.08 35.3394 364.7 42.4094 365.99C49.4894 367.3 56.3994 369.25 63.2394 371.39C104.079 384.77 142.749 403.98 180.469 424.37C217.999 445.11 255.029 467.3 288.339 494.45C293.829 499.05 299.209 503.81 304.119 509.06C308.999 514.32 320.679 527.61 308.569 531.15C303.219 532.38 297.669 531.5 292.359 530.64C285.279 529.36 278.359 527.44 271.509 525.32C230.599 512.1 191.859 493.02 154.049 472.74H154.059ZM154.979 471.05C192.599 491.45 231.199 510.65 271.909 524.08C281.069 526.99 323.939 540.26 310.029 518.04C304.049 509.19 295.789 502.14 287.709 495.23C276.729 486.1 265.139 477.71 253.339 469.65C193.909 430.33 130.519 395.51 62.8894 372.55C15.5694 357.76 8.29942 368.85 47.2494 401.25C80.5394 428.25 117.519 450.38 154.989 471.05H154.979Z" fill="white"/>
    <path d="M157.33 465.15C123.06 446.2 89.16 426.28 57.74 402.83C52.53 398.88 47.41 394.8 42.56 390.39C38.97 387.02 35.28 383.6 32.75 379.3C26.88 367.84 46.09 372.94 51.35 374.33C57.67 376.05 63.87 378.17 70 380.43C106.65 394.32 141.69 412.13 176.1 430.79C210.39 449.68 244.29 469.56 275.77 492.91C280.98 496.85 286.11 500.91 290.96 505.31C295.09 509.09 309.42 522.27 296.88 523.47C291.91 523.67 287.04 522.42 282.28 521.22C275.95 519.53 269.75 517.43 263.61 515.19C226.89 501.43 191.8 483.72 157.32 465.15H157.33ZM158.07 463.79C192.42 482.46 227.41 500.28 263.97 514.21C277.88 519.56 320.69 533.75 290.4 505.92C285.58 501.55 280.47 497.49 275.27 493.56C243.84 470.22 209.98 450.33 175.74 431.44C141.32 412.87 106.28 395.15 69.65 381.35C63.53 379.11 57.36 377.01 51.08 375.32C11.51 364.91 46.44 392.97 58.46 401.87C89.94 425.11 123.81 444.96 158.06 463.8L158.07 463.79Z" fill="white"/>
    <path d="M386.51 450.49C360.82 439.71 335.49 427.03 311.27 413.27C307.82 411.24 304.35 409.26 300.94 407.15C300.4 406.82 300.23 406.11 300.57 405.57C300.88 405.06 301.53 404.89 302.05 405.14C308.22 408.17 317.2 412.77 323.43 415.94C338.82 423.79 361.4 435.37 376.67 443.3C380.19 445.18 383.75 447 387.26 448.91C388.17 449.41 387.55 450.89 386.52 450.48L386.51 450.49Z" fill="white"/>
    <path d="M1035.64 590.17C1044.35 599.34 1045.17 614.22 1034.33 622.12C1024.72 629.04 1012.86 630.61 1001.49 631.75C956.251 634.48 911.281 625.57 867.161 616.68C845.101 611.98 823.191 606.66 801.381 600.95C800.751 600.78 800.371 600.14 800.531 599.5C800.691 598.86 801.341 598.49 801.971 598.65C823.761 604.29 845.661 609.53 867.681 614.16C911.551 622.86 956.341 631.62 1001.23 628.79C1017.88 627.4 1046.76 621.78 1036.85 598.91C1035.97 596.39 1034.85 593.9 1033.86 591.26C1033.42 590.2 1034.89 589.31 1035.63 590.15L1035.64 590.17Z" fill="white"/>
    <path d="M246.669 373.9C225.709 360.77 137.689 305.72 168.619 277.33C211.229 242.17 423.629 301.02 479.529 318.37C480.359 318.62 480.829 319.49 480.579 320.32C480.329 321.15 479.459 321.62 478.629 321.37C442.669 310.52 406.439 300.58 369.899 291.96C333.389 283.37 296.519 275.82 259.209 271.81C240.639 269.92 221.829 268.82 203.239 270.42C191.699 271.68 173.129 273.94 167.269 285.11C157.169 307.34 208.569 344.37 224.609 356.21C232.199 361.71 239.939 367.01 247.779 372.17C248.859 372.86 247.849 374.61 246.679 373.9H246.669Z" fill="white"/>
    <path d="M638.079 775.89C605.619 771.03 447.589 746.96 418.669 742.74C411.229 741.79 403.789 739.9 396.989 736.64C372.789 725.44 356.869 699.15 358.499 672.5C365.399 619.19 387.999 472.65 395.439 419.88C396.679 412.53 399.029 394.12 400.409 386.89C404.129 368.29 416.139 351.61 432.579 342.16C445.639 334.47 461.339 331.52 476.309 333.75L651.959 359.44L695.869 365.86L698.609 366.26C705.199 367.21 711.669 369.11 717.709 371.93C742.189 383.16 758.329 409.67 756.769 436.6C750.039 489.96 728.089 636.62 720.579 689.41L717.349 711.36C716.339 718.73 715.179 726.57 712.299 733.6C701.249 762.84 668.689 781.07 638.089 775.88L638.079 775.89ZM638.689 771.76C667.459 776.15 696.599 758.59 706.549 731.39C709.249 724.64 710.149 717.72 711.199 710.45C719.869 651.72 742.049 507.09 751.169 447.19C757.109 417.71 743.299 388.67 715.999 375.56C711.129 373.27 705.969 371.6 700.689 370.6C698.949 370.26 697.129 370.02 695.289 369.74L651.399 363.14L475.859 336.74C461.549 334.62 446.569 337.43 434.089 344.79C418.389 353.83 406.969 369.76 403.439 387.52C402.309 394.4 399.509 413.07 398.439 420.34C390.919 472.82 368.089 619.58 361.209 672.64C359.729 698.17 375.009 723.34 398.229 734C404.829 737.12 411.869 738.9 419.109 739.8C447.079 743.9 607.119 767.23 638.699 771.76H638.689Z" fill="white"/>
    <path d="M406.979 743.48C419.649 753.44 433.949 761.44 449.229 766.6C451.989 767.47 455.629 768.54 458.509 769.11C462.669 770.07 466.959 770.56 471.219 771.09C527.159 778.2 615.379 789.85 671.079 797.04C698.699 801.05 730.779 797.87 750.589 776.19C757.599 768.44 762.519 758.84 765.369 748.81C766.289 745.76 766.929 742.69 767.609 739.55C784.769 650.79 800.839 560.09 816.719 470.96C818.209 462.58 816.859 454.03 814.239 446.01C810.519 434.19 804.799 421.64 793.769 415.15C767.119 400.69 739.939 387.2 712.819 373.64C712.079 373.27 711.779 372.37 712.139 371.63C712.509 370.89 713.409 370.59 714.149 370.95C737.379 382.69 760.599 394.42 783.669 406.47C787.509 408.49 791.339 410.53 795.159 412.63C799.149 414.87 802.519 418.01 805.319 421.49C810.869 428.47 814.429 436.72 817.049 445.15C819.809 453.6 821.209 462.61 819.649 471.45C814.289 503.58 799.139 591.98 793.399 625.32C786.749 663.73 779.919 702.25 772.489 740.54C771.809 743.72 771.099 747.08 770.129 750.23C769.249 753.22 767.989 756.82 766.769 759.69C766.079 761.56 764.699 763.92 763.889 765.76C760.369 772.16 755.959 778.1 750.619 783.11C729.359 802.81 698.099 805.7 670.579 801.66C611.299 793.87 523.809 781.36 464.359 773.19C451.379 771.14 438.839 766.08 427.569 759.48C420.029 755.07 412.859 750.06 406.349 744.22C406.149 744.04 406.139 743.74 406.309 743.54C406.489 743.34 406.789 743.33 406.979 743.5V743.48Z" fill="white"/>
    <path d="M601 501.38C604.14 480.28 590.92 459.91 570.24 454.57C564.71 453.14 558.87 452.88 553.22 453.69C551.6 454.04 549.24 454.44 547.7 455.01C540.5 457.17 533.92 461.44 528.89 467L527.09 469.15C526.23 470.19 525.48 471.5 524.66 472.59C524.15 473.38 523.09 475.41 522.59 476.25C522.21 477.16 521.27 479.22 520.93 480.11C513.56 499.96 522.39 522.17 540.56 532.88C541.6 533.41 542.05 534.68 541.56 535.73L495.05 636.65L491.68 630.13L578.2 647.33L576.23 649.23L562.22 539.02C562.09 538.07 562.77 537.2 563.72 537.11C582.39 535.39 598.41 519.88 600.99 501.38H601ZM604.8 502.01C601.55 521.99 584.2 538.28 564.12 540.51L565.62 538.6L579.63 648.81C579.79 649.92 578.76 650.91 577.66 650.71L490.21 639.17C487.18 638.82 485.37 635.32 486.84 632.65L537.76 533.88L538.76 536.73C530.61 533.69 523.34 527.99 518.2 520.68C506.16 503.56 507.48 480.12 520.61 463.98C533.76 447.85 555.73 441.97 575.15 449.47C596.25 457.63 608.72 479.75 604.8 502.02V502.01Z" fill="white"/>
    <path d="M161.981 198.34C168.941 192.59 175.981 186.81 183.051 181.12L183.161 182.09L159.041 170.14L158.551 169.9L158.821 169.43L167.491 154.39L167.721 154L168.101 154.24L190.291 168.34L189.271 168.8L193.321 142.66L193.381 142.25L193.801 142.32L210.951 145.18L212.061 145.37L211.761 146.5L204.871 172.22L203.671 170.9L230.301 166.45L231.401 166.27L231.531 167.38L233.481 184.63L233.611 185.75L232.491 185.81L205.601 187.19L206.481 185.64L218.991 209.32L219.511 210.31L218.501 210.78L202.821 218.02L201.791 218.49L201.391 217.43L191.821 192.41L193.571 192.77L174.901 211.98L174.091 212.81C169.951 207.99 165.901 203.02 162.011 198.35L161.981 198.34ZM163.151 198.43C167.181 202.59 171.121 206.53 174.901 210.51L173.351 210.48L192.021 191.27L193.181 190.08L193.771 191.63L203.341 216.65L201.911 216.07L217.591 208.83L217.101 210.29L204.591 186.61L203.821 185.14L205.481 185.05L232.371 183.67L231.371 184.85L229.421 167.6L230.651 168.53L204.021 172.98L202.401 173.25L202.831 171.66L209.721 145.94L210.531 147.25L193.651 143.11L194.131 142.77L190.601 168.98L190.461 170.03L189.581 169.45L167.651 154.96L168.261 154.81L159.731 169.93L159.511 169.22L183.691 181.05L184.501 181.45C177.431 187.17 170.351 192.78 163.181 198.43H163.151Z" fill="white"/>
    <path d="M261.52 198.34C268.48 192.59 275.52 186.81 282.59 181.12L282.7 182.09L258.58 170.14L258.09 169.9L258.36 169.43L267.03 154.39L267.26 154L267.64 154.24L289.83 168.34L288.81 168.8L292.86 142.66L292.92 142.25L293.34 142.32L310.49 145.18L311.6 145.37L311.3 146.5L304.41 172.22L303.21 170.9L329.84 166.45L330.94 166.27L331.07 167.38L333.02 184.63L333.15 185.75L332.03 185.81L305.14 187.19L306.02 185.64L318.53 209.32L319.05 210.31L318.04 210.78L302.36 218.02L301.33 218.49L300.93 217.43L291.36 192.41L293.11 192.77L274.44 211.98L273.63 212.81C269.49 207.99 265.44 203.02 261.55 198.35L261.52 198.34ZM262.69 198.43C266.72 202.59 270.66 206.53 274.44 210.51L272.89 210.48L291.56 191.27L292.72 190.08L293.31 191.63L302.88 216.65L301.45 216.07L317.13 208.83L316.64 210.29L304.13 186.61L303.35 185.14L305.01 185.05L331.9 183.67L330.9 184.85L328.95 167.6L330.18 168.53L303.55 172.98L301.93 173.25L302.36 171.66L309.25 145.94L310.06 147.25L293.18 143.11L293.66 142.77L290.13 168.98L289.99 170.03L289.11 169.45L267.18 154.96L267.79 154.81L259.26 169.93L259.04 169.22L283.22 181.05L284.03 181.45C276.96 187.17 269.88 192.78 262.71 198.43H262.69Z" fill="white"/>
    <path d="M356.84 198.34C363.8 192.59 370.84 186.81 377.91 181.12L378.02 182.09L353.9 170.14L353.41 169.9L353.68 169.43L362.35 154.39L362.58 154L362.96 154.24L385.15 168.34L384.13 168.8L388.18 142.66L388.24 142.25L388.66 142.32L405.81 145.18L406.92 145.37L406.62 146.5L399.73 172.22L398.53 170.9L425.16 166.45L426.26 166.27L426.39 167.38L428.34 184.63L428.47 185.75L427.35 185.81L400.46 187.19L401.34 185.64L413.85 209.32L414.37 210.31L413.36 210.78L397.68 218.02L396.65 218.49L396.25 217.43L386.68 192.41L388.43 192.77L369.76 211.98L368.95 212.81C364.81 207.99 360.76 203.02 356.87 198.35L356.84 198.34ZM358.01 198.43C362.04 202.59 365.98 206.53 369.76 210.51L368.21 210.48L386.88 191.27L388.04 190.08L388.63 191.63L398.2 216.65L396.77 216.07L412.45 208.83L411.96 210.29L399.45 186.61L398.67 185.14L400.33 185.05L427.22 183.67L426.22 184.85L424.27 167.6L425.5 168.53L398.87 172.98L397.25 173.25L397.68 171.66L404.57 145.94L405.38 147.25L388.5 143.11L388.98 142.77L385.45 168.98L385.31 170.03L384.43 169.45L362.5 154.96L363.11 154.81L354.58 169.93L354.36 169.22L378.54 181.05L379.35 181.45C372.28 187.17 365.2 192.78 358.03 198.43H358.01Z" fill="white"/>
    <path d="M530.36 338.29C542.47 269.23 578.53 139.13 671.2 172.88C692.91 182.33 700.99 205.16 701.34 227.36C701.41 232.91 701.18 238.73 700.54 244.25C697.61 266.29 692.99 288.07 688.7 309.88C685.03 327.25 681.15 344.58 676.65 361.76C676.5 362.32 675.93 362.65 675.37 362.51C674.82 362.37 674.49 361.81 674.62 361.27C682.37 326.7 688.74 291.83 694.3 256.84C695.67 248.13 696.67 239.45 696.67 230.75C696.94 209.66 690.12 186.46 669.17 177.56C665.44 175.93 661.25 174.77 657.22 174.46C647.99 172.37 638.38 171.81 629.17 173.82C583.78 184.11 560.34 242.8 547.37 282.88C541.54 301.21 536.97 319.94 533.15 338.83C533 339.6 532.25 340.09 531.48 339.94C530.73 339.79 530.24 339.06 530.36 338.31V338.29Z" fill="white"/>
    <path d="M480.56 331.78C486.72 306.04 493.11 280.36 500.45 254.92C507.1 232.76 513.48 210.24 524.05 189.56C532.31 175.16 543.42 162.49 555.07 150.71C583.72 121.98 622.81 105.28 663.68 109.4C721.89 113.48 759.21 163.13 762.84 218.85C764.14 235.58 762.51 252.44 758.82 268.76L756.77 278.46C750.56 308.55 742.21 345.11 735.39 375.28C735.31 375.66 734.93 375.91 734.54 375.82C734.18 375.74 733.94 375.39 734 375.02C737.99 348.84 742.95 322.85 748.07 296.9C750.26 285.87 752.69 273.93 754.96 262.88C771.39 186.29 729.31 107.34 643.8 112.11C596.35 113.77 557.36 144.71 530.75 182.05C526.84 187.32 523.95 193.25 521.29 199.23C508.36 229.61 500.19 261.79 492.15 293.75C489.06 306.6 486.08 319.47 483.33 332.4C483.17 333.16 482.42 333.65 481.65 333.49C480.87 333.33 480.38 332.55 480.57 331.78H480.56Z" fill="white"/>
</svg>
