<svg viewBox="0 0 32 32" fill="none" xmlns="http://www.w3.org/2000/svg">
    <path d="M16.335 22.0362H4.05247C2.41872 22.0362 1.09497 20.7125 1.09497 19.0787V6.49998C1.09497 4.86623 2.41872 3.54248 4.05247 3.54248H24.4262C26.06 3.54248 27.3837 4.86623 27.3837 6.49998V14.575" stroke="#464646" stroke-linecap="round" stroke-linejoin="round"/>
    <path d="M31.1263 21.2763C31.3963 25.0363 28.5013 28.6825 24.7413 28.9538C20.9813 29.2238 17.6863 26.0238 17.4163 22.2625C17.1463 18.5025 19.975 15.2338 23.735 14.9638C27.495 14.6938 30.8563 17.5163 31.1263 21.2763V21.2763Z" stroke="#464646" stroke-linecap="round" stroke-linejoin="round"/>
    <path d="M21.4486 23.0078C21.1207 23.0182 20.9958 23.2897 20.9707 23.3546C20.9349 23.4467 20.9269 23.5358 20.9244 23.5909C20.919 23.7121 20.9344 23.8515 20.9613 23.9916C21.0163 24.2791 21.1354 24.652 21.3381 25.0505C21.3496 25.0731 21.3628 25.0948 21.3776 25.1154C21.8454 25.7669 22.5822 26.166 23.3597 26.3483L23.3625 26.683C23.3648 26.9589 23.5903 27.1808 23.8662 27.1788L25.0425 27.17C25.1752 27.169 25.302 27.1154 25.3951 27.0208C25.4882 26.9262 25.5398 26.7986 25.5387 26.6659L25.5359 26.3256C26.2223 26.1462 26.8669 25.7903 27.3031 25.2258C27.3068 25.2211 27.3103 25.2163 27.3138 25.2115C28.2457 23.9125 27.6734 21.9766 26.168 21.3936C25.8947 21.2384 25.523 21.1407 25.2088 21.063C25.1275 21.0429 25.0473 21.0236 24.9685 21.0046C24.6887 20.9372 24.4255 20.8738 24.1894 20.7941C23.866 20.6849 23.7345 20.5876 23.6987 20.5361C23.6968 20.5334 23.6958 20.5326 23.6955 20.5316C23.6951 20.5305 23.6955 20.5291 23.6959 20.5241C23.6979 20.502 23.7123 20.4317 23.7972 20.303L23.7974 20.3028C23.8865 20.1676 24.1556 20.0425 24.5368 20.1151C24.9025 20.1848 25.1412 20.3964 25.196 20.6399L25.6838 20.53L25.1945 20.633C25.2254 20.7797 25.3111 20.8667 25.3449 20.8979C25.3851 20.9351 25.4227 20.9574 25.4413 20.9678C25.4796 20.9892 25.5125 21.0009 25.5243 21.005C25.5526 21.0148 25.5773 21.0207 25.5882 21.0233C25.6144 21.0294 25.6426 21.0345 25.6667 21.0386C25.7177 21.0473 25.7845 21.057 25.8591 21.0668C26.0095 21.0864 26.2076 21.1083 26.4058 21.1243C26.6 21.1401 26.8106 21.1515 26.9791 21.1465C27.0575 21.1442 27.1594 21.1378 27.2532 21.1144C27.2954 21.104 27.3828 21.0793 27.4691 21.0176C27.5535 20.9572 27.6735 20.8289 27.6907 20.6374C27.6946 20.6024 27.6948 20.5669 27.6911 20.5315C27.547 19.1259 26.5458 18.1976 25.2993 17.9123L25.295 17.3487C25.2929 17.0726 25.0674 16.8505 24.7913 16.8526L23.615 16.8613C23.3389 16.8634 23.1168 17.0888 23.1188 17.3649L23.1235 18.0173C22.0688 18.364 21.1468 19.1842 21.1313 20.5316C21.1135 21.3293 21.4008 21.904 21.8773 22.3035C22.322 22.6763 22.8975 22.8658 23.3956 23.0024C23.5565 23.0465 23.7076 23.085 23.8499 23.1212C24.1877 23.2072 24.476 23.2805 24.7277 23.3869C25.0132 23.5075 25.1294 23.6223 25.1748 23.746C25.1444 23.8622 25.0702 23.9497 24.9471 24.0187C24.7852 24.1095 24.5467 24.1583 24.2846 24.1371C24.0231 24.116 23.7892 24.0293 23.6342 23.9086C23.4903 23.7966 23.4213 23.6652 23.4237 23.501C23.4256 23.3679 23.3744 23.2395 23.2813 23.1442C23.1882 23.049 23.0609 22.9949 22.9278 22.9938C22.1463 22.9875 21.5641 23.0038 21.4486 23.0078ZM21.4486 23.0078C21.4496 23.0078 21.4506 23.0077 21.4517 23.0077L21.465 23.5075L21.4474 23.0078C21.4478 23.0078 21.4482 23.0078 21.4486 23.0078Z" stroke="#464646" stroke-linecap="round" stroke-linejoin="round"/>
    <path d="M4.81867 9.36372C5.63617 9.11872 16.0637 8.60372 20.3962 9.13247C20.3962 9.13247 20.0974 9.52872 19.5249 9.89247C19.3249 10.02 25.0662 9.76872 25.0537 9.46372C25.0137 8.53122 21.2737 6.81497 20.9562 6.68372L21.0249 7.78372C21.0249 7.78372 16.2349 5.81497 4.36242 7.24372C4.32992 7.24747 4.32367 7.29497 4.32992 7.32622L4.72117 9.31872C4.72992 9.36247 4.77492 9.37622 4.81867 9.36372V9.36372Z" stroke="#464646" stroke-linecap="round" stroke-linejoin="round"/>
    <path d="M19.9488 15.1988C16.3275 15.3575 11.3625 15.4263 8.69878 15.1025C8.69878 15.1025 8.99753 14.7063 9.57003 14.3425C9.77003 14.215 4.02878 14.4663 4.04128 14.7713C4.08128 15.7038 7.82128 17.42 8.13878 17.5513L8.07003 16.4513C8.07003 16.4513 10.92 17.6225 17.67 17.5025" stroke="#464646" stroke-linecap="round" stroke-linejoin="round"/>
</svg>
