<svg width="256" height="256" viewBox="0 0 256 256" fill="none" xmlns="http://www.w3.org/2000/svg">
<g clip-path="url(#clip0_1128_1431)">
<path d="M130.97 177.78C103.92 178.57 74.8804 178.72 47.7604 178.73L39.4404 178.69C37.0104 178.6 33.3104 178.8 30.8704 178.5C21.7104 177.54 13.4504 171.29 9.99045 162.77C8.67045 159.61 8.05045 156.18 8.05045 152.78C8.04045 150.99 8.08045 147.35 8.07045 145.5C8.09045 140.32 8.17045 125.93 8.22045 120.54C8.37045 103.95 8.54045 70.56 8.69045 53.97C8.58045 48.12 10.5904 42.12 14.3604 37.6C19.0204 31.87 26.2904 28.44 33.6704 28.51L37.8304 28.54C43.0004 28.58 57.4104 28.61 62.7904 28.64C95.0704 28.78 130.55 29.05 162.64 28.51C173.57 28.35 185.04 28.23 195.99 28.23C209.88 28.56 221.02 41.03 220.15 54.83C220.17 62.29 220.16 76.35 220.13 83.95C220.13 95.04 220.01 106.14 219.92 117.23C219.92 118.04 219.25 118.69 218.44 118.69C217.64 118.69 216.99 118.03 216.98 117.23C216.89 106.14 216.78 95.04 216.77 83.95C216.74 78.5 216.73 64.27 216.75 58.99V54.83C217.09 48.28 214.67 41.8 209.82 37.36C206.05 33.84 201.01 31.72 195.85 31.55L179.27 31.42C173.72 31.4 168.18 31.29 162.63 31.22C121.97 30.53 78.5604 31.13 37.8204 31.18C35.6304 31.25 31.9304 31.07 29.7704 31.59C19.3104 33.38 11.3204 43.35 11.8604 53.96C12.0204 75.07 12.3904 131.89 12.5304 153.72C12.7204 158.74 14.7904 163.64 18.2404 167.28C22.5704 171.98 28.9504 174.3 35.2804 173.94L39.4404 173.92C57.4504 173.83 79.6505 173.92 97.6905 174.18C108.78 174.3 119.88 174.52 130.97 174.84C132.8 174.89 132.88 177.68 130.97 177.77V177.78Z" fill="#000C1F"/>
<path d="M249.82 170.17C251.5 192.45 239.37 214.93 220.05 226.07C184.4 246.88 141.75 219.4 137.67 180.31C133.62 139.92 172.02 109.61 210.49 121.48C231.82 127.89 248.34 147.82 249.82 170.18V170.17ZM246.36 170.42C244.71 141.44 217.63 118.99 188.92 121.61C174.96 122.88 161.74 130.06 153.03 140.99C134.55 163.29 139.1 197.21 160.55 215.88C197.26 248.52 248.8 216.47 246.37 170.42H246.36Z" fill="#000C1F"/>
<path d="M215.77 164.92C215.93 155.2 206.91 148.64 197.87 147.95C197.4 147.89 197.06 147.48 197.07 147.02C197.09 144.42 197.05 141.83 197.11 139.23L197.97 140.07C196.42 140.03 194.86 139.98 193.31 139.98C191.76 139.98 190.2 140.04 188.65 140.18L189.53 139.29C189.75 142.02 190.42 144.75 190.29 147.5C190.31 148.27 189.81 148.98 189.04 149.06C182.59 150.39 176.2 154.68 174.93 161.44C172.01 178.37 189 177.19 200.14 181.79C203.35 183.09 206.82 186.09 206.95 189.89C206.62 192.98 204.36 195.85 201.58 197.07C196.36 199.35 190.27 198.56 185.83 195.14C183.66 193.43 182.25 190.62 182.46 187.84L183.13 188.53L177.5 188.99L171.89 189.43L171.72 189.45C171.72 189.45 171.57 189.45 171.72 189.45C172.08 189.42 172.33 189.29 172.55 189.07C172.66 188.98 172.79 188.76 172.82 188.67C172.87 191.32 175.04 195.85 175.65 197.28C178.17 200.9 182.13 203.34 186.26 204.8C187.68 205.34 189.17 205.72 190.68 206.07C191.19 206.12 191.58 206.54 191.61 207.04V207.14L192 213.06L190.57 211.65L199.89 212.17L199.07 213.01C198.61 211.3 198.42 209.57 198.31 207.82C198.32 207.39 198.07 207.28 198.77 207.07L199.42 206.15C199.49 206.05 199.59 206 199.7 205.98C205.18 205.24 210.73 202.9 214.14 198.45C217.41 193.94 217.51 187.6 214.94 182.72C213.26 179.43 210.37 176.76 206.89 175.5C205.79 174.85 204.53 174.37 203.21 173.99C197.97 172.09 183.38 171.28 184.57 163.39C185.68 157.69 191.24 155.34 196.5 156.17C200.95 156.61 205.79 159.05 206.97 163.74L207.01 163.89V163.93C206.98 163.46 206.34 162.64 205.86 162.51C205.84 162.49 205.71 162.46 205.69 162.44C205.45 162.39 206.43 162.54 206.39 162.53C209.52 162.86 212.78 163.54 215.9 163.61C216.01 163.61 216.11 163.57 216.13 163.63C216.13 163.67 216.15 163.78 216.08 163.92C215.92 164.17 215.73 164.58 215.79 164.94L215.77 164.92ZM218.13 164.68C218.24 165.45 217.59 166.22 217.09 166.61C216.79 166.77 216.55 166.78 216.33 166.84C212.62 167.36 208.9 167.14 205.23 166.54C204.94 166.49 204.35 166.38 204.01 166.18C203.62 166.05 202.99 165.21 202.98 164.82C202.77 163.83 202.44 162.89 201.87 162.03C199.55 157.99 192.97 156.62 189.08 159.3C187.32 160.54 185.73 163.17 186.27 165.28C187.96 169.92 199.16 170.94 203.61 172.55C204.7 172.86 206.85 173.68 207.37 174.09C211.22 175.46 214.43 178.4 216.29 182C220.27 189.32 218.27 199.1 211.15 203.71C207.83 206.06 203.95 207.42 200.01 208.13C200.01 208.13 200.93 207.04 200.93 207.05C201.4 207.17 201.44 207.29 201.42 207.42C201.33 209.43 201.15 211.43 200.62 213.38C200.54 213.7 200.22 213.9 199.9 213.83L190.59 214.5C189.78 214.56 189.13 213.89 189.16 213.09L189.45 207.17L190.39 208.24C183.56 207.82 176.59 205.04 172.47 199.28C171.55 197.49 170.79 195.63 170.3 193.67C169.9 191.77 169.44 189.91 169.87 187.92C169.99 187.49 170.27 186.99 170.69 186.74C170.9 186.59 171.32 186.45 171.64 186.47C175.53 186.59 179.4 186.8 183.26 187.2C183.6 187.23 183.85 187.54 183.83 187.88C183.91 192.86 189.15 195.47 193.6 195.58C197.64 195.83 202.92 193.99 203.06 189.5L203.08 190.05C202.69 187.66 200.77 186.3 198.59 185.3C193.42 183.07 187.42 182.39 182.03 180.14C173.49 176.91 169.79 169.74 171.61 160.75C172.56 156.03 175.76 151.84 179.78 149.36C182.44 147.68 185.39 146.6 188.39 145.97L187.14 147.53C187.07 146.85 187.09 146.16 187.14 145.48C187.3 143.37 187.62 141.26 187.79 139.16C187.83 138.72 188.21 138.39 188.65 138.43C191.76 138.68 194.86 138.53 197.97 138.4C198.44 138.38 198.83 138.77 198.83 139.24C198.93 141.84 198.94 144.43 198.99 147.03L198.14 146.09C208.53 147.07 216.29 154.48 218.15 164.7L218.13 164.68Z" fill="#000C1F"/>
<path d="M39.3212 74.49C41.9012 73.89 44.6712 73.72 47.2812 73.46C75.5712 71.34 103.951 70.66 132.311 71.05C142.631 71.27 152.951 71.62 163.281 72.83C164.261 72.92 164.781 74.15 164.161 74.91C162.181 77.51 159.831 79.65 157.101 81.4C156.921 81.52 157.211 81.34 157.311 81.22C157.581 80.92 157.901 80.25 157.611 79.63C157.391 79.2 157.401 79.28 157.251 79.11C157.061 78.92 156.681 78.77 156.691 78.79C161.141 79.09 165.701 78.8 170.201 78.69C177.961 78.37 185.751 78 193.421 77.15C195.281 76.89 197.401 76.73 199.091 76.08C199.131 76.07 199.151 76.02 199.011 76.17C198.941 76.25 198.801 76.48 198.811 76.8C198.781 76.68 198.811 76.58 198.761 76.46C196.191 69.38 174.411 59.17 167.101 55.82L168.731 54.66C168.891 57.57 169.071 60.47 169.191 63.38C169.241 64.16 168.401 64.76 167.681 64.46C155.961 60.41 143.381 58.81 131.061 57.59C101.421 54.99 71.5312 56.56 42.0012 59.88C40.4312 60.08 38.0512 60.37 36.4312 60.35L36.3212 60.36C36.5012 60.34 36.7112 60.24 36.8412 60.13C37.1012 59.89 37.1312 59.78 37.1812 59.72C37.2312 59.65 37.2612 59.62 37.2512 59.55V59.59L37.2712 59.66L37.3012 59.8L37.3612 60.09C38.3112 64.3 39.4712 69.67 40.3512 73.9L40.5912 75.05L40.6212 75.19V75.25C40.6212 75.19 40.6012 75.14 40.5812 75.08C40.5112 74.86 40.2912 74.62 40.0712 74.51C39.6112 74.3 39.4212 74.45 39.3012 74.46L39.3212 74.49ZM40.2112 77.45C39.7212 77.58 39.1012 77.73 38.3012 77.3C37.7512 76.99 37.3612 76.37 37.3012 75.75L37.0912 74.59C36.3012 70.34 35.3512 64.93 34.6412 60.67L34.5312 60.03C34.3912 59.23 35.0212 58.14 35.9712 58.01C37.1012 57.83 38.2112 57.52 39.3612 57.45C44.8312 56.83 50.3212 56.26 55.8012 55.81C80.8912 53.67 106.171 52.95 131.291 55.28C143.881 56.58 156.511 58.24 168.531 62.46C168.531 62.46 167.021 63.55 167.021 63.54C166.771 60.64 166.591 57.74 166.391 54.83C166.331 54.18 166.821 53.62 167.471 53.57C167.661 53.56 167.851 53.59 168.021 53.67C171.671 55.28 175.141 56.99 178.641 58.8C183.861 61.53 189.041 64.41 193.841 67.87C196.721 70.15 200.421 72.56 201.181 76.48C201.331 77.31 200.771 77.97 200.221 78.22C198.071 79.13 195.951 79.27 193.751 79.63C182.011 81.04 170.381 81.78 158.581 81.96C157.701 81.94 157.051 81.97 156.121 81.83C155.981 81.78 155.951 81.83 155.471 81.6C155.451 81.59 155.331 81.52 155.181 81.38C155.021 81.19 155.011 81.27 154.801 80.82C154.451 80.03 154.931 79.16 155.441 78.88C157.811 77.32 160.271 75.46 162.111 73.37L162.991 75.45C132.361 72.5 101.351 73.81 70.6412 75.03C61.6812 75.5 52.7012 75.96 43.7812 76.91L41.9112 77.15L41.0112 77.29C40.7212 77.34 40.5012 77.41 40.2412 77.46L40.2112 77.45Z" fill="#000C1F"/>
<path d="M159.641 123.48C133.621 124.53 107.531 125.22 81.5107 123.77C77.7707 123.53 74.0007 123.55 70.2807 123.02C69.0507 122.92 68.4106 121.36 69.2006 120.42C71.2306 117.96 73.5507 116.02 76.1907 114.31L76.5107 114.1C76.5107 114.11 76.6706 113.96 76.3106 114.27C76.0106 114.57 75.7307 115.22 75.9807 115.85C76.1907 116.4 76.6507 116.68 76.9307 116.75C76.8707 116.73 76.6207 116.71 76.4107 116.69C72.1207 116.48 67.7607 116.67 63.4207 116.78C53.8707 117.27 44.0607 117.32 34.7607 119.41C34.6807 119.44 34.6107 119.47 34.5607 119.49C34.5207 119.5 34.5107 119.55 34.6507 119.39C34.7307 119.29 34.8807 119.07 34.8707 118.71L34.8907 118.82C36.1307 124.08 51.0507 132.01 56.0807 134.64C59.5107 136.4 63.0406 138.13 66.5206 139.65L64.8307 140.85C64.8307 140.85 64.2707 132.14 64.2607 132.14C64.1807 131.24 65.1607 130.55 65.9707 130.91C67.3507 131.44 68.9107 131.89 70.4107 132.32C90.4207 137.69 111.321 138.44 131.921 138.88C135.121 138.93 138.321 138.9 141.521 139.02C143.181 139.09 143.311 141.63 141.541 141.75C135.121 142 128.691 142.13 122.271 141.89C104.611 141.13 86.7907 139.58 69.7107 134.77C68.1407 134.29 66.6307 133.84 65.0307 133.21C65.0307 133.21 66.7607 131.96 66.7407 131.99L67.2607 140.69C67.3707 141.58 66.3807 142.28 65.5707 141.89C57.7107 138.13 34.5907 127.65 32.4507 119.55L32.3707 119.05L32.3407 118.8C32.2907 117.99 32.9307 117.49 33.3707 117.26C35.5307 116.34 37.6507 116.24 39.8707 115.89C43.7807 115.4 47.6807 115.08 51.5807 114.79C59.4207 114.23 67.1607 113.66 75.0507 113.58C75.9107 113.6 76.6006 113.56 77.5206 113.7C77.6306 113.71 78.1707 113.85 78.4907 114.17C78.6307 114.34 78.6806 114.3 78.8806 114.77C79.1406 115.41 78.8507 116.14 78.5307 116.43C78.0507 116.84 78.2607 116.64 77.8907 116.91C75.6707 118.42 73.4507 120.3 71.7907 122.37L70.6907 119.77C73.3307 120.01 76.2707 120.42 78.9207 120.75C105.731 122.6 132.681 121.82 159.521 120.83C161.141 120.77 161.471 123.31 159.631 123.46L159.641 123.48Z" fill="#000C1F"/>
</g>
<defs>
<clipPath id="clip0_1128_1431">
<rect width="256" height="256" fill="white"/>
</clipPath>
</defs>
</svg>
