<svg viewBox="0 0 62 53" fill="none" xmlns="http://www.w3.org/2000/svg">
    <path d="M31.48 37.9875H6.915C3.6475 37.9875 1 35.34 1 32.0725V6.915C1 3.6475 3.6475 1 6.915 1H47.6625C50.93 1 53.5775 3.6475 53.5775 6.915V23.065" stroke="#464646" stroke-linecap="round" stroke-linejoin="round"/>
    <path fill-rule="evenodd" clip-rule="evenodd" d="M46.3154 24.3411C53.5689 23.8202 60.0438 29.2675 60.5634 36.5032C61.0855 43.7736 55.4757 50.8028 48.2561 51.3237C41.045 51.8414 34.6635 45.6857 34.1408 38.4041L34.1408 38.4041C33.6206 31.1593 39.0711 24.8613 46.3154 24.3411ZM61.5608 36.4316C61.0004 28.6273 54.0303 22.7845 46.2438 23.3436C38.4482 23.9034 32.5836 30.6804 33.1434 38.4757C33.7007 46.239 40.4991 52.8833 48.3279 52.3211L48.3281 52.3211C56.1485 51.7569 62.1188 44.2012 61.5608 36.4316ZM53.7478 35.9502C53.9166 35.8294 54.1565 35.573 54.191 35.1902C54.1988 35.1201 54.1991 35.049 54.1919 34.9781C53.9037 32.1669 51.9011 30.3103 49.4082 29.7396L49.3996 28.6125C49.3954 28.0603 48.9444 27.616 48.3922 27.6201L46.0397 27.6376C45.4875 27.6417 45.0431 28.0926 45.0471 28.6448L45.0566 29.9497C42.9472 30.643 41.1033 32.2834 41.0722 34.9782C41.0366 36.5736 41.6112 37.723 42.5643 38.522C43.4537 39.2676 44.6046 39.6467 45.6008 39.9198C45.9225 40.008 46.2246 40.0849 46.5092 40.1574L46.5094 40.1574C47.1849 40.3294 47.7615 40.4761 48.2649 40.6888C48.836 40.93 49.0685 41.1597 49.1591 41.4069C49.0984 41.6394 48.95 41.8143 48.7038 41.9524C48.3801 42.134 47.9031 42.2316 47.3788 42.1893C46.8558 42.1471 46.3879 41.9736 46.078 41.7323C45.7903 41.5083 45.6522 41.2455 45.657 40.9171C45.6608 40.6508 45.5583 40.3939 45.3721 40.2035C45.1859 40.0131 44.9315 39.9048 44.6651 39.9026C43.1022 39.8901 41.9379 39.9225 41.7067 39.9306C41.0511 39.9515 40.8012 40.4945 40.7509 40.6242C40.6794 40.8085 40.6634 40.9867 40.6585 41.0969C40.6476 41.3393 40.6785 41.618 40.7321 41.8982C40.8422 42.4732 41.0804 43.219 41.4858 44.016C41.5088 44.0612 41.5352 44.1046 41.5648 44.1458C42.5004 45.4489 43.974 46.2469 45.529 46.6115L45.5346 47.281C45.5392 47.8329 45.9901 48.2767 46.542 48.2726L48.8945 48.2551C49.1599 48.2531 49.4136 48.1457 49.5998 47.9566C49.7859 47.7675 49.8893 47.5121 49.8871 47.2468L49.8814 46.5662C51.2542 46.2074 52.5433 45.4957 53.4159 44.3666C53.4231 44.3572 53.4302 44.3476 53.4371 44.338C55.3009 41.7399 54.1564 37.8681 51.1457 36.7023C50.5991 36.3919 49.8555 36.1964 49.2271 36.0411C49.0647 36.0009 48.9043 35.9623 48.7467 35.9243L48.7466 35.9242C48.187 35.7894 47.6606 35.6626 47.1885 35.5033C46.5415 35.2849 46.2786 35.0902 46.207 34.9873C46.2053 34.9849 46.204 34.9833 46.203 34.982C46.2017 34.9804 46.201 34.9794 46.2006 34.9783C46.2 34.9767 46.2002 34.9749 46.2007 34.9704C46.2009 34.9685 46.2011 34.9662 46.2014 34.9632C46.2054 34.919 46.2342 34.7785 46.4041 34.5211L46.4044 34.5206C46.5827 34.2503 47.1209 34.0001 47.8832 34.1453C48.6139 34.2844 49.091 34.7071 49.2012 35.1934C49.2651 35.4793 49.4327 35.6493 49.4993 35.7108C49.5798 35.7852 49.6549 35.8298 49.6921 35.8506C49.7688 35.8934 49.8347 35.9168 49.8582 35.925C49.9147 35.9447 49.9643 35.9565 49.986 35.9616C50.0383 35.9738 50.0948 35.9841 50.143 35.9923C50.2449 36.0097 50.3785 36.0291 50.5279 36.0486C50.8286 36.0878 51.2249 36.1317 51.6212 36.1637C52.0096 36.1952 52.4309 36.2181 52.7677 36.2081C52.9246 36.2035 53.1283 36.1906 53.316 36.1439C53.4004 36.123 53.5752 36.0736 53.7478 35.9502ZM48.3996 28.6201L48.4146 30.5876C50.9246 30.8451 52.9321 32.4951 53.1971 35.0801L53.1946 35.0851C53.2271 35.4026 50.1871 35.0226 50.1771 34.9751C49.7246 32.9651 46.5471 32.4876 45.5696 33.9701C44.3058 35.8841 46.5364 36.421 48.5384 36.9029L48.5384 36.9029C49.4076 37.1121 50.2338 37.3109 50.7121 37.6076C53.1671 38.5026 54.1221 41.6676 52.6246 43.7551C51.7746 44.8551 50.3846 45.5201 48.8746 45.7551L48.8788 46.2551L48.8871 47.2551L47.8871 47.2625L46.5346 47.2726L46.5221 45.7776C44.8421 45.5551 43.2746 44.8126 42.3771 43.5626C41.6471 42.1276 41.5521 40.9351 41.7396 40.9301C41.9033 40.9243 42.6247 40.9037 43.657 40.9003C43.9649 40.8992 44.3005 40.8997 44.6571 40.9026L44.6569 40.9303C44.6525 43.6678 49.9005 44.066 50.1796 41.3651C49.9328 39.9962 48.369 39.5981 46.6795 39.168C44.4504 38.6006 42.0024 37.9774 42.0721 34.9951C42.0971 32.6001 43.9071 31.1726 46.0621 30.7126L46.0471 28.6376L48.3996 28.6201Z" fill="#464646"/>
    <path d="M8.44765 12.6422C10.0826 12.1522 30.9376 11.1222 39.6026 12.1797C39.6026 12.1797 39.0051 12.9722 37.8601 13.6997C37.4601 13.9547 48.9426 13.4522 48.9176 12.8422C48.8376 10.9772 41.3576 7.54473 40.7226 7.28223L40.8601 9.48223C40.8601 9.48223 31.2801 5.54473 7.53515 8.40223C7.47015 8.40973 7.45765 8.50473 7.47015 8.56723L8.25265 12.5522C8.27015 12.6397 8.36015 12.6672 8.44765 12.6422V12.6422Z" stroke="#464646" stroke-linecap="round" stroke-linejoin="round"/>
    <path d="M38.7076 24.3126C31.4651 24.6301 21.5351 24.7676 16.2076 24.1201C16.2076 24.1201 16.8051 23.3276 17.9501 22.6001C18.3501 22.3451 6.86762 22.8476 6.89262 23.4576C6.97262 25.3226 14.4526 28.7551 15.0876 29.0176L14.9501 26.8176C14.9501 26.8176 20.6501 29.1601 34.1501 28.9201" stroke="#464646" stroke-linecap="round" stroke-linejoin="round"/>
</svg>
