<svg viewBox="0 0 577 216" fill="none" xmlns="http://www.w3.org/2000/svg">
<g clip-path="url(#clip0_877_2130)">
<path d="M0.000488281 140.515C0.000488281 143.629 1.74661 146.48 4.52304 147.867L138.595 214.755C146.371 218.633 155.492 212.941 155.513 204.202L155.579 159.96C155.579 155.47 153.062 151.363 149.06 149.375L64.4225 108.617L0.000488281 140.515Z" fill="#FF431B"/>
<path d="M155.786 11.8305L155.721 56.0727C155.721 60.5624 153.172 64.6589 149.17 66.6471L65.9093 107.885L64.4235 108.617L43.9581 98.7636L0.0991211 77.5274V77.298C0.0991211 72.8082 2.6478 68.7117 6.63893 66.7345L138.91 1.22334C146.697 -2.63283 155.807 3.09134 155.796 11.8305H155.786Z" fill="#FED330"/>
<path d="M64.4117 108.617L0.000488281 140.515L0.0980974 77.4617L43.9571 98.7088L64.4117 108.617Z" fill="#FD932B"/>
<path d="M193.428 73.1906V71.3445L214.74 71.3773L224.717 98.8292L231.745 118.602L238.686 98.8511L248.751 71.4319L270.062 71.4646V73.3108L240.031 146.753L223.242 146.731L193.439 73.2016L193.428 73.1906Z" fill="white"/>
<path d="M290.214 143.268C284.476 139.849 280.041 135.151 276.895 129.176C273.75 123.201 272.188 116.515 272.199 109.13C272.21 101.549 273.848 94.7764 277.101 88.8119C280.355 82.8474 284.856 78.2156 290.593 74.9056C296.33 71.5957 302.783 69.9462 309.931 69.9571C319.334 69.968 327.424 73.0158 334.192 79.0895L334.908 71.552L352.401 71.5738L352.293 146.906L334.799 146.884L334.105 139.346C330.808 142.285 327.088 144.524 322.945 146.086C318.802 147.648 314.432 148.413 309.822 148.413C302.48 148.402 295.951 146.687 290.214 143.268V143.268ZM298.218 123.67C301.927 127.472 306.699 129.373 312.534 129.373C318.368 129.373 322.999 127.494 326.719 123.703C330.439 119.923 332.305 115.095 332.316 109.218C332.316 103.341 330.472 98.5124 326.763 94.7108C323.054 90.9202 318.325 89.0085 312.588 89.0085C306.753 89.0085 301.981 90.8874 298.261 94.6671C294.541 98.4578 292.676 103.286 292.665 109.152C292.654 115.019 294.508 119.869 298.218 123.659V123.67Z" fill="white"/>
<path d="M371.034 47.4429L391.217 47.4756L391.065 146.971L370.882 146.939L371.034 47.4429V47.4429Z" fill="white"/>
<path d="M411.325 44.2422C413.635 41.97 416.574 40.8339 420.153 40.8448C423.634 40.8448 426.519 41.9918 428.829 44.264C431.128 46.5471 432.278 49.3874 432.278 52.7956C432.278 56.2039 431.118 59.0223 428.807 61.2508C426.497 63.4793 423.602 64.5826 420.12 64.5826C416.639 64.5826 413.602 63.4575 411.303 61.229C409.004 59.0005 407.854 56.1821 407.854 52.7629C407.854 49.3437 409.014 46.5144 411.325 44.2422V44.2422ZM409.947 71.6723L430.131 71.7051L430.022 147.037L409.839 147.004L409.947 71.6723Z" fill="white"/>
<path d="M461.018 141.75C456.322 137.336 453.98 130.673 453.991 121.77L454.034 89.0743L440.77 89.0525L440.792 71.7161L454.056 71.7379L454.077 55.6797L474.261 53.5823L474.239 71.7707L492.297 71.7926L492.275 89.1289L474.217 89.1071L474.174 119.519C474.174 123.408 475.128 126.183 477.059 127.844C478.979 129.504 481.972 130.334 486.017 130.345C488.555 130.345 490.952 130.159 493.219 129.788L493.197 147.124C488.967 147.976 484.911 148.392 481.061 148.381C472.406 148.37 465.725 146.152 461.029 141.739L461.018 141.75Z" fill="white"/>
<path d="M514.909 168.339L527.512 139.783L500.235 73.7916V71.8035L521.688 71.8362L531.665 97.0051L538.411 116.057L545.493 97.158L555.688 71.869L577 71.9018V73.8899L536.633 170.196L514.898 170.163V168.317L514.909 168.339Z" fill="white"/>
</g>
<defs>
<clipPath id="clip0_877_2130">
<rect width="577" height="216" fill="white"/>
</clipPath>
</defs>
</svg>
