<svg viewBox="0 0 696 198" fill="none" xmlns="http://www.w3.org/2000/svg">
    <path d="M502.1 89.5V197.5H562.1V133.5H630.1C658.7 133.3 683 115 692.2 89.5H502.1Z" fill="#37A72E"/>
    <path d="M494.1 0.5C497.6 44.6 539.4 79.5 590.4 79.5H694.7C695.5 75.5 695.9 71.3 695.9 67C695.9 30.4 666.4 0.8 629.9 0.5H494.1Z" fill="url(#paint0_linear_6_15)"/>
    <path d="M405.3 78.4V78.3V78.4C406 77.2 407.1 76.5 408.5 76.5C410.5 76.5 412 78.1 412.1 80V196.5H472.1V0.5H412.1C404.5 0.8 395.9 6.3 392.7 13.2L345 115.6C344.9 116 344.7 116.4 344.5 116.8C343.8 117.8 342.6 118.5 341.2 118.5C339 118.5 337.2 116.7 337.2 114.5V0.5H277.2V196.5H337.2C344.7 196.1 353.1 190.6 356.3 183.8L405.3 78.7C405.2 78.6 405.3 78.5 405.3 78.4Z" fill="#37A72E"/>
    <path d="M181.3 81.8L146.2 196.5H103L68 81.7C67.7 79.9 66.0999 78.5 64.0999 78.5C61.8999 78.5 60.1999 80.3 60.1999 82.4V196.4H0.199951V0.400024H67C78 0.400024 89.6 9.00003 92.8 19.5L122 115C123.5 119.8 125.8 119.7 127.3 115L156.5 19.5C159.7 8.90003 171.3 0.400024 182.3 0.400024H249.1V196.4H189.1V82.3C189.1 80.1 187.3 78.4 185.2 78.4C183.2 78.5 181.6 79.9 181.3 81.8Z" fill="#37A72E"/>
    <defs>
        <linearGradient id="paint0_linear_6_15" x1="494.185" y1="39.976" x2="695.948" y2="39.976" gradientUnits="userSpaceOnUse">
            <stop stop-color="#00A0E5"/>
            <stop offset="1" stop-color="#0077C3"/>
        </linearGradient>
    </defs>
</svg>
