<svg viewBox="0 0 15 23" fill="none" xmlns="http://www.w3.org/2000/svg">
    <path d="M5.77783 14.1111C5.4945 14.1111 5.25717 14.0151 5.06583 13.8231C4.87383 13.6318 4.77783 13.3944 4.77783 13.1111V12.6111C4.77783 11.7778 5.0695 11.0694 5.65283 10.4861C6.23617 9.90275 6.9445 9.61108 7.77783 9.61108H8.77783V8.81108C8.77783 8.57775 8.87783 8.41942 9.07783 8.33608C9.27783 8.25275 9.46117 8.29442 9.62783 8.46108L11.4278 10.2611C11.4778 10.3111 11.5155 10.3651 11.5408 10.4231C11.5655 10.4818 11.5778 10.5444 11.5778 10.6111C11.5778 10.6444 11.5278 10.7611 11.4278 10.9611L9.62783 12.7611C9.46117 12.9278 9.27783 12.9694 9.07783 12.8861C8.87783 12.8028 8.77783 12.6444 8.77783 12.4111V11.6111H7.77783C7.4945 11.6111 7.25717 11.7067 7.06583 11.8981C6.87383 12.0901 6.77783 12.3278 6.77783 12.6111V13.1111C6.77783 13.3944 6.68217 13.6318 6.49083 13.8231C6.29883 14.0151 6.06117 14.1111 5.77783 14.1111ZM2.77783 22.1111C2.22783 22.1111 1.75717 21.9154 1.36583 21.5241C0.973832 21.1321 0.777832 20.6611 0.777832 20.1111V2.11108C0.777832 1.56108 0.973832 1.09008 1.36583 0.698084C1.75717 0.306751 2.22783 0.111084 2.77783 0.111084H12.7778C13.3278 0.111084 13.7988 0.306751 14.1908 0.698084C14.5822 1.09008 14.7778 1.56108 14.7778 2.11108V20.1111C14.7778 20.6611 14.5822 21.1321 14.1908 21.5241C13.7988 21.9154 13.3278 22.1111 12.7778 22.1111H2.77783ZM2.77783 17.1111H12.7778V5.11108H2.77783V17.1111Z" fill="#181818"/>
</svg>
