<svg width="24" height="24" viewBox="0 0 24 24" fill="none" xmlns="http://www.w3.org/2000/svg">
<path d="M22.6667 7.42849V1.33325M22.6667 1.33325H16.5714M22.6667 1.33325L10.4762 13.5237M10.4762 7.42849V13.5237M10.4762 13.5237H16.5714" stroke="white" stroke-width="2" stroke-linecap="round" stroke-linejoin="round"/>
<path d="M13.5238 1.33325H4.38096C3.57268 1.33325 2.79751 1.65434 2.22597 2.22588C1.65443 2.79742 1.33334 3.57259 1.33334 4.38087V19.619C1.33334 20.4272 1.65443 21.2024 2.22597 21.774C2.79751 22.3455 3.57268 22.6666 4.38096 22.6666H19.6191C20.4273 22.6666 21.2025 22.3455 21.774 21.774C22.3456 21.2024 22.6667 20.4272 22.6667 19.619V10.4761" stroke="white" stroke-width="2" stroke-linecap="round" stroke-linejoin="round"/>
</svg>
