<svg viewBox="0 0 212 136" fill="none" xmlns="http://www.w3.org/2000/svg">
    <g clip-path="url(#clip0_1377_1345)">
        <path d="M187.504 80.238C188.882 79.6788 188.628 75.9354 186.937 71.8769C185.246 67.8183 182.759 64.9815 181.381 65.5407C180.003 66.0998 180.256 69.8432 181.947 73.9018C183.638 77.9603 186.126 80.7971 187.504 80.238Z" stroke="#B3B3B3" stroke-linecap="round" stroke-linejoin="round"/>
        <path d="M180.76 66.0913L166.008 80.4184C166.008 80.4184 165.486 81.4397 167.16 81.3678C168.835 81.2945 186.483 80.6211 186.483 80.6211" stroke="#B3B3B3" stroke-linecap="round" stroke-linejoin="round"/>
        <path d="M23.0483 63.1398L19.7397 71.7261L28.9657 70.3229L23.0483 63.1398Z" stroke="#B3B3B3" stroke-linecap="round" stroke-linejoin="round"/>
        <path d="M24.4064 70.927L26.0348 66.7646L21.4609 67.425L24.4064 70.927Z" stroke="#B3B3B3" stroke-linecap="round" stroke-linejoin="round"/>
        <path d="M26.1499 66.6378L28.0791 65.0201" stroke="#B3B3B3" stroke-linecap="round" stroke-linejoin="round"/>
        <path d="M21.2689 67.3898L18.8799 66.494" stroke="#B3B3B3" stroke-linecap="round" stroke-linejoin="round"/>
        <path d="M24.3628 71.0264L24.7179 73.5907" stroke="#B3B3B3" stroke-linecap="round" stroke-linejoin="round"/>
        <path d="M28.9696 70.3333L28.1481 64.9496L23.0455 63.0652L18.8042 66.4547L19.7701 71.8071L24.7813 73.855L28.9696 70.3333Z" stroke="#B3B3B3" stroke-linecap="round" stroke-linejoin="round"/>
        <path d="M196.602 48.3812C193.819 49.2103 188.6 44.4555 188.09 48.7107C187.663 52.2755 188.125 56.719 183.225 56.3163C179.305 55.4362 175.526 52.6181 176.226 59.1056C176.673 63.7688 172.211 65.2491 168.586 63.366C167.464 62.962 166.244 62.3918 165.101 63.0744C163.894 63.7871 162.625 62.1028 163.93 61.1691C167.221 58.814 173.241 64.8267 173.82 60.3505C174.285 56.7452 173.605 52.3801 178.668 52.677C180.51 52.8522 182.064 54.0827 183.918 54.1115C186.863 53.7663 185.255 50.0001 185.82 48.0726C186.99 43.3387 191.725 44.8766 195.049 46.1738C196.187 46.6106 197.209 45.2205 198.232 46.0509C198.286 46.0927 199.848 47.4135 196.601 48.3799L196.602 48.3812Z" stroke="#B3B3B3" stroke-linecap="round" stroke-linejoin="round"/>
        <path d="M41.5135 59.609C39.379 58.1196 39.909 51.8387 36.57 53.8356C33.7729 55.5081 30.8354 58.2882 28.4146 54.6372C26.8789 51.4072 26.814 47.2042 22.5395 51.2829C19.4364 54.1742 15.9066 51.8714 15.2534 48.2936C14.9234 47.2853 14.6584 46.1162 13.5362 45.6939C12.3569 45.244 12.8644 43.4237 14.257 43.8212C17.7695 44.8216 16.7798 52.3592 20.3135 50.2891C23.161 48.6218 25.9209 45.7305 28.5073 49.4378C29.4004 50.8226 29.3752 52.5919 30.3796 53.9049C32.2571 55.7749 34.0723 52.5658 35.771 51.8962C39.8189 50.0969 41.3333 54.2606 42.2396 57.3036C42.555 58.3419 44.1198 58.2869 44.088 59.4626C44.088 59.524 44.0032 61.3469 41.5122 59.6103L41.5135 59.609Z" stroke="#B3B3B3" stroke-linecap="round" stroke-linejoin="round"/>
        <path d="M195.452 89.8563C195.591 88.8663 193.123 87.7107 189.94 87.2752C186.756 86.8398 184.063 87.2895 183.924 88.2795C183.785 89.2696 186.253 90.4252 189.436 90.8607C192.62 91.2961 195.313 90.8464 195.452 89.8563Z" stroke="#B3B3B3" stroke-linecap="round" stroke-linejoin="round"/>
        <path d="M44.2982 115.89C45.3494 113.384 45.553 111.088 44.7532 110.761C43.9533 110.434 42.4528 112.201 41.4017 114.706C40.3506 117.212 40.1469 119.508 40.9468 119.835C41.7467 120.162 43.2471 118.396 44.2982 115.89Z" stroke="#B3B3B3" stroke-linecap="round" stroke-linejoin="round"/>
        <path d="M152.422 77.4263C151.048 87.0104 141.686 94.595 131.975 93.2389C122.264 91.8828 115.642 82.066 117.016 72.4819C118.39 62.8978 127.376 56.2273 137.087 57.5834C146.798 58.9394 153.796 67.8422 152.422 77.4263V77.4263Z" stroke="#B3B3B3" stroke-linecap="round" stroke-linejoin="round"/>
        <path d="M138.381 57.7809C149.906 59.1814 156.722 68.5197 155.411 77.9246C154.228 86.4233 146.643 96.1656 132.496 93.4325" stroke="#B3B3B3" stroke-linecap="round" stroke-linejoin="round"/>
        <path d="M142.803 73.5542C143.174 70.2392 141.076 67.6238 137.955 66.6234L138.475 64.1493L135.478 63.5347L134.93 66.1422C132.065 66.1357 129.37 67.4368 128.681 70.438C127.088 76.983 137.386 76.4847 137.242 80.6236C136.142 83.9504 129.539 82.0032 130.348 78.5483C128.376 78.1128 126.904 77.8421 126.631 77.7924C126.393 77.7493 126.183 79.2701 126.721 81.2683C127.519 83.0794 129.309 84.4342 131.384 85.1691L130.989 87.0483L133.986 87.6629L134.382 85.7759C136.369 85.891 138.318 85.4333 139.698 84.2799C142.175 82.0647 141.828 77.8343 138.951 76.0467C137.211 74.3885 130.354 73.0455 133.41 70.0927C135.059 68.4987 138.97 69.9554 138.992 72.5996C138.992 72.6611 142.754 73.9609 142.8 73.5542H142.803Z" stroke="#B3B3B3" stroke-linecap="round" stroke-linejoin="round"/>
        <path d="M123.903 59.6521L76.231 57.8501C75.2307 57.8122 74.3522 58.5027 74.1667 59.4743L70.6687 77.6486L67.1482 95.0893C67.1482 95.0893 66.3094 98.1336 67.1482 98.811C67.9869 99.4897 70.462 99.5485 73.1305 99.729C75.7991 99.9094 123.841 101.663 123.841 101.663C124.861 101.731 125.773 101.037 125.964 100.045L127.319 93.0336" stroke="#B3B3B3" stroke-linecap="round" stroke-linejoin="round"/>
        <path d="M117.273 68.9289L105.427 68.1377C104.938 68.105 104.587 67.6578 104.679 67.1818L105.258 63.8354C105.333 63.4431 105.688 63.1633 106.092 63.179L119.921 63.9884" stroke="#B3B3B3" stroke-linecap="round" stroke-linejoin="round"/>
        <path d="M84.3014 77.5897L76.1461 77.0457C75.9155 77.03 75.7499 76.8195 75.7923 76.5945L77.1146 69.6821C77.1504 69.4964 77.3174 69.3643 77.5095 69.3722L85.7364 69.6167C85.9723 69.6258 86.1458 69.8403 86.1008 70.0692L84.7069 77.2811C84.6698 77.4707 84.4962 77.6028 84.3014 77.5897V77.5897Z" stroke="#B3B3B3" stroke-linecap="round" stroke-linejoin="round"/>
        <path d="M146.568 59.1225L150.164 40.4355C150.396 39.2351 149.491 38.1131 148.254 38.0673L93.1331 35.9842C92.1327 35.9462 91.2542 36.6367 91.0687 37.6083L87.5707 55.7826L87.2368 57.4368" stroke="#B3B3B3" stroke-linecap="round" stroke-linejoin="round"/>
        <path d="M144.473 47.7493L122.33 46.2717C121.841 46.239 121.49 45.7917 121.581 45.3157L122.16 41.9693C122.235 41.577 122.591 41.2972 122.995 41.3129L145.289 42.155C145.79 42.1733 146.156 42.6284 146.062 43.1136L145.332 47.0955C145.253 47.497 144.885 47.7768 144.473 47.7493V47.7493Z" stroke="#B3B3B3" stroke-linecap="round" stroke-linejoin="round"/>
        <path d="M101.204 55.7225L93.0484 55.1785C92.8179 55.1628 92.6522 54.9523 92.6946 54.7274L94.017 47.8149C94.0528 47.6292 94.2197 47.4971 94.4118 47.505L102.639 47.7495C102.875 47.7587 103.048 47.9731 103.003 48.202L101.609 55.4139C101.572 55.6035 101.399 55.7356 101.204 55.7225V55.7225Z" stroke="#B3B3B3" stroke-linecap="round" stroke-linejoin="round"/>
        <path d="M93.0082 19.4942C95.3773 18.7933 125.606 17.3209 138.167 18.8312C138.167 18.8312 137.3 19.9637 135.641 21.0072C135.061 21.3721 151.707 20.6542 151.67 19.7819C151.555 17.1129 140.711 12.2012 139.791 11.8259L139.991 14.9735C139.991 14.9735 126.105 9.34 91.6871 13.4292C91.5944 13.4396 91.5745 13.5769 91.5944 13.6659L92.7273 19.3661C92.7538 19.4916 92.885 19.5295 93.0095 19.4929L93.0082 19.4942Z" stroke="#B3B3B3" stroke-linecap="round" stroke-linejoin="round"/>
        <path d="M58.8073 113.006C61.1009 113.917 91.1771 118.294 103.826 117.926C103.826 117.926 103.068 116.72 101.512 115.531C100.968 115.115 117.477 117.334 117.359 118.2C116.996 120.847 105.743 124.758 104.793 125.049L105.284 121.932C105.284 121.932 90.9333 126.165 57.0398 118.982C56.9484 118.963 56.9417 118.825 56.9696 118.738L58.5158 113.108C58.5543 112.986 58.6881 112.959 58.8087 113.007L58.8073 113.006Z" stroke="#B3B3B3" stroke-linecap="round" stroke-linejoin="round"/>
        <path d="M48.8807 78.8936H39.2771C38.2101 78.8936 37.3452 79.7472 37.3452 80.8002V90.2783C37.3452 91.3313 38.2101 92.1849 39.2771 92.1849H48.8807C49.9476 92.1849 50.8125 91.3313 50.8125 90.2783V80.8002C50.8125 79.7472 49.9476 78.8936 48.8807 78.8936Z" stroke="#B3B3B3" stroke-linecap="round" stroke-linejoin="round"/>
        <path d="M38.999 78.5078C40.1743 77.7141 41.6808 77.0157 42.293 77.0157H51.8952C52.9619 77.0157 53.8271 77.8697 53.8271 78.9224V89.0857C53.8271 90.0247 52.249 91.0996 50.8988 91.6959" stroke="#B3B3B3" stroke-linecap="round" stroke-linejoin="round"/>
        <path d="M155.367 103.94H145.763C144.696 103.94 143.832 104.793 143.832 105.846V115.324C143.832 116.377 144.696 117.231 145.763 117.231H155.367C156.434 117.231 157.299 116.377 157.299 115.324V105.846C157.299 104.793 156.434 103.94 155.367 103.94Z" stroke="#B3B3B3" stroke-linecap="round" stroke-linejoin="round"/>
        <path d="M145.485 103.554C146.661 102.76 148.167 102.062 148.779 102.062H158.382C159.448 102.062 160.313 102.916 160.313 103.969V114.132C160.313 115.071 158.735 116.146 157.385 116.742" stroke="#B3B3B3" stroke-linecap="round" stroke-linejoin="round"/>
        <path d="M167.309 23.2776H157.705C156.638 23.2776 155.773 24.1312 155.773 25.1842V34.6624C155.773 35.7154 156.638 36.569 157.705 36.569H167.309C168.376 36.569 169.241 35.7154 169.241 34.6624V25.1842C169.241 24.1312 168.376 23.2776 167.309 23.2776Z" stroke="#B3B3B3" stroke-linecap="round" stroke-linejoin="round"/>
        <path d="M157.427 22.8917C158.603 22.098 160.109 21.3997 160.721 21.3997H170.323C171.39 21.3997 172.255 22.2536 172.255 23.3063V33.4697C172.255 34.4086 170.677 35.4835 169.327 36.0798" stroke="#B3B3B3" stroke-linecap="round" stroke-linejoin="round"/>
        <path d="M65.3011 22.0496H55.6975C54.6305 22.0496 53.7656 22.9032 53.7656 23.9562V33.4343C53.7656 34.4873 54.6305 35.3409 55.6975 35.3409H65.3011C66.368 35.3409 67.2329 34.4873 67.2329 33.4343V23.9562C67.2329 22.9032 66.368 22.0496 65.3011 22.0496Z" stroke="#B3B3B3" stroke-linecap="round" stroke-linejoin="round"/>
        <path d="M55.4194 21.6637C56.5947 20.8699 58.1012 20.1716 58.7134 20.1716H68.3157C69.3823 20.1716 70.2475 21.0256 70.2475 22.0782V32.2416C70.2475 33.1806 68.6694 34.2555 67.3193 34.8518" stroke="#B3B3B3" stroke-linecap="round" stroke-linejoin="round"/>
        <path d="M72.3013 26.6799C72.3013 26.6799 134.024 24.0214 154.32 28.1864" stroke="#B3B3B3" stroke-linecap="round" stroke-linejoin="round"/>
        <path d="M166.97 38.499C166.97 38.499 167.778 54.7667 149.118 54.7667" stroke="#B3B3B3" stroke-linecap="round" stroke-linejoin="round"/>
        <path d="M86.2337 54.2147C86.2337 54.2147 62.6606 54.9039 53.7964 61.0657C44.9321 67.2289 43.8218 75.4019 43.8218 75.4019" stroke="#B3B3B3" stroke-linecap="round" stroke-linejoin="round"/>
        <path d="M45.0581 93.6248C45.0581 93.6248 48.7575 105.245 59.1773 107.663C70.3736 110.261 142.091 110.813 142.091 110.813" stroke="#B3B3B3" stroke-linecap="round" stroke-linejoin="round"/>
        <path d="M160.41 92.7057C159.918 92.5344 159.875 91.5732 160.24 90.5532C160.606 89.5332 161.251 88.8127 161.743 88.984" stroke="#B3B3B3" stroke-linecap="round" stroke-linejoin="round"/>
        <path d="M191.868 101.962C192.233 100.942 192.131 99.9761 191.639 99.8044C191.147 99.6326 190.452 100.32 190.086 101.34C189.721 102.36 189.823 103.326 190.315 103.498C190.807 103.67 191.502 102.982 191.868 101.962Z" stroke="#B3B3B3" stroke-linecap="round" stroke-linejoin="round"/>
        <path d="M190.362 103.527L160.464 92.7251" stroke="#B3B3B3" stroke-linecap="round" stroke-linejoin="round"/>
        <path d="M191.532 99.7473L161.634 88.9458" stroke="#B3B3B3" stroke-linecap="round" stroke-linejoin="round"/>
        <path d="M33.7489 31.3172C36.5206 29.4575 38.2555 27.2067 37.6239 26.2899C36.9924 25.3731 34.2336 26.1375 31.4619 27.9972C28.6902 29.8569 26.9553 32.1077 27.5869 33.0245C28.2184 33.9413 30.9772 33.1769 33.7489 31.3172Z" stroke="#B3B3B3" stroke-linecap="round" stroke-linejoin="round"/>
        <path d="M28.0845 33.3924L42.7363 44.2907C42.7363 44.2907 43.5803 44.513 43.2663 43.3034C42.9523 42.0951 38.0564 26.9729 38.0564 26.9729" stroke="#B3B3B3" stroke-linecap="round" stroke-linejoin="round"/>
        <path d="M37.2088 102.874C36.1011 101.306 34.588 100.729 33.9016 100.909C30.6646 101.751 32.831 106.112 33.2312 106.861C33.5955 107.545 37.2035 112.262 41.0129 110.089C44.8236 107.915 43.1952 102.823 42.265 100.833C41.3335 98.8424 39.3553 97.9126 37.6858 99.1353C36.0163 100.358 37.4327 103.666 38.3907 105.255C39.3474 106.844 40.6432 105.72 40.6432 105.72C40.6432 105.72 41.2779 105.357 40.1967 103.8C39.1155 102.242 39.0612 100.549 39.3103 100.485C39.5594 100.421 41.4925 102.675 41.4024 105.325C41.4024 105.325 41.4382 108.646 39.0082 108.664C38.0966 108.671 37.3387 108.382 36.7159 107.954C35.6771 107.24 35.012 106.141 34.6317 105.381C34.3442 104.805 33.891 103.604 34.3481 102.828" stroke="#B3B3B3" stroke-linecap="round" stroke-linejoin="round"/>
        <path d="M38.4979 108.642C38.4979 108.642 38.9206 107.259 38.3813 105.216" stroke="#B3B3B3" stroke-linecap="round" stroke-linejoin="round"/>
        <path d="M34.2471 103.043C34.2471 103.043 35.6648 103.273 36.2876 105.606C36.9116 107.939 36.7155 107.954 36.7155 107.954" stroke="#B3B3B3" stroke-linecap="round" stroke-linejoin="round"/>
        <path d="M37.8432 110.512C37.8432 110.512 37.2814 112.308 35.009 112.768C32.7367 113.228 29.5328 111.698 28.4119 109.495C27.2909 107.291 26.8828 104.771 28.5854 103.672C28.5854 103.672 30.9307 102.646 32.4995 105.203" stroke="#B3B3B3" stroke-linecap="round" stroke-linejoin="round"/>
        <path d="M36.0199 109.675C36.0199 109.675 35.5773 110.912 33.8614 110.966C32.1456 111.018 30.2455 108.887 29.8586 107.937C29.4717 106.988 28.9536 105.547 29.5433 105.262" stroke="#B3B3B3" stroke-linecap="round" stroke-linejoin="round"/>
        <path d="M33.4507 107.197C33.4507 107.197 34.0575 109.206 33.8628 110.965" stroke="#B3B3B3" stroke-linecap="round" stroke-linejoin="round"/>
        <path d="M31.8396 110.206C31.8396 110.206 32.0649 108.781 31.6555 107.771C31.246 106.762 30.2523 105.268 29.3394 105.481" stroke="#B3B3B3" stroke-linecap="round" stroke-linejoin="round"/>
        <path d="M33.1393 112.752C33.1393 112.752 32.5378 114.771 29.6718 115.1C26.8045 115.428 24.4261 112.503 23.6589 111.126C22.8918 109.75 22.0782 107.204 23.9041 106.071C25.7299 104.939 27.5717 107.209 27.5717 107.209" stroke="#B3B3B3" stroke-linecap="round" stroke-linejoin="round"/>
        <path d="M31.3931 112.183C31.3931 112.183 30.1503 113.507 28.8677 113.185C27.5837 112.862 25.681 111.735 25.1179 109.869C25.1179 109.869 24.4965 108.281 25.2027 107.44" stroke="#B3B3B3" stroke-linecap="round" stroke-linejoin="round"/>
        <path d="M27.3268 112.523C27.3268 112.523 27.4978 111.047 27.1109 110.096C26.724 109.147 26.0986 107.665 25.0293 107.715" stroke="#B3B3B3" stroke-linecap="round" stroke-linejoin="round"/>
        <path d="M29.3115 113.176C29.3115 113.176 29.5009 111.174 29.0518 110.44" stroke="#B3B3B3" stroke-linecap="round" stroke-linejoin="round"/>
        <path d="M28.4822 115.156C28.4822 115.156 27.238 117.548 24.3627 117.246C21.4875 116.943 20.3082 115.019 20.3082 115.019C20.3082 115.019 19.3357 113.751 20.0578 113.273C20.7786 112.794 21.3497 113.434 22.2335 114.254C23.1186 115.073 24.3005 115.569 25.3008 115.301C26.3012 115.033 26.6735 114.324 26.6735 114.324" stroke="#B3B3B3" stroke-linecap="round" stroke-linejoin="round"/>
    </g>
    <defs>
        <clipPath id="clip0_1377_1345">
            <rect width="212" height="136" fill="white"/>
        </clipPath>
    </defs>
</svg>
