<svg viewBox="0 0 1405 870" fill="none" xmlns="http://www.w3.org/2000/svg">
    <path d="M1316.39 460.8C1322.47 475.64 1333.21 508.98 1323.93 523.24C1314.17 535.14 1298.01 515.33 1292.32 507.47C1282.33 493.5 1275.1 477.72 1270.12 461.32C1266.94 450.28 1264.56 438.92 1265.15 427.31C1266.04 409.97 1276.7 405.36 1289.48 417.47C1301.83 429.48 1309.84 445.12 1316.4 460.8H1316.39ZM1314.51 461.57C1307.81 446.02 1296.13 423.21 1281.02 414.92C1265.28 407.71 1268.28 435.41 1270.01 443.94C1273.14 460.35 1279.09 476.23 1286.66 491.1C1291.76 500.89 1297.64 510.64 1305.62 518.32C1316.68 528.72 1324.4 525.62 1325.24 510.39C1325.86 493.6 1320.66 477.05 1314.51 461.57Z" fill="white"/>
    <path d="M1269.7 417.74C1269.78 417.66 1157.35 528.64 1158.68 527.09C1158.38 528.04 1158.26 529.49 1158.94 530.26C1160.6 532.01 1164.16 531.83 1166.72 531.76L1171.73 531.59L1191.77 530.93C1211.73 530.24 1251.96 528.99 1271.92 528.4L1312 527.31C1312.37 527.3 1312.68 527.59 1312.69 527.96C1312.69 528.33 1312.41 528.63 1312.05 528.65L1272.01 530.7C1252.04 531.68 1211.89 533.57 1191.92 534.45C1188.32 534.61 1170.11 535.44 1166.89 535.58C1164.26 535.7 1161.21 535.71 1158.63 534.46C1155.25 532.96 1154.28 528.89 1156.14 525.79C1156.05 525.36 1267.81 416.28 1267.92 415.91C1268.42 415.42 1269.23 415.42 1269.73 415.93C1270.22 416.43 1270.22 417.24 1269.72 417.73L1269.7 417.74Z" fill="white"/>
    <path d="M78.0196 394.84C69.8596 416.72 61.7696 438.41 53.4796 460.14L52.8496 459.36L122.53 448.7L122.22 449.51C107.38 431.33 92.7396 413.16 78.0196 394.83C78.0196 394.83 92.7396 413.16 78.0196 394.83V394.84ZM77.8296 393.67C92.8996 411.97 108.05 430.44 122.99 448.89C123.23 449.18 123.05 449.65 122.68 449.7L53.0196 460.51C52.5996 460.59 52.2296 460.13 52.3896 459.73C60.7596 437.67 69.3196 415.57 77.8196 393.66L77.8296 393.67Z" fill="white"/>
    <path d="M88.0611 453.16C91.9611 442.62 95.8811 432.27 100.011 421.81L100.531 422.47C99.1211 422.85 97.6611 422.97 96.2311 423.21C88.4411 424.38 73.9511 426.53 66.0211 427.7L66.4411 426.61C73.7511 435.38 80.8311 444.18 88.0511 453.16H88.0611ZM88.2811 454.5C80.6811 445.62 72.9411 436.56 65.4211 427.46C65.0911 427.08 65.3311 426.43 65.8411 426.37C73.8411 425.22 88.2111 423.13 96.0711 422.02C97.5311 421.84 98.9811 421.54 100.461 421.5C100.731 421.5 100.951 421.7 100.961 421.97C96.9811 432.83 92.5711 443.73 88.2911 454.5H88.2811Z" fill="white"/>
    <path d="M101.181 420.82L115.451 408.11C115.731 407.86 116.171 407.88 116.431 408.17C116.691 408.46 116.651 408.92 116.351 409.17L101.501 421.2C101.271 421.4 100.941 421.03 101.181 420.83V420.82Z" fill="white"/>
    <path d="M64.3901 427.01L46.18 420.59C45.8 420.46 45.6001 420.04 45.7401 419.66C45.8801 419.27 46.32 419.07 46.7 419.23L64.5801 426.51C64.8901 426.63 64.7101 427.13 64.3901 427.01V427.01Z" fill="white"/>
    <path d="M88.09 454.56L91.42 474.09C91.5 474.58 91.17 475.05 90.68 475.13C90.17 475.22 89.68 474.85 89.63 474.33L87.6 454.62C87.56 454.32 88.04 454.24 88.09 454.55V454.56Z" fill="white"/>
    <path d="M121.94 449.03L115.87 408.17L116.03 409.12L77.6503 394.31L78.3203 394.2L46.1303 419.93L46.2803 419.53L54.3703 460.34L53.6303 459.42L91.2203 475.7L90.6303 475.79L121.94 449.03ZM123.31 449.54L91.3703 476.66C91.2003 476.8 90.9703 476.83 90.7803 476.75L52.6803 461.69C52.2703 461.53 52.0003 461.17 51.9403 460.77L45.4503 419.68C45.4203 419.52 45.4903 419.37 45.6003 419.28L77.4603 393.14C77.6603 392.98 77.9103 392.95 78.1303 393.03L116.81 407.05C116.81 407.05 116.83 407.07 116.83 407.08L116.97 408.01L123.3 449.55L123.31 449.54Z" fill="white"/>
    <path d="M1388.59 281.9C1372.4 286.9 1346.93 268.37 1332.95 272.36C1326.98 274.43 1326.22 281.19 1325.61 286.87C1324.22 299.7 1324.29 312.92 1319.71 325.3C1316.04 335.38 1307.98 342.14 1297.19 343.13C1293.83 343.49 1290.48 343.44 1287.16 343.13C1280.41 341.55 1273.9 339.3 1267.41 337.13C1259.41 334.79 1245.96 328.86 1239.16 335.76C1233.07 343.27 1234.98 355.79 1235.5 364.89C1235.97 371.81 1234.96 378.99 1231.76 385.26C1225.48 398.22 1210.07 403.91 1196.37 402.38C1189.47 401.75 1182.75 399.64 1176.62 396.45C1169.44 393.87 1160.43 390.05 1152.75 393.79C1152.46 393.92 1152.19 394.1 1151.91 394.25L1151.07 394.72C1146.8 397.51 1140.66 395.91 1138.12 391.52C1134.51 385.59 1138.14 379.85 1143.57 376.8C1155.52 369.12 1171.86 375.65 1184.03 379.59C1191.49 381.9 1199.22 385.47 1207.01 384.27C1212.26 383.3 1214.4 378.07 1215.06 373.2C1217.86 356.47 1215.17 330.31 1229.75 318.94C1234.2 315.49 1239.82 313.97 1245.35 313.55C1250.84 313.06 1256.48 313.62 1261.72 315.28C1272.06 318.36 1281.67 324.13 1292.65 324.25C1301.2 323.18 1304.89 317.45 1305.33 308.68C1306.08 299.04 1303.43 288.66 1305.86 278.86C1309.56 263.3 1319.43 253.52 1335.93 253.42C1350.11 253.42 1363.41 258.44 1376.38 263.51C1377.3 263.84 1378.11 264.17 1379.06 264.26C1384.01 264.93 1388.34 261.75 1393.18 260.97C1399.46 259.47 1406.94 266.29 1404.1 272.69C1401.12 278.54 1394.17 280.03 1388.59 281.89V281.9ZM1388.25 280.77C1392.02 279.67 1395.59 277.89 1398.72 275.79C1400.24 274.78 1401.64 273.52 1402.49 271.93C1405.06 266.69 1398.7 260.82 1393.4 262.27C1388.6 263.19 1383.44 266.75 1378.07 265.64C1364.5 260.87 1350.55 255.12 1335.97 255.42C1320.43 255.73 1311.49 264.79 1308.07 279.46C1304.32 292.66 1314.11 316.88 1298.76 324.52C1284.75 331 1265.37 313.93 1249.48 314.82C1246.92 314.86 1244.02 315.04 1241.51 315.55C1218.4 319.42 1219.91 347.27 1218.38 365.4C1217.68 378.86 1215.45 389.76 1198.97 386.98C1180.93 383.92 1162.93 371.47 1144.56 378.61C1139.74 380.64 1136.5 385.74 1139.72 390.53C1141.69 393.64 1145.83 394.92 1149.16 393.27C1150.35 392.66 1151.67 391.91 1152.9 391.49C1158.27 389.43 1164.24 390.72 1169.42 392.6C1172.03 393.52 1174.58 394.54 1177.13 395.52C1188.98 401.75 1203.81 403.87 1216.25 398.24C1229.26 392.6 1235.12 378.63 1233.82 365.03C1233.17 355.43 1231.21 342.57 1237.79 334.52C1245.41 326.71 1259.19 332.63 1268.06 335.18C1274.33 337.25 1281.73 339.63 1287.5 340.94C1312.35 342.93 1318.51 327.49 1320.42 305.74C1321.04 299.4 1321.43 292.98 1322.07 286.52C1322.73 277.1 1325.96 268.14 1337.2 268.54C1353.52 269.31 1372.13 284.45 1388.24 280.78L1388.25 280.77Z" fill="white"/>
    <path d="M217.04 367.66C203.82 359.04 202.92 323.52 189.68 321.66C185.61 321.42 182.22 323.57 178.68 325.75C173.81 328.79 169.07 332.1 164.08 335.14C146.39 346.25 130.29 349.73 117.59 329.73C114.92 324.05 112.93 318.12 110.85 312.29C108.07 305.3 104.88 292.53 96.2002 291.5C87.3902 291.39 79.7702 299.57 73.5202 305.02C68.8702 309.18 63.2302 312.43 57.0102 313.64C37.1402 317.57 21.4402 298.81 18.5802 280.73C17.1702 276.45 15.6802 271.27 13.0202 267.48C11.3602 265.06 9.1702 263.09 6.4802 261.99C3.2202 260.93 0.560193 258.24 0.270193 254.7C-0.179807 250.64 2.4802 246.36 6.5702 245.49C11.4002 244.49 17.2702 247.18 20.8802 250.32C28.2402 257.46 31.3202 267.36 34.6302 276.66C37.3402 283.5 40.6302 298.26 49.9202 297.39C54.5302 296.89 58.5702 293.69 62.5102 291.33C70.7902 286.1 78.7402 280.07 88.0702 276.66C101.79 271.48 112.44 277.93 119.91 289.48C125.16 297.92 126.14 308.06 130.27 316.92C131.19 318.96 132.79 321.55 133.86 322.97C139.43 328.69 145.79 327.82 151.99 323.43C159.24 318.63 165.14 311.01 173.43 307.31C178.44 305.12 183.87 303.56 189.42 303.93C208.95 305.65 216.6 327.74 221.78 343.7C222.95 346.9 223.19 350.68 225.79 353.11C229.3 356.68 236.21 358.36 237.2 364.21C237.91 367.94 236.19 372.67 232.13 373.57C226.33 374.7 221.44 370.59 217.03 367.66H217.04ZM217.65 366.8C222.01 369.7 232.09 375.63 235.36 369.25C236.1 367.79 236.39 366.04 236.09 364.42C234.95 358.84 228.62 357.87 224.88 354.05C223.51 352.78 222.51 351.02 222.02 349.23C216.89 333.05 209.26 307.56 189.3 305.91C184.16 305.59 178.94 307.12 174.26 309.21C162.79 313.86 151.13 334.17 137.16 327.53C124.78 321.13 126.21 298 116.78 287.22C100 265.27 80.9802 281.66 63.7202 293.14C57.7202 297.16 49.3302 303.23 42.4502 297.46C36.6702 292.27 34.6902 284.43 32.0302 277.58C28.7602 268.7 25.7902 259.06 19.0002 252.33C14.6802 247.61 5.6302 243.13 2.3902 251.27C1.0602 255.48 3.3002 258.81 7.2802 260.22C12.6802 262.57 15.6602 268.15 17.3402 273.47C18.1302 275.83 18.8202 278.2 19.5402 280.55C21.7102 292.39 28.4102 304.05 39.2502 309.79C50.3902 315.91 63.6402 312.31 72.5102 303.88C79.0302 298.07 86.9002 289.65 96.3402 289.82C106.12 290.93 109.49 303.92 112.61 311.65C114.61 317.24 117.01 323.8 119.28 328.62C131.61 347.34 145.97 343.17 162.45 332.5C167.29 329.43 172.06 326.16 176.99 323.04C182.99 319.03 190.56 315.88 196.58 322.02C200.23 325.87 202 331.12 203.66 336.01C207.21 346.11 209.08 359.79 217.66 366.79L217.65 366.8Z" fill="white"/>
    <path d="M1334.04 608.4C1321.83 606.57 1309.57 603.59 1298.91 597.08C1294.33 594.37 1288.14 588.32 1292.97 582.99C1295.27 580.52 1298.55 579.37 1301.61 578.5C1305.65 577.42 1309.76 576.95 1313.84 576.71C1330.16 575.96 1346.55 578.3 1362.01 583.57C1367.78 585.68 1373.76 588.06 1378.25 592.51C1382.27 596.44 1381.6 601.48 1376.71 604.28C1365.01 610.64 1346.95 609.97 1334.03 608.39L1334.04 608.4ZM1334.61 604.28C1346.32 605.79 1358.53 606.9 1370.12 604.22C1389.63 598.92 1370.86 588.52 1361.38 585.37C1346.27 580.21 1329.94 578.01 1314 578.99C1304.4 579.52 1283.54 584.15 1300.59 594.35C1310.95 600.08 1322.97 602.52 1334.61 604.28V604.28Z" fill="white"/>
    <path d="M240.021 798.47C235.881 808.18 230.771 817.68 223.091 825.09C219.901 828.29 213.481 832.1 210.161 826.97C207.041 821.35 208.471 814.31 209.461 808.34C212.361 794.68 217.821 781.62 225.511 769.97C228.501 765.65 231.761 761.22 236.411 758.46C240.521 755.98 244.551 757.62 245.821 762.27C248.561 773.5 244.121 787.94 240.021 798.47ZM236.741 797.11C240.541 787.77 244.041 777.87 244.341 767.72C244.161 750.44 231.511 763.72 226.861 770.89C223.041 776.57 219.921 782.72 217.281 789.06C214.711 795.42 212.621 802 211.371 808.71C209.741 816.76 209.081 835.02 221.191 823.12C228.171 815.78 232.771 806.37 236.741 797.12V797.11Z" fill="white"/>
    <path d="M1055.68 503.67C1042.6 597.12 937.059 662.28 852.529 608.91C806.779 579.94 780.569 524.14 785.459 470.46C794.209 371.97 903.679 316.33 988.829 366.08C1036.24 393.04 1063.97 449.77 1055.68 503.67V503.67ZM1053.97 503.43C1065.95 420.76 992.939 347.18 910.729 353.55C848.019 357.41 795.049 408.33 788.289 470.76C779.299 542.03 830.659 615.22 903.729 622.68C974.699 630.58 1044.44 573.69 1053.98 503.43H1053.97Z" fill="white"/>
    <path d="M948.829 352.98C1029.95 361.02 1093.28 431.47 1078.53 514.3C1068.06 573.69 1023.23 622.96 961.959 629.95C942.699 632.38 923.099 630.71 904.299 626.29C904.149 626.26 904.059 626.11 904.099 625.96C904.129 625.82 904.269 625.73 904.409 625.75C951.539 633.81 1001.85 623.28 1035.4 587.77C1055.13 567.47 1068.73 541.28 1074.14 513.5C1085.94 456.05 1054.74 397.35 1003.26 370.7C986.379 361.71 967.759 356.08 948.759 353.53C948.609 353.51 948.499 353.37 948.519 353.22C948.539 353.07 948.679 352.97 948.819 352.98H948.829Z" fill="white"/>
    <path d="M980.68 473.77C984.84 449.39 967.72 429.09 945.2 422.07C944.6 421.89 944.25 421.26 944.39 420.66C945.74 414.36 947.03 408.05 948.45 401.76L949.29 403.04C941.77 401.34 934.26 399.61 926.65 398.39L927.99 397.51C926.85 404.27 926.28 411.16 924.68 417.82C924.45 418.71 923.62 419.29 922.74 419.25C909.05 419.23 894.48 423.57 885.55 434.32C879.05 442.14 875.97 452.87 876.68 462.96C878.38 481.35 897.18 490.01 911.98 497.42C922.86 503.13 937.93 508.94 941.98 521.99C942.54 524.2 942.97 526.56 942.59 528.79C940.45 535.51 934.29 540.69 927.53 542.22C914.63 545.13 900.35 540.34 891.78 530.43C887.5 525.44 885.54 518.34 887.3 511.94C887.3 511.94 887.97 512.99 887.95 512.98C879.73 511.54 868.07 509.56 859.92 508.27L859.81 508.25H859.76L859.73 508.24L859.83 508.26C860.24 508.36 860.95 508.03 861.04 507.85C860.61 509.09 860.42 510.83 860.39 512.3C860.06 518.49 861.84 527.33 862.96 531.99C869.01 546.19 882.5 555.77 896.44 561.49C897.11 561.7 897.5 562.41 897.33 563.08L894.77 577.54L893.36 575.39L915.84 580.83L914.59 581.65C914.77 579.18 915.07 576.73 915.42 574.29C915.67 572.57 915.99 570.56 916.31 568.83L916.47 567.92C916.5 567.61 916.61 567.32 917.26 567.14C917.26 567.14 918.72 566.01 918.71 566.03C930.43 566.8 942.61 564.95 952.76 558.86C971.78 548.1 975.44 520.38 962.79 503.37C960.02 499.49 956.45 496.25 952.46 493.66C947.66 489.29 941.37 486.59 935.56 483.69C929.57 480.8 923.48 478.02 917.68 474.56C908.02 468.94 899.1 460.24 908.01 449.34C914.59 440.22 926.86 439.57 936.63 443.34C946.54 446.82 955.91 455.29 956.06 466.48C955.82 465.04 955.33 464.7 954.83 464.38C955.27 464.55 956.35 465.01 956.87 465.18C958.42 465.72 962.26 467.09 963.84 467.62C969.2 469.37 974.56 471.47 980.09 472.39C980.43 472.45 980.77 472.42 980.98 472.48C981.08 472.53 981.17 472.63 981.13 472.76C980.98 473 980.68 473.38 980.68 473.73V473.77ZM983.7 474.1C983.62 475.29 982.32 476.2 981.39 476.51C978.17 476.82 975.07 475.92 971.99 475.31C965.28 473.71 958.75 471.85 952.42 469.1C952.28 469.03 951.94 468.84 951.74 468.65C951.67 468.53 951.01 468.28 950.81 466.65V466.58C950.85 457.31 944.31 449.35 935.7 445.74C924.87 441.26 912.55 443.38 907.34 454.76C901.81 467.69 927.57 477.18 936.43 481.95C942.21 484.81 949.37 488.2 953.64 492.2C957.81 494.85 961.48 498.26 964.38 502.26C978.68 521.68 973.13 552.01 950.74 562.67C940.84 567.68 929.55 569.34 918.56 568.84C918.54 568.87 920.01 567.73 920.01 567.73C920.53 568.15 920.52 568.46 920.43 568.76L920.21 569.66L919.78 571.45C918.88 575.04 917.91 578.6 916.68 582.1C916.58 582.66 916.05 583.03 915.49 582.94C915.31 582.84 892.71 579.04 892.53 578.95C891.58 578.72 891 577.77 891.22 576.82L894.63 562.53L895.52 564.11C880.05 559.25 865.4 549.05 858.58 533.91C857.85 531.5 857.37 529.01 856.91 526.53C856.19 522.88 854.07 502.39 861.07 504.6C870.23 506.61 879.32 508.81 888.35 511.3C888.83 511.39 889.12 511.87 889 512.34C887.68 518.26 889.65 524.39 893.73 528.77C902.86 538.79 922.86 543.7 933.66 534.13C935.65 532.27 937.03 529.87 937.82 527.24L937.7 527.93C938.13 514.11 920.33 507.35 909.85 501.7C896.99 495.13 882.17 488.2 875.31 474.53C868.69 461.09 872.9 442.72 882.26 431.56C892.13 419.81 907.91 415.1 922.75 415.2L920.76 416.81C921.28 413.45 922.28 410.19 923.11 406.89C924.02 403.61 924.92 400.33 925.77 397.04C925.88 396.43 926.49 396 927.11 396.16C934.58 398.07 942.16 399.48 949.73 400.9C950.32 401.01 950.7 401.59 950.57 402.18C949.37 408.51 948.04 414.81 946.77 421.13L945.95 419.73C970.14 427.52 985.42 448.45 983.69 474.07L983.7 474.1Z" fill="white"/>
    <path d="M839.451 368.16C719.811 365.19 599.811 360.74 480.191 356.12C474.061 355.53 468.091 359.43 466.371 365.37C448.331 452.18 431.201 546.1 413.781 633.21L412.881 637.79L412.661 638.94C412.621 639.09 412.561 639.38 412.511 639.54L412.371 640.09L411.851 642.32C410.721 648.04 407.291 663.96 413.421 666.61C418.571 669.2 425.001 669.79 430.811 670.45C492.831 674.86 555.101 675.75 617.231 678.54C666.051 680.35 793.601 685.19 840.931 686.86C846.421 686.67 852.051 683.23 853.761 677.71C854.511 675.37 855.111 671.18 855.741 668.68C858.861 653.52 862.091 638.1 864.811 622.89C864.861 622.63 865.111 622.46 865.361 622.51C865.621 622.56 865.791 622.81 865.741 623.07C863.301 635.28 861.051 647.52 858.901 659.78C857.901 665.05 856.731 673.02 855.661 678.26C853.911 685.76 846.591 691.93 838.621 691.13L836.311 691.04C753.831 688.01 625.031 683.11 542.431 679.86C511.371 678.04 451.161 677.52 421.021 672.91C416.381 671.88 409.931 670.67 407.641 665.72C405.681 660.94 406.251 655.76 406.741 650.91C407.241 646.79 408.101 642.66 409.111 638.66L409.191 638.37C409.221 638.26 409.211 638.28 409.241 638.13L409.471 636.99C423.951 565.27 440.841 484.54 453.481 412.6C456.071 398.39 459.331 378.28 462.151 364.14C464.331 356.26 472.231 350.82 480.361 351.49C549.971 354.1 620.731 356.91 690.261 359.92C740.011 362.12 789.761 364.29 839.481 366.95C839.811 366.97 840.061 367.25 840.051 367.58C840.031 367.9 839.761 368.15 839.441 368.15L839.451 368.16Z" fill="white"/>
    <path d="M789.351 439.43C774.441 438.55 744.501 436.72 729.601 435.74L699.701 433.83C696.631 433.62 693.881 431.3 693.091 428.33C692.661 426.93 692.811 425.42 693.091 424.01L693.701 420.32C694.151 417.56 696.381 404.32 696.791 401.87L697.101 400.03C697.451 396.16 700.931 392.92 704.871 393.06L719.851 393.91C741.401 395.14 773.091 397.09 794.551 398.45L802.021 398.92C804.511 399.08 807.011 399.11 809.451 400.03C809.851 400.18 810.051 400.62 809.901 401.02C809.811 401.26 809.601 401.44 809.371 401.49C806.831 402.11 804.351 401.85 801.861 401.72L794.391 401.3C772.961 400.1 741.211 398.31 719.701 396.97L704.801 396.07C702.911 396.01 701.061 397.26 700.381 399.03C700.051 399.89 699.891 401.48 699.701 402.41L699.061 406.1L696.491 420.84L695.851 424.53C695.681 425.52 695.451 426.63 695.771 427.61C696.251 429.49 697.991 430.99 699.941 431.13L729.761 433.28C744.631 434.31 774.601 436.53 789.461 437.67C789.951 437.71 790.321 438.13 790.281 438.63C790.241 439.12 789.821 439.48 789.341 439.45L789.351 439.43Z" fill="white"/>
    <path d="M540.33 506.47C525.8 505.33 499.59 503.54 485.31 502.44L481.38 502.15C480.71 502.06 479.05 502.03 478.28 501.89C476.38 501.55 474.88 499.8 474.84 497.86C474.84 497 475.58 493.63 475.73 492.73C476.68 487.87 479.27 474.56 480.25 469.52C481.25 464.41 483.8 451.26 484.77 446.31C485.07 445 485.15 443.13 486.23 442.12C487.06 441.16 488.39 440.58 489.7 440.74C500.71 441.03 527.26 441.72 537.96 442C540.48 442.08 547.32 442.23 549.78 442.31L550.76 442.34H551.25C554.01 442.33 556.15 445.22 555.41 447.84C552.99 460.93 549.72 478.26 547.28 491.42C547.02 492.75 545.71 499.9 545.47 501.1L545.29 502.07L545.2 502.55C544.89 504.87 542.66 506.67 540.33 506.47V506.47ZM540.56 503.13C541.12 503.17 541.68 502.78 541.83 502.24L542.56 498.54C544.74 487.44 547.92 471 550.1 459.86L551.61 452.12L552.36 448.25C552.53 447.09 552.91 446.52 552.28 445.74C551.72 445.03 550.67 445.25 549.68 445.17C547.25 445.09 540.4 444.85 537.87 444.77C527.28 444.41 500.53 443.5 489.63 443.12C488.78 443.04 487.68 443.07 487.32 444.04C484.91 456.22 481.99 473.19 479.68 485.46L478.26 493.21L477.55 497.09C477.3 497.98 477.57 498.65 478.28 499.11C478.68 499.43 480.92 499.39 481.58 499.48L485.51 499.72C499.7 500.6 526.13 502.24 540.57 503.14L540.56 503.13Z" fill="white"/>
    <path d="M1009.12 363.23C1010.59 347.32 1013.94 331.74 1016.57 316.01C1021.4 289.32 1029.09 249.1 1034.21 222.09C1034.29 221.67 1034.54 220.32 1034.62 219.9C1035.08 217.38 1034.76 214.73 1033.62 212.42C1031.73 208.48 1027.66 205.74 1023.29 205.56L1021.82 205.49L1015.85 205.23L1003.92 204.71C980.879 203.95 955.199 201.98 932.329 201.2C880.919 199.2 828.529 197.95 777.139 195.52C765.209 194.79 753.299 193.62 741.379 192.89C716.039 191.5 635.889 188.97 610.079 187.91L607.099 187.8C602.549 187.62 597.979 189.8 595.299 193.49C592.919 196.51 592.789 200.57 592.089 204.22L591.099 210.11C587.579 232.76 583.139 258.32 578.709 280.72C574.069 304.17 569.379 327.59 563.649 350.82C563.499 351.4 562.909 351.76 562.329 351.61C561.779 351.47 561.439 350.94 561.519 350.39C565.159 326.77 569.069 303.2 573.439 279.7C577.339 257.23 582.969 231.87 587.799 209.48C588.499 205.97 589.559 201.18 590.339 197.73C591.449 193.52 594.189 189.78 597.909 187.55C600.219 186.14 602.879 185.33 605.579 185.16C606.549 185.12 609.179 185.22 610.179 185.27C636.119 186.19 716.099 189.79 741.479 190.35C753.429 190.53 765.389 190.28 777.339 190.46C828.759 191.96 881.089 194.72 932.509 196.66C955.349 197.63 981.209 197.64 1004.16 198.63L1016.1 199.02L1022.07 199.22C1024.3 199.25 1026.75 199.48 1028.87 200.27C1037 202.94 1042.35 211.73 1041.05 220.17C1033.68 257.88 1025.64 303.23 1017.67 340.52C1016.07 348.32 1014.42 356.11 1012.1 363.78C1011.86 364.59 1011 365.04 1010.2 364.8C1009.5 364.59 1009.07 363.92 1009.12 363.22V363.23Z" fill="white"/>
    <path d="M994.659 278.44L886.978 270.83C883.098 270.48 828.238 266.95 826.158 266.49C822.318 265.62 819.688 261.54 820.438 257.7L820.579 256.85L821.149 253.53C821.869 249.34 823.839 237.93 824.589 233.58C824.779 232.43 825.009 230.95 825.579 229.92C827.259 226.67 830.598 225.41 834.098 225.82C872.788 227.24 963.308 230.54 1000.97 231.84C1006.35 231.95 1009.96 237.38 1008.44 242.46C1008.28 243.46 1007.73 246.39 1007.55 247.44L1006.37 254.08L1004.01 267.36C1003.75 268.73 1003.39 271.11 1003.05 272.5C1002.08 276.13 998.399 278.74 994.659 278.42V278.44ZM994.919 274.55C996.859 274.71 998.758 273.35 999.248 271.47C999.478 270.62 999.949 267.63 1000.15 266.67C1001.31 260.09 1003.83 246.86 1004.99 240.29C1005.28 237.88 1003.28 235.58 1000.82 235.55L997.448 235.41C961.748 233.9 869.959 230.23 833.128 228.75C830.688 228.41 828.209 230.02 827.759 232.47L827.478 234.11L825.228 247.41L824.108 254.06L823.548 257.39C823.428 258.27 823.208 259.24 823.468 260.11C823.868 261.76 825.228 263.16 826.878 263.53C827.578 263.71 828.888 263.72 829.968 263.81C866.268 266.25 957.549 272.14 994.909 274.55H994.919Z" fill="white"/>
    <path d="M667.949 339.17C653.419 338.03 627.209 336.24 612.929 335.14L608.999 334.85C608.329 334.76 606.669 334.73 605.899 334.59C603.999 334.25 602.499 332.5 602.459 330.56C602.459 329.7 603.199 326.33 603.349 325.43C604.299 320.57 606.889 307.26 607.869 302.22C608.869 297.11 611.419 283.96 612.389 279.01C612.689 277.7 612.769 275.83 613.849 274.82C614.679 273.86 616.009 273.27 617.319 273.43C628.329 273.72 654.879 274.41 665.579 274.69C668.099 274.77 674.939 274.93 677.399 275L678.379 275.03H678.869C681.629 275.02 683.779 277.91 683.039 280.53C680.609 293.62 677.349 310.95 674.899 324.11C674.639 325.44 673.329 332.59 673.089 333.79L672.909 334.76L672.819 335.24C672.509 337.56 670.279 339.36 667.949 339.16V339.17ZM668.179 335.83C668.739 335.87 669.299 335.48 669.449 334.94L670.179 331.24C672.359 320.14 675.539 303.7 677.719 292.56L679.229 284.82L679.979 280.95C680.149 279.79 680.529 279.22 679.899 278.44C679.339 277.73 678.289 277.95 677.299 277.87C674.869 277.79 668.019 277.55 665.489 277.47C654.899 277.11 628.149 276.2 617.249 275.83C616.399 275.76 615.299 275.77 614.939 276.74C612.529 288.92 609.609 305.89 607.299 318.16L605.879 325.91L605.169 329.79C604.919 330.68 605.189 331.35 605.899 331.81C606.299 332.13 608.539 332.09 609.199 332.18L613.129 332.42C627.319 333.3 653.749 334.94 668.189 335.84L668.179 335.83Z" fill="white"/>
    <path d="M605.441 57.83C612.581 56.16 619.871 55.8 627.121 55.08C634.241 54.47 641.351 53.98 648.461 53.51C733.761 48.66 819.331 46.36 904.711 50.21C918.951 50.98 933.191 52 947.381 53.75C948.201 53.85 948.781 54.6 948.681 55.42C948.651 55.7 948.541 55.95 948.381 56.16C946.631 58.43 944.801 60.41 942.841 62.36C938.701 66.48 934.121 70.15 929.201 73.29C929.171 73.29 928.911 73.52 929.311 73.18C929.391 73.08 929.531 72.96 929.671 72.61C929.811 72.33 929.801 71.68 929.641 71.38C929.301 70.7 929.041 70.68 928.981 70.61C928.791 70.51 928.811 70.53 928.811 70.53L928.921 70.56C941.481 71.44 954.221 70.51 966.861 70.17C977.611 69.72 988.361 69.15 999.091 68.43C1009.82 67.7 1020.55 66.86 1031.2 65.58C1036.62 64.79 1042.48 64.37 1047.51 62.36C1047.73 62.26 1047.92 62.09 1047.89 62.12C1047.88 62.12 1047.75 62.31 1047.76 62.58C1045.76 45.24 989.591 17.65 973.501 9.68001C968.671 7.35001 963.781 5.02001 958.911 2.92001L960.791 1.58001L962.201 25.67C962.271 26.58 961.301 27.28 960.461 26.92C944.271 21.01 927.191 17.5 910.251 14.42C806.931 -2.49999 701.121 3.18001 597.601 15.54L596.801 15.7C596.691 15.72 596.481 15.76 596.461 15.77C596.681 15.77 596.971 15.64 597.141 15.52C597.491 15.25 597.531 15.18 597.631 15.2C597.701 15.2 597.771 15.27 597.781 15.27L598.101 16.77C600.851 29.67 603.881 45.33 606.481 58.25L606.561 58.65L606.601 58.83C606.551 58.52 606.321 58.2 606.041 58.02C605.561 57.75 605.461 57.87 605.461 57.85L605.441 57.83ZM606.931 62.8C605.901 63.08 604.611 63.2 603.201 62.34C602.301 61.75 601.631 60.73 601.491 59.67L601.411 59.27L600.791 56.07L599.561 49.68L597.091 36.89L594.681 24.09L593.501 17.69C593.141 15.87 592.761 14.24 594.501 12.67C595.211 12 596.281 12.04 597.181 12.02C615.021 10.43 632.801 8.06001 650.681 6.69001C745.601 -0.959988 842.801 -3.75999 936.291 17.12C944.761 19.21 953.151 21.43 961.431 24.56L959.691 25.81C959.691 25.81 958.081 1.74001 958.081 1.73001C957.961 0.740013 959.081 -0.0299911 959.961 0.390009C964.981 2.56001 969.821 4.87001 974.691 7.22001C991.711 15.72 1049.24 43.73 1050.51 62.45C1050.68 65.82 1041.93 66.59 1039.61 67.2C1015.56 70.92 991.261 72.13 967.011 73.45C954.121 73.85 941.181 74.97 928.241 74.01C927.801 73.9 927.751 73.93 927.221 73.67C927.091 73.56 926.751 73.49 926.371 72.73C926.021 72.12 926.351 71.06 926.771 70.71C927.291 70.25 927.181 70.4 927.291 70.31C934.121 65.84 940.731 60.58 945.971 54.33L946.991 56.73C918.781 53.53 890.311 52.73 861.921 52.26C783.761 51.6 705.471 53.86 627.551 60.1C620.721 60.81 613.551 61.26 606.921 62.79L606.931 62.8Z" fill="white"/>
    <path d="M348.551 774.25C355.151 776.43 362.251 777.54 369.091 778.92C390.111 782.82 411.261 786.07 432.421 789.18C517.071 800.68 602.261 812.61 687.831 812.39C687.831 812.39 686.991 813.97 686.981 813.96C686.391 814.28 686.571 814.13 686.521 814.12L686.451 814.02L686.311 813.83C681.711 807.62 676.231 802.04 670.201 797.21L669.431 796.59C669.331 796.49 669.431 796.65 668.951 796.14C668.511 795.75 668.381 794.68 668.731 794.1C669.171 793.37 669.521 793.33 669.661 793.23C670.011 793.08 670.161 793.07 670.321 793.03C670.461 793.01 670.591 792.99 670.701 792.98C683.671 793.22 696.451 795.52 709.251 797.1C730.631 800.17 751.941 803.44 773.071 808.03C778.771 809.44 784.631 810.47 789.951 813.14C790.311 813.38 790.701 813.6 791.141 814.2C791.351 814.5 791.611 815.04 791.531 815.7C791.451 816.28 791.361 816.89 791.191 817.45C788.381 826.01 777.261 832.59 770.021 837.18C747.791 850.17 723.721 859.59 699.571 868.29L697.651 868.95C697.011 869.22 696.271 869.28 695.741 869.75C694.681 870.35 693.301 869.55 693.271 868.35C693.081 866.31 693.761 863.66 693.981 861.61C694.741 855.79 695.791 849.47 696.621 843.7L699.531 846.24C697.561 847.54 695.281 847.55 693.111 848.16C686.671 849.55 680.171 850.6 673.661 851.51C630.401 857.26 586.591 856.82 543.121 854.24C473.621 849.98 404.771 838.46 336.681 824.37L335.061 824.14L334.251 824.02L334.051 823.99C334.051 823.99 333.771 823.93 333.651 823.88C331.841 823.3 330.981 821.08 331.331 819.52C334.201 809.62 338.481 796.01 341.451 786.08L343.311 779.84C343.461 779.36 344.281 776.56 344.421 776.13C344.611 775.46 345.071 774.86 345.671 774.47C346.661 773.87 347.721 773.89 348.541 774.22L348.551 774.25ZM347.321 777.3C347.141 777.24 347.011 777.14 347.031 777.05C347.031 776.99 347.041 776.93 347.031 776.94L346.981 777.13L346.881 777.53C343.581 790.92 339.841 806.9 336.621 820.32C336.591 820.46 336.601 820.38 336.601 820.39C336.601 820.39 336.601 820.39 336.601 820.37C336.571 820.34 336.601 820.25 336.371 819.84C336.251 819.65 335.981 819.34 335.611 819.16C335.521 819.12 335.421 819.08 335.341 819.05C335.281 819.03 335.091 818.99 335.131 819L335.331 819.05L336.121 819.26C340.241 820.48 346.121 821.55 350.401 822.46C431.021 838.83 512.971 850.58 595.351 850.98C621.291 851 647.251 849.9 672.941 846.35C680.381 845.29 687.801 844.06 695.111 842.32C696.141 842.1 697.151 841.69 698.231 841.88L700.191 842.23C701.181 842.38 701.711 843.6 701.141 844.43C700.521 848.4 699.871 852.37 699.211 856.34L698.221 862.29C697.871 863.99 697.651 866.57 697.101 868.22L694.611 866.07C694.961 866.14 695.281 866.03 695.591 865.92L696.541 865.6C700.841 864.1 705.541 862.45 709.791 860.83C727.111 854.09 784.101 832.34 788.591 815.32C788.551 815.64 788.691 815.85 788.711 815.87C788.771 815.91 788.601 815.72 788.401 815.59C783.651 812.99 777.791 812.14 772.491 810.82C762.011 808.56 751.391 806.75 740.781 805.03C730.161 803.33 719.511 801.77 708.841 800.35C696.251 798.87 683.601 796.72 670.981 796.51C670.981 796.51 670.961 796.53 671.161 796.45C671.231 796.38 671.491 796.39 671.901 795.74C672.221 795.25 672.081 794.25 671.731 793.93C671.361 793.55 671.601 793.81 671.641 793.81C678.371 799.08 684.531 805.23 689.091 812.5C689.081 812.56 689.301 812.49 688.761 812.88C689.191 813.53 688.701 814.46 687.921 814.45C630.751 815.48 573.741 809.24 516.991 803.1C467.351 797.29 417.751 790.85 368.531 782.1C361.401 780.68 354.311 779.63 347.351 777.32L347.321 777.3Z" fill="white"/>
    <path d="M272.969 617.86C257.069 617.79 241.159 617.88 225.259 617.97L201.399 618.1C197.079 618.31 192.499 616.8 189.309 613.77C186.039 610.76 184.099 606.34 184.129 601.88C184.289 586.05 184.689 545.61 184.879 530.31C184.749 526.15 186.239 521.81 189.189 518.8C192.059 515.72 196.239 513.89 200.459 513.93L224.319 513.73C240.219 513.48 256.129 513.76 272.029 513.63C278.539 513.23 285.189 516.83 287.969 522.86C288.919 524.88 289.429 527.12 289.449 529.36L289.559 553.22C289.589 559.17 289.629 571.13 289.579 577.08C289.359 580.61 290.029 602.82 288.949 605.82C287.219 612.89 280.139 618.06 272.969 617.85V617.86ZM272.969 615.09C279.299 615.11 284.849 609.86 285.519 603.65C285.829 604.77 285.439 577.35 285.539 577.08C285.509 563.75 285.579 542.85 285.669 529.37C285.899 522.69 280.329 516.16 273.469 515.96C265.049 515.78 256.589 515.9 248.169 515.93C234.349 515.9 214.479 515.76 200.459 515.62C196.699 515.6 192.999 517.24 190.459 520C187.869 522.78 186.649 526.55 186.849 530.32C187.029 545.44 187.439 586.25 187.599 601.89C187.519 607.21 191.119 612.24 196.099 614.04C197.809 614.7 199.549 614.88 201.399 614.86C224.549 614.93 249.959 615.23 272.969 615.1V615.09Z" fill="white"/>
    <path d="M198.01 511.32C203.82 506.8 210.13 502.95 216.99 500.2C219.09 499.4 221.37 498.65 223.69 498.65C243.3 498.3 262.92 498.42 282.53 498.59C284.88 498.62 291.11 498.66 293.39 498.69C300.09 498.19 306.89 501.21 310.02 507.38C312.5 511.49 311.81 517.77 311.9 522.34C311.92 531.54 311.94 556.29 311.95 565.79C311.92 570.46 311.89 582.97 311.81 587.52L311.77 591.14C312.16 595.18 309.87 599.11 307.17 601.71C303.65 605.26 299.51 607.98 295.15 610.32C292.99 611.48 290.78 612.52 288.52 613.44C287.61 613.76 287.04 612.51 287.9 612.05C294.22 608.85 300.44 605.1 305.27 599.92C307.11 597.8 308.77 595.58 308.88 592.91C308.86 591.87 308.85 588.65 308.83 587.52C308.64 574.51 308.71 550.08 308.72 536.82L308.74 522.34V515.1C308.74 512.92 308.21 510.79 307.18 508.9C304.5 503.81 298.95 501.61 293.39 502.14C291.13 502.17 284.87 502.22 282.53 502.24C262.76 502.4 243 502.53 223.23 502.17C219.14 502.41 215.26 504.25 211.46 505.8C207.11 507.72 202.84 509.91 198.69 512.34C198.4 512.51 198.02 512.41 197.84 512.12C197.68 511.85 197.75 511.51 197.99 511.32H198.01Z" fill="white"/>
    <path d="M1077.05 809.49C1061.15 809.42 1045.24 809.51 1029.34 809.6L1005.48 809.73C1001.16 809.94 996.579 808.43 993.389 805.4C990.119 802.39 988.179 797.97 988.209 793.51C988.369 777.68 988.769 737.24 988.959 721.94C988.829 717.78 990.319 713.44 993.269 710.43C996.139 707.35 1000.32 705.52 1004.54 705.56L1028.4 705.36C1044.3 705.11 1060.21 705.39 1076.11 705.26C1082.62 704.86 1089.27 708.46 1092.05 714.49C1093 716.51 1093.51 718.75 1093.53 720.99L1093.64 744.85C1093.67 750.8 1093.71 762.76 1093.66 768.71C1093.44 772.24 1094.11 794.45 1093.03 797.45C1091.3 804.52 1084.22 809.68 1077.05 809.48V809.49ZM1077.05 806.72C1083.38 806.74 1088.93 801.49 1089.6 795.28C1089.91 796.4 1089.52 768.98 1089.62 768.71C1089.59 755.38 1089.66 734.48 1089.75 721C1089.98 714.32 1084.41 707.79 1077.55 707.59C1069.13 707.41 1060.67 707.53 1052.25 707.56C1038.43 707.53 1018.56 707.39 1004.54 707.25C1000.78 707.23 997.079 708.87 994.539 711.63C991.949 714.41 990.729 718.18 990.929 721.95C991.109 737.07 991.519 777.88 991.679 793.52C991.599 798.84 995.199 803.87 1000.18 805.67C1001.89 806.33 1003.63 806.51 1005.48 806.49C1028.63 806.56 1054.04 806.86 1077.05 806.73V806.72Z" fill="white"/>
    <path d="M1002.09 702.95C1007.9 698.43 1014.21 694.58 1021.07 691.83C1023.17 691.03 1025.45 690.28 1027.77 690.28C1047.38 689.93 1067 690.05 1086.61 690.22C1088.96 690.25 1095.19 690.29 1097.47 690.32C1104.17 689.82 1110.97 692.84 1114.1 699.01C1116.58 703.12 1115.89 709.4 1115.98 713.97C1116 723.17 1116.02 747.92 1116.03 757.42C1116 762.09 1115.97 774.6 1115.89 779.15L1115.85 782.77C1116.24 786.81 1113.95 790.74 1111.25 793.34C1107.73 796.89 1103.59 799.61 1099.23 801.95C1097.07 803.11 1094.86 804.15 1092.6 805.07C1091.69 805.39 1091.12 804.14 1091.98 803.68C1098.3 800.48 1104.52 796.73 1109.35 791.55C1111.19 789.43 1112.85 787.21 1112.96 784.54C1112.94 783.5 1112.93 780.28 1112.91 779.15C1112.72 766.14 1112.79 741.71 1112.8 728.45L1112.82 713.97V706.73C1112.82 704.55 1112.29 702.42 1111.26 700.53C1108.58 695.44 1103.03 693.24 1097.47 693.77C1095.21 693.8 1088.95 693.85 1086.61 693.87C1066.84 694.03 1047.08 694.16 1027.31 693.8C1023.22 694.04 1019.34 695.88 1015.54 697.43C1011.19 699.35 1006.92 701.54 1002.77 703.97C1002.48 704.14 1002.1 704.04 1001.92 703.75C1001.76 703.48 1001.83 703.14 1002.07 702.95H1002.09Z" fill="white"/>
    <path d="M1167.23 192.34C1151.33 192.27 1135.42 192.36 1119.52 192.45L1095.66 192.58C1091.34 192.79 1086.76 191.28 1083.57 188.25C1080.3 185.24 1078.36 180.82 1078.39 176.36C1078.55 160.53 1078.95 120.09 1079.14 104.79C1079.01 100.63 1080.5 96.29 1083.45 93.28C1086.32 90.2 1090.5 88.37 1094.72 88.41L1118.58 88.21C1134.48 87.96 1150.39 88.24 1166.29 88.11C1172.8 87.71 1179.45 91.31 1182.23 97.34C1183.18 99.36 1183.69 101.6 1183.71 103.84L1183.82 127.7C1183.85 133.65 1183.89 145.61 1183.84 151.56C1183.62 155.09 1184.29 177.3 1183.21 180.3C1181.48 187.37 1174.4 192.53 1167.23 192.33V192.34ZM1167.23 189.57C1173.56 189.59 1179.11 184.34 1179.78 178.13C1180.09 179.25 1179.7 151.83 1179.8 151.56C1179.77 138.23 1179.84 117.33 1179.93 103.85C1180.16 97.17 1174.59 90.64 1167.73 90.44C1159.31 90.26 1150.85 90.38 1142.43 90.41C1128.61 90.38 1108.74 90.24 1094.72 90.1C1090.96 90.08 1087.26 91.72 1084.72 94.48C1082.13 97.26 1080.91 101.03 1081.11 104.8C1081.29 119.92 1081.7 160.73 1081.86 176.37C1081.78 181.69 1085.38 186.72 1090.36 188.52C1092.07 189.18 1093.82 189.36 1095.66 189.34C1118.81 189.41 1144.22 189.71 1167.23 189.58V189.57Z" fill="white"/>
    <path d="M1092.27 85.8001C1098.08 81.2801 1104.39 77.43 1111.25 74.68C1113.35 73.88 1115.63 73.1301 1117.95 73.1301C1137.56 72.7801 1157.18 72.9001 1176.79 73.0701C1179.14 73.1001 1185.37 73.1401 1187.65 73.1701C1194.35 72.6701 1201.15 75.6901 1204.28 81.8601C1206.76 85.9701 1206.07 92.2501 1206.16 96.8201C1206.18 106.02 1206.2 130.77 1206.21 140.27C1206.18 144.94 1206.15 157.45 1206.07 162L1206.03 165.62C1206.42 169.66 1204.13 173.59 1201.43 176.19C1197.91 179.74 1193.77 182.46 1189.41 184.8C1187.25 185.96 1185.04 187 1182.78 187.92C1181.87 188.24 1181.3 186.99 1182.16 186.53C1188.48 183.33 1194.7 179.58 1199.53 174.4C1201.37 172.28 1203.03 170.06 1203.14 167.39C1203.12 166.35 1203.11 163.13 1203.09 162C1202.9 148.99 1202.97 124.56 1202.98 111.3L1203 96.8201V89.5801C1203 87.4001 1202.47 85.2701 1201.44 83.3801C1198.76 78.2901 1193.21 76.09 1187.65 76.62C1185.39 76.65 1179.13 76.7001 1176.79 76.7201C1157.02 76.8801 1137.26 77.01 1117.49 76.65C1113.4 76.89 1109.52 78.7301 1105.72 80.2801C1101.37 82.2001 1097.1 84.3901 1092.95 86.8201C1092.66 86.9901 1092.28 86.8901 1092.1 86.6001C1091.94 86.3301 1092.01 85.9901 1092.25 85.8001H1092.27Z" fill="white"/>
    <path d="M396.969 182.94C381.069 182.87 365.159 182.96 349.259 183.05L325.399 183.18C321.079 183.39 316.499 181.88 313.309 178.85C310.039 175.84 308.099 171.42 308.129 166.96C308.289 151.13 308.689 110.69 308.879 95.39C308.749 91.23 310.239 86.89 313.189 83.88C316.059 80.8 320.239 78.97 324.459 79.01L348.319 78.81C364.219 78.56 380.129 78.84 396.029 78.71C402.539 78.31 409.189 81.91 411.969 87.94C412.919 89.96 413.429 92.2 413.449 94.44L413.559 118.3C413.589 124.25 413.629 136.21 413.579 142.16C413.359 145.69 414.029 167.9 412.949 170.9C411.219 177.97 404.139 183.13 396.969 182.93V182.94ZM396.969 180.17C403.299 180.19 408.849 174.94 409.519 168.73C409.829 169.85 409.439 142.43 409.539 142.16C409.509 128.83 409.579 107.93 409.669 94.45C409.899 87.77 404.329 81.24 397.469 81.04C389.049 80.86 380.589 80.98 372.169 81.01C358.349 80.98 338.479 80.84 324.459 80.7C320.699 80.68 316.999 82.32 314.459 85.08C311.869 87.86 310.649 91.63 310.849 95.4C311.029 110.52 311.439 151.33 311.599 166.97C311.519 172.29 315.119 177.32 320.099 179.12C321.809 179.78 323.549 179.96 325.399 179.94C348.549 180.01 373.959 180.31 396.969 180.18V180.17Z" fill="white"/>
    <path d="M322.01 76.41C327.82 71.89 334.13 68.04 340.99 65.29C343.09 64.49 345.37 63.74 347.69 63.74C367.3 63.39 386.92 63.51 406.53 63.68C408.88 63.71 415.11 63.75 417.39 63.78C424.09 63.28 430.89 66.3 434.02 72.47C436.5 76.58 435.81 82.86 435.9 87.43C435.92 96.63 435.94 121.38 435.95 130.88C435.92 135.55 435.89 148.06 435.81 152.61L435.77 156.23C436.16 160.27 433.87 164.2 431.17 166.8C427.65 170.35 423.51 173.07 419.15 175.41C416.99 176.57 414.78 177.61 412.52 178.53C411.61 178.85 411.04 177.6 411.9 177.14C418.22 173.94 424.44 170.19 429.27 165.01C431.11 162.89 432.77 160.67 432.88 158C432.86 156.96 432.85 153.74 432.83 152.61C432.64 139.6 432.71 115.17 432.72 101.91L432.74 87.43V80.19C432.74 78.01 432.21 75.88 431.18 73.99C428.5 68.9 422.95 66.7 417.39 67.23C415.13 67.26 408.87 67.31 406.53 67.33C386.76 67.49 367 67.62 347.23 67.26C343.14 67.5 339.26 69.34 335.46 70.89C331.11 72.81 326.84 75 322.69 77.43C322.4 77.6 322.02 77.5001 321.84 77.2101C321.68 76.9401 321.75 76.6 321.99 76.41H322.01Z" fill="white"/>
    <path d="M449.72 112.93C578.76 106.78 708.33 104.15 837.48 106.77C902.02 108.36 967.02 110.73 1031.05 119.31C1040.65 120.61 1050.3 122.12 1059.8 124.03L1069.33 125.94C1069.81 126.04 1070.12 126.5 1070.02 126.98C1069.92 127.46 1069.45 127.77 1068.97 127.67C1018.13 118.7 966.35 116.34 914.83 114.33C811.56 110.8 708.19 111.85 604.9 113.7C553.24 114.68 501.56 116.03 449.92 117.65C448.61 117.69 447.52 116.66 447.48 115.36C447.44 114.07 448.44 112.99 449.72 112.93V112.93Z" fill="white"/>
    <path d="M1166.16 205.65C1166.58 240.54 1154.07 276.76 1127.77 300.48C1118.82 308.67 1108.43 315.26 1097.33 320.13C1095.25 321.21 1090.33 322.9 1088.12 323.79L1086.58 324.38L1085 324.86C1067.18 330.55 1048.46 333 1029.88 333.07C1028.29 333.08 1026.99 331.8 1026.98 330.21C1026.97 328.61 1028.28 327.3 1029.88 327.31C1048.58 327.51 1067.22 325.15 1085 319.64C1131.62 304.5 1157.63 266.36 1162.6 218.54C1163.01 214.29 1163.28 209.94 1163.19 205.75C1163.13 203.92 1166.03 203.61 1166.17 205.66L1166.16 205.65Z" fill="white"/>
    <path d="M555.07 327.26C506.62 329.64 458.12 334.79 410.54 344.35C394.73 347.57 378.99 351.37 363.6 356.24C356.26 358.5 347.98 361.52 340.87 364.39C339.06 365.19 334.35 367.24 332.6 368.01C328.4 370.03 323.36 372.59 319.32 374.98C292.05 391.72 269.03 415.68 253.24 443.53C245.57 457.5 239.12 472.53 236.19 488.24C236.09 489.04 235.33 489.61 234.54 489.47C233.77 489.34 233.25 488.62 233.36 487.86C233.97 483.69 234.94 479.75 236.03 475.78C239.34 463.93 244.13 452.54 250.01 441.74C262.76 418.34 280.83 398 301.93 381.8C309.96 375.53 318.87 369.97 328.09 365.61C350.13 355.03 374.05 348.41 397.81 343.02C449.46 331.86 502.22 326.6 554.98 324.64C555.7 324.62 556.3 325.18 556.32 325.9C556.34 326.62 555.77 327.22 555.06 327.24L555.07 327.26Z" fill="white"/>
    <path d="M244.98 627.22C262.34 671.56 294.86 714.07 341.4 729.38C356.71 734.35 373.03 735.82 389.03 737.6C421.49 740.83 454.13 742.69 486.72 744.38C615.37 750.6 749.63 753.22 878.75 755.77L976.8 757.39C977.69 757.4 978.41 758.14 978.4 759.03C978.39 759.92 977.66 760.63 976.78 760.63C813.3 759.78 649.77 757.68 486.44 749.97C445.56 747.71 404.6 745.83 363.99 740.21C321.23 734.99 286.76 708.19 264.26 672.37C255.46 658.41 248.17 643.54 243.22 627.78C243.07 627.3 243.35 626.79 243.83 626.64C244.31 626.49 244.81 626.76 244.97 627.23L244.98 627.22Z" fill="white"/>
    <path d="M1114.88 621.18C1108.77 618.58 1111.29 608.46 1113 603.69C1114.75 598.75 1117.25 592.77 1122.76 591.05C1123.66 590.89 1126.25 590.79 1125.85 592.26C1125.71 592.59 1125.36 592.77 1125.02 592.71C1123.77 592.45 1122.58 592.96 1121.6 593.76C1116.37 598.41 1113.36 605.76 1113.06 612.72C1113 615.21 1112.99 618.48 1115.43 619.76C1116.28 620.15 1115.75 621.48 1114.86 621.17L1114.88 621.18Z" fill="white"/>
    <path d="M1338.13 686.11C1339.83 681.25 1345.01 672.46 1351.15 674.08C1354.38 675.41 1354.94 679.43 1354.97 682.48C1354.72 690.02 1351.72 698.09 1345.46 702.62C1342.3 704.88 1338.66 703.57 1337.52 699.89C1335.99 695.41 1336.68 690.51 1338.13 686.11V686.11ZM1340.26 686.86C1338.91 690.86 1337.74 695.29 1338.8 699.46C1339.25 701.4 1340.91 703.11 1343.01 702.53C1350.35 700.1 1355.29 685.25 1353.06 678.27C1352.2 675.3 1349.61 674.38 1347.11 676.25C1343.67 678.79 1341.76 682.93 1340.26 686.86V686.86Z" fill="white"/>
    <path d="M1341.01 704.03L1115.16 621.66C1114.57 621.45 1114.27 620.8 1114.49 620.21C1114.71 619.62 1115.35 619.32 1115.94 619.54L1341.6 702.46C1342.03 702.62 1342.26 703.1 1342.1 703.53C1341.94 703.96 1341.46 704.19 1341.03 704.03H1341.01Z" fill="white"/>
    <path d="M1349.74 675.39L1124.11 592.41C1123.71 592.26 1123.51 591.82 1123.65 591.42C1123.8 591.02 1124.24 590.82 1124.63 590.96L1350.51 673.26C1351.1 673.47 1351.4 674.12 1351.18 674.71C1350.97 675.3 1350.32 675.6 1349.73 675.38L1349.74 675.39Z" fill="white"/>
    <path d="M141.01 124.73C152.03 117.45 169.07 107.68 182.57 108.6C198.11 111.16 185.11 129.02 179.17 135.25C173.35 141.63 166.67 147.14 159.59 152.05C148.85 159.18 137.15 165.56 124.25 167.72C111.36 169.78 106.25 162.55 113.22 151.3C120.17 140.32 130.46 132 141.01 124.73V124.73ZM141.87 126C131.26 133.54 116.61 145.27 112.64 157.94C109.86 170.73 129.65 164.14 135.76 161.57C147.38 156.72 158.18 149.87 167.97 141.97C174.4 136.69 180.68 130.84 185.11 123.77C191.08 114.05 187.54 108.75 176.22 110.53C163.74 112.67 152.34 119.08 141.87 126.01V126Z" fill="white"/>
    <path d="M116.531 165.88C116.431 165.83 228.431 249.93 226.871 248.99C227.781 249.07 228.951 248.89 229.371 248.02C230.261 245.9 229.161 242.85 228.541 240.5L227.301 236.27L222.171 219.32C216.981 202.44 206.461 168.45 201.201 151.59L190.781 117.71C190.701 117.44 190.851 117.16 191.111 117.08C191.371 117 191.651 117.14 191.741 117.41L202.851 151.08C208.321 167.9 219.251 201.72 224.651 218.55L230.001 235.46C231.121 239.86 235.621 249.15 229.121 251.22C228.021 251.43 226.931 251.41 225.941 250.91L115.371 167.44C114.951 167.12 114.861 166.52 115.181 166.09C115.501 165.66 116.101 165.58 116.531 165.9V165.88Z" fill="white"/>
    <path d="M184.43 698.54C179.47 691.37 169.32 682.35 160.03 683.7C156.03 684.77 152.13 686.9 149.9 690.49C144.33 699.77 148.29 711.97 151.91 721.33C155.65 731.5 163.26 739.67 171.51 746.46C179.78 753.09 190.11 758.28 200.94 757.11C211.55 755.93 221.34 749.08 226.46 739.78C229.92 733.52 231.21 726.26 231.21 719.13C231.17 708.36 228.51 697.69 224.61 687.68C222.09 681.02 218.48 674.58 212.65 670.34C209.81 668.24 206.52 666.74 203.05 666.24C196.3 665.34 188.51 668.43 185.15 674.54C179.2 686.24 189.01 708.09 195.85 718.25C199.79 723.47 205.61 723.63 210.57 719.67C213.21 717 210.75 712.44 209.3 709.66C207.39 706.37 204.95 703.27 203.35 699.77C201.65 696.26 200.36 692.55 199.62 688.7C199.29 686.78 197.93 679.05 201.07 679.26C202.01 679.53 202.71 680.26 203.38 680.88C206.17 683.72 208.31 686.98 210.22 690.36C215.93 700.52 218.66 712.56 216.49 724.13C215.19 731.66 211.35 740.16 203.39 742.46C195.73 744.44 187.39 742.12 180.99 737.73C171.93 731.34 164.62 719.93 161.82 709.25C161.02 705.53 160.56 701 163.1 697.81C163.22 697.67 163.44 697.81 163.38 697.97C159.73 708.7 166.96 720.76 173.38 729.04C178.12 734.88 184.49 739.68 191.93 741.26C211.21 745.75 216.62 728.35 215.71 712.58C214.8 701.47 209.48 688.76 201.33 681.04C201.12 680.88 200.94 680.77 200.76 680.69C200.78 680.69 200.8 680.7 200.82 680.7C200.9 680.68 200.97 680.65 200.97 680.65C200.92 680.67 200.72 681.13 200.66 681.53C200.59 681.95 200.53 682.4 200.52 682.85C200.45 688.47 202.24 694.06 204.62 699.12C207.05 704.36 211.34 708.72 212.42 714.58C212.76 716.58 212.82 718.97 210.97 720.37C209.85 721.31 207.85 722.52 206.14 722.98C202.49 724.26 198.22 723.01 195.67 720.15C195.08 719.52 194.33 718.68 193.9 717.96C193.49 717.4 192.75 716.23 192.42 715.62C185.15 702.46 172.99 674.84 192.3 666.64C203.16 661.48 214.84 668.02 220.75 677.46C224.65 683.66 226.95 690.62 229.03 697.59C232.79 711.42 234.4 727.15 227.35 740.25C220.33 753.14 204.56 761.15 190.11 757.32C175.5 753.51 162.51 741.52 154.42 729.1C148.44 717.34 139.96 695.68 152.87 685.87C155.11 684.22 157.78 683.13 160.48 682.56C167.02 681.96 173.1 685.8 177.94 689.8C180.71 692.19 183.16 694.94 185.25 697.94C185.63 698.49 184.8 699.05 184.42 698.52L184.43 698.54Z" fill="white"/>
    <path d="M194.569 742.38C194.569 742.38 197.759 731.79 193.689 716.17Z" fill="white"/>
    <path d="M162.57 699.05C174.57 701.74 178.75 715.36 180.81 725.94C181.44 729.41 182.24 732.97 181.91 736.52C181.84 736.85 181.78 737.24 181.5 737.48C181.25 737.72 180.68 737.64 180.64 737.15C180.62 736.87 180.83 736.63 181.1 736.61C180.83 736.67 180.88 736.68 180.79 736.75C180.74 736.8 180.77 736.73 180.77 736.69C180.77 736.6 180.77 736.52 180.77 736.42C180.39 733.05 179.34 729.77 178.52 726.47C175.96 716.46 173.09 704.1 162.41 700.04C161.79 699.92 161.92 698.95 162.57 699.05V699.05Z" fill="white"/>
    <path d="M190.12 756.84C186.35 767.37 175.92 774.12 165.05 775.21C152.73 776.19 140.45 771.56 130.63 764.29C126.01 760.83 121.85 756.63 118.86 751.59C111.29 738.08 103.52 714.08 119.4 703.61C127.19 700.59 136.27 701.98 142.66 707.34C143.28 707.9 144.53 709.06 145.1 709.61C145.52 710.13 146.8 711.6 147.24 712.15C148.11 713.34 148.89 714.59 149.71 715.8C150.07 716.35 149.26 716.89 148.89 716.37C148.05 715.19 147.26 713.97 146.38 712.82C145.95 712.36 144.69 710.88 144.26 710.42C143.69 709.85 142.47 708.85 141.88 708.3C135.86 703.43 127.2 702.22 120.05 705.08C108.02 713.23 111.67 731.27 116.78 743.08C119.84 750.95 124.85 757.82 131.72 762.82C140.63 769.42 151.62 773.9 162.81 773.72C168.33 773.63 173.91 771.97 178.61 769.08C183.29 766.14 187.16 761.68 189.15 756.54C189.33 755.88 190.34 756.18 190.11 756.84H190.12Z" fill="white"/>
    <path d="M176.34 750.45C173.84 757.35 166.33 761.18 159.29 761.16C146.9 761.35 132.18 747 128.04 735.98C126.67 732.34 120.99 717.31 127.09 716.48C127.11 716.55 127.09 716.62 127.03 716.65C124.62 718.9 125.73 722.92 126.32 725.81C128.1 732.19 130.37 738.73 134.8 743.8C142.8 753.56 155.77 763.66 168.66 756.95C171.47 755.41 173.99 753.04 175.39 750.13C175.61 749.51 176.56 749.84 176.34 750.46V750.45Z" fill="white"/>
    <path d="M156.94 731.19C159.5 740.61 161.03 750.45 160.07 760.21C160.04 760.49 159.8 760.69 159.52 760.66C159.24 760.63 159.03 760.38 159.07 760.1C159.94 750.49 158.46 740.75 155.98 731.48C155.79 730.85 156.76 730.54 156.94 731.19V731.19Z" fill="white"/>
    <path d="M143.8 754.27C144.46 746.96 144.21 739.27 140.64 732.67C137.95 727.52 132.25 717.71 125.53 718.69C124.91 718.83 124.67 717.87 125.3 717.71C132.93 716.21 139.04 726.22 142.08 731.95C145.83 738.75 146.04 746.92 144.8 754.42C144.69 755.05 143.72 754.92 143.81 754.27H143.8Z" fill="white"/>
    <path d="M154.6 773.98C149.75 787.74 133.61 794.33 119.88 792.47C112.86 791.35 106.41 788.03 100.89 783.78C87.4099 773.07 76.2499 757.45 75.3299 739.81C75.2499 736.29 75.7899 732.67 77.3699 729.43C80.4899 722.97 87.9099 718.62 95.0799 719.9C102.13 721.15 107.91 725.83 112.47 731.11C112.89 731.63 112.12 732.25 111.7 731.76C107.33 726.77 101.57 722.19 94.8899 721.1C88.2599 719.98 81.4599 724.11 78.6099 730.03C77.1599 733.02 76.6499 736.42 76.7399 739.77C77.6999 756.91 88.7299 772.16 101.86 782.51C109.87 788.69 120.03 792.67 130.16 790.59C138.42 789.34 146.53 785.13 151.29 778.11C152.25 776.72 153.09 775.19 153.65 773.64C153.85 773.03 154.82 773.36 154.6 773.98V773.98Z" fill="white"/>
    <path d="M141.3 769.82C136.05 775.36 128.05 780.17 120.24 777.52C106.14 773.34 93.9299 761.88 91.4099 747.28C90.5299 742.5 90.5299 736.83 94.0199 733.05C94.0999 732.96 94.2399 732.96 94.3299 733.05C94.4099 733.13 94.4199 733.25 94.3599 733.34C90.9099 738.77 92.4799 745.75 94.3999 751.45C97.3099 761.1 105.04 768.51 113.83 773.1C118.15 775.2 122.97 777.54 127.86 776.45C132.65 775.5 137 772.54 140.58 769.14C141.01 768.65 141.78 769.34 141.32 769.82H141.3Z" fill="white"/>
    <path d="M109.721 772.02C109.971 766.6 109.921 761.03 108.491 755.79C106.001 749.08 101.381 735.83 92.8908 735.8C92.2608 735.82 92.2008 734.84 92.8408 734.79C102.271 734.36 107.421 747.96 110.041 755.35C111.491 760.83 111.421 766.56 110.721 772.13C110.631 772.75 109.661 772.67 109.721 772.02V772.02Z" fill="white"/>
    <path d="M124.71 777.03C124.86 773.53 124.92 769.99 124.76 766.49C124.55 763.1 124.34 759.45 122.82 756.41C122.5 755.86 123.33 755.34 123.68 755.89C125.58 759.11 125.84 762.83 126.1 766.43C126.26 770.01 126.14 773.57 125.71 777.13C125.63 777.76 124.67 777.68 124.71 777.04V777.03Z" fill="white"/>
    <path d="M119.4 792.45C114.31 802.16 103.97 809.07 92.92 809.35C78.98 809.73 64.45 803.29 56.4 791.67C54.44 788.82 51.81 784.51 52.51 780.46C53.5 775.82 59.68 774.48 63.25 776.93C67.26 779.34 70.31 783.06 73.76 786.01C78.27 789.81 83.79 792.82 89.76 793.19C95.6 793.57 101.78 790.57 104.88 785.58C105.2 785.04 106.07 785.54 105.74 786.1C102.45 791.59 96.03 794.8 89.7 794.54C83.38 794.29 77.4901 791.22 72.7101 787.25C69.1901 784.3 66.2701 780.79 62.3801 778.47C60.2101 777.16 57.81 777.16 55.81 778.62C52.1 781.5 55.95 787.58 58.03 790.63C65.49 801.39 78.8401 807.15 91.7401 807.4L92.8501 807.34C95.7801 807.28 98.76 806.68 101.53 805.79C108.53 803.32 114.61 798.3 118.51 791.99C118.79 791.41 119.72 791.85 119.41 792.45H119.4Z" fill="white"/>
</svg>
