<svg viewBox="0 0 189 117" fill="none" xmlns="http://www.w3.org/2000/svg">
    <path d="M176.85 70.5219C178.24 69.9545 177.985 66.156 176.278 62.0378C174.571 57.9196 172.06 55.041 170.669 55.6084C169.278 56.1758 169.534 59.9742 171.241 64.0925C172.947 68.2107 175.459 71.0892 176.85 70.5219Z" stroke="#B3B3B3" stroke-linecap="round" stroke-linejoin="round"/>
    <path d="M170.043 56.167L155.151 70.7048C155.151 70.7048 154.624 71.7411 156.315 71.6681C158.005 71.5938 175.819 70.9104 175.819 70.9104" stroke="#B3B3B3" stroke-linecap="round" stroke-linejoin="round"/>
    <path d="M10.8427 53.1724L7.50293 61.8849L16.8159 60.4612L10.8427 53.1724Z" stroke="#B3B3B3" stroke-linecap="round" stroke-linejoin="round"/>
    <path d="M12.2135 61.0742L13.8573 56.8506L9.24023 57.5207L12.2135 61.0742Z" stroke="#B3B3B3" stroke-linecap="round" stroke-linejoin="round"/>
    <path d="M13.9736 56.7217L15.921 55.0803" stroke="#B3B3B3" stroke-linecap="round" stroke-linejoin="round"/>
    <path d="M9.04628 57.4849L6.63477 56.5759" stroke="#B3B3B3" stroke-linecap="round" stroke-linejoin="round"/>
    <path d="M12.1694 61.175L12.5279 63.7771" stroke="#B3B3B3" stroke-linecap="round" stroke-linejoin="round"/>
    <path d="M16.8199 60.4717L15.9906 55.0088L10.8399 53.0967L6.55859 56.5361L7.53363 61.9672L12.5921 64.0451L16.8199 60.4717Z" stroke="#B3B3B3" stroke-linecap="round" stroke-linejoin="round"/>
    <path d="M186.034 38.1965C183.225 39.0378 177.956 34.2131 177.441 38.5309C177.011 42.1481 177.476 46.657 172.53 46.2483C168.574 45.3553 164.759 42.4958 165.465 49.0786C165.916 53.8104 161.413 55.3125 157.753 53.4017C156.621 52.9917 155.389 52.4132 154.236 53.1058C153.017 53.829 151.736 52.1199 153.053 51.1725C156.376 48.7827 162.452 54.8839 163.037 50.3419C163.506 46.6835 162.82 42.2543 167.93 42.5555C169.79 42.7333 171.358 43.9819 173.23 44.0111C176.203 43.6608 174.579 39.8393 175.15 37.8834C176.331 33.0799 181.11 34.6404 184.466 35.9567C185.615 36.3999 186.646 34.9894 187.679 35.832C187.733 35.8744 189.31 37.2146 186.032 38.1952L186.034 38.1965Z" stroke="#B3B3B3" stroke-linecap="round" stroke-linejoin="round"/>
    <path d="M29.4819 49.5896C27.3272 48.0782 27.8622 41.705 24.4917 43.7312C21.6682 45.4283 18.703 48.2494 16.2594 44.5446C14.7092 41.2671 14.6437 37.0024 10.3289 41.1411C7.19649 44.0749 3.63339 41.7382 2.974 38.1077C2.64096 37.0847 2.37346 35.8984 1.2406 35.4698C0.0502258 35.0133 0.562489 33.1663 1.9682 33.5696C5.51391 34.5847 4.5148 42.2331 8.08191 40.1326C10.9562 38.4408 13.7422 35.5069 16.353 39.2688C17.2545 40.674 17.2291 42.4693 18.2429 43.8015C20.1381 45.699 21.9705 42.4428 23.6852 41.7634C27.7713 39.9375 29.3 44.1625 30.2149 47.2502C30.5332 48.3038 32.1128 48.2481 32.0807 49.441C32.0807 49.5033 31.9951 51.3531 29.4806 49.5909L29.4819 49.5896Z" stroke="#B3B3B3" stroke-linecap="round" stroke-linejoin="round"/>
    <path d="M184.873 80.2816C185.013 79.277 182.522 78.1044 179.308 77.6626C176.095 77.2207 173.376 77.677 173.236 78.6816C173.095 79.6863 175.587 80.8589 178.8 81.3007C182.014 81.7426 184.733 81.2863 184.873 80.2816Z" stroke="#B3B3B3" stroke-linecap="round" stroke-linejoin="round"/>
    <path d="M32.2932 106.698C33.3543 104.156 33.5599 101.826 32.7525 101.494C31.9451 101.162 30.4304 102.955 29.3694 105.497C28.3084 108.04 28.1028 110.37 28.9102 110.701C29.7176 111.033 31.2322 109.241 32.2932 106.698Z" stroke="#B3B3B3" stroke-linecap="round" stroke-linejoin="round"/>
    <path d="M141.437 67.6688C140.05 77.3938 130.6 85.09 120.797 83.7139C110.994 82.3379 104.31 72.3767 105.697 62.6517C107.084 52.9267 116.155 46.158 125.957 47.5341C135.76 48.9101 142.824 57.9438 141.437 67.6688V67.6688Z" stroke="#B3B3B3" stroke-linecap="round" stroke-linejoin="round"/>
    <path d="M127.264 47.7344C138.897 49.1555 145.778 58.6311 144.455 68.1743C143.26 76.798 135.603 86.6835 121.323 83.9103" stroke="#B3B3B3" stroke-linecap="round" stroke-linejoin="round"/>
    <path d="M131.727 63.7399C132.102 60.3761 129.984 57.7223 126.833 56.7072L127.359 54.1966L124.333 53.573L123.78 56.2189C120.888 56.2122 118.168 57.5325 117.472 60.5778C115.864 67.2191 126.259 66.7135 126.114 70.9132C125.004 74.2889 118.339 72.3131 119.155 68.8074C117.164 68.3655 115.678 68.0909 115.403 68.0404C115.162 67.9967 114.951 69.5399 115.494 71.5674C116.299 73.4052 118.106 74.7799 120.201 75.5256L119.802 77.4324L122.827 78.0561L123.227 76.1413C125.232 76.2581 127.2 75.7936 128.593 74.6233C131.093 72.3755 130.743 68.0829 127.839 66.269C126.083 64.5865 119.161 63.2237 122.246 60.2275C123.911 58.61 127.858 60.0882 127.881 62.7712C127.881 62.8336 131.678 64.1526 131.724 63.7399H131.727Z" stroke="#B3B3B3" stroke-linecap="round" stroke-linejoin="round"/>
    <path d="M112.649 49.6332L64.5273 47.8047C63.5175 47.7663 62.6307 48.4669 62.4434 49.4528L58.9124 67.8944L55.3587 85.5915C55.3587 85.5915 54.5121 88.6806 55.3587 89.3679C56.2053 90.0566 58.7038 90.1163 61.3975 90.2994C64.0912 90.4826 112.586 92.262 112.586 92.262C113.616 92.331 114.536 91.6264 114.729 90.6206L116.097 83.5056" stroke="#B3B3B3" stroke-linecap="round" stroke-linejoin="round"/>
    <path d="M105.956 59.0465L93.9989 58.2438C93.5053 58.2106 93.1509 57.7568 93.2432 57.2738L93.8277 53.8782C93.9039 53.4801 94.2623 53.1961 94.6703 53.2121L108.63 54.0334" stroke="#B3B3B3" stroke-linecap="round" stroke-linejoin="round"/>
    <path d="M72.6738 67.8346L64.4415 67.2826C64.2087 67.2666 64.0415 67.053 64.0843 66.8248L65.4192 59.8107C65.4553 59.6222 65.6238 59.4882 65.8177 59.4962L74.1223 59.7443C74.3604 59.7536 74.5356 59.9712 74.4901 60.2034L73.083 67.5214C73.0456 67.7138 72.8704 67.8478 72.6738 67.8346V67.8346Z" stroke="#B3B3B3" stroke-linecap="round" stroke-linejoin="round"/>
    <path d="M135.527 49.0958L139.157 30.1341C139.391 28.916 138.477 27.7775 137.229 27.731L81.5881 25.6172C80.5783 25.5788 79.6915 26.2794 79.5043 27.2653L75.9733 45.7068L75.6362 47.3854" stroke="#B3B3B3" stroke-linecap="round" stroke-linejoin="round"/>
    <path d="M133.412 37.5557L111.06 36.0563C110.566 36.0231 110.212 35.5693 110.304 35.0863L110.889 31.6907C110.965 31.2926 111.323 31.0086 111.731 31.0246L134.236 31.8791C134.742 31.8977 135.111 32.3594 135.016 32.8517L134.279 36.8922C134.2 37.2996 133.828 37.5835 133.412 37.5557V37.5557Z" stroke="#B3B3B3" stroke-linecap="round" stroke-linejoin="round"/>
    <path d="M89.7348 45.6458L81.5025 45.0939C81.2698 45.0779 81.1026 44.8643 81.1454 44.6361L82.4802 37.6219C82.5163 37.4335 82.6848 37.2995 82.8788 37.3075L91.1833 37.5556C91.4214 37.5649 91.5966 37.7825 91.5511 38.0147L90.1441 45.3327C90.1066 45.5251 89.9314 45.6591 89.7348 45.6458V45.6458Z" stroke="#B3B3B3" stroke-linecap="round" stroke-linejoin="round"/>
    <path d="M81.4625 8.88484C83.854 8.17361 114.368 6.67949 127.047 8.21209C127.047 8.21209 126.172 9.3612 124.498 10.4201C123.912 10.7903 140.715 10.0618 140.678 9.17676C140.561 6.46851 129.615 1.48459 128.687 1.10376L128.889 4.29766C128.889 4.29766 114.872 -1.41872 80.129 2.73057C80.0354 2.74118 80.0153 2.88051 80.0354 2.97074L81.179 8.7548C81.2057 8.88218 81.3381 8.92066 81.4638 8.88351L81.4625 8.88484Z" stroke="#B3B3B3" stroke-linecap="round" stroke-linejoin="round"/>
    <path d="M46.9391 103.772C49.2543 104.697 79.6142 109.138 92.382 108.764C92.382 108.764 91.6169 107.54 90.0467 106.334C89.497 105.912 106.162 108.164 106.043 109.042C105.677 111.728 94.3173 115.697 93.3583 115.991L93.8546 112.829C93.8546 112.829 79.3681 117.125 45.1548 109.836C45.0626 109.816 45.0559 109.677 45.084 109.588L46.6448 103.875C46.6836 103.752 46.8187 103.724 46.9404 103.773L46.9391 103.772Z" stroke="#B3B3B3" stroke-linecap="round" stroke-linejoin="round"/>
    <path d="M36.9182 69.1577H27.224C26.147 69.1577 25.2739 70.0239 25.2739 71.0924V80.7099C25.2739 81.7784 26.147 82.6446 27.224 82.6446H36.9182C37.9952 82.6446 38.8683 81.7784 38.8683 80.7099V71.0924C38.8683 70.0239 37.9952 69.1577 36.9182 69.1577Z" stroke="#B3B3B3" stroke-linecap="round" stroke-linejoin="round"/>
    <path d="M26.9434 68.7662C28.1297 67.9608 29.6505 67.2522 30.2684 67.2522H39.9612C41.0379 67.2522 41.9113 68.1187 41.9113 69.1869V79.4997C41.9113 80.4524 40.3184 81.5432 38.9554 82.1482" stroke="#B3B3B3" stroke-linecap="round" stroke-linejoin="round"/>
    <path d="M144.409 94.5723H134.715C133.638 94.5723 132.765 95.4384 132.765 96.5069V106.124C132.765 107.193 133.638 108.059 134.715 108.059H144.409C145.486 108.059 146.359 107.193 146.359 106.124V96.5069C146.359 95.4384 145.486 94.5723 144.409 94.5723Z" stroke="#B3B3B3" stroke-linecap="round" stroke-linejoin="round"/>
    <path d="M134.435 94.1808C135.621 93.3753 137.142 92.6667 137.76 92.6667H147.452C148.529 92.6667 149.403 93.5332 149.403 94.6014V104.914C149.403 105.867 147.81 106.958 146.447 107.563" stroke="#B3B3B3" stroke-linecap="round" stroke-linejoin="round"/>
    <path d="M156.464 12.7236H146.77C145.693 12.7236 144.82 13.5898 144.82 14.6583V24.2758C144.82 25.3443 145.693 26.2105 146.77 26.2105H156.464C157.541 26.2105 158.414 25.3443 158.414 24.2758V14.6583C158.414 13.5898 157.541 12.7236 156.464 12.7236Z" stroke="#B3B3B3" stroke-linecap="round" stroke-linejoin="round"/>
    <path d="M146.489 12.3321C147.676 11.5267 149.196 10.8181 149.814 10.8181H159.507C160.584 10.8181 161.457 11.6846 161.457 12.7528V23.0656C161.457 24.0183 159.864 25.1091 158.501 25.7142" stroke="#B3B3B3" stroke-linecap="round" stroke-linejoin="round"/>
    <path d="M53.4939 11.4778H43.7997C42.7227 11.4778 41.8496 12.344 41.8496 13.4124V23.03C41.8496 24.0985 42.7227 24.9646 43.7997 24.9646H53.4939C54.5709 24.9646 55.444 24.0985 55.444 23.03V13.4124C55.444 12.344 54.5709 11.4778 53.4939 11.4778Z" stroke="#B3B3B3" stroke-linecap="round" stroke-linejoin="round"/>
    <path d="M43.519 11.0863C44.7054 10.2808 46.2261 9.57227 46.8441 9.57227H56.5369C57.6136 9.57227 58.487 10.4387 58.487 11.5069V21.8198C58.487 22.7725 56.894 23.8632 55.5311 24.4683" stroke="#B3B3B3" stroke-linecap="round" stroke-linejoin="round"/>
    <path d="M60.5601 16.1764C60.5601 16.1764 122.865 13.4787 143.353 17.705" stroke="#B3B3B3" stroke-linecap="round" stroke-linejoin="round"/>
    <path d="M156.122 28.1689C156.122 28.1689 156.938 44.6759 138.102 44.6759" stroke="#B3B3B3" stroke-linecap="round" stroke-linejoin="round"/>
    <path d="M74.6241 44.116C74.6241 44.116 50.8286 44.8153 41.8807 51.0677C32.9328 57.3215 31.812 65.6148 31.812 65.6148" stroke="#B3B3B3" stroke-linecap="round" stroke-linejoin="round"/>
    <path d="M33.0596 84.1055C33.0596 84.1055 36.7939 95.8965 47.312 98.35C58.6138 100.987 131.007 101.547 131.007 101.547" stroke="#B3B3B3" stroke-linecap="round" stroke-linejoin="round"/>
    <path d="M149.5 83.1726C149.003 82.9988 148.959 82.0235 149.328 80.9885C149.698 79.9535 150.349 79.2224 150.845 79.3962" stroke="#B3B3B3" stroke-linecap="round" stroke-linejoin="round"/>
    <path d="M181.254 92.5653C181.623 91.5303 181.52 90.5501 181.023 90.3758C180.527 90.2016 179.825 90.8993 179.456 91.9343C179.087 92.9692 179.191 93.9495 179.687 94.1237C180.184 94.298 180.885 93.6002 181.254 92.5653Z" stroke="#B3B3B3" stroke-linecap="round" stroke-linejoin="round"/>
    <path d="M179.734 94.1529L149.555 83.1925" stroke="#B3B3B3" stroke-linecap="round" stroke-linejoin="round"/>
    <path d="M180.915 90.3181L150.736 79.3577" stroke="#B3B3B3" stroke-linecap="round" stroke-linejoin="round"/>
    <path d="M21.644 20.8817C24.4418 18.9946 26.1931 16.7107 25.5556 15.7804C24.9181 14.8502 22.1332 15.6258 19.3354 17.5129C16.5376 19.3999 14.7863 21.6838 15.4238 22.6141C16.0613 23.5444 18.8462 22.7688 21.644 20.8817Z" stroke="#B3B3B3" stroke-linecap="round" stroke-linejoin="round"/>
    <path d="M15.9263 22.9873L30.7163 34.0458C30.7163 34.0458 31.5683 34.2714 31.2513 33.044C30.9344 31.8179 25.9923 16.4734 25.9923 16.4734" stroke="#B3B3B3" stroke-linecap="round" stroke-linejoin="round"/>
    <path d="M25.1364 93.4907C24.0183 91.8998 22.4908 91.3146 21.798 91.4964C18.5305 92.3509 20.7173 96.7762 21.1212 97.5365C21.4891 98.2305 25.1311 103.017 28.9764 100.811C32.823 98.606 31.1792 93.439 30.2403 91.4194C29.3001 89.3998 27.3032 88.4564 25.6179 89.6971C23.9327 90.9377 25.3625 94.2949 26.3295 95.9071C27.2951 97.5193 28.6032 96.3781 28.6032 96.3781C28.6032 96.3781 29.2439 96.0106 28.1525 94.4302C27.0611 92.8498 27.0062 91.1315 27.2577 91.0664C27.5091 91.0014 29.4606 93.289 29.3696 95.9774C29.3696 95.9774 29.4057 99.3478 26.9527 99.3664C26.0325 99.373 25.2675 99.0797 24.6389 98.6458C23.5903 97.9213 22.9188 96.8054 22.535 96.0344C22.2447 95.4506 21.7873 94.2312 22.2488 93.4443" stroke="#B3B3B3" stroke-linecap="round" stroke-linejoin="round"/>
    <path d="M26.438 99.3438C26.438 99.3438 26.8647 97.94 26.3203 95.8673" stroke="#B3B3B3" stroke-linecap="round" stroke-linejoin="round"/>
    <path d="M22.1475 93.6619C22.1475 93.6619 23.5786 93.8954 24.2072 96.2626C24.8372 98.6299 24.6392 98.6458 24.6392 98.6458" stroke="#B3B3B3" stroke-linecap="round" stroke-linejoin="round"/>
    <path d="M25.7773 101.241C25.7773 101.241 25.2102 103.063 22.9164 103.53C20.6226 103.997 17.3885 102.445 16.257 100.209C15.1255 97.9731 14.7135 95.4161 16.4322 94.3002C16.4322 94.3002 18.7996 93.2599 20.3832 95.854" stroke="#B3B3B3" stroke-linecap="round" stroke-linejoin="round"/>
    <path d="M23.937 100.392C23.937 100.392 23.4903 101.647 21.7582 101.702C20.0261 101.755 18.1082 99.5919 17.7176 98.6286C17.3271 97.6652 16.8041 96.203 17.3993 95.9137" stroke="#B3B3B3" stroke-linecap="round" stroke-linejoin="round"/>
    <path d="M21.3433 97.8776C21.3433 97.8776 21.9558 99.9157 21.7592 101.7" stroke="#B3B3B3" stroke-linecap="round" stroke-linejoin="round"/>
    <path d="M19.7172 100.931C19.7172 100.931 19.9446 99.4844 19.5313 98.46C19.118 97.4356 18.1149 95.9203 17.1934 96.1366" stroke="#B3B3B3" stroke-linecap="round" stroke-linejoin="round"/>
    <path d="M21.0294 103.514C21.0294 103.514 20.4221 105.563 17.5291 105.896C14.6348 106.229 12.234 103.261 11.4596 101.864C10.6851 100.468 9.86391 97.8841 11.707 96.735C13.5501 95.5859 15.4092 97.8894 15.4092 97.8894" stroke="#B3B3B3" stroke-linecap="round" stroke-linejoin="round"/>
    <path d="M19.2662 102.937C19.2662 102.937 18.0116 104.28 16.7169 103.954C15.4209 103.626 13.5003 102.482 12.9318 100.588C12.9318 100.588 12.3045 98.9776 13.0174 98.1244" stroke="#B3B3B3" stroke-linecap="round" stroke-linejoin="round"/>
    <path d="M15.1615 103.282C15.1615 103.282 15.334 101.784 14.9435 100.819C14.5529 99.8559 13.9216 98.3525 12.8423 98.403" stroke="#B3B3B3" stroke-linecap="round" stroke-linejoin="round"/>
    <path d="M17.165 103.944C17.165 103.944 17.3562 101.913 16.9028 101.168" stroke="#B3B3B3" stroke-linecap="round" stroke-linejoin="round"/>
    <path d="M16.3278 105.953C16.3278 105.953 15.0719 108.38 12.1695 108.074C9.26716 107.767 8.07679 105.814 8.07679 105.814C8.07679 105.814 7.09506 104.528 7.824 104.042C8.5516 103.557 9.12806 104.206 10.0202 105.038C10.9136 105.87 12.1067 106.372 13.1165 106.1C14.1263 105.828 14.5021 105.109 14.5021 105.109" stroke="#B3B3B3" stroke-linecap="round" stroke-linejoin="round"/>
</svg>
