<svg viewBox="0 0 24 24" fill="none" xmlns="http://www.w3.org/2000/svg">
<path d="M5.4 22.0512C7.36 23.3504 9.56 24 12 24C15.32 24 18.1504 22.8304 20.4912 20.4912C22.8304 18.1504 24 15.32 24 12C24 8.68 22.8304 5.8504 20.4912 3.5112C18.1504 1.1704 15.32 0 12 0C10.36 0 8.82 0.3096 7.38 0.9288C5.94 1.5496 4.68 2.38 3.6 3.42V1.8C3.6 1.28 3.4304 0.8496 3.0912 0.5088C2.7504 0.1696 2.32 0 1.8 0C1.28 0 0.850401 0.1696 0.511201 0.5088C0.170401 0.8496 0 1.28 0 1.8V7.2C0 7.88 0.2304 8.4496 0.6912 8.9088C1.1504 9.3696 1.72 9.6 2.4 9.6H7.8C8.32 9.6 8.7504 9.4304 9.0912 9.0912C9.4304 8.7504 9.6 8.32 9.6 7.8C9.6 7.28 9.4304 6.8496 9.0912 6.5088C8.7504 6.1696 8.32 6 7.8 6H6.12C6.88 5.24 7.76 4.6496 8.76 4.2288C9.76 3.8096 10.84 3.6 12 3.6C14.32 3.6 16.3 4.42 17.94 6.06C19.58 7.7 20.4 9.68 20.4 12C20.4 14.32 19.58 16.3 17.94 17.94C16.3 19.58 14.32 20.4 12 20.4C10.28 20.4 8.7496 19.94 7.4088 19.02C6.0696 18.1 5.06 16.92 4.38 15.48C4.22 15.16 3.9904 14.9 3.6912 14.7C3.3904 14.5 3.08 14.4 2.76 14.4C2 14.4 1.4504 14.6696 1.1112 15.2088C0.770401 15.7496 0.76 16.36 1.08 17.04C2 19.08 3.44 20.7504 5.4 22.0512Z" fill="#1D5BF6"/>
</svg>
