<svg width="1600" height="1040" viewBox="0 0 1600 1040" fill="none" xmlns="http://www.w3.org/2000/svg">
<g clip-path="url(#clip0_1128_1508)">
<path d="M888.001 880.47C908.561 895.71 928.931 910.82 949.291 926.16L948.281 926.58L958.241 849.98L959.001 850.55C935.351 860.65 911.771 870.54 888.001 880.46C888.001 880.46 911.771 870.54 888.001 880.46V880.47ZM886.711 880.31C910.561 870.01 934.601 859.67 958.581 849.55C958.951 849.38 959.401 849.72 959.341 850.12L949.551 926.74C949.501 927.21 948.911 927.46 948.541 927.16C927.861 911.65 907.201 895.91 886.721 880.3L886.711 880.31Z" fill="white"/>
<path d="M952.461 887.62C942.561 880.31 932.841 873.03 923.091 865.51L923.941 865.16C923.911 866.76 923.601 868.33 923.421 869.91C922.281 878.47 920.151 894.37 918.961 903.07L917.941 902.3C929.391 897.27 940.811 892.49 952.461 887.62ZM953.941 887.8C942.281 893.1 930.391 898.5 918.531 903.65C918.021 903.89 917.421 903.43 917.511 902.88C918.731 894.11 920.901 878.35 922.121 869.74C922.371 868.15 922.491 866.53 922.911 864.96C922.981 864.68 923.271 864.5 923.561 864.58C933.781 872.08 943.921 880.03 953.951 887.81L953.941 887.8Z" fill="white"/>
<path d="M922.401 863.98L913.361 845.09C913.181 844.71 913.341 844.26 913.721 844.08C914.111 843.89 914.581 844.08 914.741 844.47L922.891 863.76C923.031 864.07 922.541 864.3 922.401 863.98Z" fill="white"/>
<path d="M917.73 904.59L905.43 921.81C905.17 922.17 904.68 922.25 904.32 922C903.95 921.74 903.88 921.21 904.16 920.86L917.26 904.25C917.48 903.96 917.95 904.3 917.73 904.6V904.59Z" fill="white"/>
<path d="M953.931 888.02L975.501 890.45C976.041 890.51 976.441 891 976.371 891.55C976.311 892.12 975.771 892.52 975.211 892.41L953.851 888.56C953.521 888.51 953.591 887.98 953.931 888.02Z" fill="white"/>
<path d="M958.41 850.7L913.55 844.67L914.6 844.79L887.34 880.7L887.43 879.96L904.73 921.67L904.35 921.39L949.77 925.28L948.57 925.78L977.13 891.15L977.05 891.8L958.4 850.71L958.41 850.7ZM959.37 849.41L978.21 891.27C978.31 891.49 978.27 891.74 978.13 891.92L950.7 927.45C950.41 927.83 949.94 928 949.5 927.95L904.26 922.29C904.09 922.27 903.94 922.16 903.88 922.01L886.05 880.52C885.94 880.27 885.98 879.98 886.14 879.78L912.66 843.32C912.66 843.32 912.68 843.3 912.7 843.3L913.72 843.43L959.37 849.39V849.41Z" fill="white"/>
<path d="M1303.23 826.43C1292.02 821.54 1285.19 806.35 1278.49 796.65C1275.23 791.89 1271.99 786.79 1266.83 784.04C1260.69 780.9 1255.17 785.98 1250.92 790.28C1241.68 799.41 1233.33 809.77 1221.89 816.51C1212.65 822.04 1201.99 822.19 1192.99 816.1C1190.14 814.24 1187.55 812.08 1185.16 809.73C1180.9 804.21 1177.25 798.31 1173.56 792.5C1168.83 785.61 1162.04 772.38 1152.38 773.47C1142.88 775.44 1136.37 786.46 1131.01 793.88C1126.97 799.58 1121.63 804.53 1115.15 807.4C1102.01 813.52 1086.36 808.17 1076.65 798.26C1071.66 793.38 1067.76 787.46 1065.01 781.08C1061.18 774.77 1056.84 766.43 1049 764.09L1048.08 763.82C1047.77 763.74 1047.45 763.7 1047.13 763.64L1046.17 763.47C1041.06 762.93 1037.29 757.78 1038.1 752.74C1039.05 745.81 1045.53 743.65 1051.71 744.72C1065.88 746.3 1074.54 761.83 1081.5 772.62C1085.85 779.17 1089.61 786.86 1096.45 790.88C1101.16 793.46 1106.15 790.74 1109.77 787.36C1122.57 776.1 1137.15 753.94 1155.73 754.36C1162.1 754.52 1168.05 757.49 1173.02 761.29C1176.95 764.16 1180.34 767.79 1183.01 771.82C1189.12 780.8 1192.95 791.4 1201.44 798.49C1208.79 803.09 1215.31 800.97 1221.23 794.4C1227.94 787.36 1232.48 777.57 1240.6 771.46C1253.38 761.67 1267.3 760.32 1280.24 770.72C1291.31 779.73 1298.5 792.11 1305.39 804.31C1305.9 805.16 1306.32 805.92 1307 806.6C1310.44 810.27 1315.84 810.54 1320.11 813.01C1325.96 815.83 1327.47 825.91 1321.18 829.09C1315.13 831.76 1308.77 828.5 1303.23 826.41V826.43ZM1303.68 825.34C1307.32 826.88 1311.24 827.76 1315.02 828.11C1316.85 828.29 1318.74 828.19 1320.41 827.49C1325.75 825.03 1324.51 816.41 1319.46 814.17C1315.35 811.92 1309.45 811.45 1305.91 807.64C1305.19 806.93 1304.55 805.93 1304.06 805.08C1297.22 793.21 1289.83 780.9 1279.01 772.31C1266.68 762.67 1253.95 764.05 1241.96 773.33C1230.64 781.25 1222.89 806.37 1206.05 802.57C1203.98 802.03 1202.09 801.08 1200.33 799.99C1198.16 798.14 1196.26 796 1194.55 793.76C1187.21 783.97 1183.58 771.41 1173.76 763.68C1172.29 762.52 1170.42 761.17 1168.83 760.16C1147.26 746.52 1130.94 769.31 1117.34 783.37C1111.76 789.26 1104.2 797.98 1095.21 793.39C1087.64 789.2 1083.47 781.09 1078.88 774.29C1072.44 764.32 1066 753.31 1054.99 748.1C1051.63 746.5 1047.27 745.43 1043.88 747.13C1039.29 749.3 1038.63 756.28 1042.46 759.48C1044.41 761.3 1047.28 761.23 1049.65 762.09C1055.15 763.9 1058.99 768.7 1061.84 773.46C1063.29 775.84 1064.64 778.25 1066 780.64C1071.29 793.04 1081.51 804.12 1094.8 807.63C1108.54 811.51 1121.99 804.33 1129.62 792.88C1135.2 784.99 1141.89 773.67 1152.12 771.6C1162.99 770.32 1170.04 783.75 1175.32 791.36C1178.89 796.96 1183.16 803.52 1186.83 808.22C1204.95 825.57 1219.58 817.44 1234.9 801.68C1239.42 797.12 1243.8 792.37 1248.4 787.73C1254.9 780.8 1263.12 775.86 1271.64 783.32C1283.86 794.26 1288.82 817.98 1303.69 825.32L1303.68 825.34Z" fill="white"/>
<path d="M420.781 373.97C401.571 378.09 381.771 381.21 362.091 379.33C341.371 377.13 338.851 367.17 356.871 356.18C373.851 346.09 393.051 340.42 412.161 335.92C431.341 331.76 451.111 328.62 470.781 330.42C491.471 332.56 493.901 342.42 476.031 353.46C459.091 363.65 439.891 369.4 420.791 373.98L420.781 373.97ZM420.541 372.92C439.571 368.47 458.721 362.83 475.631 352.84C492.901 342.29 491.051 333.16 470.701 330.98C451.121 329.17 431.381 332.29 412.261 336.41C393.231 340.95 374.091 346.66 357.221 356.75C340.091 367.33 341.861 376.38 362.181 378.49C381.741 380.22 401.451 377.08 420.541 372.92Z" fill="white"/>
<path d="M419.16 368.36C402.52 371.96 368.88 378.44 353.25 372.88C343.42 368.07 357.98 360.3 362.59 357.96C378.55 350.15 395.79 345.36 413.04 341.34C430.33 337.55 447.96 334.45 465.72 334.63C474.14 334.61 490.44 337.05 477.2 346.97C469.91 352.1 461.52 355.38 453.24 358.49C442.11 362.52 430.69 365.7 419.17 368.36H419.16ZM418.97 367.51C430.48 364.91 441.88 361.79 453 357.83C461.26 354.78 469.63 351.58 476.89 346.53C489.74 337.18 473.6 335.12 465.71 335.08C447.99 334.89 430.39 337.96 413.13 341.74C395.94 345.79 378.73 350.62 362.84 358.44C358.75 360.56 344.38 368.13 353.5 372.31C368.9 377.67 402.54 371.11 418.97 367.51Z" fill="white"/>
<path d="M698.789 839.7C551.819 768.79 519.179 599.01 531.509 450.23C536.079 394.17 545.459 338.35 561.679 284.43C563.169 279.89 564.479 275.45 566.519 271.04C566.729 270.67 566.929 270.2 567.279 269.82C567.399 269.72 567.519 269.48 568.139 269.31L568.569 269.22L570.289 268.88L573.729 268.19C653.819 251.69 733.149 230.26 809.939 202.1C813.909 200.4 818.439 198.92 822.039 196.71C822.039 196.71 822.519 196.48 822.529 196.48C823.569 195.98 824.769 196.24 825.519 197.03C828.969 200.8 833.189 204.11 837.119 207.44C849.489 217.65 862.349 227.26 875.089 237.02C900.799 256.15 925.799 276.42 952.539 294.11C979.479 311.57 1008.32 325.85 1035.92 342.24C1036.51 342.58 1036.82 343.23 1036.74 343.87C1028.34 427.16 1011.45 510.39 979.269 588C937.599 689.84 863.479 784.94 758.119 824.98C740.769 831.54 722.799 836.71 704.389 839.21L701.849 839.51C700.929 839.55 699.939 839.78 698.759 839.71L698.789 839.7ZM699.549 835.92C778.829 824.88 848.829 775.64 898.979 714.81C949.969 652.85 982.449 577.76 1003.84 500.92C1017.99 449.42 1027.33 396.63 1033.42 343.51C1033.42 343.51 1034.26 345.16 1034.23 345.13C997.469 323.26 958.439 304.57 924.429 278.3C898.649 259.13 872.869 239.95 847.389 220.38C839.889 214.52 828.789 206.56 821.739 200.24L825.209 200.56C823.799 201.56 822.709 201.99 821.579 202.54C805.269 209.34 788.349 214.49 771.549 219.88C708.889 239.29 645.429 256.24 581.129 269.32C578.489 269.89 571.799 271.12 569.059 271.69L568.629 271.77C569.109 271.64 569.119 271.5 569.139 271.51C569.039 271.65 568.889 271.91 568.769 272.16C560.249 293.8 555.289 316.79 550.149 339.47C513.069 512.22 517.999 747.61 699.549 835.92Z" fill="white"/>
<path d="M705.238 795.1C579.208 733.94 552.709 587.71 563.269 460.29C567.219 412.28 575.269 364.53 588.949 318.3C590.329 313.95 591.629 309.54 593.569 305.29C593.719 304.96 594.029 304.43 594.329 304.07C594.399 303.93 595.089 303.45 595.459 303.41C597.329 303.08 602.659 301.95 604.649 301.59C659.489 290.3 713.618 275.6 766.998 258.73C778.418 255.07 789.828 251.33 801.058 247.13C804.688 245.66 808.579 244.43 811.899 242.4C812.179 242.22 812.538 242.27 812.758 242.5C819.279 248.71 826.719 254.09 833.769 259.71C855.339 276.44 877.179 292.83 899.009 309.22C906.269 314.7 913.629 319.98 921.249 324.91C944.159 339.77 968.599 351.93 992.059 365.97C992.599 366.29 992.879 366.9 992.819 367.49C990.329 390.33 987.108 413.1 983.048 435.73C969.868 509.13 947.469 581.85 908.618 645.98C867.208 714.6 802.639 773.49 723.149 792.24C718.199 793.38 713.148 794.3 708.098 794.92C707.268 795.03 706.158 795.15 705.258 795.11L705.238 795.1ZM706.128 790.71C728.298 787.94 750.099 780.74 770.399 771.2C830.079 743.16 877.158 693.27 910.168 636.88C946.298 575.03 967.389 505.42 980.069 435.19C984.118 412.64 987.238 389.93 989.678 367.15L990.439 368.66C967.159 354.46 942.699 342.03 919.899 326.95C897.249 311.62 876.138 294.22 854.348 277.71C843.558 269.34 832.768 260.96 822.168 252.35C818.598 249.41 815.059 246.65 811.779 243.32C811.779 243.32 812.678 243.4 812.668 243.4C805.658 247.48 797.849 249.81 790.339 252.76C729.939 274.27 668.058 291.63 605.368 305.07C603.658 305.47 597.948 306.56 596.158 306.96C596.428 306.99 596.998 306.57 596.988 306.52C596.998 306.52 597.009 306.51 597.019 306.49C596.989 306.53 596.878 306.72 596.798 306.91C589.478 325.84 585.208 345.97 580.798 365.8C550.158 513.04 552.669 713.64 706.139 790.71H706.128Z" fill="white"/>
<path d="M824.45 196.67L876.49 212.35C892.89 225.05 909.12 238.17 925.78 250.6C958.6 275.43 992.01 299.55 1026.52 321.99C1039.5 330.33 1052.69 338.33 1066.23 345.72C1070.76 348.18 1075.28 350.64 1080.34 351.92C1080.94 352.07 1081.37 352.56 1081.49 353.13L1081.7 354.2C1080.59 381.24 1077.43 407.96 1073.31 434.64C1045.03 619.19 950.93 818.45 749.12 853.87L698.59 839.81C697.48 839.5 696.83 838.35 697.14 837.24C697.45 836.13 698.6 835.48 699.71 835.79C699.75 835.81 749.89 851.06 749.93 851.09L749.25 851.06C976.62 809.08 1065.67 559.67 1076.72 354.09L1078.08 356.37C1074.06 352.94 1069.51 350.54 1064.99 347.94C998.65 308.25 936.58 261.91 874.88 215.46L875.47 215.77L823.33 200.43C822.29 200.12 821.7 199.04 822 198C822.31 196.96 823.4 196.36 824.44 196.68L824.45 196.67Z" fill="white"/>
<path d="M1035.43 342.25L1079.59 352.53C1081.7 353.05 1080.98 356.23 1078.84 355.76L1034.75 345.13C1032.89 344.65 1033.52 341.83 1035.43 342.24V342.25Z" fill="white"/>
<path d="M538.31 68.99C551.75 63.85 572.41 57.44 586.53 61.65C592.35 63.52 594.44 68.67 591.56 74.1C588.15 80.53 582.28 85.13 576.56 89.31C568.83 94.74 560.39 99.04 551.65 102.59C538.49 107.65 524.47 111.68 510.19 110.93C495.9 110.02 492.2 101.19 502.31 90.77C512.34 80.7 525.31 74.25 538.31 69V68.99ZM538.93 70.55C525.89 76.03 507.28 85.2 500.13 97.71C494.06 110.66 516.87 108.4 523.95 107.08C537.52 104.66 550.67 99.91 563.01 93.81C571.14 89.7 579.23 84.95 585.64 78.44C594.32 69.42 591.84 63.02 579.3 62.18C565.46 61.5 551.77 65.63 538.93 70.55Z" fill="white"/>
<path d="M502.33 107.08L591.72 199.93L591.41 199.7C592.2 199.96 593.38 200.06 594.03 199.53C595.49 198.17 595.37 195.23 595.34 193.12L595.26 188.99L594.93 172.46C594.6 155.99 593.94 122.81 593.61 106.34L593.1 73.28C593.1 72.97 593.34 72.72 593.65 72.72C593.95 72.72 594.2 72.95 594.21 73.25L595.51 106.29C596.07 122.77 597.23 155.9 597.8 172.37C597.9 175.33 598.42 190.37 598.51 193.02C598.99 198.18 596.83 204.97 590.33 201.79C589.97 201.87 501.12 108.62 500.82 108.53C500.42 108.11 500.43 107.44 500.85 107.04C501.27 106.64 501.93 106.65 502.34 107.07L502.33 107.08Z" fill="white"/>
<path d="M444.551 235.69C439.441 245.55 428.791 257.7 416.951 258.25C412.441 257.92 407.911 256.39 404.341 253.56C390.871 242.09 397.111 217.22 402.241 202.77C409.951 186.59 424.121 169.7 441.061 162.91C457.981 155.98 478.371 163.2 488.921 177.73C502.041 196.4 500.111 221.12 495.121 242.25C492.301 255.1 485.011 268.81 471.521 272.75C464.881 274.67 457.681 273.26 451.811 269.76C445.751 266.15 443.121 258.81 442.661 252.15C441.771 238.71 445.611 225.46 450.451 213.08C454.101 202.86 462.551 198.53 472.291 204.46C474.371 205.55 475.091 208.79 474.871 211.21C474.481 218.48 469.981 224.45 467.861 231.19C466.411 235.58 465.471 240.15 465.201 244.75C465.101 247.81 464.961 251 466.111 253.83C466.201 254 466.351 254.2 466.351 254.17C466.361 254.19 466.321 254.15 466.291 254.15C466.261 254.16 466.211 254.13 466.161 254.13C466.121 254.13 466.061 254.18 466.121 254.13C468.491 252.19 469.921 249.25 471.441 246.58C478.941 232.29 481.701 215.05 476.711 199.5C474.081 191.03 468.671 181.89 459.241 180.36C445.181 178.7 432.181 188.2 425.221 199.85C420.481 207.73 416.661 216.61 415.751 225.81C415.561 228.1 415.551 230.41 415.891 232.65C416.271 234.9 416.971 237.01 418.001 239.1C418.051 239.2 418.011 239.32 417.911 239.37C417.831 239.41 417.741 239.39 417.681 239.34C415.861 237.68 414.941 235.24 414.531 232.88C413.331 225.75 415.351 218.49 417.831 211.89C423.431 196.48 434.981 181.28 452.221 178.92C476.821 174.92 483.751 208.95 479.931 227.25C478.121 236.58 474.841 245.78 469.191 253.52C468.361 254.46 467.261 256.17 465.791 255.88C464.171 255.25 463.991 253.29 463.661 251.86C462.421 242.31 464.831 232.61 468.851 224C471.081 219.27 475.611 211.42 472.801 206.37C472.501 205.92 472.091 205.51 471.691 205.32C469.891 204.23 467.811 203.44 465.711 203.14C461.431 202.45 457.371 204.53 455.001 208.08C453.731 209.82 452.911 211.77 452.071 213.77C448.771 221.88 446.201 230.35 444.861 239C443.461 249.08 443.031 262.24 452.581 268.43C467.481 277.45 482.691 268.88 489.601 254.33C493.321 246.44 494.991 237.59 496.381 229C498.721 211.95 498.221 192.89 487.841 178.46C477.641 164.41 457.851 157.34 441.441 164.07C424.811 170.75 410.961 187.31 403.331 203.21C398.161 217.59 391.331 245.13 407.721 254.35C410.481 255.89 413.751 256.75 416.911 257.01C424.531 256.67 430.971 251.25 435.981 245.88C438.891 242.63 441.371 238.99 443.381 235.11C443.761 234.39 444.841 234.96 444.471 235.68L444.551 235.69Z" fill="white"/>
<path d="M448.82 180.35C448.82 180.35 454.37 192.68 451.9 212.27" stroke="white" stroke-width="1.23" stroke-linecap="round" stroke-linejoin="round"/>
<path d="M416.501 236.79C420.341 234.94 423.391 231.42 425.501 227.74C431.061 218.03 431.071 206.37 432.671 195.5C432.841 193.45 433.201 191.37 432.941 189.34C433.051 189.43 433.171 189.5 433.371 189.49C433.031 189.51 432.741 189.25 432.721 188.91C432.681 188.39 433.331 188.08 433.721 188.38C434.101 188.62 434.241 189.09 434.371 189.48C435.651 196 434.681 202.75 434.061 209.29C432.911 220.47 428.481 233.89 416.851 237.98C416.091 238.17 415.741 237.07 416.491 236.8L416.501 236.79Z" fill="white"/>
<path d="M440.011 164.04C433.761 152.53 420.691 146.68 407.901 147.13C405.411 147.33 402.751 147.62 400.321 148.17C398.881 148.38 396.821 149.16 395.381 149.5C392.631 150.44 389.721 151.65 387.081 152.91C374.671 159.26 363.311 169.15 357.681 182.09C352.781 194.55 349.551 208.91 352.691 222.14C354.171 228.65 358.841 234.78 364.361 237.37C370.891 239.01 378.321 238.12 384.221 234.74C390.311 231.34 394.651 225.48 397.501 219.19C397.831 218.46 398.941 218.96 398.631 219.69C394.571 229.72 385.891 238.49 374.761 239.77C371.051 240.25 367.351 240.19 363.681 239.22C360.401 237.64 357.441 235.34 355.231 232.43C344.961 218.65 349.631 196.01 355.561 181.17C361.511 167.67 373.211 157.55 386.141 150.97C392.131 148.19 398.571 145.99 405.171 145.44L407.831 145.23C409.331 145.3 411.691 145.23 413.171 145.47C424.681 146.53 435.771 153.11 441.131 163.54C441.481 164.31 440.361 164.82 440.011 164.05V164.04Z" fill="white"/>
<path d="M424.341 174.01C417.421 163.7 402.031 163.01 392.491 170.15C383.581 176.38 373.931 188.52 371.171 199.14C369.701 205.07 368.041 211.18 368.571 217.29C368.841 219.23 369.271 221.16 371.001 222.24C371.091 222.3 371.131 222.42 371.071 222.51C363.491 221.94 368.131 203.44 369.161 198.64C371.031 190.28 376.071 183 381.531 176.56C387.851 169.45 396.261 162.75 406.331 162.96C413.921 162.93 421.861 166.5 425.461 173.46C425.801 174.19 424.751 174.72 424.361 174.02L424.341 174.01Z" fill="white"/>
<path d="M403.742 199.68C405.292 188.03 405.542 175.98 402.962 164.46C402.782 163.69 403.982 163.39 404.162 164.19C405.532 170.03 406.132 176.02 406.162 182.01C406.192 188 405.822 193.95 404.952 199.88C404.832 200.67 403.602 200.5 403.732 199.68H403.742Z" fill="white"/>
<path d="M386.55 173.62C389.25 182.52 390.28 192.47 386.81 201.3C384.37 207.84 381.26 214.59 375.64 219.05C373.73 220.49 371.25 221.54 368.72 221.21C368.38 221.17 368.14 220.86 368.19 220.52C368.23 220.19 368.53 219.96 368.85 219.98C370.97 220.15 373.02 219.19 374.69 217.81C379.79 213.4 382.67 206.9 384.96 200.65C386.49 196.35 387.33 192.01 387.12 187.45C387.03 182.93 386.37 178.37 385.38 173.96C385.17 173.22 386.33 172.85 386.56 173.62H386.55Z" fill="white"/>
<path d="M394.22 148.86C388.17 137.9 375.22 132.3 363.08 132.08C350.47 131.16 338.78 137.59 330.04 146.35C315.76 160.97 304.8 181.22 306.34 202.15C306.76 206.23 307.91 210.28 310.14 213.67C314.54 220.4 323.44 224.33 331.3 221.92C339.21 219.54 345.47 213.09 349.98 206.36C350.4 205.65 351.47 206.31 351.03 207C346.34 214.13 340.07 220.71 331.72 223.35C323.23 226.02 313.55 221.94 308.74 214.6C306.31 210.93 305.08 206.62 304.62 202.34C302.95 180.8 314.01 160.09 328.66 144.98C340.23 133.52 353.13 127.86 369.56 130.67C380.14 132.48 390.44 138.47 395.33 148.37C395.67 149.14 394.54 149.63 394.2 148.87L394.22 148.86Z" fill="white"/>
<path d="M379.09 156.45C373.61 152.47 367.08 149.26 360.3 149.59C355.04 149.93 350.36 153.06 346.03 155.89C338.59 161.15 332.14 168.06 328.49 176.47C325.07 184.92 322.23 199.72 328.73 207.19C328.95 207.41 328.59 207.79 328.36 207.57C321.99 201.99 322.28 192.36 323.75 184.69C326.33 169.24 338.81 155.9 353.12 149.5C359.05 146.52 366.09 147.61 371.86 150.42C374.73 151.8 377.41 153.47 379.88 155.51C380.14 155.73 380.18 156.11 379.96 156.38C379.74 156.65 379.35 156.68 379.09 156.46V156.45Z" fill="white"/>
<path d="M342.431 157.54C344.161 164.18 345.151 171.12 344.261 178C342.301 187.28 338.071 204.79 326.661 205.65C325.881 205.68 325.781 204.52 326.561 204.42C333.381 203.49 336.611 196.34 338.771 190.56C340.901 184.28 342.971 177.81 342.681 171.12C342.591 166.69 342.051 162.21 341.231 157.83C341.061 157.08 342.221 156.76 342.431 157.53V157.54Z" fill="white"/>
<path d="M359.821 149.12C360.911 153.36 361.621 157.67 361.981 162.03C362.241 166.44 362.511 170.99 360.721 175.19C360.581 175.5 360.211 175.63 359.901 175.49C359.601 175.35 359.461 175 359.591 174.69C361.481 168.65 360.321 161.96 359.621 155.76C359.321 153.63 358.991 151.49 358.621 149.38C358.481 148.62 359.631 148.36 359.821 149.12Z" fill="white"/>
<path d="M348.731 132.23C339.621 120.86 324.121 114.83 309.831 118.52C295.771 121.68 282.341 130.45 275.641 143.4C274.001 146.47 272.511 150.06 272.401 153.54C272.351 155.65 273.061 157.48 274.831 158.37L275.971 158.87C280.281 160.53 283.991 156.84 286.711 153.8C289.181 151.06 291.381 148.08 293.951 145.23C301.511 136.89 313.551 130.44 324.821 134.78C328.441 136.12 331.751 138.27 334.181 141.41C334.651 142.05 333.721 142.8 333.211 142.16C331.001 139.37 327.721 137.3 324.351 136.14C313.601 132.25 302.511 138.67 295.421 146.57C293.001 149.29 290.791 152.36 288.281 155.19C285.671 158.09 282.661 161.32 278.361 161.5C273.681 161.52 269.791 158.41 270.071 153.51C270.131 149.63 271.911 145.36 273.471 142.45C283.391 122.89 310.861 109.25 331.951 117.59C339.091 120.46 345.311 125.3 349.731 131.54C350.171 132.22 349.201 132.9 348.721 132.24L348.731 132.23Z" fill="white"/>
<path d="M1116.99 708.79C1105.54 710.17 1093.75 710.52 1082.54 707.29C1070.9 703.93 1069.67 695.98 1080.38 689.88C1090.48 684.26 1101.95 681.84 1113.25 680.29C1124.57 678.96 1136.26 678.44 1147.42 681.29C1159.01 684.38 1160 692.03 1149.76 698.25C1139.82 704.29 1128.37 707.1 1116.99 708.79ZM1116.48 704.94C1127.4 703.44 1138.68 701.35 1148.46 696.1C1157.29 691.04 1156.68 686.04 1146.88 683.16C1136.08 680.17 1124.55 680.8 1113.49 682.13C1106.06 683.17 1098.7 684.78 1091.66 687.26C1086.7 688.95 1068.79 696.63 1078.48 702.48C1088.54 707.64 1105.35 706.23 1116.49 704.95L1116.48 704.94Z" fill="white"/>
<path d="M781.99 658.14C750.24 653.32 703.52 646.78 671.85 642.32C668.15 641.9 664.3 640.95 660.83 639.32C646.39 632.74 638.45 616.5 641.61 601.02C645.04 577.59 656.03 502.78 659.38 479.92C660.55 473.39 661.08 464.05 663.54 457.74C666.31 450.44 671.74 444.26 678.43 440.33C685.15 436.36 693.23 434.93 700.92 436.01L788.97 449.09L810.98 452.36C814.7 452.83 818.651 453.82 822.091 455.48C832.711 460.43 840.391 470.97 841.711 482.62C842.231 486.44 841.881 490.34 841.281 494.11C837.871 517.54 827.12 592.39 823.6 615.22C822.41 621.76 821.85 631.1 819.31 637.4C813.63 651.96 797.17 660.6 781.99 658.13V658.14ZM782.17 656.91C796.65 659.19 811.4 649.8 816.07 636.16C818.15 630.55 818.88 620.78 819.94 614.69L823.16 592.67C824.14 585.64 837.52 498.38 838.18 493.66C840.33 483.15 837.2 471.82 829.41 464.35C825.62 460.65 820.91 457.89 815.79 456.49C812.61 455.6 792.23 452.81 788.5 452.21L700.44 439.17C693.45 438.21 686.14 439.51 680.05 443.13C673.99 446.72 669.08 452.31 666.6 458.92C664.44 464.52 663.68 474.3 662.6 480.4C659.2 503.11 647.94 578.15 644.45 601.45C641.38 615.8 648.461 630.84 661.841 637.13C665.131 638.7 668.52 639.61 672.16 640.09C703.7 645.1 750.441 652.22 782.151 656.92L782.17 656.91Z" fill="white"/>
<path d="M666.301 642.01C675.001 647.95 684.701 652.98 695.211 654.51C716.361 657.29 745.001 660.82 766.251 663.69C776.941 665.08 787.851 666.56 798.551 668.02C808.781 669.52 819.841 669.16 829.171 664.42C838.561 659.82 844.181 650.23 845.961 640.16L847.241 633.78C855.391 591.44 863.491 548.11 871.041 505.57C871.541 502.51 871.421 499.36 870.661 496.35C868.871 489.44 866.081 481.87 859.771 478.06C855.961 475.89 846.451 471.16 842.441 469.06C834.701 465.12 826.871 461.31 819.071 457.48C818.331 457.12 818.031 456.23 818.391 455.5C818.751 454.77 819.641 454.47 820.371 454.82C831.201 460.44 850.421 470.21 860.921 475.97C869.521 480.74 875.131 496.6 873.441 505.95C866.631 545.83 858.851 594.98 851.461 634.57L850.241 640.99C848.301 652.32 841.761 663.18 831.231 668.39C821.031 673.6 809.251 674.16 798.131 672.6C787.411 671.18 776.491 669.77 765.791 668.29C744.441 665.34 715.861 661.52 694.621 658.41C683.571 656.55 673.401 650.71 665.451 642.96C665.201 642.71 665.201 642.3 665.451 642.06C665.681 641.83 666.041 641.82 666.291 642.01H666.301Z" fill="white"/>
<path d="M762.911 520.83C765.221 504.24 747.801 491.94 733.101 500.08C718.941 508.07 719.951 527.75 733.231 536.27C733.971 536.68 734.311 537.58 733.961 538.34L711.131 589.19L708.691 584.46L751.971 593.72L750.541 595.1C750.541 595.1 743.511 539.82 743.511 539.81C743.421 539.13 743.921 538.51 744.601 538.44C749.151 538 753.511 535.92 756.791 532.75C760.101 529.59 762.241 525.31 762.911 520.83ZM765.661 521.29C763.961 531.47 755.111 539.73 744.881 540.91L745.971 539.52L753.001 594.79C753.111 595.57 752.421 596.28 751.631 596.18C751.571 596.21 707.671 591 707.611 591.02C705.391 590.8 704.061 588.22 705.171 586.29L731.201 537L731.931 539.07C713.471 532.55 711.721 507.57 727.451 496.82C745.581 484.61 769.381 499.72 765.681 521.3L765.661 521.29Z" fill="white"/>
<path d="M726.822 438.91C732.452 411.18 745.292 361.27 776.902 354.01C781.872 352.94 787.042 353.2 791.912 354.34C795.372 354.5 801.292 356.8 804.522 359.88C815.292 369.55 814.702 385.6 812.492 398.66C811.032 407.44 809.442 416.21 807.712 424.95C806.002 433.69 804.152 442.41 802.062 451.08C801.612 452.75 799.062 452.21 799.452 450.44C803.662 433.21 807.012 415.75 809.902 398.23C811.312 389.7 812.022 380.73 809.402 372.43C807.042 364.35 800.042 357.74 791.552 357.01C759.942 349.99 744.622 387.1 737.042 411.51C734.282 420.72 732.112 430.11 730.392 439.58C729.952 441.89 726.412 441.33 726.822 438.91Z" fill="white"/>
<path d="M701.791 435.59C705.061 422.7 708.341 409.83 712.101 397.08C714.021 390.71 715.931 384.34 718.201 378.07C720.551 371.77 722.851 365.4 726.821 359.85C740.221 340.62 760.461 324.62 784.671 323.41C830.881 320.39 853.111 363.37 843.361 404.43C839.631 422.16 835.561 440.18 831.301 457.77C830.991 458.87 829.341 458.69 829.451 457.43C832.111 438.44 836.311 417.62 840.101 398.74C843.561 379.9 840.131 359.06 827.691 344.06C819.561 334.08 807.351 327.85 794.541 326.76C767.451 323.33 743.701 339.71 728.681 361.19C724.921 366.46 722.691 372.79 720.451 378.87C718.281 385.09 716.311 391.41 714.581 397.79C711.091 410.55 708.061 423.45 705.471 436.42C704.981 438.84 701.221 438.16 701.791 435.59Z" fill="white"/>
<path d="M1142.45 958.7C1130.63 969.69 1111.26 985.34 1094.81 986.79C1087.85 987.25 1083.55 982.79 1084.26 975.82C1085.14 967.61 1089.37 960.3 1093.62 953.48C1102.43 940.05 1113.74 928.41 1126.36 918.53C1134.91 912.03 1144.01 906.11 1154.33 902.7C1169.75 897.62 1177.37 905.35 1171.13 920.59C1164.83 935.42 1153.9 947.68 1142.45 958.7ZM1141.14 957.32C1152.51 946.11 1168.3 928.47 1170.5 912.35C1171.41 896.16 1148.37 908.17 1141.47 912.55C1128.21 920.82 1116.38 931.38 1105.97 943.01C1099.15 950.77 1092.64 959.19 1088.64 968.74C1083.31 981.89 1088.63 987.58 1102.18 983.17C1117.03 978.04 1129.7 967.91 1141.13 957.32H1141.14Z" fill="white"/>
<path d="M1164.16 903.4C1164.28 903.43 1010.31 823 1012.4 823.83C1006.6 824.28 1010.66 831.33 1012.07 834.56L1014.44 839.49C1031.97 875.17 1065.01 941.07 1082.95 977.3C1083.1 977.61 1082.98 977.99 1082.67 978.14C1082.36 978.29 1081.99 978.17 1081.83 977.87C1059.69 935.59 1032.71 883.59 1011.28 841.04C1009.9 838.12 1007.55 833.9 1006.57 830.82C1005.42 827.74 1005.53 822.94 1009.2 821.56C1010.48 821.08 1011.83 820.88 1013.15 821.3L1165.26 901.27C1165.84 901.58 1166.07 902.3 1165.76 902.88C1165.45 903.46 1164.73 903.69 1164.15 903.38L1164.16 903.4Z" fill="white"/>
</g>
<defs>
<clipPath id="clip0_1128_1508">
<rect width="1600" height="1040" fill="white"/>
</clipPath>
</defs>
</svg>
