<svg viewBox="0 0 189 168" fill="none" xmlns="http://www.w3.org/2000/svg">
    <path d="M110.215 147.261L121.126 155.481L122.877 141.874L110.215 147.261Z" stroke="#B3B3B3" stroke-linecap="round" stroke-linejoin="round"/>
    <path d="M121.886 148.563L116.606 144.544L115.688 151.274L121.886 148.563Z" stroke="#B3B3B3" stroke-linecap="round" stroke-linejoin="round"/>
    <path d="M116.471 144.327L114.947 140.936" stroke="#B3B3B3" stroke-linecap="round" stroke-linejoin="round"/>
    <path d="M115.558 151.531L113.307 154.535" stroke="#B3B3B3" stroke-linecap="round" stroke-linejoin="round"/>
    <path d="M122.01 148.666L125.816 149.222" stroke="#B3B3B3" stroke-linecap="round" stroke-linejoin="round"/>
    <path d="M122.895 141.874L114.874 140.808L110.107 147.235L113.22 154.624L121.255 155.473L126.219 149.242L122.895 141.874Z" stroke="#B3B3B3" stroke-linecap="round" stroke-linejoin="round"/>
    <path d="M183.975 137.581C180.353 136.087 179.002 126.595 174.801 130.673C171.282 134.089 167.932 139.195 163.162 134.59C159.828 130.314 158.31 124.103 153.446 131.581C149.892 136.906 143.957 134.671 141.793 129.584C140.971 128.199 140.187 126.554 138.406 126.304C136.53 126.032 136.656 123.161 138.826 123.284C144.294 123.593 145.399 135.101 149.86 130.849C153.455 127.423 156.508 122.213 161.54 126.845C163.313 128.6 163.875 131.233 165.786 132.842C169.159 134.986 170.728 129.622 172.981 128.06C178.284 124.039 181.904 129.705 184.258 133.916C185.07 135.352 187.335 134.746 187.688 136.499C187.709 136.59 188.202 139.321 183.976 137.579L183.975 137.581Z" stroke="#B3B3B3" stroke-linecap="round" stroke-linejoin="round"/>
    <path d="M27.4866 57.2183C34.4574 55.6352 39.7732 52.8697 39.3596 51.0414C38.9461 49.2131 32.9599 49.0144 25.989 50.5975C19.0182 52.1806 13.7024 54.946 14.116 56.7743C14.5295 58.6026 20.5157 58.8014 27.4866 57.2183Z" stroke="#B3B3B3" stroke-linecap="round" stroke-linejoin="round"/>
    <path d="M27.2053 56.2377C33.6472 54.7747 38.6321 52.5394 38.3393 51.245C38.0465 49.9505 32.587 50.0872 26.1451 51.5501C19.7032 53.0131 14.7183 55.2484 15.0111 56.5429C15.3039 57.8373 20.7634 57.7007 27.2053 56.2377Z" stroke="#B3B3B3" stroke-linecap="round" stroke-linejoin="round"/>
    <path d="M50.5958 8.83323C55.1569 7.01814 58.3624 4.30505 57.7553 2.77338C57.1483 1.2417 52.9586 1.47146 48.3974 3.28655C43.8362 5.10164 40.6308 7.81473 41.2379 9.3464C41.8449 10.8781 46.0346 10.6483 50.5958 8.83323Z" stroke="#B3B3B3" stroke-linecap="round" stroke-linejoin="round"/>
    <path d="M41.8311 10.0343L57.6606 26.5424C57.6606 26.5424 58.7969 27.1339 58.7366 25.2796C58.6763 23.4252 58.1552 3.89746 58.1552 3.89746" stroke="#B3B3B3" stroke-linecap="round" stroke-linejoin="round"/>
    <path d="M31.6249 32.7006C30.1642 35.5194 27.8297 36.7894 26.6792 36.6402C21.2444 35.9386 23.8253 28.292 24.3128 26.9723C24.7577 25.768 29.6005 17.2297 36.2514 20.0042C42.9023 22.7786 41.3531 31.5141 40.2682 34.9919C39.1834 38.4697 36.1717 40.42 33.2007 38.7593C30.2298 37.0985 31.8181 31.3471 33.0306 28.5247C34.243 25.7023 36.5882 27.2814 36.5882 27.2814C36.5882 27.2814 37.6961 27.7432 36.2745 30.5389C34.8528 33.3347 35.1294 36.1358 35.5477 36.1891C35.966 36.2424 38.6197 32.118 37.9053 27.7698C37.9053 27.7698 37.2512 22.2884 33.3036 22.7751C31.8234 22.958 30.6552 23.5939 29.7353 24.4323C28.2019 25.8284 27.3582 27.7822 26.9026 29.1144C26.5587 30.1233 26.0801 32.1997 26.9912 33.3809" stroke="#B3B3B3" stroke-linecap="round" stroke-linejoin="round"/>
    <path d="M32.479 22.9208C32.479 22.9208 33.4628 25.1109 33.025 28.5905" stroke="#B3B3B3" stroke-linecap="round" stroke-linejoin="round"/>
    <path d="M26.7817 33.0487C26.7817 33.0487 29.033 32.3702 29.5453 28.3933C30.0576 24.4163 29.7367 24.4323 29.7367 24.4323" stroke="#B3B3B3" stroke-linecap="round" stroke-linejoin="round"/>
    <path d="M31.0164 19.9775C31.0164 19.9775 29.7189 17.1374 25.9325 16.8621C22.1462 16.5867 17.275 19.7857 15.9278 23.6543C14.5806 27.5229 14.4601 31.7627 17.4576 33.2139C17.4576 33.2139 21.4832 34.4075 23.4828 29.8604" stroke="#B3B3B3" stroke-linecap="round" stroke-linejoin="round"/>
    <path d="M28.2371 21.7449C28.2371 21.7449 27.2533 19.7999 24.4579 20.077C21.6625 20.3541 19.0337 24.2707 18.61 25.9172C18.1863 27.5638 17.6528 30.0487 18.6703 30.3933" stroke="#B3B3B3" stroke-linecap="round" stroke-linejoin="round"/>
    <path d="M24.5956 26.3719C24.5956 26.3719 25.1504 22.9332 24.4556 20.077" stroke="#B3B3B3" stroke-linecap="round" stroke-linejoin="round"/>
    <path d="M21.3364 21.7555C21.3364 21.7555 22.0064 24.0575 21.558 25.807C21.1095 27.5566 19.8172 30.2298 18.291 30.07" stroke="#B3B3B3" stroke-linecap="round" stroke-linejoin="round"/>
    <path d="M22.901 17.283C22.901 17.283 21.4917 14.084 16.7694 14.1497C12.0454 14.2155 8.81212 19.5423 7.86199 21.974C6.91186 24.4038 6.13722 28.7733 9.34568 30.2511C12.5524 31.729 15.0553 27.5975 15.0553 27.5975" stroke="#B3B3B3" stroke-linecap="round" stroke-linejoin="round"/>
    <path d="M20.1872 18.5921C20.1872 18.5921 17.8863 16.6738 15.8726 17.4784C13.8589 18.2812 11.0121 20.5441 10.498 23.7378C10.498 23.7378 9.82972 26.4856 11.1556 27.7201" stroke="#B3B3B3" stroke-linecap="round" stroke-linejoin="round"/>
    <path d="M13.5153 18.8958C13.5153 18.8958 14.1092 21.2937 13.6855 22.9403C13.2618 24.5868 12.5634 27.1605 10.8174 27.3062" stroke="#B3B3B3" stroke-linecap="round" stroke-linejoin="round"/>
    <path d="M16.5962 17.3967C16.5962 17.3967 17.3336 20.6561 16.7628 21.9598" stroke="#B3B3B3" stroke-linecap="round" stroke-linejoin="round"/>
    <path d="M14.827 14.3114C14.827 14.3114 12.2956 10.6329 7.6939 11.7413C3.09216 12.8496 1.59074 16.2724 1.59074 16.2724C1.59074 16.2724 0.284317 18.5655 1.55706 19.2014C2.82981 19.8372 3.61863 18.6614 4.87897 17.1232C6.13931 15.585 7.95093 14.5175 9.63138 14.7466C11.3118 14.9757 12.0705 16.0646 12.0705 16.0646" stroke="#B3B3B3" stroke-linecap="round" stroke-linejoin="round"/>
    <path d="M150.872 116.453C154.857 115.929 157.955 114.485 157.79 113.226C157.625 111.967 154.261 111.372 150.275 111.895C146.29 112.419 143.192 113.864 143.357 115.122C143.521 116.381 146.886 116.977 150.872 116.453Z" stroke="#B3B3B3" stroke-linecap="round" stroke-linejoin="round"/>
    <path d="M76.8565 139.7C29.0328 116.065 52.6991 39.1286 53.6741 38.9404C74.6088 34.9066 97.6264 27.2262 98.9204 26.1694C99.9255 27.3541 113.093 37.1961 117.643 40.5994C123.849 45.2424 128.963 47.5284 136.403 51.9334C127.417 136.565 76.8565 139.7 76.8565 139.7V139.7Z" stroke="#B3B3B3" stroke-linecap="round" stroke-linejoin="round"/>
    <path d="M78.0105 131.723C37.5166 111.474 57.7051 45.2566 58.5329 45.0932C76.284 41.5869 95.8059 34.9421 96.9032 34.0309C97.7523 35.0487 108.895 43.491 112.747 46.4111C117.999 50.3934 122.33 52.3526 128.628 56.1288C120.869 128.939 78.0105 131.723 78.0105 131.723V131.723Z" stroke="#B3B3B3" stroke-linecap="round" stroke-linejoin="round"/>
    <path d="M98.9642 26.1534L108.198 28.9084C108.198 28.9084 131.444 47.2709 144.223 53.7914C144.223 53.7914 142.367 131.529 85.7811 142.307L76.856 139.702" stroke="#B3B3B3" stroke-linecap="round" stroke-linejoin="round"/>
    <path d="M136.402 51.9334L144.223 53.7896" stroke="#B3B3B3" stroke-linecap="round" stroke-linejoin="round"/>
    <path d="M91.5531 107.676L71.7777 104.737C71.1094 104.637 70.4837 104.428 69.9182 104.131C67.7751 103.005 66.4722 100.611 66.848 98.076L70.4784 73.55C70.9534 70.3457 73.9279 68.1343 77.1257 68.6103L96.9012 71.5499C97.5748 71.6494 98.204 71.8608 98.7748 72.1627C100.909 73.2906 102.207 75.6814 101.833 78.2108L98.2023 102.737C97.7272 105.941 94.7527 108.152 91.5549 107.676H91.5531Z" stroke="#B3B3B3" stroke-linecap="round" stroke-linejoin="round"/>
    <path d="M70.9551 105.007C70.9551 105.007 73.4031 107.176 76.319 107.522C77.3188 107.641 94.0861 109.92 94.547 109.962C95.0079 110.005 101.948 111.259 103.236 104.774C104.367 99.076 106.925 84.2695 107.53 80.7633C107.629 80.1878 107.611 79.5981 107.473 79.0297C107.212 77.9497 106.627 76.2783 105.422 75.6104C103.577 74.5873 98.2287 71.9088 98.2287 71.9088" stroke="#B3B3B3" stroke-linecap="round" stroke-linejoin="round"/>
    <path d="M88.3998 83.4382C88.7579 81.2694 87.2919 79.2197 85.1275 78.8609C82.9631 78.5021 80.9175 79.971 80.5594 82.1398C80.2634 83.9338 81.2153 85.646 82.7788 86.3867L78.4482 95.2802L86.1804 96.5609L84.9343 86.7437C86.652 86.5466 88.1038 85.2322 88.3998 83.4382V83.4382Z" stroke="#B3B3B3" stroke-linecap="round" stroke-linejoin="round"/>
    <path d="M82.0747 68.9052C83.0177 63.827 85.9745 52.3686 93.2423 54.0578C93.2423 54.0578 97.9326 54.2354 96.7574 61.4078C96.0005 66.0224 95.2826 69.2409 94.866 70.9496" stroke="#B3B3B3" stroke-linecap="round" stroke-linejoin="round"/>
    <path d="M77.647 68.3315C78.5173 64.4665 80.3024 57.1982 81.8463 55.0276C84.2925 51.5924 88.2012 47.9405 94.1838 48.683C100.165 49.4255 103.515 55.557 102.129 62.2338C101.102 67.177 100.374 70.7436 100.115 72.1664" stroke="#B3B3B3" stroke-linecap="round" stroke-linejoin="round"/>
    <path d="M155.317 161.047C159.351 157.206 161.581 152.995 160.296 151.64C159.012 150.285 154.7 152.3 150.665 156.14C146.631 159.98 144.402 164.192 145.686 165.547C146.971 166.902 151.282 164.887 155.317 161.047Z" stroke="#B3B3B3" stroke-linecap="round" stroke-linejoin="round"/>
    <path d="M159.381 151.162L132.405 136.979C132.405 136.979 130.961 136.837 131.805 138.764C132.648 140.689 144.789 164.526 144.789 164.526" stroke="#B3B3B3" stroke-linecap="round" stroke-linejoin="round"/>
</svg>
