<svg viewBox="0 0 1056 927" fill="none" xmlns="http://www.w3.org/2000/svg">
    <path d="M618.001 820.47C638.561 835.71 658.931 850.82 679.291 866.16L678.281 866.58L688.241 789.98L689.001 790.55C665.351 800.65 641.771 810.54 618.001 820.46C618.001 820.46 641.771 810.54 618.001 820.46V820.47ZM616.711 820.31C640.561 810.01 664.601 799.67 688.581 789.55C688.951 789.38 689.401 789.72 689.341 790.12L679.551 866.74C679.501 867.21 678.911 867.46 678.541 867.16C657.861 851.65 637.201 835.91 616.721 820.3L616.711 820.31Z" fill="white"/>
    <path d="M682.461 827.62C672.561 820.31 662.841 813.03 653.091 805.51L653.941 805.16C653.911 806.76 653.601 808.33 653.421 809.91C652.281 818.47 650.151 834.37 648.961 843.07L647.941 842.3C659.391 837.27 670.811 832.49 682.461 827.62ZM683.941 827.8C672.281 833.1 660.391 838.5 648.531 843.65C648.021 843.89 647.421 843.43 647.511 842.88C648.731 834.11 650.901 818.35 652.121 809.74C652.371 808.15 652.491 806.53 652.911 804.96C652.981 804.68 653.271 804.5 653.561 804.58C663.781 812.08 673.921 820.03 683.951 827.81L683.941 827.8Z" fill="white"/>
    <path d="M652.401 803.98L643.361 785.09C643.181 784.71 643.341 784.26 643.721 784.08C644.111 783.89 644.581 784.08 644.741 784.47L652.891 803.76C653.031 804.07 652.541 804.3 652.401 803.98Z" fill="white"/>
    <path d="M647.73 844.59L635.43 861.81C635.17 862.17 634.68 862.25 634.32 862C633.95 861.74 633.88 861.21 634.16 860.86L647.26 844.25C647.48 843.96 647.95 844.3 647.73 844.6V844.59Z" fill="white"/>
    <path d="M683.931 828.02L705.501 830.45C706.041 830.51 706.441 831 706.371 831.55C706.311 832.12 705.771 832.52 705.211 832.41L683.851 828.56C683.521 828.51 683.591 827.98 683.931 828.02V828.02Z" fill="white"/>
    <path d="M688.41 790.7L643.55 784.67L644.6 784.79L617.34 820.7L617.43 819.96L634.73 861.67L634.35 861.39L679.77 865.28L678.57 865.78L707.13 831.15L707.05 831.8L688.4 790.71L688.41 790.7ZM689.37 789.41L708.21 831.27C708.31 831.49 708.27 831.74 708.13 831.92L680.7 867.45C680.41 867.83 679.94 868 679.5 867.95L634.26 862.29C634.09 862.27 633.94 862.16 633.88 862.01L616.05 820.52C615.94 820.27 615.98 819.98 616.14 819.78L642.66 783.32C642.66 783.32 642.68 783.3 642.7 783.3L643.72 783.43L689.37 789.39V789.41Z" fill="white"/>
    <path d="M1033.23 766.43C1022.02 761.54 1015.19 746.35 1008.49 736.65C1005.23 731.89 1001.99 726.79 996.83 724.04C990.69 720.9 985.17 725.98 980.92 730.28C971.68 739.41 963.33 749.77 951.89 756.51C942.65 762.04 931.99 762.19 922.99 756.1C920.14 754.24 917.55 752.08 915.16 749.73C910.9 744.21 907.25 738.31 903.56 732.5C898.83 725.61 892.04 712.38 882.38 713.47C872.88 715.44 866.37 726.46 861.01 733.88C856.97 739.58 851.63 744.53 845.15 747.4C832.01 753.52 816.36 748.17 806.65 738.26C801.66 733.38 797.76 727.46 795.01 721.08C791.18 714.77 786.84 706.43 779 704.09L778.08 703.82C777.77 703.74 777.45 703.7 777.13 703.64L776.17 703.47C771.06 702.93 767.29 697.78 768.1 692.74C769.05 685.81 775.53 683.65 781.71 684.72C795.88 686.3 804.54 701.83 811.5 712.62C815.85 719.17 819.61 726.86 826.45 730.88C831.16 733.46 836.15 730.74 839.77 727.36C852.57 716.1 867.15 693.94 885.73 694.36C892.1 694.52 898.05 697.49 903.02 701.29C906.95 704.16 910.34 707.79 913.01 711.82C919.12 720.8 922.95 731.4 931.44 738.49C938.79 743.09 945.31 740.97 951.23 734.4C957.94 727.36 962.48 717.57 970.6 711.46C983.38 701.67 997.3 700.32 1010.24 710.72C1021.31 719.73 1028.5 732.11 1035.39 744.31C1035.9 745.16 1036.32 745.92 1037 746.6C1040.44 750.27 1045.84 750.54 1050.11 753.01C1055.96 755.83 1057.47 765.91 1051.18 769.09C1045.13 771.76 1038.77 768.5 1033.23 766.41V766.43ZM1033.68 765.34C1037.32 766.88 1041.24 767.76 1045.02 768.11C1046.85 768.29 1048.74 768.19 1050.41 767.49C1055.75 765.03 1054.51 756.41 1049.46 754.17C1045.35 751.92 1039.45 751.45 1035.91 747.64C1035.19 746.93 1034.55 745.93 1034.06 745.08C1027.22 733.21 1019.83 720.9 1009.01 712.31C996.68 702.67 983.95 704.05 971.96 713.33C960.64 721.25 952.89 746.37 936.05 742.57C933.98 742.03 932.09 741.08 930.33 739.99C928.16 738.14 926.26 736 924.55 733.76C917.21 723.97 913.58 711.41 903.76 703.68C902.29 702.52 900.42 701.17 898.83 700.16C877.26 686.52 860.94 709.31 847.34 723.37C841.76 729.26 834.2 737.98 825.21 733.39C817.64 729.2 813.47 721.09 808.88 714.29C802.44 704.32 796 693.31 784.99 688.1C781.63 686.5 777.27 685.43 773.88 687.13C769.29 689.3 768.63 696.28 772.46 699.48C774.41 701.3 777.28 701.23 779.65 702.09C785.15 703.9 788.99 708.7 791.84 713.46C793.29 715.84 794.64 718.25 796 720.64C801.29 733.04 811.51 744.12 824.8 747.63C838.54 751.51 851.99 744.33 859.62 732.88C865.2 724.99 871.89 713.67 882.12 711.6C892.99 710.32 900.04 723.75 905.32 731.36C908.89 736.96 913.16 743.52 916.83 748.22C934.95 765.57 949.58 757.44 964.9 741.68C969.42 737.12 973.8 732.37 978.4 727.73C984.9 720.8 993.12 715.86 1001.64 723.32C1013.86 734.26 1018.82 757.98 1033.69 765.32L1033.68 765.34Z" fill="white"/>
    <path d="M150.781 313.97C131.571 318.09 111.771 321.21 92.0908 319.33C71.3708 317.13 68.8508 307.17 86.8708 296.18C103.851 286.09 123.051 280.42 142.161 275.92C161.341 271.76 181.111 268.62 200.781 270.42C221.471 272.56 223.901 282.42 206.031 293.46C189.091 303.65 169.891 309.4 150.791 313.98L150.781 313.97ZM150.541 312.92C169.571 308.47 188.721 302.83 205.631 292.84C222.901 282.29 221.051 273.16 200.701 270.98C181.121 269.17 161.381 272.29 142.261 276.41C123.231 280.95 104.091 286.66 87.2208 296.75C70.0908 307.33 71.8608 316.38 92.1808 318.49C111.741 320.22 131.451 317.08 150.541 312.92Z" fill="white"/>
    <path d="M149.16 308.36C132.52 311.96 98.8803 318.44 83.2503 312.88C73.4203 308.07 87.9803 300.3 92.5903 297.96C108.55 290.15 125.79 285.36 143.04 281.34C160.33 277.55 177.96 274.45 195.72 274.63C204.14 274.61 220.44 277.05 207.2 286.97C199.91 292.1 191.52 295.38 183.24 298.49C172.11 302.52 160.69 305.7 149.17 308.36H149.16ZM148.97 307.51C160.48 304.91 171.88 301.79 183 297.83C191.26 294.78 199.63 291.58 206.89 286.53C219.74 277.18 203.6 275.12 195.71 275.08C177.99 274.89 160.39 277.96 143.13 281.74C125.94 285.79 108.73 290.62 92.8403 298.44C88.7503 300.56 74.3803 308.13 83.5003 312.31C98.9003 317.67 132.54 311.11 148.97 307.51Z" fill="white"/>
    <path d="M428.789 779.7C281.819 708.79 249.179 539.01 261.509 390.23C266.079 334.17 275.459 278.35 291.679 224.43C293.169 219.89 294.479 215.45 296.519 211.04C296.729 210.67 296.929 210.2 297.279 209.82C297.399 209.72 297.519 209.48 298.139 209.31L298.569 209.22L300.289 208.88L303.729 208.19C383.819 191.69 463.149 170.26 539.939 142.1C543.909 140.4 548.439 138.92 552.039 136.71C552.039 136.71 552.519 136.48 552.529 136.48C553.569 135.98 554.769 136.24 555.519 137.03C558.969 140.8 563.189 144.11 567.119 147.44C579.489 157.65 592.349 167.26 605.089 177.02C630.799 196.15 655.799 216.42 682.539 234.11C709.479 251.57 738.319 265.85 765.919 282.24C766.509 282.58 766.819 283.23 766.739 283.87C758.339 367.16 741.449 450.39 709.269 528C667.599 629.84 593.479 724.94 488.119 764.98C470.769 771.54 452.799 776.71 434.389 779.21L431.849 779.51C430.929 779.55 429.939 779.78 428.759 779.71L428.789 779.7ZM429.549 775.92C508.829 764.88 578.829 715.64 628.979 654.81C679.969 592.85 712.449 517.76 733.839 440.92C747.989 389.42 757.329 336.63 763.419 283.51C763.419 283.51 764.259 285.16 764.229 285.13C727.469 263.26 688.439 244.57 654.429 218.3C628.649 199.13 602.869 179.95 577.389 160.38C569.889 154.52 558.789 146.56 551.739 140.24L555.209 140.56C553.799 141.56 552.709 141.99 551.579 142.54C535.269 149.34 518.349 154.49 501.549 159.88C438.889 179.29 375.429 196.24 311.129 209.32C308.489 209.89 301.799 211.12 299.059 211.69L298.629 211.77C299.109 211.64 299.119 211.5 299.139 211.51C299.039 211.65 298.889 211.91 298.769 212.16C290.249 233.8 285.289 256.79 280.149 279.47C243.069 452.22 247.999 687.61 429.549 775.92V775.92Z" fill="white"/>
    <path d="M435.238 735.1C309.208 673.94 282.709 527.71 293.269 400.29C297.219 352.28 305.269 304.53 318.949 258.3C320.329 253.95 321.629 249.54 323.569 245.29C323.719 244.96 324.029 244.43 324.329 244.07C324.399 243.93 325.089 243.45 325.459 243.41C327.329 243.08 332.659 241.95 334.649 241.59C389.489 230.3 443.618 215.6 496.998 198.73C508.418 195.07 519.828 191.33 531.058 187.13C534.688 185.66 538.579 184.43 541.899 182.4C542.179 182.22 542.538 182.27 542.758 182.5C549.278 188.71 556.719 194.09 563.769 199.71C585.339 216.44 607.179 232.83 629.009 249.22C636.269 254.7 643.629 259.98 651.249 264.91C674.159 279.77 698.599 291.93 722.059 305.97C722.599 306.29 722.879 306.9 722.819 307.49C720.329 330.33 717.108 353.1 713.048 375.73C699.868 449.13 677.468 521.85 638.618 585.98C597.208 654.6 532.639 713.49 453.149 732.24C448.199 733.38 443.148 734.3 438.098 734.92C437.268 735.03 436.158 735.15 435.258 735.11L435.238 735.1ZM436.128 730.71C458.298 727.94 480.099 720.74 500.399 711.2C560.079 683.16 607.158 633.27 640.168 576.88C676.298 515.03 697.389 445.42 710.069 375.19C714.119 352.64 717.238 329.93 719.678 307.15L720.439 308.66C697.159 294.46 672.699 282.03 649.899 266.95C627.249 251.62 606.138 234.22 584.348 217.71C573.558 209.34 562.768 200.96 552.168 192.35C548.598 189.41 545.059 186.65 541.779 183.32C541.779 183.32 542.678 183.4 542.668 183.4C535.658 187.48 527.849 189.81 520.339 192.76C459.939 214.27 398.058 231.63 335.368 245.07C333.658 245.47 327.948 246.56 326.158 246.96C326.428 246.99 326.998 246.57 326.988 246.52C326.998 246.52 327.009 246.51 327.019 246.49C326.989 246.53 326.878 246.72 326.798 246.91C319.478 265.84 315.208 285.97 310.798 305.8C280.158 453.04 282.669 653.64 436.139 730.71H436.128Z" fill="white"/>
    <path d="M554.45 136.67L606.49 152.35C622.89 165.05 639.12 178.17 655.78 190.6C688.6 215.43 722.01 239.55 756.52 261.99C769.5 270.33 782.69 278.33 796.23 285.72C800.76 288.18 805.28 290.64 810.34 291.92C810.94 292.07 811.37 292.56 811.49 293.13L811.7 294.2C810.59 321.24 807.43 347.96 803.31 374.64C775.03 559.19 680.93 758.45 479.12 793.87L428.59 779.81C427.48 779.5 426.83 778.35 427.14 777.24C427.45 776.13 428.6 775.48 429.71 775.79C429.75 775.81 479.89 791.06 479.93 791.09L479.25 791.06C706.62 749.08 795.67 499.67 806.72 294.09L808.08 296.37C804.06 292.94 799.51 290.54 794.99 287.94C728.65 248.25 666.58 201.91 604.88 155.46L605.47 155.77L553.33 140.43C552.29 140.12 551.7 139.04 552 138C552.31 136.96 553.4 136.36 554.44 136.68L554.45 136.67Z" fill="white"/>
    <path d="M765.429 282.25L809.588 292.53C811.698 293.05 810.978 296.23 808.838 295.76L764.748 285.13C762.888 284.65 763.519 281.83 765.429 282.24V282.25Z" fill="white"/>
    <path d="M268.31 8.99002C281.75 3.85002 302.41 -2.55998 316.53 1.65002C322.35 3.52002 324.44 8.67002 321.56 14.1C318.15 20.53 312.28 25.13 306.56 29.31C298.83 34.74 290.39 39.04 281.65 42.59C268.49 47.65 254.47 51.68 240.19 50.93C225.9 50.02 222.2 41.19 232.31 30.77C242.34 20.7 255.31 14.25 268.31 9.00002V8.99002ZM268.93 10.55C255.89 16.03 237.28 25.2 230.13 37.71C224.06 50.66 246.87 48.4 253.95 47.08C267.52 44.66 280.67 39.91 293.01 33.81C301.14 29.7 309.23 24.95 315.64 18.44C324.32 9.42002 321.84 3.02002 309.3 2.18002C295.46 1.50002 281.77 5.63002 268.93 10.55Z" fill="white"/>
    <path d="M232.33 47.08L321.72 139.93L321.41 139.7C322.2 139.96 323.38 140.06 324.03 139.53C325.49 138.17 325.37 135.23 325.34 133.12L325.26 128.99L324.93 112.46C324.6 95.99 323.94 62.81 323.61 46.34L323.1 13.28C323.1 12.97 323.34 12.72 323.65 12.72C323.95 12.72 324.2 12.95 324.21 13.25L325.51 46.29C326.07 62.77 327.23 95.9 327.8 112.37C327.9 115.33 328.42 130.37 328.51 133.02C328.99 138.18 326.83 144.97 320.33 141.79C319.97 141.87 231.12 48.62 230.82 48.53C230.42 48.11 230.43 47.44 230.85 47.04C231.27 46.64 231.93 46.65 232.34 47.07L232.33 47.08Z" fill="white"/>
    <path d="M174.551 175.69C169.441 185.55 158.791 197.7 146.951 198.25C142.441 197.92 137.911 196.39 134.341 193.56C120.871 182.09 127.111 157.22 132.241 142.77C139.951 126.59 154.121 109.7 171.061 102.91C187.981 95.98 208.371 103.2 218.921 117.73C232.041 136.4 230.111 161.12 225.121 182.25C222.301 195.1 215.011 208.81 201.521 212.75C194.881 214.67 187.681 213.26 181.811 209.76C175.751 206.15 173.121 198.81 172.661 192.15C171.771 178.71 175.611 165.46 180.451 153.08C184.101 142.86 192.551 138.53 202.291 144.46C204.371 145.55 205.091 148.79 204.871 151.21C204.481 158.48 199.981 164.45 197.861 171.19C196.411 175.58 195.471 180.15 195.201 184.75C195.101 187.81 194.961 191 196.111 193.83C196.201 194 196.351 194.2 196.351 194.17C196.361 194.19 196.321 194.15 196.291 194.15C196.261 194.16 196.211 194.13 196.161 194.13C196.121 194.13 196.061 194.18 196.121 194.13C198.491 192.19 199.921 189.25 201.441 186.58C208.941 172.29 211.701 155.05 206.711 139.5C204.081 131.03 198.671 121.89 189.241 120.36C175.181 118.7 162.181 128.2 155.221 139.85C150.481 147.73 146.661 156.61 145.751 165.81C145.561 168.1 145.551 170.41 145.891 172.65C146.271 174.9 146.971 177.01 148.001 179.1C148.051 179.2 148.011 179.32 147.911 179.37C147.831 179.41 147.741 179.39 147.681 179.34C145.861 177.68 144.941 175.24 144.531 172.88C143.331 165.75 145.351 158.49 147.831 151.89C153.431 136.48 164.981 121.28 182.221 118.92C206.821 114.92 213.751 148.95 209.931 167.25C208.121 176.58 204.841 185.78 199.191 193.52C198.361 194.46 197.261 196.17 195.791 195.88C194.171 195.25 193.991 193.29 193.661 191.86C192.421 182.31 194.831 172.61 198.851 164C201.081 159.27 205.611 151.42 202.801 146.37C202.501 145.92 202.091 145.51 201.691 145.32C199.891 144.23 197.811 143.44 195.711 143.14C191.431 142.45 187.371 144.53 185.001 148.08C183.731 149.82 182.911 151.77 182.071 153.77C178.771 161.88 176.201 170.35 174.861 179C173.461 189.08 173.031 202.24 182.581 208.43C197.481 217.45 212.691 208.88 219.601 194.33C223.321 186.44 224.991 177.59 226.381 169C228.721 151.95 228.221 132.89 217.841 118.46C207.641 104.41 187.851 97.34 171.441 104.07C154.811 110.75 140.961 127.31 133.331 143.21C128.161 157.59 121.331 185.13 137.721 194.35C140.481 195.89 143.751 196.75 146.911 197.01C154.531 196.67 160.971 191.25 165.981 185.88C168.891 182.63 171.371 178.99 173.381 175.11C173.761 174.39 174.841 174.96 174.471 175.68L174.551 175.69Z" fill="white"/>
    <path d="M178.82 120.35C178.82 120.35 184.37 132.68 181.9 152.27" stroke="white" stroke-width="1.23" stroke-linecap="round" stroke-linejoin="round"/>
    <path d="M146.501 176.79C150.341 174.94 153.391 171.42 155.501 167.74C161.061 158.03 161.071 146.37 162.671 135.5C162.841 133.45 163.201 131.37 162.941 129.34C163.051 129.43 163.171 129.5 163.371 129.49C163.031 129.51 162.741 129.25 162.721 128.91C162.681 128.39 163.331 128.08 163.721 128.38C164.101 128.62 164.241 129.09 164.371 129.48C165.651 136 164.681 142.75 164.061 149.29C162.911 160.47 158.481 173.89 146.851 177.98C146.091 178.17 145.741 177.07 146.491 176.8L146.501 176.79Z" fill="white"/>
    <path d="M170.011 104.04C163.761 92.53 150.691 86.68 137.901 87.13C135.411 87.33 132.751 87.62 130.321 88.17C128.881 88.38 126.821 89.16 125.381 89.5C122.631 90.44 119.721 91.65 117.081 92.91C104.671 99.26 93.3106 109.15 87.6806 122.09C82.7806 134.55 79.5506 148.91 82.6906 162.14C84.1706 168.65 88.8406 174.78 94.3606 177.37C100.891 179.01 108.321 178.12 114.221 174.74C120.311 171.34 124.651 165.48 127.501 159.19C127.831 158.46 128.941 158.96 128.631 159.69C124.571 169.72 115.891 178.49 104.761 179.77C101.051 180.25 97.3506 180.19 93.6806 179.22C90.4006 177.64 87.4406 175.34 85.2306 172.43C74.9606 158.65 79.6306 136.01 85.5606 121.17C91.5106 107.67 103.211 97.55 116.141 90.97C122.131 88.19 128.571 85.99 135.171 85.44L137.831 85.23C139.331 85.3 141.691 85.23 143.171 85.47C154.681 86.53 165.771 93.11 171.131 103.54C171.481 104.31 170.361 104.82 170.011 104.05V104.04Z" fill="white"/>
    <path d="M154.341 114.01C147.421 103.7 132.031 103.01 122.491 110.15C113.581 116.38 103.931 128.52 101.171 139.14C99.7009 145.07 98.0409 151.18 98.5709 157.29C98.8409 159.23 99.2709 161.16 101.001 162.24C101.091 162.3 101.131 162.42 101.071 162.51C93.4909 161.94 98.1309 143.44 99.1609 138.64C101.031 130.28 106.071 123 111.531 116.56C117.851 109.45 126.261 102.75 136.331 102.96C143.921 102.93 151.861 106.5 155.461 113.46C155.801 114.19 154.751 114.72 154.361 114.02L154.341 114.01Z" fill="white"/>
    <path d="M133.742 139.68C135.292 128.03 135.542 115.98 132.962 104.46C132.782 103.69 133.982 103.39 134.162 104.19C135.532 110.03 136.132 116.02 136.162 122.01C136.192 128 135.822 133.95 134.952 139.88C134.832 140.67 133.602 140.5 133.732 139.68H133.742Z" fill="white"/>
    <path d="M116.55 113.62C119.25 122.52 120.28 132.47 116.81 141.3C114.37 147.84 111.26 154.59 105.64 159.05C103.73 160.49 101.25 161.54 98.7202 161.21C98.3802 161.17 98.1402 160.86 98.1902 160.52C98.2302 160.19 98.5302 159.96 98.8502 159.98C100.97 160.15 103.02 159.19 104.69 157.81C109.79 153.4 112.67 146.9 114.96 140.65C116.49 136.35 117.33 132.01 117.12 127.45C117.03 122.93 116.37 118.37 115.38 113.96C115.17 113.22 116.33 112.85 116.56 113.62H116.55Z" fill="white"/>
    <path d="M124.22 88.8601C118.17 77.9001 105.22 72.3001 93.0801 72.0801C80.4701 71.1601 68.7801 77.5901 60.0401 86.3501C45.7601 100.97 34.8001 121.22 36.3401 142.15C36.7601 146.23 37.9101 150.28 40.1401 153.67C44.5401 160.4 53.4401 164.33 61.3001 161.92C69.2101 159.54 75.4701 153.09 79.9801 146.36C80.4001 145.65 81.4701 146.31 81.0301 147C76.3401 154.13 70.0701 160.71 61.7201 163.35C53.2301 166.02 43.5501 161.94 38.7401 154.6C36.3101 150.93 35.0801 146.62 34.6201 142.34C32.9501 120.8 44.0101 100.09 58.6601 84.9801C70.2301 73.5201 83.1301 67.8601 99.5601 70.6701C110.14 72.4801 120.44 78.4701 125.33 88.3701C125.67 89.1401 124.54 89.6301 124.2 88.8701L124.22 88.8601Z" fill="white"/>
    <path d="M109.09 96.4501C103.61 92.4701 97.0801 89.2601 90.3001 89.5901C85.0401 89.9301 80.3601 93.0601 76.0301 95.8901C68.5901 101.15 62.1401 108.06 58.4901 116.47C55.0701 124.92 52.2301 139.72 58.7301 147.19C58.9501 147.41 58.5901 147.79 58.3601 147.57C51.9901 141.99 52.2801 132.36 53.7501 124.69C56.3301 109.24 68.8101 95.9001 83.1201 89.5001C89.0501 86.5201 96.0901 87.6101 101.86 90.4201C104.73 91.8001 107.41 93.4701 109.88 95.5101C110.14 95.7301 110.18 96.1101 109.96 96.3801C109.74 96.6501 109.35 96.6801 109.09 96.4601V96.4501Z" fill="white"/>
    <path d="M72.4308 97.54C74.1608 104.18 75.1508 111.12 74.2608 118C72.3008 127.28 68.0708 144.79 56.6608 145.65C55.8808 145.68 55.7808 144.52 56.5608 144.42C63.3808 143.49 66.6108 136.34 68.7708 130.56C70.9008 124.28 72.9708 117.81 72.6808 111.12C72.5908 106.69 72.0508 102.21 71.2308 97.83C71.0608 97.08 72.2208 96.76 72.4308 97.53V97.54Z" fill="white"/>
    <path d="M89.8212 89.1202C90.9112 93.3602 91.6212 97.6702 91.9812 102.03C92.2412 106.44 92.5112 110.99 90.7212 115.19C90.5812 115.5 90.2112 115.63 89.9012 115.49C89.6012 115.35 89.4612 115 89.5912 114.69C91.4812 108.65 90.3212 101.96 89.6212 95.7602C89.3212 93.6302 88.9912 91.4902 88.6212 89.3802C88.4812 88.6202 89.6312 88.3602 89.8212 89.1202Z" fill="white"/>
    <path d="M78.7309 72.2301C69.6209 60.8601 54.1209 54.8301 39.8309 58.5201C25.7709 61.6801 12.3409 70.4501 5.64088 83.4001C4.00088 86.4701 2.51086 90.0601 2.40086 93.5401C2.35086 95.6501 3.06085 97.4801 4.83085 98.3701L5.97087 98.8701C10.2809 100.53 13.9909 96.8401 16.7109 93.8001C19.1809 91.0601 21.3809 88.0801 23.9509 85.2301C31.5109 76.8901 43.5509 70.4401 54.8209 74.7801C58.4409 76.1201 61.7509 78.2701 64.1809 81.4101C64.6509 82.0501 63.7209 82.8001 63.2109 82.1601C61.0009 79.3701 57.7209 77.3001 54.3509 76.1401C43.6009 72.2501 32.5109 78.6701 25.4209 86.5701C23.0009 89.2901 20.7909 92.3601 18.2809 95.1901C15.6709 98.0901 12.6609 101.32 8.36085 101.5C3.68085 101.52 -0.209128 98.4101 0.070872 93.5101C0.130872 89.6301 1.91087 85.3601 3.47087 82.4501C13.3909 62.8901 40.8609 49.2501 61.9509 57.5901C69.0909 60.4601 75.3109 65.3001 79.7309 71.5401C80.1709 72.2201 79.2009 72.9001 78.7209 72.2401L78.7309 72.2301Z" fill="white"/>
    <path d="M846.991 648.79C835.541 650.17 823.751 650.52 812.541 647.29C800.901 643.93 799.671 635.98 810.381 629.88C820.481 624.26 831.951 621.84 843.251 620.29C854.571 618.96 866.261 618.44 877.421 621.29C889.011 624.38 890.001 632.03 879.761 638.25C869.821 644.29 858.371 647.1 846.991 648.79V648.79ZM846.481 644.94C857.401 643.44 868.681 641.35 878.461 636.1C887.291 631.04 886.681 626.04 876.881 623.16C866.081 620.17 854.551 620.8 843.491 622.13C836.061 623.17 828.701 624.78 821.661 627.26C816.701 628.95 798.791 636.63 808.481 642.48C818.541 647.64 835.351 646.23 846.491 644.95L846.481 644.94Z" fill="white"/>
    <path d="M511.99 598.14C480.24 593.32 433.52 586.78 401.85 582.32C398.15 581.9 394.3 580.95 390.83 579.32C376.39 572.74 368.45 556.5 371.61 541.02C375.04 517.59 386.03 442.78 389.38 419.92C390.55 413.39 391.08 404.05 393.54 397.74C396.31 390.44 401.74 384.26 408.43 380.33C415.15 376.36 423.23 374.93 430.92 376.01L518.97 389.09L540.98 392.36C544.7 392.83 548.651 393.82 552.091 395.48C562.711 400.43 570.391 410.97 571.711 422.62C572.231 426.44 571.881 430.34 571.281 434.11C567.871 457.54 557.12 532.39 553.6 555.22C552.41 561.76 551.85 571.1 549.31 577.4C543.63 591.96 527.17 600.6 511.99 598.13V598.14ZM512.17 596.91C526.65 599.19 541.4 589.8 546.07 576.16C548.15 570.55 548.88 560.78 549.94 554.69L553.16 532.67C554.14 525.64 567.52 438.38 568.18 433.66C570.33 423.15 567.2 411.82 559.41 404.35C555.62 400.65 550.91 397.89 545.79 396.49C542.61 395.6 522.23 392.81 518.5 392.21L430.44 379.17C423.45 378.21 416.14 379.51 410.05 383.13C403.99 386.72 399.08 392.31 396.6 398.92C394.44 404.52 393.68 414.3 392.6 420.4C389.2 443.11 377.94 518.15 374.45 541.45C371.38 555.8 378.461 570.84 391.841 577.13C395.131 578.7 398.52 579.61 402.16 580.09C433.7 585.1 480.441 592.22 512.151 596.92L512.17 596.91Z" fill="white"/>
    <path d="M396.301 582.01C405.001 587.95 414.701 592.98 425.211 594.51C446.361 597.29 475.001 600.82 496.251 603.69C506.941 605.08 517.851 606.56 528.551 608.02C538.781 609.52 549.841 609.16 559.171 604.42C568.561 599.82 574.181 590.23 575.961 580.16L577.241 573.78C585.391 531.44 593.491 488.11 601.041 445.57C601.541 442.51 601.421 439.36 600.661 436.35C598.871 429.44 596.081 421.87 589.771 418.06C585.961 415.89 576.451 411.16 572.441 409.06C564.701 405.12 556.871 401.31 549.071 397.48C548.331 397.12 548.031 396.23 548.391 395.5C548.751 394.77 549.641 394.47 550.371 394.82C561.201 400.44 580.421 410.21 590.921 415.97C599.521 420.74 605.131 436.6 603.441 445.95C596.631 485.83 588.851 534.98 581.461 574.57L580.241 580.99C578.301 592.32 571.761 603.18 561.231 608.39C551.031 613.6 539.251 614.16 528.131 612.6C517.411 611.18 506.491 609.77 495.791 608.29C474.441 605.34 445.861 601.52 424.621 598.41C413.571 596.55 403.401 590.71 395.451 582.96C395.201 582.71 395.201 582.3 395.451 582.06C395.681 581.83 396.041 581.82 396.291 582.01H396.301Z" fill="white"/>
    <path d="M492.911 460.83C495.221 444.24 477.801 431.94 463.101 440.08C448.941 448.07 449.951 467.75 463.231 476.27C463.971 476.68 464.311 477.58 463.961 478.34L441.131 529.19L438.691 524.46L481.971 533.72L480.541 535.1C480.541 535.1 473.511 479.82 473.511 479.81C473.421 479.13 473.921 478.51 474.601 478.44C479.151 478 483.511 475.92 486.791 472.75C490.101 469.59 492.241 465.31 492.911 460.83V460.83ZM495.661 461.29C493.961 471.47 485.111 479.73 474.881 480.91L475.971 479.52L483.001 534.79C483.111 535.57 482.421 536.28 481.631 536.18C481.571 536.21 437.671 531 437.611 531.02C435.391 530.8 434.061 528.22 435.171 526.29L461.201 477L461.931 479.07C443.471 472.55 441.721 447.57 457.451 436.82C475.581 424.61 499.381 439.72 495.681 461.3L495.661 461.29Z" fill="white"/>
    <path d="M456.822 378.91C462.452 351.18 475.292 301.27 506.902 294.01C511.872 292.94 517.042 293.2 521.912 294.34C525.372 294.5 531.292 296.8 534.522 299.88C545.292 309.55 544.702 325.6 542.492 338.66C541.032 347.44 539.442 356.21 537.712 364.95C536.002 373.69 534.152 382.41 532.062 391.08C531.612 392.75 529.062 392.21 529.452 390.44C533.662 373.21 537.012 355.75 539.902 338.23C541.312 329.7 542.022 320.73 539.402 312.43C537.042 304.35 530.042 297.74 521.552 297.01C489.942 289.99 474.622 327.1 467.042 351.51C464.282 360.72 462.112 370.11 460.392 379.58C459.952 381.89 456.412 381.33 456.822 378.91V378.91Z" fill="white"/>
    <path d="M431.791 375.59C435.061 362.7 438.341 349.83 442.101 337.08C444.021 330.71 445.931 324.34 448.201 318.07C450.551 311.77 452.851 305.4 456.821 299.85C470.221 280.62 490.461 264.62 514.671 263.41C560.881 260.39 583.111 303.37 573.361 344.43C569.631 362.16 565.561 380.18 561.301 397.77C560.991 398.87 559.341 398.69 559.451 397.43C562.111 378.44 566.311 357.62 570.101 338.74C573.561 319.9 570.131 299.06 557.691 284.06C549.561 274.08 537.351 267.85 524.541 266.76C497.451 263.33 473.701 279.71 458.681 301.19C454.921 306.46 452.691 312.79 450.451 318.87C448.281 325.09 446.311 331.41 444.581 337.79C441.091 350.55 438.061 363.45 435.471 376.42C434.981 378.84 431.221 378.16 431.791 375.59V375.59Z" fill="white"/>
    <path d="M872.45 898.7C860.63 909.69 841.26 925.34 824.81 926.79C817.85 927.25 813.55 922.79 814.26 915.82C815.14 907.61 819.37 900.3 823.62 893.48C832.43 880.05 843.74 868.41 856.36 858.53C864.91 852.03 874.01 846.11 884.33 842.7C899.75 837.62 907.37 845.35 901.13 860.59C894.83 875.42 883.9 887.68 872.45 898.7V898.7ZM871.14 897.32C882.51 886.11 898.3 868.47 900.5 852.35C901.41 836.16 878.37 848.17 871.47 852.55C858.21 860.82 846.38 871.38 835.97 883.01C829.15 890.77 822.64 899.19 818.64 908.74C813.31 921.89 818.63 927.58 832.18 923.17C847.03 918.04 859.7 907.91 871.13 897.32H871.14Z" fill="white"/>
    <path d="M894.16 843.4C894.28 843.43 740.31 763 742.4 763.83C736.6 764.28 740.66 771.33 742.07 774.56L744.44 779.49C761.97 815.17 795.01 881.07 812.95 917.3C813.1 917.61 812.98 917.99 812.67 918.14C812.36 918.29 811.99 918.17 811.83 917.87C789.69 875.59 762.71 823.59 741.28 781.04C739.9 778.12 737.55 773.9 736.57 770.82C735.42 767.74 735.53 762.94 739.2 761.56C740.48 761.08 741.83 760.88 743.15 761.3L895.26 841.27C895.84 841.58 896.07 842.3 895.76 842.88C895.45 843.46 894.73 843.69 894.15 843.38L894.16 843.4Z" fill="white"/>
</svg>
