<svg width="272" height="212" viewBox="0 0 272 212" fill="none" xmlns="http://www.w3.org/2000/svg">
    <g clip-path="url(#clip0_1377_2088)">
        <path d="M153.229 173.402L164.821 182.137L166.682 167.678L153.229 173.402Z" stroke="#B3B3B3" stroke-linecap="round" stroke-linejoin="round"/>
        <path d="M165.629 174.786L160.018 170.515L159.042 177.666L165.629 174.786Z" stroke="#B3B3B3" stroke-linecap="round" stroke-linejoin="round"/>
        <path d="M159.875 170.285L158.255 166.682" stroke="#B3B3B3" stroke-linecap="round" stroke-linejoin="round"/>
        <path d="M158.905 177.939L156.513 181.131" stroke="#B3B3B3" stroke-linecap="round" stroke-linejoin="round"/>
        <path d="M165.761 174.895L169.804 175.486" stroke="#B3B3B3" stroke-linecap="round" stroke-linejoin="round"/>
        <path d="M166.701 167.679L158.178 166.546L153.114 173.374L156.421 181.225L164.959 182.127L170.232 175.507L166.701 167.679Z" stroke="#B3B3B3" stroke-linecap="round" stroke-linejoin="round"/>
        <path d="M231.598 163.117C227.75 161.53 226.315 151.445 221.851 155.778C218.113 159.407 214.553 164.833 209.485 159.939C205.942 155.396 204.33 148.797 199.162 156.742C195.386 162.4 189.08 160.026 186.78 154.621C185.906 153.149 185.074 151.401 183.181 151.135C181.188 150.846 181.322 147.797 183.627 147.927C189.438 148.255 190.611 160.483 195.352 155.964C199.171 152.324 202.415 146.789 207.762 151.711C209.645 153.575 210.242 156.372 212.272 158.082C215.856 160.36 217.523 154.66 219.917 153.002C225.552 148.729 229.398 154.749 231.899 159.224C232.762 160.749 235.169 160.105 235.544 161.968C235.566 162.064 236.09 164.967 231.6 163.115L231.598 163.117Z" stroke="#B3B3B3" stroke-linecap="round" stroke-linejoin="round"/>
        <path d="M65.3295 77.7319C72.736 76.0499 78.384 73.1115 77.9446 71.169C77.5052 69.2264 71.1449 69.0153 63.7383 70.6973C56.3318 72.3794 50.6838 75.3177 51.1232 77.2602C51.5626 79.2028 57.9229 79.4139 65.3295 77.7319Z" stroke="#B3B3B3" stroke-linecap="round" stroke-linejoin="round"/>
        <path d="M65.0304 76.6901C71.8749 75.1357 77.1713 72.7606 76.8602 71.3853C76.5491 70.01 70.7484 70.1551 63.9038 71.7095C57.0593 73.264 51.7629 75.639 52.074 77.0143C52.3851 78.3896 58.1858 78.2445 65.0304 76.6901Z" stroke="#B3B3B3" stroke-linecap="round" stroke-linejoin="round"/>
        <path d="M89.8831 26.3228C94.7294 24.3943 98.1352 21.5116 97.4902 19.8842C96.8451 18.2568 92.3936 18.5009 87.5474 20.4295C82.7011 22.358 79.2953 25.2407 79.9403 26.8681C80.5853 28.4955 85.0369 28.2514 89.8831 26.3228Z" stroke="#B3B3B3" stroke-linecap="round" stroke-linejoin="round"/>
        <path d="M80.5703 27.5989L97.3892 45.1388C97.3892 45.1388 98.5965 45.7673 98.5325 43.797C98.4684 41.8268 97.9147 21.0786 97.9147 21.0786" stroke="#B3B3B3" stroke-linecap="round" stroke-linejoin="round"/>
        <path d="M69.7264 51.6819C68.1744 54.6769 65.694 56.0263 64.4716 55.8678C58.6971 55.1223 61.4393 46.9978 61.9573 45.5956C62.43 44.316 67.5755 35.2441 74.6421 38.192C81.7087 41.1398 80.0626 50.4212 78.9099 54.1164C77.7573 57.8116 74.5573 59.8838 71.4007 58.1192C68.2441 56.3547 69.9317 50.2438 71.2199 47.245C72.5082 44.2462 74.9999 45.924 74.9999 45.924C74.9999 45.924 76.1771 46.4146 74.6666 49.3851C73.1561 52.3556 73.4499 55.3318 73.8944 55.3884C74.3389 55.445 77.1583 51.0629 76.3993 46.4429C76.3993 46.4429 75.7043 40.619 71.51 41.1361C69.9373 41.3304 68.6961 42.0061 67.7186 42.8968C66.0895 44.3802 65.193 46.4562 64.709 47.8716C64.3436 48.9435 63.835 51.1497 64.8031 52.4047" stroke="#B3B3B3" stroke-linecap="round" stroke-linejoin="round"/>
        <path d="M70.6343 41.2908C70.6343 41.2908 71.6796 43.6178 71.2144 47.3149" stroke="#B3B3B3" stroke-linecap="round" stroke-linejoin="round"/>
        <path d="M64.5811 52.0518C64.5811 52.0518 66.973 51.3309 67.5173 47.1054C68.0616 42.8799 67.7207 42.8969 67.7207 42.8969" stroke="#B3B3B3" stroke-linecap="round" stroke-linejoin="round"/>
        <path d="M69.0802 38.1637C69.0802 38.1637 67.7015 35.146 63.6786 34.8535C59.6556 34.5609 54.48 37.9598 53.0486 42.0702C51.6172 46.1806 51.4891 50.6854 54.674 52.2273C54.674 52.2273 58.9512 53.4955 61.0757 48.6642" stroke="#B3B3B3" stroke-linecap="round" stroke-linejoin="round"/>
        <path d="M66.127 40.0414C66.127 40.0414 65.0817 37.9749 62.1115 38.2693C59.1414 38.5637 56.3483 42.7251 55.8981 44.4745C55.448 46.224 54.8811 48.8642 55.9622 49.2303" stroke="#B3B3B3" stroke-linecap="round" stroke-linejoin="round"/>
        <path d="M62.2582 44.9577C62.2582 44.9577 62.8477 41.304 62.1094 38.2693" stroke="#B3B3B3" stroke-linecap="round" stroke-linejoin="round"/>
        <path d="M58.7948 40.0527C58.7948 40.0527 59.5067 42.4986 59.0302 44.3575C58.5537 46.2164 57.1807 49.0567 55.5591 48.8869" stroke="#B3B3B3" stroke-linecap="round" stroke-linejoin="round"/>
        <path d="M60.4572 35.3007C60.4572 35.3007 58.9599 31.9018 53.9424 31.9716C48.9231 32.0414 45.4878 37.7012 44.4783 40.2848C43.4688 42.8666 42.6457 47.5091 46.0547 49.0793C49.4618 50.6495 52.1212 46.2598 52.1212 46.2598" stroke="#B3B3B3" stroke-linecap="round" stroke-linejoin="round"/>
        <path d="M57.5738 36.6917C57.5738 36.6917 55.1291 34.6534 52.9896 35.5084C50.85 36.3614 47.8252 38.7657 47.279 42.159C47.279 42.159 46.569 45.0785 47.9778 46.3901" stroke="#B3B3B3" stroke-linecap="round" stroke-linejoin="round"/>
        <path d="M50.4847 37.0143C50.4847 37.0143 51.1157 39.5621 50.6655 41.3116C50.2154 43.061 49.4733 45.7956 47.6182 45.9504" stroke="#B3B3B3" stroke-linecap="round" stroke-linejoin="round"/>
        <path d="M53.7583 35.4215C53.7583 35.4215 54.5418 38.8846 53.9353 40.2698" stroke="#B3B3B3" stroke-linecap="round" stroke-linejoin="round"/>
        <path d="M51.8786 32.1434C51.8786 32.1434 49.1891 28.235 44.2998 29.4126C39.4104 30.5902 37.8152 34.2269 37.8152 34.2269C37.8152 34.2269 36.4271 36.6633 37.7794 37.339C39.1317 38.0146 39.9698 36.7652 41.3089 35.1309C42.648 33.4966 44.5729 32.3623 46.3583 32.6058C48.1438 32.8492 48.9499 34.0061 48.9499 34.0061" stroke="#B3B3B3" stroke-linecap="round" stroke-linejoin="round"/>
        <path d="M196.426 140.669C200.661 140.113 203.952 138.577 203.777 137.24C203.602 135.903 200.027 135.27 195.792 135.826C191.557 136.383 188.266 137.918 188.441 139.255C188.616 140.592 192.191 141.225 196.426 140.669Z" stroke="#B3B3B3" stroke-linecap="round" stroke-linejoin="round"/>
        <path d="M117.785 165.369C66.972 140.257 92.1175 58.5117 93.1534 58.3117C115.397 54.0258 139.853 45.8654 141.228 44.7425C142.296 46.0013 156.286 56.4584 161.12 60.0743C167.714 65.0076 173.148 67.4364 181.053 72.1168C171.505 162.038 117.785 165.369 117.785 165.369V165.369Z" stroke="#B3B3B3" stroke-linecap="round" stroke-linejoin="round"/>
        <path d="M119.011 156.893C75.9863 135.379 97.4365 65.0226 98.3161 64.849C117.177 61.1236 137.919 54.0635 139.085 53.0953C139.987 54.1767 151.826 63.1467 155.919 66.2493C161.499 70.4805 166.1 72.5621 172.792 76.5744C164.548 153.936 119.011 156.893 119.011 156.893V156.893Z" stroke="#B3B3B3" stroke-linecap="round" stroke-linejoin="round"/>
        <path d="M141.275 44.7255L151.085 47.6526C151.085 47.6526 175.784 67.1628 189.362 74.0908C189.362 74.0908 187.39 156.687 127.268 168.139L117.785 165.37" stroke="#B3B3B3" stroke-linecap="round" stroke-linejoin="round"/>
        <path d="M181.053 72.1168L189.362 74.0889" stroke="#B3B3B3" stroke-linecap="round" stroke-linejoin="round"/>
        <path d="M133.4 131.344L112.389 128.22C111.679 128.115 111.014 127.892 110.413 127.577C108.136 126.38 106.752 123.836 107.151 121.143L111.008 95.0843C111.513 91.6797 114.673 89.3301 118.071 89.8359L139.082 92.9593C139.798 93.0649 140.467 93.2895 141.073 93.6104C143.341 94.8087 144.719 97.349 144.322 100.036L140.465 126.095C139.96 129.5 136.8 131.849 133.402 131.344H133.4Z" stroke="#B3B3B3" stroke-linecap="round" stroke-linejoin="round"/>
        <path d="M111.515 128.507C111.515 128.507 114.116 130.811 117.214 131.179C118.276 131.306 136.091 133.727 136.581 133.773C137.071 133.818 144.444 135.15 145.814 128.26C147.015 122.206 149.733 106.474 150.375 102.748C150.481 102.137 150.462 101.51 150.315 100.906C150.038 99.759 149.417 97.9831 148.136 97.2735C146.175 96.1865 140.493 93.3405 140.493 93.3405" stroke="#B3B3B3" stroke-linecap="round" stroke-linejoin="round"/>
        <path d="M130.05 105.591C130.43 103.286 128.872 101.108 126.573 100.727C124.273 100.346 122.1 101.907 121.719 104.211C121.405 106.117 122.416 107.936 124.077 108.723L119.476 118.173L127.692 119.533L126.368 109.103C128.193 108.893 129.735 107.497 130.05 105.591V105.591Z" stroke="#B3B3B3" stroke-linecap="round" stroke-linejoin="round"/>
        <path d="M123.33 90.1492C124.332 84.7536 127.473 72.5791 135.195 74.3738C135.195 74.3738 140.179 74.5625 138.93 82.1832C138.126 87.0862 137.363 90.5059 136.92 92.3214" stroke="#B3B3B3" stroke-linecap="round" stroke-linejoin="round"/>
        <path d="M118.625 89.5397C119.55 85.4331 121.446 77.7105 123.087 75.4043C125.686 71.7544 129.839 67.8743 136.195 68.6631C142.55 69.452 146.11 75.9667 144.637 83.0608C143.546 88.313 142.772 92.1025 142.497 93.6142" stroke="#B3B3B3" stroke-linecap="round" stroke-linejoin="round"/>
        <path d="M201.15 188.049C205.436 183.969 207.805 179.494 206.44 178.055C205.075 176.615 200.494 178.756 196.207 182.836C191.921 186.917 189.552 191.391 190.917 192.831C192.282 194.271 196.863 192.13 201.15 188.049Z" stroke="#B3B3B3" stroke-linecap="round" stroke-linejoin="round"/>
        <path d="M205.468 177.547L176.806 162.477C176.806 162.477 175.271 162.326 176.167 164.374C177.064 166.42 189.963 191.746 189.963 191.746" stroke="#B3B3B3" stroke-linecap="round" stroke-linejoin="round"/>
    </g>
    <defs>
        <clipPath id="clip0_1377_2088">
            <rect width="272" height="212" fill="white"/>
        </clipPath>
    </defs>
</svg>
