<svg viewBox="0 0 136 108" fill="none" xmlns="http://www.w3.org/2000/svg">
    <g clip-path="url(#clip0_1418_2275)">
        <path d="M76.6141 87.7013L82.4104 92.0684L83.3408 84.8394L76.6141 87.7013Z" stroke="#B3B3B3" stroke-linecap="round" stroke-linejoin="round"/>
        <path d="M82.8143 88.393L80.0089 86.2576L79.5211 89.8329L82.8143 88.393Z" stroke="#B3B3B3" stroke-linecap="round" stroke-linejoin="round"/>
        <path d="M79.9375 86.1424L79.1276 84.3411" stroke="#B3B3B3" stroke-linecap="round" stroke-linejoin="round"/>
        <path d="M79.4525 89.9697L78.2565 91.5654" stroke="#B3B3B3" stroke-linecap="round" stroke-linejoin="round"/>
        <path d="M82.8802 88.4478L84.9021 88.7431" stroke="#B3B3B3" stroke-linecap="round" stroke-linejoin="round"/>
        <path d="M83.3503 84.8394L79.0891 84.2732L76.5568 87.6872L78.2105 91.6126L82.4792 92.0637L85.116 88.7535L83.3503 84.8394Z" stroke="#B3B3B3" stroke-linecap="round" stroke-linejoin="round"/>
        <path d="M115.799 82.5586C113.875 81.765 113.157 76.7223 110.925 78.8889C109.056 80.7035 107.276 83.4164 104.742 80.9696C102.971 78.6983 102.165 75.3985 99.5807 79.3711C97.6925 82.2 94.5397 81.013 93.3899 78.3105C92.9529 77.5744 92.5367 76.7006 91.5903 76.5676C90.594 76.4232 90.6608 74.8983 91.8135 74.9635C94.7186 75.1276 95.3053 81.2413 97.6756 78.9823C99.5854 77.1621 101.207 74.3945 103.881 76.8554C104.822 77.7877 105.121 79.1861 106.136 80.041C107.928 81.18 108.761 78.3303 109.958 77.5008C112.776 75.3645 114.699 78.3746 115.949 80.6119C116.381 81.3744 117.584 81.0526 117.772 81.9839C117.783 82.0321 118.045 83.4833 115.8 82.5577L115.799 82.5586Z" stroke="#B3B3B3" stroke-linecap="round" stroke-linejoin="round"/>
        <path d="M32.6646 39.8659C36.3679 39.0249 39.1919 37.5558 38.9722 36.5845C38.7525 35.6132 35.5723 35.5076 31.869 36.3487C28.1658 37.1897 25.3418 38.6588 25.5615 39.6301C25.7812 40.6014 28.9613 40.707 32.6646 39.8659Z" stroke="#B3B3B3" stroke-linecap="round" stroke-linejoin="round"/>
        <path d="M32.5151 39.345C35.9374 38.5678 38.5856 37.3803 38.43 36.6926C38.2745 36.005 35.3741 36.0776 31.9519 36.8548C28.5296 37.632 25.8814 38.8195 26.0369 39.5072C26.1925 40.1948 29.0929 40.1222 32.5151 39.345Z" stroke="#B3B3B3" stroke-linecap="round" stroke-linejoin="round"/>
        <path d="M44.9416 14.1615C47.3647 13.1972 49.0676 11.7559 48.7451 10.9422C48.4226 10.1285 46.1968 10.2505 43.7737 11.2148C41.3506 12.1791 39.6477 13.6204 39.9702 14.4341C40.2927 15.2478 42.5184 15.1257 44.9416 14.1615Z" stroke="#B3B3B3" stroke-linecap="round" stroke-linejoin="round"/>
        <path d="M40.2852 14.7995L48.6946 23.5695C48.6946 23.5695 49.2982 23.8837 49.2662 22.8985C49.2342 21.9134 48.9574 11.5393 48.9574 11.5393" stroke="#B3B3B3" stroke-linecap="round" stroke-linejoin="round"/>
        <path d="M34.863 26.8409C34.087 28.3385 32.8468 29.0131 32.2356 28.9339C29.3484 28.5612 30.7195 24.4989 30.9785 23.7978C31.2148 23.158 33.7876 18.6221 37.3209 20.096C40.8542 21.5699 40.0311 26.2106 39.4548 28.0582C38.8784 29.9058 37.2785 30.9419 35.7002 30.0596C34.1219 29.1773 34.9656 26.1219 35.6098 24.6225C36.2539 23.1231 37.4998 23.962 37.4998 23.962C37.4998 23.962 38.0884 24.2073 37.3331 25.6926C36.5779 27.1778 36.7248 28.6659 36.947 28.6942C37.1692 28.7225 38.579 26.5314 38.1995 24.2215C38.1995 24.2215 37.852 21.3095 35.7548 21.568C34.9685 21.6652 34.3479 22.003 33.8591 22.4484C33.0446 23.1901 32.5963 24.2281 32.3543 24.9358C32.1716 25.4718 31.9173 26.5748 32.4014 27.2024" stroke="#B3B3B3" stroke-linecap="round" stroke-linejoin="round"/>
        <path d="M35.317 21.6454C35.317 21.6454 35.8396 22.8089 35.607 24.6574" stroke="#B3B3B3" stroke-linecap="round" stroke-linejoin="round"/>
        <path d="M32.2903 27.0259C32.2903 27.0259 33.4863 26.6654 33.7584 24.5527C34.0306 22.4399 33.8601 22.4484 33.8601 22.4484" stroke="#B3B3B3" stroke-linecap="round" stroke-linejoin="round"/>
        <path d="M34.5399 20.0819C34.5399 20.0819 33.8506 18.573 31.8391 18.4268C29.8276 18.2805 27.2398 19.9799 26.5241 22.0351C25.8084 24.0903 25.7444 26.3427 27.3368 27.1137C27.3368 27.1137 29.4754 27.7478 30.5377 25.3321" stroke="#B3B3B3" stroke-linecap="round" stroke-linejoin="round"/>
        <path d="M33.0632 21.0207C33.0632 21.0207 32.5406 19.9875 31.0555 20.1347C29.5704 20.2819 28.1739 22.3625 27.9488 23.2373C27.7237 24.112 27.4403 25.4321 27.9808 25.6152" stroke="#B3B3B3" stroke-linecap="round" stroke-linejoin="round"/>
        <path d="M31.1289 23.4788C31.1289 23.4788 31.4237 21.652 31.0545 20.1346" stroke="#B3B3B3" stroke-linecap="round" stroke-linejoin="round"/>
        <path d="M29.3973 21.0264C29.3973 21.0264 29.7532 22.2493 29.515 23.1788C29.2767 24.1082 28.5902 25.5284 27.7794 25.4434" stroke="#B3B3B3" stroke-linecap="round" stroke-linejoin="round"/>
        <path d="M30.2285 18.6504C30.2285 18.6504 29.4799 16.9509 26.9712 16.9858C24.4615 17.0207 22.7438 19.8506 22.2391 21.1424C21.7343 22.4333 21.3228 24.7546 23.0273 25.5397C24.7308 26.3248 26.0605 24.1299 26.0605 24.1299" stroke="#B3B3B3" stroke-linecap="round" stroke-linejoin="round"/>
        <path d="M28.7867 19.3458C28.7867 19.3458 27.5644 18.3267 26.4946 18.7541C25.4248 19.1807 23.9124 20.3828 23.6393 22.0794C23.6393 22.0794 23.2843 23.5392 23.9887 24.195" stroke="#B3B3B3" stroke-linecap="round" stroke-linejoin="round"/>
        <path d="M25.2423 19.5071C25.2423 19.5071 25.5578 20.781 25.3327 21.6558C25.1076 22.5305 24.7366 23.8978 23.809 23.9752" stroke="#B3B3B3" stroke-linecap="round" stroke-linejoin="round"/>
        <path d="M26.879 18.7108C26.879 18.7108 27.2708 20.4423 26.9675 21.1349" stroke="#B3B3B3" stroke-linecap="round" stroke-linejoin="round"/>
        <path d="M25.9392 17.0717C25.9392 17.0717 24.5944 15.1175 22.1498 15.7063C19.7051 16.2951 18.9075 18.1135 18.9075 18.1135C18.9075 18.1135 18.2134 19.3317 18.8896 19.6695C19.5657 20.0073 19.9848 19.3826 20.6543 18.5654C21.3239 17.7483 22.2863 17.1812 23.179 17.3029C24.0718 17.4246 24.4748 18.0031 24.4748 18.0031" stroke="#B3B3B3" stroke-linecap="round" stroke-linejoin="round"/>
        <path d="M98.2128 71.3345C100.33 71.0563 101.976 70.2888 101.888 69.6201C101.801 68.9515 100.013 68.635 97.896 68.9132C95.7786 69.1914 94.1331 69.9589 94.2206 70.6275C94.3081 71.2962 96.0954 71.6127 98.2128 71.3345Z" stroke="#B3B3B3" stroke-linecap="round" stroke-linejoin="round"/>
        <path d="M58.8923 83.6843C33.4859 71.1286 46.0586 30.2559 46.5766 30.1559C57.6982 28.0129 69.9263 23.9327 70.6137 23.3713C71.1477 24.0007 78.1427 29.2292 80.56 31.0372C83.857 33.5038 86.5738 34.7182 90.5261 37.0584C85.7526 82.0188 58.8923 83.6843 58.8923 83.6843V83.6843Z" stroke="#B3B3B3" stroke-linecap="round" stroke-linejoin="round"/>
        <path d="M59.5055 79.4465C37.9931 68.6893 48.7182 33.5114 49.158 33.4246C58.5883 31.5619 68.9593 28.0318 69.5422 27.5477C69.9933 28.0884 75.9129 32.5734 77.9592 34.1247C80.7495 36.2403 83.0501 37.2811 86.396 39.2872C82.2741 77.9679 59.5055 79.4465 59.5055 79.4465V79.4465Z" stroke="#B3B3B3" stroke-linecap="round" stroke-linejoin="round"/>
        <path d="M70.6371 23.3628L75.5425 24.8263C75.5425 24.8263 87.8921 34.5814 94.6808 38.0454C94.6808 38.0454 93.6949 79.3437 63.6337 85.0696L58.8922 83.6853" stroke="#B3B3B3" stroke-linecap="round" stroke-linejoin="round"/>
        <path d="M90.5261 37.0584L94.6809 38.0445" stroke="#B3B3B3" stroke-linecap="round" stroke-linejoin="round"/>
        <path d="M66.7 66.6718L56.1943 65.1102C55.8392 65.0573 55.5068 64.946 55.2064 64.7884C54.0679 64.1901 53.3757 62.9181 53.5754 61.5716L55.504 48.5422C55.7564 46.8399 57.3366 45.6651 59.0354 45.918L69.5411 47.4797C69.899 47.5325 70.2333 47.6448 70.5365 47.8052C71.6703 48.4044 72.3596 49.6745 72.1609 51.0182L70.2323 64.0477C69.9799 65.7499 68.3997 66.9247 66.7009 66.6718H66.7Z" stroke="#B3B3B3" stroke-linecap="round" stroke-linejoin="round"/>
        <path d="M55.7573 65.2536C55.7573 65.2536 57.0578 66.4058 58.6069 66.5898C59.1381 66.653 68.0457 67.8636 68.2905 67.8863C68.5354 67.9089 72.2222 68.5751 72.9068 65.13C73.5076 62.1029 74.8665 54.2369 75.1876 52.3742C75.2403 52.0685 75.2309 51.7552 75.1575 51.4532C75.019 50.8795 74.7083 49.9916 74.0679 49.6368C73.0876 49.0933 70.2465 47.6703 70.2465 47.6703" stroke="#B3B3B3" stroke-linecap="round" stroke-linejoin="round"/>
        <path d="M65.0249 53.7953C65.2151 52.6432 64.4363 51.5542 63.2865 51.3636C62.1366 51.173 61.0499 51.9534 60.8597 53.1055C60.7024 54.0586 61.2081 54.9682 62.0387 55.3617L59.7381 60.0864L63.8458 60.7667L63.1838 55.5514C64.0963 55.4466 64.8676 54.7484 65.0249 53.7953V53.7953Z" stroke="#B3B3B3" stroke-linecap="round" stroke-linejoin="round"/>
        <path d="M61.6646 46.0747C62.1656 43.3769 63.7364 37.2896 67.5974 38.187C67.5974 38.187 70.0891 38.2813 69.4648 42.0917C69.0627 44.5432 68.6813 46.253 68.46 47.1608" stroke="#B3B3B3" stroke-linecap="round" stroke-linejoin="round"/>
        <path d="M59.3124 45.7699C59.7748 43.7166 60.7231 39.8553 61.5433 38.7022C62.8428 36.8772 64.9193 34.9372 68.0976 35.3316C71.2749 35.726 73.0547 38.9834 72.3183 42.5304C71.7731 45.1565 71.386 47.0513 71.2485 47.8071" stroke="#B3B3B3" stroke-linecap="round" stroke-linejoin="round"/>
        <path d="M100.575 95.0247C102.718 92.9845 103.902 90.7472 103.22 90.0274C102.537 89.3076 100.247 90.378 98.1034 92.4182C95.9601 94.4583 94.7758 96.6957 95.4582 97.4155C96.1406 98.1352 98.4312 97.0649 100.575 95.0247Z" stroke="#B3B3B3" stroke-linecap="round" stroke-linejoin="round"/>
        <path d="M102.734 89.7734L88.4028 82.2387C88.4028 82.2387 87.6353 82.1632 88.0835 83.187C88.5318 84.2099 94.9815 96.8732 94.9815 96.8732" stroke="#B3B3B3" stroke-linecap="round" stroke-linejoin="round"/>
    </g>
    <defs>
        <clipPath id="clip0_1418_2275">
            <rect width="136" height="108" fill="white"/>
        </clipPath>
    </defs>
</svg>
