<svg viewBox="0 0 22 22" fill="none" xmlns="http://www.w3.org/2000/svg">
    <path d="M21.9787 9.81122C21.857 6.30222 20.9364 3.4766 18.856 1.93385C16.7757 0.391099 13.6496 -0.143088 9.72191 0.0432244C7.93509 0.129162 6.32703 0.362224 5.02009 0.884724C3.67397 1.4251 2.63172 2.18822 1.86928 3.24835C0.336845 5.37891 -0.136155 8.59779 0.0322829 12.3041C0.193158 15.8241 1.10272 18.6098 3.20853 20.1278C5.30334 21.639 8.70509 22.1188 12.2932 21.9648C15.774 21.8177 18.6023 20.8978 20.1169 18.7886C21.628 16.6828 22.1079 13.5787 21.9787 9.81191V9.81122ZM6.05134 13.5388H5.59691V12.5647H6.05134C6.91759 12.5647 7.55147 11.895 7.55147 11.0645C7.55156 10.8675 7.51282 10.6724 7.43746 10.4904C7.36211 10.3083 7.25161 10.1429 7.1123 10.0036C6.97298 9.86427 6.80757 9.75377 6.62552 9.67842C6.44348 9.60306 6.24837 9.56432 6.05134 9.56441H4.58697C4.56112 9.5644 4.53596 9.57277 4.51526 9.58827C4.49456 9.60376 4.47944 9.62554 4.47216 9.65035V14.9675H3.52685V9.65035C3.52685 9.06666 4.00328 8.59022 4.58697 8.59022H6.05134C7.41947 8.59022 8.55041 9.70054 8.55041 11.0645C8.55041 12.4327 7.49441 13.5388 6.05134 13.5388ZM14.0291 13.5388H13.0728V10.993C13.0515 10.2732 12.2883 9.55685 11.4757 9.55685C10.5627 9.55685 9.8931 10.3372 9.8931 11.0645C9.8931 12.0992 10.6198 12.5722 11.4757 12.5722H11.816V13.5388H11.4757C10.0684 13.5388 8.92234 12.6362 8.92234 11.0645C8.92234 9.78647 10.0684 8.59022 11.4757 8.59022C12.7503 8.59022 13.9892 9.66066 14.0291 10.993V13.5388ZM15.2432 8.75454L16.4897 11.3113L15.9493 12.4107L14.1625 8.75454H15.2432ZM16.3996 15.1428H15.3147L18.4552 8.75454H19.5401L16.3996 15.1428Z" fill="#181818"/>
</svg>
