<svg viewBox="0 0 98 120" fill="none" xmlns="http://www.w3.org/2000/svg">
    <path d="M0 26.1201L14.532 52.0951V67.9391L0.017 93.8631L0 26.1201Z" fill="#5B57A2"/>
    <path d="M55.7971 42.643L69.4141 34.297L97.2821 34.271L55.7971 59.685V42.643Z" fill="#D90751"/>
    <path d="M55.72 25.967L55.797 60.357L41.231 51.407V0L55.721 25.967H55.72Z" fill="#FAB718"/>
    <path d="M97.282 34.271L69.413 34.297L55.72 25.967L41.231 0L97.281 34.271H97.282Z" fill="#ED6F26"/>
    <path d="M55.797 94.007V77.322L41.231 68.542L41.239 120L55.797 94.007Z" fill="#63B22F"/>
    <path d="M69.38 85.7371L14.531 52.0951L0 26.1201L97.223 85.7031L69.379 85.7371H69.38Z" fill="#1487C9"/>
    <path d="M41.24 120L55.796 94.0071L69.379 85.7371L97.222 85.7031L41.24 120Z" fill="#017F36"/>
    <path d="M0.0170898 93.8631L41.3501 68.5431L27.4541 60.0171L14.5321 67.9391L0.0170898 93.8631Z" fill="#984995"/>
</svg>
