<svg viewBox="0 0 242 144" fill="none" xmlns="http://www.w3.org/2000/svg">
    <path d="M174.681 19.7052L190.309 24.6343L186.86 8.53534L174.681 19.7052Z" stroke="#B3B3B3" stroke-linecap="round" stroke-linejoin="round"/>
    <path d="M188.407 16.5012L180.828 14.07L182.475 22.0528L188.407 16.5012Z" stroke="#B3B3B3" stroke-linecap="round" stroke-linejoin="round"/>
    <path d="M180.588 13.8796L177.51 10.6526" stroke="#B3B3B3" stroke-linecap="round" stroke-linejoin="round"/>
    <path d="M182.432 22.3955L181.083 26.6982" stroke="#B3B3B3" stroke-linecap="round" stroke-linejoin="round"/>
    <path d="M188.589 16.5678L193.119 15.6749" stroke="#B3B3B3" stroke-linecap="round" stroke-linejoin="round"/>
    <path d="M186.879 8.52789L177.377 10.5364L174.548 19.7206L181.02 26.8334L190.451 24.5735L193.581 15.534L186.879 8.52789Z" stroke="#B3B3B3" stroke-linecap="round" stroke-linejoin="round"/>
    <path d="M235.022 63.2926C235.324 61.0078 228.51 58.2181 219.802 57.0616C211.094 55.9051 203.79 56.8198 203.488 59.1046C203.186 61.3895 210 64.1792 218.708 65.3357C227.416 66.4922 234.72 65.5775 235.022 63.2926Z" stroke="#B3B3B3" stroke-linecap="round" stroke-linejoin="round"/>
    <path d="M233.756 63.0896C233.97 61.4719 227.62 59.2941 219.573 58.2253C211.526 57.1565 204.828 57.6016 204.614 59.2193C204.401 60.837 210.751 63.0148 218.798 64.0836C226.845 65.1523 233.542 64.7073 233.756 63.0896Z" stroke="#B3B3B3" stroke-linecap="round" stroke-linejoin="round"/>
    <path d="M38.1724 141.272C40.3251 140.043 39.1032 133.829 35.4433 127.391C31.7834 120.954 27.0714 116.732 24.9188 117.961C22.7661 119.189 23.9879 125.404 27.6478 131.841C31.3077 138.279 36.0197 142.501 38.1724 141.272Z" stroke="#B3B3B3" stroke-linecap="round" stroke-linejoin="round"/>
    <path d="M39.0902 140.228L60.3436 113.102C60.3436 113.102 60.9859 111.28 58.2385 111.758C55.4911 112.235 26.5312 117.115 26.5312 117.115" stroke="#B3B3B3" stroke-linecap="round" stroke-linejoin="round"/>
    <path d="M19.7086 72.4797C20.1336 70.8283 16.2385 68.394 11.0086 67.0426C5.77872 65.6912 1.19454 65.9345 0.769538 67.586C0.344534 69.2374 4.23964 71.6717 9.46951 73.023C14.6994 74.3744 19.2836 74.1312 19.7086 72.4797Z" stroke="#B3B3B3" stroke-linecap="round" stroke-linejoin="round"/>
    <path d="M237.325 35.5332C239.561 34.305 238.409 27.8904 234.752 21.2057C231.095 14.521 226.318 10.0977 224.082 11.3258C221.846 12.554 222.998 18.9686 226.655 25.6533C230.312 32.338 235.089 36.7613 237.325 35.5332Z" stroke="#B3B3B3" stroke-linecap="round" stroke-linejoin="round"/>
    <path d="M223.122 12.3535L194.999 43.1291C194.999 43.1291 194.307 44.993 197.142 44.5475C199.977 44.102 235.657 36.3457 235.657 36.3457" stroke="#B3B3B3" stroke-linecap="round" stroke-linejoin="round"/>
    <path d="M54.3673 98.9279C48.4336 97.9855 43.0566 84.2987 38.2287 91.8798C34.1855 98.2291 30.9935 107.04 22.244 101.864C15.7536 96.668 11.2905 87.9389 6.67921 100.826C3.25921 110.037 -0.310886 106.836 1.06851 101.011C2.82411 93.5914 7.93131 85.759 17.0817 90.8822C20.3497 92.8717 22.1186 96.5994 25.5424 98.3224C31.3374 100.323 31.7763 91.7599 34.5864 88.628C41.0768 80.7404 48.4868 87.9103 53.4895 93.3572C55.2109 95.2096 58.3763 93.5019 59.5239 95.9921C59.5885 96.1197 61.2909 100.023 54.3673 98.9241V98.9279Z" stroke="#B3B3B3" stroke-linecap="round" stroke-linejoin="round"/>
    <path d="M162.216 86.1333L84.1889 72.7645C82.4029 72.458 81.1167 70.7826 81.1927 68.8597L81.7721 54.103C81.8614 51.8146 83.8166 50.1164 85.9427 50.48L163.97 63.8488C165.756 64.1553 167.042 65.8307 166.966 67.7536L166.387 82.5103C166.297 84.7987 164.342 86.497 162.216 86.1333Z" stroke="#B3B3B3" stroke-linecap="round" stroke-linejoin="round"/>
    <path d="M82.5981 51.8184L100.897 35.1807C100.897 35.1807 101.475 34.0803 104.355 34.0651L183.821 47.491C185.641 47.7975 186.95 49.4748 186.874 51.3977L186.294 66.1544C186.205 68.4428 185.5 68.8559 182.259 71.2891L164.469 85.7354" stroke="#B3B3B3" stroke-linecap="round" stroke-linejoin="round"/>
    <path d="M167.831 63.2338L184.68 49.7126" stroke="#B3B3B3" stroke-linecap="round" stroke-linejoin="round"/>
    <path d="M90.5028 65.4043C92.3475 65.4043 93.843 63.9058 93.843 62.0573C93.843 60.2088 92.3475 58.7103 90.5028 58.7103C88.6581 58.7103 87.1626 60.2088 87.1626 62.0573C87.1626 63.9058 88.6581 65.4043 90.5028 65.4043Z" stroke="#B3B3B3" stroke-linecap="round" stroke-linejoin="round"/>
    <path d="M100.368 67.0739C102.212 67.0739 103.708 65.5754 103.708 63.727C103.708 61.8785 102.212 60.38 100.368 60.38C98.5228 60.38 97.0273 61.8785 97.0273 63.727C97.0273 65.5754 98.5228 67.0739 100.368 67.0739Z" stroke="#B3B3B3" stroke-linecap="round" stroke-linejoin="round"/>
    <path d="M110.145 68.4447C111.99 68.4447 113.485 66.9462 113.485 65.0978C113.485 63.2493 111.99 61.7508 110.145 61.7508C108.3 61.7508 106.805 63.2493 106.805 65.0978C106.805 66.9462 108.3 68.4447 110.145 68.4447Z" stroke="#B3B3B3" stroke-linecap="round" stroke-linejoin="round"/>
    <path d="M158.735 70.8206L130.425 65.7582C129.555 65.6021 128.933 64.8273 128.968 63.9439L128.981 63.624C129.023 62.5484 130.003 61.7602 131.06 61.9486L159.37 67.011C160.24 67.1671 160.861 67.942 160.827 68.8253L160.814 69.1452C160.772 70.2209 159.791 71.009 158.735 70.8206V70.8206Z" stroke="#B3B3B3" stroke-linecap="round" stroke-linejoin="round"/>
    <path d="M158.521 76.3133L130.211 71.251C129.34 71.0949 128.719 70.32 128.753 69.4366L128.767 69.1168C128.808 68.0411 129.789 67.2529 130.845 67.4414L159.155 72.5037C160.025 72.6598 160.647 73.4347 160.612 74.3181L160.599 74.6379C160.557 75.7136 159.577 76.5018 158.521 76.3133V76.3133Z" stroke="#B3B3B3" stroke-linecap="round" stroke-linejoin="round"/>
    <path d="M158.304 81.806L129.994 76.7437C129.124 76.5875 128.502 75.8127 128.537 74.9293L128.55 74.6094C128.592 73.5338 129.572 72.7456 130.628 72.9341L158.938 77.9964C159.809 78.1525 160.43 78.9274 160.396 79.8108L160.382 80.1306C160.341 81.2063 159.36 81.9945 158.304 81.806V81.806Z" stroke="#B3B3B3" stroke-linecap="round" stroke-linejoin="round"/>
    <path d="M160.81 111.889L82.7827 98.5203C80.9967 98.2138 79.7104 96.5384 79.7864 94.6155L80.3659 79.8588C80.4552 77.5704 82.4103 75.8722 84.5364 76.2358L162.564 89.6046C164.35 89.9111 165.636 91.5865 165.56 93.5094L164.981 108.266C164.891 110.555 162.936 112.253 160.81 111.889Z" stroke="#B3B3B3" stroke-linecap="round" stroke-linejoin="round"/>
    <path d="M182.416 73.2449C184.237 73.5514 185.546 75.2287 185.47 77.1516L184.89 91.9083C184.801 94.1967 184.096 94.6098 180.855 97.0429L163.065 111.489" stroke="#B3B3B3" stroke-linecap="round" stroke-linejoin="round"/>
    <path d="M81.1943 77.5723L85.2869 74.0768" stroke="#B3B3B3" stroke-linecap="round" stroke-linejoin="round"/>
    <path d="M166.426 88.9897L183.275 75.4667" stroke="#B3B3B3" stroke-linecap="round" stroke-linejoin="round"/>
    <path d="M89.0985 91.16C90.9432 91.16 92.4387 89.6616 92.4387 87.8131C92.4387 85.9646 90.9432 84.4661 89.0985 84.4661C87.2538 84.4661 85.7583 85.9646 85.7583 87.8131C85.7583 89.6616 87.2538 91.16 89.0985 91.16Z" stroke="#B3B3B3" stroke-linecap="round" stroke-linejoin="round"/>
    <path d="M98.9632 92.8297C100.808 92.8297 102.303 91.3312 102.303 89.4828C102.303 87.6343 100.808 86.1358 98.9632 86.1358C97.1185 86.1358 95.623 87.6343 95.623 89.4828C95.623 91.3312 97.1185 92.8297 98.9632 92.8297Z" stroke="#B3B3B3" stroke-linecap="round" stroke-linejoin="round"/>
    <path d="M108.74 94.2005C110.585 94.2005 112.08 92.702 112.08 90.8536C112.08 89.0051 110.585 87.5066 108.74 87.5066C106.895 87.5066 105.4 89.0051 105.4 90.8536C105.4 92.702 106.895 94.2005 108.74 94.2005Z" stroke="#B3B3B3" stroke-linecap="round" stroke-linejoin="round"/>
    <path d="M157.331 96.5765L129.021 91.5142C128.151 91.3581 127.53 90.5832 127.564 89.6998L127.577 89.38C127.619 88.3043 128.599 87.5161 129.656 87.7046L157.966 92.7669C158.836 92.923 159.457 93.6979 159.423 94.5813L159.41 94.9011C159.368 95.9768 158.388 96.765 157.331 96.5765V96.5765Z" stroke="#B3B3B3" stroke-linecap="round" stroke-linejoin="round"/>
    <path d="M157.116 102.069L128.806 97.0068C127.936 96.8507 127.315 96.0758 127.349 95.1924L127.362 94.8726C127.404 93.7969 128.385 93.0087 129.441 93.1972L157.751 98.2595C158.621 98.4156 159.242 99.1905 159.208 100.074L159.195 100.394C159.153 101.469 158.173 102.258 157.116 102.069V102.069Z" stroke="#B3B3B3" stroke-linecap="round" stroke-linejoin="round"/>
    <path d="M156.9 107.562L128.59 102.5C127.719 102.343 127.098 101.569 127.132 100.685L127.146 100.365C127.187 99.2896 128.168 98.5014 129.224 98.6899L157.534 103.752C158.404 103.908 159.026 104.683 158.991 105.567L158.978 105.886C158.936 106.962 157.956 107.75 156.9 107.562V107.562Z" stroke="#B3B3B3" stroke-linecap="round" stroke-linejoin="round"/>
    <path d="M159.792 137.856L81.7646 124.487C79.9786 124.181 78.6923 122.505 78.7683 120.582L79.3478 105.826C79.4371 103.537 81.3922 101.839 83.5183 102.203L161.546 115.571C163.332 115.878 164.618 117.553 164.542 119.476L163.962 134.233C163.873 136.521 161.918 138.22 159.792 137.856Z" stroke="#B3B3B3" stroke-linecap="round" stroke-linejoin="round"/>
    <path d="M181.399 99.2136C183.219 99.5201 184.528 101.197 184.452 103.12L183.873 117.877C183.783 120.165 183.078 120.579 179.837 123.012L162.047 137.458" stroke="#B3B3B3" stroke-linecap="round" stroke-linejoin="round"/>
    <path d="M80.1763 103.541L84.2879 99.7124" stroke="#B3B3B3" stroke-linecap="round" stroke-linejoin="round"/>
    <path d="M165.406 114.957L182.257 101.435" stroke="#B3B3B3" stroke-linecap="round" stroke-linejoin="round"/>
    <path d="M88.0804 117.127C89.9252 117.127 91.4206 115.628 91.4206 113.78C91.4206 111.931 89.9252 110.433 88.0804 110.433C86.2357 110.433 84.7402 111.931 84.7402 113.78C84.7402 115.628 86.2357 117.127 88.0804 117.127Z" stroke="#B3B3B3" stroke-linecap="round" stroke-linejoin="round"/>
    <path d="M97.9452 118.797C99.7899 118.797 101.285 117.298 101.285 115.45C101.285 113.601 99.7899 112.103 97.9452 112.103C96.1004 112.103 94.605 113.601 94.605 115.45C94.605 117.298 96.1004 118.797 97.9452 118.797Z" stroke="#B3B3B3" stroke-linecap="round" stroke-linejoin="round"/>
    <path d="M107.723 120.167C109.567 120.167 111.063 118.669 111.063 116.82C111.063 114.972 109.567 113.473 107.723 113.473C105.878 113.473 104.382 114.972 104.382 116.82C104.382 118.669 105.878 120.167 107.723 120.167Z" stroke="#B3B3B3" stroke-linecap="round" stroke-linejoin="round"/>
    <path d="M156.313 122.545L128.003 117.483C127.133 117.327 126.512 116.552 126.546 115.669L126.559 115.349C126.601 114.273 127.581 113.485 128.638 113.673L156.948 118.736C157.818 118.892 158.439 119.667 158.405 120.55L158.392 120.87C158.35 121.946 157.369 122.734 156.313 122.545V122.545Z" stroke="#B3B3B3" stroke-linecap="round" stroke-linejoin="round"/>
    <path d="M156.096 128.036L127.786 122.974C126.916 122.818 126.295 122.043 126.329 121.159L126.342 120.839C126.384 119.764 127.364 118.976 128.421 119.164L156.731 124.226C157.601 124.382 158.222 125.157 158.188 126.041L158.175 126.361C158.133 127.436 157.153 128.224 156.096 128.036V128.036Z" stroke="#B3B3B3" stroke-linecap="round" stroke-linejoin="round"/>
    <path d="M155.881 133.529L127.571 128.466C126.701 128.31 126.08 127.535 126.114 126.652L126.127 126.332C126.169 125.257 127.15 124.468 128.206 124.657L156.516 129.719C157.386 129.875 158.008 130.65 157.973 131.534L157.96 131.853C157.918 132.929 156.938 133.717 155.881 133.529Z" stroke="#B3B3B3" stroke-linecap="round" stroke-linejoin="round"/>
    <path d="M125.593 31.6272C123.297 27.4197 118.868 24.5696 113.784 24.5696C113.756 24.5696 113.727 24.5715 113.697 24.5715C113.807 23.6958 113.864 22.8028 113.864 21.8966C113.864 10.3555 104.618 1 93.2147 1C85.5007 1 78.7766 5.28175 75.2312 11.6235C72.898 10.5021 70.2874 9.87383 67.5324 9.87383C58.7088 9.87383 51.3691 16.3088 49.8453 24.7943C49.0587 24.6496 48.2474 24.5696 47.419 24.5696C39.9748 24.5696 33.9385 30.6772 33.9385 38.2107C33.9385 45.352 39.3611 51.2063 46.2657 51.7984V51.8517H78.2332" stroke="#B3B3B3" stroke-linecap="round" stroke-linejoin="round"/>
</svg>
