<svg width="272" height="212" viewBox="0 0 272 212" fill="none" xmlns="http://www.w3.org/2000/svg">
    <path d="M193.036 50.6242L209.64 55.8613L205.976 38.7562L193.036 50.6242Z" stroke="#B3B3B3" stroke-linecap="round" stroke-linejoin="round"/>
    <path d="M207.62 47.22L199.567 44.6368L201.317 53.1186L207.62 47.22Z" stroke="#B3B3B3" stroke-linecap="round" stroke-linejoin="round"/>
    <path d="M199.313 44.4346L196.042 41.0059" stroke="#B3B3B3" stroke-linecap="round" stroke-linejoin="round"/>
    <path d="M201.271 53.4827L199.837 58.0543" stroke="#B3B3B3" stroke-linecap="round" stroke-linejoin="round"/>
    <path d="M207.813 47.2908L212.626 46.3421" stroke="#B3B3B3" stroke-linecap="round" stroke-linejoin="round"/>
    <path d="M205.997 38.7484L195.901 40.8824L192.895 50.6406L199.771 58.1979L209.792 55.7968L213.117 46.1924L205.997 38.7484Z" stroke="#B3B3B3" stroke-linecap="round" stroke-linejoin="round"/>
    <path d="M257.148 96.9359C257.469 94.5083 250.229 91.5442 240.977 90.3154C231.725 89.0867 223.965 90.0585 223.643 92.4861C223.322 94.9138 230.562 97.8779 239.814 99.1066C249.067 100.335 256.827 99.3635 257.148 96.9359Z" stroke="#B3B3B3" stroke-linecap="round" stroke-linejoin="round"/>
    <path d="M255.804 96.7202C256.031 95.0014 249.284 92.6874 240.734 91.5519C232.183 90.4163 225.068 90.8892 224.84 92.608C224.613 94.3268 231.36 96.6408 239.91 97.7763C248.461 98.9119 255.576 98.439 255.804 96.7202Z" stroke="#B3B3B3" stroke-linecap="round" stroke-linejoin="round"/>
    <path d="M47.9958 179.789C50.283 178.483 48.9848 171.88 45.0962 165.041C41.2076 158.201 36.201 153.715 33.9138 155.021C31.6266 156.326 32.9248 162.929 36.8134 169.769C40.7021 176.609 45.7086 181.095 47.9958 179.789Z" stroke="#B3B3B3" stroke-linecap="round" stroke-linejoin="round"/>
    <path d="M48.9709 178.679L71.5526 149.858C71.5526 149.858 72.235 147.922 69.3159 148.43C66.3967 148.938 35.627 154.122 35.627 154.122" stroke="#B3B3B3" stroke-linecap="round" stroke-linejoin="round"/>
    <path d="M28.3779 106.697C28.8294 104.943 24.6909 102.356 19.1341 100.92C13.5774 99.4844 8.7067 99.7429 8.25513 101.498C7.80357 103.252 11.9421 105.839 17.4989 107.274C23.0556 108.71 27.9263 108.452 28.3779 106.697Z" stroke="#B3B3B3" stroke-linecap="round" stroke-linejoin="round"/>
    <path d="M259.595 67.4415C261.971 66.1366 260.747 59.321 256.861 52.2186C252.976 45.1161 247.9 40.4163 245.524 41.7212C243.149 43.0261 244.372 49.8417 248.258 56.9441C252.143 64.0466 257.219 68.7464 259.595 67.4415Z" stroke="#B3B3B3" stroke-linecap="round" stroke-linejoin="round"/>
    <path d="M244.505 42.8131L214.623 75.5123C214.623 75.5123 213.889 77.4926 216.901 77.0193C219.913 76.5459 257.823 68.3049 257.823 68.3049" stroke="#B3B3B3" stroke-linecap="round" stroke-linejoin="round"/>
    <path d="M65.2028 134.798C58.8983 133.797 53.1852 119.255 48.0556 127.31C43.7597 134.056 40.3682 143.418 31.0718 137.918C24.1758 132.397 19.4337 123.123 14.5342 136.815C10.9005 146.602 7.10724 143.201 8.57286 137.011C10.4382 129.128 15.8646 120.806 25.5869 126.25C29.0591 128.364 30.9386 132.324 34.5764 134.155C40.7336 136.281 41.1999 127.182 44.1856 123.855C51.0817 115.474 58.9548 123.092 64.2702 128.88C66.0992 130.848 69.4624 129.033 70.6817 131.679C70.7504 131.815 72.5592 135.961 65.2028 134.794V134.798Z" stroke="#B3B3B3" stroke-linecap="round" stroke-linejoin="round"/>
    <path d="M179.793 121.204L96.8886 107C94.991 106.674 93.6243 104.894 93.7051 102.851L94.3208 87.172C94.4157 84.7406 96.493 82.9362 98.7519 83.3226L181.656 97.5269C183.554 97.8526 184.92 99.6327 184.84 101.676L184.224 117.355C184.129 119.786 182.052 121.591 179.793 121.204Z" stroke="#B3B3B3" stroke-linecap="round" stroke-linejoin="round"/>
    <path d="M95.1987 84.7446L114.641 67.067C114.641 67.067 115.255 65.8978 118.315 65.8817L202.748 80.1467C204.682 80.4724 206.073 82.2545 205.992 84.2976L205.376 99.9766C205.281 102.408 204.532 102.847 201.088 105.432L182.187 120.781" stroke="#B3B3B3" stroke-linecap="round" stroke-linejoin="round"/>
    <path d="M185.758 96.8735L203.66 82.5073" stroke="#B3B3B3" stroke-linecap="round" stroke-linejoin="round"/>
    <path d="M103.597 99.1796C105.557 99.1796 107.146 97.5874 107.146 95.6234C107.146 93.6594 105.557 92.0673 103.597 92.0673C101.637 92.0673 100.048 93.6594 100.048 95.6234C100.048 97.5874 101.637 99.1796 103.597 99.1796Z" stroke="#B3B3B3" stroke-linecap="round" stroke-linejoin="round"/>
    <path d="M114.078 100.954C116.038 100.954 117.627 99.3615 117.627 97.3975C117.627 95.4335 116.038 93.8413 114.078 93.8413C112.118 93.8413 110.529 95.4335 110.529 97.3975C110.529 99.3615 112.118 100.954 114.078 100.954Z" stroke="#B3B3B3" stroke-linecap="round" stroke-linejoin="round"/>
    <path d="M124.466 102.41C126.426 102.41 128.015 100.818 128.015 98.8539C128.015 96.8899 126.426 95.2977 124.466 95.2977C122.506 95.2977 120.917 96.8899 120.917 98.8539C120.917 100.818 122.506 102.41 124.466 102.41Z" stroke="#B3B3B3" stroke-linecap="round" stroke-linejoin="round"/>
    <path d="M176.094 104.934L146.015 99.5556C145.09 99.3898 144.43 98.5665 144.466 97.6279L144.48 97.288C144.525 96.1451 145.566 95.3077 146.689 95.508L176.768 100.887C177.693 101.053 178.353 101.876 178.317 102.814L178.303 103.154C178.258 104.297 177.216 105.135 176.094 104.934V104.934Z" stroke="#B3B3B3" stroke-linecap="round" stroke-linejoin="round"/>
    <path d="M175.866 110.77L145.787 105.392C144.862 105.226 144.202 104.403 144.238 103.464L144.252 103.124C144.297 101.981 145.338 101.144 146.461 101.344L176.54 106.723C177.465 106.889 178.125 107.712 178.089 108.651L178.075 108.99C178.03 110.133 176.988 110.971 175.866 110.77V110.77Z" stroke="#B3B3B3" stroke-linecap="round" stroke-linejoin="round"/>
    <path d="M175.636 116.606L145.557 111.228C144.632 111.062 143.972 110.238 144.008 109.3L144.022 108.96C144.067 107.817 145.108 106.98 146.231 107.18L176.31 112.559C177.235 112.725 177.895 113.548 177.859 114.486L177.845 114.826C177.8 115.969 176.758 116.807 175.636 116.606V116.606Z" stroke="#B3B3B3" stroke-linecap="round" stroke-linejoin="round"/>
    <path d="M178.299 148.57L95.3945 134.365C93.4969 134.04 92.1302 132.26 92.2109 130.217L92.8266 114.538C92.9215 112.106 94.9988 110.302 97.2578 110.688L180.162 124.892C182.059 125.218 183.426 126.998 183.345 129.041L182.73 144.72C182.635 147.152 180.557 148.956 178.299 148.57Z" stroke="#B3B3B3" stroke-linecap="round" stroke-linejoin="round"/>
    <path d="M201.255 107.51C203.189 107.836 204.58 109.618 204.499 111.661L203.884 127.34C203.789 129.772 203.04 130.21 199.596 132.796L180.694 148.145" stroke="#B3B3B3" stroke-linecap="round" stroke-linejoin="round"/>
    <path d="M93.707 112.108L98.0554 108.394" stroke="#B3B3B3" stroke-linecap="round" stroke-linejoin="round"/>
    <path d="M184.266 124.239L202.168 109.871" stroke="#B3B3B3" stroke-linecap="round" stroke-linejoin="round"/>
    <path d="M102.105 126.545C104.065 126.545 105.654 124.953 105.654 122.989C105.654 121.025 104.065 119.433 102.105 119.433C100.145 119.433 98.5557 121.025 98.5557 122.989C98.5557 124.953 100.145 126.545 102.105 126.545Z" stroke="#B3B3B3" stroke-linecap="round" stroke-linejoin="round"/>
    <path d="M112.586 128.319C114.546 128.319 116.135 126.727 116.135 124.763C116.135 122.799 114.546 121.207 112.586 121.207C110.626 121.207 109.037 122.799 109.037 124.763C109.037 126.727 110.626 128.319 112.586 128.319Z" stroke="#B3B3B3" stroke-linecap="round" stroke-linejoin="round"/>
    <path d="M122.974 129.776C124.934 129.776 126.523 128.183 126.523 126.219C126.523 124.255 124.934 122.663 122.974 122.663C121.014 122.663 119.425 124.255 119.425 126.219C119.425 128.183 121.014 129.776 122.974 129.776Z" stroke="#B3B3B3" stroke-linecap="round" stroke-linejoin="round"/>
    <path d="M174.602 132.3L144.523 126.921C143.598 126.755 142.938 125.932 142.975 124.994L142.989 124.654C143.033 123.511 144.075 122.673 145.197 122.874L175.277 128.252C176.201 128.418 176.861 129.242 176.825 130.18L176.811 130.52C176.766 131.663 175.725 132.5 174.602 132.3V132.3Z" stroke="#B3B3B3" stroke-linecap="round" stroke-linejoin="round"/>
    <path d="M174.374 138.136L144.294 132.757C143.37 132.591 142.71 131.768 142.746 130.829L142.76 130.49C142.805 129.347 143.846 128.509 144.969 128.709L175.048 134.088C175.973 134.254 176.633 135.077 176.596 136.016L176.582 136.356C176.538 137.499 175.496 138.336 174.374 138.136V138.136Z" stroke="#B3B3B3" stroke-linecap="round" stroke-linejoin="round"/>
    <path d="M174.144 143.972L144.064 138.593C143.14 138.427 142.48 137.604 142.516 136.665L142.53 136.326C142.575 135.183 143.616 134.345 144.739 134.546L174.818 139.924C175.743 140.09 176.403 140.913 176.366 141.852L176.352 142.192C176.308 143.335 175.266 144.172 174.144 143.972V143.972Z" stroke="#B3B3B3" stroke-linecap="round" stroke-linejoin="round"/>
    <path d="M177.216 176.159L94.3125 161.955C92.4148 161.629 91.0481 159.849 91.1289 157.806L91.7446 142.127C91.8395 139.696 93.9168 137.891 96.1758 138.278L179.08 152.482C180.977 152.808 182.344 154.588 182.263 156.631L181.648 172.31C181.553 174.741 179.475 176.546 177.216 176.159Z" stroke="#B3B3B3" stroke-linecap="round" stroke-linejoin="round"/>
    <path d="M200.174 135.102C202.108 135.428 203.499 137.21 203.418 139.253L202.803 154.932C202.708 157.363 201.959 157.802 198.515 160.387L179.613 175.737" stroke="#B3B3B3" stroke-linecap="round" stroke-linejoin="round"/>
    <path d="M92.625 139.7L96.9936 135.632" stroke="#B3B3B3" stroke-linecap="round" stroke-linejoin="round"/>
    <path d="M183.182 151.829L201.086 137.463" stroke="#B3B3B3" stroke-linecap="round" stroke-linejoin="round"/>
    <path d="M101.023 154.135C102.983 154.135 104.572 152.543 104.572 150.579C104.572 148.615 102.983 147.023 101.023 147.023C99.0626 147.023 97.4736 148.615 97.4736 150.579C97.4736 152.543 99.0626 154.135 101.023 154.135Z" stroke="#B3B3B3" stroke-linecap="round" stroke-linejoin="round"/>
    <path d="M111.504 155.909C113.464 155.909 115.053 154.317 115.053 152.353C115.053 150.389 113.464 148.797 111.504 148.797C109.544 148.797 107.955 150.389 107.955 152.353C107.955 154.317 109.544 155.909 111.504 155.909Z" stroke="#B3B3B3" stroke-linecap="round" stroke-linejoin="round"/>
    <path d="M121.893 157.365C123.853 157.365 125.442 155.773 125.442 153.809C125.442 151.845 123.853 150.253 121.893 150.253C119.933 150.253 118.344 151.845 118.344 153.809C118.344 155.773 119.933 157.365 121.893 157.365Z" stroke="#B3B3B3" stroke-linecap="round" stroke-linejoin="round"/>
    <path d="M173.52 159.892L143.441 154.513C142.516 154.347 141.856 153.524 141.893 152.585L141.907 152.246C141.951 151.103 142.993 150.265 144.115 150.465L174.195 155.844C175.119 156.01 175.779 156.833 175.743 157.772L175.729 158.112C175.684 159.255 174.643 160.092 173.52 159.892V159.892Z" stroke="#B3B3B3" stroke-linecap="round" stroke-linejoin="round"/>
    <path d="M173.29 165.726L143.211 160.347C142.286 160.181 141.626 159.358 141.663 158.419L141.677 158.079C141.721 156.937 142.763 156.099 143.885 156.299L173.965 161.678C174.889 161.844 175.549 162.667 175.513 163.606L175.499 163.946C175.454 165.089 174.413 165.926 173.29 165.726V165.726Z" stroke="#B3B3B3" stroke-linecap="round" stroke-linejoin="round"/>
    <path d="M173.062 171.562L142.983 166.183C142.058 166.017 141.398 165.194 141.435 164.255L141.449 163.915C141.493 162.773 142.535 161.935 143.657 162.135L173.737 167.514C174.661 167.68 175.321 168.503 175.285 169.442L175.271 169.782C175.226 170.925 174.185 171.762 173.062 171.562Z" stroke="#B3B3B3" stroke-linecap="round" stroke-linejoin="round"/>
    <path d="M140.88 63.2914C138.441 58.8209 133.736 55.7927 128.334 55.7927C128.303 55.7927 128.273 55.7947 128.241 55.7947C128.358 54.8642 128.418 53.9155 128.418 52.9527C128.418 40.6902 118.595 30.75 106.479 30.75C98.2824 30.75 91.138 35.2994 87.3711 42.0374C84.892 40.846 82.1183 40.1784 79.1911 40.1784C69.816 40.1784 62.0176 47.0156 60.3985 56.0314C59.5628 55.8777 58.7008 55.7927 57.8206 55.7927C49.9111 55.7927 43.4976 62.282 43.4976 70.2863C43.4976 77.874 49.2591 84.0942 56.5952 84.7233V84.78H90.5607" stroke="#B3B3B3" stroke-linecap="round" stroke-linejoin="round"/>
</svg>
