<svg width="1600" height="1040" viewBox="0 0 1600 1040" fill="none" xmlns="http://www.w3.org/2000/svg">
<g clip-path="url(#clip0_1128_1555)">
<path d="M1112.14 240.31C1139.53 248.73 1166.68 257.08 1193.89 265.68L1192.99 266.5L1174.93 181.91L1175.94 182.23C1154.74 201.72 1133.53 220.95 1112.14 240.3C1112.14 240.3 1133.54 220.96 1112.14 240.3V240.31ZM1110.71 240.63C1132.05 220.86 1153.57 200.98 1175.11 181.34C1175.44 181.03 1176.04 181.21 1176.12 181.66L1194.37 266.2C1194.49 266.71 1193.96 267.2 1193.47 267.02C1165.85 258.36 1138.16 249.46 1110.72 240.61L1110.71 240.63Z" fill="white"/>
<path d="M1182.86 223.82C1169.67 219.79 1156.71 215.74 1143.6 211.43L1144.37 210.74C1144.93 212.45 1145.19 214.21 1145.59 215.95C1147.58 225.41 1151.26 243 1153.25 252.63L1151.89 252.2C1162.1 242.62 1172.38 233.31 1182.86 223.82V223.82ZM1184.48 223.46C1174.15 233.41 1163.6 243.54 1153 253.4C1152.55 253.84 1151.75 253.58 1151.64 252.97C1149.25 240.84 1145.29 222.99 1143.19 210.99C1143.1 210.56 1143.53 210.16 1143.96 210.3C1157.45 214.51 1171.07 218.97 1184.48 223.46Z" fill="white"/>
<path d="M1142.3 210.07L1125.71 193.5C1125.38 193.17 1125.38 192.63 1125.71 192.3C1126.05 191.96 1126.61 191.97 1126.94 192.33L1142.74 209.66C1143 209.93 1142.57 210.35 1142.3 210.08V210.07Z" fill="white"/>
<path d="M1152.53 254.7L1145.97 277.46C1145.83 277.93 1145.34 278.21 1144.87 278.07C1144.4 277.93 1144.12 277.44 1144.26 276.97C1144.26 276.97 1151.9 254.52 1151.9 254.5C1152.03 254.11 1152.65 254.29 1152.53 254.7V254.7Z" fill="white"/>
<path d="M1184.57 223.69L1208.25 218.21C1208.85 218.07 1209.44 218.44 1209.58 219.04C1209.73 219.66 1209.31 220.29 1208.68 220.39L1184.69 224.29C1184.32 224.36 1184.19 223.77 1184.57 223.69V223.69Z" fill="white"/>
<path d="M1175.37 182.62L1125.76 192.98L1126.92 192.71L1111.54 240.79L1111.36 239.97L1145.19 277.55L1144.68 277.39L1194.09 264.55L1193.01 265.53L1210.25 218.31L1210.41 219.03L1175.39 182.6L1175.37 182.62ZM1175.9 180.9L1211.41 218.07C1211.6 218.27 1211.65 218.55 1211.57 218.79L1195.86 266.54C1195.69 267.05 1195.27 267.41 1194.78 267.52L1144.91 278.43C1144.72 278.47 1144.53 278.41 1144.4 278.27L1110.1 241.12C1109.89 240.89 1109.83 240.58 1109.92 240.3L1124.32 191.92C1124.32 191.92 1124.34 191.89 1124.35 191.89L1125.47 191.65L1175.89 180.91L1175.9 180.9Z" fill="white"/>
<path d="M1343.02 480.73C1320.72 477.52 1298.19 472.98 1277.77 463.13C1256.35 452.46 1257.59 440.85 1281.38 436.15C1303.66 432.06 1326.57 433.61 1348.9 436.37C1371.18 439.53 1393.69 444.03 1414.12 453.8C1435.53 464.39 1434.24 475.86 1410.59 480.66C1388.32 484.87 1365.39 483.41 1343.02 480.73ZM1343.18 479.51C1365.42 482.3 1388.25 483.86 1410.42 479.85C1433.23 475.34 1434.85 464.88 1413.82 454.38C1393.48 444.64 1371.02 440.13 1348.82 436.96C1326.55 434.26 1303.7 432.79 1281.53 436.92C1258.87 441.53 1257.18 451.85 1278.2 462.27C1298.55 471.92 1320.99 476.39 1343.17 479.52L1343.18 479.51Z" fill="white"/>
<path d="M1343.51 474.04C1324.36 471.33 1285.22 464.78 1270.84 452.65C1262.19 443.56 1280.93 441 1286.83 440.32C1307.1 438.28 1327.55 439.99 1347.69 442.54C1367.79 445.34 1387.98 449.03 1407.01 456.3C1412.5 458.48 1429.86 465.86 1419.22 472.26C1402.18 480.21 1362.73 476.39 1343.52 474.04H1343.51ZM1343.64 473.05C1362.63 475.47 1402.05 479.48 1418.93 471.76C1429.04 465.97 1411.64 458.75 1406.8 456.79C1387.83 449.53 1367.67 445.83 1347.61 443.01C1327.51 440.52 1307.09 438.86 1286.88 440.95C1281.64 441.6 1263.18 444.02 1271.31 452.15C1285.52 463.96 1324.7 470.44 1343.62 473.05H1343.64Z" fill="white"/>
<path d="M336.581 830C327.421 813.92 310.101 776.99 318.681 759.33C328.141 744.21 349.651 764.59 357.351 772.79C370.891 787.37 381.551 804.45 389.691 822.56C395.721 836.71 402.651 855.72 399.861 871.23C398.131 879.97 391.341 883.88 382.931 880.73C363.911 873.11 346.531 847.35 336.581 830V830ZM338.631 828.83C348.581 845.66 365.501 870.27 384.031 877.51C403.201 883.47 395.641 852.08 392.401 842.52C386.381 824.11 377.191 806.74 366.281 790.76C358.971 780.25 350.771 769.92 340.461 762.27C326.161 751.96 317.821 756.62 319.081 774.28C320.841 793.68 329.281 811.92 338.631 828.82V828.83Z" fill="white"/>
<path d="M396.621 872.6C396.551 872.7 509.381 728.51 508.081 730.48C509.271 724.54 502.051 725.63 498.151 726.3L492.421 727.23C442.781 735.33 381.591 745.19 331.811 752.88C331.391 752.95 330.991 752.66 330.921 752.23C330.851 751.81 331.141 751.42 331.551 751.34C381.141 742.28 442.091 731.53 491.671 722.9C495.271 722.39 499.881 721.13 503.631 721.36C509.371 721.4 513.511 725.79 511.201 731.57C511.341 732.07 399.041 873.96 398.951 874.41C398.441 875.05 397.511 875.16 396.871 874.66C396.231 874.15 396.111 873.23 396.621 872.58V872.6Z" fill="white"/>
<path d="M241.28 522.85C227.35 519.15 213.44 513.95 201.92 504.97C194.97 499.69 189.64 490.45 200.32 485.67C207.22 482.84 214.8 482.96 222.03 483.27C241.12 484.59 259.88 489.5 277.16 497.7C283.6 500.93 290.23 504.5 294.85 510.28C299 515.44 297.58 521.12 291.49 523.77C277.19 529.59 255.96 526.4 241.27 522.83L241.28 522.85ZM242.5 518.14C255.92 521.47 269.98 524.39 283.83 522.83C307.28 519.22 286.79 504.69 276.19 499.72C259.3 491.69 240.59 486.94 221.92 485.95C210.68 485.28 185.78 487.88 204.25 502.03C215.54 510.11 229.2 514.5 242.5 518.15V518.14Z" fill="white"/>
<path d="M1428.62 247.66C1437.77 264.31 1454.97 302.7 1445.84 320.67C1435.85 336.06 1414.07 314.73 1406.28 306.17C1392.59 290.94 1381.92 273.19 1373.85 254.41C1367.89 239.75 1361.07 220.08 1364.21 204.16C1366.14 195.2 1373.18 191.29 1381.79 194.68C1401.23 202.84 1418.68 229.64 1428.63 247.65L1428.62 247.66ZM1426.49 248.83C1416.53 231.35 1399.54 205.74 1380.61 197.98C1361.02 191.48 1368.22 223.98 1371.41 233.84C1377.29 252.88 1386.45 270.91 1397.41 287.53C1404.75 298.46 1413.02 309.24 1423.49 317.27C1438.03 328.12 1446.69 323.47 1445.69 305.27C1444.2 285.29 1435.83 266.37 1426.5 248.83H1426.49Z" fill="white"/>
<path d="M1367.5 202.89C1367.57 202.75 1218.25 366.41 1219.95 364.11C1218.56 371.41 1228.79 368.69 1233.07 368.02C1286.28 357.51 1378.18 338.1 1432.17 327.1C1432.6 327.01 1433.03 327.29 1433.12 327.72C1433.21 328.15 1432.94 328.57 1432.51 328.66L1377.81 341.07C1335 350.58 1276.63 363.72 1233.91 372.49C1230.32 373.17 1226.42 374.04 1222.71 373.36C1217.22 372.56 1214.32 367.39 1217.08 362.38C1217.08 362.38 1365.25 200.85 1365.25 200.84C1365.82 200.22 1366.78 200.18 1367.4 200.75C1368.02 201.32 1368.06 202.28 1367.49 202.9L1367.5 202.89Z" fill="white"/>
<path d="M478.059 657.42C461.089 654.51 445.889 635.48 433.539 624.35C422.129 613.91 408.819 601.7 396.919 618.71C385.119 635.77 376.349 655.54 361.179 670.19C344.989 685.73 326.669 684.26 308.419 673.2C302.299 668.33 296.669 662.93 291.109 657.53C282.829 649.68 275.059 641.06 265.179 635.32C244.809 623.41 234.059 650.92 228.249 665.94C225.589 673.17 222.519 680.3 218.349 686.88C214.529 693.3 205.919 703.45 198.599 695.4C192.479 687.37 195.059 675.33 196.479 666.16C197.209 660.34 198.759 654.66 200.939 649.22C208.889 627.64 225.699 604.54 250.819 603.84C266.519 603.48 282.479 610.68 293.549 621.52C304.589 632.04 313.139 645.48 326.939 652.49C331.359 654.11 337.929 654.85 342.659 652.2C356.429 644.47 360.129 622.55 367.809 609.05C370.509 603.87 374.419 599.37 378.609 595.26C382.819 591.2 387.679 587.66 393.189 585.34C410.229 577.99 428.779 585.9 442.589 596.32C451.869 603.17 460.119 611.23 468.009 619.58C470.719 622.31 473.129 625.44 475.989 627.98C483.269 633.55 493.629 630.09 501.319 634.97C507.689 639.07 510.029 649.84 503.829 655.09C496.379 660.94 486.569 658.78 478.059 657.44V657.42ZM478.329 655.75C481.119 656.24 483.959 656.36 486.769 656.33C492.079 656.13 497.999 656.41 502.469 653.36C506.689 650.45 506.289 644.04 503.669 640.09C502.109 637.52 499.549 635.82 496.599 635.05C490.139 633.27 481.789 634.58 475.519 630.48C474.959 630.16 474.189 629.49 473.669 629.08C471.089 626.52 468.739 623.87 466.199 621.3C458.299 613.19 450.029 605.34 440.819 598.75C417.239 581.68 394.669 579.91 375.099 603.7C365.999 614.65 363.029 628.96 355.619 641.32C349.069 653.04 339.429 659.16 326.029 654.35C308.449 645.59 298.869 627.14 282.729 616.68C239.839 591.82 213.909 621.52 201.329 661.5C198.329 668.44 196.709 676 197.599 683.51C197.939 686.98 198.959 690.67 200.999 693.4C203.139 696.32 206.579 695.96 209.419 694.06C215.599 689.89 219.299 682.64 222.469 676C230.429 658.53 239.569 619.14 266.269 633.31C276.499 639.01 284.519 647.78 292.929 655.65C298.189 660.78 304.729 666.72 309.839 670.81C326.849 680.9 344.059 682.63 358.829 667.71C371.789 654.66 379.419 637.4 388.989 621.75C391.329 617.81 393.949 613.51 397.769 610.1C411.419 597.65 426.749 610.82 436.629 621.22C448.369 632.83 461.799 652.36 478.339 655.75H478.329Z" fill="white"/>
<path d="M1045.46 591.47C920.18 570.24 760.8 542.26 635.03 520.72C628.83 519.72 623.33 515.54 620.41 510.02C618.57 506.58 617.7 502.67 617.79 498.79C617.79 497.43 617.99 493.69 618.02 492.27L619.29 457.59L620.48 422.9C620.51 422.17 620.51 421.48 620.57 420.7C620.85 415.17 623.13 409.76 627.1 405.85C631.61 401.3 638.35 398.96 644.71 400.07L713.21 411.3C781.23 422.42 850.65 434.78 918.37 446.99C952.35 453.18 1021.02 465.33 1055.06 471.27C1061.1 472.27 1066.43 476.34 1069.28 481.72C1071.47 485.71 1072.07 490.36 1071.75 494.85C1070.98 518.57 1070.37 549.22 1069.36 573.12C1067.89 584.38 1056.93 593.52 1045.45 591.46L1045.46 591.47ZM1046.17 587.3C1057.31 589.26 1066.35 579.37 1065.99 568.44C1067.15 546.15 1068.75 516.78 1069.71 494.78C1070.87 484.98 1064.85 474.91 1054.71 473.33C942.34 454.41 824.32 436.33 712.36 416.31L644.02 404.15C638.95 403.21 633.57 405.01 629.86 408.67C625.97 412.37 624.18 417.75 624.22 423.06C623.54 440.36 621.86 475.12 621.23 492.41L621.05 496.74C620.37 503.49 622.71 510.49 628.31 514.59C630.46 516.15 632.93 517.22 635.56 517.66L772.43 540.87C849.96 553.88 969.56 574.1 1046.17 587.3Z" fill="white"/>
<path d="M625.86 408.13L722.6 321.21L722.44 321.41C722.73 320.9 723.01 320.62 723.33 320.28C727.45 316.41 733.37 315.57 738.78 315.19C788.16 321.92 1101.65 375.52 1143.62 382.03L1154.2 383.8L1159.49 384.68C1163.29 385.29 1167.03 386.99 1169.94 389.56C1176.02 394.8 1178.05 402.69 1177.24 410.42C1177.16 413.83 1176.74 422.98 1176.64 426.5C1176.37 434.28 1174.88 473.16 1174.63 480.11C1174.42 485.68 1174.57 491.78 1171.29 496.65C1167.1 502.78 1160.46 506.78 1154.81 511.27C1147.18 517.11 1133.26 528.69 1125.6 534.8C1103.38 552.82 1081.08 570.73 1058.73 588.58C1058.02 589.15 1056.99 589.03 1056.42 588.32C1055.86 587.62 1055.97 586.6 1056.66 586.03C1078.76 567.85 1100.92 549.73 1123.16 531.72C1130.86 525.55 1144.72 514.05 1152.44 508.14L1156.73 504.93C1161.91 500.84 1168.31 496.88 1169.91 490.25C1170.7 486.97 1170.66 483.41 1170.83 479.97C1171.02 473.29 1172.78 433.97 1173.04 426.37C1173.22 422.81 1173.54 413.73 1173.7 410.29C1174.15 405.17 1173.72 400.18 1170.85 395.86C1168.15 391.73 1163.83 388.83 1158.93 388.07L1153.64 387.17L1143.06 385.37C1103.12 379.08 785.57 323.39 738.86 316.78C733.57 317.15 727.32 317.86 723.74 322.13C723.66 322.37 627.85 409.99 627.7 410.19C627.14 410.7 626.28 410.66 625.77 410.11C625.26 409.55 625.3 408.68 625.86 408.17V408.13Z" fill="white"/>
<path d="M1075.36 469.1L1164.05 398.08" stroke="white" stroke-width="2.73" stroke-linecap="round" stroke-linejoin="round"/>
<path d="M687.149 463.67C686.619 480.54 665.949 488.15 654.589 475.68C647.779 468.34 648.439 456.01 655.959 449.49C667.829 438.66 687.559 447.53 687.149 463.67ZM684.749 463.58C685.539 448.56 668.009 440.26 656.939 450.56C650.329 456.59 650.069 467.76 656.349 474.05C666.189 484.45 683.999 477.87 684.739 463.58H684.749Z" fill="white"/>
<path d="M738.76 472.42C738.3 489.28 717.92 496.92 706.51 484.44C699.73 477.1 700.44 464.8 707.96 458.35C719.75 447.69 739.11 456.48 738.76 472.42ZM736.97 472.35C737.81 457.13 719.91 448.75 708.77 459.22C702.16 465.32 701.95 476.52 708.27 482.81C718.11 493.2 736.13 486.68 736.97 472.35Z" fill="white"/>
<path d="M790.289 479.62C789.819 496.48 769.359 504.11 757.959 491.65C751.139 484.31 751.819 471.96 759.359 465.46C771.289 454.71 790.619 463.52 790.299 479.62H790.289ZM788.369 479.54C789.199 464.44 771.349 456.12 760.309 466.49C753.709 472.54 753.479 483.7 759.749 489.99C769.589 500.4 787.529 493.88 788.369 479.54V479.54Z" fill="white"/>
<path d="M1027.27 510.25L937.569 494.08C929.479 492.62 888.749 485.28 881.509 483.97L878.709 483.46C874.549 482.9 870.859 479.54 870.039 475.38C868.499 467.49 873.499 460.15 882.009 461.37C918.029 467.73 992.629 480.9 1027.86 487.12L1030.66 487.62C1033.79 488.06 1036.83 490.04 1038.38 492.85C1039.75 495.14 1039.94 497.87 1039.69 500.47C1039.45 506.61 1033.27 511.44 1027.26 510.25H1027.27ZM1027.73 507.66C1031.81 508.46 1036.15 505.62 1036.96 501.52C1037.83 497.31 1036.83 492.77 1032.63 490.82C1031.39 490.18 1028.85 489.88 1027.42 489.6L1016.21 487.58C987.759 482.45 911.089 468.63 881.659 463.32C877.419 462.51 872.929 465.47 872.099 469.72C870.919 475.11 873.219 480.53 879.069 481.41L881.869 481.91C916.769 488.07 992.049 501.36 1027.72 507.66H1027.73Z" fill="white"/>
<path d="M1026.17 538.9L936.429 522.94C928.339 521.5 887.589 514.25 880.349 512.96L877.549 512.46C872.759 511.85 868.729 507.56 868.519 502.69C867.819 495.13 873.069 488.87 880.919 490.03C910.689 495.36 986.719 508.96 1015.5 514.11L1026.71 516.12C1028.29 516.45 1030.99 516.72 1032.51 517.53C1037.7 519.94 1039.32 525.6 1038.17 530.9C1037.11 536.23 1031.49 539.95 1026.17 538.91V538.9ZM1026.56 536.72C1030.74 537.53 1035.18 534.61 1035.99 530.41C1036.89 526.13 1035.79 521.49 1031.55 519.55C1030.35 518.89 1027.71 518.62 1026.31 518.33C991.42 512.12 916.159 498.73 880.489 492.39C876.349 491.59 871.96 494.47 871.15 498.62C870.01 503.96 872.139 509.2 877.959 510.13C914.349 516.64 989.42 530.08 1026.56 536.72Z" fill="white"/>
<path d="M1025.03 567.74C1002.65 563.76 957.629 555.94 935.229 552.12C927.119 550.72 886.349 543.73 879.099 542.42L876.289 541.93C871.199 541.27 866.949 536.74 866.719 531.57C866.679 529.9 866.709 528.43 867.029 526.81C868.149 521.08 874.179 517.08 879.899 518.19C919.859 525.36 974.449 535.49 1014.37 542.87L1025.58 544.9C1027.16 545.23 1029.87 545.51 1031.4 546.32C1036.6 548.75 1038.23 554.42 1037.07 559.75C1036 565.09 1030.37 568.8 1025.04 567.75L1025.03 567.74ZM1025.42 565.56C1029.6 566.36 1034.02 563.44 1034.83 559.25C1035.71 554.98 1034.61 550.37 1030.39 548.44C1029.2 547.79 1026.55 547.52 1025.16 547.23L1013.94 545.26C991.539 541.41 946.509 533.65 924.109 529.8L879.229 521.91C875.019 521.07 870.669 524.43 870.499 528.73C869.789 533.34 872.089 537.62 876.939 538.35L879.739 538.86C924.079 546.94 980.999 557.62 1025.42 565.57V565.56Z" fill="white"/>
<path d="M1038.07 726.75C916.159 705.92 749.53 676.93 627.65 656C617.38 654.41 609.92 644.29 610.38 634.08C610.88 620.36 611.29 606.59 611.7 592.87C612.08 587.9 612.21 555.46 613.58 551.25C615.39 544.22 620.74 538.16 627.71 535.87C630.8 534.84 634.16 534.57 637.38 535.12L774.16 558.89C851.59 572.6 971.06 593.36 1047.68 606.6C1053.72 607.58 1059.06 611.65 1061.91 617.02C1063.7 620.37 1064.55 624.19 1064.46 627.98C1064.46 629.36 1064.28 633.06 1064.26 634.49C1063.61 654.61 1062.92 683.48 1062.36 703.88C1062.87 717.18 1051.75 729.02 1038.07 726.76V726.75ZM1038.78 722.58C1047.21 724.21 1055.71 717.91 1057.77 709.74C1059.05 706.82 1059.8 673 1060.35 669.06C1060.94 657.51 1061.59 645.95 1062.1 634.4C1062.23 631.9 1062.47 628.31 1062.35 625.85C1062.15 623.11 1061.41 620.4 1060.13 617.97C1057.57 613.1 1052.81 609.46 1047.34 608.59C1013.16 602.82 944.61 591.22 910.44 585.52C842.2 574.23 704.8 551.18 636.6 539.68C631.61 538.77 626.33 540.56 622.69 544.16C618.86 547.82 617.13 553.12 617.18 558.35C616.09 581.5 614.54 611.3 613.6 634.17C613.17 642.87 619.34 651.62 628.17 652.94C750.09 673.7 916.89 701.71 1038.78 722.58Z" fill="white"/>
<path d="M1152.37 520.34C1162.6 522.38 1169.64 532.32 1168.99 542.5C1168.74 548.36 1168.35 557.1 1168.17 563C1167.66 577.79 1166.69 605.53 1166.2 620.42C1166.08 623.19 1165.75 626.08 1164.65 628.82C1163.58 631.59 1161.64 633.87 1159.64 635.83C1153.6 641.54 1146.64 645.95 1140.39 651.35L1127.72 661.78C1103.18 681.92 1076.18 704.36 1051.57 724.16C1050.7 724.86 1049.42 724.73 1048.72 723.85C1048.02 722.98 1048.15 721.71 1049.02 721.01C1065.99 707.18 1083.08 693.51 1100.2 679.88C1108.86 672.98 1130.36 655.82 1138.69 649.17C1142.89 645.68 1147.44 642.51 1151.76 639.24C1158.82 633.89 1163.91 629.83 1164.06 620.31C1164.95 601.64 1166.18 573.31 1166.99 554.75L1167.28 546.55C1167.3 545.51 1167.49 541.56 1167.42 540.47C1167.26 537.19 1166.21 533.96 1164.46 531.21C1161.74 526.74 1156.95 523.69 1151.92 523.06C1150.08 522.81 1150.52 520.01 1152.37 520.36V520.34Z" fill="white"/>
<path d="M618.72 543.63C622.7 541.04 625.99 537.62 629.58 534.56L640.1 525.09C641.38 523.98 643.06 525.91 641.74 527.02C637.86 530.16 628.95 537.3 625.26 540.41C623.46 541.93 621.59 543.37 620.05 545.2C619.68 545.64 619.02 545.7 618.58 545.33C618.03 544.89 618.11 543.99 618.72 543.63V543.63Z" fill="white"/>
<path d="M1067.97 604.38L1156.66 533.36" stroke="white" stroke-width="2.73" stroke-linecap="round" stroke-linejoin="round"/>
<path d="M679.75 598.94C679.22 615.81 658.55 623.42 647.19 610.95C640.38 603.61 641.04 591.28 648.56 584.76C660.43 573.93 680.16 582.8 679.75 598.94V598.94ZM677.35 598.85C678.14 583.83 660.61 575.53 649.54 585.83C642.93 591.86 642.67 603.03 648.95 609.32C658.79 619.72 676.6 613.14 677.34 598.85H677.35Z" fill="white"/>
<path d="M731.369 607.7C730.909 624.56 710.529 632.2 699.119 619.72C692.339 612.38 693.049 600.08 700.569 593.63C712.359 582.97 731.719 591.76 731.369 607.7ZM729.579 607.63C730.419 592.41 712.519 584.03 701.379 594.5C694.769 600.6 694.559 611.8 700.879 618.09C710.719 628.48 728.739 621.96 729.579 607.63Z" fill="white"/>
<path d="M782.899 614.9C782.429 631.76 761.969 639.39 750.569 626.93C743.749 619.59 744.429 607.24 751.969 600.74C763.899 589.99 783.229 598.8 782.909 614.9H782.899ZM780.979 614.82C781.809 599.72 763.959 591.4 752.919 601.77C746.319 607.82 746.089 618.98 752.359 625.27C762.199 635.68 780.139 629.16 780.979 614.82V614.82Z" fill="white"/>
<path d="M1019.88 645.53L930.179 629.39C922.089 627.93 881.359 620.61 874.119 619.3L871.319 618.8C867.139 618.24 863.429 614.86 862.609 610.68C861.059 602.74 866.099 595.37 874.649 596.6C904.429 601.87 980.489 615.32 1009.28 620.42L1020.5 622.4C1022.11 622.73 1024.79 622.99 1026.34 623.81C1031.6 626.24 1033.27 631.98 1032.11 637.36C1031.04 642.79 1025.32 646.59 1019.9 645.54L1019.88 645.53ZM1020.34 642.94C1024.42 643.74 1028.75 640.9 1029.56 636.8C1030.43 632.59 1029.42 628.06 1025.23 626.11C1023.99 625.47 1021.45 625.17 1020.03 624.89L1008.82 622.87C980.359 617.75 903.699 603.96 874.259 598.66C870.049 597.85 865.589 600.79 864.769 605.01C863.609 610.4 865.839 615.73 871.689 616.63L874.489 617.13C909.389 623.3 984.659 636.62 1020.33 642.93L1020.34 642.94Z" fill="white"/>
<path d="M1018.78 674.17C988.999 668.87 912.959 655.33 884.179 650.2L872.959 648.2L870.159 647.7C865.379 647.09 861.359 642.81 861.149 637.95C860.449 630.4 865.679 624.16 873.519 625.31C903.289 630.63 979.329 644.23 1008.1 649.37L1019.32 651.38C1020.9 651.71 1023.6 651.98 1025.12 652.79C1030.3 655.2 1031.93 660.85 1030.78 666.16C1029.72 671.49 1024.1 675.21 1018.78 674.17V674.17ZM1019.17 671.99C1023.35 672.8 1027.79 669.88 1028.61 665.68C1029.51 661.4 1028.41 656.76 1024.17 654.81C1022.91 654.17 1020.37 653.87 1018.93 653.59L1007.71 651.59C979.259 646.52 902.539 632.86 873.109 627.62C868.499 626.71 863.739 630.39 863.559 635.11C862.789 640.01 865.469 644.7 870.569 645.41L873.369 645.91C908.269 652.15 983.499 665.6 1019.17 671.98V671.99Z" fill="white"/>
<path d="M1017.64 703.02L927.939 686.85C919.889 685.4 879.089 678.05 871.879 676.74L869.079 676.24C866.059 675.81 863.169 673.9 861.689 671.2C860.109 668.49 860.159 665.28 860.689 662.32C861.709 657.15 867.159 653.55 872.319 654.56C902.139 659.76 978.199 673.01 1007 678.06L1018.22 680.02C1019.86 680.35 1022.51 680.6 1024.08 681.44C1029.38 683.94 1030.98 689.61 1029.77 695.04C1028.67 700.4 1022.99 704.11 1017.65 703.02H1017.64ZM1018.03 700.84C1022.64 701.7 1027.37 698 1027.5 693.28C1028 689.47 1026.58 685.53 1022.93 683.87C1021.7 683.25 1019.15 682.95 1017.74 682.66C982.829 676.32 907.699 662.61 872.029 656.09C868.579 655.46 864.869 657.16 863.159 660.23C860.219 665.88 862.439 673.62 869.369 674.58C905.739 681 980.899 694.28 1018.03 700.83V700.84Z" fill="white"/>
<path d="M1032.7 863.14C910.789 842.3 744.139 813.43 622.269 792.4C611.999 790.8 604.549 780.68 605.019 770.47C605.529 756.75 605.969 742.98 606.399 729.26C606.789 724.32 606.989 691.86 608.339 687.68C610.139 680.7 615.459 674.68 622.369 672.42C625.429 671.4 628.769 671.14 631.959 671.68L768.739 695.42C846.179 709.08 965.659 729.78 1042.29 742.99C1048.33 743.97 1053.67 748.03 1056.52 753.41C1058.31 756.76 1059.16 760.58 1059.08 764.37C1059.08 765.75 1058.9 769.45 1058.88 770.88C1058.24 791 1057.54 819.87 1056.98 840.27C1057.49 853.57 1046.36 865.41 1032.69 863.15L1032.7 863.14ZM1033.41 858.97C1041.84 860.6 1050.34 854.3 1052.4 846.13C1053.68 843.21 1054.43 809.39 1054.97 805.45C1055.56 793.9 1056.2 782.34 1056.72 770.79C1056.85 768.29 1057.09 764.7 1056.97 762.24C1056.77 759.5 1056.03 756.79 1054.75 754.36C1052.19 749.49 1047.43 745.85 1041.96 744.98C1007.79 739.19 939.229 727.56 905.069 721.85C836.839 710.51 699.439 687.41 631.249 675.9C626.199 674.98 620.869 676.8 617.199 680.44C613.349 684.13 611.599 689.47 611.659 694.74C610.609 717.89 609.129 747.7 608.209 770.57C607.789 779.27 613.969 788.02 622.799 789.33C744.739 809.98 911.519 838.12 1033.41 858.98V858.97Z" fill="white"/>
<path d="M1147 656.73C1157.23 658.77 1164.27 668.71 1163.62 678.89C1163.37 684.75 1162.98 693.49 1162.81 699.39C1162.3 714.18 1161.34 741.92 1160.86 756.81C1160.74 759.58 1160.41 762.47 1159.31 765.22C1158.24 767.99 1156.3 770.28 1154.3 772.24C1148.26 777.96 1141.3 782.37 1135.05 787.76L1122.38 798.18C1097.79 818.26 1070.95 840.89 1046.05 860.33C1045.28 860.93 1044.18 860.79 1043.58 860.02C1043 859.27 1043.12 858.2 1043.83 857.6C1060.57 843.5 1077.73 829.91 1094.83 816.25C1103.48 809.35 1124.98 792.17 1133.31 785.53C1137.51 782.04 1142.06 778.87 1146.38 775.59C1153.44 770.25 1158.52 766.19 1158.68 756.69C1159.58 738.02 1160.81 709.69 1161.63 691.13L1161.92 682.93C1161.94 681.89 1162.13 677.94 1162.06 676.85C1161.9 673.57 1160.85 670.34 1159.1 667.59C1156.38 663.12 1151.59 660.07 1146.56 659.44C1144.72 659.19 1145.16 656.39 1147.01 656.74L1147 656.73Z" fill="white"/>
<path d="M613.32 680.06C617.33 677.17 620.63 673.46 624.24 670.11L634.81 659.78C636.04 658.62 637.8 660.47 636.53 661.64C632.63 665.09 623.67 672.95 619.95 676.35C618.14 678.01 616.25 679.61 614.72 681.57C614.37 682.02 613.71 682.11 613.26 681.75C612.7 681.33 612.74 680.44 613.32 680.06V680.06Z" fill="white"/>
<path d="M1062.61 740.78L1151.3 669.75" stroke="white" stroke-width="2.73" stroke-linecap="round" stroke-linejoin="round"/>
<path d="M674.389 735.34C673.859 752.21 653.189 759.82 641.829 747.35C635.019 740.01 635.679 727.68 643.199 721.16C655.069 710.33 674.799 719.2 674.389 735.34V735.34ZM671.989 735.25C672.779 720.23 655.249 711.93 644.179 722.23C637.569 728.26 637.309 739.43 643.589 745.72C653.429 756.12 671.239 749.54 671.979 735.25H671.989Z" fill="white"/>
<path d="M726 744.09C725.54 760.95 705.16 768.59 693.75 756.11C686.97 748.77 687.68 736.47 695.2 730.02C706.99 719.36 726.35 728.15 726 744.09ZM724.21 744.02C725.05 728.8 707.15 720.42 696.01 730.89C689.4 736.99 689.19 748.19 695.51 754.48C705.35 764.87 723.37 758.35 724.21 744.02Z" fill="white"/>
<path d="M777.53 751.3C777.06 768.16 756.6 775.79 745.2 763.33C738.38 755.99 739.06 743.64 746.6 737.14C758.53 726.39 777.86 735.2 777.54 751.3H777.53ZM775.61 751.22C776.44 736.12 758.59 727.8 747.55 738.17C740.95 744.22 740.72 755.38 746.99 761.67C756.83 772.08 774.77 765.56 775.61 751.22V751.22Z" fill="white"/>
<path d="M1014.51 781.93L924.81 765.79C916.72 764.33 875.99 757.01 868.75 755.7L865.95 755.2C861.76 754.64 858.06 751.26 857.24 747.08C855.69 739.14 860.73 731.77 869.28 733C899.06 738.27 975.12 751.73 1003.9 756.82L1015.12 758.81C1016.73 759.14 1019.41 759.4 1020.96 760.22C1026.22 762.65 1027.89 768.39 1026.73 773.77C1025.66 779.2 1019.94 783 1014.52 781.95L1014.51 781.93ZM1014.97 779.34C1019.05 780.14 1023.38 777.3 1024.19 773.2C1025.06 768.99 1024.05 764.46 1019.86 762.51C1018.62 761.87 1016.08 761.57 1014.66 761.29L1003.45 759.27C974.99 754.15 898.33 740.36 868.89 735.06C864.68 734.25 860.22 737.19 859.41 741.41C858.25 746.8 860.48 752.13 866.32 753.03L869.12 753.53C904.02 759.7 979.29 773.02 1014.96 779.34H1014.97Z" fill="white"/>
<path d="M1013.37 810.8C990.999 806.79 946.039 798.59 923.699 794.45C915.649 792.97 874.889 785.45 867.669 784.17L864.869 783.66C861.879 783.23 859.029 781.36 857.559 778.68C856.249 776.46 856.099 773.87 856.349 771.39C856.589 765.62 862.399 761.1 868.049 762.24C908.029 769.35 962.739 778.75 1002.75 785.66L1013.97 787.64C1015.6 787.97 1018.25 788.22 1019.81 789.04C1025.08 791.47 1026.75 797.21 1025.59 802.59C1024.52 808.03 1018.79 811.84 1013.36 810.79L1013.37 810.8ZM1013.84 808.17C1017.91 808.97 1022.24 806.14 1023.05 802.05C1023.93 797.85 1022.92 793.32 1018.73 791.37C1017.49 790.73 1014.95 790.43 1013.53 790.14L1002.32 788.11C979.969 784 935.019 775.72 912.679 771.61L867.829 763.51C863.409 762.67 858.739 765.75 857.879 770.18C856.649 775.73 859.079 781.37 865.119 782.27L867.919 782.76C912.319 790.53 969.399 800.24 1013.84 808.16V808.17Z" fill="white"/>
<path d="M1012.28 839.41L922.559 823.38C914.469 821.93 873.719 814.65 866.479 813.36L863.679 812.86C859.499 812.3 855.799 808.94 854.969 804.76C853.409 796.82 858.449 789.45 866.999 790.67C896.779 795.98 972.819 809.52 1001.6 814.65L1012.82 816.65C1014.4 816.98 1017.1 817.24 1018.62 818.05C1023.8 820.45 1025.43 826.1 1024.28 831.4C1023.23 836.73 1017.61 840.45 1012.29 839.41H1012.28ZM1012.67 837.23C1016.85 838.04 1021.29 835.13 1022.11 830.93C1023.01 826.64 1021.91 821.99 1017.67 820.05C1016.4 819.4 1013.87 819.11 1012.42 818.82L1001.2 816.82C972.749 811.74 896.039 798.03 866.619 792.77C861.949 791.85 857.129 795.58 856.949 800.36C856.169 805.31 858.899 810.04 864.039 810.76L866.839 811.26C901.739 817.48 976.979 830.88 1012.65 837.24L1012.67 837.23Z" fill="white"/>
<path d="M851.939 303.7C840.069 281.52 815.669 266.9 790.469 267.27C789.719 267.27 789.129 266.6 789.229 265.86C792.139 241.27 786.479 215.82 773.329 194.88C738.449 139.07 662.709 127.47 612.779 170.3C603.349 178.27 595.479 188 589.099 198.62C588.779 199.2 588.049 199.42 587.459 199.13C574.279 193.68 560.159 190.76 545.919 191.05C528.199 191.24 510.599 196.77 495.939 206.73C475.099 220.52 460.449 242.92 455.629 267.41C455.519 268.09 454.849 268.55 454.169 268.42C415.739 261.99 378.539 290.06 373.979 328.57C368.659 366.96 396.949 403.49 435.669 407.79C436.439 407.87 436.909 408.57 436.809 409.31L435.559 408.06H603.809C605.409 408.04 605.489 410.53 603.809 410.56H435.559C434.869 410.56 434.309 410 434.309 409.31V409.03L435.449 410.27C425.659 409.78 415.959 407.05 407.159 402.55C380.189 388.92 364.319 357.71 368.649 327.86C373.589 286.82 414.029 256.97 454.619 265.95L453.169 266.96C455.569 252.48 461.279 238.45 469.969 226.5C487.129 202.27 516.109 186.98 545.839 186.66C560.659 186.35 575.619 189.81 588.539 196.88L586.909 197.4C587.639 196.21 589.769 192.42 590.489 191.22C591.399 189.81 593.559 186.7 594.479 185.3C645.979 115.05 752.669 129.54 784.949 210.02C791.979 227.7 794.229 247.35 791.679 266.17C791.679 266.18 790.439 264.77 790.439 264.77C816.539 264.36 841.869 279.49 854.189 302.46C854.529 303.08 854.299 303.87 853.679 304.21C853.049 304.55 852.269 304.32 851.929 303.7H851.939Z" fill="white"/>
</g>
<defs>
<clipPath id="clip0_1128_1555">
<rect width="1600" height="1040" fill="white"/>
</clipPath>
</defs>
</svg>
