<svg viewBox="0 0 136 106" fill="none" xmlns="http://www.w3.org/2000/svg">
    <path d="M96.5181 25.3122L104.82 27.9307L102.988 19.3782L96.5181 25.3122Z" stroke="#B3B3B3" stroke-linecap="round" stroke-linejoin="round"/>
    <path d="M103.81 23.61L99.7835 22.3184L100.659 26.5593L103.81 23.61Z" stroke="#B3B3B3" stroke-linecap="round" stroke-linejoin="round"/>
    <path d="M99.6563 22.2173L98.0211 20.5029" stroke="#B3B3B3" stroke-linecap="round" stroke-linejoin="round"/>
    <path d="M100.635 26.7413L99.9188 29.0271" stroke="#B3B3B3" stroke-linecap="round" stroke-linejoin="round"/>
    <path d="M103.907 23.6454L106.313 23.1711" stroke="#B3B3B3" stroke-linecap="round" stroke-linejoin="round"/>
    <path d="M102.998 19.3742L97.9505 20.4413L96.4475 25.3203L99.8854 29.099L104.896 27.8984L106.558 23.0962L102.998 19.3742Z" stroke="#B3B3B3" stroke-linecap="round" stroke-linejoin="round"/>
    <path d="M128.574 48.468C128.735 47.2542 125.115 45.7721 120.489 45.1577C115.863 44.5434 111.982 45.0293 111.822 46.2431C111.661 47.4569 115.281 48.939 119.907 49.5534C124.533 50.1677 128.414 49.6818 128.574 48.468Z" stroke="#B3B3B3" stroke-linecap="round" stroke-linejoin="round"/>
    <path d="M127.902 48.3601C128.016 47.5007 124.642 46.3437 120.367 45.7759C116.092 45.2082 112.534 45.4446 112.42 46.304C112.307 47.1634 115.68 48.3204 119.955 48.8882C124.23 49.4559 127.788 49.2195 127.902 48.3601Z" stroke="#B3B3B3" stroke-linecap="round" stroke-linejoin="round"/>
    <path d="M23.9978 89.8945C25.1414 89.2417 24.4923 85.9401 22.548 82.5203C20.6037 79.1005 18.1004 76.8574 16.9568 77.5103C15.8132 78.1631 16.4623 81.4646 18.4066 84.8844C20.3509 88.3042 22.8542 90.5473 23.9978 89.8945Z" stroke="#B3B3B3" stroke-linecap="round" stroke-linejoin="round"/>
    <path d="M24.4853 89.3397L35.7762 74.929C35.7762 74.929 36.1174 73.9611 34.6578 74.2149C33.1982 74.4688 17.8134 77.0611 17.8134 77.0611" stroke="#B3B3B3" stroke-linecap="round" stroke-linejoin="round"/>
    <path d="M14.1889 53.3486C14.4146 52.4713 12.3454 51.1781 9.567 50.4601C6.78863 49.7422 4.35329 49.8715 4.12751 50.7488C3.90172 51.6261 5.971 52.9193 8.74936 53.6372C11.5277 54.3552 13.9631 54.2259 14.1889 53.3486Z" stroke="#B3B3B3" stroke-linecap="round" stroke-linejoin="round"/>
    <path d="M129.797 33.7208C130.985 33.0683 130.373 29.6605 128.431 26.1093C126.488 22.558 123.95 20.2081 122.762 20.8606C121.574 21.5131 122.186 24.9208 124.129 28.4721C126.072 32.0233 128.61 34.3732 129.797 33.7208Z" stroke="#B3B3B3" stroke-linecap="round" stroke-linejoin="round"/>
    <path d="M122.253 21.4066L107.312 37.7561C107.312 37.7561 106.944 38.7463 108.45 38.5096C109.956 38.273 128.911 34.1524 128.911 34.1524" stroke="#B3B3B3" stroke-linecap="round" stroke-linejoin="round"/>
    <path d="M32.6014 67.3992C29.4491 66.8985 26.5926 59.6274 24.0278 63.6549C21.8798 67.028 20.1841 71.7088 15.5359 68.9588C12.0879 66.1986 9.71687 61.5613 7.26711 68.4076C5.45024 73.3008 3.55362 71.6006 4.28643 68.5057C5.21909 64.5642 7.93229 60.4032 12.7934 63.1249C14.5296 64.1819 15.4693 66.1622 17.2882 67.0775C20.3668 68.1405 20.5999 63.5912 22.0928 61.9274C25.5408 57.7371 29.4774 61.5461 32.1351 64.4398C33.0496 65.4239 34.7312 64.5166 35.3409 65.8396C35.3752 65.9073 36.2796 67.9807 32.6014 67.3972V67.3992Z" stroke="#B3B3B3" stroke-linecap="round" stroke-linejoin="round"/>
    <path d="M89.8961 60.6021L48.4441 53.4999C47.4953 53.3371 46.812 52.447 46.8523 51.4255L47.1602 43.586C47.2076 42.3703 48.2463 41.4681 49.3758 41.6612L90.8278 48.7634C91.7766 48.9263 92.46 49.8163 92.4196 50.8378L92.1117 58.6773C92.0643 59.8931 91.0256 60.7953 89.8961 60.6021Z" stroke="#B3B3B3" stroke-linecap="round" stroke-linejoin="round"/>
    <path d="M47.5991 42.3723L57.3204 33.5335C57.3204 33.5335 57.6273 32.9489 59.1575 32.9408L101.374 40.0733C102.341 40.2362 103.036 41.1272 102.996 42.1487L102.688 49.9883C102.64 51.204 102.266 51.4235 100.544 52.716L91.0931 60.3907" stroke="#B3B3B3" stroke-linecap="round" stroke-linejoin="round"/>
    <path d="M92.8787 48.4367L101.83 41.2536" stroke="#B3B3B3" stroke-linecap="round" stroke-linejoin="round"/>
    <path d="M51.7983 49.5898C52.7783 49.5898 53.5728 48.7937 53.5728 47.8117C53.5728 46.8297 52.7783 46.0336 51.7983 46.0336C50.8183 46.0336 50.0238 46.8297 50.0238 47.8117C50.0238 48.7937 50.8183 49.5898 51.7983 49.5898Z" stroke="#B3B3B3" stroke-linecap="round" stroke-linejoin="round"/>
    <path d="M57.0389 50.4767C58.019 50.4767 58.8134 49.6807 58.8134 48.6987C58.8134 47.7167 58.019 46.9206 57.0389 46.9206C56.0589 46.9206 55.2645 47.7167 55.2645 48.6987C55.2645 49.6807 56.0589 50.4767 57.0389 50.4767Z" stroke="#B3B3B3" stroke-linecap="round" stroke-linejoin="round"/>
    <path d="M62.2331 51.205C63.2131 51.205 64.0076 50.4089 64.0076 49.4269C64.0076 48.4449 63.2131 47.6488 62.2331 47.6488C61.2531 47.6488 60.4586 48.4449 60.4586 49.4269C60.4586 50.4089 61.2531 51.205 62.2331 51.205Z" stroke="#B3B3B3" stroke-linecap="round" stroke-linejoin="round"/>
    <path d="M88.0468 52.4672L73.0071 49.7778C72.5448 49.6949 72.2148 49.2832 72.233 48.8139L72.24 48.644C72.2622 48.0726 72.7831 47.6538 73.3443 47.754L88.384 50.4433C88.8463 50.5263 89.1763 50.9379 89.1581 51.4072L89.1511 51.5771C89.1289 52.1486 88.608 52.5673 88.0468 52.4672V52.4672Z" stroke="#B3B3B3" stroke-linecap="round" stroke-linejoin="round"/>
    <path d="M87.9329 55.3852L72.8932 52.6958C72.4309 52.6129 72.1008 52.2012 72.119 51.7319L72.1261 51.562C72.1483 50.9905 72.6691 50.5718 73.2303 50.6719L88.27 53.3613C88.7323 53.4442 89.0624 53.8559 89.0442 54.3252L89.0371 54.4951C89.0149 55.0666 88.4941 55.4853 87.9329 55.3852V55.3852Z" stroke="#B3B3B3" stroke-linecap="round" stroke-linejoin="round"/>
    <path d="M87.8177 58.3032L72.778 55.6138C72.3157 55.5309 71.9857 55.1192 72.0038 54.6499L72.0109 54.48C72.0331 53.9086 72.5539 53.4898 73.1152 53.59L88.1548 56.2793C88.6171 56.3623 88.9472 56.7739 88.929 57.2432L88.922 57.4131C88.8998 57.9846 88.3789 58.4033 87.8177 58.3032V58.3032Z" stroke="#B3B3B3" stroke-linecap="round" stroke-linejoin="round"/>
    <path d="M89.1491 74.2848L47.6971 67.1826C46.7482 67.0198 46.0649 66.1297 46.1053 65.1082L46.4131 57.2687C46.4606 56.053 47.4992 55.1508 48.6287 55.344L90.0807 62.4462C91.0295 62.609 91.7129 63.4991 91.6725 64.5206L91.3646 72.3601C91.3172 73.5758 90.2786 74.478 89.1491 74.2848Z" stroke="#B3B3B3" stroke-linecap="round" stroke-linejoin="round"/>
    <path d="M100.628 53.7551C101.595 53.9179 102.29 54.809 102.25 55.8305L101.942 63.67C101.894 64.8857 101.52 65.1052 99.7978 66.3978L90.347 74.0724" stroke="#B3B3B3" stroke-linecap="round" stroke-linejoin="round"/>
    <path d="M46.8532 56.054L49.0274 54.1971" stroke="#B3B3B3" stroke-linecap="round" stroke-linejoin="round"/>
    <path d="M92.1328 62.1195L101.084 54.9354" stroke="#B3B3B3" stroke-linecap="round" stroke-linejoin="round"/>
    <path d="M51.0523 63.2725C52.0323 63.2725 52.8267 62.4764 52.8267 61.4944C52.8267 60.5124 52.0323 59.7164 51.0523 59.7164C50.0722 59.7164 49.2778 60.5124 49.2778 61.4944C49.2778 62.4764 50.0722 63.2725 51.0523 63.2725Z" stroke="#B3B3B3" stroke-linecap="round" stroke-linejoin="round"/>
    <path d="M56.2929 64.1595C57.2729 64.1595 58.0674 63.3635 58.0674 62.3815C58.0674 61.3995 57.2729 60.6034 56.2929 60.6034C55.3129 60.6034 54.5184 61.3995 54.5184 62.3815C54.5184 63.3635 55.3129 64.1595 56.2929 64.1595Z" stroke="#B3B3B3" stroke-linecap="round" stroke-linejoin="round"/>
    <path d="M61.487 64.8878C62.467 64.8878 63.2615 64.0917 63.2615 63.1097C63.2615 62.1277 62.467 61.3316 61.487 61.3316C60.507 61.3316 59.7125 62.1277 59.7125 63.1097C59.7125 64.0917 60.507 64.8878 61.487 64.8878Z" stroke="#B3B3B3" stroke-linecap="round" stroke-linejoin="round"/>
    <path d="M87.3009 66.15L72.2612 63.4606C71.7989 63.3777 71.4689 62.966 71.487 62.4967L71.4941 62.3268C71.5163 61.7554 72.0372 61.3366 72.5984 61.4368L87.6381 64.1261C88.1003 64.2091 88.4304 64.6207 88.4122 65.09L88.4052 65.2599C88.383 65.8314 87.8621 66.2501 87.3009 66.15V66.15Z" stroke="#B3B3B3" stroke-linecap="round" stroke-linejoin="round"/>
    <path d="M87.1868 69.068L72.1472 66.3786C71.6849 66.2957 71.3548 65.884 71.373 65.4147L71.38 65.2448C71.4022 64.6733 71.9231 64.2546 72.4843 64.3547L87.524 67.0441C87.9863 67.127 88.3163 67.5387 88.2982 68.008L88.2911 68.1779C88.2689 68.7494 87.7481 69.1681 87.1868 69.068V69.068Z" stroke="#B3B3B3" stroke-linecap="round" stroke-linejoin="round"/>
    <path d="M87.0717 71.9859L72.032 69.2966C71.5697 69.2136 71.2396 68.802 71.2578 68.3327L71.2649 68.1628C71.2871 67.5913 71.8079 67.1726 72.3691 67.2727L87.4088 69.9621C87.8711 70.045 88.2012 70.4567 88.183 70.926L88.1759 71.0959C88.1537 71.6673 87.6329 72.0861 87.0717 71.9859V71.9859Z" stroke="#B3B3B3" stroke-linecap="round" stroke-linejoin="round"/>
    <path d="M88.6081 88.0797L47.1561 80.9776C46.2073 80.8147 45.5239 79.9247 45.5643 78.9031L45.8722 71.0636C45.9196 69.8479 46.9583 68.9457 48.0878 69.1389L89.5398 76.2411C90.4886 76.4039 91.1719 77.294 91.1316 78.3155L90.8237 86.155C90.7762 87.3707 89.7376 88.2729 88.6081 88.0797Z" stroke="#B3B3B3" stroke-linecap="round" stroke-linejoin="round"/>
    <path d="M100.087 67.551C101.054 67.7138 101.749 68.6049 101.709 69.6264L101.401 77.4659C101.354 78.6816 100.979 78.9011 99.2572 80.1937L89.8064 87.8683" stroke="#B3B3B3" stroke-linecap="round" stroke-linejoin="round"/>
    <path d="M46.3124 69.8499L48.4967 67.8159" stroke="#B3B3B3" stroke-linecap="round" stroke-linejoin="round"/>
    <path d="M91.5909 75.9144L100.543 68.7313" stroke="#B3B3B3" stroke-linecap="round" stroke-linejoin="round"/>
    <path d="M50.5113 77.0674C51.4913 77.0674 52.2858 76.2713 52.2858 75.2893C52.2858 74.3073 51.4913 73.5112 50.5113 73.5112C49.5313 73.5112 48.7368 74.3073 48.7368 75.2893C48.7368 76.2713 49.5313 77.0674 50.5113 77.0674Z" stroke="#B3B3B3" stroke-linecap="round" stroke-linejoin="round"/>
    <path d="M55.752 77.9544C56.732 77.9544 57.5264 77.1583 57.5264 76.1763C57.5264 75.1943 56.732 74.3983 55.752 74.3983C54.7719 74.3983 53.9775 75.1943 53.9775 76.1763C53.9775 77.1583 54.7719 77.9544 55.752 77.9544Z" stroke="#B3B3B3" stroke-linecap="round" stroke-linejoin="round"/>
    <path d="M60.9464 78.6827C61.9264 78.6827 62.7208 77.8866 62.7208 76.9046C62.7208 75.9226 61.9264 75.1265 60.9464 75.1265C59.9663 75.1265 59.1719 75.9226 59.1719 76.9046C59.1719 77.8866 59.9663 78.6827 60.9464 78.6827Z" stroke="#B3B3B3" stroke-linecap="round" stroke-linejoin="round"/>
    <path d="M86.7601 79.9459L71.7204 77.2565C71.2581 77.1736 70.928 76.7619 70.9462 76.2926L70.9533 76.1227C70.9755 75.5513 71.4963 75.1325 72.0575 75.2327L87.0972 77.922C87.5595 78.005 87.8896 78.4166 87.8714 78.8859L87.8643 79.0558C87.8421 79.6273 87.3213 80.046 86.7601 79.9459V79.9459Z" stroke="#B3B3B3" stroke-linecap="round" stroke-linejoin="round"/>
    <path d="M86.645 82.8628L71.6053 80.1735C71.1431 80.0905 70.813 79.6789 70.8312 79.2096L70.8382 79.0397C70.8604 78.4682 71.3813 78.0495 71.9425 78.1496L86.9822 80.839C87.4445 80.9219 87.7745 81.3335 87.7564 81.8028L87.7493 81.9728C87.7271 82.5442 87.2062 82.9629 86.645 82.8628V82.8628Z" stroke="#B3B3B3" stroke-linecap="round" stroke-linejoin="round"/>
    <path d="M86.5309 85.7809L71.4912 83.0915C71.0289 83.0086 70.6989 82.597 70.717 82.1277L70.7241 81.9577C70.7463 81.3863 71.2671 80.9676 71.8283 81.0677L86.868 83.7571C87.3303 83.84 87.6604 84.2516 87.6422 84.7209L87.6352 84.8909C87.6129 85.4623 87.0921 85.881 86.5309 85.7809Z" stroke="#B3B3B3" stroke-linecap="round" stroke-linejoin="round"/>
    <path d="M70.4399 31.6457C69.2206 29.4105 66.8677 27.8964 64.1666 27.8964C64.1515 27.8964 64.1364 27.8974 64.1202 27.8974C64.1787 27.4321 64.209 26.9578 64.209 26.4763C64.209 20.3451 59.2974 15.375 53.2391 15.375C49.1411 15.375 45.5689 17.6497 43.6854 21.0187C42.4459 20.423 41.059 20.0892 39.5954 20.0892C34.9079 20.0892 31.0087 23.5078 30.1991 28.0157C29.7813 27.9388 29.3503 27.8964 28.9102 27.8964C24.9554 27.8964 21.7487 31.141 21.7487 35.1432C21.7487 38.937 24.6294 42.0471 28.2975 42.3617V42.39H45.2802" stroke="#B3B3B3" stroke-linecap="round" stroke-linejoin="round"/>
</svg>
