<svg viewBox="0 0 1255 742" fill="none" xmlns="http://www.w3.org/2000/svg">
    <path d="M918.139 100.31C945.529 108.73 972.679 117.08 999.889 125.68L998.989 126.5L980.929 41.91L981.939 42.23C960.739 61.72 939.529 80.95 918.139 100.3C918.139 100.3 939.539 80.96 918.139 100.3V100.31ZM916.709 100.63C938.049 80.86 959.569 60.98 981.109 41.34C981.439 41.03 982.039 41.21 982.119 41.66L1000.37 126.2C1000.49 126.71 999.959 127.2 999.469 127.02C971.849 118.36 944.159 109.46 916.719 100.61L916.709 100.63Z" fill="white"/>
    <path d="M988.86 83.8199C975.67 79.7899 962.71 75.7399 949.6 71.4299L950.37 70.7399C950.93 72.4499 951.19 74.2099 951.59 75.9499C953.58 85.4099 957.26 103 959.25 112.63L957.89 112.2C968.1 102.62 978.38 93.3099 988.86 83.8199V83.8199ZM990.48 83.4599C980.15 93.4099 969.6 103.54 959 113.4C958.55 113.84 957.75 113.58 957.64 112.97C955.25 100.84 951.29 82.9899 949.19 70.9899C949.1 70.5599 949.53 70.1599 949.96 70.2999C963.45 74.5099 977.07 78.9699 990.48 83.4599Z" fill="white"/>
    <path d="M948.299 70.07L931.708 53.5C931.378 53.17 931.378 52.63 931.708 52.3C932.048 51.96 932.608 51.97 932.938 52.33L948.738 69.66C948.998 69.93 948.569 70.35 948.299 70.08V70.07Z" fill="white"/>
    <path d="M958.529 114.7L951.969 137.46C951.829 137.93 951.339 138.21 950.869 138.07C950.399 137.93 950.119 137.44 950.259 136.97C950.259 136.97 957.899 114.52 957.899 114.5C958.029 114.11 958.649 114.29 958.529 114.7V114.7Z" fill="white"/>
    <path d="M990.569 83.69L1014.25 78.21C1014.85 78.07 1015.44 78.44 1015.58 79.04C1015.73 79.66 1015.31 80.29 1014.68 80.39L990.689 84.29C990.319 84.36 990.189 83.77 990.569 83.69V83.69Z" fill="white"/>
    <path d="M981.369 42.6199L931.759 52.9799L932.919 52.7099L917.539 100.79L917.359 99.9699L951.189 137.55L950.679 137.39L1000.09 124.55L999.009 125.53L1016.25 78.3099L1016.41 79.0299L981.389 42.5999L981.369 42.6199ZM981.899 40.8999L1017.41 78.0699C1017.6 78.2699 1017.65 78.5499 1017.57 78.7899L1001.86 126.54C1001.69 127.05 1001.27 127.41 1000.78 127.52L950.909 138.43C950.719 138.47 950.529 138.41 950.399 138.27L916.099 101.12C915.889 100.89 915.829 100.58 915.919 100.3L930.319 51.9199C930.319 51.9199 930.339 51.8899 930.349 51.8899L931.469 51.6499L981.889 40.9099L981.899 40.8999Z" fill="white"/>
    <path d="M1149.02 340.73C1126.72 337.52 1104.19 332.98 1083.77 323.13C1062.35 312.46 1063.59 300.85 1087.38 296.15C1109.66 292.06 1132.57 293.61 1154.9 296.37C1177.18 299.53 1199.69 304.03 1220.12 313.8C1241.53 324.39 1240.24 335.86 1216.59 340.66C1194.32 344.87 1171.39 343.41 1149.02 340.73ZM1149.18 339.51C1171.42 342.3 1194.25 343.86 1216.42 339.85C1239.23 335.34 1240.85 324.88 1219.82 314.38C1199.48 304.64 1177.02 300.13 1154.82 296.96C1132.55 294.26 1109.7 292.79 1087.53 296.92C1064.87 301.53 1063.18 311.85 1084.2 322.27C1104.55 331.92 1126.99 336.39 1149.17 339.52L1149.18 339.51Z" fill="white"/>
    <path d="M1149.51 334.04C1130.36 331.33 1091.22 324.78 1076.84 312.65C1068.19 303.56 1086.93 301 1092.83 300.32C1113.1 298.28 1133.55 299.99 1153.69 302.54C1173.79 305.34 1193.98 309.03 1213.01 316.3C1218.5 318.48 1235.86 325.86 1225.22 332.26C1208.18 340.21 1168.73 336.39 1149.52 334.04H1149.51ZM1149.64 333.05C1168.63 335.47 1208.05 339.48 1224.93 331.76C1235.04 325.97 1217.64 318.75 1212.8 316.79C1193.83 309.53 1173.67 305.83 1153.61 303.01C1133.51 300.52 1113.09 298.86 1092.88 300.95C1087.64 301.6 1069.18 304.02 1077.31 312.15C1091.52 323.96 1130.7 330.44 1149.62 333.05H1149.64Z" fill="white"/>
    <path d="M142.581 690C133.421 673.92 116.101 636.99 124.681 619.33C134.141 604.21 155.651 624.59 163.351 632.79C176.891 647.37 187.551 664.45 195.691 682.56C201.721 696.71 208.651 715.72 205.861 731.23C204.131 739.97 197.341 743.88 188.931 740.73C169.911 733.11 152.531 707.35 142.581 690V690ZM144.631 688.83C154.581 705.66 171.501 730.27 190.031 737.51C209.201 743.47 201.641 712.08 198.401 702.52C192.381 684.11 183.191 666.74 172.281 650.76C164.971 640.25 156.771 629.92 146.461 622.27C132.161 611.96 123.821 616.62 125.081 634.28C126.841 653.68 135.281 671.92 144.631 688.82V688.83Z" fill="white"/>
    <path d="M202.621 732.6C202.551 732.7 315.381 588.51 314.081 590.48C315.271 584.54 308.051 585.63 304.151 586.3L298.421 587.23C248.781 595.33 187.591 605.19 137.811 612.88C137.391 612.95 136.991 612.66 136.921 612.23C136.851 611.81 137.141 611.42 137.551 611.34C187.141 602.28 248.091 591.53 297.671 582.9C301.271 582.39 305.881 581.13 309.631 581.36C315.371 581.4 319.511 585.79 317.201 591.57C317.341 592.07 205.041 733.96 204.951 734.41C204.441 735.05 203.511 735.16 202.871 734.66C202.231 734.15 202.111 733.23 202.621 732.58V732.6Z" fill="white"/>
    <path d="M47.28 382.85C33.35 379.15 19.44 373.95 7.92001 364.97C0.970013 359.69 -4.35998 350.45 6.32002 345.67C13.22 342.84 20.8 342.96 28.03 343.27C47.12 344.59 65.88 349.5 83.16 357.7C89.6 360.93 96.23 364.5 100.85 370.28C105 375.44 103.58 381.12 97.49 383.77C83.19 389.59 61.96 386.4 47.27 382.83L47.28 382.85ZM48.5 378.14C61.92 381.47 75.98 384.39 89.83 382.83C113.28 379.22 92.79 364.69 82.19 359.72C65.3 351.69 46.59 346.94 27.92 345.95C16.68 345.28 -8.21999 347.88 10.25 362.03C21.54 370.11 35.2 374.5 48.5 378.15V378.14Z" fill="white"/>
    <path d="M1234.62 107.66C1243.77 124.31 1260.97 162.7 1251.84 180.67C1241.85 196.06 1220.07 174.73 1212.28 166.17C1198.59 150.94 1187.92 133.19 1179.85 114.41C1173.89 99.75 1167.07 80.08 1170.21 64.16C1172.14 55.2 1179.18 51.29 1187.79 54.68C1207.23 62.84 1224.68 89.64 1234.63 107.65L1234.62 107.66ZM1232.49 108.83C1222.53 91.35 1205.54 65.74 1186.61 57.98C1167.02 51.48 1174.22 83.98 1177.41 93.84C1183.29 112.88 1192.45 130.91 1203.41 147.53C1210.75 158.46 1219.02 169.24 1229.49 177.27C1244.03 188.12 1252.69 183.47 1251.69 165.27C1250.2 145.29 1241.83 126.37 1232.5 108.83H1232.49Z" fill="white"/>
    <path d="M1173.5 62.89C1173.57 62.75 1024.25 226.41 1025.95 224.11C1024.56 231.41 1034.79 228.69 1039.07 228.02C1092.28 217.51 1184.18 198.1 1238.17 187.1C1238.6 187.01 1239.03 187.29 1239.12 187.72C1239.21 188.15 1238.94 188.57 1238.51 188.66L1183.81 201.07C1141 210.58 1082.63 223.72 1039.91 232.49C1036.32 233.17 1032.42 234.04 1028.71 233.36C1023.22 232.56 1020.32 227.39 1023.08 222.38C1023.08 222.38 1171.25 60.85 1171.25 60.84C1171.82 60.22 1172.78 60.18 1173.4 60.75C1174.02 61.32 1174.06 62.28 1173.49 62.9L1173.5 62.89Z" fill="white"/>
    <path d="M284.059 517.42C267.089 514.51 251.889 495.48 239.539 484.35C228.129 473.91 214.819 461.7 202.919 478.71C191.119 495.77 182.349 515.54 167.179 530.19C150.989 545.73 132.669 544.26 114.419 533.2C108.299 528.33 102.669 522.93 97.1091 517.53C88.8291 509.68 81.0591 501.06 71.1791 495.32C50.8091 483.41 40.0591 510.92 34.2491 525.94C31.5891 533.17 28.5191 540.3 24.3491 546.88C20.5291 553.3 11.9191 563.45 4.59909 555.4C-1.52091 547.37 1.05908 535.33 2.47908 526.16C3.20908 520.34 4.75908 514.66 6.93908 509.22C14.8891 487.64 31.6991 464.54 56.8191 463.84C72.5191 463.48 88.4791 470.68 99.5491 481.52C110.589 492.04 119.139 505.48 132.939 512.49C137.359 514.11 143.929 514.85 148.659 512.2C162.429 504.47 166.129 482.55 173.809 469.05C176.509 463.87 180.419 459.37 184.609 455.26C188.819 451.2 193.679 447.66 199.189 445.34C216.229 437.99 234.779 445.9 248.589 456.32C257.869 463.17 266.119 471.23 274.009 479.58C276.719 482.31 279.129 485.44 281.989 487.98C289.269 493.55 299.629 490.09 307.319 494.97C313.689 499.07 316.029 509.84 309.829 515.09C302.379 520.94 292.569 518.78 284.059 517.44V517.42ZM284.329 515.75C287.119 516.24 289.959 516.36 292.769 516.33C298.079 516.13 303.999 516.41 308.469 513.36C312.689 510.45 312.289 504.04 309.669 500.09C308.109 497.52 305.549 495.82 302.599 495.05C296.139 493.27 287.789 494.58 281.519 490.48C280.959 490.16 280.189 489.49 279.669 489.08C277.089 486.52 274.739 483.87 272.199 481.3C264.299 473.19 256.029 465.34 246.819 458.75C223.239 441.68 200.669 439.91 181.099 463.7C171.999 474.65 169.029 488.96 161.619 501.32C155.069 513.04 145.429 519.16 132.029 514.35C114.449 505.59 104.869 487.14 88.7291 476.68C45.8391 451.82 19.9091 481.52 7.32908 521.5C4.32908 528.44 2.70909 536 3.59909 543.51C3.93909 546.98 4.95908 550.67 6.99908 553.4C9.13908 556.32 12.5791 555.96 15.4191 554.06C21.5991 549.89 25.2991 542.64 28.4691 536C36.4291 518.53 45.5691 479.14 72.2691 493.31C82.4991 499.01 90.5191 507.78 98.9291 515.65C104.189 520.78 110.729 526.72 115.839 530.81C132.849 540.9 150.059 542.63 164.829 527.71C177.789 514.66 185.419 497.4 194.989 481.75C197.329 477.81 199.949 473.51 203.769 470.1C217.419 457.65 232.749 470.82 242.629 481.22C254.369 492.83 267.799 512.36 284.339 515.75H284.329Z" fill="white"/>
    <path d="M851.46 451.47C726.18 430.24 566.8 402.26 441.03 380.72C434.83 379.72 429.33 375.54 426.41 370.02C424.57 366.58 423.7 362.67 423.79 358.79C423.79 357.43 423.99 353.69 424.02 352.27L425.29 317.59L426.48 282.9C426.51 282.17 426.51 281.48 426.57 280.7C426.85 275.17 429.13 269.76 433.1 265.85C437.61 261.3 444.35 258.96 450.71 260.07L519.21 271.3C587.23 282.42 656.65 294.78 724.37 306.99C758.35 313.18 827.02 325.33 861.06 331.27C867.1 332.27 872.43 336.34 875.28 341.72C877.47 345.71 878.07 350.36 877.75 354.85C876.98 378.57 876.37 409.22 875.36 433.12C873.89 444.38 862.929 453.52 851.449 451.46L851.46 451.47ZM852.17 447.3C863.31 449.26 872.35 439.37 871.99 428.44C873.15 406.15 874.75 376.78 875.71 354.78C876.87 344.98 870.85 334.91 860.71 333.33C748.34 314.41 630.32 296.33 518.36 276.31L450.02 264.15C444.95 263.21 439.57 265.01 435.86 268.67C431.97 272.37 430.18 277.75 430.22 283.06C429.54 300.36 427.86 335.12 427.23 352.41L427.05 356.74C426.37 363.49 428.71 370.49 434.31 374.59C436.46 376.15 438.93 377.22 441.56 377.66L578.43 400.87C655.96 413.88 775.56 434.1 852.17 447.3Z" fill="white"/>
    <path d="M431.86 268.13L528.6 181.21L528.44 181.41C528.73 180.9 529.01 180.62 529.33 180.28C533.45 176.41 539.37 175.57 544.78 175.19C594.16 181.92 907.65 235.52 949.62 242.03L960.2 243.8L965.49 244.68C969.29 245.29 973.03 246.99 975.94 249.56C982.02 254.8 984.05 262.69 983.24 270.42C983.16 273.83 982.74 282.98 982.64 286.5C982.37 294.28 980.88 333.16 980.63 340.11C980.42 345.68 980.57 351.78 977.29 356.65C973.1 362.78 966.46 366.78 960.81 371.27C953.18 377.11 939.26 388.69 931.6 394.8C909.38 412.82 887.08 430.73 864.73 448.58C864.02 449.15 862.99 449.03 862.42 448.32C861.86 447.62 861.97 446.6 862.66 446.03C884.76 427.85 906.92 409.73 929.16 391.72C936.86 385.55 950.72 374.05 958.44 368.14L962.73 364.93C967.91 360.84 974.31 356.88 975.91 350.25C976.7 346.97 976.66 343.41 976.83 339.97C977.02 333.29 978.78 293.97 979.04 286.37C979.22 282.81 979.54 273.73 979.7 270.29C980.15 265.17 979.72 260.18 976.85 255.86C974.15 251.73 969.83 248.83 964.93 248.07L959.64 247.17L949.06 245.37C909.12 239.08 591.57 183.39 544.86 176.78C539.57 177.15 533.32 177.86 529.74 182.13C529.66 182.37 433.85 269.99 433.7 270.19C433.14 270.7 432.28 270.66 431.77 270.11C431.26 269.55 431.3 268.68 431.86 268.17V268.13Z" fill="white"/>
    <path d="M881.359 329.1L970.049 258.08" stroke="white" stroke-width="2.73" stroke-linecap="round" stroke-linejoin="round"/>
    <path d="M493.149 323.67C492.619 340.54 471.949 348.15 460.589 335.68C453.779 328.34 454.439 316.01 461.959 309.49C473.829 298.66 493.559 307.53 493.149 323.67ZM490.749 323.58C491.539 308.56 474.009 300.26 462.939 310.56C456.329 316.59 456.069 327.76 462.349 334.05C472.189 344.45 489.999 337.87 490.739 323.58H490.749Z" fill="white"/>
    <path d="M544.76 332.42C544.3 349.28 523.92 356.92 512.51 344.44C505.73 337.1 506.44 324.8 513.96 318.35C525.75 307.69 545.11 316.48 544.76 332.42ZM542.97 332.35C543.81 317.13 525.91 308.75 514.77 319.22C508.16 325.32 507.95 336.52 514.27 342.81C524.11 353.2 542.13 346.68 542.97 332.35Z" fill="white"/>
    <path d="M596.289 339.62C595.819 356.48 575.359 364.11 563.959 351.65C557.139 344.31 557.819 331.96 565.359 325.46C577.289 314.71 596.619 323.52 596.299 339.62H596.289ZM594.369 339.54C595.199 324.44 577.349 316.12 566.309 326.49C559.709 332.54 559.479 343.7 565.749 349.99C575.589 360.4 593.529 353.88 594.369 339.54V339.54Z" fill="white"/>
    <path d="M833.269 370.25L743.569 354.08C735.479 352.62 694.749 345.28 687.509 343.97L684.709 343.46C680.549 342.9 676.859 339.54 676.039 335.38C674.499 327.49 679.499 320.15 688.009 321.37C724.029 327.73 798.629 340.9 833.859 347.12L836.659 347.62C839.789 348.06 842.829 350.04 844.379 352.85C845.749 355.14 845.939 357.87 845.689 360.47C845.449 366.61 839.269 371.44 833.259 370.25H833.269ZM833.729 367.66C837.809 368.46 842.149 365.62 842.959 361.52C843.829 357.31 842.829 352.77 838.629 350.82C837.389 350.18 834.849 349.88 833.419 349.6L822.209 347.58C793.759 342.45 717.089 328.63 687.659 323.32C683.419 322.51 678.929 325.47 678.099 329.72C676.919 335.11 679.219 340.53 685.069 341.41L687.869 341.91C722.769 348.07 798.049 361.36 833.719 367.66H833.729Z" fill="white"/>
    <path d="M832.17 398.9L742.429 382.94C734.339 381.5 693.589 374.25 686.349 372.96L683.549 372.46C678.759 371.85 674.729 367.56 674.519 362.69C673.819 355.13 679.069 348.87 686.919 350.03C716.689 355.36 792.719 368.96 821.499 374.11L832.709 376.12C834.289 376.45 836.989 376.72 838.509 377.53C843.699 379.94 845.32 385.6 844.17 390.9C843.11 396.23 837.49 399.95 832.17 398.91V398.9ZM832.56 396.72C836.74 397.53 841.179 394.61 841.989 390.41C842.889 386.13 841.79 381.49 837.55 379.55C836.35 378.89 833.71 378.62 832.31 378.33C797.42 372.12 722.159 358.73 686.489 352.39C682.349 351.59 677.96 354.47 677.15 358.62C676.01 363.96 678.139 369.2 683.959 370.13C720.349 376.64 795.42 390.08 832.56 396.72Z" fill="white"/>
    <path d="M831.029 427.74C808.649 423.76 763.629 415.94 741.229 412.12C733.119 410.72 692.349 403.73 685.099 402.42L682.289 401.93C677.199 401.27 672.949 396.74 672.719 391.57C672.679 389.9 672.709 388.43 673.029 386.81C674.149 381.08 680.179 377.08 685.899 378.19C725.859 385.36 780.449 395.49 820.369 402.87L831.579 404.9C833.159 405.23 835.869 405.51 837.399 406.32C842.599 408.75 844.229 414.42 843.069 419.75C841.999 425.09 836.369 428.8 831.039 427.75L831.029 427.74ZM831.419 425.56C835.599 426.36 840.019 423.44 840.829 419.25C841.709 414.98 840.609 410.37 836.389 408.44C835.199 407.79 832.549 407.52 831.159 407.23L819.939 405.26C797.539 401.41 752.509 393.65 730.109 389.8L685.229 381.91C681.019 381.07 676.669 384.43 676.499 388.73C675.789 393.34 678.089 397.62 682.939 398.35L685.739 398.86C730.079 406.94 786.999 417.62 831.419 425.57V425.56Z" fill="white"/>
    <path d="M844.069 586.75C722.159 565.92 555.53 536.93 433.65 516C423.38 514.41 415.92 504.29 416.38 494.08C416.88 480.36 417.29 466.59 417.7 452.87C418.08 447.9 418.21 415.46 419.58 411.25C421.39 404.22 426.74 398.16 433.71 395.87C436.8 394.84 440.16 394.57 443.38 395.12L580.16 418.89C657.59 432.6 777.06 453.36 853.68 466.6C859.72 467.58 865.06 471.65 867.91 477.02C869.7 480.37 870.55 484.19 870.46 487.98C870.46 489.36 870.28 493.06 870.26 494.49C869.61 514.61 868.92 543.48 868.36 563.88C868.87 577.18 857.749 589.02 844.069 586.76V586.75ZM844.78 582.58C853.21 584.21 861.71 577.91 863.77 569.74C865.05 566.82 865.8 533 866.35 529.06C866.94 517.51 867.59 505.95 868.1 494.4C868.23 491.9 868.47 488.31 868.35 485.85C868.15 483.11 867.41 480.4 866.13 477.97C863.57 473.1 858.81 469.46 853.34 468.59C819.16 462.82 750.61 451.22 716.44 445.52C648.2 434.23 510.8 411.18 442.6 399.68C437.61 398.77 432.33 400.56 428.69 404.16C424.86 407.82 423.13 413.12 423.18 418.35C422.09 441.5 420.54 471.3 419.6 494.17C419.17 502.87 425.34 511.62 434.17 512.94C556.09 533.7 722.89 561.71 844.78 582.58Z" fill="white"/>
    <path d="M958.369 380.34C968.599 382.38 975.639 392.32 974.989 402.5C974.739 408.36 974.349 417.1 974.169 423C973.659 437.79 972.689 465.53 972.199 480.42C972.079 483.19 971.749 486.08 970.649 488.82C969.579 491.59 967.639 493.87 965.639 495.83C959.599 501.54 952.639 505.95 946.389 511.35L933.719 521.78C909.179 541.92 882.179 564.36 857.569 584.16C856.699 584.86 855.419 584.73 854.719 583.85C854.019 582.98 854.149 581.71 855.019 581.01C871.989 567.18 889.079 553.51 906.199 539.88C914.859 532.98 936.359 515.82 944.689 509.17C948.889 505.68 953.439 502.51 957.759 499.24C964.819 493.89 969.909 489.83 970.059 480.31C970.949 461.64 972.179 433.31 972.989 414.75L973.279 406.55C973.299 405.51 973.489 401.56 973.419 400.47C973.259 397.19 972.209 393.96 970.459 391.21C967.739 386.74 962.949 383.69 957.919 383.06C956.079 382.81 956.519 380.01 958.369 380.36V380.34Z" fill="white"/>
    <path d="M424.72 403.63C428.7 401.04 431.99 397.62 435.58 394.56L446.1 385.09C447.38 383.98 449.06 385.91 447.74 387.02C443.86 390.16 434.95 397.3 431.26 400.41C429.46 401.93 427.59 403.37 426.05 405.2C425.68 405.64 425.02 405.7 424.58 405.33C424.03 404.89 424.11 403.99 424.72 403.63V403.63Z" fill="white"/>
    <path d="M873.969 464.38L962.659 393.36" stroke="white" stroke-width="2.73" stroke-linecap="round" stroke-linejoin="round"/>
    <path d="M485.75 458.94C485.22 475.81 464.55 483.42 453.19 470.95C446.38 463.61 447.04 451.28 454.56 444.76C466.43 433.93 486.16 442.8 485.75 458.94V458.94ZM483.35 458.85C484.14 443.83 466.61 435.53 455.54 445.83C448.93 451.86 448.67 463.03 454.95 469.32C464.79 479.72 482.6 473.14 483.34 458.85H483.35Z" fill="white"/>
    <path d="M537.369 467.7C536.909 484.56 516.529 492.2 505.119 479.72C498.339 472.38 499.049 460.08 506.569 453.63C518.359 442.97 537.719 451.76 537.369 467.7ZM535.579 467.63C536.419 452.41 518.519 444.03 507.379 454.5C500.769 460.6 500.559 471.8 506.879 478.09C516.719 488.48 534.739 481.96 535.579 467.63Z" fill="white"/>
    <path d="M588.899 474.9C588.429 491.76 567.969 499.39 556.569 486.93C549.749 479.59 550.429 467.24 557.969 460.74C569.899 449.99 589.229 458.8 588.909 474.9H588.899ZM586.979 474.82C587.809 459.72 569.959 451.4 558.919 461.77C552.319 467.82 552.089 478.98 558.359 485.27C568.199 495.68 586.139 489.16 586.979 474.82V474.82Z" fill="white"/>
    <path d="M825.879 505.53L736.179 489.39C728.089 487.93 687.359 480.61 680.119 479.3L677.319 478.8C673.139 478.24 669.429 474.86 668.609 470.68C667.059 462.74 672.099 455.37 680.649 456.6C710.429 461.87 786.489 475.32 815.279 480.42L826.499 482.4C828.109 482.73 830.789 482.99 832.339 483.81C837.599 486.24 839.269 491.98 838.109 497.36C837.039 502.79 831.319 506.59 825.899 505.54L825.879 505.53ZM826.339 502.94C830.419 503.74 834.749 500.9 835.559 496.8C836.429 492.59 835.419 488.06 831.229 486.11C829.989 485.47 827.449 485.17 826.029 484.89L814.819 482.87C786.359 477.75 709.699 463.96 680.259 458.66C676.049 457.85 671.589 460.79 670.769 465.01C669.609 470.4 671.839 475.73 677.689 476.63L680.489 477.13C715.389 483.3 790.659 496.62 826.329 502.93L826.339 502.94Z" fill="white"/>
    <path d="M824.779 534.17C794.999 528.87 718.959 515.33 690.179 510.2L678.959 508.2L676.159 507.7C671.379 507.09 667.359 502.81 667.149 497.95C666.449 490.4 671.679 484.16 679.519 485.31C709.289 490.63 785.329 504.23 814.099 509.37L825.319 511.38C826.899 511.71 829.599 511.98 831.119 512.79C836.299 515.2 837.929 520.85 836.779 526.16C835.719 531.49 830.099 535.21 824.779 534.17V534.17ZM825.169 531.99C829.349 532.8 833.789 529.88 834.609 525.68C835.509 521.4 834.409 516.76 830.169 514.81C828.909 514.17 826.369 513.87 824.929 513.59L813.709 511.59C785.259 506.52 708.539 492.86 679.109 487.62C674.499 486.71 669.739 490.39 669.559 495.11C668.789 500.01 671.469 504.7 676.569 505.41L679.369 505.91C714.269 512.15 789.499 525.6 825.169 531.98V531.99Z" fill="white"/>
    <path d="M823.639 563.02L733.939 546.85C725.889 545.4 685.089 538.05 677.879 536.74L675.079 536.24C672.059 535.81 669.169 533.9 667.689 531.2C666.109 528.49 666.159 525.28 666.689 522.32C667.709 517.15 673.159 513.55 678.319 514.56C708.139 519.76 784.199 533.01 812.999 538.06L824.219 540.02C825.859 540.35 828.509 540.6 830.079 541.44C835.379 543.94 836.979 549.61 835.769 555.04C834.669 560.4 828.989 564.11 823.649 563.02H823.639ZM824.029 560.84C828.639 561.7 833.369 558 833.499 553.28C833.999 549.47 832.579 545.53 828.929 543.87C827.699 543.25 825.149 542.95 823.739 542.66C788.829 536.32 713.699 522.61 678.029 516.09C674.579 515.46 670.869 517.16 669.159 520.23C666.219 525.88 668.439 533.62 675.369 534.58C711.739 541 786.899 554.28 824.029 560.83V560.84Z" fill="white"/>
    <path d="M838.699 723.14C716.789 702.3 550.139 673.43 428.269 652.4C417.999 650.8 410.549 640.68 411.019 630.47C411.529 616.75 411.969 602.98 412.399 589.26C412.789 584.32 412.989 551.86 414.339 547.68C416.139 540.7 421.459 534.68 428.369 532.42C431.429 531.4 434.769 531.14 437.959 531.68L574.739 555.42C652.179 569.08 771.659 589.78 848.289 602.99C854.329 603.97 859.669 608.03 862.519 613.41C864.309 616.76 865.159 620.58 865.079 624.37C865.079 625.75 864.899 629.45 864.879 630.88C864.239 651 863.539 679.87 862.979 700.27C863.489 713.57 852.359 725.41 838.689 723.15L838.699 723.14ZM839.409 718.97C847.839 720.6 856.339 714.3 858.399 706.13C859.679 703.21 860.429 669.39 860.969 665.45C861.559 653.9 862.199 642.34 862.719 630.79C862.849 628.29 863.089 624.7 862.969 622.24C862.769 619.5 862.029 616.79 860.749 614.36C858.189 609.49 853.429 605.85 847.959 604.98C813.789 599.19 745.229 587.56 711.069 581.85C642.839 570.51 505.439 547.41 437.249 535.9C432.199 534.98 426.869 536.8 423.199 540.44C419.349 544.13 417.599 549.47 417.659 554.74C416.609 577.89 415.129 607.7 414.209 630.57C413.789 639.27 419.969 648.02 428.799 649.33C550.739 669.98 717.519 698.12 839.409 718.98V718.97Z" fill="white"/>
    <path d="M953 516.73C963.23 518.77 970.27 528.71 969.62 538.89C969.37 544.75 968.98 553.49 968.81 559.39C968.3 574.18 967.34 601.92 966.86 616.81C966.74 619.58 966.41 622.47 965.31 625.22C964.24 627.99 962.3 630.28 960.3 632.24C954.26 637.96 947.3 642.37 941.05 647.76L928.38 658.18C903.79 678.26 876.95 700.89 852.05 720.33C851.28 720.93 850.18 720.79 849.58 720.02C849 719.27 849.12 718.2 849.83 717.6C866.57 703.5 883.73 689.91 900.83 676.25C909.48 669.35 930.98 652.17 939.31 645.53C943.51 642.04 948.06 638.87 952.38 635.59C959.44 630.25 964.52 626.19 964.68 616.69C965.58 598.02 966.81 569.69 967.63 551.13L967.92 542.93C967.94 541.89 968.13 537.94 968.06 536.85C967.9 533.57 966.85 530.34 965.1 527.59C962.38 523.12 957.59 520.07 952.56 519.44C950.72 519.19 951.16 516.39 953.01 516.74L953 516.73Z" fill="white"/>
    <path d="M419.32 540.06C423.33 537.17 426.63 533.46 430.24 530.11L440.81 519.78C442.04 518.62 443.8 520.47 442.53 521.64C438.63 525.09 429.67 532.95 425.95 536.35C424.14 538.01 422.25 539.61 420.72 541.57C420.37 542.02 419.71 542.11 419.26 541.75C418.7 541.33 418.74 540.44 419.32 540.06V540.06Z" fill="white"/>
    <path d="M868.609 600.78L957.299 529.75" stroke="white" stroke-width="2.73" stroke-linecap="round" stroke-linejoin="round"/>
    <path d="M480.389 595.34C479.859 612.21 459.189 619.82 447.829 607.35C441.019 600.01 441.679 587.68 449.199 581.16C461.069 570.33 480.799 579.2 480.389 595.34V595.34ZM477.989 595.25C478.779 580.23 461.249 571.93 450.179 582.23C443.569 588.26 443.309 599.43 449.589 605.72C459.429 616.12 477.239 609.54 477.979 595.25H477.989Z" fill="white"/>
    <path d="M532 604.09C531.54 620.95 511.16 628.59 499.75 616.11C492.97 608.77 493.68 596.47 501.2 590.02C512.99 579.36 532.35 588.15 532 604.09ZM530.21 604.02C531.05 588.8 513.15 580.42 502.01 590.89C495.4 596.99 495.19 608.19 501.51 614.48C511.35 624.87 529.37 618.35 530.21 604.02Z" fill="white"/>
    <path d="M583.53 611.3C583.06 628.16 562.6 635.79 551.2 623.33C544.38 615.99 545.06 603.64 552.6 597.14C564.53 586.39 583.86 595.2 583.54 611.3H583.53ZM581.61 611.22C582.44 596.12 564.59 587.8 553.55 598.17C546.95 604.22 546.72 615.38 552.99 621.67C562.83 632.08 580.77 625.56 581.61 611.22V611.22Z" fill="white"/>
    <path d="M820.51 641.93L730.81 625.79C722.72 624.33 681.99 617.01 674.75 615.7L671.95 615.2C667.76 614.64 664.06 611.26 663.24 607.08C661.69 599.14 666.73 591.77 675.28 593C705.06 598.27 781.12 611.73 809.9 616.82L821.12 618.81C822.73 619.14 825.41 619.4 826.96 620.22C832.22 622.65 833.89 628.39 832.73 633.77C831.66 639.2 825.94 643 820.52 641.95L820.51 641.93ZM820.97 639.34C825.05 640.14 829.38 637.3 830.19 633.2C831.06 628.99 830.05 624.46 825.86 622.51C824.62 621.87 822.08 621.57 820.66 621.29L809.45 619.27C780.99 614.15 704.33 600.36 674.89 595.06C670.68 594.25 666.22 597.19 665.41 601.41C664.25 606.8 666.48 612.13 672.32 613.03L675.12 613.53C710.02 619.7 785.29 633.02 820.96 639.34H820.97Z" fill="white"/>
    <path d="M819.369 670.8C796.999 666.79 752.039 658.59 729.699 654.45C721.649 652.97 680.889 645.45 673.669 644.17L670.869 643.66C667.879 643.23 665.029 641.36 663.559 638.68C662.249 636.46 662.099 633.87 662.349 631.39C662.589 625.62 668.399 621.1 674.049 622.24C714.029 629.35 768.739 638.75 808.749 645.66L819.969 647.64C821.599 647.97 824.249 648.22 825.809 649.04C831.079 651.47 832.749 657.21 831.589 662.59C830.519 668.03 824.789 671.84 819.359 670.79L819.369 670.8ZM819.839 668.17C823.909 668.97 828.239 666.14 829.049 662.05C829.929 657.85 828.919 653.32 824.729 651.37C823.489 650.73 820.949 650.43 819.529 650.14L808.319 648.11C785.969 644 741.019 635.72 718.679 631.61L673.829 623.51C669.409 622.67 664.739 625.75 663.879 630.18C662.649 635.73 665.079 641.37 671.119 642.27L673.919 642.76C718.319 650.53 775.399 660.24 819.839 668.16V668.17Z" fill="white"/>
    <path d="M818.279 699.41L728.559 683.38C720.469 681.93 679.719 674.65 672.479 673.36L669.679 672.86C665.499 672.3 661.799 668.94 660.969 664.76C659.409 656.82 664.449 649.45 672.999 650.67C702.779 655.98 778.819 669.52 807.599 674.65L818.819 676.65C820.399 676.98 823.099 677.24 824.619 678.05C829.799 680.45 831.429 686.1 830.279 691.4C829.229 696.73 823.609 700.45 818.289 699.41H818.279ZM818.669 697.23C822.849 698.04 827.289 695.13 828.109 690.93C829.009 686.64 827.909 681.99 823.669 680.05C822.399 679.4 819.869 679.11 818.419 678.82L807.199 676.82C778.749 671.74 702.039 658.03 672.619 652.77C667.949 651.85 663.129 655.58 662.949 660.36C662.169 665.31 664.899 670.04 670.039 670.76L672.839 671.26C707.739 677.48 782.979 690.88 818.649 697.24L818.669 697.23Z" fill="white"/>
    <path d="M657.939 163.7C646.069 141.52 621.669 126.9 596.469 127.27C595.719 127.27 595.129 126.6 595.229 125.86C598.139 101.27 592.479 75.82 579.329 54.88C544.449 -0.93005 468.709 -12.5301 418.779 30.2999C409.349 38.2699 401.479 47.9999 395.099 58.6199C394.779 59.1999 394.049 59.42 393.459 59.13C380.279 53.68 366.159 50.7599 351.919 51.0499C334.199 51.2399 316.599 56.7699 301.939 66.7299C281.099 80.5199 266.449 102.92 261.629 127.41C261.519 128.09 260.849 128.55 260.169 128.42C221.739 121.99 184.539 150.06 179.979 188.57C174.659 226.96 202.949 263.49 241.669 267.79C242.439 267.87 242.909 268.57 242.809 269.31L241.559 268.06H409.809C411.409 268.04 411.489 270.53 409.809 270.56H241.559C240.869 270.56 240.309 270 240.309 269.31V269.03L241.449 270.27C231.659 269.78 221.959 267.05 213.159 262.55C186.189 248.92 170.319 217.71 174.649 187.86C179.589 146.82 220.029 116.97 260.619 125.95L259.169 126.96C261.569 112.48 267.279 98.4499 275.969 86.4999C293.129 62.2699 322.109 46.98 351.839 46.66C366.659 46.35 381.619 49.81 394.539 56.88L392.909 57.3999C393.639 56.2099 395.769 52.4199 396.489 51.2199C397.399 49.8099 399.559 46.6999 400.479 45.2999C451.979 -24.9501 558.669 -10.4601 590.949 70.02C597.979 87.7 600.229 107.35 597.679 126.17C597.679 126.18 596.439 124.77 596.439 124.77C622.539 124.36 647.869 139.49 660.189 162.46C660.529 163.08 660.299 163.87 659.679 164.21C659.049 164.55 658.269 164.32 657.929 163.7H657.939Z" fill="white"/>
</svg>
