<svg viewBox="0 0 32 32" fill="none" xmlns="http://www.w3.org/2000/svg">
    <path d="M20.7862 24.98H4.17371C2.56996 24.98 1.26996 23.68 1.26996 22.0762V4.32624C1.26996 2.72249 2.56996 1.42249 4.17371 1.42249H24.1812C25.785 1.42249 27.085 2.72249 27.085 4.32624V19.6625" stroke="#464646" stroke-linecap="round" stroke-linejoin="round"/>
    <path d="M24.9362 6.76624H16.3212C15.8994 6.76624 15.5574 7.10818 15.5574 7.52999V7.57249C15.5574 7.99429 15.8994 8.33624 16.3212 8.33624H24.9362C25.358 8.33624 25.6999 7.99429 25.6999 7.57249V7.52999C25.6999 7.10818 25.358 6.76624 24.9362 6.76624Z" stroke="#464646" stroke-linecap="round" stroke-linejoin="round"/>
    <path d="M24.9137 3.82129H10.2337C9.80019 3.82129 9.44873 4.17275 9.44873 4.60629C9.44873 5.03983 9.80019 5.39129 10.2337 5.39129H24.9137C25.3473 5.39129 25.6987 5.03983 25.6987 4.60629C25.6987 4.17275 25.3473 3.82129 24.9137 3.82129Z" stroke="#464646" stroke-linecap="round" stroke-linejoin="round"/>
    <path d="M21.455 17.6263L30.8525 23.9938C31.0462 24.125 30.9825 24.425 30.7525 24.4663L27.925 24.9675C27.7412 25 27.65 25.21 27.7525 25.3663L30.4787 29.55C30.56 29.675 30.52 29.8425 30.3912 29.9175L28.565 30.9838C28.445 31.0538 28.2912 31.0175 28.215 30.9013L25.465 26.68C25.3662 26.5275 25.1462 26.5213 25.0375 26.6663L23.4387 28.8175C23.3025 29.0013 23.0137 28.9325 22.9737 28.7075L21.0537 17.8875C21.0137 17.6613 21.2662 17.4975 21.4562 17.6263H21.455Z" stroke="#464646" stroke-linecap="round" stroke-linejoin="round"/>
    <path d="M9.81377 20.2963C9.24002 20.2963 8.77252 20.7638 8.77252 21.3375C8.77252 21.9113 9.24002 22.3788 9.81377 22.3788C10.3875 22.3788 10.855 21.9113 10.855 21.3375C10.855 20.7638 10.3875 20.2963 9.81377 20.2963Z" stroke="#464646" stroke-linecap="round" stroke-linejoin="round"/>
    <path d="M16.5788 20.2963C16.005 20.2963 15.5375 20.7638 15.5375 21.3375C15.5375 21.9113 16.005 22.3788 16.5788 22.3788C17.1525 22.3788 17.62 21.9113 17.62 21.3375C17.62 20.7638 17.1525 20.2963 16.5788 20.2963Z" stroke="#464646" stroke-linecap="round" stroke-linejoin="round"/>
    <path d="M2.90753 9.16125H5.74628L7.41253 17.4963C7.63503 18.6113 8.62253 19.42 9.76003 19.42H17.6525" stroke="#464646" stroke-linecap="round" stroke-linejoin="round"/>
    <path d="M7.73627 16.6838H17.1288C17.9888 16.6838 18.7188 16.04 18.825 15.1863L19.3588 10.9138C19.3713 10.8163 19.3413 10.7188 19.2763 10.645C19.2113 10.5713 19.1188 10.53 19.02 10.53H6.71002" stroke="#464646" stroke-linecap="round" stroke-linejoin="round"/>
    <path d="M8.91992 11.0938L9.40367 15.8813" stroke="#464646" stroke-linecap="round" stroke-linejoin="round"/>
    <path d="M11.6525 11.0837L11.9037 15.8912" stroke="#464646" stroke-linecap="round" stroke-linejoin="round"/>
    <path d="M17.0262 11.0938L16.5437 15.8813" stroke="#464646" stroke-linecap="round" stroke-linejoin="round"/>
    <path d="M14.295 11.0837L14.0437 15.8912" stroke="#464646" stroke-linecap="round" stroke-linejoin="round"/>
    <path d="M7.73621 13.3425H17.82" stroke="#464646" stroke-linecap="round" stroke-linejoin="round"/>
</svg>
