<svg viewBox="0 0 61 61" fill="none" xmlns="http://www.w3.org/2000/svg">
    <path d="M39.5725 47.96H6.34754C3.14004 47.96 0.540039 45.36 0.540039 42.1525V6.65247C0.540039 3.44497 3.14004 0.844971 6.34754 0.844971H46.3625C49.57 0.844971 52.17 3.44497 52.17 6.65247V37.325" stroke="#464646" stroke-linecap="round" stroke-linejoin="round"/>
    <path d="M47.8727 11.5325H30.6427C29.7991 11.5325 29.1152 12.2164 29.1152 13.06V13.145C29.1152 13.9886 29.7991 14.6725 30.6427 14.6725H47.8727C48.7164 14.6725 49.4002 13.9886 49.4002 13.145V13.06C49.4002 12.2164 48.7164 11.5325 47.8727 11.5325Z" stroke="#464646" stroke-linecap="round" stroke-linejoin="round"/>
    <path d="M47.8275 5.64246H18.4675C17.6004 5.64246 16.8975 6.34537 16.8975 7.21246C16.8975 8.07954 17.6004 8.78246 18.4675 8.78246H47.8275C48.6945 8.78246 49.3975 8.07954 49.3975 7.21246C49.3975 6.34537 48.6945 5.64246 47.8275 5.64246Z" stroke="#464646" stroke-linecap="round" stroke-linejoin="round"/>
    <path d="M40.9101 33.2524L59.7051 45.9874C60.0926 46.2499 59.9651 46.8499 59.5051 46.9324L53.8501 47.9349C53.4826 47.9999 53.3001 48.4199 53.5051 48.7324L58.9576 57.0999C59.1201 57.3499 59.0401 57.6849 58.7826 57.8349L55.1301 59.9674C54.8901 60.1074 54.5826 60.0349 54.4301 59.8024L48.9301 51.3599C48.7326 51.0549 48.2926 51.0424 48.0751 51.3324L44.8776 55.6349C44.6051 56.0024 44.0276 55.8649 43.9476 55.4149L40.1076 33.7749C40.0276 33.3224 40.5326 32.9949 40.9126 33.2524H40.9101Z" stroke="#464646" stroke-linecap="round" stroke-linejoin="round"/>
    <path d="M17.6274 38.5925C16.4799 38.5925 15.5449 39.5275 15.5449 40.675C15.5449 41.8225 16.4799 42.7575 17.6274 42.7575C18.7749 42.7575 19.7099 41.8225 19.7099 40.675C19.7099 39.5275 18.7749 38.5925 17.6274 38.5925Z" stroke="#464646" stroke-linecap="round" stroke-linejoin="round"/>
    <path d="M31.1572 38.5925C30.0097 38.5925 29.0747 39.5275 29.0747 40.675C29.0747 41.8225 30.0097 42.7575 31.1572 42.7575C32.3047 42.7575 33.2397 41.8225 33.2397 40.675C33.2397 39.5275 32.3047 38.5925 31.1572 38.5925Z" stroke="#464646" stroke-linecap="round" stroke-linejoin="round"/>
    <path d="M3.81494 16.3225H9.49244L12.8249 32.9925C13.2699 35.2225 15.2449 36.84 17.5199 36.84H33.3049" stroke="#464646" stroke-linecap="round" stroke-linejoin="round"/>
    <path d="M13.4724 31.3676H32.2574C33.9774 31.3676 35.4374 30.0801 35.6499 28.3726L36.7174 19.8276C36.7424 19.6326 36.6824 19.4376 36.5524 19.2901C36.4224 19.1426 36.2374 19.0601 36.0399 19.0601H11.4199" stroke="#464646" stroke-linecap="round" stroke-linejoin="round"/>
    <path d="M15.8398 20.1875L16.8073 29.7625" stroke="#464646" stroke-linecap="round" stroke-linejoin="round"/>
    <path d="M21.3047 20.1675L21.8072 29.7825" stroke="#464646" stroke-linecap="round" stroke-linejoin="round"/>
    <path d="M32.0524 20.1875L31.0874 29.7625" stroke="#464646" stroke-linecap="round" stroke-linejoin="round"/>
    <path d="M26.5899 20.1675L26.0874 29.7825" stroke="#464646" stroke-linecap="round" stroke-linejoin="round"/>
    <path d="M13.4722 24.6851H33.6397" stroke="#464646" stroke-linecap="round" stroke-linejoin="round"/>
</svg>
