<svg width="256" height="256" viewBox="0 0 256 256" fill="none" xmlns="http://www.w3.org/2000/svg">
<g clip-path="url(#clip0_1128_1397)">
<path d="M167.741 201.41C124.551 202.14 77.2809 202.13 33.9009 202.22C20.1409 202.32 8.37088 190.54 8.54088 176.77C8.58088 175.25 8.54088 170.52 8.56088 168.9C8.62088 128.31 8.94088 78.32 9.14088 37.69C9.17088 37 9.14088 34.47 9.16088 33.75C9.24088 20.22 20.3809 9.15 33.9209 9.24C68.8609 9.33 110.611 9.65 145.451 9.42C161.181 9.26 176.951 9.04 192.691 8.99C208.821 8.01 221.011 20.51 219.891 36.63C219.961 73.15 219.871 120.65 219.731 157.34C219.611 158.95 217.351 159.03 217.241 157.34C216.971 122.67 217.151 76.37 217.081 41.87V36.62V34C217.161 26.57 213.261 19.25 206.951 15.29C204.181 13.52 201.021 12.38 197.761 11.97C194.931 11.7 190.361 11.78 187.441 11.75C137.511 11.09 83.9709 11.29 33.9209 11.53C21.7609 11.58 11.7909 21.57 11.8409 33.76C11.8209 34.49 11.8709 36.91 11.8609 37.69C12.0809 78.34 12.3609 128.3 12.4409 168.9C12.5009 171.57 12.3309 176.48 12.6109 179.17C13.6709 189.72 23.2909 198.28 33.8909 198.11C35.4409 198.14 40.1209 198.11 41.7609 198.12C82.4909 198.06 127.231 198.34 167.721 198.91C168.411 198.92 168.961 199.49 168.951 200.18C168.941 200.85 168.391 201.4 167.721 201.41H167.741Z" fill="#000C1F"/>
<path d="M201.172 68.13L156.632 67.38L134.362 67.09C132.402 67.07 130.252 67.27 128.452 66.25C121.972 62.77 124.272 52.56 131.762 52.53C152.172 52.53 179.562 52.08 199.962 51.69C211.542 50.71 212.632 67.49 201.172 68.13ZM201.172 64.03C205.662 64.04 207.012 57.87 203.182 55.73C202.222 55.16 201.072 55.17 199.962 55.17C188.162 54.95 165.832 54.58 154.032 54.44L131.762 54.33C130.172 54.33 128.612 55.09 127.652 56.35C125.062 59.69 127.222 65.02 131.602 65.07C147.382 64.99 184.972 64.28 201.172 64.02V64.03Z" fill="#000C1F"/>
<path d="M201 44.33C172.44 44.07 116.65 43.41 88.7602 43.43C87.5202 43.41 83.5102 43.45 82.2102 43.39C77.8702 43.21 74.4902 38.75 75.4602 34.52C76.1202 31.15 79.2802 28.56 82.7202 28.59C91.3502 28.59 108.64 28.48 117.25 28.39C138.58 28.19 173.68 27.86 194.95 27.7L199.27 27.67H200.35C211.85 27.4 212.52 43.79 200.99 44.33H201ZM201 40.39C206.67 40.15 206.67 31.86 200.9 31.76C200.57 31.76 199.63 31.75 199.28 31.75C169.19 31.53 130.09 31.13 100 30.88L82.7302 30.82C78.9602 30.7 76.2302 35.12 78.0702 38.43C79.0602 40.39 81.1802 41.46 83.3602 41.29H84.4402C114.25 41.32 170.54 40.67 200.99 40.38L201 40.39Z" fill="#000C1F"/>
<path d="M173.971 139.69C197.541 156.4 222.271 173.68 246.501 189.59C246.891 189.84 249.011 191.28 249.361 191.51C250.771 192.43 251.091 194.52 250.021 195.83C249.471 196.58 248.531 196.92 247.661 197.03L246.981 197.15L245.631 197.4C240.591 198.37 231.641 200.01 226.701 200.96C226.351 201.04 225.731 201.12 225.401 201.21C224.741 201.37 224.461 202.15 224.901 202.72L226.431 205.01L229.481 209.59C232.771 214.53 243.121 230.06 246.261 234.77L247.021 235.91C248.221 237.41 247.921 240.04 246.251 241.16C245.801 241.48 243.681 242.7 243.171 243.02C240.811 244.41 236.081 247.27 233.721 248.67C232.411 249.36 230.571 250.91 228.951 250.62C227.721 250.51 226.591 249.77 225.961 248.72L225.581 248.15C225.131 247.48 223.781 245.42 223.311 244.71C219.261 238.58 209.181 223.29 205.131 217.16L203.701 215.01C203.701 215.01 203.671 214.99 203.651 215.01C200.561 219.17 194.281 227.62 191.181 231.8C189.841 234.09 186.831 234.83 184.731 233.07C184.021 232.49 183.511 231.62 183.341 230.76L182.361 225.27C178.031 200.66 173.581 174.04 169.391 149.34L168.471 143.92L168.411 143.58C168.391 143.45 168.371 143.4 168.351 143.17C167.901 140.2 171.511 137.94 173.961 139.73L173.971 139.69ZM172.291 142.17C171.901 141.88 171.301 142.27 171.401 142.73C171.401 142.81 171.481 143.21 171.511 143.34C176.771 171.69 182.341 201.51 187.411 229.84C187.421 229.87 187.411 229.84 187.411 229.84C187.411 229.84 187.431 229.86 187.441 229.85C187.461 229.85 187.441 229.85 187.441 229.86C187.441 229.86 187.441 229.86 187.461 229.83C190.731 225.47 196.161 218.12 199.371 213.83C199.811 213.26 200.391 212.37 200.911 211.9C202.761 210.15 206.001 210.67 207.251 212.87C207.371 213.06 207.691 213.55 207.811 213.74C213.471 222.54 223.511 238.16 229.161 246.92C229.201 246.96 229.261 246.99 229.321 247C229.401 247 229.401 247.02 229.551 246.94C233.921 244.42 239.501 241.25 243.881 238.75C244.171 238.56 244.681 238.41 244.531 237.94C244.511 237.89 244.521 237.89 244.351 237.64L243.611 236.48C242.711 235.07 240.121 231 239.181 229.52C236.951 226.02 226.381 209.42 224.401 206.31C224.221 205.99 222.801 203.85 222.681 203.57C221.621 201.35 223.241 198.96 225.631 198.84C231.801 197.8 241.131 196.27 247.341 195.21L247.681 195.15C247.801 195.13 247.911 195.11 247.961 195.09C248.751 194.95 249.141 193.87 248.651 193.23C248.561 193.02 247.971 192.71 247.801 192.56C223.251 175.44 197.381 158.33 172.301 142.15L172.291 142.17Z" fill="#000C1F"/>
<path d="M79.3517 163.51C73.2417 163.67 70.1517 171.47 74.3517 175.83C76.9417 178.75 81.8417 178.93 84.6917 176.17C89.6817 171.49 86.1217 163.24 79.3517 163.51ZM79.3517 161.36C87.3717 161.54 91.4217 171.63 85.8717 177.35C82.4917 181.1 76.1317 181.28 72.4917 177.69C66.1617 171.63 70.6417 161.12 79.3517 161.36Z" fill="#000C1F"/>
<path d="M133.842 163.5C127.762 163.63 124.632 171.51 128.842 175.82C131.432 178.75 136.342 178.93 139.192 176.17C144.192 171.49 140.632 163.22 133.842 163.5ZM133.842 161.36C141.852 161.54 145.902 171.63 140.352 177.34C136.982 181.09 130.612 181.27 126.972 177.69C120.642 171.63 125.122 161.12 133.832 161.37L133.842 161.36Z" fill="#000C1F"/>
<path d="M23.7017 70.67C23.7517 70.67 46.5818 71.35 46.6318 71.36C47.2817 71.38 47.8017 71.85 47.9217 72.46C50.3917 85.44 52.8517 98.42 55.4017 111.38C56.1117 115.02 59.5217 132.45 60.1717 135.69L60.6517 138.12C61.2717 142.05 62.8317 145.8 65.6217 148.66C69.4118 152.78 75.0317 154.76 80.5817 154.44H83.0617L102.882 154.39C116.092 154.33 129.302 154.21 142.512 154.01C143.272 154 143.892 154.6 143.902 155.36C143.912 156.12 143.312 156.74 142.552 156.75C129.332 156.55 116.102 156.43 102.882 156.37L83.0617 156.32C78.0017 156.48 72.6117 156.18 68.2517 153.25C63.0217 150.11 59.6217 144.48 58.7417 138.51C58.4317 136.97 57.5917 132.82 57.2717 131.23C53.4517 112.41 49.1818 91.7 45.2418 73.01L46.5818 74.11L23.7117 74.79C20.9617 74.82 20.8817 70.69 23.7117 70.68L23.7017 70.67Z" fill="#000C1F"/>
<path d="M62.6025 131.27C81.4725 131.72 102.182 131.92 121.132 131.98L135.762 132.03C140.392 132.37 144.912 131.21 147.892 127.48C151.062 123.83 150.782 118.85 151.482 114.3C152.252 107.59 153.842 95.48 154.612 88.88C154.612 88.7 154.882 86.81 154.892 86.63C154.992 85.85 154.332 85.1 153.542 85.1H153.112H149.452C118.572 85.21 85.1025 85.44 54.3425 85.78C51.7025 85.76 51.5325 81.79 54.3025 81.67C73.8225 81.85 93.3525 82.09 112.872 82.16C118.292 82.18 144.632 82.35 149.452 82.34C150.212 82.4 153.542 82.25 154.272 82.42C156.532 82.8 158.052 85.18 157.552 87.4L157.322 89.21C156.492 95.74 154.942 107.96 154.102 114.61C153.402 119.55 153.432 125.15 149.882 129.11C146.462 133.39 141.042 134.95 135.772 134.59C128.482 134.6 113.792 134.68 106.502 134.7C92.3425 134.83 76.6925 135.02 62.6025 135.35C59.8825 135.34 59.7825 131.27 62.6025 131.24V131.27Z" fill="#000C1F"/>
<path d="M73.0115 88.21L78.0815 126.66C78.3715 129.35 74.4315 129.88 74.0115 127.2C73.9915 127.18 71.2915 88.45 71.2815 88.39C71.2115 87.29 72.8515 87.1 73.0115 88.21Z" fill="#000C1F"/>
<path d="M95.2327 88.15L98.2226 126.84C98.3126 127.97 97.4626 128.96 96.3326 129.05C95.2026 129.14 94.2126 128.29 94.1226 127.16C94.1026 127.15 93.0726 88.31 93.0626 88.27C93.0426 86.89 95.1027 86.76 95.2327 88.16V88.15Z" fill="#000C1F"/>
<path d="M138.501 88.4L135.611 127.07C135.341 129.76 131.381 129.48 131.511 126.76C131.501 126.75 136.421 88.23 136.411 88.19C136.591 86.87 138.581 87.05 138.501 88.4Z" fill="#000C1F"/>
<path d="M116.752 88.28L115.472 127.06C115.432 128.19 114.482 129.08 113.352 129.05C112.222 129.01 111.332 128.06 111.362 126.93C111.352 126.93 114.142 88.18 114.142 88.15C114.282 86.48 116.782 86.59 116.752 88.29V88.28Z" fill="#000C1F"/>
<path d="M62.6015 105.2C89.6615 103.96 116.781 104.05 143.841 105.41C145.051 105.48 145.111 107.33 143.841 107.41C130.311 108.19 116.771 108.4 103.221 108.46C89.6715 108.47 76.1315 108.34 62.6015 107.62C61.1215 107.53 61.0715 105.3 62.6015 105.2Z" fill="#000C1F"/>
</g>
<defs>
<clipPath id="clip0_1128_1397">
<rect width="256" height="256" fill="white"/>
</clipPath>
</defs>
</svg>
