<svg viewBox="0 0 572 362" fill="none" xmlns="http://www.w3.org/2000/svg">
    <path d="M112.4 0.791016H254.79C274.66 0.791016 287.077 17.197 282.42 37.261L216.087 324.741C211.431 344.804 191.458 361.211 171.589 361.211H29.1989C9.32893 361.211 -3.08808 344.805 1.56892 324.741L67.8999 37.261C72.5569 17.093 92.4259 0.791016 112.295 0.791016H112.399H112.4Z" fill="#D10429"/>
    <path d="M242.34 0.791016H406.16C426.028 0.791016 417.025 17.197 412.369 37.261L346.035 324.741C341.378 344.804 342.827 361.211 322.958 361.211H159.148C139.176 361.211 126.861 344.805 131.621 324.741L197.955 37.261C202.611 17.093 222.479 0.791016 242.453 0.791016H242.349H242.34Z" fill="#022E64"/>
    <path d="M400.41 0.791016H542.81C562.679 0.791016 575.097 17.197 570.439 37.261L504.107 324.741C499.449 344.804 479.476 361.211 459.608 361.211H317.218C297.245 361.211 284.931 344.805 289.588 324.741L355.921 37.261C360.577 17.093 380.446 0.791016 400.315 0.791016H400.419H400.41Z" fill="#076F74"/>
    <path d="M376.5 271.81H389.953L393.782 258.747H380.431L376.5 271.81ZM387.262 235.86L382.605 251.327C382.605 251.327 387.676 248.714 390.47 247.878C393.264 247.251 397.403 246.728 397.403 246.728L400.611 235.965H387.16L387.262 235.86ZM393.988 213.707L389.539 228.546C389.539 228.546 394.506 226.246 397.3 225.517C400.094 224.785 404.233 224.576 404.233 224.576L407.441 213.812H394.092L393.988 213.707V213.707ZM423.689 213.707L406.303 271.704H410.96L407.338 283.722H402.681L401.543 287.379H384.984L386.124 283.722H352.595L355.906 272.646H359.321L376.915 213.708L380.433 201.795H397.301L395.541 207.751C395.541 207.751 399.99 204.512 404.338 203.361C408.581 202.213 433.003 201.795 433.003 201.795L429.381 213.604H423.586L423.689 213.707V213.707Z" fill="#FEFEFE"/>
    <path d="M430.59 201.79H448.596L448.803 208.582C448.7 209.731 449.631 210.254 451.804 210.254H455.426L452.115 221.437H442.386C434.004 222.064 430.796 218.407 431.003 214.331L430.692 201.894L430.59 201.79V201.79ZM432.806 254.99H415.628L418.524 245.063H438.186L440.98 235.971H421.629L424.94 224.789H478.752L475.44 235.971H457.331L454.537 245.063H472.646L469.644 254.99H450.086L446.568 259.17H454.536L456.502 271.71C456.709 272.964 456.709 273.8 457.122 274.323C457.537 274.741 459.917 274.95 461.262 274.95H463.642L459.917 287.177H453.811C452.881 287.177 451.431 287.073 449.465 287.073C447.602 286.863 446.361 285.818 445.119 285.191C443.98 284.669 442.325 283.31 441.911 280.907L440.048 268.367L431.149 280.698C428.354 284.564 424.527 287.595 418.006 287.595H405.588L408.899 276.726H413.66C415.006 276.726 416.248 276.205 417.18 275.681C418.111 275.263 418.938 274.845 419.766 273.488L432.806 254.99V254.99ZM244.906 227.79H290.335L287.023 238.763H268.914L266.121 248.062H284.748L281.333 259.349H262.809L258.256 274.501C257.739 276.173 262.706 276.382 264.465 276.382L273.778 275.128L270.052 287.668H249.148C247.494 287.668 246.252 287.459 244.388 287.041C242.628 286.623 241.801 285.787 241.077 284.638C240.351 283.384 239.109 282.443 239.937 279.726L245.939 259.663H235.591L239.006 248.168H249.354L252.148 238.868H241.801L245.113 227.894L244.906 227.79V227.79ZM276.293 207.955H294.92L291.505 219.345H266.048L263.254 221.749C262.012 222.899 261.702 222.481 260.149 223.317C258.702 224.047 255.7 225.51 251.767 225.51H243.592L246.903 214.538H249.387C251.457 214.538 252.907 214.328 253.63 213.911C254.458 213.389 255.39 212.239 256.32 210.357L260.976 201.789H279.501L276.293 208.059V207.955V207.955ZM311.4 226.765C311.4 226.765 316.47 222.064 325.164 220.601C327.13 220.183 339.548 220.39 339.548 220.39L341.411 214.12H315.229L311.399 226.87L311.4 226.765ZM336.029 231.572H310.054L308.502 236.901H331.062C333.752 236.588 334.27 237.005 334.477 236.797L336.132 231.572H336.029V231.572ZM302.294 201.894H318.127L315.851 209.941C315.851 209.941 320.818 205.866 324.336 204.402C327.855 203.148 335.719 201.894 335.719 201.894L361.383 201.79L352.587 231.259C351.138 236.275 349.379 239.515 348.344 241.082C347.414 242.545 346.274 243.903 343.998 245.157C341.825 246.307 339.857 247.038 337.996 247.143C336.34 247.247 333.649 247.352 330.131 247.352H305.399L298.465 270.655C297.845 272.954 297.534 274.102 297.948 274.729C298.258 275.252 299.189 275.879 300.328 275.879L311.193 274.834L307.467 287.583H295.257C291.324 287.583 288.53 287.479 286.564 287.373C284.702 287.165 282.734 287.373 281.389 286.329C280.251 285.284 278.493 283.926 278.595 282.566C278.699 281.312 279.216 279.222 280.045 276.296L302.294 201.894V201.894Z" fill="#FEFEFE"/>
    <path d="M348.43 248.79L346.981 255.895C346.362 258.089 345.843 259.762 344.187 261.225C342.428 262.688 340.462 264.255 335.703 264.255L326.907 264.673L326.803 272.615C326.7 274.808 327.322 274.599 327.631 275.017C328.045 275.435 328.355 275.54 328.769 275.749L331.563 275.539L339.947 275.122L336.427 286.826H326.803C320.077 286.826 315.006 286.616 313.453 285.363C311.798 284.317 311.591 283.063 311.591 280.764L312.211 249.623H327.631L327.424 255.997H331.149C332.391 255.997 333.324 255.893 333.84 255.579C334.356 255.265 334.668 254.743 334.875 254.012L336.427 248.996H348.535L348.43 248.79ZM129.06 92.79C128.543 95.298 118.609 141.382 118.609 141.382C116.435 150.682 114.883 157.371 109.709 161.655C106.708 164.163 103.189 165.312 99.1541 165.312C92.6341 165.312 88.9091 162.073 88.2881 155.908L88.1841 153.818C88.1841 153.818 90.1501 141.382 90.1501 141.278C90.1501 141.278 100.499 99.269 102.362 93.73C102.465 93.417 102.465 93.208 102.465 93.103C82.2851 93.313 78.6641 93.103 78.4571 92.79C78.3531 93.208 77.8361 95.8201 77.8361 95.8201L67.2801 143.16L66.3481 147.13L64.5901 160.298C64.5901 164.164 65.3141 167.403 66.8671 170.016C71.7301 178.585 85.4941 179.839 93.2551 179.839C103.293 179.839 112.71 177.644 119.022 173.778C130.095 167.194 132.992 156.849 135.476 147.758L136.718 143.055C136.718 143.055 147.377 99.479 149.24 93.836C149.343 93.522 149.343 93.313 149.447 93.209C134.752 93.313 130.509 93.2091 129.06 92.8951V92.79V92.79ZM188.09 179.413C180.949 179.308 178.362 179.308 169.98 179.726L169.669 179.099C170.393 175.859 171.221 172.725 171.842 169.485L172.877 165.096C174.429 158.304 175.878 150.257 176.085 147.854C176.292 146.391 176.705 142.734 172.566 142.734C170.807 142.734 169.048 143.569 167.186 144.405C166.15 148.063 164.184 158.304 163.149 162.902C161.079 172.725 160.976 173.874 160.045 178.682L159.424 179.308C152.077 179.204 149.49 179.204 141.004 179.622L140.59 178.89C142.039 173.038 143.384 167.186 144.73 161.334C148.248 145.554 149.18 139.494 150.11 131.447L150.835 131.029C159.114 129.88 161.08 129.566 170.083 127.79L170.807 128.626L169.462 133.642C171.014 132.702 172.463 131.761 174.015 131.029C178.258 128.939 182.915 128.312 185.502 128.312C189.434 128.312 193.781 129.462 195.54 134.06C197.196 138.135 196.16 143.151 193.884 153.079L192.746 158.095C190.469 169.172 190.056 171.157 188.813 178.681L187.986 179.308L188.09 179.413V179.413ZM217.147 179.44C212.801 179.44 210.007 179.336 207.317 179.44C204.626 179.44 202.039 179.65 198.003 179.754L197.796 179.44L197.589 179.022C198.727 174.842 199.245 173.379 199.866 171.916C200.383 170.453 200.9 168.99 201.936 164.706C203.177 159.167 204.005 155.301 204.522 151.852C205.143 148.612 205.454 145.792 205.868 142.552L206.178 142.343L206.488 142.03C210.835 141.403 213.526 140.985 216.32 140.567C219.114 140.149 222.011 139.627 226.461 138.791L226.668 139.209L226.771 139.627L224.289 149.972C223.461 153.421 222.633 156.869 221.909 160.318C220.355 167.633 219.632 170.35 219.322 172.335C218.908 174.216 218.803 175.157 218.182 178.919L217.768 179.232L217.354 179.546L217.147 179.44V179.44ZM263.089 153.765C262.779 155.646 261.123 162.648 258.95 165.574C257.397 167.768 255.638 169.127 253.568 169.127C252.948 169.127 249.428 169.127 249.326 163.797C249.326 161.185 249.843 158.467 250.464 155.542C252.327 147.077 254.604 140.076 260.295 140.076C264.745 140.076 265.055 145.301 263.089 153.765V153.765ZM281.819 154.601C284.302 143.524 282.337 138.299 279.957 135.164C276.231 130.357 269.609 128.79 262.779 128.79C258.638 128.79 248.912 129.208 241.254 136.314C235.77 141.434 233.183 148.436 231.734 155.124C230.18 161.916 228.422 174.143 239.598 178.741C243.012 180.204 247.98 180.621 251.188 180.621C259.364 180.621 267.746 178.323 274.058 171.635C278.921 166.201 281.094 158.05 281.922 154.601H281.819V154.601ZM456.249 180.681C447.556 180.577 445.073 180.577 437.103 180.995L436.586 180.368C438.759 172.112 440.932 163.752 442.898 155.392C445.381 144.524 446.002 139.926 446.831 133.552L447.451 133.03C456.041 131.776 458.421 131.463 467.424 129.791L467.631 130.522C465.975 137.419 464.423 144.212 462.767 151.004C459.456 165.321 458.317 172.636 457.077 180.16L456.249 180.787V180.681V180.681Z" fill="#FEFEFE"/>
    <path d="M443.75 155.16C443.336 156.936 441.68 164.042 439.507 166.968C438.058 169.058 434.54 170.417 432.574 170.417C431.953 170.417 428.538 170.417 428.331 165.192C428.331 162.579 428.848 159.862 429.469 156.936C431.332 148.681 433.61 141.679 439.3 141.679C443.75 141.679 445.716 146.799 443.75 155.264V155.16ZM460.825 155.996C463.307 144.919 453.167 155.056 451.615 151.398C449.131 145.65 450.682 134.155 440.749 130.289C436.92 128.721 427.917 130.707 420.259 137.813C414.878 142.829 412.187 149.83 410.739 156.518C409.185 163.206 407.427 175.538 418.499 179.822C422.019 181.389 425.226 181.807 428.434 181.598C439.612 180.971 448.096 163.937 454.41 157.249C459.271 151.92 460.1 159.235 460.825 155.996V155.996ZM330.885 179.409C323.745 179.304 321.261 179.304 312.879 179.722L312.568 179.095C313.293 175.855 314.121 172.721 314.844 169.481L315.775 165.092C317.329 158.3 318.88 150.253 318.983 147.85C319.19 146.387 319.604 142.73 315.568 142.73C313.809 142.73 311.948 143.565 310.188 144.401C309.256 148.059 307.186 158.3 306.151 162.898C304.185 172.721 303.978 173.87 303.047 178.678L302.426 179.304C295.079 179.2 292.492 179.2 284.006 179.618L283.592 178.886C285.041 173.034 286.386 167.182 287.732 161.33C291.251 145.55 292.079 139.49 293.112 131.443L293.733 131.025C302.013 129.876 304.083 129.562 312.981 127.786L313.707 128.622L312.465 133.638C313.914 132.698 315.466 131.757 316.915 131.025C321.158 128.935 325.814 128.308 328.4 128.308C332.334 128.308 336.577 129.458 338.438 134.056C340.094 138.131 338.957 143.147 336.679 153.075L335.541 158.091C333.161 169.168 332.851 171.153 331.607 178.677L330.781 179.304L330.885 179.409V179.409ZM392.886 92.8901L386.884 92.9951C371.361 93.2041 365.152 93.0991 362.669 92.7861C362.462 93.9361 362.048 95.9211 362.048 95.9211C362.048 95.9211 356.46 121.837 356.46 121.941C356.46 121.941 343.214 177.117 342.593 179.729C356.149 179.52 361.634 179.52 364.014 179.834C364.533 177.221 367.636 161.86 367.74 161.86C367.74 161.86 370.43 150.574 370.535 150.156C370.535 150.156 371.361 149.006 372.189 148.484H373.431C385.125 148.484 398.267 148.484 408.617 140.856C415.653 135.631 420.414 127.793 422.587 118.388C423.104 116.089 423.518 113.372 423.518 110.551C423.518 106.893 422.794 103.341 420.724 100.519C415.445 93.0991 404.993 92.9951 392.886 92.8901V92.8901ZM400.647 119.956C399.406 125.703 395.68 130.615 390.92 132.914C386.987 134.899 382.227 135.108 377.26 135.108H374.052L374.259 133.854C374.259 133.854 380.158 107.938 380.158 108.043L380.364 106.684L380.468 105.639L382.848 105.849C382.848 105.849 395.059 106.893 395.266 106.893C400.025 108.774 402.096 113.581 400.647 119.956ZM527.857 128.622L527.134 127.786C518.337 129.562 516.681 129.876 508.609 131.026L507.99 131.652C507.99 131.757 507.886 131.862 507.886 132.07V131.966C501.884 146.073 501.986 143.043 497.124 154.12C497.124 153.597 497.124 153.284 497.019 152.761L495.777 128.726L495.054 127.89C485.74 129.667 485.533 129.98 477.047 131.13L476.426 131.757C476.322 132.07 476.322 132.384 476.322 132.697L476.426 132.802C477.461 138.34 477.254 137.086 478.289 145.76C478.806 150.044 479.427 154.329 479.944 158.509C480.772 165.615 481.29 169.063 482.325 179.827C476.528 189.44 475.183 193.098 469.596 201.561L469.906 202.397C478.29 202.085 480.152 202.085 486.361 202.085L487.707 200.517C492.363 190.382 527.963 128.727 527.963 128.727L527.857 128.622V128.622ZM225.137 135.544C229.897 132.2 230.517 127.602 226.482 125.199C222.446 122.795 215.306 123.527 210.545 126.871C205.785 130.111 205.268 134.708 209.304 137.216C213.236 139.516 220.376 138.888 225.137 135.544V135.544Z" fill="#FEFEFE"/>
    <path d="M486.33 201.9L479.395 213.919C477.222 217.994 473.083 221.129 466.667 221.129L455.594 220.92L458.802 210.052H460.975C462.113 210.052 462.941 209.948 463.562 209.634C464.183 209.425 464.495 209.007 465.011 208.38L469.151 201.797H486.433L486.33 201.9V201.9Z" fill="#FEFEFE"/>
</svg>
