<svg viewBox="0 0 660 203" fill="none" xmlns="http://www.w3.org/2000/svg">
    <path d="M233.198 200.228L266.558 4.46497H319.916L286.532 200.228H233.198ZM479.307 8.68697C468.737 4.72097 452.172 0.464966 431.485 0.464966C378.76 0.464966 341.622 27.016 341.305 65.069C341.008 93.198 367.819 108.89 388.059 118.254C408.829 127.851 415.811 133.97 415.711 142.537C415.578 155.66 399.125 161.653 383.787 161.653C362.432 161.653 351.086 158.686 333.562 151.379L326.685 148.267L319.197 192.09C331.66 197.556 354.705 202.289 378.635 202.535C434.725 202.535 471.137 176.287 471.551 135.651C471.75 113.381 457.535 96.435 426.75 82.463C408.1 73.407 396.678 67.364 396.799 58.194C396.799 50.057 406.467 41.356 427.358 41.356C444.805 41.085 457.446 44.89 467.294 48.856L472.075 51.115L479.307 8.68697M616.615 4.46397H575.385C562.612 4.46397 553.053 7.94997 547.444 20.698L468.2 200.1H524.231C524.231 200.1 533.391 175.979 535.463 170.682C541.586 170.682 596.018 170.766 603.799 170.766C605.395 177.62 610.291 200.1 610.291 200.1H659.803L616.615 4.46397V4.46397ZM551.198 130.872C555.612 119.593 572.458 76.148 572.458 76.148C572.144 76.669 576.839 64.814 579.532 57.464L583.139 74.342C583.139 74.342 593.356 121.071 595.491 130.869H551.198V130.872V130.872Z" fill="#0E4595"/>
    <path d="M0.879002 4.46484L0.1973 8.53714C21.2903 13.6431 40.1293 21.0333 56.6231 30.2266L103.969 199.914L160.424 199.852L244.428 4.46484H187.902L135.664 137.961L130.1 110.83C129.839 109.992 129.556 109.152 129.266 108.311L111.106 20.9923C107.877 8.59634 98.5089 4.89695 86.9199 4.46495H0.879002V4.46484Z" fill="#0E4595"/>
</svg>
